/* XPM */
static char *result[] = {
/* columns rows colors chars-per-pixel */
"64 64 249 2 ",
"   c #5D677D",
".  c #61627E",
"X  c #79697A",
"o  c #7B767A",
"O  c #605F7F",
"+  c #EC7F3C",
"@  c #9D3E7D",
"#  c #B93B75",
"$  c #BE3F68",
"%  c #E73D5E",
"&  c #DB3C6A",
"*  c #C53A79",
"=  c #D33971",
"-  c #EB2E6A",
";  c #E5356B",
":  c #E73767",
">  c #EB3C6F",
",  c #8F4B7D",
"<  c #AE526E",
"1  c #9B7A67",
"2  c #897176",
"3  c #B06D6E",
"4  c #BD725B",
"5  c #DE495B",
"6  c #DA595E",
"7  c #E3485A",
"8  c #E6595E",
"9  c #D2725B",
"0  c #EC694C",
"q  c #E96857",
"w  c #E97858",
"e  c #F0714D",
"r  c #DD4764",
"t  c #D34F6B",
"y  c #E44666",
"u  c #E55763",
"i  c #E64878",
"p  c #F34B7B",
"a  c #F64E7A",
"s  c #EF577A",
"d  c #D77067",
"f  c #E67662",
"g  c #EB6871",
"h  c #3F9278",
"j  c #44937C",
"k  c #69AB73",
"l  c #4EAD75",
"z  c #70EE53",
"x  c #6FDA6B",
"c  c #68D65E",
"v  c #DD913B",
"b  c #EC9A36",
"n  c #EB9C3A",
"m  c #EB9835",
"M  c #F29B38",
"N  c #EF853B",
"B  c #EDA43B",
"V  c #EEAA3C",
"C  c #EAA136",
"Z  c #F2A636",
"A  c #F3A43B",
"S  c #F2A93C",
"D  c #F7A639",
"F  c #F2B03E",
"G  c #BC8859",
"H  c #9D8568",
"J  c #908878",
"K  c #A18B6C",
"L  c #B09868",
"P  c #8FA968",
"I  c #A19F61",
"U  c #D6954D",
"Y  c #D89854",
"T  c #CD8C54",
"R  c #F48A45",
"E  c #EB9C45",
"W  c #F49949",
"Q  c #E78D56",
"!  c #DCA854",
"~  c #DBAD50",
"^  c #EEAB43",
"/  c #ECA34D",
"(  c #EAA647",
")  c #F2A542",
"_  c #F3AB44",
"`  c #F7A848",
"'  c #EDB246",
"]  c #F4B145",
"[  c #EBAA57",
"{  c #F3A855",
"}  c #EBB658",
"|  c #F3BB5B",
" . c #F4B557",
".. c #CC9864",
"X. c #E88865",
"o. c #E29A63",
"O. c #EE9B73",
"+. c #D2B06F",
"@. c #ECAB66",
"#. c #F4AC65",
"$. c #EAB763",
"%. c #F2B464",
"&. c #F5BB6A",
"*. c #F4B867",
"=. c #F6BE7F",
"-. c #F3A97A",
";. c #8ED358",
":. c #86E259",
">. c #F6C25E",
",. c #F5C36A",
"<. c #F9C66A",
"1. c #F1C870",
"2. c #793F93",
"3. c #3D578F",
"4. c #2B4E9C",
"5. c #294E9A",
"6. c #24519E",
"7. c #2B5799",
"8. c #3A5898",
"9. c #374B9C",
"0. c #367989",
"q. c #336794",
"w. c #316793",
"e. c #1F51A6",
"r. c #1F51AA",
"t. c #1F4EA9",
"y. c #254EA5",
"u. c #294DA5",
"i. c #254EA9",
"p. c #294CAA",
"a. c #3549A4",
"s. c #2350A5",
"d. c #2B53A4",
"f. c #2250A9",
"g. c #2951AA",
"h. c #3657A6",
"j. c #244DB1",
"k. c #294CB2",
"l. c #2654B1",
"z. c #3E61AA",
"x. c #3D64B3",
"c. c #47598B",
"v. c #555D86",
"b. c #494898",
"n. c #574895",
"m. c #435895",
"M. c #4D4A8F",
"N. c #7A438B",
"B. c #694792",
"V. c #72528A",
"C. c #5A6585",
"Z. c #576998",
"A. c #4D7091",
"S. c #616581",
"D. c #777387",
"F. c #4348A1",
"G. c #445AA7",
"H. c #5D44A2",
"J. c #5171B1",
"K. c #7E75B3",
"L. c #577CC4",
"P. c #8D3E89",
"I. c #983F81",
"U. c #A33E81",
"Y. c #8B448A",
"T. c #857A83",
"R. c #897B8D",
"E. c #A366A5",
"W. c #ED5285",
"Q. c #ED738B",
"!. c #EE7898",
"~. c #F26B92",
"^. c #EB79A2",
"/. c #CE5E8E",
"(. c #509194",
"). c #7F838C",
"_. c #7188B4",
"`. c #63BA85",
"'. c #7389C9",
"]. c #708CCC",
"[. c #5D82D0",
"{. c #878492",
"}. c #8A8587",
"|. c #8B93B0",
" X c #AA97B4",
".X c #ED8B8F",
"XX c #CDAF8C",
"oX c #F6BA85",
"OX c #F1B584",
"+X c #F486A6",
"@X c #E997AD",
"#X c #E998B4",
"$X c #F595B1",
"%X c #EFAFB0",
"&X c #DEA3A4",
"*X c #F4C383",
"=X c #F4C58C",
"-X c #F9CB89",
";X c #FAD28A",
":X c #F6CB93",
">X c #F5D494",
",X c #F8D698",
"<X c #EBC88C",
"1X c #C8C2AA",
"2X c #F4D3A4",
"3X c #FBDCAA",
"4X c #F7D7A9",
"5X c #F6D2AB",
"6X c #F7E1AA",
"7X c #8891C6",
"8X c #93AACF",
"9X c #A6B0D9",
"0X c #91B0E1",
"qX c #ABBFE2",
"wX c #F8B5C7",
"eX c #F0B7CA",
"rX c #CCB1CE",
"tX c #B9C4D7",
"yX c #B7C5E5",
"uX c #ADC0E0",
"iX c #CCCCD0",
"pX c #F9C5D5",
"aX c #FED4DE",
"sX c #FED8DD",
"dX c #F2D5CC",
"fX c #FBE6C5",
"gX c #FCEBCB",
"hX c #FCE6C9",
"jX c #FDECD3",
"kX c #FBEAD6",
"lX c #FCF2D5",
"zX c #FBF3D8",
"xX c #CED7ED",
"cX c #FFD5E1",
"vX c #FDDAE6",
"bX c #F4C3E0",
"nX c #FDE9EA",
"mX c #FFF4E4",
"MX c #FEF6E7",
"NX c #FFEDF2",
"BX c #FEE6F2",
"VX c #EDF2FC",
"CX c #FEF3F4",
"ZX c #FFFCF4",
"AX c #F6FBFD",
"SX c #FEFDFD",
"DX c #F9F5FB",
"FX c #E8E8F4",
"GX c #D8E4F4",
/* pixels */
"i.i.i.i.i.i.i.s.i.i.i.i.i.i.i.i.u.i.i.i.i.u.p.p.i.r.r.i.j.j.t.i.e.6.u.p.p.t.t.y.y.7.0.j h 0.7.e.r.f.t.i.i.y.y.y.y.i.i.y.y.y.y.i.",
"i.i.i.i.i.i.i.u.i.i.i.i.u.i.i.i.u.u.i.i.i.p.p.p.i.f.s.i.i.j.i.i.i.y.u.p.k.p.i.i.y.w.j k `.(.w.e.e.e.i.j.i.y.y.y.i.i.i.y.i.i.t.i.",
"i.y.i.i.s.i.i.y.i.u.s.i.i.i.s.i.p.i.i.r.y.i.p.i.s.s.y.i.i.i.p.y.a.a.9.a.F.F.a.a.9.c.k ;.x l 0.w.7.6.f.j.i.y.i.p.i.p.i.i.s.i.s.s.",
"i.i.i.i.u.i.i.i.i.i.i.i.i.i.i.u.p.i.f.e.e.i.p.i.i.s.4.u.i.i.t.p.9.n.B.P.2.N.Y.2.N.X k c z c l h 0.w.s.t.i.i.i.i.j.j.p.i.i.i.i.s.",
"i.i.i.i.s.u.i.i.i.i.i.i.i.i.i.i.i.i.i.e.s.i.p.p.i.y.y.p.i.i.i.y.b.N.U.# # # # # # < P ;.z z c c (.q.6.e.i.e.s.p.j.j.i.i.i.i.i.i.",
"i.y.i.i.i.i.y.i.i.s.u.y.i.i.i.i.i.i.s.s.s.i.p.j.i.y.i.i.j.i.a.b.B.Y.t r : & & 7 y 9 I ;.z z x x (.q.6.t.i.y.s.i.j.j.j.i.i.j.p.i.",
"i.y.u.i.i.i.i.i.i.i.i.i.i.i.s.u.i.i.i.f.y.i.i.i.f.f.i.i.p.a.n.B., 3 d f u : 7 8 w T L I I P k l (.w.e.i.i.t.s.i.i.i.i.i.i.i.i.i.",
"i.i.i.i.i.i.i.i.i.i.i.i.i.i.i.i.j.i.i.i.s.i.i.f.r.f.i.i.a.b.Y.U.3 ..$.[ f y 8 X.+.$.o.9 3 T.C.q.8.7.t.i.j.t.s.i.i.y.5.i.i.i.i.i.",
"i.i.i.i.i.i.i.i.u.s.i.i.i.i.i.i.i.p.p.p.u.s.f.s.j.i.i.i.4.B.U.* u o.1.>.X.7 6 o.1.1.Q 6 * , M.4.6.s.f.j.j.i.f.i.5.6.6.u.i.i.i.y.",
"i.i.i.i.i.i.i.i.i.i.s.i.i.u.i.i.s.u.u.u.u.i.s.f.i.i.j.j.a.n.@ = u w @.Y g y y f o.o.w r = P.b.y.s.f.y.i.i.i.i.i.y.y.6.i.i.i.i.i.",
"i.i.s.u.i.i.s.u.i.i.i.i.u.s.i.i.s.i.u.u.p.f.i.p.y.p.i.j.u.n.@ = 7 u 6 u y : : u q 8 7 > * P.b.y.f.f.s.s.f.i.i.i.y.y.y.i.p.j.i.i.",
"i.y.i.i.i.i.i.i.i.i.u.i.i.i.i.i.f.f.i.i.i.f.i.f.h.h.h.d.a.B.@ = : : : y : 5 % % % % : ; U.Y.b.s.p.i.i.y.i.i.i.i.i.y.i.i.i.i.j.i.",
"u.i.i.i.u.i.i.i.i.s.i.i.i.i.i.i.f.i.f.f.r.r.l.x.J.'.'.'.K.E.E.= ; - - : q 9 w 6 : : - ; * P.b.y.j.i.i.y.y.i.i.j.i.i.y.i.i.i.i.i.",
"s.i.i.i.i.i.i.i.i.u.i.i.i.i.i.i.i.i.t.f.e.e.d.J.0XqXyXyXyXrX^.& - - : 8 Q [ @.d r : - ; * P.M.s.i.i.p.i.y.i.i.i.i.i.y.y.i.i.y.i.",
"i.i.i.u.i.i.s.u.i.i.i.i.i.i.i.i.u.u.d.g.d.h.h._.uXVXSXSXDXbX^.& ; ; : 8 o.1.$.X.y : > y t Y.n.g.s.i.p.i.u.y.s.k.j.p.5.s.i.i.i.y.",
"i.i.i.s.i.i.i.i.i.i.i.s.u.i.y.i.d.x.L.].[.'.'.9XxXSXZXZXSXpX+Xy : - - 8 T ~ ! d y > a ~.^.E.7X[.J.h.p.i.s.4.i.j.i.i.y.s.p.i.i.i.",
"4.s.j.i.i.i.i.i.u.u.i.j.j.i.f.t.l.[.8XqXtXtXtXxXFXAXSXAXSXpX+Xi - - ; > s s s p ; W.^.%XeXiXtX9X].x.e.t.p.p.i.s.e.s.i.p.i.p.i.i.",
"u.i.i.j.i.i.y.i.y.y.i.g.g.u.4.6.G.'.yXVXDXDXVXSXSXSXSXZXDXpX+Xi : > & r r 5 5 7 r W.$XaXCXCXAXGX0XJ.f.i.p.i.y.e.s.i.i.i.p.i.i.i.",
"s.i.i.i.i.y.s.s.y.4.d.x.J._.J.'._.qXGXSXSXSXSXSXSXSXZXSXZXsX%X^.~.~.Q.Q.Q.Q.Q.Q.Q.+XwXnXSXSXSXFX0XJ.y.i.p.p.s.s.s.i.i.i.i.i.i.y.",
"s.s.j.p.i.y.e.y.g.i.h.[.0XqXyXuXtXxXFXSXSXSXSXSXSXSXSXSXSXNXaXwXwXwXwXwXwXwXwXwXeXbXvXDXSXAXSXFX8XJ.y.j.p.i.f.f.y.i.i.i.i.i.i.y.",
"r.i.i.p.p.i.r.i.p.i.x.].xXVXDXVXVXAXAXAXZXZXZXSXAXAXSXAXZXZXCXCXNXNXCXNXNXnXNXCXnXDXZXZXDXZXSXFX9XJ.y.j.p.i.f.y.i.i.i.i.i.i.i.y.",
"t.i.i.p.u.i.f.f.i.u.G.|.rXfXfXjXfXfXfXfX6XgXgXfXgXhXhXhXgXhXhXhXhXhXgXgXfXfXhXgXgXgXfXfXfXhXjX5X XZ.y.j.j.p.f.i.p.i.i.f.i.p.i.y.",
"i.i.i.i.i.i.i.i.s.y.G.D.XX-.1.:X1.;X*X=.1.;X;X;X<XOX*X;X;X;X*XoX=X-X;X;X*X=.*X*X>X>X*XoX=.-X:X*X|.A.8.l.i.y.e.i.i.p.i.i.i.i.y.y.",
"j.i.y.y.u.p.i.i.d.6.3.X G / ^ }  . ./ / { ]  . ./ ( ( } |  ./ E ( ]  . .( E ) { | | ' E E } } ~ }.A.4.j.t.f.i.y.p.p.y.t.i.i.y.y.",
"i.i.y.y.p.p.p.p.i.y.3.X G n C ( F V B n ) ) _ A M n B _ _ V C M C ^ _ _ B b Z A _ ^ V b C V ' ~ }.C.4.i.i.6.y.y.p.i.y.i.i.i.i.i.",
"i.i.y.y.i.p.i.t.t.i.8.2 ..{ ) ( D D ) S ) S A D D D S B Z A D D V B B ) V S Z D B B S A S V ( v D.C.4.i.t.y.u.y.i.p.y.f.i.i.i.r.",
"u.u.y.y.i.i.f.r.t.5.3.}...} ) n m B _  .( n b b S ] S B m M ` ] ' B n n ^ ] S A n n B ] ] B E v D.C.4.f.t.i.y.y.p.y.y.i.i.i.i.i.",
"u.y.i.u.i.i.r.e.s.4.q.).+.1.*.$.[ %.,.<.&.$. .%.,.<.,.%.@.%.&.1.,.%.#.[ &.<.,.| [ $.$.1.<.*.@.o.{.v.5.f.i.y.i.p.i.y.t.y.i.i.i.t.",
"s.s.f.i.i.i.i.y.f.y.h._.1X6X4X2X2X4X2X6X3X2X2X2X3X3X4X2X2X2X4X6X3X2X2X2X3X3X3X4X2X2X2X6X6X4X5X1X|.Z.u.p.i.p.p.i.i.s.s.f.i.p.i.i.",
"y.r.r.r.p.p.p.i.i.y.h.7XiXzXzXmXmXmXmXmXmXzXmXmXmXmXmXmXmXmXmXmXmXmXmXmXmXmXmXmXMXnXMXmXzXmXnXvX9XZ.u.t.j.p.p.i.y.t.s.y.p.u.i.i.",
"p.i.r.t.i.p.p.i.p.p.G.7XiXaXcXvXcXaXaXaXnXCXSXSXSXSXCXBXcXcXcXcXvXNXSXSXSXSXDXNXvXcXsXsXvXcXbXbX XJ.u.i.j.p.i.i.s.e.s.f.i.u.i.i.",
"a.p.j.r.i.p.i.i.y.p.F.K. X$X#X$X#X#X#X#XeXnXDXSXSXSXnXeX#X@X@X@XwXaXCXSXSXSXBXpX%X@X@X@X@X@X#X#XK.G.y.t.j.p.k.i.s.s.s.i.u.i.y.i.",
"i.i.i.i.i.i.f.f.s.f.b.N.t p W.W.p p p s +XaXSXAXSXSXwX+XW.p p p !.wXCXSXSXSXcX$X~.W.p p i a s i Y.H.k.l.e.6.6.i.i.p.i.y.y.y.p.j.",
"i.y.y.i.f.t.i.i.f.f.b.N.< 7 % u 5 7 5 u .X%XjXzXzXkX%X.X6 7 7 7 g %XgXzXlXkXdX@Xd 7 % 7 7 7 r 6 V.H.u.j.t.y.y.p.j.i.i.i.i.i.i.p.",
"i.i.s.s.f.f.i.i.p.u.M.V.< q e e w e 8 0 X.oX,X,X,XoXOXX.X.e 0 0 f -.,X,X2XoXoXO.X.w e 0 0 e w 9 X c.7.y.i.p.j.t.t.t.i.i.i.i.y.y.",
"k.i.i.y.f.j.i.i.u.5.9.X 4 R R W / W R R W | ,.&.#.#.{ { { W R + R { ,.>. .{ { { { W m N e R { U }.  5.t.j.p.j.j.i.i.i.i.y.y.y.t.",
"j.p.i.p.i.i.i.u.i.5.m.o G n A _ ` D M M B ^ ] ) n m n ) ] ` A M M B ' F M M m ) ` ] ) b M ) { ( }.C.5.y.t.j.i.i.i.6.5.s.y.y.y.i.",
"i.i.p.i.u.u.y.y.y.y.3.o G ( D S ` D Z S B D D D D A Z S D A A D D V V V D D A A D M D A A B ^ v T.v.4.i.j.p.i.i.y.u.y.i.y.y.i.i.",
"6.y.y.i.4.6.s.s.f.f.3.o ..( S C b C V F S A m Z Z F V B n n S S S B m n D ] S A M M S ' _ B n v R.S.9.y.t.i.i.i.u.u.i.i.t.j.j.i.",
"y.s.i.y.s.s.s.r.j.t.8.).+.|  .[ / [ | >. ./ / { | >. .[ W { | ,.| [ / { { | |  .{ / { | >.} [ U R.v.4.u.i.i.i.j.i.p.i.j.i.i.i.j.",
"y.i.j.i.i.i.i.i.p.t.h._.XX6X;X<X=X:X>X,X>X=X=X=X>X,X>X:X=X:X:X,X,X:X=X=X;X,X>X<X=X-X>X>X>X>X:XXX|.m.y.t.p.i.i.y.i.i.i.i.i.i.f.i.",
"p.i.i.i.j.p.j.p.y.t.z.|.iXlXkXzXjXjXzXlXlXjXjXjXlXzXlXjXhXjXzXzXjXjXjXgXlXlXzXlXgXgXgXlXlXlXkXdX8XJ.y.j.i.p.i.s.s.i.i.i.i.y.s.i.",
"i.i.i.i.p.p.p.p.p.y.J._.iXzXmXMXmXmXmXmXmXmXmXmXzXMXmXmXMXMXmXMXMXMXmXmXmXmXMXmXmXmXzXMXmXmXMXkX8XZ.y.j.k.p.6.s.6.6.y.i.t.y.s.y.",
"i.y.i.i.y.p.y.y.y.6.z.|.1X6X6X4X5X4X4X6X4X4X4X5X6X6X4X4X5X5X3X3X3X5X5X5X3X6X6X4X4X4X6X6X6X4X5X&X|.Z.u.i.p.y.y.s.y.u.u.i.f.i.i.y.",
"i.i.f.f.i.y.y.t.p.u.m.{.XX<.*. .#.*.<.<.&.#.#.&.,.<.,.*.@.%.,.<.&.&.@.#.&.<.<.&.#.$.&.1.<.&.@.o.{.Z.9.u.p.u.s.r.i.p.i.j.j.j.i.i.",
"j.i.r.r.y.i.r.s.i.u.8.D.L +./ U U ! ~ ~ ! U U Y ~ } ~ Y U U ! } [ Y U U ! ! [ U U T ! [ [ ! U T D.v.4.y.i.i.y.i.p.j.p.i.r.i.i.p.",
"p.p.i.e.r.j.i.f.s.f.h.C.J J K 1 1 1 H K K 1 1 1 H K K 1 1 1 K K H H 1 1 H K K K 1 1 K K H H 1 2 C.m.4.j.p.u.t.j.i.j.i.y.y.y.i.p.",
"u.p.5.6.i.i.i.i.s.s.4.q.A.S.S.v.O     C.S.V.S.S.C.S.. O O O C.      . . S.C.S.S.O O O . C.S.C.v.m.4.p.j.p.u.s.r.t.i.y.6.s.y.i.i.",
"p.i.i.i.i.y.i.i.y.i.i.i.g.i.i.g.s.u.s.s.g.i.s.u.s.s.p.s.g.y.y.u.u.s.u.i.g.i.y.g.s.u.s.u.g.s.s.u.p.i.i.i.u.i.i.i.i.i.u.i.i.i.i.i.",
"i.i.i.i.i.i.i.i.i.i.i.i.i.i.i.i.i.i.u.i.y.i.y.y.u.i.s.u.y.i.y.y.i.y.y.y.y.y.y.i.u.i.i.y.i.i.u.s.p.y.i.y.i.y.i.i.y.i.i.y.i.i.y.i.",
"i.u.i.i.i.i.i.y.i.i.i.i.i.y.y.i.u.i.i.i.i.i.i.i.i.i.i.i.i.i.i.i.i.i.y.i.i.y.i.i.i.i.y.i.i.i.i.i.i.i.i.i.i.i.i.i.i.y.i.i.i.i.i.i.",
"i.i.i.i.u.i.i.i.y.i.u.s.i.i.i.i.s.i.i.i.i.i.i.u.i.f.p.i.i.u.s.i.i.i.i.i.i.i.s.u.i.i.i.i.i.i.i.i.i.i.y.i.i.i.y.i.i.i.i.i.i.y.i.i.",
"i.i.i.i.i.u.i.i.i.i.i.i.i.i.i.i.i.i.i.i.u.i.i.i.u.i.i.i.i.i.i.i.i.u.i.i.i.i.i.i.i.u.i.i.i.i.i.i.y.i.i.y.i.i.y.i.i.i.i.u.i.i.i.i.",
"y.i.i.y.i.i.i.y.y.i.y.i.i.y.y.i.i.i.u.i.s.i.i.i.i.i.i.i.i.i.i.i.i.s.i.i.i.i.y.i.s.i.i.i.i.i.u.i.i.i.i.i.i.i.i.i.i.i.i.s.y.u.i.i.",
"i.y.i.i.i.y.i.i.i.i.y.i.i.i.i.i.i.i.i.i.i.i.s.i.s.i.i.i.s.i.i.i.i.i.i.i.i.i.i.u.i.i.i.i.i.i.i.i.i.i.i.i.y.i.i.i.i.i.i.i.i.i.i.i.",
"i.i.i.i.i.i.i.i.u.i.i.i.i.i.u.i.s.i.u.i.i.i.u.i.i.i.i.u.u.i.i.i.i.i.i.i.i.i.i.s.i.i.i.i.s.u.i.i.i.i.i.i.i.i.y.i.u.i.i.y.i.i.y.i.",
"y.i.i.i.i.i.i.i.s.i.i.i.i.i.i.i.i.i.i.i.s.u.i.i.i.i.i.i.u.i.i.i.y.i.i.u.s.i.i.i.i.i.i.i.i.u.i.i.s.i.i.i.s.i.i.i.s.i.i.i.i.i.i.i.",
"i.i.i.i.i.i.i.i.i.i.i.i.i.u.s.i.i.i.i.i.i.i.y.i.s.i.i.i.i.i.i.i.i.i.i.i.i.i.i.i.i.i.y.i.i.s.i.i.u.i.i.i.i.i.i.i.i.i.i.i.i.u.i.s.",
"i.i.i.i.s.u.i.u.i.i.u.i.i.i.i.i.i.i.i.i.i.i.i.i.u.i.i.u.s.i.s.i.i.i.i.i.i.i.u.s.i.i.i.i.i.i.i.s.i.i.i.i.u.i.i.u.i.i.i.i.i.i.i.i.",
"y.i.i.i.i.i.i.i.i.i.s.i.i.i.u.i.i.u.i.s.i.i.i.i.i.i.i.i.i.i.u.i.s.u.i.i.i.i.i.i.i.i.i.u.i.i.i.u.i.i.i.i.i.i.i.i.i.i.u.s.i.i.u.i.",
"u.i.i.i.u.i.s.i.i.s.i.i.i.i.i.i.i.u.i.i.s.u.i.i.i.i.i.i.i.i.i.i.i.i.s.i.i.i.i.i.i.i.i.s.i.i.i.i.i.i.i.i.u.s.i.i.i.s.i.i.i.i.i.s.",
"s.i.i.i.i.i.i.i.i.u.i.i.i.i.s.i.i.i.i.i.i.i.i.i.i.i.i.i.s.u.i.i.i.i.u.i.i.u.s.i.i.i.i.i.u.i.i.i.i.i.i.y.i.i.i.i.i.u.i.i.i.i.i.u.",
"i.i.i.u.i.i.s.u.i.i.i.y.i.i.u.i.i.i.u.i.i.i.i.i.i.i.i.i.i.i.i.i.i.i.i.i.i.i.i.i.i.i.i.i.i.i.u.s.i.i.i.u.i.i.s.u.i.i.i.y.i.i.i.i.",
"i.i.i.s.i.i.i.i.i.i.i.i.i.i.i.i.i.i.s.i.i.i.i.u.s.i.i.y.i.i.y.i.i.i.i.i.i.i.u.i.i.u.i.i.s.i.i.i.i.i.i.s.i.i.i.i.i.i.i.i.i.i.i.i."
};
