/* XPM */
static char *_f45df1057d3489b81dda6f817ca0354OixOMYpTSNDqRt6p[] = {
/* columns rows colors chars-per-pixel */
"16 16 172 2 ",
"   c #244EA8",
".  c #214DA9",
"X  c #3853A4",
"o  c #9C698B",
"O  c #F1908C",
"+  c #F19794",
"@  c #EE7F7B",
"#  c #F0807B",
"$  c #AB6F8A",
"%  c #615D9A",
"&  c #645D9A",
"*  c #4055A2",
"=  c #234EA8",
"-  c #3954A4",
";  c #966A90",
":  c #EC8D8B",
">  c #F6BCBA",
",  c #F6B2AF",
"<  c #F07F7B",
"1  c #EB7E7C",
"2  c #E77D7D",
"3  c #E97E7C",
"4  c #A06C8C",
"5  c #4255A1",
"6  c #224EA9",
"7  c #525088",
"8  c #C06664",
"9  c #F6A6A3",
"0  c #F8B5B3",
"q  c #CF706C",
"w  c #C46965",
"e  c #EF7F7B",
"r  c #93698F",
"t  c #224EA8",
"y  c #234FAA",
"u  c #323F76",
"i  c #6F3B39",
"p  c #C66B68",
"a  c #D4726F",
"s  c #7C4240",
"d  c #944F4D",
"f  c #F0807C",
"g  c #F2807A",
"h  c #966A8F",
"j  c #746298",
"k  c #8C4B48",
"l  c #452524",
"z  c #5A302F",
"x  c #663735",
"c  c #EE7E7A",
"v  c #F17F7A",
"b  c #94688E",
"n  c #204CA8",
"m  c #204DA9",
"M  c #766399",
"N  c #8D4B48",
"B  c #1F1110",
"V  c #291615",
"C  c #643534",
"Z  c #EF8783",
"A  c #F0918E",
"S  c #F18883",
"D  c #B6829B",
"F  c #4D62AB",
"G  c #B15F5B",
"H  c #96504E",
"J  c #AD5C59",
"K  c #98514F",
"L  c #F4827E",
"P  c #EF8683",
"I  c #EB8F85",
"U  c #E58E7D",
"Y  c #EB8E85",
"T  c #EB8E84",
"R  c #E68E7D",
"E  c #B7828E",
"W  c #224EAA",
"Q  c #514F85",
"!  c #9A514E",
"~  c #9A524F",
"^  c #9A5250",
"/  c #99524F",
"(  c #C36764",
")  c #F69A97",
"_  c #E2826B",
"`  c #CA4C1E",
"'  c #E0816B",
"]  c #DF7F67",
"[  c #CB4D1E",
"{  c #DB7355",
"}  c #183C81",
"|  c #051125",
" . c black",
".. c #422422",
"X. c #965F5C",
"o. c #B87162",
"O. c #DC7356",
"+. c #E08169",
"@. c #DF8068",
"#. c #DC7355",
"$. c #CA7C74",
"%. c #3F4AA1",
"&. c #6E4597",
"*. c #65306C",
"=. c #57132C",
"-. c #58132D",
";. c #56122C",
":. c #9B4D51",
">. c #E68E79",
",. c #DD675C",
"<. c #DF695C",
"1. c #CA8C8E",
"2. c #7574AA",
"3. c #1E4EA9",
"4. c #6B4295",
"5. c #EA3176",
"6. c #EA3276",
"7. c #EA3377",
"8. c #EA3378",
"9. c #E13C5E",
"0. c #D74542",
"q. c #E43C5B",
"w. c #89496F",
"e. c #455FA9",
"r. c #A46F9F",
"t. c #EE648C",
"y. c #EE658C",
"u. c #EC4F83",
"i. c #EF3276",
"p. c #953E8C",
"a. c #5565A9",
"s. c #BE96AB",
"d. c #F5AFAC",
"f. c #F3B0AD",
"g. c #F191A0",
"h. c #EB3176",
"j. c #ED3376",
"k. c #EC3276",
"l. c #C43881",
"z. c #654598",
"x. c #214DA8",
"c. c #4E62A9",
"v. c #BF96AB",
"b. c #F7B0AC",
"n. c #F7B1AD",
"m. c #F6939F",
"M. c #C8558C",
"N. c #913C8C",
"B. c #BD508C",
"V. c #EF678D",
"C. c #C1528C",
"Z. c #953D8B",
"A. c #5B479A",
"S. c #5062A9",
"D. c #9984AA",
"F. c #9884AA",
"G. c #9985AA",
"H. c #8E80AA",
"J. c #7D78AA",
"K. c #B592AB",
"L. c #F6B0AC",
"P. c #F7B1AC",
"I. c #BC95AB",
"U. c #4F63A9",
"Y. c #224DA8",
"T. c #1F4CA8",
"R. c #666DA9",
"E. c #C096AB",
"W. c #BE95AB",
"Q. c #BD95AB",
"!. c #7071A9",
"~. c white",
/* pixels */
"    . X o O + @ @ # $ % & * .   ",
"  = - ; : > , < @ @ 1 2 3 4 5 = ",
"  6 7 8 9 0 q w e @ @ @ @ e r t ",
"  y u i p a s d f @ @ @ @ g h t ",
"  . j k l z x @ @ @ @ c @ v b n ",
"  m M N B V C f @ c Z A Z S D F ",
"  m M G H J K L f P I U Y T R E ",
"  W Q ! ~ ^ ~ / ( ) _ ` ' ] [ { ",
"  y } |  . . . ...X.o.O.+.@.#.$.",
"= %.&.*.=.=.=.=.-.;.:.>.,.<.1.2.",
"3.4.5.5.6.7.7.7.7.8.9.0.9.q.w.6 ",
"e.r.t.y.u.5.7.7.7.7.7.7.7.i.p.t ",
"a.s.d.f.g.u.h.j.k.5.5.k.i.l.z.= ",
"x.c.v.b.n.m.M.N.B.V.V.C.Z.A.6   ",
"  x.S.D.F.G.H.J.K.L.P.I.U.Y.    ",
"    = Y.Y.T.R.E.W.Q.Q.E.!.Y.    "
};
