/* XPM */
static char *_7e6c226135542b3e167f19d72f8b3a1T6uwYISNuqAbGb2X[] = {
/* columns rows colors chars-per-pixel */
"16 16 202 2 ",
"   c #244EA8",
".  c #274BAC",
"X  c #6424E1",
"o  c #721CEC",
"O  c #3A41BB",
"+  c #3354A9",
"@  c #3656A8",
"#  c #3455A8",
"$  c #264FA8",
"%  c #3551AC",
"&  c #742CE1",
"*  c #7D17F5",
"=  c #7526E6",
"-  c #BB86B6",
";  c #D09FAA",
":  c #C097AB",
">  c #4B60A9",
",  c #234DA8",
"<  c #3A58A8",
"1  c #AF8EAB",
"2  c #D991B9",
"3  c #9839E4",
"4  c #8D2AEC",
"5  c #D98ABE",
"6  c #EDA5B1",
"7  c #F2ADAD",
"8  c #C89AAB",
"9  c #3254A9",
"0  c #455DA9",
"q  c #BB94AB",
"w  c #EFACAC",
"e  c #F4AEAC",
"r  c #E49CB5",
"t  c #DA8EBB",
"y  c #9D40E1",
"u  c #9536E6",
"i  c #F2ADAC",
"p  c #4D62A8",
"a  c #345BA2",
"s  c #264FA7",
"d  c #445DA8",
"f  c #B898A5",
"g  c #D9A3AA",
"h  c #F0ACAC",
"j  c #F3AEAC",
"k  c #F4B0AB",
"l  c #EDA6B0",
"z  c #9A3CE3",
"x  c #7C16F5",
"c  c #9333E7",
"v  c #E39AB6",
"b  c #F3AFAB",
"n  c #DCB09D",
"m  c #C9CC71",
"M  c #527396",
"N  c #CDA99D",
"B  c #F8E272",
"V  c #F8C298",
"C  c #DF94B9",
"Z  c #9739E4",
"A  c #902FE9",
"S  c #E298B7",
"D  c #F5B6A4",
"F  c #FEEC6A",
"G  c #FDFD56",
"H  c #E5EA5E",
"J  c #EFEA64",
"K  c #FFFE56",
"L  c #FDF064",
"P  c #F5B9A0",
"I  c #F3ADAD",
"U  c #F4AFAD",
"Y  c #E79EB5",
"T  c #E49BB5",
"R  c #F0AAAE",
"E  c #F4B6A4",
"W  c #FFFF54",
"Q  c #FFFC58",
"!  c #EFEE5F",
"~  c #FDF55F",
"^  c #F5BA9F",
"/  c #F2ADAB",
"(  c #E6A4A3",
")  c #EFABA9",
"_  c #E7A5A2",
"`  c #F1ADA9",
"'  c #F6C296",
"]  c #FCEB6A",
"[  c #F8C791",
"{  c #DAB496",
"}  c #FBE96B",
"|  c #F3B0AA",
" . c #F4AEAD",
".. c #E8A7A5",
"X. c #715554",
"o. c #CF9594",
"O. c #E7A6A4",
"+. c #6F5453",
"@. c #D39897",
"#. c #F5AFAD",
"$. c #F4AFAB",
"%. c #F4B9A0",
"&. c #E6A9AA",
"*. c #5364A8",
"=. c #C8A4A0",
"-. c #E5A9AA",
";. c #F0AFAD",
":. c #CAB8B7",
">. c #E8B1AF",
",. c #EFAFAD",
"<. c #C9B8B8",
"1. c #E9B0AF",
"2. c #F1ADAC",
"3. c #E5A7AC",
"4. c #D09DAC",
"5. c #5F69A9",
"6. c #254EA8",
"7. c #3F5AAA",
"8. c #636BAA",
"9. c #DBA2AC",
"0. c #62504F",
"q. c #CB9492",
"w. c #E6A5A4",
"e. c #604F4E",
"r. c #D09795",
"t. c #F6B0AD",
"y. c #E4A7AC",
"u. c #6D70A9",
"i. c #435DA9",
"p. c #274FA8",
"a. c #254FA7",
"s. c #3F60A2",
"d. c #BA9BA3",
"f. c #F0B3A4",
"g. c #E4A3A1",
"h. c #3E2C2B",
"j. c #C18A88",
"k. c #E2A2A0",
"l. c #3B2A29",
"z. c #C78E8D",
"x. c #F6B0AE",
"c. c #C297AC",
"v. c #3857A9",
"b. c #224DA8",
"n. c #335BA2",
"m. c #BFCA6E",
"M. c #FCF360",
"N. c #FDF065",
"B. c #F6BE9C",
"V. c #E6A4A4",
"C. c #533B3A",
"Z. c #E4A4A2",
"A. c #503939",
"S. c #CD9290",
"D. c #F5AFAC",
"F. c #E2ADA4",
"G. c #5069A1",
"H. c #2550A7",
"J. c #375DA1",
"K. c #DAE162",
"L. c #FFFF52",
"P. c #FFFC57",
"I. c #F5C098",
"U. c #E1A4AB",
"Y. c #D69A9A",
"T. c #EEAAA7",
"R. c #F2ADAA",
"E. c #D99B9A",
"W. c #DDA2A7",
"Q. c #F0ADAC",
"!. c #F5BB9E",
"~. c #FAEB69",
"^. c #CED768",
"/. c #3F649D",
"(. c #C4CF6B",
"). c #FDFD55",
"_. c #ECBB98",
"`. c #6F70AB",
"'. c #BA94AC",
"]. c #DDA4AC",
"[. c #DBA3AC",
"{. c #CF9EAC",
"}. c #696EAA",
"|. c #D6A6A4",
" X c #FEFE55",
".X c #D3DB65",
"XX c #40659D",
"oX c #4D6F98",
"OX c #E0E660",
"+X c #FFFD57",
"@X c #EBBB98",
"#X c #5061AA",
"$X c #3958A8",
"%X c #425CA9",
"&X c #3E5AA9",
"*X c #3957A9",
"=X c #D2A6A3",
"-X c #FFF560",
";X c #ECF05B",
":X c #597994",
">X c #2750A7",
",X c white",
/* pixels */
"        . X o O + @ # $         ",
"        % & * = - ; : >         ",
"  ,   < 1 2 3 4 5 6 7 8 >   ,   ",
"  9 0 q w e r t y u t i 8 p a s ",
"d f g h e j k l z x c v b n m M ",
"N B V b j j j i C Z A S D F G H ",
"J K L P I j U j j Y T R E L W Q ",
"! W ~ ^ I / ( ) / _ ` j b ' ] [ ",
"{ } [ |  ...X.o.O.+.@.#.j $.%.&.",
"*.=.-.h j ;.:.>.,.<.1.e 2.3.4.5.",
"6.7.8.9.#.O.0.q.w.e.r.t.y.u.i.p.",
"a.s.d.f.k g.h.j.k.l.z.x.2.c.v.b.",
"n.m.M.N.B.V.C.z.Z.A.S.x.D.F.G.H.",
"J.K.L.P.I.U.Y.T.R.E.W.Q.!.~.^./.",
"a (.).Q _.`.'.].[.{.}.|.F  X.XXX",
"s oXOX+X@X#X$X%X%X&X*X=X-X;X:X>X"
};
