/* XPM */
static char *_a0a7a3de96c4540dffcecfdb48a75e9pGTibQBTFRNtJ3FL[] = {
/* columns rows colors chars-per-pixel */
"16 16 213 2 ",
"   c #244EA8",
".  c #234DA8",
"X  c #214AA8",
"o  c #425DB2",
"O  c #8A95CA",
"+  c #A1AAD4",
"@  c #A4ACD6",
"#  c #A4ADD6",
"$  c #9DA5D1",
"%  c #6174BC",
"&  c #264CA9",
"*  c #224CA7",
"=  c #234BA8",
"-  c #6A7FC0",
";  c #97A1D0",
":  c #929CCD",
">  c #5D70BA",
",  c #1F44A7",
"<  c #2247A8",
"1  c #4964B5",
"2  c #8894CA",
"3  c #8B99CB",
"4  c #3355AD",
"5  c #224DA8",
"6  c #1D47A6",
"7  c #5F75BC",
"8  c #808BC7",
"9  c #3E55B0",
"0  c #ABB4D8",
"q  c #6279BE",
"w  c #1E46A6",
"e  c #244DA8",
"r  c #204BA7",
"t  c #2148A7",
"y  c #566CB9",
"u  c #8D99CC",
"i  c #2148A8",
"p  c #3858AF",
"a  c #8A94CA",
"s  c #7B88C5",
"d  c #5B72BC",
"f  c #284AAA",
"g  c #244DAA",
"h  c #418AC4",
"j  c #2753AB",
"k  c #244CA7",
"l  c #234EA8",
"z  c #254CA9",
"x  c #8491C8",
"c  c #5C72BB",
"v  c #224BA8",
"b  c #1A44A6",
"n  c #7989C6",
"m  c #969FCE",
"M  c #C7CBE4",
"N  c #5B73BB",
"B  c #1E4AA8",
"V  c #2D67C0",
"C  c #58C1F3",
"Z  c #3D89D4",
"A  c #2251AE",
"S  c #254EA8",
"D  c #3150AD",
"F  c #9FA8D3",
"G  c #294DAB",
"H  c #294FAB",
"J  c #A5AFD6",
"K  c #93A0CE",
"L  c #8F9DCF",
"P  c #254AA8",
"I  c #3478CD",
"U  c #66AFF0",
"Y  c #4F99DA",
"T  c #5299D9",
"R  c #5A9CDF",
"E  c #2454AE",
"W  c #234DA7",
"Q  c #234BA9",
"!  c #8D98CC",
"~  c #4F6AB7",
"^  c #1F4AA7",
"/  c #405FB4",
"(  c #A8B1D8",
")  c #2C4EAB",
"_  c #1D46A6",
"`  c #2657B1",
"'  c #4DA1ED",
"]  c #CFE0F0",
"[  c #587EA1",
"{  c #6382A3",
"}  c #CBDEF1",
"|  c #3575C8",
" . c #224BA6",
".. c #1E48A6",
"X. c #6075BE",
"o. c #7B8CC7",
"O. c #1B44A6",
"+. c #415FB4",
"@. c #939FD0",
"#. c #1F45A7",
"$. c #244DA7",
"%. c #2F68BE",
"&. c #6ACFF8",
"*. c #EDFBFC",
"=. c #AFC8E3",
"-. c #B5CBE4",
";. c #EAFCFE",
":. c #5DBCEB",
">. c #2756AF",
",. c #5F77BE",
"<. c #7A8BC7",
"1. c #415FB5",
"2. c #214DA8",
"3. c #337DCA",
"4. c #5ABFD2",
"5. c #B1D2E0",
"6. c #BACCE1",
"7. c #BFCEE1",
"8. c #ADD3E1",
"9. c #4DA9B7",
"0. c #204FA3",
"q. c #1D47A7",
"w. c #5F76BE",
"e. c #7B8BC7",
"r. c #3C5CB3",
"t. c #B4BCDC",
"y. c #375BB1",
"u. c #3C51A1",
"i. c #5F6AAC",
"p. c #3C85C3",
"a. c #427CAD",
"s. c #5080AF",
"d. c #4C7FAF",
"f. c #3678AE",
"g. c #6A637E",
"h. c #6B588F",
"j. c #2249A7",
"k. c #687BC0",
"l. c #7688C5",
"z. c #1B45A6",
"x. c #96A2D1",
"c. c #516DBB",
"v. c #40509F",
"b. c #BB7591",
"n. c #AEB1DB",
"m. c #D9EBFE",
"M. c #E4F2FF",
"N. c #CFE6FC",
"B. c #73B2F1",
"V. c #C18BA5",
"C. c #CC7686",
"Z. c #4250A7",
"A. c #97A2D1",
"S. c #3D5BB1",
"D. c #214CA7",
"F. c #1C46A6",
"G. c #6F81C2",
"H. c #7382C3",
"J. c #1A48A7",
"K. c #7E649B",
"L. c #E69196",
"P. c #FABDB8",
"I. c #FEEDEB",
"U. c #F7B0AD",
"Y. c #CE93A3",
"T. c #6C70B3",
"R. c #7975B2",
"E. c #6475BC",
"W. c #939ECE",
"Q. c #274DAA",
"!. c #3152AD",
"~. c #99A3D0",
"^. c #3254AF",
"/. c #5C579B",
"(. c #C77283",
"). c #C87687",
"_. c #8377AC",
"`. c #685B99",
"'. c #7A629A",
"]. c #867FB7",
"[. c #7487C4",
"{. c #97A2CF",
"}. c #405DB1",
"|. c #214BA7",
" X c #4E68B6",
".X c #8995CA",
"XX c #4662B4",
"oX c #274AA6",
"OX c #264DA5",
"+X c #1D49A6",
"@X c #1849A8",
"#X c #2A50AD",
"$X c #8B98CB",
"%X c #8E97CB",
"&X c #7285C3",
"*X c #1F49A7",
"=X c #4D68B6",
"-X c #929DCE",
";X c #8795CA",
":X c #4661B4",
">X c #3957B0",
",X c #3B57B0",
"<X c #7182C2",
"1X c #939DCD",
"2X c #6E82C1",
"3X c #254BA9",
"4X c #274BA9",
"5X c #5F73BC",
"6X c #A4B0D5",
"7X c #ACB8D9",
"8X c #7E8DC6",
"9X c #3857AF",
"0X c white",
/* pixels */
"    . X o O + @ # $ % & *       ",
"    = - ; : > , < 1 2 3 4 5     ",
"  6 7 8 9 0 q w e r t y u i     ",
"* p a s d f g h j k l z x c v   ",
"b n m M N B V C Z A S * D F G l ",
"H J K L P I U Y T R E W Q ! ~ ^ ",
"/ ( ) _ ` ' ] [ { } |  ...X.o.O.",
"+.@.#.$.%.&.*.=.-.;.:.>.6 ,.<.O.",
"1.@.#.2.3.4.5.6.7.8.9.0.q.w.e.O.",
"r.t.y.u.i.p.a.s.d.f.g.h.j.k.l.z.",
"i x.c.v.b.n.m.M.N.B.V.C.Z.A.S.D.",
"F.G.H.J.K.L.P.I.U.Y.T.R.E.W.Q.l ",
"5 !.~.^./.(.)._.`.'.].[.{.}.D.  ",
"  |. X.XXXoXOX+X@X#X$X%X&X*X    ",
"    *X=X-X;X:X>X,X<X1X2X3Xl     ",
"      ^ 4X5X6X7X7X8X9X6 l       "
};
