/* XPM */
static char *result[] = {
/* columns rows colors chars-per-pixel */
"16 16 190 2 ",
"   c #908FAA",
".  c #9190AB",
"X  c #908EA9",
"o  c #8989A3",
"O  c #65687A",
"+  c #5A5F6F",
"@  c #616576",
"#  c #87869F",
"$  c #8F8EA9",
"%  c #8787A2",
"&  c #737A97",
"*  c #57636F",
"=  c #687A7D",
"-  c #809EA4",
";  c #6C8082",
":  c #57636D",
">  c #6F7792",
",  c #8586A2",
"<  c #818299",
"1  c #5C6573",
"2  c #8CA3C1",
"3  c #B9CFD5",
"4  c #C3DADE",
"5  c #BBDBE2",
"6  c #BAD7DC",
"7  c #BBD1D6",
"8  c #95ADC9",
"9  c #5D6877",
"0  c #7C7D93",
"q  c #86869F",
"w  c #5C626B",
"e  c #A9B0AC",
"r  c #F8FAF9",
"t  c white",
"y  c #EEEEEF",
"u  c #E2A397",
"i  c #E78E7A",
"p  c #B79EAE",
"a  c #9AA8B1",
"s  c #626A6E",
"d  c #7D7E95",
"f  c #73768B",
"g  c #879195",
"h  c #F9F9F9",
"j  c #F0B7AD",
"k  c #DD5D3B",
"l  c #E88754",
"z  c #C45D46",
"x  c #9984A3",
"c  c #8FA0A9",
"v  c #565F67",
"b  c #8C8BA5",
"n  c #586370",
"m  c #BBD0D5",
"M  c #FEFEFE",
"N  c #FDFDFD",
"B  c #EDAB9E",
"V  c #E68255",
"C  c #F6CAA7",
"Z  c #E15F31",
"A  c #A9484E",
"S  c #7397C2",
"D  c #5E7795",
"F  c #8687A3",
"G  c #8B8AA5",
"H  c #55606B",
"J  c #B3CACD",
"K  c #A2A8AB",
"L  c #C9CCCD",
"P  c #A0A4A7",
"I  c #C8CBCD",
"U  c #FDEAE6",
"Y  c #EA9479",
"T  c #EA8D5A",
"R  c #DE582E",
"E  c #A04E59",
"W  c #7BA1C7",
"Q  c #748F9C",
"!  c #656A7D",
"~  c #8E8DA8",
"^  c #626776",
"/  c #67797B",
"(  c #47555B",
")  c #353D43",
"_  c #2D363C",
"`  c #4D5459",
"'  c #AAAFB2",
"]  c #E4D1CD",
"[  c #D0837B",
"{  c #975465",
"}  c #8390B2",
"|  c #A3CBD8",
" . c #8CADB2",
".. c #5B6170",
"X. c #908FAB",
"o. c #8B8AA4",
"O. c #565B6A",
"+. c #2A3239",
"@. c #262F35",
"#. c #2A3339",
"$. c #B6B9BB",
"%. c #E9EFFB",
"&. c #91B0D1",
"*. c #93B9C5",
"=. c #84ABC6",
"-. c #7EA0B1",
";. c #5D6371",
":. c #8B8BA5",
">. c #464C58",
",. c #232C32",
"<. c #252E35",
"1. c #242D33",
"2. c #4F565B",
"3. c #BABDBE",
"4. c #757E82",
"5. c #556970",
"6. c #6F8890",
"7. c #84A5B1",
"8. c #5F6B86",
"9. c #918FAB",
"0. c #7C7D94",
"q. c #66757F",
"w. c #8E9699",
"e. c #5C6367",
"r. c #424A4F",
"t. c #8E9295",
"y. c #485156",
"u. c #525B60",
"i. c #7F9196",
"p. c #98BCC4",
"a. c #A7CDD4",
"s. c #99BECB",
"d. c #5F728C",
"f. c #8F8EA8",
"g. c #636777",
"h. c #728686",
"j. c #D7E8EA",
"k. c #E3E4E5",
"l. c #D5D6D8",
"z. c #FDFEFE",
"x. c #B6C8CC",
"c. c #AAC2C8",
"v. c #B9DAE1",
"b. c #AAD2DA",
"n. c #ABD3DB",
"m. c #A3C6CA",
"M. c #5B6966",
"N. c #686A7E",
"B. c #808098",
"V. c #505A5C",
"C. c #AABCBA",
"Z. c #F3F8F9",
"A. c #EFF7F8",
"S. c #FBFEFF",
"D. c #F8FDFD",
"F. c #DAECEF",
"G. c #AAC3C6",
"H. c #7A959B",
"J. c #769199",
"K. c #718A8F",
"L. c #475354",
"P. c #696C7F",
"I. c #818199",
"U. c #444C53",
"Y. c #6C7377",
"T. c #7F8389",
"R. c #747F86",
"E. c #CACFD2",
"W. c #ECECEC",
"Q. c #D4D7D8",
"!. c #66787E",
"~. c #556268",
"^. c #656979",
"/. c #6B6D81",
"(. c #6A6D80",
"). c #6B6E82",
"_. c #82839B",
"`. c #8E8DA7",
"'. c #82829A",
"]. c #7E7E97",
"[. c #7D7E96",
"{. c #7D7D95",
"}. c #6A6E7B",
"|. c #646974",
" X c #5E636F",
".X c #5B5F6F",
"XX c #808099",
"oX c #9291AC",
"OX c #8C8CA6",
"+X c #8E8EA8",
/* pixels */
"      . X o O + @ # $ .         ",
"    . % & * = - ; : > ,         ",
"  . < 1 2 3 4 5 6 7 8 9 0 .     ",
". q w e r t t y u i p a s d     ",
"  f g h t t t j k l z x c v o   ",
"b n m M t N t B V C Z A S D F   ",
"G H J K L P I U Y T R E W Q !   ",
"~ ^ / ( ) _ ` ' ] [ { } |  ...  ",
"X.o.O.+.@.@.@.#.$.%.&.*.=.-.;.  ",
"  . :.>.,.<.@.1.2.3.4.5.6.7.8.9.",
"  . 0.q.w.e.r.t.y.u.i.p.a.s.d.0.",
"  f.g.h.j.k.l.z.x.c.v.b.n.m.M.N.",
". B.V.C.Z.A.S.t D.F.G.H.J.K.L.P.",
". I.U.Y.T.R.E.W.Q.!.~.^./.(.)._.",
"  `.'.].[.{.}.|. X.XXX$ oXoXoX. ",
"    . . . . OXG :.+X.           "
};
