/* XPM */
static char *result[] = {
/* columns rows colors chars-per-pixel */
"16 16 24 1 ",
"  c #747474",
". c #6F6E6E",
"X c #6F6F6F",
"o c #717171",
"O c gray46",
"+ c #777777",
"@ c gray45",
"# c #767676",
"$ c #757474",
"% c #727272",
"& c gray43",
"* c #6D6D6D",
"= c gray44",
"- c #706F6F",
"; c #767575",
": c #747373",
"> c #6E6D6D",
", c gray42",
"< c #727171",
"1 c #6C6C6C",
"2 c #737272",
"3 c #6A6A6A",
"4 c #797878",
"5 c white",
/* pixels */
" . Xo O+@oO# $O+",
"#  O%.O  OO@oOOO",
"&$@o$Xo%*%#%@oX#",
"=@ %   O OO% @o ",
" # OO%%+@O# OO#O",
"%-;OO=*#%%O@O OO",
" % # @o %O: @>:O",
"##o@ %O ,:O@:@ O",
"@@%<O=$@@OO%o@O+",
"=1O< #=<O%#O%@OO",
"%o   Oo%@&@#o>@+",
"O#% O  # O@@% ##",
":;=& oO 2#O % %O",
"=<O% %% X=  $@&@",
"%3@+O =$$%O@X  +",
"O%<# O**2 # O=14"
};
