/* XPM */
static char *result[] = {
/* columns rows colors chars-per-pixel */
"32 32 242 2 ",
"   c #0A1406",
".  c #000D00",
"X  c #193909",
"o  c #1C3713",
"O  c #162E0A",
"+  c #24391B",
"@  c #23310B",
"#  c #162538",
"$  c #1D4213",
"%  c #244317",
"&  c #325F1C",
"*  c #355B2B",
"=  c #365A27",
"-  c #38502E",
";  c #36632F",
":  c #49593D",
">  c #434E32",
",  c #242E47",
"<  c #523C62",
"1  c #1F5F5E",
"2  c #2E4D4F",
"3  c #1A6757",
"4  c #336E56",
"5  c #1B5879",
"6  c #1B586F",
"7  c #384A67",
"8  c #295867",
"9  c #3C4C75",
"0  c #344E7C",
"q  c #3A4C7D",
"w  c #394977",
"e  c #245B7A",
"r  c #255679",
"t  c #365377",
"y  c #2E4F6D",
"u  c #1B636B",
"i  c #316B6B",
"p  c #4A514F",
"a  c #4B436C",
"s  c #474568",
"d  c #464779",
"f  c #534572",
"g  c #59557B",
"h  c #514E6D",
"j  c #6B5B7A",
"k  c #735976",
"l  c #705666",
"z  c #4A7170",
"x  c #78647A",
"c  c #6D7972",
"v  c #487558",
"b  c #A87C7D",
"n  c #986973",
"m  c #518856",
"M  c #588147",
"N  c #779858",
"B  c #5E8765",
"V  c #599969",
"C  c #449777",
"Z  c #7B9E76",
"A  c #719168",
"S  c #51A96E",
"D  c #77A576",
"F  c #67A36F",
"G  c #70D179",
"H  c #7EEA60",
"J  c #8C9A5F",
"K  c #83A35A",
"L  c #83926C",
"P  c #949C6C",
"I  c #899E7D",
"U  c #86A87C",
"Y  c #8CAA75",
"T  c #B9A678",
"R  c #B0B472",
"E  c #CA8E7E",
"W  c #93CC7B",
"Q  c #AACF78",
"!  c #83ED66",
"~  c #88EC77",
"^  c #97EC7D",
"/  c #8DF16B",
"(  c #1F528D",
")  c #1D5784",
"_  c #1D5293",
"`  c #1D4F93",
"'  c #2E4C8C",
"]  c #3B4584",
"[  c #354C84",
"{  c #394B83",
"}  c #334D8B",
"|  c #3B4B8C",
" . c #36478D",
".. c #22558C",
"X. c #265686",
"o. c #335189",
"O. c #2B4C95",
"+. c #264E9D",
"@. c #2B4E9B",
"#. c #234991",
"$. c #324C93",
"%. c #354E97",
"&. c #225294",
"*. c #22529C",
"=. c #275498",
"-. c #387887",
";. c #377898",
":. c #1F4EA4",
">. c #1F52A5",
",. c #1F52A9",
"<. c #234EA4",
"1. c #2B4DA3",
"2. c #254DAB",
"3. c #2B4CAB",
"4. c #2252A3",
"5. c #2451A9",
"6. c #2850A5",
"7. c #274DB0",
"8. c #414787",
"9. c #53548F",
"0. c #625D89",
"q. c #785D88",
"w. c #67658B",
"e. c #736A8E",
"r. c #5C60A0",
"t. c #4F6597",
"y. c #907692",
"u. c #B77E8D",
"i. c #937EA5",
"p. c #4F8F8E",
"a. c #6C8E8F",
"s. c #5BA58A",
"d. c #66A181",
"f. c #5D9CA7",
"g. c #7193B0",
"h. c #78CD8D",
"j. c #7CCBAC",
"k. c #958D8F",
"l. c #AB9B84",
"z. c #BC9985",
"x. c #A68597",
"c. c #B68696",
"v. c #B89498",
"b. c #A89093",
"n. c #9AA788",
"m. c #98BB8B",
"M. c #8EA48E",
"N. c #BAAD86",
"B. c #A6BA8C",
"V. c #A2AF96",
"C. c #A9AA80",
"Z. c #9288AD",
"A. c #BA96A6",
"S. c #B195AC",
"D. c #BCA2A3",
"F. c #B2ACA8",
"G. c #8DBCAA",
"H. c #CC8B8B",
"J. c #D68989",
"K. c #CC8D92",
"L. c #C68C95",
"P. c #D28D91",
"I. c #C39497",
"U. c #D09998",
"Y. c #C19B86",
"T. c #C3B797",
"R. c #C9AD94",
"E. c #E0BF9E",
"W. c #D4A8A4",
"Q. c #E4B7AA",
"!. c #96C489",
"~. c #81D887",
"^. c #92DB8A",
"/. c #8CCA9B",
"(. c #9AC594",
"). c #8BDA9A",
"_. c #90D18C",
"`. c #A9D49D",
"'. c #AFCD8F",
"]. c #89E783",
"[. c #96E495",
"{. c #9FE688",
"}. c #A7E989",
"|. c #A4E693",
" X c #AAF69A",
".X c #B8F896",
"XX c #BBEA8D",
"oX c #87D8A7",
"OX c #8FCAB1",
"+X c #ABCBA6",
"@X c #B0CFB2",
"#X c #97E4A5",
"$X c #B8E8A7",
"%X c #B9F9A9",
"&X c #BBF7B4",
"*X c #B3E6AE",
"=X c #C4C98C",
"-X c #C8FF92",
";X c #D7FA98",
":X c #CEE298",
">X c #D2CDAF",
",X c #E9C8BC",
"<X c #D9E8A9",
"1X c #C7E9BB",
"2X c #C8F6B6",
"3X c #D7F8B8",
"4X c #CCF6A9",
"5X c #E6FDA9",
"6X c #EAF6B2",
"7X c #8D90C7",
"8X c #94D0C5",
"9X c #ABD7C0",
"0X c #AFECC0",
"qX c #D4C6C9",
"wX c #CBD8C7",
"eX c #D6D9C6",
"rX c #DEC7D1",
"tX c #F0C7C5",
"yX c #C8EBC9",
"uX c #D6ECC4",
"iX c #CEF2C8",
"pX c #D7FAC9",
"aX c #D0EED6",
"sX c #E9F9C6",
"dX c #F4FFC8",
"fX c #E4FEDD",
"gX c #E9FCD8",
"hX c #FDFEDD",
"jX c #F9F8D8",
"kX c #F0E8CA",
"lX c #C7EFE5",
"zX c #FAE8E5",
"xX c #ECFFE5",
"cX c #E6FDE1",
"vX c #F4FEE4",
"bX c #F5FFED",
"nX c #FCFFEC",
"mX c #FBF9E4",
"MX c #E8FFF4",
"NX c #FFF5F1",
"BX c #FDFCF3",
"VX c #F9FDF8",
/* pixels */
"3.3.3.3.3.3.<.5.>.4.X.8 z F.9Xa.7 9 0 O.4.6.*.<.<.3.7.2.2.O.} q ",
"7.3.2.<.<.<.<.*.>.&.r 8 v @XyXM.t.8 y o.=._ *.4.<.2.2.2.<.O.} { ",
"3.7.5.5.<.5.*.*.` ) 1 3 v +XiXyXG.C 8 r ) _ _ _ <.3.2.2.<.=.} } ",
"3.2.5.>.,.>._ ( 5 6 1 4 V _.&X&X#XF i 1 u ) _ >.1.2.7.,.<.=.' } ",
"1.1.:.:.5.5.( ) u u 3 S ~ ].^ / ^.~.S 4 3 5 ) _ 4.2.<.<.<.=.} } ",
"1.1.<.<.5._ ( -.C S S G ].! H ! ~ ].G S C p.;._ _ 5.5.<.*.O.} } ",
"3.6.<.4.*._ ) p.j.j.h.].~ ~ / ! ~ ~ ~ ).j.8Xf.-.` *.6.5.+.=.' [ ",
"5.5.:.*._ 5 e s.#X#X[.[. X%X.X^ ^  X%X&X0X8Xf.) 5 _ *.<.@.%.} [ ",
">.5._ *.) 5 i s.oX).|.&XpXpX4X`.}.$X2XpXaX9Xf.i r ..&.@.@.@. .} ",
">.4.*.( 5 -.s.h./. X&XfXuXM.A m.m.N Y uXcXaXOXg.-.X.&.+.1.%.} } ",
"4.*._ ) 6 p.oX#X^.&XpXgXeXp o I U % : wXbXMXlX8Xp.e ..+.1.@.' [ ",
"4.*.( 5 1 C oX[.[.&XsXvXwX> o Z D o : wXVXMXlX8Xf.r X.O.1.O.' 0 ",
"_ *.) u i S ~.[.|.4XdXvXeX: @ Z Z o p yXVXMXlX9Xd.1 r &.@.O.o.0 ",
"4._ ) -.s.h.].}.-X3XdXhXeX> O D D X - wXVXbXfX1XZ 2 y ' @.@.} 0 ",
"5._ ) p.j.[.}.XX4X5XdXhXeXc : U Y 2 B uXbXvXjX3Xm.c i X.=.@.' [ ",
"5.4...p.). X.X-X;X5XdXhXmXwXF.`.`.(.>XcXbXjXdX6X4X+Xa.o.#.@.} [ ",
":.+.r p./._.W XX;X;X5XdXnXBXcX*X$XpXfXfXgXsX6X6X:XN.c 0 ' ' ..o.",
"1.#.X.p./.N & N ;X:X:XsXvXnXfX*X$XpXgXfXuX<X6X<XJ - 2 q  .O.' o.",
"$.#.r z F B ; M K K K Y V.V.n.Z F U m.n.Y L J P > . # w | | [ [ ",
" . .[ i 4 V D m $ X X X + + + X X $ $ % o @ @ @     , d | | ] q ",
"8.8.t.t 3 V /.F ; = = = * * - = * * & ; & * > > - > h w.9.w q q ",
"] r.g.g.p B (.`._.!.!.m.m.(.(.(.!.!.!.W W W !.R n.k.k.Z.w.d d d ",
"] r.7XZ.c Z B.'.`.$X&XyXuXuXiXiXiX1X%X[.^.}.'.'.N.v.v.S.i.w.h 9 ",
"] r.7XS.b.l.C.B.$X1XgXgXgXvXxXxXxXcX2X|.^ Q Q P T E L.A.S.i.0.a ",
"8.9.q.i.v.Y.T.>X<XjXnXnXBXnXBXBXBXnXgX4X:XQ Q N.T z.v.A.y.q.9.< ",
" .] 8.q.x.U.W.,XjXzXNXNXBXBXVXNXnXzXdX6X<X=X=X=XN.l.v.x.y.< < d ",
"%. .] f l b U.E.Q.Q.Q.zXVXVXNXVXzX,X,XE.T.T N.=Xn.x x w.9.d  .{ ",
"1. .8.< l n H.J.J.H.U.rXzXBXNXzXtXW.Y.E E E R.F.a.p s d d ] { { ",
"@.%.] 0.y.u.L.J.E J.J.W.>XzXBXrXW.U.J.P.H.I.D.F.e.7 y 0 ]  .[ 0 ",
"$. . .0.i.c.L.P.J.J.J.L.A.qXrXS.u.u.u.u.c.b.x.Z.w.9 0 o.} [ { w ",
" . .] d 0.y.c.K.P.P.L.v.b.k.n j k k k k k j j g z t 0 o.[ q 0 q ",
"{ ] w w < n A.I.I.I.v.A.k.l s < < < s a s s s s 9 w 0 0 0 0 9 9 "
};
