/* XPM */
static char *result[] = {
/* columns rows colors chars-per-pixel */
"36 36 229 2 ",
"   c #963137",
".  c #BC3A2A",
"X  c #BC3C34",
"o  c #BC3B39",
"O  c #AE332E",
"+  c #CA341B",
"@  c #DD351E",
"#  c #DE391E",
"$  c #D3361C",
"%  c #E2351F",
"&  c #E33B1F",
"*  c #EB381E",
"=  c #E9371B",
"-  c #C33A25",
";  c #CC3A24",
":  c #C3342D",
">  c #CC332D",
",  c #C5392D",
"<  c #CC3A2C",
"1  c #CC3722",
"2  c #D33326",
"3  c #DD3523",
"4  c #D43924",
"5  c #DD3A24",
"6  c #D4352C",
"7  c #DE372C",
"8  c #D43A2C",
"9  c #DD3B2B",
"0  c #C53C31",
"q  c #C93B32",
"w  c #C93835",
"e  c #D33B33",
"r  c #DD3C32",
"t  c #D63B37",
"y  c #E43624",
"u  c #EA3626",
"i  c #E43A25",
"p  c #E93A24",
"a  c #E43629",
"s  c #EC3728",
"d  c #E43C2A",
"f  c #EA3B29",
"g  c #F0372B",
"h  c #E13B32",
"j  c #A84132",
"k  c #BE423B",
"l  c #BF503D",
"z  c #CB433B",
"x  c #C44338",
"c  c #D3433C",
"v  c #D84537",
"b  c #C6442C",
"n  c #E24127",
"m  c #9D3D41",
"M  c #864C58",
"N  c #A94A4B",
"B  c #BA484A",
"V  c #BC5C5D",
"C  c #B55352",
"Z  c #A8575D",
"A  c #BF655C",
"S  c #AA5E62",
"D  c #96626F",
"F  c #B86E6C",
"G  c #C54C45",
"H  c #CD4D46",
"J  c #C14C4C",
"K  c #CB4E4C",
"L  c #D54C46",
"P  c #C3524C",
"I  c #CC5449",
"U  c #DC524F",
"Y  c #C44B50",
"T  c #C35351",
"R  c #C35E57",
"E  c #CC5B51",
"W  c #C95758",
"Q  c #D15452",
"!  c #D25559",
"~  c #EA5E4F",
"^  c #E75F51",
"/  c #CC6357",
"(  c #D8655A",
")  c #D05F63",
"_  c #C46D6C",
"`  c #C96969",
"'  c #D36C6C",
"]  c #D96C68",
"[  c #CA716B",
"{  c #CB7A7F",
"}  c #D87976",
"|  c #D4716C",
" . c #E17165",
".. c #E36F70",
"X. c #E47070",
"o. c #DC897A",
"O. c #B47A89",
"+. c #AD7E92",
"@. c #CB7A80",
"#. c #D97B82",
"$. c #D38C8B",
"%. c #D88686",
"&. c #DA8E92",
"*. c #D79699",
"=. c #CA8985",
"-. c #E48689",
";. c #E48283",
":. c #E8938C",
">. c #E18F95",
",. c #EC8D91",
"<. c #E39394",
"1. c #E4939B",
"2. c #E49C9C",
"3. c #E99696",
"4. c #FF9B90",
"5. c #FD988C",
"6. c #EAA19D",
"7. c #DE9BA4",
"8. c #E49BA5",
"9. c #DCA6BE",
"0. c #E4A2AD",
"q. c #ECA5AD",
"w. c #E8A9AB",
"e. c #F3AAAB",
"r. c #F7ADA7",
"t. c #F4B8AF",
"y. c #E7ACB7",
"u. c #F2AFB8",
"i. c #F6A9B4",
"p. c #E4B2B5",
"a. c #EAB3BB",
"s. c #F4B9B4",
"d. c #FAB7BA",
"f. c #DDB2C6",
"g. c #DBBED6",
"h. c #DAB7D7",
"j. c #EEB1C3",
"k. c #E9BBC2",
"l. c #FCBDCD",
"z. c #F5BBC6",
"x. c #E9B9D6",
"c. c #F1BCD8",
"v. c #E3BDE4",
"b. c #E5B6ED",
"n. c #EBB6ED",
"m. c #E5BCEB",
"M. c #EBBCED",
"N. c #EAB8E4",
"B. c #F1B6E1",
"V. c #F3B6EC",
"C. c #F2BCED",
"Z. c #F8B7EF",
"A. c #ECAFF2",
"S. c #F0AFF6",
"D. c #EDB4F3",
"F. c #E6BEF2",
"G. c #ECBBF3",
"H. c #EDBCF9",
"J. c #F2B4F5",
"K. c #F3BAF4",
"L. c #F2B5F9",
"P. c #F3BBFA",
"I. c #EAC2CB",
"U. c #F1C3CB",
"Y. c #FDC5CA",
"T. c #F8C9CA",
"R. c #EBC5D1",
"E. c #FBC4D4",
"W. c #FFCCD2",
"Q. c #FCCCDD",
"!. c #F6C6D9",
"~. c #FDD3D7",
"^. c #FDD4DC",
"/. c #FFDADD",
"(. c #F7D4D7",
"). c #FFE2DF",
"_. c #DBC2E3",
"`. c #DDC5EB",
"'. c #DBD7E5",
"]. c #DFD3EB",
"[. c #E4C4E6",
"{. c #ECC4E4",
"}. c #EECBE3",
"|. c #E4C3EC",
" X c #ECC2EC",
".X c #EDCBEC",
"XX c #E3CDEB",
"oX c #F4C5E3",
"OX c #F2CDE4",
"+X c #FBCBE5",
"@X c #F3C5EB",
"#X c #F2CBEB",
"$X c #FCCEEB",
"%X c #FBC6E9",
"&X c #ECD6E9",
"*X c #F3D1E5",
"=X c #FED3E4",
"-X c #FEDCE5",
";X c #F5D3EB",
":X c #FBD4EC",
">X c #FDDBEC",
",X c #F5DCEA",
"<X c #E5C3F2",
"1X c #EDC2F4",
"2X c #EBCAF3",
"3X c #ECC4FB",
"4X c #EAC6FC",
"5X c #F2C2F4",
"6X c #F3CCF2",
"7X c #F2C3FB",
"8X c #F3CAFE",
"9X c #F8C5F7",
"0X c #E9D0F0",
"qX c #F3D4F4",
"wX c #FCD5F2",
"eX c #F3D9F3",
"rX c #FEDCF3",
"tX c #FCDEFB",
"yX c #FFD6FA",
"uX c #FDE4E6",
"iX c #F6EBE7",
"pX c #FEE2EB",
"aX c #FBEAEA",
"sX c #F5E6F4",
"dX c #FEE5F4",
"fX c #FCE9F3",
"gX c #FDE2FA",
"hX c #FAE8FA",
"jX c #F7F2EC",
/* pixels */
"4X4XH.b.n.K.qXgXfXfXuXuXfXeX2XM.|.8X8Xn.N.N.:XpXiXiXjXjXfXeX|.F.C.7X7X4X",
"4XF.F.K.C.@X$XrX>X/.~./.-X>XwX2X_.|. X XB.%X=X/./.).uXuXaX;X0X<Xn.5X8X3X",
"4X<XM.@X%X%Xj.8.8.3.3.1.1.y.oX;X0X].XXqX$Xx.8.1.3.3.:.2.y.U.>XqX@XM.2X4X",
"<X<X#X%X+Xl.8.` T P K K W #.u.^.,X&X&XrX:X0.' Y K K G C [ q.-XdX:X}..X6X",
"2X#X>X~.z.e.} G X 0 < e w ! -.d.(.(.(.T.s.%.Q e e e < 0 H ;.e.W.*X*X;X6X",
"qXqX>Xk.=./ G , ; 8 d r 7 e Q ] 6.d.t.$.` G e v d 5 7 4 e K A &.U.=X;X.X",
"qXtXuXp.F j . ; 5 9 a a h 6 > w ( 4.5./ . < 9 d 5 n n i 6 : O [ k.=X;X}.",
"wX>X).t.[ O - ; 2 3 y % a 7 r h L ^ ^ v 8 5 i i $ 5 d i d t k ..z.pX:X*X",
":X=XY.6./ . + $ @ y i y i 9 d d a 3 5 d p f p f $ n % & d r z ..0.E.=X,X",
"+Xa.&.| I , 4 3 y y u y i i d a y 3 3 i p p p f i n & i p 9 6 U @.7.I.,X",
"Q.8.R o c n i p y f p i i i i 5 i i i d p p u s u p p p d 9 6 c N F a.aX",
"E.1.Y O r n i p f p i f i i & i # 3 i p p p u s s p p p i a r >   Z y.pX",
"W.>.Y > h a n p p i i f p p p d 5 d i d p p u u a i y & p 5 v v   S p.pX",
"W.&.B : r f n p i i p f p p d i d d n p * p p u f p i p n 5 8 L F $.T.pX",
"^.*.C X e 5 i d i u u g d y d a p i i * * * y i d 5 & & 5 8 b ^ 2.T.(.uX",
"/.w.[ I v y d d i y u g y 3 y a s u p * * = & i 5 i d & @ 1 X  .s./.).&X",
">XU.e.-.E b 5 i & % d d 7 3 3 5 f u s u d a i i 3 p s a 6 : O { I.pX>X*X",
"&XuX/.i.] b 4 5 & & i d 5 i 5 i i a s s y y 5 i % u y d e B N %.R.-X*X}.",
"'.aXfXd.` k < y i * u i y d y % y d d s i i i d % p i 9 L ' $.u.}.OX.X}.",
"'.sXfXz.@.J 0 7 y p u i y p & i f y a i i 5 % i & p i 8 H :.Y.uX;X}..X.X",
"].hXsXoX0.#.Q t a f s p p n p * s u y y i 3 3 p s p 5 < C 8.uXfX6X[. X X",
"0XeX.X}.E.d.} L 8 d p p p p p p s s s i 5 a y u s 3 < k R 0.dXhX@XM.1X<X",
"6X.X[.&XrX^.<.B , 9 i u u p p p g s s y d d i y a < x / %.a.:X:X@X1X8X1X",
"6X X[.0XgX=X&.N X t a u u u u g g s u @ i d d v , x ] 3.z.!.oXoXC.5X5XK.",
"5X Xm.2XgX:Xy.@.! z 2 3 a y p n * n & & d 5 4 z G [ 0.Y.^.+Xc.B.n.C.5X5X",
"5XK.M.1X6X#X!.u.-.Q 0 4 5 7 p & & & * n # 4 b B %.w.z.!.oXoXB.B.G.K.5X7X",
"9XK.K.G.G.@X$X+Xi.#.T x , 4 3 i n & n # + - P [ u.=X$X!.N.C.V.V.M.G.7X5X",
"9XJ.J.J.G.G.#X:Xl.i.-.W k , 2 # * n # $ - l } w.E.$X9XC.n.C.K.K.G.G.7X3X",
"8XP.L.L.D.M.1X XoX+Xl.>.W G e r f 5 1 b E o.t.^.$XB.K.K.K.n.D.D.G.G.3X1X",
"8XP.L.J.n.D.1X X#XyXwXz.8.' L w 8 v z / o.t.~.>X@Xn.A.A.J.J.H.H.G.5X7X1X",
"8XH.K.S.J.D.H.b.G.8X6XoXl.1.) w - . ( :.t.W.(.{.G.M.L.A.A.P.P.P.G.5X7X1X",
"8XP.Z.J.L.K.P.D.G.F.2X#X:Xj.,.] z O A r.~.uXOXv.M.K.L.P.P.H.P.D.m.1X5XK.",
"P.P.P.P.K.K.K.n.M.M.M. X@XoXc.9.O.M D f.:XgXqXh.b.D.H.P.7XP.L.S.J.L.H.K.",
"7X7XH.K.D.n.D.G.F.b.v.v.{.oX$X+Xy.+.+.f.;XrX#XM.M.G.K.J.P.P.L.L.L.P.P.P.",
"3X3XG.G.F.b.M.<X<X<X|.`.[.{.;X:X+Xx.h.{..X.X2XM.K.Z.K.K.5XK.K.K.P.P.P.P.",
"3X3X1X3XM.b.b.<X2X`.`.`._.g.g.g.&XrXtX&X[._.M.M.V.Z.Z.K.K.K.V.V.P.P.P.P."
};
