/* XPM */
static char *result[] = {
/* columns rows colors chars-per-pixel */
"64 64 192 2 ",
"   c #020000",
".  c #090000",
"X  c #0C0C00",
"o  c #030E00",
"O  c #130400",
"+  c #1B0200",
"@  c #160900",
"#  c #1B0900",
"$  c #031600",
"%  c #001A00",
"&  c #0C1E00",
"*  c #0A1000",
"=  c #151C00",
"-  c #151900",
";  c #230000",
":  c #2C0400",
">  c #220C00",
",  c #2B0900",
"<  c #320600",
"1  c #340900",
"2  c #3C0C00",
"3  c #211200",
"4  c #291400",
"5  c #2A1C00",
"6  c #3C1100",
"7  c #0F2400",
"8  c #0E2C00",
"9  c #042100",
"0  c #102700",
"q  c #1B2300",
"w  c #112B00",
"e  c #192B00",
"r  c #0D3700",
"t  c #143200",
"y  c #1E3600",
"u  c #1C3D00",
"i  c #2D2400",
"p  c #282800",
"a  c #352F00",
"s  c #273500",
"d  c #303300",
"f  c #333D00",
"g  c #420F00",
"h  c #451300",
"j  c #4C1400",
"k  c #4D1900",
"l  c #471800",
"z  c #521700",
"x  c #5C1500",
"c  c #551B00",
"v  c #5B1B00",
"b  c #621E00",
"n  c #432500",
"m  c #4A2600",
"M  c #552A00",
"N  c #5B3300",
"B  c #652000",
"V  c #6D2400",
"C  c #662E00",
"Z  c #692F00",
"A  c #702500",
"S  c #752A00",
"D  c #7B2D00",
"F  c #6B3400",
"G  c #603000",
"H  c #7E3000",
"J  c #0C4000",
"K  c #0A4C00",
"L  c #044200",
"P  c #194400",
"I  c #045400",
"U  c #0A5400",
"Y  c #035B00",
"T  c #185B00",
"R  c #264300",
"E  c #294600",
"W  c #2B4800",
"Q  c #374600",
"!  c #3D4200",
"~  c #364900",
"^  c #255500",
"/  c #2E5E00",
"(  c #265900",
")  c #365400",
"_  c #3A5C00",
"`  c #345B00",
"'  c #036200",
"]  c #006C00",
"[  c #0B6A00",
"{  c #0F6300",
"}  c #106B00",
"|  c #047200",
" . c #097600",
".. c #0C7A00",
"X. c #117E00",
"o. c #1D7C00",
"O. c #326E00",
"+. c #3B6700",
"@. c #2C7300",
"#. c #317700",
"$. c #317D00",
"%. c #3E7D00",
"&. c #2C6400",
"*. c #494F00",
"=. c #445B00",
"-. c #5E5C00",
";. c #595700",
":. c #664900",
">. c #665100",
",. c #426300",
"<. c #5F6E00",
"1. c #5A7C00",
"2. c #5B7600",
"3. c #626700",
"4. c #617000",
"5. c #843300",
"6. c #8D3A00",
"7. c #933D00",
"8. c #974000",
"9. c #9C4300",
"0. c #A64A00",
"q. c #AC4E00",
"w. c #AF5000",
"e. c #B25200",
"r. c #BE5A00",
"t. c #C35D00",
"y. c #CC6300",
"u. c #D16600",
"i. c #DB6D00",
"p. c #D76A00",
"a. c #E47300",
"s. c #148100",
"d. c #198600",
"f. c #1D8A00",
"g. c #138900",
"h. c #238200",
"j. c #218E00",
"k. c #2B8900",
"l. c #348200",
"z. c #378D00",
"x. c #398F00",
"c. c #3B8100",
"v. c #259200",
"b. c #299600",
"n. c #2D9A00",
"m. c #3B9200",
"M. c #319E00",
"N. c #329100",
"B. c #2BA400",
"V. c #36A300",
"C. c #39A600",
"Z. c #3CAA00",
"A. c #408500",
"S. c #598200",
"D. c #548B00",
"F. c #449D00",
"G. c #479700",
"H. c #519E00",
"J. c #45A200",
"K. c #4DA300",
"L. c #41AD00",
"P. c #4DAB00",
"I. c #5FA600",
"U. c #54AB00",
"Y. c #46B300",
"T. c #49B600",
"R. c #4CBA00",
"E. c #51BE00",
"W. c #61A800",
"Q. c #60A700",
"!. c #67B500",
"~. c #69BB00",
"^. c #4EC100",
"/. c #55C200",
"(. c #59C700",
"). c #5ECC00",
"_. c #62CF00",
"`. c #73C900",
"'. c #72C700",
"]. c #65D300",
"[. c #69D600",
"{. c #6DDA00",
"}. c #71DE00",
"|. c #75E200",
" X c #79E600",
".X c #7CEB00",
"XX c #81EE00",
"oX c #85F200",
"OX c #89F600",
"+X c #8DFA00",
"@X c #94FF00",
"#X c #98FF00",
/* pixels */
"  y !.@X#XoX_.T.Y.T.T.T.Y.R.}.+X{.E.[.+X@X@X|.E.Y.T.T.T.T.T._.XXoX_.z.w e W.@X#XOX].R.Y.R.T.T.Y.R.{.+X}.E.].+X#X@X X/.T.T.T.T.T.",
"  y !.@X#XoX].T.Y.T.T.T.Y.E.}.OX{.E.[.+X@X@X|.E.Y.T.T.T.Y.T.(.XXoX_.z.w e W.@X#XOX].T.Y.T.T.T.Y.R.{.OX}.E._.oX#X@X X/.Y.Y.T.T.T.",
"  y !.@X@XoX_.T.T.T.T.T.Y.R.}.+X{.E.[.+X@X@X}.E.Y.T.T.T.Y.T._.XXoX).z.w e W.@X@XOX].R.Y.T.T.T.Y.R.{.+X}.E.].oX#X@X X/.Y.T.T.T.T.",
"  s !.@X#XoX_.T.Y.T.T.T.Y.E.}.OX{.E.].+X#X@X|.E.Y.T.T.T.Y.Y._.oXoX).z.8 e W.@X#XOX].T.Y.T.T.T.P.R.{.OX}.E._.OX#X@X X/.Y.T.T.T.T.",
"  y !.@X#XoX_.T.P.R.Y.R.Y.E.}.OX{.E.].+X@X@X|.E.Y.T.T.T.T.Y.(.XXoX).z.8 e W.@X#XoX].R.Y.T.T.T.Y.R.}.+X}.E._.oX#X@X X/.T.Y.T.T.T.",
"  y !.@X#XoX_.T.Y.Y.R.Y.Y.E.}.+X.X].|.+X@X@X|./.Y.R.T.T.Y.T.).XXOX|.K.t e W.@X#X+X].R.Y.T.T.R.T.R.{.oX.X].}.+X@X@X X/.Y.R.T.T.T.",
"  y !.@X#XoX].T.Y.T.R.R.L.E.}.+X+XOX+X+X@X@X|.E.Y.T.T.T.T.Y.(.XX@X+X~.R e I.@X@XOX].R.Y.T.T.T.Y.R.[.@X@X+X+X@X@X@X X/.Y.Y.T.T.T.",
"  y !.@X#XoX_.T.T.Y.C.M.C.R.}.+X@X@X@X@X@X@X|.E.Z.M.V.Y.T.R._.XX@X@X`.E e I.@X#XOX].T.T.Y.C.M.C.R.[.+X@X@X@X@X@X@X X/.Z.V.V.Y.T.",
"  y !.@X@XOX_.T.T.L.j.X.b.R.}.+X@X@X@X@X@X+X XE.M.X.f.L.T.R.(.XX#X#X`.R e I.@X#XOX].T.T.Y.v.X.v.T.{.+X@X@X@X@X@X+X.X/.M.s.d.Z.R.",
"  s ~.@X#XoX_.T.T.Y.d. .v.R.}.@X@X@X@X@X@X@X XE.b. .X.C.L.M.Y..X#X#X`.R q Q.@X#XOX].T.R.L.j.| j.T.}.+X@X+X@X@X@X@X.X/.n...X.C.R.",
"  y !.@X#XoX_.T.T.Z.f. .v.T.}.+X@X@X@X@X@X+X XE.b...d.C.M.s.b.}.@X@X'.R e Q.@X@XOX].T.T.L.f. .j.Y.{.+X@X@X@X@X@X+X.X/.M...X.V.R.",
"  t H..X+XoX].Y.V.v...| s.n.E.}.XX@XoX|.|.}.].R.b.....j.f. .f./.XX@X`.E 0 G. X+XOX[.Y.C.b.X.] X.n.R.{.oX+XOX X}.|.].R.M... .j.b.",
"  8 l.).oXoX].L.j.| ] ] ] ..b.E.|.+X|./.R.R.R.T.M. .] ] ] ] s.C.].OX`.W 7 @.(..XOX[.L.j. .] ] ]  .b.R.}.OX X(.R.E.R.R.M.X.] ]  .",
"  7 $.(.XXOX[.L.d.] ] ] ] ] j.Y.}.+X}.R.Y.Y.R.T.M...] ] ] ] X.V.(.oX`.W & @./..XOX{.Y.f.] ] ] ] ] f.Y.{.OX XE.L.P.R.R.M.X.] ] ] ",
"  7 $.(..XoX_.C.d.] ] ] ] | v.T.}.oX}.E.Y.T.T.Y.n...] ] ] ] X.V.).oX'.W & @./..XoX].L.d.] ] ] ] | j.Y.{.oX|.E.Y.Y.R.Y.M...] ] ] ",
"  8 $./.[._.L.j...] ] ] ]  .v.Y.).[.).R.T.T.Z.n.s.[ ] ] ] ] s.V./.[.U.u & @.R.].].Y.j.X.] ] ] ] | j.L.).[._.R.T.T.Z.b.d.| ] ] ] ",
"  7 $.R.R.Y.f.] ] ] ] ] ] | j.Y.E.R.R.T.R.T.N...] ] ] ] ] ] s.C.R.E.m.t 7 #.T./.L.j.| ] ] ] ] ] ] v.Y.R.R.T.T.T.T.M...] ] ] ] ] ",
"  8 l.R.R.Z.s.] ] ] ] ] ] | b.Y.T.Y.Y.T.R.Y.n. .] ] ] ] ] ] X.V.R.R.z.t & #.T.R.Z.d.] ] ] ] ] ] | v.L.T.T.P.T.R.T.M. .] ] ] ] ] ",
"  8 l.R.R.Z.f.] ] ] ] | ] | v.Y.R.R.Y.T.T.T.n. .] ] ] ] ] ] s.C.R.R.z.t & #.T.R.L.f.| ] ] ] ] ]  .j.Y.R.T.T.T.R.T.M. .] ] ] ] ] ",
"  7 l.T.R.Z.d.] ] ] ] ] ]  .b.L.R.Y.T.T.R.T.b. .] ] ] ] ] ] s.C.R.R.z.t 9 #.R.^.L.f.] ] ] ] ] ] ] j.L.R.T.T.T.T.T.M...] ] ] | ] ",
"  0 l.R.R.Z.f.] ] ] ] ] ] | v.Y.R.T.T.T.T.Y.n. .] ] ] ] ] ] X.C.R.R.x.t & @.R.R.L.f.] ] ] ] ] ]  .j.L.E.Y.R.T.R.T.M...] ] ] ] ] ",
"  7 l.T.R.Z.f.] ] ] ] ] ] | b.Y.R.T.T.T.R.T.n. .] ] ] ] ] ] s.C.R.R.z.t 7 #.T.R.L.f.] ] ] ] ] ] | j.L.R.T.T.Y.R.T.n...] ] ] | ] ",
"  7 l.R.R.Z.d.] ] ] ] ] ]  .v.Y.R.T.T.T.R.Y.b. .] ] ] ] ] ] X.C.R.R.m.t & @.R.R.L.f.] ] ] ] ] ] | j.L.R.T.Y.R.T.T.M...] ] ] ] ] ",
"  8 z.^.R.Z.g.| ] ] ] ] ] ] v.Y.R.T.T.T.T.T.n. .] ] ] | ] ] X.C.R.R.z.w 7 $.R.^.L.f.| ] ] ] ] ]  .j.Y.R.T.T.T.R.Y.M...] ] ] | | ",
"  7 O.J.R.C.@.' ] ] ] ] ] ] b.Y.R.T.T.T.R.Y.n. .] ] ] Y ' ] s.C.R.^.m.t & &.F.R.Z.@.] ' ] ] ] ] | j.Y.R.T.T.T.R.T.M...] ] ] ' Y ",
"  X p ` F.m.( t K ] | ] ]  .v.Y.R.T.T.T.R.T.n. .] | I t t Y s.C.R.R.m.t X q ~ G.J.&.t K ] ] ] ] | v.Y.R.T.T.R.R.T.M...] ] Y t q ",
"  . O i A.G.Q 3 J ] | ] ] | k.F.U.Y.P.K.P.Y.M. .' { u 3 = I g.V.R.^.m.t . O 5 %.F.~ 3 r ] | ] ] | h.F.P.Y.P.H.K.Y.M...] [ P 3 ; ",
"  . O i A.F.f # J ] | ] ] [ ` ;.S.P.D.-.1.P.n. .T ! n , = I g.V.R.^.m.r   O 5 %.J.~ > r ] | ] ] ] / ;.S.P.D.3.2.P.B...T ! n 1 ; ",
"  . + 5 +.%.d > t Y ] ] ] [ ! C <.P.2.F >.D.b. .^ C x < = I g.V.Y.K.#.w . O 4 +.c.f > t U ] ] | ] Q C 3.K.1.F :.D.N...( N x 1 ; ",
"  . O , i i 4 ; # e U ] | [ ! F 4.P.2.F Z :._ [ ^ N x < = U g.Z.F.) p X   O , 5 i 4 ; > q K ] | [ Q F 3.U.S.F Z :.=.[ ( N v 1 ; ",
"  . O + + + + + + # r I Y I d m *.c.=.M x c d K P n h : - r [ k.O.i O   . O + + + + + + + 8 I Y I s m *.%.,.M z c a K P n h : + ",
"      . . . . . . . o % % % X @ = 8 = @ + @ X % * @ O . o $ 9 8 7 X .     . . . . . . . . $ % % % X @ - 0 0 @ # + X $ $ @ O . . ",
"    . . . . . . . . O + # # + # + @ + # @ # # + + # O . . . . . . . .       . . . . . . . O + + # # # + + @ # @ @ # # + # O X . ",
"  . O + + + + + + ; 6 c c c c c c c c c c c c c c c l ; + + + + + + O . . O + + + + + + + 2 z c c c c c c c c c c c c c c l ; + ",
"  . + ; ; ; ; ; ; : z V A A A A A A A A V A A V A A c < ; ; ; ; ; ; ; . . + ; ; ; ; ; ; : j V S A A A V V A A V V A A A A v 1 ; ",
"  . ; ; ; ; ; ; ; : z V A V V V V V V V V V V V A V c < ; ; ; ; ; ; + .   + ; ; ; ; ; ; : j V A V V V V V V V V V V V A V v 1 ; ",
"  . O ; ; ; ; ; + : j V A V V V V V V V V V V V A V c < ; ; ; ; ; ; + . . + ; ; ; ; ; ; : j b A V V V V V V V V V V V V V c < ; ",
"  . + ; ; ; ; ; ; : j V V V V V V V V V V V V V V V c < ; ; ; ; ; ; + .   O ; ; ; ; ; ; : j A A V V V V V V V V V V V V V v 1 ; ",
"  . O ; ; ; ; ; ; : z V A A V V A V V A V A V A A A c < + ; ; ; ; ; + . . O ; ; ; ; ; ; ; z V A V V A A V V A A V A A A V v < ; ",
"  . + ; ; ; ; ; ; : z B V V V V V V V V V V V V A V z : ; ; ; ; ; ; + . . + ; ; ; ; ; ; ; j b A V V V V V V V V V V V V V c < ; ",
"  . , g g 2 g 2 g g h z z z z z k c z z z z z z c z j g 2 g g g g g 1 O . , g g g g g 2 g h z z z z z z z z z z c z z z z j g g ",
"  @ l B B B B B b b g < : : : : : : : : : : : : : ; g v B b b b B B c # X l b B b b b B b h < : : : : : : : : : < ; < ; : 2 v B ",
"  O c A A A A A S b g ; + ; ; ; + ; ; ; ; ; ; + + ; 2 b S A A A A A c # O l A A A A A S B h ; ; ; ; ; + ; ; ; ; ; ; ; + ; 2 v A ",
"  @ k V V V V V S b g : ; ; ; ; ; ; ; ; ; ; ; ; ; ; 2 b V V V V A A v # O l V A V V V A B h ; ; ; ; ; ; ; ; : ; ; ; ; ; ; 1 v A ",
"  O k V A V V V A b g ; ; ; ; ; ; ; ; ; ; ; ; ; ; ; 2 b V V V V V A M + O l V A V V V A b h ; ; ; ; ; ; ; ; ; ; ; ; ; ; ; 1 v A ",
"  # k V V V V V S b g ; ; ; ; ; ; ; ; ; ; ; ; ; ; ; 2 v A V V V A A v # O l V V V V V A b h ; ; ; ; ; ; ; ; ; ; ; ; ; + ; 2 v V ",
"  @ k A V V V V A b h ; ; ; ; ; ; : ; ; ; ; ; ; ; ; 2 v V V V V V A c # O l V A V B V A b h ; ; ; ; ; ; ; ; ; ; ; ; ; ; ; 2 v A ",
"  @ k V V V V V S b g ; ; ; ; ; ; ; ; ; ; ; ; ; ; ; 2 b A V V V A A c # O l V V V V V A V h : ; ; ; ; ; ; ; ; ; ; ; ; ; ; 2 v A ",
"  O k V A V V V V B g ; ; ; ; ; ; ; ; ; ; ; ; ; ; ; g b V V V V A A c # O l V A V V V A b h ; ; ; ; ; ; ; ; ; ; ; ; ; ; ; 2 b A ",
"  @ k V V V V V V B h ; ; ; ; ; ; ; ; ; ; ; ; ; ; ; 1 b A V V V A A c > O l V A V V V A B h : ; ; ; ; ; ; ; ; ; ; ; ; ; ; 1 v V ",
"  @ k A V V V V A B h ; ; ; ; ; ; ; ; ; ; ; ; ; ; ; 2 b A V V V V A c # O l V A V V V A B h ; ; ; ; ; ; ; ; ; ; ; ; ; ; ; 2 v A ",
"  # k V V V V V A B 2 ; ; ; ; ; ; ; ; ; ; ; : ; ; ; 2 b V V V V V A c + X l V A A b A S B g ; ; ; ; : ; ; ; ; ; ; ; ; ; ; 1 v A ",
"  @ k V A V V V A B h ; ; ; ; ; ; ; ; ; ; ; ; ; ; ; 2 b V V V V A V c # O l V A V V V A b j : ; ; ; ; ; ; ; ; ; ; ; ; ; ; 2 b V ",
"  O k A V V V V A b g ; ; ; ; ; ; ; ; ; ; ; ; ; ; ; 2 b V V V A A A v # O l V A V V V A b h ; ; ; ; ; ; ; ; ; ; ; ; ; ; ; 1 v A ",
"  @ k A A A A A A B g ; ; ; ; ; ; ; ; ; ; + ; ; + ; 1 b A A A A A A M + O l A A A S A A B h ; ; ; ; ; ; ; ; ; ; ; ; ; + ; 1 b A ",
"  O l B B B B b B v h : : : : : : : : : : : < : : : g v B B b b B B c # O h b b b b b b v h < : < : : : : : : : : : : : : 2 v B ",
"  X , 2 g g 2 2 2 g j z z z z z z z z z z z z z z z h g 2 g 2 2 2 g < O . , 2 2 g 2 2 g g h x z z z z z z z z z c z z z z j g 2 ",
"  . ; : ; ; ; : ; : j V A V V V V V V V V V A A A V v 2 ; ; ; ; ; ; + . . + : : ; : : ; : j b A V V V V V V V V V V V V V v 2 : ",
"  O 2 j < < g z 1 : j V A V V V V V V b V V V A V V b v h : + ; ; ; + . X 6 j < ; g z 1 ; j b A A V B A V V V V V A A V V b v z ",
"  @ c b 1 < z b g : j V A V D D D V S 5.D V b A S D D A v < ; ; ; ; + . O l B 2 : z b g < h A A A S D D A S D S V B V S D D A V ",
"  + k B 2 < z b 2 : j V V S 7.e.7.S 6.w.7.S b A 6.w.0.5.z < ; ; ; ; + . O k B 2 : z b g : h V V A 7.e.8.D 6.q.0.S b V 5.w.0.5.B ",
"  @ l B h 2 x b h 2 z V B D q.u.0.D 0.u.t.6.S S 7.y.r.5.c < ; ; ; : : . @ l B h 2 v b z 2 z B V S 0.u.q.D 9.y.t.7.D V 7.y.r.6.B ",
"  # k V b v b B b v b V b D q.u.0.D 0.u.p.t.7.D 7.u.r.5.z < ; ; 1 z h + O l B B v b V b v b V B S 0.u.q.D 7.u.p.t.9.D 6.t.r.5.B ",
"  @ k V S A A V A A V V V S q.u.0.D 7.u.a.i.q.5.7.t.e.5.z < ; ; 1 v M > O l A A V V V V A A A B A 0.y.q.D 7.y.a.a.e.5.7.t.t.5.V "
};
