/* XPM */
static char *result[] = {
/* columns rows colors chars-per-pixel */
"64 64 248 2 ",
"   c #6A6778",
".  c #C83873",
"X  c #D8396D",
"o  c #EB2E67",
"O  c #EC316B",
"+  c #E63766",
"@  c #EF3368",
"#  c #DF3E5E",
"$  c #9D775A",
"%  c #906D59",
"&  c #A27958",
"*  c #B06E5A",
"=  c #904F7B",
"-  c #B5506D",
";  c #9D7965",
":  c #897877",
">  c #8E7173",
",  c #BA686E",
"<  c #DD455E",
"1  c #E75C56",
"2  c #E74A5E",
"3  c #D76B5C",
"4  c #EB7845",
"5  c #E86359",
"6  c #E6775C",
"7  c #F17C49",
"8  c #DC4462",
"9  c #DA4867",
"0  c #D34B6F",
"q  c #E64568",
"w  c #E55765",
"e  c #ED4B72",
"r  c #DA706A",
"t  c #E76865",
"y  c #E87866",
"u  c #459979",
"i  c #718F73",
"p  c #51B375",
"a  c #68B170",
"s  c #7DD356",
"d  c #72ED52",
"f  c #6FD46D",
"g  c #77E963",
"h  c #5AC46C",
"j  c #ED9B35",
"k  c #EB9C3B",
"l  c #EB9638",
"z  c #F29D3C",
"x  c #F39938",
"c  c #F28E3A",
"v  c #EDA436",
"b  c #EDA53B",
"n  c #EEAA3B",
"m  c #EAA438",
"M  c #F3A336",
"N  c #F2A43A",
"B  c #F3AA3C",
"V  c #F6A537",
"C  c #EBB03E",
"Z  c #9D8758",
"A  c #A78C59",
"S  c #9C8B75",
"D  c #A78C69",
"F  c #97AC5D",
"G  c #C88B56",
"H  c #CD9B5A",
"J  c #CC9557",
"K  c #DA965C",
"L  c #D59151",
"P  c #F5864C",
"I  c #EB9C49",
"U  c #F69C42",
"Y  c #F59659",
"T  c #F28758",
"R  c #CCA75C",
"E  c #D6A75A",
"W  c #D8B35B",
"Q  c #ECA647",
"!  c #F3AD43",
"~  c #F8A746",
"^  c #F4B344",
"/  c #F6B34B",
"(  c #ECA857",
")  c #F2A856",
"_  c #EDB359",
"`  c #F3B859",
"'  c #ECB443",
"]  c #D3946B",
"[  c #E78F6D",
"{  c #D6A866",
"}  c #D2AF71",
"|  c #E9AA64",
" . c #F5A966",
".. c #ECB666",
"X. c #F4B868",
"o. c #F4B875",
"O. c #8ECF56",
"+. c #EBC259",
"@. c #E8C86B",
"#. c #F4C364",
"$. c #F3C46C",
"%. c #F8C66E",
"&. c #F8C778",
"*. c #E8D366",
"=. c #DDC563",
"-. c #7D3F8A",
";. c #1E559B",
":. c #254E9D",
">. c #2B4D9D",
",. c #324B9C",
"<. c #394B99",
"1. c #29589B",
"2. c #3C549A",
"3. c #336F93",
"4. c #1F51A6",
"5. c #1E51AB",
"6. c #1C4FAD",
"7. c #254EA5",
"8. c #294DA5",
"9. c #254EA9",
"0. c #294CAA",
"q. c #334AA3",
"w. c #2350A5",
"e. c #2250A9",
"r. c #2B51A8",
"t. c #3759A7",
"y. c #244CB1",
"u. c #284BB1",
"i. c #3057B0",
"p. c #3763AA",
"a. c #595B8B",
"s. c #494999",
"d. c #564696",
"f. c #495B93",
"g. c #55538A",
"h. c #66468E",
"j. c #6C4891",
"k. c #5B658A",
"l. c #496399",
"z. c #5D6A96",
"x. c #426D8F",
"c. c #6A6F87",
"v. c #4954A6",
"b. c #6457A5",
"n. c #4867B4",
"m. c #5170AE",
"M. c #6277B7",
"N. c #5D7BC3",
"B. c #667EC0",
"V. c #8D3E8A",
"C. c #A53D82",
"Z. c #B23B83",
"A. c #884189",
"S. c #914F8C",
"D. c #AA488B",
"F. c #9C76AB",
"G. c #D2588D",
"H. c #FE5D8C",
"J. c #F15E8B",
"K. c #FA5D92",
"L. c #EA7899",
"P. c #F27899",
"I. c #EC678E",
"U. c #F678A1",
"Y. c #3D888A",
"T. c #448F85",
"R. c #6A9AA0",
"E. c #768FCC",
"W. c #8C888E",
"Q. c #A3929B",
"!. c #8D93AF",
"~. c #AFA7B9",
"^. c #A09EA0",
"/. c #EB9193",
"(. c #C9AD84",
"). c #F4BC84",
"_. c #F0B896",
"`. c #CF8CB6",
"'. c #F898B5",
"]. c #ED90AC",
"[. c #EAAEBD",
"{. c #F7A3BC",
"}. c #F1B4B9",
"|. c #DFBBA3",
" X c #F6C789",
".X c #FAD38A",
"XX c #FACB94",
"oX c #F6CA96",
"OX c #FADA9B",
"+X c #F8D599",
"@X c #EFCC96",
"#X c #D1C3A5",
"$X c #F8CBAB",
"%X c #F9D4AD",
"&X c #F9DDAD",
"*X c #F5D8AA",
"=X c #FCDBB6",
"-X c #E8CDAE",
";X c #FDE1B6",
":X c #F8E1AC",
">X c #DDCE97",
",X c #8C9ED3",
"<X c #9198C6",
"1X c #8FA4CA",
"2X c #A8B1D0",
"3X c #9BB3E2",
"4X c #A4B3E3",
"5X c #D2B1C7",
"6X c #E9ACC4",
"7X c #E6B8C7",
"8X c #FABBCD",
"9X c #F9B5CC",
"0X c #FA9FC2",
"qX c #BAC6E7",
"wX c #BCD6ED",
"eX c #B5C5DE",
"rX c #D3CFD6",
"tX c #FADFC9",
"yX c #FCD5D9",
"uX c #F1CDD3",
"iX c #FCE4C5",
"pX c #FDEAC5",
"aX c #FAE6CA",
"sX c #FEEDD5",
"dX c #FFECDA",
"fX c #FFE7D9",
"gX c #FEF2D6",
"hX c #FFF1D9",
"jX c #FFF8DE",
"kX c #D4D9EE",
"lX c #CDD2EC",
"zX c #FDDBE6",
"xX c #FADAED",
"cX c #DDECFD",
"vX c #FFE3EA",
"bX c #FEE8E8",
"nX c #FEF4E5",
"mX c #FEF2EB",
"MX c #FEF9E8",
"NX c #E9ECFB",
"BX c #FEEEF2",
"VX c #F9E5F0",
"CX c #FEF4F4",
"ZX c #FEFDF4",
"AX c #FEF5FB",
"SX c #FDFDFD",
"DX c #F5F8FC",
"FX c #EAEDEB",
/* pixels */
"9.9.9.9.9.9.9.w.9.9.9.9.9.9.7.9.9.9.9.9.9.9.9.9.8.9.9.9.8.9.9.9.w.9.w.9.9.9.9.9.w.8.9.9.9.y.8.w.9.9.9.w.9.9.9.9.9.9.8.w.9.9.9.8.",
"9.9.9.9.9.9.9.8.9.9.9.9.9.9.9.8.w.8.9.9.7.9.9.9.w.9.9.9.7.9.9.9.9.9.9.9.0.9.9.9.w.8.9.9.y.9.w.w.9.9.9.8.9.w.9.9.w.8.9.9.9.8.9.9.",
"9.9.9.9.9.9.9.7.9.9.9.w.9.9.w.9.9.9.9.9.8.9.9.9.9.9.9.9.9.9.w.9.9.9.9.9.9.9.9.9.w.:.9.9.9.9.9.:.9.9.9.9.7.8.9.9.9.9.9.9.9.8.9.0.",
"9.9.7.9.9.w.8.9.9.9.9.8.9.9.9.9.9.9.9.9.w.9.9.9.9.w.8.9.9.9.9.9.9.8.7.9.9.9.9.9.w.8.9.9.9.9.9.8.9.9.9.9.9.9.9.9.9.9.9.9.9.8.9.9.",
"7.9.9.9.9.9.9.9.9.8.9.9.9.9.w.9.9.7.8.9.9.9.w.8.9.9.9.9.9.9.8.9.9.9.7.9.9.9.9.9.7.7.9.9.9.y.9.9.9.w.8.9.9.9.9.9.9.9.9.9.9.8.9.9.",
"9.9.9.w.9.9.9.9.9.9.7.9.8.9.9.9.9.9.w.9.9.9.9.9.9.9.9.9.8.9.9.9.9.7.7.7.9.9.0.9.7.9.9.9.u.9.y.0.9.8.w.9.9.9.9.w.9.9.8.9.9.9.9.9.",
"7.9.9.8.9.8.w.9.9.9.9.9.9.8.9.9.9.9.w.8.9.9.9.9.9.8.9.9.9.9.9.9.9.8.9.9.9.9.9.9.9.9.9.9.9.u.9.9.9.9.9.9.9.7.9.8.9.9.8.9.9.8.8.9.",
"9.9.7.9.9.9.9.9.9.w.9.w.9.9.9.9.9.9.9.9.9.9.9.9.9.7.w.9.9.w.9.9.e.9.9.9.9.9.9.9.9.9.9.9.0.9.8.9.9.9.9.9.9.9.9.9.9.9.9.9.9.9.9.9.",
"9.9.9.9.9.7.9.9.9.9.9.9.8.9.9.7.9.9.9.w.9.9.9.9.8.w.9.7.9.9.9.9.9.9.9.9.9.w.7.7.7.7.8.w.8.w.w.8.9.9.9.9.9.7.9.9.9.9.9.9.7.9.8.9.",
"w.7.9.9.9.9.9.9.9.9.9.9.9.9.9.9.9.9.9.8.9.9.9.9.9.9.9.9.9.9.7.9.9.9.e.0.9.9.7.9.9.7.7.w.w.8.w.9.9.8.7.9.9.9.9.9.9.9.7.8.9.9.9.9.",
"8.9.9.9.9.w.9.9.8.9.9.9.9.9.w.9.9.9.8.9.9.9.7.9.9.9.9.9.7.9.7.9.0.9.9.9.0.9.9.9.y.9.8.9.w.9.e.e.9.9.7.9.9.7.9.9.9.9.9.7.9.0.9.9.",
"9.9.9.9.9.8.9.8.9.9.9.w.9.8.9.9.9.9.w.9.9.9.8.w.9.9.9.7.9.9.9.9.e.9.9.9.9.9.9.y.9.y.9.9.e.e.y.y.9.9.9.9.9.9.9.8.9.7.9.9.9.9.9.8.",
"9.9.9.9.9.7.9.w.9.9.8.w.9.7.9.9.9.7.9.7.9.9.8.w.9.9.7.9.9.9.9.9.9.9.8.9.9.9.9.9.y.y.e.e.e.e.e.e.9.9.9.7.7.9.9.7.0.7.9.7.9.9.7.0.",
"9.9.w.9.9.9.9.9.9.9.9.9.9.9.9.w.9.9.9.9.9.9.9.9.9.9.w.9.9.9.9.9.7.9.9.9.7.9.9.9.e.y.w.:.;.:.w.e.7.9.9.9.9.9.9.9.9.9.9.9.9.8.9.7.",
"9.9.8.9.9.9.8.w.9.9.7.9.9.9.8.9.9.9.8.w.9.9.7.9.9.9.8.9.9.9.9.9.9.9.9.9.7.8.w.w.9.w.1.1.1.t.w.1.7.9.9.9.7.9.9.9.9.9.9.9.9.9.0.7.",
"9.9.9.9.9.9.9.9.9.9.9.9.9.9.9.9.9.9.9.9.9.9.9.9.9.9.9.9.7.9.9.7.9.8.e.9.w.w.:.w.w.w.1.p.m.Y.3.1.8.9.9.7.9.9.9.9.9.9.9.7.9.7.0.9.",
"9.7.9.7.8.9.9.9.9.9.9.9.9.9.9.9.0.8.8.7.7.8.9.7.w.4.4.4.9.9.9.w.0.0.y.7.w.9.y.u.0.8.3.T.h p u 3.9.w.r.9.9.0.9.9.5.5.5.w.w.9.9.0.",
"9.9.9.9.w.9.9.9.9.8.9.9.w.9.7.9.0.0.9.9.7.9.9.9.7.9.7.9.0.8.9.9.q.0.q.,.,.q.q.q.,.,.x.u h f p 3.:.:.9.9.9.8.9.9.w.e.e.9.w.7.9.9.",
"9.9.9.9.9.w.9.9.9.w.9.9.8.9.9.9.9.y.e.w.w.e.9.9.9.9.9.9.9.9.9.9.>.<.d.h.h.h.h.d.h.h.  a d g h u Y.3.t.4.e.9.8.9.9.9.y.9.9.9.8.7.",
"8.w.9.9.9.8.9.9.9.7.9.9.9.9.9.9.9.9.e.w.w.7.9.9.0.8.0.9.9.9.9.9.,.d.j.V.C.C.C.C.C.C.> F s d d f T.Y.3.;.w.7.>.8.0.0.0.9.9.9.9.9.",
"9.9.9.9.9.9.9.9.8.9.9.9.9.9.9.9.8.8.9.9.9.7.9.9.0.0.8.9.9.0.q.<.<.h.= X . X X + X . * A O.O.d g g R.Y.;.4.w.8.0.0.0.8.9.9.9.9.9.",
"9.9.9.w.9.9.9.9.w.9.9.9.w.9.7.9.8.0.9.9.7.7.9.9.e.8.8.9.6.8.<.d.h.S.- t w q O q 2 5 K A F O.s f h u 3.;.4.e.0.0.0.8.9.7.9.9.9.9.",
"9.9.7.8.9.9.8.w.9.9.9.9.8.9.9.9.8.9.9.y.9.9.9.5.9.7.7.w.9.,.d.j.D., ] { [ w < 2 6 K { H G Z i i T.Y.1.5.9.9.9.9.0.9.7.7.7.e.w.w.",
"8.9.9.9.9.9.9.9.7.9.9.9.9.9.9.8.9.9.6.9.9.9.9.e.w.7.w.w.7.s.j.V.0 r W @.| t < 1 ( @.@.K 3 - S.a.3.4.5.e.9.y.y.9.7.9.w.w.9.9.9.9.",
"w.9.9.9.8.9.9.9.9.9.9.8.9.9.9.9.w.w.e.9.9.9.9.6.9.9.9.6.9.s.-.Z.< 6 E +.( t < w K ..W 6 9 . A.d.9.9.8.9.9.9.9.9.w.7.w.9.9.y.y.y.",
"9.9.9.9.9.9.w.9.9.9.9.9.9.9.w.9.w.7.9.6.9.9.9.9.9.9.9.9.y.s.-.Z.8 3 6 T 6 w # q 5 [ [ w q . V.d.y.9.7.7.7.9.9.9.5.7.7.w.9.y.y.y.",
"9.9.9.9.9.9.9.w.9.9.9.w.9.9.9.w.:.8.9.e.9.9.u.9.7.7.9.9.8.s.-.Z.X + q e q + + + 2 2 q q + . A.d.8.9.9.w.9.9.9.9.9.7.w.7.8.7.0.0.",
"9.w.8.9.9.9.9.9.9.9.9.9.9.8.9.9.9.9.9.9.9.0.0.0.t.n.n.n.n.b.A.G.o o O O + 9 w < < + X o O . A.d.7.7.7.9.9.9.9.9.9.9.8.8.:.7.8.8.",
"9.9.9.9.9.9.8.9.7.8.9.9.9.9.7.9.9.9.9.9.w.0.0.n.N.E.,X,X,X<XF.0 @ o o + w r [ 3 w q o o o . V.s.9.9.9.9.9.7.7.7.9.9.0.0.8.9.7.:.",
"9.9.9.9.w.8.7.9.9.9.8.9.w.9.9.9.6.9.:.:.:.8.:.n.,XwXkXkXkXrX`.G.+ + o # t | @.| y q + + + . A.d.:.7.y.y.7.7.w.8.9.9.9.y.9.0.8.w.",
"9.8.w.9.9.9.9.9.9.w.9.9.9.9.8.9.y.i.t.1.t.n.n.E.3XcXSXSXAXvX0XI.+ + + # t | @...y 2 + X 9 G.S.b.t.i.0.9.7.w.e.9.9.9.9.9.y.y.9.w.",
"7.9.9.9.9.9.9.9.9.9.9.9.9.9.9.9.e.n.E.E.E.E.E.3XwXNXZXZXAXvX{.I.+ + o o w L E L 5 + e J.U.U.`.<XE.N.p.8.9.w.e.9.9.w.e.9.y.y.9.:.",
"9.9.y.y.9.5.5.9.9.w.9.9.5.6.6.4.9.E.1XwXrXrXlXkXNXSXDXDXSXvX0XG.o o O O e e e e @ X J.].[.rXrXlXeX<Xn.w.w.4.4.w.9.0.u.9.9.7.9.0.",
"7.9.9.9.e.9.9.9.9.8.0.r.r.t.>.,.l.E.qXDXDXSXAXSXAXSXSXZXSXbX{.L.q + + e X q e w q 9 I.'.yXZXAXSXNX3XE.r.7.w.4.w.0.0.u.9.9.e.0.0.",
"w.9.y.9.7.7.e.9.8.8.q.n.M.E.E.E.E.2XkXDXSXSXDXSXSXSXSXZXSXmX8X'.P.L.P.L.P.P.P.P.P.P.'.uXBXSXSXSXDX4Xm.e.8.9.w.7.0.0.0.6.w.w.9.9.",
"w.9.9.9.7.4.9.9.7.7.t.E.4XqXqXqXqXkXNXSXDXSXSXDXSXSXSXDXSXCXzXyX8X8X8X8X8X8X9XuX8X9XuXzXAXAXSXSXNX4XN.0.8.9.9.9.0.0.9.9.:.w.w.7.",
"w.9.9.9.9.6.9.9.9.7.n.,XlXNXCXDXDXDXAXAXZXMXZXZXSXSXSXAXSXZXCXBXBXBXmXMXmXCXmXBXnXmXmXCXAXSXZXZXFX2XM.r.9.8.9.9.9.9.9.w.w.7.w.9.",
"w.9.9.9.w.9.9.9.9.7.n.!.rXaXiXaXpXpXiXiXiXpXpXpXaXtXtXaXpXpXiXiXtXaXaXpXpXaXaXaXpXpXpXiXaXiXiXpXaX~.M.r.8.8.9.9.9.9.9.7.w.9.8.9.",
"e.9.7.7.7.9.9.9.7.:.l.W.(.).&..X.X X X).). X.X.X X). X X.X.X X).). X.X.X@X).). X X.X X X X). X.X>X^.T.w.w.8.9.9.y.9.7.9.0.0.0.9.",
"9.9.8.7.7.7.9.9.w.:.x.S.G I ) ` +.` I I ) / ` ` ) I Q ( ` +.Q Q I ( _ ` _ ( I Q _ +.` ( Q I ) ` } S z.r.e.w.7.8.9.9.9.9.9.u.0.9.",
"9.9.7.7.9.e.9.6.9.:.f.: A z v ~ C B b k U b ! ! N z k n C B ! z l N ! ! ! k j z B ! ! b m k m ! E D k.>.w.9.9.8.9.9.w.5.9.9.y.9.",
"0.8.9.w.7.9.y.9.5.:.f.: J N M b N N B V n n b N V B N v N V N N N N M M m n n N N M N n n B M V L A k.>.9.9.9.8.8.9.w.5.y.9.9.9.",
"9.9.9.9.9.y.9.9.:.:.f.S R / N k j b B ^ B v k j B C ^ B j j M ! ^ N x j m ' ' ^ z x j b ^ ^ N U L $ k.>.9.e.9.9.8.7.w.w.e.9.9.7.",
"9.9.w.7.e.0.0.9.:.:.f.W.} %.` _ ( ) ` #.+._ ( ( ` X.#.` _ ( _ X.#.` ) ( _ ` #.X.) ) ) _ #.#. .) ] S z.8.y.6.e.9.8.7.9.w.9.8.9.9.",
"9.e.4.e.9.0.0.0.8.7.l.!.#XOX+X@XoXoX+XOX+X@XoXoX$XOXOX@XoXoX@X*XOX+XoXoXoX+XOXOX+XoXoX+X*XOX@XoX|.Q.z.r.9.6.9.7.8.9.9.5.9.8.8.8.",
"9.9.w.w.w.9.0.9.6.9.n.<XrXhXsXfXdXdXdXdXhXdXfXdXdXhXhXdXdXdXdXsXhXdXsXsXsXsXhXsXfXfXdXhXgXgXgXdXuX~.M.r.9.9.9.9.9.9.9.9.9.8.8.9.",
"8.0.w.4.9.9.9.9.9.9.n.,XrXbXvXxXvXxXbXbXBXCXSXSXSXSXDXCXvXvXvXvXvXAXAXSXSXSXSXCXBXVXvXvXvXvXvXvXxX2XM.,.8.9.9.9.9.9.y.9.9.7.9.9.",
"0.9.9.6.7.9.0.9.9.0.v.F.~.7X6X6X[.6X[.5XuXxXAXSXSXSXBXzX7X[.[.[.7XuXVXAXSXSXSXVXuX7X6X6X6X6X6X6X5X!.m.,.8.8.9.9.9.9.9.6.9.7.9.9.",
"0.0.8.0.9.y.y.y.9.8.v.S.G.H.H.K.H.H.H.I.'.uXAXSXDXSXvX9XU.K.K.H.K.'.zXSXSXSXAXyX0XU.K.H.H.H.H.H.G.D.b.q.9.w.7.5.5.w.e.9.y.y.9.9.",
"9.0.8.8.5.9.y.9.9.7.s.A.- q # 9 8 q < 9 L.}.bXZXMXmXyX].r 9 q 8 0 /.uXmXMXmXmXuX/.0 8 q 8 8 8 < . A.d.q.9.9.9.5.w.w.9.9.9.9.7.w.",
"5.9.8.7.w.w.7.7.7.:.s.  - 1 1 t 5 5 1 5 [ _.%X=X=X=XoX/.y 5 5 1 t [ _.;X;X=X$X_./.6 5 1 1 1 1 5 3 = b.,.9.9.9.9.9.7.8.8.8.8.8.w.",
"4.7.9.7.w.w.7.9.9.7.f.= 3 4 7 T P P 4 4 T  .&. Xo.o. .) Y P P 4 7 Y o.&.&.o.o. .Y Y P 7 4 4 P P K ; a.>.9.0.0.9.9.8.w.8.0.8.8.9.",
"4.7.0.0.9.9.7.9.6.:.f.> A l U ) / ~ x c z ~ / / Q U k N / ~ z c U U / ` / Q I k ~ / ~ U c c z ~ { S k.1.r.8.8.7.9.9.y.9.9.9.y.u.",
"9.9.0.y.9.9.7.7.9.:.f.: L j z ~ n N z x M B ! N V z v n B ! n n z M n ' N v j m B B ! V M M V ^ E D k.:.8.0.8.9.e.9.5.5.9.9.0.u.",
"9.0.0.u.9.7.7.7.6.:.f.: H V V z b b N N n b n M N ! B M N k m n V N M k N n V N M b N B B B v v H Z k.<.9.0.9.w.w.9.e.w.w.9.0.0.",
"7.9.0.9.9.9.w.w.9.:.l.: E / V j l b ^ / ' Q k j B ^ / Q k U b ^ ^ ! z l b ' ^ ! Q k k b ^ / b I L $ a.,.u.y.9.9.9.9.8.w.8.:.8.9.",
"w.e.9.9.9.9.9.9.6.:.l.W.} %.%... .X.%.%.%.X.| ..$.%.%.X. . .X.%.%.%. . .X.$.&.$.o. . .X.%.%.X.X.[ S z.8.9.9.9.9.9.9.0.0.9.7.7.8.",
"w.9.9.8.8.8.8.0.9.7.p.!.#X:X:X*X$X%X%X&X&X*X-X*X&X:X:X%X%X$X%X&X:X%X*X$X*X&X:X&X%X$X%X%X:X;X*X*X-X^.m.e.y.9.9.8.9.9.0.9.9.9.7.7.",
"5.9.9.8.8.8.0.0.9.9.n.1XrXjXjXMXnXnXnXMXMXMXmXbXjXMXnXnXmXnXnXnXMXMXnXnXnXnXmXnXnXnXnXnXnXMXnXMXFX2XM.6.9.0.8.9.9.9.9.6.e.9.8.8.",
"6.9.9.9.8.0.9.9.6.7.n.1XrXgXsXbXsXgXgXhXdXgXsXsXsXgXhXsXdXdXgXhXgXgXsXsXgXgXhXhXsXsXsXsXgXhXgXsXuX~.M.9.9.9.9.e.9.7.9.5.5.w.w.8.",
"9.9.9.e.9.9.y.9.4.:.l.^.>X:X+X@XoXXX+XOX+XXXoXXXXXOXOXXXXX).XXOXOX+XXXoXXX+XOX+XXXXXXXXXOXOXXX_.#XQ.z.8.8.9.9.5.w.7.e.e.9.y.9.y.",
"9.e.7.9.5.9.9.9.w.:.l.W.} @...| (  .X.#.X. .(  .X.@.#...| ) X.X.%.X.| ( | X.%.#...(  ...@.$.X. .] W.k.<.8.9.5.5.w.9.8.9.y.9.9.y.",
"7.7.7.w.7.9.7.e.5.:.f.c.D { R J G J R { R H G L R R R R G G J R E R G G J H { R J G J R R R J K A > a.8.9.y.9.w.9.7.8.8.7.9.9.9.",
"9.9.9.9.w.9.w.7.9.9.2.k.S A & & $ $ Z A Z $ $ * Z Z Z $ $ & & Z A & $ $ $ Z A Z & % & Z Z Z & * %   f.0.0.y.4.9.8.8.q.8.:.:.7.8."
};
