/* XPM */
static char *c55656a417d749ebbb5cff00f3ef8f9926p4q3bQfR0SuqCv[] = {
/* columns rows colors chars-per-pixel */
"16 16 255 2 ",
"   c #003B01",
".  c #003D00",
"X  c #004B00",
"o  c #03650E",
"O  c #096A0D",
"+  c #146100",
"@  c #0A770E",
"#  c #0D771B",
"$  c #22741F",
"%  c #205239",
"&  c #1D722F",
"*  c #237020",
"=  c #287E27",
"-  c #173A72",
";  c #3F3D7C",
":  c #17474B",
">  c #07574A",
",  c #03515E",
"<  c #007946",
"1  c #00695F",
"2  c #2D7A4E",
"3  c #277254",
"4  c #174265",
"5  c #075D6E",
"6  c #17497C",
"7  c #025074",
"8  c #0A587E",
"9  c #145C72",
"0  c #2D586B",
"q  c #007465",
"w  c #15717C",
"e  c #326E6F",
"r  c #227760",
"t  c #3C7167",
"y  c #36717F",
"u  c #456A58",
"i  c #517358",
"p  c #4F5974",
"a  c #477F74",
"s  c #15A311",
"d  c #2EB302",
"f  c #28B01E",
"g  c #1A9E24",
"h  c #209636",
"j  c #2B9731",
"k  c #2CA023",
"l  c #26AF2E",
"z  c #729B11",
"x  c #599C2B",
"c  c #6A9625",
"v  c #18C10C",
"b  c #00D100",
"n  c #05D600",
"m  c #11CE1A",
"M  c #23C200",
"N  c #22C300",
"B  c #21CC0C",
"V  c #3CC601",
"C  c #31CC0E",
"Z  c #24D50B",
"A  c #31C413",
"S  c #1FC025",
"D  c #29C72C",
"F  c #29CD2E",
"G  c #23CA34",
"H  c #24CB3D",
"J  c #3CC23B",
"K  c #51DC1F",
"L  c #70DE1B",
"P  c #54D530",
"I  c #008945",
"U  c #1FAE52",
"Y  c #21AD42",
"T  c #39A243",
"R  c #2AB848",
"E  c #3CB858",
"W  c #2F9065",
"Q  c #3C8E78",
"!  c #1EB163",
"~  c #33AB7D",
"^  c #518449",
"/  c #6C9C5E",
"(  c #6F8966",
")  c #43A375",
"_  c #49A576",
"`  c #5AA175",
"'  c #57AA76",
"]  c #7CA472",
"[  c #7FB47C",
"{  c #1FC944",
"}  c #32C84D",
"|  c #55C151",
" . c #5ACB55",
".. c #44D95B",
"X. c #77C64F",
"o. c #61C65E",
"O. c #62DB5C",
"+. c #59C879",
"@. c #67D562",
"#. c #70DC6F",
"$. c #72F068",
"%. c #89FF3E",
"&. c #8FB359",
"*. c #8CD440",
"=. c #A6CF4B",
"-. c #85EB41",
";. c #9FF54A",
":. c #9FF65A",
">. c #9BFF61",
",. c #91EC75",
"<. c #B9E67D",
"1. c #CFFF57",
"2. c #C6FF59",
"3. c #C8F461",
"4. c #153D9F",
"5. c #2F3A8A",
"6. c #3C3E88",
"7. c #3A319A",
"8. c #173AA2",
"9. c #473E99",
"0. c #521FBA",
"q. c #442FB8",
"w. c #462FBB",
"e. c #5525B5",
"r. c #443AB4",
"t. c #563EB8",
"y. c #0B4380",
"u. c #05498A",
"i. c #064C8A",
"p. c #1C4C8C",
"a. c #075182",
"s. c #0B5288",
"d. c #0B528A",
"f. c #0A5D8F",
"g. c #084393",
"h. c #0F4992",
"j. c #0E4C97",
"k. c #024E9A",
"l. c #074E9E",
"z. c #0A4C9A",
"x. c #104A93",
"c. c #104998",
"v. c #0B5793",
"b. c #0E5492",
"n. c #095495",
"m. c #095890",
"M. c #0C5896",
"N. c #334587",
"B. c #3B5E86",
"V. c #24529D",
"C. c #3C5C97",
"Z. c #33658A",
"A. c #2C7085",
"S. c #3E7D8E",
"D. c #216594",
"F. c #397692",
"G. c #357398",
"H. c #074FA3",
"J. c #074CA7",
"K. c #084BA4",
"L. c #0B4FA4",
"P. c #044AA9",
"I. c #064BA8",
"U. c #044EAF",
"Y. c #094EAD",
"T. c #0A4EAF",
"R. c #0C4CAD",
"E. c #1641A0",
"W. c #1B45A7",
"Q. c #1B4AA6",
"!. c #114EAB",
"~. c #154BAD",
"^. c #1A4CAD",
"/. c #0A57A7",
"(. c #0D54A6",
"). c #0B59A4",
"_. c #0050A9",
"`. c #0752AD",
"'. c #0950AA",
"]. c #0A51AB",
"[. c #0953AA",
"{. c #0A57AF",
"}. c #0D54AC",
"|. c #1257A4",
" X c #1E51A2",
".X c #1D56A5",
"XX c #1459A7",
"oX c #1154AB",
"OX c #1353AD",
"+X c #1157AF",
"@X c #1555AC",
"#X c #104EB1",
"$X c #154FB3",
"%X c #174EB5",
"&X c #1149B8",
"*X c #0F51B1",
"=X c #0F51B2",
"-X c #0C52B2",
";X c #0A57B1",
":X c #0857B3",
">X c #0C55B1",
",X c #0E57B6",
"<X c #1152B0",
"1X c #1355B3",
"2X c #1257B2",
"3X c #1556B4",
"4X c #2D4EAF",
"5X c #3A43A8",
"6X c #2558A9",
"7X c #2F4FBC",
"8X c #544981",
"9X c #404D93",
"0X c #46728D",
"qX c #476D91",
"wX c #6D41BC",
"eX c #5723C3",
"rX c #542CCA",
"tX c #6C3CE8",
"yX c #5067C5",
"uX c #7477C8",
"iX c #6AAF9A",
"pX c #78AB9A",
"aX c #7D99B1",
"sX c #7395BB",
"dX c #6FB4A1",
"fX c #73C885",
"gX c #87E984",
"hX c #BFE59C",
"jX c #A2FF9E",
"kX c #90C8A1",
"lX c #B1D5AF",
"zX c #A3DBB6",
"xX c #A8D3B8",
"cX c #ABE0A8",
"vX c #B7FFAB",
"bX c #BBF8B5",
"nX c #C5FDB6",
"mX c #949AFC",
"MX c #B6B8FF",
"NX c #A8DCDA",
"BX c #B5EEC3",
"VX c #BFF0D2",
"CX c #BFD7EF",
"ZX c #ABD3FF",
"AX c #DAFFCA",
"SX c #C3EDD5",
"DX c #CCF2D9",
"FX c #E0FFCD",
"GX c #F3FFCD",
"HX c #EEFFD4",
"JX c #C3D2FF",
"KX c #E4FFE1",
"LX c #E6FFFF",
"PX c #E7FFFF",
"IX c #EBFAFF",
/* pixels */
"=XU.Y.3X~.Q.V.4 i u p.$X<X#XT.=X",
"=XP.2Xl.v.8 , iXnX/ : 6 g.<X1XP.",
":X'.(.f.q I Y $.:.*.c ] G.H.}.Y.",
"P./.b.w ! H D A V L 2.<.e u.(.>X",
"{.n.9 W } D J l v d %.x % Z.z.U.",
"[.i.A.' l s ,.jXv B d ,.SXqXj.,X",
"'.h.sXpX# @ [ AXP N C O.a - .XJ.",
"XXy.aXxXo O lXHX:.%.K k t C.j.oX",
"d.F.DXFX@.#.KXGX3.1.;.X.SXB.h.>X",
"a.A.kXvX .| bXhX=.z &.( p 6.6XK.",
"M.7 >   T o.X . + ^ 8XwXe.q.8.@X",
").m.5 r & $ * = j 2 9XeX0.w.7X!.",
";Xk.d.S.zXcXBXfXg h 0 6.; 9X8.&X",
"Y.OX XZXLXLXCXNX+.E _ 3 ` dXD.|.",
"^.E.yXIXJXuXt.7.0X) R G F ..~ 1 ",
"W.4X5XMXmXr.tXrX5.Q H b n m U < "
};
