/* XPM */
static char *d24cfffe886742d7f918e4789e46b27cUNaWKCvljUVpwEH5[] = {
/* columns rows colors chars-per-pixel */
"16 16 72 1 ",
"  c #46BC49",
". c #44B74A",
"X c #53A056",
"o c #62B356",
"O c #45B94A",
"+ c #45B34B",
"@ c #49AB50",
"# c #45B949",
"$ c #45BC49",
"% c #46BD49",
"& c #50B152",
"* c #55A659",
"= c #55AA57",
"- c #46BA4A",
"; c #45B84A",
": c #60A65C",
"> c #59AC56",
", c #57B552",
"< c #47B14E",
"1 c #4BB250",
"2 c #47B44C",
"3 c #46B74A",
"4 c #56A656",
"5 c #49B34D",
"6 c #45BD48",
"7 c #4CAD51",
"8 c #5FA85A",
"9 c #52A555",
"0 c #45BA49",
"q c #46BB49",
"w c #48B24E",
"e c #47B34D",
"r c #47BC49",
"t c #45BB49",
"y c #4DB64D",
"u c #46B24B",
"i c #3DB64A",
"p c #33AF4B",
"a c #34AF4B",
"s c #3EB64A",
"d c #2CA94C",
"f c #28A74C",
"g c #54BA4E",
"h c #66AD59",
"j c #48AC4F",
"k c #2DAB4B",
"l c #1E9F4D",
"z c #1EA04D",
"x c #2DAA4C",
"c c #4BA950",
"v c #49A750",
"b c #44BA49",
"n c #2FAB4B",
"m c #1FA04D",
"M c #20A04D",
"N c #41B949",
"B c #3BB44A",
"V c #25A44C",
"C c #24A54C",
"Z c #44BB49",
"A c #42BA49",
"S c #46AD4F",
"D c #48AF4E",
"F c #47BA4A",
"G c #4BBA4B",
"H c #5CAD56",
"J c #56A756",
"K c #4DB150",
"L c #63A25F",
"P c #64A260",
"I c #4EAF52",
"U c white",
/* pixels */
"   .XoO         ",
"    +@#   $$$   ",
"     %    &*=-% ",
"         ;:>,<12",
"         3456789",
"          0q -we",
"                ",
"                ",
" $  rrr  $tt$   ",
"%yuipapssdffdi  ",
"ghjklzlxxlzzlx  ",
"cvbnmMmnxlmmlx  ",
"$  NBBBNBfVCfB  ",
"    rrr  ZASD   ",
"         FGHJt  ",
"        %KLPI%  "
};
