/* XPM */
static char *result[] = {
/* columns rows colors chars-per-pixel */
"64 64 256 2 ",
"   c #051A00",
".  c #151500",
"X  c #022501",
"o  c #002C02",
"O  c #0A2B00",
"+  c #012D0C",
"@  c #082705",
"#  c #142B00",
"$  c #1B2B00",
"%  c #152503",
"&  c #013401",
"*  c #0B3401",
"=  c #023C01",
"-  c #0C3C03",
";  c #01330C",
":  c #053A0B",
">  c #133401",
",  c #123B02",
"<  c #1A3804",
"1  c #012C14",
"2  c #023313",
"3  c #013C14",
"4  c #00341D",
"5  c #073B17",
"6  c #183A14",
"7  c #1A2E13",
"8  c #272803",
"9  c #233B02",
"0  c #393706",
"q  c #283517",
"w  c #332F0E",
"e  c #023A24",
"r  c #023924",
"t  c #063F30",
"y  c #261D00",
"u  c #46320E",
"i  c #4E3F20",
"p  c #024301",
"a  c #0B4302",
"s  c #014B00",
"d  c #0C4C02",
"f  c #08460B",
"g  c #134401",
"h  c #174908",
"j  c #025401",
"k  c #0D5302",
"l  c #025C00",
"z  c #0C5A02",
"x  c #09560B",
"c  c #165807",
"v  c #054617",
"b  c #184A15",
"n  c #0B5619",
"m  c #1C5B13",
"M  c #195716",
"N  c #254A07",
"B  c #26570A",
"V  c #224816",
"C  c #265716",
"Z  c #33530F",
"A  c #046300",
"S  c #0B6301",
"D  c #0C6C01",
"F  c #066905",
"G  c #136C02",
"H  c #186707",
"J  c #037300",
"K  c #0A7901",
"L  c #147201",
"P  c #1A7805",
"I  c #196614",
"U  c #167212",
"Y  c #26660C",
"T  c #37640A",
"R  c #247809",
"E  c #276817",
"W  c #386918",
"Q  c #287617",
"!  c #367619",
"~  c #37740C",
"^  c #01442B",
"/  c #054826",
"(  c #144926",
")  c #075727",
"_  c #155629",
"`  c #044B33",
"'  c #065839",
"]  c #165936",
"[  c #124B34",
"{  c #25582F",
"}  c #086539",
"|  c #176639",
" . c #106B31",
".. c #276525",
"X. c #346B24",
"o. c #397626",
"O. c #296F34",
"+. c #4E500C",
"@. c #625015",
"#. c #486A08",
"$. c #56750A",
"%. c #456D15",
"&. c #487718",
"*. c #597917",
"=. c #50710B",
"-. c #69780B",
";. c #787907",
":. c #667A19",
">. c #7A7B15",
",. c #676A0A",
"<. c #525027",
"1. c #477628",
"2. c #587924",
"3. c #587C35",
"4. c #46732C",
"5. c #697228",
"6. c #095C41",
"7. c #135B44",
"8. c #076746",
"9. c #17674A",
"0. c #07734B",
"q. c #177445",
"w. c #097B55",
"e. c #167857",
"r. c #136C51",
"t. c #256948",
"y. c #267552",
"u. c #207860",
"i. c #877E0D",
"p. c #098601",
"a. c #188805",
"s. c #0C9800",
"d. c #199705",
"f. c #1C9513",
"g. c #248808",
"h. c #24970A",
"j. c #288918",
"k. c #299916",
"l. c #379819",
"z. c #348B16",
"x. c #19A705",
"c. c #17B207",
"v. c #25A508",
"b. c #27B60A",
"n. c #28A615",
"m. c #35A91B",
"M. c #2CB616",
"N. c #35B615",
"B. c #2C8622",
"V. c #388726",
"C. c #379725",
"Z. c #37962C",
"A. c #39A825",
"S. c #37B726",
"D. c #37B12F",
"F. c #568319",
"G. c #4A831D",
"H. c #798209",
"J. c #688519",
"K. c #778717",
"L. c #708611",
"P. c #43AE1E",
"I. c #5A8426",
"U. c #488834",
"Y. c #499A35",
"T. c #4C8C2D",
"R. c #688826",
"E. c #778725",
"W. c #799427",
"Q. c #698937",
"!. c #739335",
"~. c #47A927",
"^. c #48B628",
"/. c #47AB33",
"(. c #56BA37",
"). c #50B034",
"_. c #65A93C",
"`. c #1AC808",
"'. c #1FC616",
"]. c #2AC60C",
"[. c #2AC715",
"{. c #37C619",
"}. c #36D71A",
"|. c #2ED712",
" X c #3ACC26",
".X c #3FE032",
"XX c #44CC1C",
"oX c #47C726",
"OX c #47D728",
"+X c #52D72D",
"@X c #58C936",
"#X c #59D835",
"$X c #4ECC31",
"%X c #65D93A",
"&X c #61C63D",
"*X c #50E732",
"=X c #65E93C",
"-X c #09855A",
";X c #15845D",
":X c #178A63",
">X c #179269",
",X c #0F9165",
"<X c #258B68",
"1X c #258356",
"2X c #6F8F46",
"3X c #57AB44",
"4X c #6EB04B",
"5X c #548B42",
"6X c #6DCF4C",
"7X c #5DE542",
"8X c #68E546",
"9X c #75E949",
"0X c #79F753",
"qX c #71F34D",
"wX c #78CF64",
"eX c #86860B",
"rX c #878919",
"tX c #948C18",
"yX c #889419",
"uX c #97981C",
"iX c #938E0C",
"pX c #A49819",
"aX c #9BA41B",
"sX c #A7A81C",
"dX c #ACB017",
"fX c #858C24",
"gX c #899726",
"hX c #969826",
"jX c #869A38",
"kX c #949D38",
"lX c #8F8D2F",
"zX c #A49A22",
"xX c #A79C26",
"cX c #AA9C31",
"vX c #9AA326",
"bX c #9AA637",
"nX c #8AAC3C",
"mX c #A3A42A",
"MX c #A9A728",
"NX c #B5A929",
"BX c #B7B52D",
"VX c #A7A836",
"CX c #B4AD32",
"ZX c #BAB635",
"AX c #A7B332",
"SX c #C4B431",
"DX c #8B964E",
"FX c #9AA858",
"GX c #94A74C",
"HX c #A4A948",
"JX c #ABB549",
"KX c #96B570",
"LX c #87FB59",
"PX c #89F75B",
"IX c #86E369",
"UX c #C3BF38",
/* pixels */
"*.:.*.J.F.L.L.yXyXdXSXsXpXsXpXNXNXBXMX;.+.+.@.i.cXzXi.H.fX-.vXVXH.uXdXdXdXdXaXW.L.*.:.#.R.&.! C C V * - - b B B B Y h Y &.Z &.G.",
"#.R.*.R.G.W.L.W.aXdXBXpXpXSXpXNXNXSXUXmX,.0 >.zXNXSXBXuXyXyXAXyXeXBXUXBXdXaXaXW.:.-.*.=.F.G.W B B h * * - V B Z Y Y B E %.T 2.I.",
"*.R.*.J.J.L.K.yXvXBXdXpXNXpXpXNXSXZXSXcXgX+.,.VXBXBXsXsXH.bXaXH.vXSXBXBXdXdXaXL.$.$.=.=.&.G.T B h , , - b C B B W Y Z W T ~ I.R.",
"*.R.=.J.J.L.L.W.AXAXNXiXNXpXpXNXSXSXSXcXlX;.i.pXUXNXdXaXH.vXH.K.CXJXBXMXvXaXyXK.$.F.=.F.F.1.~ C C b & o g V B W W T W &.T ! I.!.",
"*.R.F.J.J.L.yXgXcXSXpXpXSXi.SXNXSXSXpXNXhX;.tXCXSXBXMXuXuXaXiXdXBXUXMXAXAXaXW.L.F.$.=.F.G.&.Y E b h * & b m C W 1.T ! &.T &.R.!.",
"R.*.*.J.W.L.gXvXCXNXpXpXNXi.NXSXNXNXNXNXeXi.zXSXSXSXpXzXhXiXyXAXUXBXsXvXvXgXH.F.$.=.~ G.&.~ E E C M - * h h X.%.W ~ %.&.#.*.R.W.",
"R.*.=.K.L.L.K.vXCXCXpXpXpXiXNXNXSXNXxXuXiXiXiXSXSXpXxXpXmXH.dXBXAXAXVXvXyXW.L.F.=.F.=.&.! ! Q E M b f f b C W ! ~ &.%.=.#.F.W.W.",
"R.R.R.J.L.L.aXMXCXxXiXSXi.pXxXNXNXNXpXtX;.eXSXNXNXpXSXmXrXK.AXJXAXbXbXkXjX!.R.#.G.F.~ ~ Q ! E m m a a - b W %.1.T &.~ =.T R.W.gX",
"R.*.J.J.L.yXgXZXSXzXzXNXi.pXpXSXNXpXtXrX;.iXNXSXNXsXNXaX>.GXFXJXJXGX$ % # 2X4.1.I.&.G.! o.z.Y Y C h = & C W W 1.~ *.#.~ $.E.gXW.",
"I.=.E.J.-.yXmXMXCXcXcXpXi.NXCXpXpXtXtXrXi.hXCXSXpXBXsXK.K.FX# % $ 9 $ $ # < # 3.1.! ! Y T.Y Y m m f f h h C 1.%.&.&.*.#.:.W.W.yX",
"F.J.J.K.-.vXuXCXzXpXNXtXeXpXMXmXMXrXrX>.;.uXUXcXNXMXaXL.2X$ < # . $ $ % > 9 , * T.1.! T.V.~ Y m x = = - C X.4.%.*.2.=.+.E.W.vXW.",
"%.:.J.L.L.aXmXNXMXxXcXi.tXmXMXtXtX;.>.>.i.JXHXcXcXbXW.!.DX# FXGXFXGX2XQ.Q.4.* h g o.! ~ ~ ! m k m b & * V X.%.Z &.&.:.=.W.gXgXgX",
"#.=.-.L.rXuXCXMXNXpXxXeXhXtXvXuXuXrXrX;.hXHXGX8 . N R.Q.< 9 GXHXGXbXJ.E.I.I.1.h d a E ! ! Q E m b f = * h C %.%.2.*.*.*.jXjXfXyX",
"*.F.$.L.yXmXAXzXzXcXzX;.uXcXAXuXeX>.;.,.cXJXFX# Z h @ 4X, # HXJXgXgXK.L.J.*.1.Q.a d Y H ! E m M m f f - * N W T *.R.#.:.lXbXkXrX",
"R.R.J.-.hXMXMXzXzXcXzXeXuXtXhXuX>.;.>.>.kXFX$ +.W W c W V 9 HXgXhXK.L.K.J.#.I.U.g d B ! ~ Q E M b & - - * B W %.%.*.5.:.E.kXgXrX",
"F.J.K.K.eXZXxXpXzXzXrX;.vXmXuXyXfX>.i.rXJXHX$ < 4.o.U.1., $ bXxXlXK.-.-.$.$.I.I.g B Y G.Q ! m M b - V - * V N 2.2.*.#.E.jXlXjXfX",
"R.R.$.fXtXSXpXtXmXhX>.rXvXuXvXhXi.>.i.hXbXkX9 , N 4.B * < $ lXhXK.L.K.K.#.F.I.2., g o.! ~ H c E M V b 6 @ < C ! &.*.,.E.E.GXDX- ",
"J.R.>.i.cXcXpXsXuXgX;.hXaXaXyXrXi.>.;.tXMXAXGX@ < O > jXGXkXbXi.fXJ.$.R.F.=.2.Q.N , E E Q R H C b O V q < , N 1.2.:.=.jXjX2XB H ",
"R.R.K.fXlXcXpXtXmXeXH.gXvXvXgXlX5.>.rXmXmXvXhXGXE.jXW.JXvXkXyXfXE.E.F.F.F.I.3.Q.* h o.! Q H x O.h C h > * * C X %.*.*.F.W.Y R R ",
"&.J.>.fXcXcXpXmXvXH.rXgXvXgXgXE.i.>.,.zXBXpXmXkXW.K.AXgXbXvXE.K.$.:.F.R.=.Y.= h h & m ! c H m b V * N V h - d , 2.&.Q._.g.h.g.P ",
"%.#.-.tXcXtXcXcXuX;.eXvXvXhXfX>.5.>.i.cXpXMXNXrXtXvXaXaXhXgXfX:.K.:.R.2.* a g = = ..c E E k M V Z , Z h = d c c h 2.Y.F d.D.d.a.",
"2.5.-.fXcXtXlXtXyXH.yXuXvXfXjX!.@.5.i.cXMXxXMXzXeXvXyXAXvXjX>.$.R.=.R.* * - g X...X.o.Q Y B N C C N g g c U 3XQ c R G f. Xn.h.K ",
"5.5.-.hXtXi.zXtXrXH.aXyXvXK.K.:.9   DXDXVXVXcXrXhXVXbXyX# !.5.E.R.:.2.@ g 2X4.4.X.o.X.Q = = W C < h N d S j./.j.l A p.D. Xn.h.P ",
"2.R.:.fXlX;.hXkX-.H.yXAXvXgXE.2.# . DXFXHXVXkXE.W.jXnXT B < 2.3.2.2.Q.> < 1.4.4.M O.U.E d d a Y N g m L a.oXS.x.p.p.f.f.f.n.J L ",
"2XR.R.E.lXlXfXlX-.rXhXyXyXL.Q.> h + $ DXFX8 !.jXDX4XB F.T g I.3.3.3.3.O g U.1.o.& & X.= H V.U c d d S a.S.}.].`.x.s.x.f.p.k.K R ",
"* B N 8 Q.>.jX:.:.E.W.vXgXJ.3.* 5 b   KX9 N O 4X= k ~ Q U.d & , X O g - p ! ! s s = ..s z l.k.B.D L h.d.{.].|.`.c.s.c.x.s.d.a.k.",
"c Q.Z > 2X2XGX!.5.jXgXgXW.2.# o v ; 4 & N C a p s U C.l Q k g 1.X a d E H P G l p & Q z L m.S.c.d.s.x.XX].|.`.`.`.|.[.M.h.v.h.a.",
"_.T.g * 5XQ.X < , @ nX!.Q.O X { v f : : E E c p Q Y.j.l Q z c Y.3X& I j./.A.S.A.g.P H L J n. X XM.b.b.].|.|.}.|.|.'.b.{.b.h.v.v.",
"Y.c d & X & B 1., O 2X2X2X* 5 [ v : v = I o.Q j Z.Z.G A B.U z V.3XV.p j.k.n.N.{.^.$Xl.P a.x.].XX].XX|.b.*X*X*X}.{.].x.d.s.s.n.oX",
"z.P j s c ! U.B & * 2X2Xo ; v ] v : = j S B.Q S V.Y.H U Y.Q l P a.k.j l f.M.b.{.+X8X@X$Xh.x.x.].OX+X=XXXqX0XqX[.s.d.d.v.h.b.oX0X",
"z.A D R l.).~ k a wX  * + ( _ _ 3 5 v n U g.j.D Q s s s s j C.a.K l J a.J s.N.{.*X7X0XqXoXN.b.b.+X9XLXPX8XPX7Xd.h.v.v.d.d. X$X8X",
"K j.C.~.~.z.H p = = o b 5 _ n n 2 5 f I D P D G H s k Q B.U f.d.a.p.A.x.h.x.v.].{.*X7X#XqX%XP.XX#XPXPX%X0X0X+XoXa.K a.d.f.h.a.A.",
"F P.).~.&XR P l z I k f & ; + v 2 3 s O.C.^.l.P.).(.Y.s B.a.D.n.S.M.'..Xc.|..Xc.].b.XX#X%XPX9X%X#X9X9X$XqXOX}.OXb.v.p.a.J a.J k.",
"h.&X%X&X~.z.z.G.Y.U.V.X...b 6 X 2 / x j L z.~.&X6X4X4Xx s K f.S.{.[.'.`.}.}.}.*X|.*XXXoX%X9X%X=X%XPX%X+X*XOX[.}.|.{.v.k.j.L P /.",
"(.9X9X&X^.(.).6X3XQ S m f & o o / /  .j l H z.Y.wXIXIX4XwXS G g.n.x.'.`.`.|.*X*X=X=X=XLX9XPX%X6X9XLX%XXX Xc.'.'.].b.v.~.g.H R z.",
"l.(.&X&X).(.6X4XY.c M f o + + 5 | | n n k j H R ! G.4X6X4XL L A a.c.M.`.`.}.*X*X=X=XLXLXPXPX%X9X0XLX=XXXc.c.c.'.b.M.K j.Q H Y Y ",
"R l.P.).P.~.l.z.G = p o + 1 ( ] ] | p s p c c I Q I z j Q Q z G f.n.c.[.}.}.{.#X$X%X#X=XLXqX#X+X=X0X+X{.v.s.x.n.m.a.A H d = z c ",
"G A R l.g.a.D L c p = f { { _ ( : v p M Q U.Z.& = p z z R S S S f.x.b.[.|.].oXoX%XN.P.*X=X#XN.M.+X+X XN.d.p.J a.k.P d h a - p Q ",
"S A j.A.j.P D R z h & + ; { ( 4 = M k V.3XY.wXj f x z H H j l C.k.m.v.x.N.^.=X@XoXb. XOX*XOXx.x.].oXM.m.p.K U G H h - h - b p Q ",
"x I I /.D.z.U s m { { 6 1 + 5 v f n I I z.C.3X3X4XIXwX4X3Xl Q B.g.f.a.v.+X8X0XoXv.[.OX*XOXM.s.J d.v.S.f.A F Q x g , < @ 6 ( f I ",
"p = x I Z.Y.x s a & ( 5 1 2 3 v v s l l F D G ~.wXwXwX3XZ.s H U l l F h.PXLX#Xb.x.].*X.X XM.K J J h.z.U s x O.O.M * O @ + ; & f ",
"v : f x I I I f o : + 2 ( + f v  .} ) n j S Q l.&X(.j l s j s s s l g.P.8X9XXXx.s.c.}.}.[.k.F z j H Q s d b v b : X @ 1 1 7 & f ",
"5 + : = f m M f @ v 5 + 2 / v ) 0. .;X .n I Y.).A J p.J l A U U A B.).@XoXoXM.s.p.c.}. Xn.K s M s x E - o + ; + o 5 ^ e r ( ; X ",
"5 5 X : & f { ; ; + | t.] / | )  .0.|  .b = s P m.m.M.M.n.D.D.C.A B.(.@X^.N.f.d.p.p.M. Xn.D k ..= n f : X 1 4 ^ ) ' ' 9.7.t + & ",
"( ] ; + ; & ; ; + 2 _ ] } ) ) |  .1X| : v E Q l.v.N.{.].{.b.oXh.a.D.).A.m.d.K a.a.J a.m.g.A k ..M f = : @ e 7.] 8.' 6.r.7.` [ | ",
"_ _ _ v 2 2 1 + + ; ] ] v  .) q.-Xq.q.M b c z H a.d.c.].].OXoXN.j././.g.f.p.a.k.j.A G j.U j k M _ v ; + ] t.7.y.} 8.r.6.6.6.r.q.",
"v | ) v ( 3 ( e 3 ; / v ) v  .|  .q.y. .= p p l J n. X*X*X8XP.oXg.z.~.P J J a.f.a.G S U l x M C _ 2 v _ 9.r.} 8.8.' r.8.e.r.;X:X",
"f ) | ] ( 4 ( ( [ 5 2 v v t.y.} } q. .) & = j S f.3X8X0X0X7X+Xl.G z H l l p.D.k.a.H z s s x c : & + / y.8.} 0.8.w.0.:Xr.w.w.-X-X",
"f } } ) / / 3 ] / + 1 [ 4 [ ( ) v )  .x p j K Z.(.wX0X0X9X@X^.~.j = s l K n.S.a.J G H c d V b o 5 ` t.y.r.8.r.0.:Xe.<X,Xw.,Xw.-X",
"n v } } 9.] 3 v _ ( r 4 r 1 : : / | O.n I l B.@X8X0X0X6XP.^.(.P.s s p B.k.D.M.s.A z H I d - o + ` ` 7.9.8.} 0.8.;Xe.-X0.-X,X-X-X",
"_ ) | | ] v 3 ) ) y.t.t.[ 4 v _ 9.| v j F A C.3X6X&X^.l.h.oX#Xm.A S R P k.D.m.f.A S I c c : X 1 4 ^ ^ ^ ` ` 8.w.e.:Xw.0.-X,X,X-X",
"( ; / ] t.t.v v ] q.t.t.5 + ( _ / 5 v n p B.Z.A.~.m.g.g.h.(.$Xh.g.A.g.P a.n.C.J j z I I n v 2 r ^ 7.' ` 8.8.w.>X:X:Xw.-Xw.-X,X,X",
"( o @ 1 1 ( v v } | | 9.2 2 o & 3 v | n p V.o.P S P P h.D.^.m.d.a.P.L P P j.z.G j c M  . .3 ^ 7.r.u.7.` 8.0.w.:X,Xw.w.>X,X-X-Xw.",
"( + 1 @   + o &  .q.q.3 + X X ; { | O.: M E I j j R g.A.D.C.K K d.h.P z z k c k s x M n v v 8.u.u.<X9.` 6.r.-X-X-X-Xw.>X>Xw.8.w.",
"5 + 6 7 7 7 + ;  .q.| 5 4 6 ; & v ( v & n f p p s R z.Z.j.F l U g.z.a & - h m p = b v ; 5 ' e.<X:X:X9.` ' r.:X,X-X-X,X:X:X8.8.r.",
"6 X 7 q w q 7 3 q.} } v + b ( o : b : : X E p p k H Q B.l s s k Q U g O * b - a : * ; 2 ] 1X;X>X>X;X' e ` r.<X-X,X-X>Xe.0.' 9.9.",
": O q w i w q 5 ) t.| 3 + 6 5 5 X X = M I I c ..c c m = = & a h M h O 6   * & & : o 2 t 9.} 0.-X,X,X' / 7.u.:X>X-X,X:X8.` ` ^ ` ",
"O q 8 w w u q @ : | _ X X b : 7 @   b f x n c p = h f p & o * V h 6 @ < - * a o X 2 ( [ ' 8.-X>X>X-X' ` ` y.<Xr.w.e.8.' ` r r 4 ",
"$ Z w y y i q q @ v 6 6 X q 6 6 @ q b I M n p h = & & = C * @ > V * X { E d = & = 2 4 ^ ' 0.-X,X-X,X' ` ` u.u.<X:X8.[ e r t 4 r ",
"Z w <.y w u <.w 6 6 + O   O O O @ C b b = p m M d p p m ..b @ O O X * m M I p a ( 5 / 9.;X>X:X:X<X;X' e 8.u.u.r.6.` r r e ^ ^ t ",
"<.5.5.i y 8 . . 7 7 . . % @ % O < < & & b ..M h p d x I n m -   * X a c S j s M + 4 ' r.;X;X:X:Xe.8.' ^ 6.7.u.6.r 4 4 ` 7.7.6.^ ",
"@.@.5.<.u 8 w y q .   DXDXFX2X< 9 h - - = h M h h k S l U ..C & & c M x k s d : + r ' 8.;X-X;Xw.8.9.` ^ t 7.r 1 r 1 ` 9.u.<Xr.8.",
"u @.@.5.@.Z w w w 8 . DXDXDXDX8 $ 6 & = m = = = d s j I F I H x d I d I c d f v 1 t } 0.;X;Xw.' 6.6.[ r r 1 4 t r t [ r.e.0.e.e.",
"u u u u u Z w <.w $ 0 y DXDXjX8 $ > X a n 5XW g = s x l U l l S E m k p d p - 5 1 ^ 7.q.-X} 8.6.` ` r r 4 4 1 4 r [ r.9.8.8.e.e."
};
