/* XPM */
static char *result[] = {
/* columns rows colors chars-per-pixel */
"64 64 254 2 ",
"   c #061B06",
".  c #0D1D03",
"X  c #0D1808",
"o  c #241B02",
"O  c #062707",
"+  c #0D2304",
"@  c #0D2B04",
"#  c #0D2C0C",
"$  c #122504",
"%  c #122C04",
"&  c #1A2B07",
"*  c #0C3402",
"=  c #073807",
"-  c #0C3C02",
";  c #0C340B",
":  c #133405",
">  c #1A3505",
",  c #153A05",
"<  c #1A3B06",
"1  c #133409",
"2  c #1A340A",
"3  c #153C09",
"4  c #1B3C09",
"5  c #032D14",
"6  c #082815",
"7  c #022C1B",
"8  c #122C10",
"9  c #083515",
"0  c #02351B",
"q  c #023B1C",
"w  c #143814",
"e  c #272804",
"r  c #342A04",
"t  c #273706",
"y  c #383606",
"u  c #293F12",
"i  c #033424",
"p  c #043B24",
"a  c #023629",
"s  c #023D2A",
"d  c #453A07",
"f  c #57390A",
"g  c #643D0D",
"h  c #0C4402",
"j  c #084505",
"k  c #0B4C01",
"l  c #134303",
"z  c #1A4306",
"x  c #134C02",
"c  c #194B04",
"v  c #15430A",
"b  c #1B440A",
"n  c #154B0B",
"m  c #1B4C0B",
"M  c #0B5300",
"N  c #0A5607",
"B  c #0C5B00",
"V  c #135401",
"C  c #145B01",
"Z  c #175A06",
"A  c #15530C",
"S  c #1B540D",
"D  c #1A5B0E",
"F  c #07441A",
"G  c #1A4B11",
"H  c #0C5D17",
"J  c #1B5411",
"K  c #155C15",
"L  c #1C5B11",
"P  c #224509",
"I  c #234A0A",
"U  c #294808",
"Y  c #374608",
"T  c #26570A",
"R  c #22540C",
"E  c #355408",
"W  c #224D12",
"Q  c #274915",
"!  c #374A14",
"~  c #235312",
"^  c #245B12",
"/  c #2A5817",
"(  c #345817",
")  c #0B6301",
"_  c #096504",
"`  c #0C6C01",
"'  c #146402",
"]  c #146B01",
"[  c #196806",
"{  c #1B620E",
"}  c #0C7700",
"|  c #167606",
" . c #1C7402",
".. c #137D01",
"X. c #1B7B01",
"o. c #096012",
"O. c #1D6412",
"+. c #136D12",
"@. c #1D6A12",
"#. c #1E7413",
"$. c #2F6A0E",
"%. c #257708",
"&. c #226514",
"*. c #236C15",
"=. c #256B1A",
"-. c #2A691B",
";. c #227316",
":. c #257A17",
">. c #247419",
",. c #2A721D",
"<. c #257C19",
"1. c #034422",
"2. c #044A24",
"3. c #03422D",
"4. c #064A28",
"5. c #05572A",
"6. c #034B34",
"7. c #03553A",
"8. c #254928",
"9. c #0B6928",
"0. c #066734",
"q. c #07753A",
"w. c #2B6923",
"e. c #2C7621",
"r. c #367629",
"t. c #38752F",
"y. c #494708",
"u. c #554909",
"i. c #46510E",
"p. c #59540A",
"a. c #64570B",
"s. c #6F4E12",
"d. c #506B0B",
"f. c #68650B",
"g. c #6F6F12",
"h. c #4D5827",
"j. c #6B562C",
"k. c #4B6C2E",
"l. c #6B6D37",
"z. c #75743D",
"x. c #045C41",
"c. c #066846",
"v. c #08754A",
"b. c #077953",
"n. c #347540",
"m. c #875513",
"M. c #8A5613",
"N. c #867C10",
"B. c #897339",
"V. c #877B46",
"C. c #0D8400",
"Z. c #0C8B00",
"A. c #148302",
"S. c #1B8302",
"D. c #138D01",
"F. c #1B8B01",
"G. c #19870B",
"H. c #0E9600",
"J. c #149500",
"K. c #139D00",
"L. c #1B9903",
"P. c #1E8910",
"I. c #248907",
"U. c #259607",
"Y. c #2A9017",
"T. c #389919",
"R. c #0EAA00",
"E. c #13A401",
"W. c #1AA301",
"Q. c #18A904",
"!. c #18B902",
"~. c #24A509",
"^. c #27B50C",
"/. c #2CAA12",
"(. c #37A714",
"). c #2AB916",
"_. c #37B919",
"`. c #38862C",
"'. c #38932C",
"]. c #2D8331",
"[. c #3A8B34",
"{. c #3C9433",
"}. c #3C9934",
"|. c #3CAE33",
" X c #519A1A",
".X c #55872E",
"XX c #448739",
"oX c #44933C",
"OX c #459A3B",
"+X c #698838",
"@X c #4AB12D",
"#X c #45A539",
"$X c #57B835",
"%X c #18C702",
"&X c #1BD503",
"*X c #24C70A",
"=X c #26D40D",
"-X c #2BC714",
";X c #38C919",
":X c #2CD713",
">X c #38D919",
",X c #37E219",
"<X c #3BD025",
"1X c #3BE122",
"2X c #41D61E",
"3X c #47C826",
"4X c #53C82F",
"5X c #49D926",
"6X c #53D82E",
"7X c #5ADA33",
"8X c #62CB37",
"9X c #64D939",
"0X c #56E431",
"qX c #64E53B",
"wX c #0B8849",
"eX c #0A865C",
"rX c #388841",
"tX c #0A8B61",
"yX c #0A9467",
"uX c #488745",
"iX c #4B8C42",
"pX c #538649",
"aX c #4B9444",
"sX c #4B9A44",
"dX c #53994A",
"fX c #599B52",
"gX c #6F8F46",
"hX c #54A54C",
"jX c #52AF4A",
"kX c #5CA757",
"lX c #63AC5D",
"zX c #68B15B",
"xX c #6DB365",
"cX c #6BB665",
"vX c #59C442",
"bX c #6ED54B",
"nX c #6BE641",
"mX c #78E84B",
"MX c #6CE35B",
"NX c #7FE851",
"BX c #8F9F32",
"VX c #8B8549",
"CX c #9B8E53",
"ZX c #A8A057",
"AX c #BAA965",
"SX c #CEB871",
"DX c #89E958",
"FX c #90EB5E",
"GX c #8CCF74",
"HX c #8AD477",
"JX c #94D77D",
"KX c #9DE86B",
"LX c #98CB82",
"PX c #A7E886",
/* pixels */
"CXGXbXsXoXT.`.XXVX+X$.,.=.^ ^ S S - B.l.h J S v b n l.h.* - 3 m s.m.U A n ; # 1 8 : , : % % $ # % + # , z v b P I E ( ( 4 z < } ",
"j.zXbXjXOX'.`.`.ZXgX*.r.=.&.{ T S - gXz.n J J b n A l.h.* , v b s.m.P K n 1 ; 1 1 1 : % % $ $ @ @ $ % 1 z b z I U W ( ( t , l ] ",
"Y.r.OX'.,.'.XX`.V.gX>.,.=.&.^ R S , VXk.n L S v G N CXgXO 3 j t m.m.y N n 1 ; 8 1 & : % % $ $ % # $ % 3 < b I I U T ( / < z < V ",
"h.( -.&.m S e.k.CXz.<.-.$.-.{ S m h l.h.n L S m n A VXl.@ 3 - y m.s.t A A - ; 1 1 1 1 1 $ $ $ # @ @ % 1 < l I I U / ( ! < z b C ",
"AXZXAXCXVXB.j.z.V.l.-.*.=.&.^ T m l z.h.A L J n G A VXl.O ; 3 f M.s.b A n h ; 1 ; 1 % 1 8 $ $ @ % + % 1 4 b I I I ( ( / < z b < ",
"SXSXSXSXSXSXSXZXCXV.z.h.^ ^ ^ ~ R - z.k.m ^ L J A A VX! = - & g M.g G A n j ; 1 1 1 1 : % $ . + + + % 1 4 3 P I U ( ( ! < P m 5.",
"B.+X+X.X.Xk.+XgX+Xz.l.k.-.=.^ S l c l.h.N &.L G J A z.h.* 3 & g s.d G n n h - 1 8 & : 1 % . . + . . # 1 1 b I P U ( ( U 4 3 F 5.",
"p.&. X,.e.;.<.<.,.,.=.&./ / ( ( ! h.VXh.m &.L J n n z.h.h ; c %.y.! n n n h - 1 1 & : 1 $ $ . + + . @ 1 1 b I P U $.( Q < b c w ",
"i.-.@Xb u i.y.u y h.l.V.CXSXSXAXSXCXB.V.y D K Q c [ j.$.W.V !.L.y I C v v h - % 1 & 8 : % . . + + . @ # : b I P I T ( I < z z 1.",
"pXk.R =.I ! s.s.m.m.m.m.j.B.j.j.V.h.d.CXl.C.%Xd.%.!.U.&X%XW.L.%.I A.E.[ F.C h Z : * C C % . $ + + + % 1 ; 3 I P U E ( Q < z ; ; ",
"pXLXfX-.m 3 Q ! y.a.s.m.M.f f s.s.j.' ^./.K.-XqX(.*X>X5X:X%XL.W.).:X%X%X%XK.Q.X.C.)._.k @ + + $ + . + % % 3 P P P T ( Q 3 z b R ",
"n.LXJXjX{.w.w.8.3 -.r.! u y m.M.s.u.E S.%X:X5X5XqX7XDXmX(.D._.bXmXnX5XqX5X&X>X;X0XmX8X(.~.A.l . X + % @ 1 3 P P P T / I < 4 c m ",
"pXLXLXkX#X'.w.Q G w.`.e.1 -.( ! 2 c ' F.!.=X0XNXDXDX6X=X%XF.U.6X0XqXDXDXKX2XqXFXDXFXFXqX_.%.C ] ] c @ + : 3 b b I R / W 4 z b m ",
"pXLXJXjX#X`.b w b ~ [.^ 4 e.O.{ [ x x ) (.bX-X5X;X1X*XK.Q.%.[ _.>XqX:X!.5X6X^.6XqX3X-X!.X.S.U.,XU. .X.C * @ b b b R T ~ 3 b z S ",
"pXJXJXkXOX}.-.J w r.{./ 3 ,.S V K.!.W.*.6X_.Q.,X] H...] z : [ R.U.:X!.!.!.^.' ~.:XW.S.Q.U.!.U.@X^.5X7XU.#.Z c l m R ^ R b z z R ",
"k.LXJXkXoX}.sX/ 1 oX[./ v ,.&.' 3XqX-XT.L...F.K.x x * 9 5 5 x I T Q. .W.] S.& , W.S.X.X.T.qX*X2X7X7X4X%X;X%.k 3 z R R ^ b z z m ",
"pXLXPXkX#X}.sXdXw [.[.-.b e.' _.bX8XT.- A.W.C V H 9 4.x.x.3.6 8 : , $ V $ % , * , x ` !.Q.7X*X6X4X6X9X| B ) ` N m S ~ ^ W b z S ",
"fXLXJXlXsX{.aXhXw w.XX^ / ^ C [ S./.U.X.!...B h 6 x.v.b.v.v.b.6.+ t > . z $ x ..C B ` A...~.U.D.E.} Q.| } ).!.] l z R $.W b b c ",
"pXLXPXlXsXoXoXkXk.3 -.~ e.w.L S A.' S.Z ' M ) 0 7.7.c.eXb.tXyXc._ X.[ c ] J.D.E.E.R.K.C j C h k _ - k _ } 3X^.H.C c ^ ^ W b z n ",
"pXLXLXcXhXoXOXhXhXw.3 ,.e.J N h * @ l % % ; p b.tX6.eXeXtXb.tXx.N E.L.W.E.Q.E.E.C.H.C.M - k k h @ C ' X. X3XW.A.' , m &.~ b v c ",
"pXLXJXzXhXoXoXhXhXXX`.r.-.K M k ` = + B h 5 7.yXb.6.tXtXb.b.yXs _ } A.K.H.D.C C.` } C.B = - ) } } V ` <XbX_.K.J.V z 3 ^ ~ G 3 v ",
"dXGXGXlXfXaXoXdXsXXXr.`.e.e.A k ) ) B B h p eXyXx.c.eX7.i 3.x.6 = ; } B - ` - h k M ` * = h x M C.H.Z.!._.Q.K.] h m ^ ^ / Q b v ",
"pXGXJXcXkXaXaXdXhXXXt.r.w.*.n - h B = = 5 7.b.c.3.s a s c.a 7 7.s * ` k B @ * ) ..} C.B B B M M H.E.E.E.E.E...` @ < S ^ ~ W G n ",
"n.GXHXcXkXaXaXdXhXXXt.r.e.>.^ J j = v n p 6.3.i s 6 i c.v.v.v.x.i % * ` H.' k ] D._ h B B _ M B } B } ` D.Z.B * * S S R / W m v ",
"pXxXGXcXlXdXrXaXdXXXt.t.,.-.L S h v @.J q F F 9 s w F 7 c.0.b.7.6 X = Z.k B } ) - h '  .B } = - x h * * ) h B x z S S R ^ W I v ",
"pXcXGXcXlXfXaXdXdXXX`.t.,.=.D m n A O.O.-.=.,.F q D D v 7.c.v.p y e j B = B * B V C P T M ) j ) B O O * = @ * c z S R S ~ ~ G b ",
"oXzXHXcXlXfXaXaXdXXXt.t.,.=.J A n J @.=.=.=.=.L S O.&.S p v.x.t a.f.l h B B x * , I , $ * B B ) h * = @ = , E BXg.U I R ~ ~ W b ",
"rXzXHXcXlXfXaXuXdXXXXXt.w.@.J m n L @.=.=.,.,.&.m { D m 2 3.9 r u.f.E d.$.U d.i.: 1 > % : M = = j * @ % , < BXZX+Xf.c T R ~ ~ b ",
"rXkXHXcXlXhXaXuXdXXXt.t.,.&.S m n L @.=.=.e.n ; * 3 A t u.2 y p.y.f.d.d.y.f y a.y.> , > * O . O = O @ : : U BXf.y.f.I S S ~ ~ b ",
"rXkXMXcXlXkXaXuXpXiX[.r.-.&.D A S O.=.=.S L S O.D D n m r u.g.N.u.p.y Y e y & & t & : ,   O = k q 6 @ : : U g.g.f.y.I R R m W I ",
"].cXHXcXlXfXrXuXdXiXXXr.,.&.D S A D ;.J C Z m =.D L z y.r u.p.u.d & : & , & % % . , 1 < @ 3.9 o.i   @ 1 , P y.f.i.i.d.U m m J W ",
"rXjXHXcXcXkXdXuXiXXXk.t.-.=.S D A @.>.=.G &.=.*.O.n < a.r r % t e k ] , : : & $ % & > : 6 j V 9 a X @ 1 l z I t t P p.g.E m m W ",
"].cXHXcXcXfXdXXXXXoXk.r.,.&.J A D { *.,.,.,.,.*.v h E y.o r t } h Q.L.> l ..:  .C c  .k F._.V @ N n O % j j 3 v G b % y f.i.` b ",
"n.xXMXcXlXkXdXaXiXoXoXr.,.*.L D D 9 K =.=.@.S &., S t Y c u.I.%XA.W.I.' D.%X!.%XL.!.F.!.0X8X@X;XL.C N M F } Z.j 3 2 x _ t i.D.) ",
"n.LXHX[.L fXoXk.iXaXt.*.' G A D n 0 F x Z S.C x ' A.l I !.J.%X=X%XU.L.-X0X:X=X5X=X=XnXqXFXFXmX_.I.] [ !.C.G.*XQ.A.[ _ E.J.l I.Q.",
"{ fXiXS.X.:. .T [.-.%._.x ' V ; F 2.9 |  .[  .%.] %X6X(.!.1X7X7XQ.W.4XmXmXnXDXKXmX>XmXDXmX4X*XE.F.G.N ~.:X).-XE.!.=X).G.] [ I.Q.",
"F.T...I.~.~.I.(.U.C I.$.(.(.V N F 0 N U.Y.[ F.W.Q.^.2XqX6XqXDX2XJ.F.(.6X6XmX2X=XqX;X~.5X,XJ.F.K.@.G.!.<XqX1X/.K.W.=X-XA.' ' } D.",
")./.S.' (.4X8X8X/.I.k I.8X$X X[ = 1.2.[ $X$X%.W.&X1X0XDXmXmX;X%X%X%.%.>X>X5X!.!.!.~.l X.!.I. .A.T.$X+.&X&X).K.P.).Y.[  .U.%X..F.",
"4X_.U.' U.4X$X/.(.U.X. .U.~.@.= 2.F H I.z [ [ J.%X3X2X9X3X1XQ.S. .> ] E.I.%XL.!.] ..% $ B C ' !.K.U.-X-X|.1X-XQ.-X/.Y.A.%XJ.c %.",
"(.] [ U.~.@XU.F.%.= 9 9 o.F.j 9 9 1.H I.$XT.C _  XnX^.,XA.D.} N @ O k c t S., ' , $ , V , l B | E.).Y.P.-X:X9.G.C.#.' [  .J.!.E.",
"U.I.j U.] %.' K = O 5 q 7 j = 1.2.0.0.C W.Z.C.#.3X^.F.%XC x ; 0 6.3.8 8 : $ > . : z , A.E.K.C.` 1X1XL.#.L.~.|.).).P.{ 5.+.%X!.%X",
" .%.= j 9 = = 5 5 F F q 5.0 5 1.5.v.9.h A.>X,XT.F.A.X.] N j 6.c.c.c.b.b.6 V I c > J.K.E.H.H.Z.G.~.P.#.@.#.Y.Y.).).9.wXwX#.J.A.%X",
"j F 9 6 q p 0 F 5.q.0.2.5.5.2.0 2.5.5.j 3XDX4XC V !.] x j 3.c.c.eXb.eXyX7.A.S.J.J.E.E.J.H.` C _ N P.A n H +.A P.+.5.q.tXK c ..L.",
"5 0 F q 1.5.5.q.5.q.wX0.2.5.2.q.0 2.5.G.(.T._.S.F.W.B _ 7 6.7.b.eXeXeXeX6._ J.K.E.J.A.l B M B } - K k N = { G.' +.G 7.q.F 9.K Z ",
"5.F 9.5.q 1.q 5.4.wX5.5.8 . 5.0.O F F x V W.X.F.c V k F b.tX7.eXeXeXb.yXs k x } ] - B - h ] ] } _ M B j - A.+.v N q 0 q q.0.F 0.",
"F 0.wXq.q.2.6 8 F 6.w q & y F 5.* ; j M x h % x @ * O 6.tXb.6.yXeX6.3.c.q 0 # ` M B - * M J.C.h B k - = % ; ; - j = O 0.2.0 wXq.",
"2.0.v.q.0.0.q 8 8 U g.! y.r & 5 + : k M j k h . B k 5 c.tXb.6.b.3.3.3.7 6.x.6 - h H...) ] x M h %.' * O @ h j * ; x F 4.; 5 q.w ",
"q.q.q.0.2.0.3.Q j.g.a.s.u.d r & { : * B j ` ) M B j 0 b.b.7.s 7 3.b.v.c.v.s . X B } k B ) M V c t l O   - n @ @ ; ; 5 # * ; 9 O ",
"5.2.0.5.2.0.5.h.a.p.s.a.d d e & @.S S h - j M M = @ p c.6.p i 6 6.4.c.c.b.p $ X M k M M * h x I : + O * * O * @ @ + @ O % % + + ",
"F 2.1.p 5 5 ! a.a.a.u.u.a.a.r u @.<.;.n t e h , % O s i 7 i s # 9 8 c.c.c.8 u.u.h - B B E U : * : % * -     O # @ % >   : 3 4 4 ",
"0.5.5 5.q 6 t d y.a.u.u.d y r u @.%.:.>.e d t e r & 9 3 : 0 7 , < m 1.v.c.t a.g.T $.d.Y p.f.i.t * 3 O   ; h w i : < < > > b 3 b ",
"O F 5 0 1.].! f u.u.u.u.u.r r e A ;.>.;.#.Y r r & e v 3 , 1 1 , v S 4 s p e y.a.d.d.E d y e y t % : @ ; 4.n 5.X # 4 4 P 4 3 4 4 ",
"8.  e.9.# w.! d y s.d d d y.r e o R :.:.Y.e J 2 G v v 3 1 1 ; , m > y.! & a.p.a.p.Y t t t 1 : 1 , : , 6 i 6 i i & z 4 b 4 4 4 4 ",
"LX  |.|.}.e.e y r y o r f r e & I ^ #.:.>.=.>.O.J b 3 3 3 1 3 3 n v t y a.N.a.y t t > l > , , , , , 3 6 8 4.6 s p 4 P P b 4 > < ",
"PX#X@X}.}.].=.r.r e e o r e d & #.#.>.>.>.:.>.O.L v v 3 1 : 3 v m V y r a.d u.e : , z c b > > , , : z v 6 p p 7 p w P I P b 4 > ",
"PXvX|.|.'.'.'.e.8.! d o r > I t @.;.;.:.<.>.;.O.J v v 3 1 1 3 n v y p.r r $ > > , , m v v > , , , : , 3 i 6 6 6 # b b I I P < 1 ",
"PXvX|.|.{.'.'.}.oX/ o o e { +.#.;.*.:.:.<.>.=.@.J v v , : 1 3 n n I u.e e t l , < < n c b , : , , 3 < ; 8   6 6 # b P I I I 4 4 ",
"PXvX|.|.{.'.'.}.{.w.^ & J { L #.@.*.#.:.<.>.@.=.L n 3 3 3 1 v m A S p.y u.t h z 3 < c m b , : , , , 3 b G 7 6 7 i w I I R I 4 4 ",
"/ jX|.|.}.}.'.}.[.[.e.O.{ { O.#.@.@.#.>.<.>.#.O.L n , 3 - 3 j m A U u.e d < v , , , c c z , , , , , 3 b 9 a i p p 9 G T T R P 4 ",
"* D |.|.}.}.}.}.aX`.e.#.+.D O.#.@.O.;.>.P.,.>.O.J n v 3 1 1 v n A t t c 4 z v v , , n m z , , , , 3 3 b 9 5 s 7 7 3 I R T I P 4 ",
"t.vX@X@XOX}.}.}.oX`.<.#.@.{ { @.@.L @.:.<.:.=.*.L G v 3 1 3 n m A v n A A v v l , , m m z > : , , , 3 b b b 7 9 G b T / T W U 4 ",
"3 jX<XjX#XOX}.sXOX`.].>.@.{ @.@.@.O.*.;.:.>.;.&.L A 3 3 - v v A A D J A n v l v 3 < z c l , , 1 : 1 3 b 3 3 6 3 S T R ^ T T b t ",
"O G vXjXsX#XOXOXoX'.].;.@.{ { @.@.L @.=.>.#.>.@.K G v 3 : n v A D D A A n v v v 3 , z m v < z - : 1 3 b 3 1 3 v G R ~ T T T P z ",
"t.sXvX|.jXsX#XOXOX[.e.:.@.{ { { O.L @.@.>.>.=.O.A n v 3 3 v m A D A J A n j v 3 : : z c v z , : : : 4 3 3 3 v b m S R &.T T P 4 "
};
