/* XPM */
static char *result[] = {
/* columns rows colors chars-per-pixel */
"64 64 254 2 ",
"   c #0B0D01",
".  c #060B01",
"X  c #120D01",
"o  c #0D1202",
"O  c #031D01",
"+  c #0C1C03",
"@  c #0A1306",
"#  c #131303",
"$  c #1B1402",
"%  c #141B04",
"&  c #1B1C04",
"*  c #13150B",
"=  c #151B0A",
"-  c #1A1D0B",
";  c #1A160B",
":  c #191A11",
">  c #221D02",
",  c #221A06",
"<  c #201C11",
"1  c #022303",
"2  c #0C2304",
"3  c #002A05",
"4  c #032D0A",
"5  c #0C2A0B",
"6  c #0C2808",
"7  c #142203",
"8  c #1C2304",
"9  c #14250C",
"0  c #1D230B",
"q  c #152B0C",
"w  c #1B2C0C",
"e  c #1B2A04",
"r  c #01340C",
"t  c #08380A",
"y  c #14330C",
"u  c #1B340E",
"i  c #163A0E",
"p  c #1C3A0E",
"a  c #1D2311",
"s  c #1B2C11",
"d  c #152B11",
"f  c #053C14",
"g  c #1C3412",
"h  c #1C3C12",
"j  c #173612",
"k  c #232302",
"l  c #2B2401",
"z  c #2C2C01",
"x  c #22250C",
"c  c #242B0C",
"v  c #2A2D0E",
"b  c #222D06",
"n  c #342B02",
"m  c #352B05",
"M  c #24330D",
"N  c #2A320E",
"B  c #22390E",
"V  c #293508",
"C  c #3C3303",
"Z  c #37350B",
"A  c #242512",
"S  c #242C12",
"D  c #2A2D12",
"F  c #292714",
"G  c #243312",
"H  c #2B3213",
"J  c #233C14",
"K  c #2A3C13",
"L  c #2C3419",
"P  c #243B19",
"I  c #2B3B1A",
"U  c #243218",
"Y  c #313414",
"T  c #333B14",
"R  c #373A18",
"E  c #312F16",
"W  c #323720",
"Q  c #413401",
"!  c #473A08",
"~  c #433B13",
"^  c #074901",
"/  c #174606",
"(  c #085509",
")  c #185609",
"_  c #074619",
"`  c #1E4114",
"'  c #1A4619",
"]  c #1A5814",
"[  c #0A5B17",
"{  c #24570B",
"}  c #244215",
"|  c #2A4315",
" . c #254915",
".. c #254419",
"X. c #2A441A",
"o. c #2B4B1C",
"O. c #274918",
"+. c #36451A",
"@. c #2A5813",
"#. c #30530E",
"$. c #08660C",
"%. c #076717",
"&. c #176618",
"*. c #09771B",
"=. c #167518",
"-. c #1A6606",
";. c #25660C",
":. c #337217",
">. c #0C5423",
",. c #0D5C28",
"<. c #14582A",
"1. c #125529",
"2. c #096828",
"3. c #166629",
"4. c #0A7A24",
"5. c #167828",
"6. c #166A36",
"7. c #0E7938",
"8. c #137C3D",
"9. c #167538",
"0. c #0E6833",
"q. c #296224",
"w. c #4A450B",
"e. c #55450C",
"r. c #494817",
"t. c #5A4C13",
"y. c #5B541D",
"u. c #53560E",
"i. c #635A17",
"p. c #604F17",
"a. c #446919",
"s. c #516E15",
"d. c #66671A",
"f. c #76751A",
"g. c #6F6E15",
"h. c #585724",
"j. c #4A5528",
"k. c #516C28",
"l. c #686827",
"z. c #787826",
"x. c #717031",
"c. c #6D5C22",
"v. c #177C41",
"b. c #0E7F41",
"n. c #6F7844",
"m. c #847D1D",
"M. c #82782A",
"N. c #0B872A",
"B. c #15872C",
"V. c #06863C",
"C. c #0C843E",
"Z. c #0A8A3E",
"A. c #098B37",
"S. c #158737",
"D. c #0C9737",
"F. c #159639",
"G. c #04922D",
"H. c #2A8833",
"J. c #0DA23C",
"K. c #558929",
"L. c #67882B",
"P. c #7A8628",
"I. c #7B8537",
"U. c #799839",
"Y. c #668F35",
"T. c #7BA23D",
"R. c #45811D",
"E. c #0D8541",
"W. c #0C8B42",
"Q. c #088C42",
"!. c #128442",
"~. c #128C44",
"^. c #138C49",
"/. c #198A46",
"(. c #0B9244",
"). c #0E9749",
"_. c #139244",
"`. c #15944B",
"'. c #189949",
"]. c #199A51",
"[. c #24994A",
"{. c #249C54",
"}. c #218A44",
"|. c #16A747",
" X c #1AAA54",
".X c #1AB756",
"XX c #12B44B",
"oX c #25A94A",
"OX c #28A759",
"+X c #33AB5C",
"@X c #26B757",
"#X c #32B552",
"$X c #36AB65",
"%X c #23BD62",
"&X c #2AB564",
"*X c #39B66A",
"=X c #2EA961",
"-X c #798F43",
";X c #4AB870",
":X c #1AC25B",
">X c #1DC561",
",X c #27C569",
"<X c #3AC867",
"1X c #2DCE72",
"2X c #39CB76",
"3X c #35D277",
"4X c #2ED170",
"5X c #46C676",
"6X c #52CC73",
"7X c #66D97A",
"8X c #878728",
"9X c #88952D",
"0X c #898937",
"qX c #928936",
"wX c #899A37",
"eX c #969839",
"rX c #94912D",
"tX c #99A53A",
"yX c #8CA43A",
"uX c #A1A73D",
"iX c #A4993D",
"pX c #8B9845",
"aX c #939C45",
"sX c #868B45",
"dX c #97A744",
"fX c #91B24E",
"gX c #A4AA46",
"hX c #A8B24A",
"jX c #A8BB52",
"kX c #B7BB58",
"lX c #B5C259",
"zX c #C1CE64",
"xX c #56D588",
"cX c #52D584",
"vX c #6FD88F",
"bX c #56E691",
"nX c #71E696",
"mX c #72EFA4",
"MX c #84DE9B",
"NX c #87E796",
"BX c #99F9BA",
"VX c #8BF1AD",
"CX c #B6FBBD",
"ZX c #A8F8B4",
"AX c #C6FEBF",
"SX c #99FFC2",
"DX c #A9FDC4",
"FX c #BBFEC9",
"GX c #CBFECB",
"HX c #D7FFD3",
"JX c #D4FFCE",
"KX c #E7FED7",
"LX c #F5FEDC",
"PX c #E2FECE",
/* pixels */
"M.M.c.M.x.c.! ! Q Q ! ! ~ ! ~ ~ y.p.c.y.e.t.p.e.! ! ! e.e.e.t.t.t.t.t.e.w.! ! ~ m Q m m , , $ $ X X ; ; = a a a 0 0 0 0 8 & 0 x ",
"t.p.p.c.l.c.p.t.Q m l > > m m Q C C C C Q ! ! ! Q Q Q ! ! ! ! Q w.w.! Q n n m n , $ $ $ $ $ $ , X ; < : - - 0 - 0 0 x 0 0 & 0 0 ",
"C C Q ! w.w.w.r.! Z l k > > ; , z l l n n n n C C n n n n C n l n l l l l l > , $ , , ; $ ; ; ; ; - A - = 0 0 & 0 x S x x 8 8 8 ",
"z z z n z z n z n l z k 8 & $ , 8 & 8 k z k k k > l > > k k $ > $ $ & > > > > , , F F A < ; ; X ; - a - - 0 0 0 - & 0 0 c x v F ",
"V b V V b z b e V M b b 8 7 7 7 7 7 8 e x w 8 x k k x b 8 8 k 8 k 8 & k l l A F F F F A - - = # # & 0 - 0 0 0 0 x w x x x x v v ",
"K B G K K B J G M G G u e 9 e q 6 q q w w w G w w w S G w e w w e 8 8 e c c c x v D F x - & = % = & - x & x x 0 x x c x v c v D ",
"K J J J J J K K J J g g u q 6 6 y q j g g u G u g u G u G u u u e 2 2 e b b 8 k c c c c 0 % % % & 8 x x x x S c c c v c c c v v ",
"J P g g G h g P J g g y d q d y y 6 y J j u B y y u u J p i B g y e 7 e M b b b V c c b k 7 % % 8 0 A S c S D S b x v v v c v v ",
"P P P P P P J J j g g u y q q y 6 6 i ` i h J i u p p J J p p u y e y c M c M N b Y c c c 8 % % x x c D c D L c S N v v v v Y Y ",
"I P U g g g P J g J g u y q e y u t i ` h i p i p p p p p p p p y e w w G M v v H D N N c 8 8 7 8 x c S c S K c H c b v v D E Y ",
"W P I K J P X.I K h g u y u u i ` t i ` p i h h h J B p } p i } j w w B G K N N Y v E v x e % 8 x c H H S c G H H c c N v Y Y Y ",
"I X.T X.I X.I | P J J h u u j u i i i h ` } ..h J } p p } } J } u g u G N H N T Y Y E c x 8 % w c b S H H c c L v c v H Y v Y Y ",
"J K K K | K K } X...X...y y y i y h i } ..} o.p J X.J B } } } X.J M e K K T V T Z T T N c k & c H D D H L H K H D c c v v v E E ",
"K K K K K | } X.} P ..` h i j i t ` ` o.o.J | } } X.| } | } }  .J B B K K T T Z T H T Y M 0 7 e S K L H H I L v D v c c c v Y E ",
"B | | K | | | X.X.} ` ` h ' h i y } o.q.o.} o.| | | } | | | | | B J B K T T T +.T T T Y c 7 0 0 S G L H G H L G c N c x k E E Y ",
"B B B | | X.} ` O.o...` j t y i h o.o.o.o.o.o. .} |  . .| o. .| | B B K | T +.Z R +.T v c 7 9 G H c H T S c H H S D S k , v E E ",
"} } J p } } } O...o.' ' P h i h h } ..o.o.O...O. . .| |  . .| o.} | M K | T +.R +.T N M M e 7 0 w G G H L H S S A x 0 x 0 x F F ",
"| B J J } } ....' o...' ' h i h } X...........o.o.O. . . .#.#.o.K K J K K V +.+.R T N b e 7 % w c c c S S c 0 A - 0 - 0 - x x A ",
"B B J } P J ..o.......h j j i j X.X.X.X.X.O.O.o.o.o.o.o.o.#.+.o.} G u B V K +.K T T Y H c & 8 0 x x c 0 0 A A x 0 & 0 - - - 0 0 ",
"| K K | } J ....o.....h j y y y g J ..} ..} } } o.| | | | | | K J y e e M T R T Y Y H D x & & x x x 0 0 0 - & - = % % 0 w S s 0 ",
"+.K J } J h ..h P ` ..' j i t 5 j g P X...} J B | J | | | K | J u q q w c K L H v c c x - & & & x < - x x - % 9 o + + 2 7 9 2 2 ",
"J J B B J J ..h ' P h j i y 5 y y j P P J g J h u B B B K J K K u w w w w G H H Y D k $ & = - 0 x x A 0 7 = = + + O + 1 6 3 1 3 ",
"u J J u h } P ` h ' j j f q 5 j y y g P g g g u u g B J B J J J g s w w S S S c 0 c 0 = % # * = % 7 9 + + + O O 1 3 4 t r r t f ",
"J J J u u i j j y ' h j j d 6 q q q j g g g g y g g u G u c w s 9 9 S s s G s U 7 w 0 % = O O @ O O O 5 4 4 4 r f _ _ >.>.>.3.3.",
"y u u u u u g g P j d g q d q 6 5 s g g d d d d s 9 q w s s d g s s 5 9 d a q 9 d 6 + O O . @ 4 @ 4 4 f ' _ 1.1.<.0.6.6.6.6.7.9.",
"u w w y j g g g g q 2 6 + 9 q 6 9 d d d d 9 d 9 9 d g s s d s g 6 6 d d 5 5 6 4 5 1 1 3 4 r j P _ 1.1.1.<.6.6.0.0.6.8.!.8.7.7.C.",
"G g w w s s g g w q 7 6 2 7 % + 9 5 d d 9 d d d 5 9 d 5 5 5 5 + O O O 3 3 1 4 r f f ' 1.<.<.<.<.0.0.v.v.v.v.v.b.8.b.b.!.!.Z.C.Z.",
"G S G w w 9 q q q 6 2 2 O 2 + O @ @ 5 1 O O O 1 4 5 4 1 O 1 O 4 3 f f ' 1.1.<.<.<.1.0.6.v.6.v.v.b.b.v.v.v.v.b.^.E.E.E.E.Z.~.V.A.",
"9 9 s a q q q 5 5 6 3 6 1 1 1 O O 1 3 3 1 1 4 4 4 r f f f f f _ >.>.1.3.6.6.6.9.9.0.8.8.v.v.b.!.b.b.b.b.E.E.E.E.W.W.W.W.W._.V.Z.",
"w 9 d a d d 5 5 3 3 3 4 3 3 3 3 f f f f f f f _ 1.1.1.0.6.6.6.6.0.6.9.9.v.v.v.9.v.b.b.E.!.C.!.C.b.b.Q.Q.V.Q.E.V.W.W.^.W.W.~.Z._.",
"9 9 5 5 5 4 3 3 3 3 3 r r f _ _ >.>.>.>.>.<.0.3.0.6.6.9.v.v.v.7.!.!.!.8.v.C.v.!.C.V.V.V.C.V.Q.V.V.Q.Q.Q.V.^.W.W.E.W.].!.W.~.W.'.",
"1 5 5 4 r r r r f _ _ [ >.2.2.2.6.9.6.9.8.v.v.v.v.v.v.v.v.!.b.b.7.C.C.C.C.C.E.!.Z.Z.Q.Q.Q.Q.Q.V.Q.Q.^.Q.W.).W.`.~.Z.'.Z._._.~.'.",
"3 t f t _ _ [ ,.2.2.2.0.2.7.8.b.b.^.b.^.^.^.^.^.!.^.!.!././.W.C.W.W.~.~.C.!.C.!./._._.).Q.(.).].Q.Q.Q.).^.E.W._.(.F._._.F._.'.'.",
"<.q.3.3.5.9.0.7.7.C.V.Q.V.~.^.).Q.^.Q.Q.).].].^.^.].^./.^.^.W.~.V.A.C.~.C.C.!.C.`._._.`.`.`.).`.).Q.Q.Q.!./.'.[.'.{.].oX].{.[.'.",
"9.S.8.S.!.Z.E.W.Z.(.(.).(.).).].].].).].]. X X].].].].].^.~.~.~.Z.V.Z.C.]./././.[.^.`.`.`.`.^.`._._.)._.v.}.{.}.+X$X+X$X@X+XOXoX",
"F./.'.'.'.'.).|. X X X X X.X%X X&X&X&X,X&X&X*X*X=X=XOX`.Q.C.^.'.`.[.+X$X$X{.{.{.].~.^.W.(.`.`.{.].{.OX=X;X;X;X;X6X6X6X;X;X5X*X*X",
"F.).'.|. X|.XX X>X%X,X%X,X>X,X%X,X1X2X2X2XcX*X*X$X{.].E.Q.].OX*X;X$X$X*X$X{.{.{.].^.]. X=X*X=X*X*X;X;XvXvXMXMXMXMXvXvXvXxXcX6XcX",
"N.V.D.).).|. X.X%X,X,X,X1X4X1X1X1X1X3X3X2X5X*X{.b.E.].OX&X*X5X*X$X;X[.!.8.{.$X*XcX2XcXcXxXxXxXbXxXvXvXMXVXZXCXFXFXCXBXMXMXvXvXvX",
"4.N.N.A.(.'.|.oX@X%X%X%X1X,X,X,X1X1X1X,X,XOX~.N.%.S.OX,X@X&X+X+X[.H.7.4.!.OX*X2X2X2XcXbXbXmXmXbXnXmXSXDXGXGXHXHXHXGXFXZXSXMXmXmX",
"%.4.*.4.4.S.F._.|. X X X@X%X%X%X:X:X:X.XXX).4.%.%.'.OX@X@XoX'.'.5.2.2.S.{.=X=X&X%X1X1X3XcXbXmXmXVXSXDXFXGXHXKXKXKXHXGXGXDXDXVXVX",
"%.%.&.%.2.5.B.B.F._.'.oX|.@X.XXXXXXX:X|.J.B.N.$.%.F.oXoXoX|.G.B.%.%.7.}.{.[.OX X@X.X%X,X3XbXbXmXmXSXDXFXHXPXLXLXLXKXKXGXFXDXVXVX",
"/ [ ( ( [ [ %.5.4.S.S.F.F.F.'.|.).XX|.J.F.N.$.$.%.B.F.oXoXF.N.%.( %.3.S.}.{.oX X.X.X.X>X>X4X4XbXmXVXDXFXJXPXLXLXLXLXKXHXFXDXBXBX",
"' @.] ] ] ] ] 3.&.%.5.9.S.S.F.N.D.F.F.F.B.4.$.^ ( 5.H.H.B.B.5.[ ^ ( &.9.5.H.F.|.).XX.X:X:X:X,X4XbXmXBXFXGXHXPXLXLXLXHXGXFXDXSXSX",
"` ` i i ` / ' / ] ] &.&.&.5.=.5.4.N.4.4.*.*.( ^ ^ &.H.5.5.5.&.%.^ ^ ( &.5.5.9.S.F.D.XX.X:X:X>X<XcXnXVXZXFXJXPXPXKXHXGXGXDXSXVXVX",
"B } } } | } } / #.{ ] ) ( ) ] &.&.&.&.&.&.&.@.) ^ t ^ &.q.&.&.;.^ ^ ^ ) ] &.%.5.S.G.D.J.XX|.>X%X4X6XmXVXBXZXFXAXAXAXZXBXVXmXxXbX",
"y e u | X.| o.| o.@.o.#.@.@.@.) ) { ) { { { { / / / / ) ) ) ) ) / ^ ^ ^ ( ] &.&.=.N.N.D.D.|.|.|.@X<X7XnXzXZXZXZXZXVXNXvXxX5X2X2X",
"6 2 2 u B | +.+.o.j.j.j.k.k.k.j.a.a.k.a.a.a.:.a.;.#.#.#.#.;.;.;.:.@./ / / { ] ( %.=.4.*.N.G.D.D.J.#X<X6X7X7XnXjX7XnX7X5X2X3X1X%X",
"y 6 2 1 2 b T | +.+.o.j.k.k.n.-X-XI.-XU.U.U.U.U.wXP.L.P.L.L.K.Y.Y.Y.k.#./ {  .) ^ ( =.*.N.N.N.D.J.J.J.oX<X<X7X6X6X6X*X<X,X.X>X>X",
"7 9 6 2 + 7 9 s c H L R W j.j.n.n.n.pXaXaXaXdXdXdXwXdXdXyXyXtXyXT.wXU.L.a.a.k.k.{ ) -.( $.=.*.N.G.G.F.oX#XoX#X#X#X#X#X#XXXJ.XX:X",
"q w s s = + + o . . .   o $ F L j.l.x.sXpXpXaXaXhXdXhXdXhXuXtXyX9X9XwX0XP.s.x.-XY.k.:.;.) $.&.=.B.N.B.F.F.F.F.G.F.F.B.G.J.J.J.J.",
"s 9 9 9 9 s + @ @   . . .   X & , Z j.x.n.sXaXaXdXeXtXdXgXdXuXeXtXtXtXeXwXz.z.0XaXU.s.:.;.) =.=.B.-.N.B.B.G.B.N.B.B.B.N.N.G.G.G.",
"s d d 7 9 7 9 + + + +           . X $ l r.h.n.sXsXsXpXdXeXyXtXgXtXrX9XrX0X8X8X8XaXwXU.L.K.K.a.;.-.B.-.B.B.$.N.N.N.N.B.N.$.N.N.G.",
"j w q q 9 9 9 * : - * # # # # # X X X X $ z r.h.l.x.x.pX0X0XeXwXrX8X8XrX8X8Xf.g.8X9XwXP.U.U.L.K.R.R.-.=.B.-.N.=.=.$.$.$.$.$.$.*.",
"y q j d q w 9 9 9 9 + + o # # # ; * X X # X X # m Y r.y.x.l.sXz.9X0XP.z.f.g.g.g.g.f.9X9XU.yXfXfXT.K.R.R.R.R.R.H.-.-.-.;.-.-.;.;.",
"g i g w q q q a 9 - = * @ % * * - ; # # # # # # # X k R j.h.l.l.d.l.l.d.i.i.g.g.g.g.f.P.P.P.hXfXlXyXT.T.K.K.Y.K.K.R.R.R.R.K.K.K.",
"j g y j s w s s - d a : - * # + = * ; ; % # # # - #   # # $ R R +.j.y.j.u.w.u.u.u.u.i.g.g.P.aXhXuXlXjXfXyXT.T.fXfXfXT.T.L.T.fXfX",
"j h h y w w w s 9 9 a : = : = * = # # o o % * @ * * *       # % 7 e V T R r.r.r.t.w.w.u.g.d.f.wXgXhXgXgXdXdXeXeXjXlXlXyX9XyXlXjX",
"h } h g u j s s a a a - = 9 = + + % * % = = : : * * * * X # X   o o o % $ 8 k k Z ~ Z C r.d.l.d.eXgXhXgXtXuXrXrXyXlXzXkXuX9XtXlX",
"` ` h J g g s U s a s a : a 9 : = = % = - 9 : : * * . @   o   o o o o o o # X # , < v m Z r.h.l.x.eXgXgXeXiXm.m.9XtXkXlXuX9XtXlX",
" . .} ..P J U P s A S a a s a a a = * = - * = 9 @ @ * * @     X o # # $ & ; $ $ $ X X $ & l ~ r.l.x.0XqXiXiXrXrXP.m.iXkXzXuXtXlX",
" . .....P J P I D F S A S F A A A a = - = = = = . * * * * . . . X # $ $ $ ; - ; ; $ ; < $ $ k Z w.h.x.0XqXiXqXqXm.f.8XgXlXhXiXrX",
" . .O.O.J K I L L U U U U L U S F A a - - - & * * * *   @ * @   # * ; & - & , & ; - ; ; - $ # $ $ m h.x.M.qXM.qXM.z.g.f.uXhXuXrX",
" . ...X.J J I I L U E F U W F U F S x x k 0 - & ; @ * * * @ . * * ; ; - & % & % = = - a - - = # $ $ ~ t.x.M.z.M.z.l.d.u.M.qXeX8X",
" .O.o...B I I G L H L F L W W F F F c & & x x - * * * * * * * * : ; ; - & & & & & = = - - & , - X X $ m e.i.i.f.d.d.d.i.u.g.8Xm."
};
