/* XPM */
static char *result[] = {
/* columns rows colors chars-per-pixel */
"64 64 256 2 ",
"   c #060800",
".  c #150D01",
"X  c #021500",
"o  c #0B1400",
"O  c #021C00",
"+  c #0B1B02",
"@  c #0E1D0A",
"#  c #131B01",
"$  c #171807",
"%  c #1C1713",
"&  c #261C05",
"*  c #251916",
"=  c #331D0F",
"-  c #042301",
";  c #0C2301",
":  c #032B01",
">  c #0D2B02",
",  c #07280B",
"<  c #132401",
"1  c #122C02",
"2  c #1A2C02",
"3  c #192709",
"4  c #003401",
"5  c #0C3202",
"6  c #013B01",
"7  c #06390A",
"8  c #133303",
"9  c #1C3402",
"0  c #143B03",
"q  c #1B3C02",
"w  c #15340A",
"e  c #1A340C",
"r  c #1B3A0B",
"t  c #153B0B",
"y  c #1C2C13",
"u  c #192614",
"i  c #063816",
"p  c #193613",
"a  c #072C15",
"s  c #252906",
"d  c #233402",
"f  c #2A3401",
"g  c #233C02",
"h  c #2B3B03",
"j  c #233C0C",
"k  c #28370C",
"l  c #353A06",
"z  c #272A18",
"x  c #352A19",
"c  c #233C13",
"v  c #283816",
"b  c #353717",
"n  c #322803",
"m  c #0B3826",
"M  c #382824",
"N  c #2C3823",
"B  c #393927",
"V  c #48390E",
"C  c #463729",
"Z  c #014301",
"A  c #024B01",
"S  c #00440A",
"D  c #084806",
"F  c #194507",
"G  c #015401",
"H  c #075706",
"J  c #165607",
"K  c #054718",
"L  c #184616",
"P  c #085517",
"I  c #185817",
"U  c #234202",
"Y  c #2B4403",
"T  c #2C4B02",
"R  c #24420C",
"E  c #2C430C",
"W  c #2A4A09",
"Q  c #324C01",
"!  c #334B0C",
"~  c #344708",
"^  c #275707",
"/  c #355301",
"(  c #3A5501",
")  c #3C5B02",
"_  c #38540C",
"`  c #244213",
"'  c #2B4414",
"]  c #2D4A13",
"[  c #2B441B",
"{  c #284A19",
"}  c #334B13",
"|  c #364819",
" . c #275719",
".. c #395616",
"X. c #086804",
"o. c #176704",
"O. c #0B7503",
"+. c #157704",
"@. c #176718",
"#. c #1B7616",
"$. c #0B631C",
"%. c #226805",
"&. c #247707",
"*. c #296717",
"=. c #277719",
"-. c #356C10",
";. c #084626",
":. c #154A28",
">. c #075929",
",. c #17572A",
"<. c #085836",
"1. c #175836",
"2. c #0E4733",
"3. c #264623",
"4. c #384926",
"5. c #285726",
"6. c #395828",
"7. c #395C34",
"8. c #275436",
"9. c #176828",
"0. c #1B6737",
"q. c #0A642C",
"w. c #266A24",
"e. c #3A6627",
"r. c #297827",
"t. c #26643C",
"y. c #357131",
"u. c #46470A",
"i. c #425B07",
"p. c #455918",
"a. c #534C14",
"s. c #624D18",
"d. c #446302",
"f. c #4C6B02",
"g. c #49660A",
"h. c #526D07",
"j. c #567708",
"k. c #4C631B",
"l. c #496516",
"z. c #536A18",
"x. c #597718",
"c. c #4A7612",
"v. c #637B17",
"b. c #617C09",
"n. c #444729",
"m. c #445B26",
"M. c #494C35",
"N. c #544938",
"B. c #4A5837",
"V. c #565639",
"C. c #554F29",
"Z. c #496527",
"A. c #546827",
"S. c #487728",
"D. c #587728",
"F. c #496737",
"G. c #556937",
"H. c #577736",
"J. c #497639",
"K. c #647B27",
"L. c #64793A",
"P. c #72702E",
"I. c #6B4E33",
"U. c #155B43",
"Y. c #275643",
"T. c #196A48",
"R. c #14734E",
"E. c #276946",
"W. c #2E7451",
"Q. c #317E62",
"!. c #575844",
"~. c #4F5E41",
"^. c #586845",
"/. c #567549",
"(. c #647947",
"). c #6B764E",
"_. c #827E34",
"`. c #178804",
"'. c #189701",
"]. c #17860E",
"[. c #268817",
"{. c #3A8A19",
"}. c #289616",
"|. c #33961C",
" X c #278E0A",
".X c #34A919",
"XX c #2FAE13",
"oX c #38872A",
"OX c #389527",
"+X c #399932",
"@X c #2F872B",
"#X c #38AA26",
"$X c #3EB22C",
"%X c #5B8516",
"&X c #4E8E16",
"*X c #658709",
"=X c #74980B",
"-X c #678718",
";X c #728B19",
":X c #6E9319",
">X c #75991B",
",X c #6C930B",
"<X c #7BA319",
"1X c #5C8734",
"2X c #4D912A",
"3X c #678726",
"4X c #779A27",
"5X c #688736",
"6X c #799B35",
"7X c #70902F",
"8X c #44AA2B",
"9X c #46BA2B",
"0X c #49B835",
"qX c #4FAB36",
"wX c #7BA525",
"eX c #73A933",
"rX c #3BC623",
"tX c #3DC219",
"yX c #4BC538",
"uX c #59D73B",
"iX c #4ECE33",
"pX c #5BE23A",
"aX c #2D8352",
"sX c #2B8B66",
"dX c #178155",
"fX c #558842",
"gX c #6F8E4B",
"hX c #5ABA46",
"jX c #50B149",
"kX c #75AC4E",
"lX c #798864",
"zX c #5BD346",
"xX c #68D250",
"cX c #5AE841",
"vX c #68EA49",
"bX c #70F255",
"nX c #72C967",
"mX c #79F963",
"MX c #85AA1C",
"NX c #8AB11E",
"BX c #839434",
"VX c #85AA27",
"CX c #8BB327",
"ZX c #93B929",
"AX c #84A735",
"SX c #8BB438",
"DX c #95BB33",
"FX c #92A93F",
"GX c #809D1F",
"HX c #97C33A",
"JX c #A1C235",
"KX c #899349",
"LX c #8BAF4A",
"PX c #A0AA5B",
"IX c #82EB6B",
"UX c #A0C542",
/* pixels */
"*.e.5.{ p y # X B.gX6.} R r } Z.H.6.> O 1 , O - , ; e c k 4.[ | j q l.S.( d.d.d.j.v.b.;X-Xb.v.v.a.p...] q 8 > : 0 5 w t > 5 e , ",
"y.e.6.{ z 3 # o 4.).B.] q r | F.H.Z.8 - 1 w - w O > 1 r [ | k v 9 1 ....Q ( ) ) j.-Xb.;X-Xv.v.v.z.p.Y 0 > 5 8 8 t 8 w w > 8 w 1 ",
"fXS. .` v 3 < + 3 F.F.] 8 ` { ^.H.A.U - w t 1 p > ; 9 [ < j 4.2 1 > E ! g Q ( ) v.3Xv.;Xv.v.v.x.Z.} 9 - ; > 0 F 0 5 e e 1 w w 1 ",
"fXy.{ p y y y u + v 7.c 8 { { G.(.H...> r R r ` 8 - r G.v 3 b < < ; E E g Q ( d.x.K.v.3XK.K.v.k._ g < - 1 8 9 8 t 8 t t 8 1 w 1 ",
"J.w.r w y y z N + 1 3.L j 6.[ F.gXH.F.9 W _ W W 8 8 1 (.lX| X y < ; j 9 9 Y / i.x.K.z.K.K.D.k.p.d 1 ; - 1 0 w 5 t w 0 0 > 8 e 1 ",
"e.R 5 w z y v N + + p { { B.c 6./.(.H.q ..S.p._ T g 2 G.lX^.z o + ; e 9 9 g Y ( z.z.l.K.A.k.p.Y 2 1 + - 1 w 9 w t w r t 8 w e 8 ",
" .0 : w e 3 u N + X w 4.6.6.p 4.G.H.H.F x.5XD.-.l.q d ' n.).~.  + < k g d g Y Q l.z.i.z.k.p.~ 9 1 ; ; ; ; 8 w 0 t 0 r r 8 w r 8 ",
"F 5 > e y @ @ z ; X 1 7.6.3.p 4.Z.A.D.U 1X6X3Xc.) g 9 k b !.B u < 9 ' U Y T Y ( i.g.( z.p.p.h < + < < , , 1 w w r 0 r t 8 w e 8 ",
": > w 3 u z y u , X t 7.^.{ 1 4.6.H.l.T 7XLX6Xx.x.Q d s V.s B n.< E m.A.p.i.( ( x.g.( ( .._ Y 9 y 3 ; 1 ; > 8 0 w F r ` 8 > - R ",
"- 5 e e N z u @ X - { 7.J.7.r E W Z.T c.4XwX:Xx.z._ g s !.z b n.# Y p.D.z.v.h.h.v.j.i.( ( Q g 9 3 , @ , 1 > 8 q t ` F r 8 > > ` ",
"X 8 e u u u @ , X > 6.J./.G.' g U / / 6XeX4X-X-Xi.m.k k M.z b V.< ! p.K.K.v.b.j.;X-Xj.i.( Y 9 g 3 , < 1 w > 8 r F F R 0 r > 1 ` ",
"O e y @ a @ @ p - w e./.gXJ.E E T 0 7X6XSX4Xj.-Xi.p.v b C n.C C.d u.z.3Xv.-Xj.f.:X4Xx.i./ U 9 j < ; ; w 9 8 0 r F q r 8 r - 8 c ",
"O p y + @ % + u > L Z.J.fXH.^ ! F / AX4XwX4Xj.g.p.f z n.C N.N.C.f p.K.7XK.v.f.d.-X6Xv.) / Y q k 1 ; 1 w r 8 q F F 0 q 5 r ; > r ",
"O p y 3 u @ @ - > { J.S.H.H...T T 5X6XAX:X>Xx.( p.# z !.!.V.V.C.f z.7XKX3X;Xh.f.*X6X3X) _ T q R < < 2 e r q q U F q 0 0 r 5 > e ",
"; p y u u u , - > ` e.S.1XS.! T D.LX4XAX>X*Xf.Q p.< 4.!.!.N.C.u.s z.7XBX;Xv.f.f.-X6X-X) .._ 8 9 < ; 1 r R q F U F U q R [ r 1 p ",
"v p y @ @ u u ; w F e.H.fXl.T T 5X7X6X-X4Xh.T Y l v !.N.N.!.N.b 2 p.gXKXv.h.i.) -XAXK.) p.! 8 1 < ; 2 g U g U U U W F ..] ] 1 r ",
"N u z 3 # # 3 1 , 5.F.J.gXS.0 ) 6X7X%X3XD.g.Y Y $ B.n.V.!.C B b # m.gX5Xz.) / d.3XAX3X( _ } 1 ; ; < 9 | ..~ E ~ Y ! ~ _ A.L.Y d ",
"M % u $ o o 2 < v 4.F.F.1X .^ c.1X3X3X3XD.p.h d < n.M.M.n.x C z d A.L.D.d./ ) j.4XBXD.( _ E < + < 2 f ..m.u.! _ _ ~ Q p.m.A.~ Q ",
"z * % $ . # 3 < v 6./.(.G.8 l.S.3Xc.3Xz.A.Y d + b ~.N.n.z & b s } A.z./ ) ) j.BX6X4Xc.Q ! j < ; 2 d E p.k.p.p.p.p.p.Q k.p.k.k.p.",
"M * M x x s & $ u M.).lXF.O Z.l.3Xc.z._ } 8 3 o 4.~.n.k 2 s l < p.z.i.T d.j.-XSXAX-Xi.Q ! k ; ; 9 d | p.k.k.p.p.i.z.p.i.( k.L.k.",
"M M C x x s $ . $ B B.lXn.2 m.l.D.) ..Y ' ; y o N M.k < V i.u.u.x.j.d.) j.:X>X4X4Xx.) Q ! e + ; s g ~ p.p.k.k.g.i.z.z.i.( i.P.D.",
"M M = * & $ . $ $ z & B.k | m.p.D.) ..W E + +   < b s f z.P.b.v.h.j.f.j.4XVXVX4X-Xg./ Y W 9 < ; 9 h ~ i.p.z.z.h.h.g.h.g.i.Q z.D.",
"% * & . $ . . . $ $ o $ # 4.n.p.k...~ U g < X X k | z.K.BXBXb.GXf.j.,X<XVXCXVX4Xj.d.Q T j e 3 ; 9 Y ~ _ i.h.x.h.h.i.h.f.g.Q ( z.",
". . . . & $ . $ $ % u   . k k | ! T 8 8 g q 9 T p.z.BXPXFX;Xb.b.*X,XCXDXVX4X:Xj.d.) _ ~ R e 3 ; d Q _ i.g.x.b.h.f.f.h.i.f.( Q h.",
". % z   z M N o $ $ u o o k k E ..F q U W l.g.3X3X-XLXGX;X;X=X*X=XMXCXCXCXwX-Xf.g.) U g ` w - 3 2 Y k.) d.i.x.4X;X;X:X-Xh.d./ Q ",
"* @ % u 7.!.~.M.@ u + z v < | } ] U T i.%X3X-X:X,XVXDXCX*X>X;X>XCXCXwXwXwX:Xc.) / Q ! ] ] 1 O X 1 W k.k.x.j.:XVX>XMX>X;Xj.f.) ( ",
"N   @ 4.B.).^.~.y N y 6.| + h Y q T c.3X:X:X,X,XNXCXMX=Xb.,X*X:XDXZXAXwX4Xc.d./ U F ..} ` ; ; ; 1 _ l.3X-X-XVXCXCXVXGX>X:Xj.f.i.",
"u % Y.^.~.B.B.B.N 4.B.B.k 2 2 Y l.D.6X6X4X<X=XNXNXNXVX,XVX4XVXAXSXeXwX-X%Xc.) T q t | ` e 1 { | 9 ..l.7X-X;XCXZXZXCXVXGX4X-Xj.d.",
"X o /.).).~.G.^.4.n.V.m.d < f z.6X6XeX4X>XwXCXHXDXCX=Xj.,Xj.;X4XLXLX6Xx.g.../ 8 q 9 ' 9 1 1 6.Z.! ..g.5X%X-XVXZXJXNXVX<X:X-Xj.d.",
"@   N B.).^.B.4.4.m.k | h 2 A.6X:X:XwX,X,X<XwXCXCX>X*X%XwXwX4X-X%X7X7XD.-.! Y 8 8 e r w ; w ` | | ~ l.D.j.%X>XNXZXCXCX<X>X-Xj.g.",
"u     + ~.^.4.< n.u.< l a.a.6XKX*X,XCX<X<XwXeXSXDX4X*X:X:Xj.-.F F T ) S...E 8 r 1 r > 1 > ' ` ] } 9 l.x.j.*X=XMXNXZXCXVX:X%Xj.g.",
"% @ X   z ).V.b | b l l z.KXBX;X<X<XNX<X<XCXCXAXLX:Xj.T / W wXLXkXc.T ..Z.R > > 1 c O 8 8 6...6.} > D.D.%X,X,X<XNXJXDXVX>X-Xj.c.",
"*   . . . M.!.V.b f f u.;XBXGX*X=XZXNX=XMXNXNXCXCX*X) ) f.0 LXkX5XH._ ..] ` : w w > X r Z.6.r W ] q A.D.3X-X,XwXHXHXMXVXwXj.x.d.",
"* % % *     M !.b f ~ z.BXGXGX=XZXZXNX,XGXZXJXJX*Xj.:XT ^ 7XKXD.1XS.^ e. .{ 5 5 O 5 7 5.D  .^ ^ ^ 0 2X5X%Xf.&X>XeXwX%.) LX&X) c.",
"M M * C M   z !.k s p.K.7X;XwXSXJXCXwX,XNXUXDXeX-X*X%X7X6XLXkX1X/ ^ F ] F  .0 : I 4 6 2X%.=.o.D A J -.o.&X{.&.2XeX&.-.%Xc.2X2XS.",
"M M * * * .   . k s p.K.3X3X6XSXSXHXwX*XSXSXLXLXF c.c.kX1X*.eXy.D *.-.*.D Z 6 A oXX.=.hX&.O.+.}.+.+.[.+.`.&.&. X0XeX&.&.-.-.6 =.",
"N.N.C = $ .   # < O _ D.5XeXeXSXeXwX&X:XeXkXLX7XF ^ S.-.-.^ =.-.D %.J o.%.H G {.0X}.}.`.'.}.XXXXXXyXiXXX$XXX}.xXIXhXxXxXqX=.J &.",
"C * = %   o   k 2 - F ^ &X1X&X2X&X%.%.2X2X5XnXU J : I J r.*.J D o.=.o.X.].|.|.9X#X#X$X'.XXrXrXcXrXiXcXrXXXiXbXbXIXnXIX8X|.O.].=.",
"~ < # d 1 1 9 e.S.*.*.D &.&X%.&.qXJ J &.J 2XJ.D 4 I w.=.=.=.=.o.&.qXhX&X{.8XiXzXbXXX'.XXcXbXcXbXcXvXbXcXpXvXmXbXvXzXyX X}.`.O.X.",
"-.%.^ 1X%.F *.y.2Xy.&Xo.{.&Xo.&.&X&X&X=.D I 4 9.S w.w.w.X.=.[.OX X'.9XuXuXzXbXvXcX'.'.'.XXrXuXmXcXtXpXbXiXXXzXzXiX}.`.$X`.`.`.9X",
"&X2XjXOXOXOXoX+.{.hX2XxXqX X+.+.o.qXnXfXfXoX,.6 S P aXnXjX@XOX#XyXuXuXuXvXuXcXzXtXuX|.`.#XxXyXxX0XXX.X.X8XO.`.0X9X XO.'.`.rX`.'.",
"#X0XxXjX0X#X[.O.=.xXhXnXeXqX&X&.=.2XkXjXr.S 4 P P A o.#.+XOXO.}.XXtXiXvXbXuXmX9X}..X+.G ].8X+XzXqX2X2X&.[.X.X.X.}.O.].#X}.#X$XXX",
"#XyXvXyX$X].O. X].hXqX8X}.8X&.X.o.=.oXr.P I S S H 9.@Xr.O.X.O.9X'.uXtXuXpX.XzX].+.O.G A H =.9.2XoXy.oXD @.A G 6 G H O.}.].`.$X}.",
"#XyXzX+X}.O.X.+X@XjX8X[.+.o.G G A 6 I t.K S 6 P 9.P @.hXhX}.O.A XXvXtXtX$XO.#.O.X.G Z A G P H @.J D I 4 H 6 H H H O.X.O.].+XzX}.",
"qXjXjX+X[.X.H @X@.=.@.@.H H 6 A 4 4 S ,.7 K K I r.@.@.+XOX+.|.`.uX.X`.#X|.G G G $.K S P P K 6 S 6 : Z 4 H A =.r.@X@X#.X.jXnXjX].",
"@X[.r.y.r.9.Z P Z S S 6 Z Z 6 7 : i :.a : ,.,.I w.9.H +.qXhX9X8X X XO.O.O.H A P q.>.<.U.0.q.S A I A D G w.=.@XoX@X[.+X+.+X@X].].",
"6 D F I I ,.4 4 K K i 7 K ;.:.1.2.2.Y.m i 7 S t.@.H A [.nXIX8X+.X.8X[.G P $.K T.R.R.T.W.aXaX$.$.r.r.#.#.OXOX[.[.O.X. XO.#.O.].q.",
"4 4 6 7 : 7 : 7 L ;.i :.t.1.Y.W.m 8.Y.m 1.1.:.I I 9.@.kXnX8X8XX.&.OX=.@.S S ;.<.R.R.R.Q.aXaXq.q.@X+X[.OXOX[.X.+.[.X.G X.G #.@XG ",
"S P :.P S K ,.K 7 ,.1.,.t.,.t.E.E.u Y.m 2.Y.i 7 >.P r.w.%.qXOXOX=.w.$.$.$.P <.<.dXsXR.R.W.W.>.K q.#.r.@XX.@X@.A G X.X.@.w.A H I ",
"9.9.q.P P 0.0.K ;.K 7 i :.,.8.8.8.u u @ N Y.i i K 6 D G =.=.-.%.6 I G K >.dXdX>.dXdXdXU.aXsX<.K >.G @.9.A S 6 G @.#.I H @.I I I ",
"r.0.>.P K t.W.t.E.,.L i i 7  .L 3 y v c Y.7.i 7 K P D H *.Z Z Z 6 S 4 K T.aXR.<.sXR.R.;.<.<.i K S Z 9.6 J G 6 A 9.w.w.H I H D 6 ",
"0.0.K K P 0.aXW.0.0.K : t 5 L | | | | d c w i t 4 L 7 I D Z 6 4 e.K 7 ,.aXR.U.U.Q.<.U.2.;.>.7 E.Z 6 *.A w.r.w.H J H *.D I 5.F 0 ",
"0.W.K <.0.E.W.<.;.t.L L F.6.F.L.P.a.C.h d ; 6.5.t t I ,.5 *. .6 8.K i 2.W.Q.Y.m U.2.U.R.W.U.1.W.7 : 4  .*.J w.*.*.D L J  . .p F ",
"P E.;.>.T.<.T.;.i t.8.{ G.p.a.A.P.V a.f s + 6.r t : 6.L 7 5.y.L i i :.:.Y.W.m m 2.m U.U.Q.T.E.;.7 - X  .F 6 ^ F  .F  .F F : : : ",
"i >.1.;.1.2.<.2.K 8.7.6.z.u.a.s.P.a.a.l s d | | O - t 7 : 5 7.3.i , m :.2.m a a i a m m t.1.W.K F F 8 R F R  .q q 8 r q 9 > r 1 ",
"K :.E.;.E.U.;.i : O w } a.a.P.a.s.s.s.C.n l 2 c c 4.> { w 1 { L - - p m a m a 8.8.m 2.m :.5.t.L { Z.m.q 1 Y ..Z.Z.W > ; r 3.m.9 ",
":.a a 1.1.:.: :.i > < f ~ V V s.s.s.C = . V s s c [ r 8 - { 1 c > p :.3.4.3.w , :./.7.t.L 5.y.5 m.m.m.} m.G...j m.G.m.| r j e 9 ",
"i a ;.:.a i i i L /.(.! a.u.s.V I.I.C V & = # 3 j [ | H.R ' ' ' ; L { 3.3.p w e { ~.~.7.3. .t 8 | m.L.m.A.G.~ ~ d h k k 2 v c c ",
"i : , : : t 6.` O A.(.l V V P.s.V C C C x k # k 3 9 6.lX6.E m.j ` ` e 9 c j e c 4.Z.Z.6.m.6.; v ..p.G.p.p.| d ~ 9 k k k e v [ 4.",
"i a a 7 w t (.lXgX).u.n u.u.V & = C V x x s # d e R Z.lXZ.m.Z.W ] ' 9 1 r R j R | F.m.E | | l L.G.m.E ! l f f h h | j ' p c c [ ",
", i , - ] k L.KXPX_.l V u.l & & n C b s < 2 9 ] } ..gXgX(.5Xp.| d v j R ' F 0 r ] Z.m.b l n C.).A.m.9 } m.h | d 9 d 9 c w c p 3.",
"p N , 9 G.P.gXKXKXPXKXlXu.l $ a.& l n f f d q ! ..H.gXH.H.5X! Y h h h g ] W 0 0 | e.] | b n C V b ! 9 ....h p.h s d 9 j w e p 3.",
"> p ` | a.A.P.PXP._._._.V.P.f b s s f D.A.~ T _ S.5X5XS.A._ h h | k 2 1 { { F 8 6.6.g n.C.& V & h Y g } E h | ~ E E e [ t w w :.",
"3.p v | l u.s.KX_._.KXP.KX).| k s 3 f gXKXL.D.gXgXgXL.H...9 Q p.' l g t W R F t 6.6.| C.I.. = V m.R ..} ~ } E f ' R j 3.t e p 3."
};
