/* XPM */
static char *result[] = {
/* columns rows colors chars-per-pixel */
"64 64 256 2 ",
"   c #091903",
".  c #0B1209",
"X  c #181B02",
"o  c #2A1C03",
"O  c #092904",
"+  c #152A06",
"@  c #073507",
"#  c #0B3401",
"$  c #0B3C01",
"%  c #143302",
"&  c #163905",
"*  c #1D340C",
"=  c #1C3A0C",
"-  c #032918",
";  c #152B16",
":  c #053619",
">  c #193A13",
",  c #272804",
"<  c #382905",
"1  c #26390A",
"2  c #233C0C",
"3  c #373707",
"4  c #342813",
"5  c #253B12",
"6  c #363416",
"7  c #0C3123",
"8  c #053926",
"9  c #323921",
"0  c #442C08",
"q  c #483907",
"w  c #56380B",
"e  c #453A1B",
"r  c #573611",
"t  c #683C10",
"y  c #473A20",
"u  c #064705",
"i  c #0B4301",
"p  c #0C4B01",
"a  c #184506",
"s  c #134B01",
"d  c #0B5301",
"f  c #0C5C01",
"g  c #085904",
"h  c #135401",
"j  c #1B5703",
"k  c #135C01",
"l  c #084418",
"z  c #174716",
"x  c #135619",
"c  c #254906",
"v  c #24430C",
"b  c #2A430D",
"n  c #2C4B0E",
"m  c #35490A",
"M  c #28560A",
"N  c #36570D",
"B  c #234311",
"V  c #2C4512",
"C  c #264815",
"Z  c #2C4B12",
"A  c #324D12",
"S  c #384814",
"D  c #295714",
"F  c #335313",
"G  c #3A5413",
"H  c #385A17",
"J  c #0C6400",
"K  c #056900",
"L  c #0C6C00",
"P  c #156403",
"I  c #1A6302",
"U  c #146C01",
"Y  c #1B6C01",
"T  c #0C7201",
"R  c #0D7A02",
"E  c #127301",
"W  c #1A7402",
"Q  c #137C01",
"!  c #1A7B01",
"~  c #147709",
"^  c #0D6718",
"/  c #276606",
"(  c #39690A",
")  c #247803",
"_  c #36770C",
"`  c #2A6918",
"'  c #386715",
"]  c #2B7819",
"[  c #387619",
"{  c #044626",
"}  c #0D502A",
"|  c #045836",
" . c #394D27",
".. c #086A39",
"X. c #0F7038",
"o. c #387125",
"O. c #474908",
"+. c #574809",
"@. c #4A550B",
"#. c #57570A",
"$. c #454718",
"%. c #5A4617",
"&. c #435B14",
"*. c #475916",
"=. c #545D18",
"-. c #684511",
";. c #6D4C10",
":. c #764B13",
">. c #526C0B",
",. c #486715",
"<. c #566818",
"1. c #467615",
"2. c #597816",
"3. c #66680B",
"4. c #70730B",
"5. c #636A18",
"6. c #687819",
"7. c #757B19",
"8. c #484724",
"9. c #564C28",
"0. c #465525",
"q. c #585428",
"w. c #545834",
"e. c #6B5930",
"r. c #486A22",
"t. c #576925",
"y. c #4A7623",
"u. c #577926",
"i. c #556737",
"p. c #686925",
"a. c #697623",
"s. c #737B25",
"d. c #797924",
"f. c #696538",
"g. c #786837",
"h. c #747138",
"j. c #076943",
"k. c #0D7948",
"l. c #487440",
"z. c #7A7441",
"x. c #865916",
"c. c #8A5814",
"v. c #956218",
"b. c #A16B1C",
"n. c #8F7235",
"m. c #84743C",
"M. c #8E7747",
"N. c #887946",
"B. c #0D8300",
"V. c #0C8B00",
"C. c #138301",
"Z. c #1C8301",
"A. c #138B01",
"S. c #1B8B01",
"D. c #0E9700",
"F. c #139401",
"G. c #1B9302",
"H. c #139C01",
"J. c #1A9B02",
"K. c #11901B",
"L. c #248607",
"P. c #249808",
"I. c #2B8F14",
"U. c #34851B",
"Y. c #0EA700",
"T. c #13A401",
"R. c #1AA302",
"E. c #13AC01",
"W. c #1BAB03",
"Q. c #1AB303",
"!. c #15B802",
"~. c #1ABC02",
"^. c #22A907",
"/. c #22B608",
"(. c #35A817",
"). c #30B616",
"_. c #388722",
"`. c #3A9623",
"'. c #3CAD24",
"]. c #498A15",
"[. c #598418",
"{. c #698719",
"}. c #76881B",
"|. c #77941B",
" X c #4D8E29",
".X c #668526",
"XX c #798625",
"oX c #799324",
"OX c #71893B",
"+X c #49A72A",
"@X c #4EB92B",
"#X c #50B925",
"$X c #15C201",
"%X c #18C702",
"&X c #1BCB02",
"*X c #0FD101",
"=X c #1CD403",
"-X c #1BDC02",
";X c #25C90A",
":X c #26D60A",
">X c #2DCA12",
",X c #36C817",
"<X c #2DD911",
"1X c #38D81A",
"2X c #39E31A",
"3X c #3FD622",
"4X c #41DD1D",
"5X c #4AC628",
"6X c #54CC2F",
"7X c #49DA26",
"8X c #59DA33",
"9X c #66C73B",
"0X c #65DA3C",
"qX c #49E426",
"wX c #53E22E",
"eX c #5BE435",
"rX c #64E43A",
"tX c #0B874D",
"yX c #0B9758",
"uX c #0FA05C",
"iX c #11B066",
"pX c #7A9745",
"aX c #70D945",
"sX c #6CE642",
"dX c #77E74A",
"fX c #7AEC4B",
"gX c #8B8F1C",
"hX c #858929",
"jX c #869326",
"kX c #95962E",
"lX c #95A930",
"zX c #A1A12B",
"xX c #888548",
"cX c #97874C",
"vX c #9A8B54",
"bX c #969455",
"nX c #A98F52",
"mX c #A99859",
"MX c #AFAC56",
"NX c #9B9261",
"BX c #A99B62",
"VX c #BAA866",
"CX c #B7AC6A",
"ZX c #C3AC67",
"AX c #C7B36B",
"SX c #CAB973",
"DX c #D1BA76",
"FX c #85EA55",
"GX c #8FEE5B",
"HX c #ADDD63",
"JX c #98EA63",
"KX c #98F164",
"LX c #CDC474",
"PX c #D7C478",
"IX c #E2CC7D",
"UX c #EDDB8A",
/* pixels */
"* * ; + 5 G t.hXa.s.XXkXzXXXhXXXs.hXoXa.t.t.a.XXhXOX.Xo.> ; z z H y..XoX.Xy.' Z V v 5 1 1 2 * 5 = 5 = F r.&.H A F r..Xr.H D D S ",
"* * ; + V *.a.XXa.a.m.zXkXd.kXOXXXhXXXa.r.,.*.XXhXkXOXy.` z z F y..XOX.X X0.F Z V B n 2 2 = B = = z = D *.H 0.F H y.u.r.F  .Z Z ",
"; * % + V =.s.s.h.s.hXkXhXhXhXd.hXXXs.a.0.H H u.XXjXoX.Xy.D 1.[.oXoXoX.X,.F Z Z v V v 1 * * B 2 > > = H *.H H A H u.u.r.F F D A ",
"+ > + * &.<.m.a.a.6.hXkXXXhXhXs.hXXX.Xt.&.H A H .X|.oXoX.X{.oX|.oX.X.X,.F n n Z n b 2 * * = B z B > = F H G G S H u.u.'  .H S C ",
"+ > + 5 =.p.XXs.s.s.kXhXd.hXXX7.hX|.6.,.H n D Z ' 2.{.|.{.{.{.{.[.2.' N Z F n n n v 1 & = = B v B = = F H G H F H u.u.H D F Z C ",
"* > 2 S =.a.XXp.a.s.jXhXXXhXXXXXjX|.{.' F n D n D _ ,.1.1.1.N N n N N &.1.' ( N N 2 * 1 2 n v z B > = D *.A H H ' u.r.H F F C Z ",
"1 Z Z @.t.p.hX6.s.XXhX}.hXhX}.XXjX}.{.' N D a v 2 M c B & % v n N 2.[.{.2.,.>.F c * * v Z A B v B > = A H F  .Z  .u.,.H D F S C ",
"2 A $.<.p.6.d.p.6.XXXX7.7.XX{.|.|.{.[.' H M A A D N ' c v M ,.2.{.{.{.[.( ,.' n 2 % * A N F n v = = 5 H ,.F @.O.#.@.S H A F Z V ",
"$.*.=.d.p.s.s.a.a.XXXX6.XX}..X|.|.{.[.H ' 2.{.].1.1.N M ( >.{.{.{.|.[.,.,.N N c & 1 N @.N &.m v > * * H *.<.jXlXHXMXhXm G H Z v ",
",.=.5.7.p.s.a.t.6.XXa.7.}.6.|.|.{.[.1.' [.[.1._ [ M j M >.{.[.{.|.{.N ( N b c 1 b N ,.,.&.G N b 1 + 5 &.3.jXa.q.[.MXHX<.A H A Z ",
"<.5.6.d.6.m.a.5.6.XXa..X{.6.oX{.{.[.' [.].[ ( ` M c N [.[.[.{.|.{.,.N N m n & m >.,.,.>.&.N V n b * * *.}.*.3 F c 3 XX3.F H D B ",
"@.p.7.n.a.>.&.a.a.XX6.{.a.}.oX{.{.,.[.].[ _ D M c ' 2.[.4.|.|.{.>.N N m + v @.6.{.,.>.,.&.G n n 5 * 2 *.3.*.<.@.=.X @.3.F H n Z ",
"S 5.<.2.L.u F a..X6.a.6.{.{.{..X2.1.[ [ [ ( j M ' 6.[.2.|.|.{.,.,.@.m 1 * #.7.gX7.>.2.,.,.N n n 5 * 5 @.#.*.<.XXMXG #.3.S H Z B ",
"/ C.^./.! A a.s.s.a..X{.oXoX{.[.[ [ ].[ _ D = ,.}.6.2.|.{.2.>.,.@.N G 1 @.}.}.gX{.2.2.>.<.N Z V 2 1 1 =.O.<.@.jXlX#.3.@.&.H Z v ",
"%X<XfX5Xf Y / N 1.1.{.XXoXoX1.' [ 1.1.[ D a M 6.4.[.|.{.>.1.&.&.N >.O.@.6.}.7.}.6.2.2.>.>.G n n = 1 5 @.@.5.<.<.6.>.O.3 =.G A 5 ",
"eXfXaX@X@X,XW.T.S.s 6.oX.X2.) U ].].[ ' / d ( 4.[.{.{.>.2.N j a @.6.&.<.gXgX}.4.N 6.2.>.>.' A n 5 > * #.O.=.2.*.<.=.S $.,.H A v ",
"aXJXJXHXFXrX5XL.s j ( / _ j ! E.) 1.[ ` J.D.N 2.6.2.( / C.H.H.P 7.6.@.7.gXgX( J n gX2.<.,.N v n 1 > 1 #.q @.2.t.6.<.a.,.*.H F B ",
"5.9XaXfX>X^.I.) P R V.C.W j Q *X!.L a C.%X!.j ( ) ! F.$X-X<X+X( gX=.5.gX6.L.D.g >.2./ _ ) p 2 A V * * $., *.t.<.u.t.p.,.H *.G V ",
"3.4.3.P.-XH.W R.S.P E.5XI.u P.eXqXW.T !.1X;XT.W.W.^.P.R.!.~.I.5.2.>.2.) ).8X@X(.).^.Y.Y.Q a N S V , 3 O.X *.<.t.<.u.5.,.G G F v ",
"b q 3.3._ E.i Z.S.k R 6X8XE.(.GXFX,XE.:XdX8X0XFXsXsX7XR.L.Z.L J.E.A.F.H.(.).6XfXrX5XP.R g W ] M a O O.O.$.2.n n <.a.a.,.&.*.G V ",
"!.Y c +.N U L.Q F.H.D./.wX7X7XsXFX7X&XqXfXrXfXrXwX1X/.J.! ! (.1X3X5X9X#XP.S.) P.~.H.A.R.5XaX8XW.F.Q P % N L.L M 5.u.a.<.<.=.G 5 ",
"C.C.I s c s (.+XT.1XrX7X<XrXGXqX<XqX7XFXFX<X%XQ.F.C.Z.P./.;XsXFXFXdXGXfX5XL.! J.W.%X<XKXKXKXaX/.H.C.J.F.E.&XL v ,.,.' M G ,.F 1 ",
"d C.A.C.k I Z.(.H.).dXsXrXsXFXdX7X4X2XrXpX:X%XA.I S./.rXrXwXsX8XfXdX6XU.L.^.,XqXsXrXeXJXFXaXsX8X1XR.E Q.2X1XJ V.T.R.Z.d V *.S V ",
"i W.$XW I ) J.!.~.&X&X;X,X7X1X;X-X*X_ #.;.#.^.$XG.S.>XfXFXeX7X,X;X2X;XZ.T 1XGXeXeXFXKXdX1X).(.(.).~.C.k 5X7X,XqX:XF.P J W L.W ) ",
"Z.L i + a I Q Z.E.&X~.W.!.-X!.!.;X(.e.nXxXn.t.Q.E.S.S.3XdXsX7X~.C.T.&X%XU P.FXrX;X8XaX).!.$XV.# d k Y h ].FXGX6XH.V.!.&XJ.Q.*X].",
"D.V.E.H.A.C.P L T.S.W.%X=XE.R.E.L.M.M.DXCXN.M./ C.W ~ R.<X>X<X-X^.c Q G.Q h ).qXJ.J.-XH.g Y.$XQ a Z.R.G.P.dXFX;X>XqXqXqX~.! Z.t ",
"U Z.Z.! %X~.W W.S.Y ~.-XT.G.W.U F.z 4 y q.e 6 1 Y S.G.%X~.A.$X=X:XP + l x & W $XF.f Y.!.J # d U p U >X0X6X0XrX3XsX0X5X).%XH./ < ",
"k & Y ^.-XQ & j / j ~.~.k W.!.h g r.z.vXxXg.q.U -X&X~.-X%Xj P ~ B.~ & l l @ # C.B.O # p J # i j [ o.o.y.h.h.vXbXM.N.N.M.M.cXN.e.",
"L T Q.&XE.U E J.H.j T.W p C.H.d S 9.e.9.e.9.9.R ;X~.H.&X=XY : z : > > @ u g p i g O $ O O # U M ] _.+X[ A m u.xXZXAXZXZXZXZXVXZX",
"d W W j W Q.-X&X!.! s Q U f K 0.ZXe.# X . . a H.R.T.Q H.%XA.x ..| | | : @ u u @ O # u O # k k %.5.S V O.XX3.m o.u.xXBXZXAXDXAXDX",
"s a > x C.&X%XG.&XW.P ~.Z.@ OXNXy 2 E 1 0 o o F.H.H.Y P C.~ x k.yXyXuXyX..@ u u u i d O % p 1 t v.:.O.MXHXgX4.1.`.`.`. XOXxXcXxX",
"E g ..X.Q &XC.F.-XQ.E.!.C.8.vXz.I ~ f 1 r 0 X A.F.A.I } x ^ z k.yXiXiXiX} p g T T R B.R C.C.C./ x.;.6.HXjX3.4.#.= D ` ] I.`._._.",
"^ ..yXX.Y H.h D.%X~ ` r.0.h.e $ H.I d 3 r 0 1 V.A.~ a k.yXj.{ j.yXiXiXX.$ L L f J K B.F.F.F.F.R n w 6.lX4.O.@.3.5.N.9.8.0.H o._.",
"..tXiXtXk U = V.T.f.SXvXvX4 + u R j i -.r r q V.F.f & X.tXtXyXyXuXiXtX% $ $ O O g T R A.B.B.A.A.J % #.zX3.4.@.O.h.VXAXVXmXvXf.] ",
"l 8 tXtX> x } J [ z.PXxXg.6 - % d k # +.t r q B.A.u   l ..tXiXiXiXuXX.l l u # O d g T L L ~ R R ] U.@.}.4.}.3.m #.#.m.DXAXM.r.`.",
"# { tXX.: ..X.@ C 4 y q.6 ; l z v % # O.-.-.r h R a b 2 { k.iXiXtXg ..k.K.G.g O u i d u L h f p ` / 3 3.3.#.#.3 #.4.3.}.z.f.8.o.",
"l ..: { ..X.|  .NXe y NXN. .l > O.+.3 -.-.-.-., u d O.V X.yXiXtXP Z.l ~ &XJ.k O d A.E # T L.P h E Y j c q 3 3 1 1 3 #.3.4.3.*._.",
"l :   { k.{ : BXmX6 g.xXN.5 ; @ O.w q -.-.%.-.q % m 6 & u yXk.x /.Q.k R./.) U # L %XR.S.&X~.Q W.Q.Y H.:X+X1.Y ^.Q.C.k , 3 #.@.M ",
"O G = } l.9 N.M.} l 4 6 6 o < q +.0 0 +.-.t :.r q w , u L.E x L.-X$XH.J.L.Z.G.H.~.;X&X*X=X&X!.-XQ.^.:XrXfXaXaXfXwX'.) j W ) m c ",
"N = 8.N.IXvXz.y.X.O + 9.$.< w q < < 0 w -.-.:.+.C.Y & z /.%XG.%X-X=X=X%XR.H.Q.,XeXqX:X<X7X4X=X:X0XGXdXdXJXJXKX6X(.I.j I A.Q.P s ",
"#., w.AXSXSXcXi.:   O 9.p.< , < < 0 0 w -.-.;.-.P.<X,XL.R.:X<X;XsX7X~.W.P.#XaXFXFXrXsXJXKXHXeX<X0XFXGXKXFX0X7X*XG.! Q K W.W.C.Y ",
"O.2. .w.f.mXz.8.    + g.9.X < 0 < , i M t w -.x.S 5XdX0X).;XFXFXFX#XZ.G.Q.6XsX7XrXsXFXdXwXJXKX2X,X,XrXrX1XW.S.-X!.G.;XQ F.f & j ",
"<.w.BX9.o 6 9.q.x u 1 VXq.X t < X < % h r w :.t w %X>X8XdX8XdXrXrX:XQ.L.) ! 1X8X7XrXrX;X$X;X7X7XP.J.,X4X=XP.) ) J.L.7X5XL J P U ",
"OXCXh.$.9.BXxXm.7 - > CXxX. q o o < o @.3 r x.t [.rX0XdXdXrXFX4X;X=X=XR.L.) @X7X<XaX1XQ.~.~.~.:XY M W !.%XL.W ! ! ) 6X@XD.Q.J.!.",
"N.xX&.9.z.cXe.9 7 - ; M.f., o @.{.o + ) a 0 x.t 5.eXrXGXdXwXdX<XF.W.R.I c s T.$X(.>X=X^.$XR.Q !.h X * P H.W h F.!.W.P P I j ) -X",
"N.$.D H 9.4 5 @ ; 8  .DX0.. < XX=.% / / P 3 :.:.-. X=XwX,XQ.<X$XW Y I & i j E.A.M W./.Y !.G.a Q s + % + s h h k Y.$X$ ! k A.=X&X",
"q.r.F M 1 4 S ; ; | } DXxX8 <.}.}.zXkX{.K 1 :.v.:.-.,XqXQ.j E.C.g ~ & O @ i Y & & ! S.  k E X + % $ h $ # + J R s H.E h B.R.G.Z.",
"$.H F M 6 4 6 8 { 7 7 z.z.8 z 4.}.[.I i k + t x.q 0 /.:XQ s k i @ : - - : + X + & & a + X i O + X % W C.A.Q C.T.T f d $ j a a W ",
"BX$.N c 5 e * 7 - - w.BX8. .: a W T.$X!.*Xv < 0 4 e.N.xXM.N.N.N.M.M.cXh.i.H ' o.` + + a +   % W h s G.T.H.E.E.D.C.d # d # : ..~ ",
"nX$.A C *.nX6 S ; . w.UXw.*.}.N h C.;X1X<X' e.vXVXZXZXVXVXZXZXZXVXpXu.y. X+X+X`.[ c j c j a + C.T.H.E.T.A.F.Y.B.E p # $ u j.tXM ",
"$.A n v  .vXe.2.- . 8.DXf.$.}.}.h ).FXfX+Xm.AXDXDXAXAXSXAXZXmXpXu._.`.+X`.` D A ;.$.C./ ) S./ H.E.R.T.E.H.K B.D.V.J $ l ..yXuXx ",
"q.2 n 1 w.M.=.0.- - w.M.q.5 }.>.W.fXdX Xe.nXnXvXvXcXbXxXOX X X`.`._.] H t.q.%.x.v.t P T.H.E.Q.E.T.A.E A.V.K d B.J u : | ..k.uXX.",
"$.2 V 1 f.AX=.: 8 - NXnX6 8 *.) Q.+X/ V  .o.o. XU._._._.U.U.` D 5 6 6 8.y w x.c.c.C R F.F.T.H.Q V.B.$ # d d $ L R # O u @ { yX..",
"b 2 b m 0.mX0.- 7 - vXIXS 7 ; k z D ` U.] ] ] ] [ U.`  . . .w.g.cXvXnXe.< w c.;.7 u R h d D.L i L E p # p k s T F.B.K g : X...} ",
"*.2 V b q.N.8.=.7 8 l.IX .6.m & ` ] ` 0.0.i.f.N.OX] f.vXmXVXZXZXAXAXn.x.t w O.z - O u # f V.g $ O O i # J A.A.T d g g u { l   { ",
"1 3 V 1 f.VXt.}.S 8  .nX7 $.>.l u.xXmXVXSXAXDXSX X`.i.xXAXAXAXSXZXn.-.v.;.1 D +Xz { : . k T # K J $ $ # P A.H.L # d f : - u @ ..",
"* m 5 &.w.vXp.}.S - h.9.6 <.p.vXDXPXDXDXAXZXvXy.'.o.8.g.VXVXZXMXn.;.v.:.5 > ` ]  .} | . s s # V.T.E W g E s h f p U p @ g E : ..",
"3 1 m *.h.f.5.7.0.; h.e.h.q.8.N.z.N.vXm.p.t.' `.+X_.r.r.r.%.e.;.t :.4.= D D ] [ { | 8 - % O J V.T p U f B.i u i $ c ( k d J u { ",
"S 2 *.*.CXvX5.7.6.$.g.mX9.e.mXVXVXZXOX] _.+X+X+X_.o.] x F bXn.;.:.+.1 = ` = ` +Xk.| - O .   J V.i i J # T s h / j % , a @ g : : ",
"5 A =.<.NXvX5.7.7.f.f.q.%.VXDXSXPXpX_.o.[ +X+X_.` ` D f.VXnXc.c.c.1 i j c } | M X.| - ; . O g K O J J + $ i i j M s + 1 2 p u @ ",
"1 &.<.p.w.e.7.5.s.hX%.g.ZXLXSXDXpX`.] 8.6 x  X+XH z.bXVXnX:.c.c.%.O z a O j.j.| k.8 7 3 3 , p d O L g i j % # & v v * , v $ d # ",
"$.<.5.d.CXf.5.6.7.+.t M.nXmXmXcX` _.0.vXN.q.V ( D w.MXn.-.v.b.;.& $ @ = H | j.j.k.8 6 #.3.m i s c h k / >.+.1 % b V V F v # O   ",
"$.,.5.XXBXh.7.5.e.g.n.g.g.f.[ [ _.U.h.mXcXn.n.q.e.e q 0 w v.:.+ & @ B ,.oXC j.k.j.- q #.4.4.j M >.( c O.#.3.3.m % 1 b F a     @ ",
"S <.5.q.9.N.g.%.ZXDXVXbX X_.`. X X+X_.xXDXAXAXZXnXx.:.t w -.5 t.N z jXoXlXzX7 j.} + +.#.+.3._ >.[.O.+.O., 3 q +.m X 5 F 2 O O { "
};
