/* XPM */
static char *result[] = {
/* columns rows colors chars-per-pixel */
"64 64 255 2 ",
"   c #1A3105",
".  c #263A08",
"X  c #185805",
"o  c #13500A",
"O  c #2D4909",
"+  c #265B01",
"@  c #1B6704",
"#  c #1C6D0A",
"$  c #276703",
"%  c #277806",
"&  c #367A08",
"*  c #2D6E12",
"=  c #1C5432",
"-  c #2B5128",
";  c #17663F",
":  c #307332",
">  c #495914",
",  c #194B47",
"<  c #175645",
"1  c #1C5446",
"2  c #1D5B47",
"3  c #1B5448",
"4  c #1D5B48",
"5  c #235B47",
"6  c #215648",
"7  c #225C48",
"8  c #1E6546",
"9  c #1E644A",
"0  c #1B7557",
"q  c #236546",
"w  c #296B47",
"e  c #23654A",
"r  c #2A654A",
"t  c #256B4A",
"y  c #2B6C4B",
"u  c #326C46",
"i  c #326D4B",
"p  c #267346",
"a  c #25744C",
"s  c #2C734C",
"d  c #267A4D",
"f  c #2C7A4D",
"g  c #387944",
"h  c #32744C",
"j  c #3C754C",
"k  c #337B4D",
"l  c #3B7C4D",
"z  c #286A53",
"x  c #336D51",
"c  c #2D7551",
"v  c #2C7B51",
"b  c #267958",
"n  c #327651",
"m  c #3A7551",
"M  c #347C52",
"N  c #3C7C53",
"B  c #36795C",
"V  c #307E66",
"C  c #447A4C",
"Z  c #437D4D",
"A  c #557C44",
"S  c #437D52",
"D  c #437955",
"F  c #4A7E6A",
"G  c #288509",
"H  c #2C8C0B",
"J  c #38870A",
"K  c #2D940D",
"L  c #34980D",
"P  c #2A8816",
"I  c #32A40C",
"U  c #36A612",
"Y  c #38B413",
"T  c #338E31",
"R  c #3DA92E",
"E  c #45930D",
"W  c #43A911",
"Q  c #4A9D30",
"!  c #3CC531",
"~  c #2F884E",
"^  c #33824E",
"/  c #3A8748",
"(  c #3C834D",
")  c #2D8353",
"_  c #2C8857",
"`  c #338352",
"'  c #3C8452",
"]  c #358A55",
"[  c #3C8B54",
"{  c #36825B",
"}  c #358A5A",
"|  c #3B8C5A",
" . c #359759",
".. c #34945B",
"X. c #3B935C",
"o. c #34AE5C",
"O. c #2D8968",
"+. c #398866",
"@. c #3C9463",
"#. c #3D9A64",
"$. c #3A9668",
"%. c #3C8D76",
"&. c #3B9474",
"*. c #37A668",
"=. c #45834E",
"-. c #48884C",
";. c #5D884D",
":. c #438453",
">. c #4B8554",
",. c #438B53",
"<. c #4B8C54",
"1. c #478459",
"2. c #438C59",
"3. c #4C8B5A",
"4. c #558956",
"5. c #538D55",
"6. c #538E59",
"7. c #449255",
"8. c #4B9355",
"9. c #4A9957",
"0. c #43935B",
"q. c #4C955A",
"w. c #4C995A",
"e. c #549456",
"r. c #589856",
"t. c #54935A",
"y. c #59955B",
"u. c #539B5B",
"i. c #5B9C5B",
"p. c #629550",
"a. c #649B5B",
"s. c #4EA65F",
"d. c #56A45B",
"f. c #5CA25C",
"g. c #63A45C",
"h. c #6AA65C",
"j. c #65AB5E",
"k. c #75A75D",
"l. c #6AB05B",
"z. c #478B68",
"x. c #439463",
"c. c #4C9567",
"v. c #429A65",
"b. c #439D6B",
"n. c #569767",
"m. c #549C63",
"M. c #5B9C63",
"N. c #5A9C6C",
"B. c #478D79",
"V. c #528A79",
"C. c #469876",
"Z. c #449C7B",
"A. c #569875",
"S. c #699A65",
"D. c #689A76",
"F. c #47A36C",
"G. c #55A567",
"H. c #5CA364",
"J. c #5BAB62",
"K. c #45A274",
"L. c #4AA577",
"P. c #4AA27C",
"I. c #57A678",
"U. c #59B17A",
"Y. c #68A563",
"T. c #65AA62",
"R. c #6BAC63",
"E. c #74A964",
"W. c #7CAC64",
"Q. c #77B567",
"!. c #7BB366",
"~. c #70B06C",
"^. c #65A879",
"/. c #65B479",
"(. c #83B363",
"). c #87B967",
"_. c #87B26B",
"`. c #8BBC6C",
"'. c #94BB66",
"]. c #94BC6C",
"[. c #8AC16C",
"{. c #97C36A",
"}. c #99C574",
"|. c #A2C56D",
" X c #A9C96E",
".X c #A6C975",
"XX c #ACCB74",
"oX c #B2CD77",
"OX c #B0CE76",
"+X c #B7D27D",
"@X c #479D82",
"#X c #549787",
"$X c #6B9A8B",
"%X c #4BA685",
"&X c #4DAA8A",
"*X c #53AB8B",
"=X c #56A988",
"-X c #56B387",
";X c #5AB38C",
":X c #4EAD93",
">X c #56AB92",
",X c #59B396",
"<X c #65AA89",
"1X c #7DA98A",
"2X c #66B88A",
"3X c #77B889",
"4X c #64A995",
"5X c #75A697",
"6X c #66B898",
"7X c #6EB2A1",
"8X c #77BAA7",
"9X c #58C086",
"0X c #71C091",
"qX c #7EECB0",
"wX c #869E87",
"eX c #8CB095",
"rX c #8FB9AD",
"tX c #98B5A8",
"yX c #A7BEB1",
"uX c #8BC48D",
"iX c #8AC898",
"pX c #ADD083",
"aX c #B7D385",
"sX c #8DC9AB",
"dX c #99C6B9",
"fX c #ACC8AF",
"gX c #A8C5BA",
"hX c #88EBB7",
"jX c #B2EDAF",
"kX c #D1FFB8",
"lX c #A7CBC2",
"zX c #B7CBC5",
"xX c #ACD4C6",
"cX c #B8D2CB",
"vX c #BDD4D1",
"bX c #ABE2CA",
"nX c #C2D2CC",
"mX c #C4D3D3",
"MX c #C9D5D7",
"NX c #CBDAD6",
"BX c #CDDCD9",
"VX c #D3DBD7",
"CX c #D3DCDA",
"ZX c #DADDDD",
"AX c #CFE1DA",
"SX c #D6E1DD",
"DX c #D7DFE1",
"FX c #DAE3E3",
"GX c #D9E6E6",
"HX c #E3E6E5",
"JX c #E4ECEC",
"KX c #EBECEE",
"LX c #E9F1EE",
"PX c #EBF2F2",
"IX c #EFF2F5",
/* pixels */
"(.(.).E.(.{.{.).l.(.h.j.r.8.6.N (.|. X|.|._.g.^ ^ 8.9.l.J.J.s.9. . .` d a a d ) _ _ ; # H $ J W E & G J : 2.: * Y Y : s d v =   ",
"S.y.S.k.(.{.).).).l.l.g.8.r.3.S (.|. XXX X'.T.^ f 8.d.j.f.s.J.9.7.] ~ f a d ) _ o...o.T H % J E E & % J * ' 6.T P U R y s v     ",
"y.y.4.h.).{.{.Q.l.l.l.d.<.r.3.N _.|. XXXoX`.Y.( g 9.9.l.J.J.s.9.[ ] ^ p d a d _  . .....P G % & $ + J J $ k 3.1.T U Y f t c - . ",
"a.(.y.W.{.{.[.Q.l.l.l.9.8.q.1.S _.|. XXXoX`.k.,.f 7.d.l.T.d.G.0.7.] ~ d 0 a ~ _ ......*.O.* $ @ + * J $ $ : z.3.m P U T r c n . ",
"(.(.(.'.{.'.[.l.R.j.f.8.<.<.:.D (.|.|.oXOX].l.e.f -.f.R.j.J.s.,.,.~ ) d p ) ) _  . .$.*.*.&.: * @ $ X X : ^ :.,.' : I Y : z c O ",
"'.(.).{.{.).[.Q.T.g.8.7.<.,.1.S W.|. XoXoX[.k.r.^ 7.f.l.J.J.d.7.[ ] f p p d ~  . .] ..*.C.&.7XyXa.4.;.6.B z.g : # # K K * = = . ",
"'.).'.{.|.[.Q.l.j.f.<.8.<.,.S m (.|. XoXoX}.!.r.g ,.j.l.j.J.s.X.[ / d d d a ~  . ...$.$.K.&.zXFXZXCXSXvXB.+.B l X X G I X o     ",
"(.'.'. X X).Q.l.g.u.-.8.:.D N c a.|. XoXpX].k.i.^ ,.j.j.J.J.w.2.[ ] p d d ) ~  . .....*.K.Z.zXZXMXCXNXBXcXB.B D l X @ I K G & + ",
"[.{.}.+X}.!.~.g.f.8.7.8.( =.l i S.]. XoXoX|.W.a.,.-.T.R.j.J.9.[ [ ^ f d d ) ]  .X.X...b.K.@XzXZXBXBXBXNXFXlXz.B 1.l # K L H W E ",
"{.}.OX+X{.[.R.f.d.8.8.<.( l h 7 >.]. XoXXX}.!.a.<.,.j.l.T.J.7.2.[ ) p f d ^ ] X. . .@.K.P.B.zXFXBXBXBXBXCXeXR R R R P L U G L E ",
" X.XaXOX}.Q.j.d.u.,.8.,.l N i 7 S (. XoXoX}._.h.e.,.g.E.R.d.7.,.' ^ f d ) k ] #...} ..Z.Z.@XzXDXBXBXBXBXDXfXP I Y Y L L U G L W ",
"OXOXaX+X}.Q.g.u.8.<.8.,.l k j r u a.|.OXoX|._.h.y.<.j.E.R.d.2.[ ' f f d ) `  .#.X.] @.K.%X@XzXZXCXAXBXMXDXGXi.G L I H % L J H W ",
"pXaXaXpX}.Q.G.u.8.8.<.( l l y e x 1.]. XXX.X`.h.f.-.j.l.T.d.,.2.] f f d ) ~ X.#.X.} $.P.%X#XMXZXBXBXBXFXfXl.Q K G H G $ J J G U ",
"pXaXaXpX[.~.d.w.7.8.,.( k l e x n m S..X X.X`.k.f.5.g.j.g.u.2.[ ' f f d ) ] X.#.X.} v.P.%X>XZXCXCXVXBX~.P % G H K L H $ & J G H ",
"aXaXaX.X[.T.y.9.w.8.,.( m k 7 m 1.m F ].|.|.].k.a.u.y.h.g.9.2.,.~ k f d ) ] X.#.@.} $.%X%X7XZXCXVXBXMXD.k.p.U I I U U % $ J J % ",
"aXaXaX[.`.T.w.q.9.8./ k ' x e ' M.1.$XE.|.|.`.k.f.8.e.j.f.<.7.,.^ k f ) ] ] X.$...+.$.&X&XdXZXCXBXVXCXGXnXQ % G & G L % $ & J % ",
"aXaXOX[.Q.J.u.9.w.7./ / ' y y 3.M.tXmX1X_..X].E.i.<.8.g.d.<.7.,.^ f s ) ] ] #.#.@.| C.*X%XdXZXCXCXBXBXBXA $ ;.eX: @ L H $ & E & ",
"aXaX X[.Q.J.w.9.w.,.-.' M x y N.fXMXMXtXk.|.].!.g.,.<.a.r.8.,.[ f s f _ ] X.#.#.$.+.Z.*X:XyXFXCXCXBXBXBXyXzXCXS.G L Y Y G $ & & ",
"+XOX XQ.Q.d.w.w.w./ =./ M z c.xXMXmXMXeXh.|.]._.g.,.=.g.f.8.0.' k s s ) ] | #.#.$.+.K.,X&XrXZXCXCXBXMXDXJXfXQ J W Y ! Y H + & & ",
"+XOX}.Q.~.H.9.u.8./ ,.[ c z.hXbXmXvXMXyXS.{.]._.g.=.l r.r.8.,.,.k s v ) ] X.#.F.@.@.@X,X>X,XDXDXFXNXSXmXwX$ $ L I I K G % + + > ",
"OXOX{.Q.~.H.9.w.7./ ,.2.s 9XhXbXmXmXMXyXE.].'._.g.:.l a.y.7.7.' f s f ] } X.F.#.@.&.Z.,X:X6XHXzX5X#XrXzXwXA : * X o o @ % % X O ",
"XXOX[.Q.T.H.8.u.[ ( ,.7.e 9XqXhXmXmXMXzXW.].'.E.g.:.l r.r.,.,.( k s f ~ } X.#.F.$.z.%X,X&XlXtXV O.%.O.7XJXBXCX$X8 p P H K G o O ",
".XXX[.Q.T.H.u.u.,.( ,.0.2 C.hXxXMXmXmXmX_.'.'.(.g.:.l p.u.:.[ ^ s s ] } } X.#.b.@.b.*X>X5X5XV %X7XsX>X%.zXGXJXvXa P # @ @ @ X   ",
".X.X[.R.T.H.e.9./ ( 8.2.e z qXbXMXmXMXyX_.'._.(.g.l g r.r.' ' l k k ` ] | #.#.C.x.Z.*X&X>X%.Z.8XFXGXdX&.dXJXGXeX# o o o @ @ X + ",
"}..X[.l.H.H.u.9.( ( 8.2.y 1 2XbXMXmXMXtXk.'.'.(.a.g j r.5.[ ' k k M ] } X.x.#.F.&.P.=XZ.+.Z.7XvXrXvXmX=XcXGXeX;.D.F < @ X X * * ",
"}..X[.T.T.J.u.q.( ( 8.,.n 5 z.vXmXmXmXwXk._.(.(.y.u j 5.8.=.' l M l ` [ | @.b.F.x.Z.%X&.B.>XcX#X0 $XvX,XNXGXnXAXIXGXeX* o s M p ",
"}.}.[.T.Y.H.d.8.( ' 9.,.x i D.VXmXMXgXF (.(.'.E.d.u j 5.,.' ' l k ` ` } X.#.#.b.b.Z.Z.+.C.sXrXV %.B.8X*XNXSXGXGXGXJXGX1.2 M c c ",
"}.[.[.T.H.H.u.0.^ ' 8.:.y j 6.nXMXMXtX;.W.(.(.k.e.u l -.8.' ( M M ` ] [ X.#.F.b.C.K.C.C.*XcX4X>X:X#X4X7XSXAXFXGXGXJXAXz t k h b ",
".X{.`.T.H.H.r.7.' ' 8.,.u N 4.gXMXMXD.;.W.(.(.a.8.: ( >.-.[ ( k m ` ] [ @.v.F.b.Z.Z.C.Z.8XmX:X8X@XB.@X8XFXAXFXGXFXIX5X8 s h M a ",
"}.[.`.T.H.H.9.0.' ( 7.<.y :.4.tXDX$XD p.S.k.W.a.<.r ' =.<.[ ' k ` M ] [ @.#.K.b.K.Z.Z.*XdXMX>XlX8X$X@X8XFXSXFXGXLXrXq y s M v z ",
"}.[.`.T.G.T.q.,.[ ' 7.,.h S -.tXeX6 D ;.a.k.S.p.<.u =.=.,.( ` h M ` ] | X.v.F.b.P.K.#X:XlXDX7X7XdX4X:X8XFXBXGXGXrXt f t c c s t ",
"}.].Q.H.m.H.w.2.' ' ,.8.y D 4.D , D D F a.k.k.y.:.u :.=.:.^ ( h M ` ] ..x.F.K.b.Z.Z.%X:XlXDXdX:X#X>X,XlXSXGXvX$Xp f y s c y z : ",
"}.`.!.H.m.H.w.7.' ' ,.8.i j 4.i 6 m j >.a.a.a.r.:.g ,.Z ( ` l h ` ' [ X.#.F.F.b.L.P.&X:XlXSXVXMXxXdXxXCXCXgXt a ` s t s c c : > ",
"}.`.!.Y.u.H.w.7.' ( ,.,.l j >.S 6 i D 4.a.a.e.r.l ( =.l :.k ` h ` ` ] @.x.F.K.K.L.L.:X,XxXZXCXZXZXZXCXNXDXA.f [ ) t s c s y O > ",
"{._.~.Y.u.H.w.7.[ ' ,.<.C h 4.S 6 i C >.5.5.4.<.l :.,.l l ` k k M ] ] v.F.F.L.F.%X%X:X8XCXCXCXVXBXNXMXGXgXk ] ` p y M s i r . > ",
"}.`.!.R.i.H.u.7.` ` :.8.S l >.4.5 i D >.>.4.<.<.l ( ( k M k k f k ` ..@.F.L.L.L.L.&X,X8XDXVXCXCXBXBXMXMXz.) ] f t s c y s 5 . . ",
"[._.~.~.i.G.m.7.[ ` :.,.<.Z >.4.u 7 D D S :.S l j :.' ^ k s h s M ` X.v.F.L.L.L.&X=X,X6XzXZXCXVXBXNXBXcXB ) ) t s c s t y e   O ",
"`.`.~.Y.y.G.G.7.[ ` ' 8.<.:.<.4.j 7 i C S i ` ] b p s g f k f h l ` @.v.L.I.L.U.%X*X,X,XlXZXVXZXCXNXDX1Xp ) f t s n s y e c - . ",
"]._.E.T.f.m.G.0.' ` ' ,.<.,.>.4.m M i x k o. .` h i e y f f f s v } @.b.L.U.L.-X%X*X,X,XrXCXVXVXNXCXgXp f f t s n s y t r n :   ",
"_.`.E.Y.i.t.G.w.[ ' ' 2.,.<.>.5.D ` t i o...h h k M g s s s f h ` ] @.F.U.U.U.-X&X:X6X:X8XZXVXZXSXJX$X2 ) a s s c y t t p m r   ",
"Q.`.Y.Y.M.w.m.w.,.` ' ,.,.,.:.5.>. .M o._ y N h s m k s s p s h M [ #.b.U.U.U.-XL.,X,X,X8XZXZXCXgX<Xt v f s s M f y t y s ' x.. ",
"Y.!.~.S.M.q.m.v.[ ] ` ,.=.,.>.5.,. .o.o.y M l i i h s s s s s s v } x.F./.U.-X-X=X,X,X,X8XDXMX$Xb 8 d f d t s s c t p h M q.B.- ",
"S.Q.E.M.M.w.m.w.[ ' ` ' [ ,.-.4.l o.o.z e m k y s h h y s s t s ` } x.G.U.U./.-X*X,X6X:X7XHX$X_ O.b ) f d a c c s s n ` -.z.A.- ",
"u.E.E.m.S.q.q.G.0.^ ` ` [ ,.<.S ~ o.o.e s k k i y i r p s s p s M | $.G./.U.2X-X=X,X,X:X6XrX0 &.b ) ) s a y s y y c m ' 4.n.N.- ",
"r.Y.R.n.H.q.q.c.0.] ` ` :.,.,.j ] o.y 7 t n h y y y y t p y p h M } x.U.U./.2X-X,X,X,X:XdXV.V O.b _ v d t s s s s M :.<.t.N.;XA.",
"i.y.Y.y.q.q.0.x.w.` k ) ' ,.' c M M y r e y h e t r y t s t e s M | 0.G././.9X-X;X6X:X,XMXB.b _ _ ) f a y c s c c B <.6.N.m.9.m.",
"M.r.y.5.<.u.,.0.w.| k ) ` ' h v ) c t y 7 t h r e e r t t e e h M ' x.I././.0X-X,X,X:XdXKX5X0 O._ ) s a s y s n N ' <.y.N.G.% % ",
"u.3.e.<.:.8.2.| v.[ ` M ] l M M v v y j 5 e y q e r e p e 7 e c ) ` 0.G././.0X;X0X,X8XGXHX5X0 } ) c s s s n c B :.3.6.M.^.2X: $ ",
"i.<.t.8.:.9.3.[ 0.X.` ` ^ M ( m M s S Z r 5 y 5 7 9 y e e 7 q p v ' x.G.U.0X0X;X6X,XdXJXMXV _ } M f s s s m M B 2.6.y.S.=X7.# H ",
"H.y.,.e.:.<.q.2.0.0.M v v ^ M f h n S S i 1 r 5 2 q e e q 4 e u M ` | G./.0X0X;X,X*XdXJXzX0 _ v s p s h m M ' :.3.e.y.^.8.G L U ",
"N.H.t.8.:.,.8.0.[ 0.` v v f ` k h k >.Z j 1 7 5 1 e e q 2 4 9 s M M 0.F.U.0X0X;X6X&XrXKXyXa } M f y s h n M N 1.t.e.S.-.# G K G ",
"N.N.m.u.,.:.7.2.|  .| f f f ^ m h S >.S S r 5 5 3 2 e e 2 2 q u M ` 2.G.U.2X6X;X6X&X%XBXV.b { n s y s h m D { <.6.e.N.m. .~ P I ",
"D.H.N.M.i.:.7.7.X.} ] f s f h M k N >.>.D u 6 5 , 1 e e 2 3 e s M ` 2.F.I.4X2X;X,X&X&.gXz ] M k s y s m N N :.6.5.5.m.A.b./ G I ",
"N.n.m.n.M.m.' 7.[ ] ] f a s s k k :.Z Z S C 6 6 3 3 5 q 2 2 7 s h M 2.F.P.2X;X;X;X%XV V.z M k s u i s N N 1.4.e.t.r.z.z.+.: i.fX",
"<Xn.N.n.m.H.q.:.,. .] v t p s k m ' Z >.S C i 1 , 3 6 e 4 2 4 s h k | I.A.2X-X=X&X%.3 3 v ) k p y s m S 1.>.6.5.y.z.x.z.C.fXIXAX",
"3X^.n.z.z.N.n.q.[ ] ` b 9 a t s M ' C S S C j 5 , , 1 5 6 2 2 s h k [ L.I.-X=XP.Z.b < z c m i y u s m :.1.3.6.t.5.<.c.c.<XLXHX-.",
"uX/.^.n.z.c.N.6.9.^ ) v a 9 8 f c l j l Z =.Z u , , 1 4 3 1 5 y s h | C.A.%XP.C.O.3 2 s s h t y y m S S 1.6.y.5.6.t.n.c.lXIXNXa.",
"iXeX^.I.V.z.c.z.c.| ) ) a q e t s M l j C Z Z C , , 3 7 1 3 5 y h n ` C.A.%X&.+.z 2 e a s s w q n N D :.>.5.5.5.6.t.A.<XJXLXKXKX",
"iXuXeX/.N.z.c.n.x.z.} v a e 8 q p m h j C C =.Z i , 3 3 3 1 7 t y s ` b.Z.B.+.9 9 9 t s y e w y m m N :.4.6.5.y.y.N.A.rXIXKXKXKX",
"iXiXuX^.^.V.z.z.z.1.+.` a 8 9 8 t s h j j j Z >.j , , 1 3 < 5 w s i B z.+.b z 9 9 q t a y e q s m m D :.4.e.y.5.y.N.=XGXPXLXKXKX",
"iXiX0XuX<XA.V.z.z.z.B +.) 9 9 9 8 p h h u C j =.S 7 , , 1 < 2 r y y n +.b e e 9 9 q 8 q e 9 r n h m :.4.6.e.t.M.N.A.xXPXKXPXKXLX",
"jXiXiX0X3X<XN.V.z.z.+.{ { c 2 2 9 q s i u g C C >.u , , 3 , 6 e e z x z e z z 9 q 9 q t q e y i i m :.6.y.t.n.N.I.4XJXLXLXLXLXJX",
"kXiXiXiX3X3X#XA.V.z.z.+.V B t 4 e q y y u u j C :.j , , 1 3 1 e e t e e 9 9 9 9 9 9 8 q q y i u x :.6.n.m.N.A.=X@XdXIXLXPXPXPXLX",
"kXjXsXsXiX3X3XA.V.A.z.+.+.{ b z 2 q q r u u u j Z :.3 , , , 3 7 e 7 7 9 9 9 4 9 8 9 q q e y r u N >.m.M.N.D.=XB.z lXIXLXLXPXKXJX"
};
