/* XPM */
static char *result[] = {
/* columns rows colors chars-per-pixel */
"64 64 254 2 ",
"   c #77702D",
".  c #877A34",
"X  c #7FC52F",
"o  c #91AC1E",
"O  c #948B3C",
"+  c #9B9C3D",
"@  c #99AC2E",
"#  c #A4A83A",
"$  c #ABB131",
"%  c #A8B736",
"&  c #8DCD39",
"*  c #B5C63C",
"=  c #9C9444",
"-  c #A09743",
";  c #9EA144",
":  c #A8A74B",
">  c #B4B84C",
",  c #ABAC54",
"<  c #AEB051",
"1  c #B6B859",
"2  c #89966D",
"3  c #8D8775",
"4  c #978C75",
"5  c #889676",
"6  c #8C9575",
"7  c #8D9C75",
"8  c #929176",
"9  c #9D9375",
"0  c #929C76",
"q  c #9B9B75",
"w  c #A68E75",
"e  c #A39475",
"r  c #A99675",
"t  c #A39C76",
"y  c #AB9A76",
"u  c #B39C75",
"i  c #8AA676",
"p  c #95A275",
"a  c #9AA476",
"s  c #95AA76",
"d  c #9CAB76",
"f  c #9AB775",
"g  c #A5AD6A",
"h  c #ABB56A",
"j  c #B8B868",
"k  c #A4A475",
"l  c #ABA675",
"z  c #A4AC75",
"x  c #ACAD75",
"c  c #B4A375",
"v  c #BBA576",
"b  c #B2AC76",
"n  c #BAAD75",
"m  c #A5B275",
"M  c #ACB375",
"N  c #A4BA75",
"B  c #ACBB75",
"V  c #B3B475",
"C  c #BBB475",
"Z  c #B4BB75",
"A  c #BBBB75",
"S  c #B8BA78",
"D  c #C1BB5A",
"F  c #C3BD69",
"G  c #C2A776",
"H  c #C4AB76",
"J  c #CAAD75",
"K  c #C3B575",
"L  c #CCB475",
"P  c #C3BB75",
"I  c #CABC75",
"U  c #C2BA78",
"Y  c #D1B575",
"T  c #D3BB76",
"R  c #B5CB4E",
"E  c #B3E756",
"W  c #9DC576",
"Q  c #9AD175",
"!  c #AEC263",
"~  c #BAC665",
"^  c #BCD36A",
"/  c #ABC576",
"(  c #A5C876",
")  c #ACCB75",
"_  c #B5C275",
"`  c #BBC375",
"'  c #B3CC76",
"]  c #BCCB75",
"[  c #B9CB7C",
"{  c #AAD778",
"}  c #BCD375",
"|  c #BBD37C",
" . c #B5D878",
".. c #BBDB7C",
"X. c #AAFA63",
"o. c #B5FB67",
"O. c #A7E77B",
"+. c #B8E77C",
"@. c #ABF47E",
"#. c #BAF87C",
"$. c #C7D14D",
"%. c #C5C85C",
"&. c #D4DC59",
"*. c #D3E55C",
"=. c #C4C46C",
"-. c #C7C96A",
";. c #D0CB68",
":. c #CAD56B",
">. c #D4D96A",
",. c #C3C375",
"<. c #CBC475",
"1. c #C4CB75",
"2. c #CBCC75",
"3. c #C5CB7A",
"4. c #D2C475",
"5. c #D9C476",
"6. c #D3CC75",
"7. c #DBCD75",
"8. c #C3D375",
"9. c #CCD375",
"0. c #C3DB75",
"q. c #CDDB75",
"w. c #C4D37C",
"e. c #C8D77B",
"r. c #D4D475",
"t. c #DBD475",
"y. c #D4DB75",
"u. c #DBDB75",
"i. c #D6DA7A",
"p. c #E0D572",
"a. c #E3D575",
"s. c #E3DB75",
"d. c #EADC76",
"f. c #E2DD7A",
"g. c #D7EA68",
"h. c #C8F268",
"j. c #D8F56A",
"k. c #CAE476",
"l. c #C8E678",
"z. c #CDEC7B",
"x. c #D4E275",
"c. c #DCE375",
"v. c #DDEB75",
"b. c #D7E878",
"n. c #D3ED7A",
"m. c #DBEB79",
"M. c #C8F77C",
"N. c #DDF273",
"B. c #D8F879",
"V. c #E4E46C",
"C. c #E3F76E",
"Z. c #E3E375",
"A. c #ECE375",
"S. c #E3EC76",
"D. c #EBEC76",
"F. c #E9E57A",
"G. c #E3ED79",
"H. c #ECEE79",
"J. c #F3E576",
"K. c #F3EB75",
"L. c #F5E977",
"P. c #E5F275",
"I. c #EBF376",
"U. c #E5FA72",
"Y. c #ECFA75",
"T. c #E5F37A",
"R. c #ECF47A",
"E. c #E6FC7C",
"W. c #ECFA7B",
"Q. c #F3F475",
"!. c #F6F876",
"~. c #F1F57B",
"^. c #F2FB7B",
"/. c #7EFF9D",
"(. c #8B9A80",
"). c #8BB090",
"_. c #AED287",
"`. c #B9DB83",
"'. c #BAD884",
"]. c #B4DC95",
"[. c #9BE988",
"{. c #87FF9E",
"}. c #97FE97",
"|. c #AAEB86",
" X c #B8E788",
".X c #A6F785",
"XX c #ABFC85",
"oX c #ACFE8B",
"OX c #B8FC87",
"+X c #B3FE8C",
"@X c #ACEB9A",
"#X c #B7E796",
"$X c #ABFE91",
"%X c #A2FE9C",
"&X c #B5FE93",
"*X c #B8F997",
"=X c #98CCA9",
"-X c #A1D5A0",
";X c #90FAAC",
":X c #A8FEA7",
">X c #B6FBA6",
",X c #BCFCAD",
"<X c #ADE7B7",
"1X c #AAFFB7",
"2X c #B9FCB6",
"3X c #C8DA83",
"4X c #C7E888",
"5X c #D4E587",
"6X c #C6FC87",
"7X c #D7FC85",
"8X c #C4EA98",
"9X c #D4EE92",
"0X c #C2FE94",
"qX c #CBFF94",
"wX c #C7F89B",
"eX c #CCFF9B",
"rX c #D6FB9A",
"tX c #ECFD83",
"yX c #E8FD89",
"uX c #F2FD86",
"iX c #E6FC94",
"pX c #C9EAA1",
"aX c #C4FEA4",
"sX c #CCFCA6",
"dX c #C3FEAC",
"fX c #D3FCA4",
"gX c #DBFEA5",
"hX c #D4FEAA",
"jX c #DBFEAB",
"kX c #CBFDB4",
"lX c #C5FEB9",
"zX c #D7FEB8",
"xX c #EEFFAA",
"cX c #E4FEB8",
"vX c #9DE4C1",
"bX c #9FE9C3",
"nX c #A4EBC4",
"mX c #A5EAC5",
"MX c #B5F7C9",
"NX c #B0FACF",
"BX c #C7FFC7",
"VX c #D7FFCB",
"CX c #CDFFD1",
"ZX c #D7FFD7",
"AX c #E4FEC9",
"SX c #FBFFC2",
"DX c #E6FED8",
"FX c #FCFFDB",
"GX c #DDFFE5",
"HX c #ECFEE8",
"JX c #F7FFE8",
"KX c #EDFFF1",
"LX c #F7FEF6",
"PX c #FEFFFE",
/* pixels */
"` ,.3.,.,.,.U C n P <.3X8X8X].@X:X1X1X1XHXPXPXPXPXPXPXPXPXPXPXPXDXsXaXoX|..X#.M.k.q.9.] Z j j h k g h < ! > : : ; ; + @ @ @ o o ",
"A ] ,.` A P A n n P 3.3XrX8X-X@X2X1X:X1XGXPXPXPXPXPXPXPXPXPXPXPXVXdX*XoX@.@.M.M.k.q.9.` C V Z h g g ! ! ~ 1 , : ; ; ; @ # $ o X ",
"_ ` ` S C A A n n ,.w.9XgXpX].@X>X1X1XlXCXLXPXPXPXPXPXPXPXPXPXHXsXaX&XXXO.@.M.B.k.k.q.,.Z j ` j M h / ! ^ ~ j , , , ; % $ $ & & ",
"S ] A S P ,.P C H P e.9XjXpX#X@X,XMX2XlXBXHXPXPXPXPXPXPXPXPXPXLXzXwX&XoXO.+.M.M.k.q.9.1.C A _ Z h h h ^ ^ ~ 1 1 , , > > % * % & ",
"Z ` S A A P S n n L 3X9XgXpX#X@X,XlXMXlXVXGXPXPXPXPXPXPXPXPXPXPXDXaX+XXX[.O.M.n.n.x.9.,.A A ] _ Z Z ~ ^ 8.~ j 1 1 < > > $.* $ & ",
"Z ] ` Z A A P C n K 3X9XjXpX#X#XdXBXkXlXZXCXHXPXPXPXPXPXPXPXPXPXHXsX+X.XO.+.M.n.b.k.2.,.A ` 1.] _ ` ] ^ 0.-.~ 1 j 1 1 %.$.$.* R ",
"Z ] A S A ` P C n C 3X5XgXjX].#X>XlXVXlXVXCXZXPXPXPXPXPXPXPXPXPXHXsX*XXXO.+.n.n.n.y.2.,.` ,.1.] ` ` ^ } :.-.~ ~ 1 1 %.$.&.$.$.* ",
"Z _ ` Z Z A A C n C 3.5X9XpX].@X>X2XlXkXVXZXCXZXGXKXPXPXPXPXPXPXJXzX*X|.O.M.M.m.b.y.<.,.` =.] ] ] ` 1.:.x.:.1.=.F F $.&.&.$.* E ",
"_ Z ] Z V S A C n n ] 3X9XwX'.].@X,X2XdXVXDXZXZXBXCXPXPXPXPXPXPXPXVX+X|.+.z.n.m.m.9.2.,.,.1.] ] 1.` 8.q.y.:.=.2.=.=.:.*.&.&.$.E ",
"_ Z _ S Z V A A n C C 3X4X8X#X].@X>X2XdXVXDXVXZXCXBXHXPXPXPXLXPXPXzX+X.X+.6Xz.n.b.9.<.<.3.1.] ] ` ] -.0.q.q.8.-.=.;.*.g.*.V.*.X.",
"` S ] Z Z x A A C n S e.4X8X X].@X>X,XdXlXAXAXDXCX2XkXJXPXPXPXPXDX#X+XOX+.z.n.b.y.1.2.2.2.1.] ] A ,.9.0.y.:.9.-.=.>.g.g.*.j.o.X.",
"_ ` _ Z V M V S S n V 1.9.4X4X X@X*X,X2XkXVXAXDXZXdXdXdX>XHXHX<X@X+XXXOX6Xz.n.b.x.9.2.2.1.1.] ] A 1.9.q.y.y.;.2.2.:.g.N.j.h.h.o.",
"_ ] _ Z B M V C A C n ` 9.4X X X|.@X>X,XkXVXAXDXkX&X*X0XOX|._.O.oXXXXXXXM.z.n.b.y.2.2.2.8.8.] ] A 1.q.q.q.y.2.2.9.y.g.U.j.j.h.o.",
"B _ _ _ M Z x V C C C Z 1.3X4X]._.@X>X2XzXzXAXAXeX&X+X+X+X@.@..X.XXX.XO.#.z.k.x.q.2.2.2.9.} 3.` A 2.q.y.x.r.2.r.6.c.N.j.C.j.h.#.",
"m _ _ Z M M M x x V b V ] w.4X+. .|.@XdXkXzXzXcXgX&X&X*X&XoXoXoXXXoX[.{ ..k.b.y.9.2.2.w.0.8.] ,.A 9.q.y.y.q.r.6.>.u.C.U.U.j.B.#.",
"d B _ B N M M x x M V b S } 3X| ) |. XaXhXsXsXgXgX0X0XaXaX*X&XoXoX.X) ) } 0.e.q.9.2.<.1.8.] P A ,.q.x.x.y.>.6.r.u.c.U.U.U.U.B.#.",
"d m B N z z M M M V V x V ] }  ./ { { *XeX0XaXsXgXqXrXrXhXhXwX&XXX{ / } } 9.8.9.2.2.9.1.1.A P P 1.k.b.y.y.u.r.y.s.S.U.Y.Y.U.B.#.",
"d a z z d a z z z M x V b V } } N _  . XqXqXsXhXgXxXgXrXgXzXaX+X.XQ ) ' } 1.9.2.2.2.2.2.,.S P C 1.x.x.u.u.u.t.t.u.P.Y.Y.Y.U.B.OX",
"a a p d a p d m M x M x l M ` ] B B ' ..6XqXeXfXjXgXrXqXhXcXhX0XOX@.( / ] 8.1.2.2.,.<.P V P C C 9.x.x.u.u.u.t.s.Z.S.Y.Y.Y.E.7X+X",
"a a 0 a q q p z m M x b M l N ] / x ] #.OXsXjXhXeX7XqX0XeXjXhXeX0XOX|.( ) ] 2.1.2.I ,.A C K n S q.x.c.u.u.u.s.s.A.Q.!.Y.E.7X6X$X",
"0 0 p p p q p d m x x S A x z _ Z z B { OXfXzXjXeXrXcXgXsXjXjX0X6X6X6XO.( ] 2.2.<.I A C C C n ,.y.y.t.u.t.s.Z.A.K.Q.Y.Y.E.7XOX}.",
"7 6 0 d a p p p z N M M V M x B Z z M ]  .6XeXfXrXjXAXcXgXcXjX0X.XO. .) B ` 2.<.I ,.S n C c C 2.y.r.y.t.u.s.A.J.Q.!.!.W.7X7X+X}.",
"2 0 7 p a a 0 7 p m M x V S x k B M l ,.8. .OXqXwXqXrXfXeXeXhXqXOXW m M S A ,.<.I U C K n l ,.r.r.r.u.u.Z.A.d.L.K.!.Y.E.7XOXXX}.",
"p f a 0 p a 0 7 7 d m M x V M k M V k V y.z.OX6X6X+.z.6XOX|.OXqXM.} N V V S I I S U U n n C 2.r.t.r.t.u.Z.A.J.L.!.Q.W.7X7XoX:XCX",
"(.f N p 0 0 q p 5 0 m B M S A M z M x 8.x.0.l. .Z B ] M.@.W { +.0.1.V ` A A P P C C K C C <.r.6.r.r.t.u.A.J.K.L.K.Q.W.7XOX:XVXKX",
").s ( N a 2 7 7 6 6 d M M B A S k z 9.S.c.x.k.` Z M B #.{ s d z Z Z C ,.<.<.P P I K n C <.2.4.6.r.r.t.s.A.L.K.L.K.Y.B.qX,XZXKXPX",
"=Xi f ) f s 0 i 6 6 6 z m M V V x ` x.I.Y.~.Z.A ] ] / ) f m V S S Z ,.<.<.P A P A C P L <.2.6.r.6.6.u.Z.A.K.L.L.Q.E.rXlXCXKXPXPX",
"nX(.i W ( f f s 7 5 3 5 a M V b 1.x.P.P.T.R.Z.y.c.k.' m z A 2.,.P ,.1.<.<.K P K C K I <.T <.6.4.6.t.s.J.J.J.L.J.~.yXjXCXCXCXLXPX",
"bX=X5 i W W f f p 6 8 6 7 a M 8.S.P.I.P.S.D.D.T.m.k.] m M P I <.2.2.2.2.,.K P C C <.I I <.4.2.2.t.y.d.d.J.J.K.tXyXgXlX1X;X;XnXGX",
"<XbX=X5 i f f f d p a a q q 8.I.P.U.~.S.I.D.S.G.x.q.2.A K I <.2.r.q.9.2.P P C C I I I <.<.4.2.6.u.s.d.J.J.A.~.uXgX*X:X}.;X{././.",
"bXmXbX).5 5 i f d d q t V x.Y.W.^.^.I.P.I.I.S.S.y.9.3.P P I P 2.q.q.2.,.K n n I <.I I <.<.2.2.t.s.a.A.J.A.H.uX9X X.X}.{.;X{.{.{.",
"bXbXbX<X).).i i s q q C c.W.W.W.uX~.S.Q.I.D.S.y.9.1.` I P P 2.y.i.q.2.K K C P 2.L I <.<.<.4.r.s.a.d.A.J.J.F.3X' |.[.$X}.}.}.}.%X",
"mXbXvXvXbX<X-X).a a A v.^.tXW.^.~.D.Q.R.D.G.c.y.9.<.P <.U ,.r.c.y.9.P K K P <.<.I 4.I I 2.u.a.d.A.A.F.F.i.,.M N _.|.+XoX$X$XoX@.",
"nXvXvXbXbXmXCX_.m ] m.E.W.E.^.^.S.S.I.I.D.v.c.y.q.2.2.I ` 9.x.y.9.2.P n P <.<.I I K I 2.i.i.a.d.A.J.F.6.V k k Z 9.z.6X6X6X6X@.( ",
"nXvXvXbXbXNXMX/ 9.N.E.W.E.W.^.I.I.I.R.D.S.u.y.y.9.6.2.P 3.y.y.9.<.P C C ,.<.I I L A <.u.t.t.s.A.J.5X,.l t q k I y.y.q.z.M.+.( ) ",
"bXvX<XnXMXMX3Xq.B.tXtXtX^.^.I.P.I.I.G.S.c.x.y.q.6.r.<.A i.y.9.2.I S C I I I I K A <.y.u.t.a.a.Z.a.S t e t 9 l U ,.Z B _ { ) ( { ",
"mXmXmXMXlX3Xx.E.tXtXW.W.^.W.I.I.T.R.S.S.c.u.y.i.i.4.` 1.x.9.2.,.U C P I <.K I S <.u.u.7.t.f.Z.r.C 9 4 t 9 t b C x l l M N N ) { ",
"vXmXNXpXm.m.T.tXtXE.W.tX^.R.W.W.R.S.G.S.G.c.u.u.r.P A r.r.2.,.P C n P P I U I P r.y.t.7.s.s.r.C q 8 9 e 4 e v l k l x d N ) ^ O.",
"mXmX,Xr.c.G.tXtXW.E.uX^.W.R.R.R.S.G.D.G.G.u.u.u.2.S 1.x.2.2.A C n n P I I A P r.u.t.t.u.u.y.S 9 3 4 9 9 9 y b k l x l z / ' ) { ",
"mX2X5Xc.S.W.uXtXE.uXW.Y.^.E.R.G.S.I.S.S.c.c.c.q.A A 9.y.2.P A C C I I I K P 4.r.t.7.r.i.r.S q 3 4 9 w 9 w c c y x b k g )  .) { ",
"MX5XZ.D.R.^.tXW.^.^.W.W.W.R.T.S.I.G.G.S.c.c.r.<.V ] y.6.,.U C n C I I I <.4.y.u.t.r.i.9.A q 3 3 r y t 9 y v c l b b M m )  .) ) ",
"i.a.K.Q.^.W.W.^.tXW.W.W.E.T.G.G.G.G.S.Z.Z.y.2.,.Z r.r.2.P C C n U L I I 4.r.t.r.6.e.e.` t 3 4 e r r r y v n n b b x M B )  . .' ",
"u.D.!.!.^.W.W.^.^.W.W.W.D.m.S.I.G.v.G.c.u.2.<.S ,.y.2.,.S C c K I I <.6.t.r.r.4.3.w.,.q 3 3 4 y t r u c c v C C x V S ] '  .+.`.",
"Z.K.!.!.~.^.^.~.W.W.W.R.P.v.G.G.v.Z.Z.v.q.2.S Z q.y.<.A V n C L I 4.6.t.r.6.2.| w.w.x 4 3 3 4 r u c v c v v K C V V ] '  . . . X",
"K.!.!.~.^.!.^.Y.W.W.W.T.G.G.G.v.S.G.v.r.<.,.Z 1.y.r.U S n n K I <.t.t.r.2.1.'.[ 9.S t 9 4 4 w r u v v v v H P P A Z _ } ^ .. .+.",
"!.!.Q.Q.!.!.!.W.W.R.R.G.v.G.Z.c.G.G.y.2.,.C ` y.r.2.S C n K L 4.6.t.6.,.1.'.[ w.3.k t r e r w r u G G H H G I P P ` ` ' ..0.+.l.",
"!.K.I.Q.!.!.^.Y.^.T.G.c.c.Z.c.v.G.c.9.2.A Z 9.i.2.,.U S n I 6.6.t.9.2.3.| [ [ 1.x l c c y u y r u H H J H H K K P ] ` ] 8...l.4X",
"K.A.D.I.Q.Q.E.^.R.H.x.y.u.c.c.G.G.u.r.,.M ] y.r.,.U S C I 2.6.6.2.2.| '.[ _.3XV x C n c v G G u v H Y L J L K P ,.1.1.} 1.} k. X",
"V.V.R.D.G.E.W.W.R.v.y.r.u.u.v.S.Z.r.2.S V e.y.1.,.` A I 4.6.6.2.2.| '.| _.3X'.x A I K G v H J G v G L Y L T L P 2.1.w.1.9.} 0.0.",
"V.Z.>.S.P.W.I.R.S.c.9.u.u.y.v.v.y.2.,.M 1.q.2.S A A ,.4.6.6.9.9.w.`...[ '.8X_.k I I I Y J J J L G u J Y Y T T 2.<.1.8.1.} 0.l.0.",
"V.p.V.v.B.P.R.T.m.9.6.r.r.u.c.u.r.,.S ` 9.9.,.A ` ` 2.4.r.r.e.e.`.`.`. XzXpX] x n I T T 5.Y H Y L G J Y T Y T 4.2.9.2.1.8.^ ..0.",
"V.>.>.m.B.T.T.v.y.,.6.r.r.v.c.r.2.` 1.e.q.9.] S ` 1.2.r.9.9.e.| `.`. XzXzX9Xi.8.S P 5.7.7.5.Y H Y L L J T T 4.2.6.8.1.9.0.0.k.k.",
"&.;.;.N.N.C.v.v.2.2.6.r.u.y.y.r.,.` y.x.q.2.` Z ` 9.2.2.2.8.1.'.`.*XzXZXeXB.B.v.9.C K 7.a.7.5.Y J T Y J L T 4.6.2.9.2.8.9.0.l.l.",
"%.F ;.c.v.c.v.>.=.2.4.r.r.u.r.2.,.3.q.x.q.8.A Z 1.2.2.2.3.8.| | #XzXJXLXHXFXiX7Xb.2.C 4.d.d.t.5.L L T L L 4.4.4.2.2.9.9.l.k.l.z.",
"%.D D >.g.c.x.2.<.;.2.4.u.y.r.,.` r.y.y.9.1.A ` 8.9.1.2.1.8.| '.kXHXPXPXPXPXxX7X7XZ.<.<.t.A.d.7.5.L T L L I T <.2.2.9.:.k.k.k.k.",
"D D D ;.>.g.>.=.=.I 2.6.y.r.2.P ,.9.x.q.9.,.S A 2.w.1.,.1.| '.8XVXLXPXPXPXPXJXyXyXn.y.<.4.s.H.d.a.5.T T L P <.<.2.r.6.y.0.k.k.z.",
": , D %.>.:.;.=.<.<.;.r.r.r.2.C ,.y.9.9.2.A A ` 8.1.` ] ] _.`.dXDXPXPXPXPXPXPXFXuX7Xy.6.<.7.A.F.d.d.7.5.I L T <.6.4.r.9.q.k.k.z.",
": : 1 %.%.&.-.F F F 2.r.>.4.,.C 1.9.2.9.1.,.S _ 8.1.] ] } [  XdXZXPXPXPXPXPXPXPXJXuXZ.9.2.6.7.H.K.d.f.t.4.I 4.4.4.t.7.6.r.e.k.n.",
"- : < 1 %.%.~ j F 4.>.6.r.<.,.C 1.-.1.] ` ` A ] 1.] ] _ |  . XdXVXLXPXPXPXPXPXPXPXFXW.r.<.6.6.u.H.A.D.A.a.6.<.4.r.t.7.t.y.y.k.z.",
". = , > R %.~ j F ;.>.>.6.;.A A 2.2.1.1.A ] A } 8.] _ ] ..`. XdXVXLXPXPXPXPXPXPXPXPXxXP.2.<.t.t.F.I.H.H.Z.7.4.4.5.t.t.t.y.k.k.z.",
"= O - D > R j 1 %.-.;.>.-.,.C ` 2.9.] ` A _ _ 8.8.1.] [ ....*X,XBXLXPXPXPXPXPXPXPXPXPXxXm.a.a.7.u.T.R.R.S.s.t.4.4.a.a.t.u.k.n.z.",
". . O - > > 1 1 %.:.-.-.;.F j ,.-.1.] A A ` A ] ] 1._ ] ..+.#X>X,XHXPXPXPXPXPXPXPXPXPXPXSXuXD.f.t.Z.tXR.R.A.u.6.6.t.s.a.t.y.n.n.",
"  . . - # > < > ~ %.%.=.F F j ,.1.1.A A Z Z ] ] ,.] _  ... X X>X:XZXPXPXPXPXPXPXPXPXPXPXPXFXuX!.F.Z.T.tXE.D.s.7.7.7.a.a.t.c.z.B.",
"    . O # > < > R %.%.F j j C =.:.=.Z A A ` A ] ] ] ] ..+.4X*X>X%XCXPXPXPXPXPXPXPXPXPXPXPXPXJXFXxXG.m.R.E.I.D.a.7.7.d.a.a.c.m.k."
};
