/* XPM */
static char *result[] = {
/* columns rows colors chars-per-pixel */
"64 64 85 1 ",
"  c #010101",
". c #003300",
"X c #004400",
"o c #005500",
"O c #006600",
"+ c #116600",
"@ c #007700",
"# c #008800",
"$ c #009900",
"% c #339900",
"& c #00AA00",
"* c #00BB00",
"= c #11BB00",
"- c #22AA00",
"; c #22BB00",
": c #33BB00",
"> c #44AA00",
", c #00CC00",
"< c #11CC00",
"1 c #11DD00",
"2 c #22CC00",
"3 c #33CC00",
"4 c #22DD00",
"5 c #33DD00",
"6 c #33EE00",
"7 c #44DD00",
"8 c #55DD00",
"9 c #44CC11",
"0 c #66DD00",
"q c #66DD11",
"w c #44EE00",
"e c #55EE00",
"r c #55FF00",
"t c #66EE00",
"y c #77EE00",
"u c #66FF00",
"i c #77FF00",
"p c #66EE11",
"a c #77EE11",
"s c #77FF11",
"d c #77EE22",
"f c #77EE33",
"g c #88FF00",
"h c #88EE11",
"j c #88FF11",
"k c #88EE22",
"l c #88FF22",
"z c #99FF22",
"x c #88EE33",
"c c #88FF33",
"v c #99FF33",
"b c #AAFF33",
"n c yellow",
"m c #99EE44",
"M c #99FF44",
"N c #99FF55",
"B c #AAFF44",
"V c #AAFF55",
"C c #BBFF55",
"Z c #99EE66",
"A c #AAFF66",
"S c #BBFF66",
"D c #BBFF77",
"F c #CCFF66",
"G c #CCFF77",
"H c #AAEE88",
"J c #BBFF88",
"K c #BBFF99",
"L c #CCFF88",
"P c #DDFF88",
"I c #CCFF99",
"U c #DDFF99",
"Y c #CCFFAA",
"T c #DDFFAA",
"R c #CCFFBB",
"E c #DDFFBB",
"W c #EEFFAA",
"Q c #EEFFBB",
"! c #DDFFCC",
"~ c #EEFFCC",
"^ c #EEFFDD",
"/ c #FFFFDD",
"( c #FFFFEE",
") c white",
"_ c None",
/* pixels */

"________________________________________________________________",
"________________________________________________________________",
"________________________________________________________________",
"________________________________________________________________",
"________________________________________________________________",
"________________________________________________________________",
"________________________________________________________________",
"________________________________________________________________",
"________________________________________________________________",
"_______________________________________________________   ______",
"______________________________________________________ 3fY _____",
"_____________________________________________________ $:K(R ____",
"_____________________________________________________ $;Z!H ____",
"_____________________________________________________ $$-93 ____",
"_____________________      ___________________________ $$$   ___",
"____________________ ______   _________________________   ___ __",
"___________________ __________ _______________________________ _",
"___________________ ___________  _____________________________ _",
"____________________ ____________ ____________________________ _",
"_____________________ ____________ ___________________________ _",
"______________________ ____________ _________________________ __",
"_______________________  ___________ ________________________ __",
"________________________   __________ ______________________ ___",
"_______________________ xxZ   ________  ___________________ ____",
"______________________ 5qfNDIT  ________   ______________  _____",
"______________________ <7acBVDE( __________    ______    _______",
"______________________ =38thvVI(( _____________      ___________",
"_____________________ 2*<58talAQ)( _____________________________",
"_____________________ 2*=257tylS~)) ____________________________",
"_____________________ <**<<57tylS~))  __________________________",
"____________________ 8*&&*<257tizSE())   _______________________",
"___________________ a3&$$&<455etizVLE~())  _____________________",
"__________________ B8=$$$&*<457etilvMADE~/(  ___________________",
"________________  Ga2*$##$&*455wetijlvvBDU~^(  _________________",
"_____________   UDd2*&###$&*<456eetjjlvvVDLU~()  _______________",
"___________  UULV8<*&$###$&&,445weeijizvvVDLLT/))  _____________",
"_________  LGSM82**$$####$&&,145wwetiilzvBSDLLQ)))) ____________",
"_______  vllht2**&$######$$*,145wweeiizvvVSSGLQ/)))) ___________",
"______ hhhhy7,*&$$#######$&*,444wweeiizBBVSGT^()))))) __________",
"_____ Vlhat5**&##########$&,,4446wwrgvBBBCGT/))))))))) _________",
"____ Avh>  @&$##########$&*,1445wweuvBBBVGT~))))))))))) ________",
"___ Sla% n  X#########$&**,15446wweivBCCCPW/))))))))()) ________",
"___ va8  n   ###$$$$$$&*,,<5445wweujbCSCSUW/))))))))Q/)) _______",
"__ Bh82 nnnn #$$$$$&&**,,<O    OweizBCSCGUW~())))))(TL^) _______",
"__ lt3<  n   $$$$&&***,,<O  nn  +rizBVCSGUTQ/()))))~TGL( _______",
"__ l82*@ n  .$$ *****,1<<   nn   ugzBVCSGUUWQ~/((/^/(^J~) ______",
"_ Il82*&o  .$$& * ** 1411 nnnnnn ugjBVVSGUUUWWQQQQ~)))EI( ______",
"_ Iv8<*&$##$$&**  ** 4111   nn   uijbCVCGPUUUUUTTT~)))ED~ ______",
"_ EM02*&$##$&*****  ,4111O  nn  +uijzBCVSFLUUUUTUUL~(^SAT ______",
"_ (Da3*&$##$&*******,41444O    +euigzvVVVVVSLUUULSVASVMVU ______",
"_ )Tk7<*$##$&*******,11444466eeeerijzvvBCVVBVCSSSBBvjlMVL ______",
"__ ^At3*&$##$********<1444466weeeruijvvBBVVVVVVVBvlyalMVS ______",
"__ (Ex83*&###&****,**,<1444456weeeeiigzBBBBBBBBvlyytplVV _______",
"__ )~Jd72*&$#$&***,,**,,,<14445wweetuiijzvBBBvlsttttaMVV _______",
"___ )~Dk83<&$##$&*******,,<444445wwweeeetyiyttttttttcVV ________",
"____ )EVky72*$$$$&&*******,,<444455555777eeettte88tkVVV ________",
"_____ )^Slat72*$$$&&&*******,<<444555555788888788tlBVV _________",
"______  (Lvhay85=&&&&&&&******,,<<<222222222578yajMVV __________",
"________  ~Vlhaat872<=*************<<<<<<257yahhhlM  ___________",
"__________   Avlkhhhaap887332<<<<<<3788tyahhhhhh   _____________",
"_____________     MMMVVSSDAVmxdatttahhhhhhhh    ________________",
"__________________                          ____________________",
"________________________________________________________________",
"________________________________________________________________"
};
