/* XPM */
static char *result[] = {
/* columns rows colors chars-per-pixel */
"64 64 253 2 ",
"   c #010101",
".  c #080606",
"X  c #0B0B0B",
"o  c #120D0D",
"O  c #0E1010",
"+  c #141515",
"@  c #191313",
"#  c #1A1B1B",
"$  c #231B1B",
"%  c #242424",
"&  c #282726",
"*  c #2C2C2C",
"=  c #332A2A",
"-  c #323131",
";  c #3B3A3A",
":  c #4A3838",
">  c #523A3B",
",  c #38512F",
"<  c #395634",
"1  c #3A6035",
"2  c #495236",
"3  c #43633E",
"4  c #433D69",
"5  c #374B52",
"6  c #2E506E",
"7  c #39487B",
"8  c #3A4A7D",
"9  c #2A6567",
"0  c #2D6F74",
"q  c #484848",
"w  c #53504C",
"e  c gray33",
"r  c #5D5B5B",
"t  c #725348",
"y  c #645A5B",
"u  c #775757",
"i  c #57774F",
"p  c #716D4F",
"a  c #56466B",
"s  c #534D6C",
"d  c #4E526B",
"f  c #484978",
"g  c #554573",
"h  c #594372",
"j  c #534D71",
"k  c #7A5D64",
"l  c #7A5E6A",
"z  c #6B5873",
"x  c #646563",
"c  c #6B6C6C",
"v  c #786266",
"b  c #6F6775",
"n  c #727373",
"m  c #7A7A79",
"M  c #8C7059",
"N  c #A5755B",
"B  c #8A696F",
"V  c #9D7876",
"C  c #A97769",
"Z  c #B3776D",
"A  c #A37876",
"S  c #D07868",
"D  c #3A8377",
"F  c #5C8759",
"G  c #698D5C",
"H  c #49906D",
"J  c #778F6F",
"K  c #58AA75",
"L  c #73B370",
"P  c #79CC7D",
"I  c #959259",
"U  c #8D9074",
"Y  c #B58D72",
"T  c #8FAD71",
"R  c #85B776",
"E  c #B6AA71",
"W  c #D98A77",
"Q  c #CA9073",
"!  c #E3876D",
"~  c #E68877",
"^  c #C8AC78",
"/  c #8BD17B",
"(  c #93E57C",
")  c #1D5589",
"_  c #1E519A",
"`  c #2C4E88",
"'  c #2F4E8C",
"]  c #354683",
"[  c #344D85",
"{  c #384885",
"}  c #324D8B",
"|  c #2A5689",
" . c #2D4D95",
".. c #264D9C",
"X. c #2A489A",
"o. c #2A4C9C",
"O. c #344A95",
"+. c #24539A",
"@. c #2B6985",
"#. c #376F91",
"$. c #1F50A8",
"%. c #254EA6",
"&. c #2A4DA4",
"*. c #2B4DA6",
"=. c #244EAA",
"-. c #284CA9",
";. c #2350A4",
":. c #2250AB",
">. c #4D558C",
",. c #4C5090",
"<. c #655888",
"1. c #775E85",
"2. c #755E8A",
"3. c #496285",
"4. c #6C628B",
"5. c #756384",
"6. c #72608A",
"7. c #756B99",
"8. c #5474A5",
"9. c #666FA2",
"0. c #7874A8",
"q. c #8E6F8C",
"w. c #AC7A90",
"e. c #8B7DA0",
"r. c #C37981",
"t. c #46888C",
"y. c #7C8284",
"u. c #57A68B",
"i. c #6EB58A",
"p. c #5C83A6",
"a. c #77CE8B",
"s. c #828383",
"d. c #8A8B8A",
"f. c #8E948A",
"g. c #959694",
"h. c #9B9B9B",
"j. c #BA8687",
"k. c #BA9887",
"l. c #AE9094",
"z. c #90AA8A",
"x. c #B3B08A",
"c. c #AF90AC",
"v. c #B791A8",
"b. c #AD92B4",
"n. c #A393BC",
"m. c #AB93BA",
"M. c #B191B4",
"N. c #B099B7",
"B. c #85A4AF",
"V. c #A6A7A7",
"C. c #B2B3A7",
"Z. c #B3B4B3",
"A. c #BBBBBB",
"S. c #C78B89",
"D. c #D58B88",
"F. c #C8968B",
"G. c #D69788",
"H. c #C78994",
"J. c #C59695",
"K. c #C89696",
"L. c #D59698",
"P. c #E28786",
"I. c #CCAF8F",
"U. c #E5A787",
"Y. c #E6A69A",
"T. c #C195A1",
"R. c #CEACAA",
"E. c #D9A6A7",
"W. c #DEA9A9",
"Q. c #DAABB7",
"!. c #C5BABB",
"~. c #D6B8B6",
"^. c #E5A6A5",
"/. c #E6A9A7",
"(. c #E1A8A9",
"). c #EDAEAE",
"_. c #F1ADA4",
"`. c #F3AEAE",
"'. c #E8B6A5",
"]. c #F2B4A6",
"[. c #F2B1AD",
"{. c #ECAFB3",
"}. c #E2ADB9",
"|. c #F3AFB0",
" X c #EEB2B2",
".X c #E9B1BB",
"XX c #E8B4B9",
"oX c #F4B2B3",
"OX c #FAB4B4",
"+X c #F4BBBB",
"@X c #92D68D",
"#X c #B1CD8F",
"$X c #9AE886",
"%X c #92E989",
"&X c #A4E68B",
"*X c #B4E99A",
"=X c #ABF094",
"-X c #B5D1AF",
";X c #B9EBA5",
":X c #B4F3A3",
">X c #CCD293",
",X c #CBE19E",
"<X c #CFD4B0",
"1X c #EDC9B8",
"2X c #CCECAC",
"3X c #D6F9BA",
"4X c #E8F0B9",
"5X c #9CA1C6",
"6X c #B5B3D1",
"7X c #CFADC7",
"8X c #D5AEC7",
"9X c #DAAEC4",
"0X c #D5AFCA",
"qX c #D4B2C8",
"wX c #E9B7C4",
"eX c #F5BDC2",
"rX c #B0C9D2",
"tX c #C4C5C5",
"yX c #CBC4C4",
"uX c #CCCCCC",
"iX c #D5CACB",
"pX c #D0D7C8",
"aX c #D3D3D3",
"sX c #D9D7D4",
"dX c #DCDCDC",
"fX c #E5C6C6",
"gX c #EDCDCD",
"hX c #F6C2C2",
"jX c #F9C4C4",
"kX c #F8C8C7",
"lX c #FCC9CA",
"zX c #ECD8CB",
"xX c #E5D9DA",
"cX c #F6D7D6",
"vX c #D6E6C9",
"bX c #DAF8C5",
"nX c #EEEFD2",
"mX c #EBFED8",
"MX c #F5FCD5",
"NX c #C1DDE2",
"BX c #EBD9E2",
"VX c #DCE8E4",
"CX c #E2E2E2",
"ZX c #E9E7E5",
"AX c #ECECEC",
"SX c #FCE5E5",
"DX c #F7E9E9",
"FX c #FEE9EA",
"GX c #EAF3EB",
"HX c #FAFBE7",
"JX c #F7F6F4",
"KX c #FCF4F3",
"LX c #FDFDFD",
/* pixels */
"h h h h h h h h h h h h h h g g j g g g g g h h h h h h g g g s g f f g g g h h h h h h h h g g g g g g h g a a a a a a a a a s ",
"1.1.1.1.1.q.2.1.2.<.2.2.2.2.2.2.6.6.6.6.6.1.2.2.2.2.2.1.2.2.6.6.4.4.4.4.4.4.2.1.1.1.1.1.2.2.2.6.4.7.2.2.6.2.6.6.5.6.1.b 1.5.b b ",
"v.v.v.v.v.v.v.v.M.M.M.M.M.M.m.m.M.M.c.b.b.c.b.M.M.M.M.M.m.b.m.m.m.n.m.n.m.b.b.b.M.M.M.M.M.m.m.n.m.m.m.m.N.b.b.b.b.b.b.b.b.c.n.c.",
"}.}.9X}.}.9X9X9X9X9X9X9X0X8X8X8X9XQ.9X9X9X9X9X0X0X9X0X0X8X0X0X0X0X0X0X0XqX8X8X8X8X8X0X8X8X0X0X0X0X0X0X0X0X0X0X8X8X8XQ.qX7X7X7X!.",
"|..X.X.X{.{..X{..X.X.XwXwXwX}..X.X{..X.X.X.X.XwXwXwXwX.X.X.X}..X.XwX.X.X.X.X.X.X.X.X.XwX}.wX}.wX9XwXwX.X.X.XwX.X.X.X.X.XXX.X}.XX",
"|.|.|.|.|.|.|.|.|.`.`.|.`.`.`.`.|.oX|.oX|.|.OXoX|.OXoX|.`.{.|.|.{.|.|.|.oX{.|.{.|.|.|.{.|.|.|.|.|.`.oX{.|.|.{.|.{.|.|. X`.oXoX X",
"|.|.|.|.|.OX|.|.`.`.|.|.|.OX`.`.`.`.oXoX|.OXoXoXOXOX|.|.|.|.|.|.|.|.|.|.`.|.|.|.|.|.|.|.|.|.|.oX|.OXoX.XoX.XoX|.`.|.oX`.|.oX`.`.",
"|.OXOXeXeXeXeXjXeXeXlXeXeXeXeXeXhXXXE.H.S.S.j.S.r.H.E.(.eXeXjXjXjXeXhXhXhXeXhXhXjXjXjXjXjXjXlXlXeXeXlXlXlXlXlXjXjX+XoX|.|.`.|.|.",
"[.+XcXSXSXSXSXSXFXFXSXFXSXFXSXFXFXfXl.u w > > > : y d.R.xXFXFXFXSXSXSXSXSXBXSXSXSXFXFXSXFXFXSXSXSXSXSXSXFXFXFXSXSXcX+X|.`.|.|.|.",
"[.hXcXKXKXDXsXyXuXqXyXyXyXyXyXaXAXsXg.y = @ o @ $ w l.tXxXCXiXyXyXiXsXZXJXKXDXBXiXyXyXyXyXyXaXxXDXKXKXZXaXyXuXyXiX~.oX|.|.|.|.`.",
"[.1XSXLXLXdXg.c x r r x x r r m A.dXaXV.e $ . + q q.uXCXtXh.n e e c g.!.AXJXdXV.m r r x r x m V.CXLXAXA.B x r x n d.L.|.oXoX|.|.",
"`.jXSXLXLXuXx & # # # # # + @ ; y.Z.dXuXd.e ; q s.Z.aXuXf.r - + + * x V.CXJXtXd.; # # # + % q s.dXLXCXV.5 # # % = u K.|.`.`.|.|.",
"[.eXSXLXLXtXe o .   . .       + ; n Z.aXrXZ.h.V.uXaXZ.d.w % X     # e h.CXAX<Xn - . . . . O - n aXLXCXh.;   . X @ w S.oXoX|.oX`.",
"[.1XSXLXLXuXn 5 - - - - - * + X X q h.aXBXAXCXCXJXdXh.x %         # e g.CXAX6Xn %         X * c aXJXCXg.*       o > j.`.|.`.oX`.",
"[.hXSXLXLXZXA.V.h.h.h.h.h.q.q + . - f.uXAXLXJXLXLXdXg.w #         # e g.CXAXA.m %         X * n aXJXCXg.-     . o > j.oXoX[.`.oX",
"oXhXSXLXLXGXuXZ.Z.Z.C.Z.Z.g.q +   * s.yXJXLXLXLXLXdXd.q +         # e g.CXAXA.n %         X * n aXLXCXh.-       o > j.|.|.`.oX).",
"`.hXSXLXLXdXh.m c c x c c r * O   & d.uXGXLXLXLXLXdXd.q +         # e h.CXAXA.m %         X * c aXJXCXh.-       o > j.oX|.|.|.|.",
"|.hXSXLXLXuXn ; - * - * - % O O # q h.aXCXCXdXdXAXdXV.x * X       + e g.CXAXA.n %         X * n aXLXCXh.*       o > j.|.oX`.oX`.",
"oXhXSXLXLXtXe # X X X X X . . # w d.uXVXA.h.y.d.!.sXuXV.r % X     + e g.dXAXZ.b #         X * n aXJXCXg.-       o > j.|.oXoX`.|.",
"`.hXDXLXLXuXc - * & & & & & * w d.-XaX7Xs.e ; q y.Z.aXtXf.x ; % & ; n V.ZXAX<Xf.q % # O . X & c aXLXCXg.-       o > j.|.`.`.|.|.",
"oXhXFXLXLXCXV.d.s.s.s.7.s.s.s.V.uXaXZ.U q # O # ; c Z.uXrXZ.g.s.y.d.Z.uXAXLXdX6Xg.m x 5 X . % c aXLXCXg.*       . : j.`.oX|.`.oX",
" XhXcXKXKXAXiXyX!.!.!.<X!.!.yXiXDXsXV.x ; $ $ $ = e h.yXxXxXyX!.!.tXiXCXDXKXZXdXiXZ.h.v : & : m aXAXxXh.q $ $ $ & t S.[.`.|.oX`.",
"[.+XlXcXcXcXcXgXgXgXgXgXgXgXgXcXcXfXv.V M t u u u B l.~.gXcXgXgXgXgXcXcXcXcXcXcXcXfXR.k.B t M l.fXcXgXR.B u t u B B L.oX|.|.`.|.",
"[. X+XeX1XhXjXkXlXlXlXlXlXlXlXlXlXXXL.S.w.w.Y w.j.j.L.{.+XlXlXlXlXlXlXeXhXhXeXlXlXjX+XE.j.j.S.L.XXhXfX}.F.j.w.j.S.D.^.`.|.`.oX`.",
"[.[.oXoX|.OXOXOX|.OXoXOXOX+XoX+XOXoX).^.^.^.^./.^./.).|.oXOX+XOXoX+XOX|.oX|.oXOXOXoX|.`./.^./._.oXoXOXoX)./././.^.^.{.`.|.|.|.`.",
"`.[.`.`.`.`.`.`.`.`.{.|.`.`.`.`.|.|.OXOXOXOXOXOXOXOXOX|.`.`.`.|.`.|.|.`.|.|.|.|.`.`.|.|.OXOXOXoX[.oXoXoXOXOXOXOXOXOX|.|.|.|.oXoX",
"oXoX`.`.`.`.|.|.|.`.`.`.).oXoX[.`.`.|.|.oXoX|.|.OX|.|.|.`.`.|.|.|.`.|.`.|.`.|.|.`.|.|.OXOX`.[.oXoX[.|.oXOX|.OXoX|.|.|.|. XoXXXXX",
").).).).{.{.|.{.`.).).{. X).).).).)._.`.).).`.{.{.).{.|.`.`.`._.`.`.`.`.`.`.{.|.{.{.|.{.`.).`.`.).).).{.).).'. X{.).{.{..XQ.Q.Q.",
"(.(.(.(.(.(.(.(.(.(.W.W.W.Q./.^.Y.Y.Y.Y.L.Y.E.W.(.(.W.(.^.Y.Y.Y.^.Y.Y.E.^.^./.(.W.W.(.(.^.^.(.E.W.E.E.^.W.W.W.W.W.W.E.E.Q.T.v.l.",
"J.J.J.J.K.K.K.k.J.J.K.K.J.J.K.K.F.F.U.^ F.F.J.J.J.J.k.F.K.G.G.D.G.D.G.G.F.F.K.K.J.J.K.K.J.K.K.J.J.J.J.J.k.F.J.F.J.K.K.H.v.l.q.5.",
"A A A A A A A w.V V V V V A A A N Y Q Q Y A A V V V V Y Y Q Z Z Z Z Q S.C C A A A A A A A A C A A A U A V V C A V A A w.q.m z d ",
"v v v k l l l l v v v v l l v u t M ^ ^ E Y M v k k u B A Y Z N N Z Z Z B M u k l l v l k l v v k k k k v v v k v k l l l z j d ",
"d s s d j g j s j d j j s f f 5 2 p E ^ x.E p i q d q z q.j.A Z Z w.w.q.k a y a d j j j s s a s s s s s a s s s s s a j g f f 7 ",
"7 7 7 ] 7 7 ] ] ] ] [ { ] 4 6 6 2 i T #X>X/ G 3 5 5 5 d 5.l.J.H.H.l.w.q.h 4 7 7 ] 7 7 ] 7 7 ] 7 7 ] 8 7 ] 7 7 7 7 7 ] ] ] 7 8 8 ",
"_ ..&..._ ..%.-...&....._ ` 9 9 9 F R &X=X&XP F 0 9 6 [ 7.V.E.}..X7Xn.0.,.] O.X.&.&...&...%...&.o.&.o.o.-.X.X.X...X.&.X.X.} [ [ ",
"$.$.=.$.$.$.:.:.:.:.$.$._ ) 0 D H L / &X&X&X/ P H 0 9 #.y.c.Q.eXeX0Xn.0.,.O.X.&.:.:.:.:.$.$.$.$.=.=.=.=.=.$.$.=.$.=.$.=.&.o.} [ ",
"$.%.$.%.=.=.:.:.:.$.$.+.@.#.D K K / / ( ( ( ( P L H D H d.V.(.+XwX0Xn.0.,.O.X.*.=.=.=.=.=.=.:.=.=.=.=.=.=.=.%.=.:.:.:.;.&. .' } ",
"%.-.%.%.=.=.:.:.:.$._ @.D u.K u./ / $X$X( ( ( $XP P u.L h.C.'.XXwX0Xn.0.,.] O.*.-.-.%.=.=.=.:.=.=.=.=.=.-.-.%.%.&.;.-.&.o. .} } ",
"&.-.-.=.&.:.;.:.:._ ) @.u.a.P a.%X&X=X&X$X( $X$X$X$X@X#XC.>X'. XwX0Xn.0.,.] X.&.-.-.-.=.=.=.=.=.=.=.=.=.-.%.%.%.&.&.;.&.&. .} [ ",
"*.&.-.-.=.=.$.$.;.) ) #.a.a.%X%X=X*X*X*X&X$X$X$X:X:X*X#X>X>X'. X9X7Xm.0.,.] X.X.-.-.-.=.=.=.:.=.=.=.=.%.%.%.%.%.%.;.&.&.o. .} [ ",
"*.*.&.-.-.=.$..._ ) @.D i.a.%X%X:X2X*X#X@X@X/ @X*X;X2X2X<X>X'.[.wX7Xn.0.>.] X.&.&.&.%.%.=.=.=.=.=.=.=.=.%.%.%.%.%.%.;.&.o. .' [ ",
"*.*.&.-.-.%.$._ ) @.t.u.a.a.%X:X3X3XC.R R R L T #X-XvXvX<X'.'. XwX7Xn.0.,.]  .o.&.&.%.%.-.-.=.=.=.=.=.%.%.%.%.$.%.%.;.&.o. .' [ ",
"*.*.-.-.=.%...) 6 @.u.i.%X%X:XbXmX<XJ i G G 3 F J -XvXHXcX1X[. XwX7Xn.0.>.]  .o.&.%.=.=.=.=.=.=.=.=.=.=.%.%.;.;.$.%.%.;.+. .' [ ",
"&.*.&.-.%.+._ ) 0 @.i.@X%X:XvXbXmXuXx 5 F F 3 3 J C.ZXLXSX1XoX XwX7Xn.0.,.]  .X.%.%.%.=.=.=.=.=.-.=.-.%.%.$.;.;.%.%.;...o. .' ' ",
"*.&.-.%.%.%._ 0 0 H i.@X&X*X3XMXHX<Xx 3 F i 2 3 J C.VXKXSXkX[._..X8Xm.0.,.] X.X.%.;.%.%.=.=.=.%.=.=.-.=.%.%.%.%.;.;.;.&.o. .' } ",
"-.:.&.%.$._ ) ) 0 K P @X&X*X3XMXHXpXn e G G 3 3 J Z.AXKXcXhX].]..XQ.m.0.,.] X.&.%.=.:.%.=.=.=.=.=.=.%.-.%.%.%.%.&.*.;.;.o. .O.} ",
"*.;.&.%.;.+.) @.u.i.L / &X2X4XMXHXsXs.c J J F i z.-XAXKXcX1X]._.{.Q.b.0.>.] O.X.%.:.%.:.=.=.:.$.$.%.%.%.%.%.%.%.%.%.*.*.*. .} } ",
":.:.;.;.;.+.| #.i./ L L #X2X4XMXHXZXC.z.z.z.T T C.pXHXHXzX1XY._./.E.w.7.g { O.&.%.=.:.=.=.:.:.:.$.%.=.%.%.%.%.%.&.=.:.*.&.O.O.} ",
":.&.:.&.&.+.#.p.@Xi.F G @X2X4XMXHXHXZXpX<X-X-X;XVXGXHXnXzX'.U.Y.`.L.w.2.h h O.X.-.=.=.=.=.=.=.:.=.%.%.%.%.%...%.%.%.=.=.-.X.O.{ ",
";.:.;...%.#.8.B.rX-Xf.L x.,X,X4XnXHXJXGXpX;XvXvXmXGXnXzX'.I.G.~ P.P.H.w.2.,.,.*.-.=.=.:.=.=.=.=.=.%.%.%.%.%.%.%.%.$.=.=.-.X.O.} ",
"=.%.;.o.;.8.5XNXVXVXNX<X<X#X#X>X<X<XsXaX-X-X-X-XpX<X-XC.I.Q ! ! P.P.H.w.q.2.O.X.=.=.:.:.:.:.%.%.=.%.%.%.%.%.%.$.=.$.=.=.&.o.} } ",
":.;.;.o.-.8.rXGXGXLXHXnX-XT I G U z.h.g.y.J J i.z.z.U U I Q Q ! P.P.P.H.w.7.,.X.-.=.:.:.:.=.&.:.%.%.%.%.%.$.%.%.$.$.=.=.;.o.' } ",
":.%.&. .' 9.rXAXJXKXLX<XU 2 2 , , , q < , , , < < < , , t N Q ! P.~ P.P.w.7.,.-.=.=.:.:.:.=.%.%.%.%.%.%.-.%.%.$.%.:.:.:.&. .' [ ",
"=.%.&.X.} 9.6XAXBXcXzX'.M 2 2 , , , , , < < < 1 1 1 , 1 p I ! ! P.P.P.H.e.7.,.-.-.=.=.:.%.:.%.%.%.%.-.%.%.%.%.%.%.:.:.:...+.` ` ",
"=.%.&.O.} 9.6XBXwXW.U.^ I I I I T T T T L R L R L L L T I ^ ! ! P.P.H.H.e.7.,.-.=.=.:.=.=.%.%.%.&.-.-.-.=.%.-.%.%.=.;.;.+. .` [ ",
"%.&.X.O.O.9.N.qXE.K.Q Q Q E ^ #X>X2X;X;X;X;X;X:X=X=X=X>X^ ^ ! ! P.P.H.w.q.<.O.-.-.=.=.=.%.%.%.&.%.-.-.-.-.-.%.%.&.=.;.;...+.| 8 ",
"*.*.*.O.O.,.n.n.T.K.Q Q ^ E ^ >X,X4X4X3XbXbXbXbX3X2X2X>X^ ^ ! W P.r.r.1.h ,.O.*.&.;.:.;.-.;.;.&.-.-.-.-.-.-.%.%.%.%.%.&.&. .` [ ",
"-.*.*.*.O.O.9.d.l.k.Q Q E ^ >X>X4XnXMXMXmXmXmXMXMXMX4X<X>X^ ! ! P.r.r.B h h O.*.&.&.-.;.%.%.*.:.=.=.-.-.-.-.=.%.%.=.%.&... .[ [ ",
"-.-.*.*.*.O.>.4.d.Y E E ^ >X>X4XnXnXMXMXHXHXHXHXMXMXMX4X].U.! ! r.Z l h h ] ] X.&.:.*.:.-.-.*.;.=.-.%.-.-.-.&.%.%.=.-.&.o. .' [ ",
"-.-.*.*.*.*.,.3.s.h.x.E ^ U.>X1X4XcXMXHXHXLXLXHXSXnXzX1X].U.! S r.r.1.h h h O.O.+.&.:.;.-.:.;.*.&.%.&.&.&.-.&.&.%.&.&.&.o.O.[ 8 ",
"&.&.o.&.&.o.} 3.d.x.#Xx.^ ^ I.I.I.~.pXZXHXLXLXHXzX~.W.Y.G.W ! S S A q.b h ] ] X.+.o.&.&.o.&.&...X.......o.....&.&.&.o.&.O.O.{ f ",
"o. . . . .' } 3.y.g.x.x.E E E k.k.J.~.gXSXKXDXBX~.R.F.F.D.W S S Z V b >.g ] ] O.O.O.O. . .+. . .X. . . . . .+. . . .O.O.O.[ [ 8 ",
"} ' ' ' ' [ 8 f d y.f.l.k.k.k.k.k.J.T.~.xXBXxXqXR.K.F.S.D.W D.W w.l z >.f f ] ] } } [ O.} ' ' ' ' ' ' ' ' ' } | | ' } } [ 8 8 d ",
"[ [ [ [ [ [ 8 6 6 x U l.k.k.k.F.J.J.k.T.fXxXqX!.K.l.S.S.S.D.D.r.A z g 4 7 ] { ] } [ [ [ [ [ } } } [ } } } [ ' ' ' [ } [ [ [ f 6 "
};
