/* XPM */
static char *result[] = {
/* columns rows colors chars-per-pixel */
"64 64 247 2 ",
"   c #746B7A",
".  c #756A78",
"X  c #76737E",
"o  c #6D6A7B",
"O  c #913B7D",
"+  c #BB3878",
"@  c #A63C7C",
"#  c #EA3A5E",
"$  c #DC3B6B",
"%  c #D83D72",
"&  c #C23470",
"*  c #EE2F6A",
"=  c #E43B6A",
"-  c #E83667",
";  c #EC356F",
":  c #AB7F55",
">  c #944B7C",
",  c #AD457A",
"<  c #8C7775",
"1  c #927974",
"2  c #8D716F",
"3  c #B26A70",
"4  c #E4445B",
"5  c #EF5856",
"6  c #D36858",
"7  c #EA7E41",
"8  c #E96558",
"9  c #F26556",
"0  c #EB7553",
"q  c #DC4764",
"w  c #CD4B6E",
"e  c #E64363",
"r  c #E45867",
"t  c #DC6A66",
"y  c #D37867",
"u  c #E56963",
"i  c #E37662",
"p  c #F07762",
"a  c #DD4957",
"s  c #3E8C7F",
"d  c #57AF73",
"f  c #5A9E6B",
"g  c #7AE45A",
"h  c #6EED55",
"j  c #6AD369",
"k  c #EC9B3B",
"l  c #EB9B36",
"z  c #F19B3B",
"x  c #F49E35",
"c  c #EE9E2E",
"v  c #EDA53C",
"b  c #EEA737",
"n  c #F4A435",
"m  c #F3A43C",
"M  c #F3AA3C",
"N  c #F7A739",
"B  c #F2AC36",
"V  c #AE845A",
"C  c #B1865D",
"Z  c #A9A458",
"A  c #928972",
"S  c #B68C62",
"D  c #B79568",
"F  c #AC8E62",
"G  c #8AAB64",
"H  c #8FA857",
"J  c #DA9C54",
"K  c #CF9253",
"L  c #EF8647",
"P  c #E89D44",
"I  c #F39949",
"U  c #EA9A53",
"Y  c #F39954",
"T  c #EA8755",
"R  c #DAA759",
"E  c #CBA452",
"W  c #ECAB43",
"Q  c #ECAB4D",
"!  c #EBA447",
"~  c #F5A847",
"^  c #F4B248",
"/  c #E8A757",
"(  c #F6A956",
")  c #EBB656",
"_  c #F3BA59",
"`  c #F7B655",
"'  c #D59564",
"]  c #E58A67",
"[  c #EC996C",
"{  c #D5B36A",
"}  c #E6A763",
"|  c #E7B566",
" . c #FBBA63",
".. c #F7B967",
"X. c #F3BB7C",
"o. c #EFB374",
"O. c #8DDD58",
"+. c #FAC259",
"@. c #F8C754",
"#. c #FEC46B",
"$. c #FDC86B",
"%. c #FFCD72",
"&. c #F5C676",
"*. c #EDCB6F",
"=. c #663F98",
"-. c #2B4C9E",
";. c #264D9E",
":. c #3A4B9B",
">. c #27569D",
",. c #365396",
"<. c #395195",
"1. c #395499",
"2. c #2A6497",
"3. c #347293",
"4. c #1F4EA6",
"5. c #1F51A9",
"6. c #1E51A5",
"7. c #254EA5",
"8. c #294DA5",
"9. c #244EAA",
"0. c #294CAA",
"q. c #354BA4",
"w. c #2250A5",
"e. c #2250A9",
"r. c #2B54A8",
"t. c #3554A6",
"y. c #244DB1",
"u. c #284BB2",
"i. c #2452B1",
"p. c #3962AC",
"a. c #1F539F",
"s. c #4D5C8C",
"d. c #544996",
"f. c #4D5594",
"g. c #79438B",
"h. c #734490",
"j. c #4C6387",
"k. c #55648B",
"l. c #4C6599",
"z. c #56679A",
"x. c #487386",
"c. c #767582",
"v. c #676D89",
"b. c #554BA2",
"n. c #4E53A6",
"m. c #4967AA",
"M. c #536AAA",
"N. c #4A6AB5",
"B. c #5978B9",
"V. c #5270B2",
"C. c #617ABE",
"Z. c #644DA5",
"A. c #5C7DC0",
"S. c #983887",
"D. c #BF3D83",
"F. c #8E528B",
"G. c #927783",
"H. c #8C79B5",
"J. c #AE789C",
"K. c #C55E93",
"L. c #EA5C8C",
"P. c #E75E89",
"I. c #F25388",
"U. c #EC688B",
"Y. c #E76992",
"T. c #F17290",
"R. c #E1779D",
"E. c #3E838A",
"W. c #448A8E",
"Q. c #4A9883",
"!. c #64BC85",
"~. c #7184BD",
"^. c #6987C3",
"/. c #7C90C5",
"(. c #5D85C3",
"). c #948D8F",
"_. c #9296A9",
"`. c #99A2BC",
"'. c #AC96A4",
"]. c #F2BC85",
"[. c #F6B48D",
"{. c #F79EBD",
"}. c #F28FAC",
"|. c #F3A5BE",
" X c #F3AEB6",
".X c #DCA2A1",
"XX c #D9C39A",
"oX c #F4CC8B",
"OX c #F4C687",
"+X c #F7D28E",
"@X c #F8C794",
"#X c #F7D695",
"$X c #EDCBA7",
"%X c #F4CDA8",
"&X c #EED2AB",
"*X c #F5D8AB",
"=X c #FFDDBB",
"-X c #F3D9B1",
";X c #E5D9BF",
":X c #FDE3BD",
">X c #FDEBBC",
",X c #F7E3AE",
"<X c #D8CAB9",
"1X c #8F9BC6",
"2X c #95A9D5",
"3X c #94A8CD",
"4X c #A8B7D6",
"5X c #ACBDE0",
"6X c #CBB9D1",
"7X c #F4A9C2",
"8X c #E9BAC7",
"9X c #F3B2C9",
"0X c #D49AC0",
"qX c #ABC3E4",
"wX c #B6C5E4",
"eX c #DBD0D6",
"rX c #F6C6D8",
"tX c #E6D7D6",
"yX c #F5D8CD",
"uX c #ECE3CD",
"iX c #FEEDCF",
"pX c #F7E4CB",
"aX c #ECE5D4",
"sX c #F5E4D2",
"dX c #FEE5D4",
"fX c #FEECD2",
"gX c #FBE8D8",
"hX c #FEF2D4",
"jX c #FFF6DE",
"kX c #FFFADD",
"lX c #CDD8EC",
"zX c #FBD9E7",
"xX c #DBE4F1",
"cX c #FFE4E2",
"vX c #FFEBEC",
"bX c #FDEAE8",
"nX c #FFF5E2",
"mX c #FEF9E1",
"MX c #FFF5ED",
"NX c #E8E9F1",
"BX c #FEEBF2",
"VX c #FAEAF6",
"CX c #EAF5FB",
"ZX c #FFFDF5",
"AX c #FEF4FC",
"SX c #FEFDFE",
"DX c #F8F6F9",
/* pixels */
"9.9.7.9.w.0.9.9.7.9.9.0.w.7.0.7.9.9.e.7.7.9.0.0.u.9.7.w.7.7.0.9.0.9.9.9.e.w.w.9.0.9.9.4.7.-.;.>.7.7.7.w.w.e.9.9.7.8.7.w.7.w.9.9.",
"7.9.7.9.9.9.7.9.0.7.w.0.9.9.9.9.0.9.9.w.w.9.0.0.9.9.w.w.w.7.0.9.0.9.9.0.9.7.w.w.7.9.y.5.9.0.9.e.9.9.9.7.w.6.9.0.8.7.7.9.9.9.9.9.",
"9.9.9.7.9.7.7.0.e.0.w.7.7.9.7.9.0.e.9.w.7.9.9.0.9.7.7.w.7.7.9.9.7.9.0.0.0.7.w.a.w.0.0.0.9.0.7.6.y.y.9.e.9.4.7.9.0.9.9.9.7.9.9.0.",
"7.7.9.9.7.9.9.9.7.9.9.9.9.0.w.9.9.9.9.7.7.9.9.9.9.9.9.7.e.9.9.y.w.7.9.0.u.0.7.;.7.8.0.r.r.2.2.a.w.7.9.9.7.9.9.9.0.9.9.9.7.9.9.0.",
"0.7.9.7.9.0.0.w.9.7.7.0.7.7.0.e.9.e.0.7.7.7.9.9.9.0.7.7.7.9.9.9.9.4.7.9.u.y.u.7.8.7.7.2.3.W.Q.3.r.8.7.9.9.0.9.9.y.5.e.w.7.7.0.9.",
"9.9.9.7.9.w.7.9.9.9.9.9.9.9.9.7.9.9.9.7.7.7.7.e.9.9.0.7.7.e.9.9.9.7.7.4.9.9.0.8.8.8.>.2.Q.!.d s 2.>.9.0.0.0.7.9.5.y.9.9.w.7.9.9.",
"7.w.0.9.7.7.9.9.w.0.0.w.w.0.0.w.9.9.9.7.9.7.w.e.9.7.0.0.9.9.9.9.4.0.-.:.:.q.:.d.:.:.:.j.d j j d 3.2.w.r.9.0.7.7.y.y.y.9.7.7.0.9.",
"9.9.7.9.0.e.0.w.9.7.7.9.9.9.7.9.9.0.9.7.7.7.e.6.7.0.0.7.0.w.9.7.5.0.:.d.h.g.g.h.h.g.h.2 j g h j Q.Q.3.2.7.9.7.7.5.5.0.0.0.7.7.0.",
"0.w.7.9.9.9.7.9.9.7.9.7.0.0.w.9.9.9.7.7.7.7.w.w.7.9.0.0.4.9.8.8.9.0.d.g.@ + + + + + + 3 H g h h j d Q.2.7.y.0.w.w.7.0.0.7.8.8.8.",
"7.9.9.9.7.w.0.9.9.9.9.w.w.9.7.9.9.7.9.0.0.7.e.w.7.0.0.0.9.0.8.q.q.b.h.> w e - $ % = q 6 Z O.O.g g j Q.3.w.9.9.7.;.7.7.0.8.8.8.8.",
"9.9.9.7.0.9.0.w.7.0.e.0.9.0.0.9.9.9.7.9.9.7.7.6.9.9.0.9.4.8.q.q.=.g.F.y y p r = e u i ' E Z G G d d W.2.w.9.0.7.w.7.7.9.9.9.7.0.",
"9.7.9.7.0.w.9.w.9.7.7.9.7.w.9.7.7.7.9.9.7.0.7.w.4.0.0.7.4.8.-.n.S.S.3 ' | J u q r ] { R K 3 3 < W.3.2.r.9.7.9.9.w.7.7.9.9.9.9.9.",
"0.7.9.0.0.w.9.0.7.9.0.7.9.9.7.9.7.9.w.9.9.7.w.w.0.0.0.9.e.7.:.b.+ & t } *.{ i a 8 ' *.*.] w , O 1.-.-.w.0.0.0.0.9.w.7.6.5.5.y.y.",
"w.9.9.w.9.7.7.9.0.7.e.9.9.7.7.9.7.9.e.9.0.9.9.7.7.0.9.4.w.-.:.b.& q 6 T / ' 9 4 5 ] R U 8 q + S.t.8.8.0.y.9.9.9.7.9.w.4.e.9.5.y.",
"w.0.0.w.9.9.9.0.9.7.w.9.9.w.0.e.7.9.9.9.9.0.7.7.7.0.9.4.e.;.b.b.+ % q 5 u u e # - r i 8 5 - + O :.-.8.7.e.y.9.9.9.7.0.9.7.0.9.7.",
"9.7.9.9.7.9.7.w.9.9.0.9.7.0.9.7.7.7.w.9.9.0.0.9.r.u.i.i.e.8.n.b.+ % $ $ ; = ; ; - = $ - - - + > q.8.q.7.9.4.e.7.7.9.9.9.9.8.q.-.",
"w.e.9.y.9.0.9.7.9.7.9.9.9.7.w.w.6.e.e.0.7.7.r.9.r.N.B.^.^.~.H.H.D.% - * # 4 6 i u q = - * ; & O t.-.8.8.9.5.e.6.9.9.9.0.9.0.9.9.",
"w.e.9.9.9.0.7.w.w.e.9.9.9.9.7.e.w.e.0.u.0.0.9.4.p.~.2XqXwXwX6X'.L.% - * # r T / U t e * * $ & O q.q.8.0.y.9.w.7.e.9.7.9.9.7.0.0.",
"w.7.9.9.0.0.7.7.7.7.0.e.9.0.9.0.7.9.9.u.t.8.0.w.m.~.wXCXCXDXVX8XT.; * * $ t } *.| ] q - ; % , > q.q.q.u.9.9.e.7.w.7.9.7.7.7.7.7.",
"w.7.9.0.9.0.0.7.7.w.e.0.9.u.0.0.0.9.i.N.B.^.^.(.~.4XxXSXSXSXAX8XT.% - * - r ] | U t e ; I.Y.R.J.^.C.N.t.0.9.9.7.7.9.9.7.7.7.7.7.",
"7.9.9.9.9.9.9.9.w.7.0.e.0.0.8.7.9.8.p.C.2X5X5XqXqXlXVXSXSXSXAX8XT.= ; * * e u i u r - I.T.|.8X6X5X2X^.p.9.i.9.7.7.9.e.9.9.9.9.9.",
"7.7.9.9.9.9.e.9.7.0.w.0.9.7.8.>.7.-.N.1XlXCXCXCXCXDXSXSXSXSXVX8XT.= = ; # # = e q = - P.{.zXAXDXCXxX2XV.7.y.0.8.7.9.7.7.9.9.9.0.",
"7.7.9.9.e.e.e.7.7.8.0.w.r.N.B.(.A.B.1X5XNXSXSXSXSXSXZXSXSXAXDXtX}.Y.Y.U.T.U.U.U.U.U.U.}.8XBXSXSXSXxX2XN.7.0.9.7.7.7.e.e.7.9.0.0.",
"0.0.7.9.e.e.w.9.w.0.9.e.p.^.2X4X5X4X5XlXCXSXAXSXSXSXSXSXSXSXDXbXrX9X9X7X7X7X X7X9X7X X8XzXAXSXSXSXxX2XN.8.0.0.7.7.7.w.e.7.7.7.0.",
"9.0.9.7.7.w.w.9.9.9.0.7.V.2XxXNXNXNXCXDXDXSXSXSXZXZXZXZXZXSXZXDXAXBXbXvXBXVXvXbXvXBXvXBXAXSXSXSXZXNX2XV.7.0.7.7.7.9.5.9.5.9.9.7.",
"9.7.7.7.7.7.e.7.9.9.9.8.M.1XeXiXgXhXfXiXdXgXiXiXiXfXdXiXiXgXfXgXgXdXiXhXhXgXgXdXdXgXgXfXiXdXdXgXiXeX`.m.7.9.7.7.7.9.y.9.9.9.8.0.",
"9.9.9.7.7.7.7.7.9.5.9.-.M.)..X@X+X#X#X+XOXOXoX#X#X#XOX[.@X#X#X#X@X[.oX+X#X#X@X@X@X+X#X#XOXOX@X@X#XXX_.m.;.9.9.7.7.9.e.9.u.0.0.0.",
"9.7.0.8.7.7.w.7.9.y.9.-.k.< ' / ) .. .( / ! ) _ +.( ( / Q ) $._ Y / ( ` @.) Q U Q ` +.` ^ ! Y ( *.{ A l.;.5.9.9.7.w.9.e.9.9.0.0.",
"e.9.0.8.0.7.7.w.5.y.9.8.k.2 K m ! W ^ n z l z M ~ v k l v M ~ N z l l ~ ^ B b l z N M M v l l v B E A j.;.y.9.9.7.7.7.w.7.;.7.7.",
"w.7.0.0.0.0.7.7.e.y.e.-.k.1 K n b n v v m m m m m v W M m m m N b b ~ m v v v W m ~ ~ v v M M M b E < s.8.y.y.9.7.w.9.7.7.7.7.7.",
"w.7.9.9.9.5.9.7.9.9.y.8.k.A R B m z l v ^ ^ ~ k k v W Q W l k z M ^ M v k ! W ) ~ I P v W W ^ v k K 2 s.8.y.9.7.7.7.9.9.9.0.7.7.",
"w.7.0.9.9.9.7.7.9.9.y.8.k.A *.@.( ~ Q ` _ +.` ~ ! ` +.+.` ~ ~ ( ` @.` ^ I ~ ` +.` ( ~ Q ^ @.` ( Y ' < s.7.9.9.7.7.9.u.y.u.9.9.9.",
"0.8.8.7.0.0.9.9.e.9.w.-.M._.<X-X%X$X$X&X-X-X&X$X$X%X-X-X-X$X$X&X*X-X-X&X$X%X%X-X*X&X$X$X&X*X*X&X$XXX_.n.7.9.9.0.0.8.9.6.6.6.9.9.",
"0.0.7.9.9.9.9.9.9.9.w.8.M.3XaXhXhXiXdXfXhXhXhXfXdXfXhXhXfXfXfXfXhXhXhXgXdXfXfXhXhXiXiXiXhXhXiXfXfXtX`.m.;.4.9.9.9.9.9.9.7.7.9.0.",
"9.7.7.w.9.9.9.7.0.e.9.7.M.3XtXcXcXcXcXcXcXbXvXMXZXZXZXZXvXvXgXcXgXgXvXMXDXZXZXZXZXbXcXcXcXcXcXzXbXeX1XM.8.7.9.7.7.9.9.9.0.8.0.9.",
"9.9.w.w.5.e.9.7.7.9.y.u.n.'.0X|.|.|.{.{.|.9XrXbXSXSXSXSXzX9X|.|.{.7XrXzXAXSXSXSXNXrX7X{.{.7X|.|.7X0XH.n.7.9.7.4.7.9.9.9.0.9.0.9.",
"9.9.e.9.7.4.9.7.7.e.i.0.n.F.K.L.P.P.L.L.I.R.7XzXSXCXSXAXrX}.P.L.L.Y.{.rXAXSXSXSXzX|.T.L.L.L.L.U.L.K.F.b.7.4.4.8.7.9.0.9.9.0.9.4.",
"5.9.7.7.7.9.7.7.7.e.9.8.d.> w = a e e # # r }.yXmXmXnXgX XT.a - - a T. XgXmXmXbX9X}.r e e 4 = - = w F.d.8.4.4.9.0.0.9.9.0.7.9.9.",
"9.7.7.7.9.7.7.0.0.9.9.8.d.> a 5 8 9 9 9 5 9 [.@X,X*X*X@X[.] 8 9 9 8 ] [.*X,X*X%X[.[ p 9 9 5 5 9 9 t F.f.8.9.4.9.7.7.9.9.0.0.9.5.",
"w.7.7.9.0.9.8.8.8.u.9.-.k.2 6 7 L Y Y L 7 0 Y o.%.o...} / / Y I 7 k U ( &.&.| ..[ ( Y L z 7 L L Y ' < s.-.y.u.9.7.7.7.7.8.8.9.9.",
"w.9.0.0.0.0.8.8.0.y.9.;.j.2 K c m ~ ^ ~ l k k Q ` ~ z k k ~ ^ ~ L l l ~ ^ Q ! k k ~ ^ ^ b l z I ^ J A j.8.y.y.0.w.w.6.w.7.7.7.7.",
"6.e.0.u.0.0.7.8.9.9.y.w.o A E n n N b b b n n M N N x x N M N n n n n n N N N x N n B b B n x x B J f j.8.y.u.0.7.6.5.5.9.9.8.7.",
"e.9.0.0.0.9.7.7.e.y.9.;.<.A R B n c n b M M m n l n M W m n x v M B B n c l N ~ N v c n b B M n x K 2 j.8.9.u.0.7.w.w.5.9.9.7.7.",
"9.9.0.0.9.9.w.w.5.y.y.-.j.A | ` ^ P P Q ) _ Q P P Q ) ) Q ! P ! Q _ ) ! k ! ( _ ) ! P v Q _ _ Q P K 2 s.8.y.9.9.8.7.9.9.9.0.7.8.",
"0.0.9.9.4.5.e.w.w.r.y.8.z.).XX+XOX].X.OX+X+XoXX.X.OXoX+XOX].X.OX+X+XoX&.].OXoX+XoXOXX.X.OXoXoXOX]..X).s.7.9.9.9.7.7.9.0.0.0.0.7.",
"0.9.9.5.5.5.w.7.7.0.y.8.V.`.;X>X=X=X=X:XpX>X:X=X=X=X:X>XpX=X=X=X:X:XpX:X=X=X:X>X:X:X=X=X:XpX:X:X=X<X_.m.8.9.9.e.7.9.9.9.0.0.0.0.",
"7.7.e.e.9.0.0.7.8.w.w.>.B.`.aXmXjXjXjXnXkXnXjXjXjXjXmXmXkXjXbXnXkXkXmXkXnXnXjXmXkXjXnXnXjXmXmXkXnXeX3XM.7.9.w.7.8.7.e.9.9.9.0.0.",
"7.7.w.9.9.0.0.8.8.w.6.>.V.3XeXgXpXtXuXsXsXpXuXpXuXpXsXsXaXuXaXsXuXsXaXaXtXpXsXsXpXuXuXpXuXsXsXsXsXeX1Xm.7.9.7.8.8.7.w.6.6.e.9.0.",
"9.9.w.w.7.7.8.-.8.9.y.7.z.).*.@.#. . .#.%.%.$. . .$.$.%.#... ...$.%.$.#. . .%.%.$.#. . .#.%.%.$.` [ G.z.q.y.e.w.7.w.7.w.7.8.7.8.",
"u.9.e.w.9.9.8.8.7.9.e.8.z.).{ +.} J J / | | / J J / | | } U J / | | ) R J R } o.| / J J / | | R U S G.n.7.9.e.7.7.7.9.9.7.7.0.0.",
"9.9.9.9.y.u.9.9.7.9.e.7.z.W.A Z S : V S D D S V V C D D S : : V F D D V : V S D D C V V F D D C V 1 v.:.8.w.w.w.7.9.9.u.9.9.0.9.",
"9.7.9.e.9.y.y.9.w.w.5.7.t.l.v.c.  . o   c.c.  . . X c.c.c.c.. . X c.X . . . c.c.c.X .   X c.c.  o k.l.-.w.w.w.8.7.9.y.9.0.7.9.e.",
"7.7.w.8.7.7.9.6.6.4.7.7.0.q.1.f.1.:.,.,.,.,.,.<.,.,.,.,.,.:.:.,.<.,.,.,.<.:.<.,.,.:.<.<.,.,.,.,.<.,.7.0.e.w.7.7.9.9.u.9.9.7.w.w.",
"7.7.7.7.7.w.9.5.7.7.7.0.0.0.9.7.9.y.5.y.5.9.9.9.9.9.9.5.y.5.5.9.e.9.9.9.9.y.9.9.5.9.y.9.y.9.9.5.7.7.4.9.0.7.w.0.9.y.9.9.7.7.w.w.",
"9.9.9.9.9.9.e.9.9.7.8.0.8.9.9.y.9.9.9.9.y.9.9.9.9.9.9.4.9.5.y.9.9.5.i.5.0.9.y.9.e.9.9.y.9.e.e.e.y.y.9.7.w.7.7.0.y.9.9.9.0.7.7.7.",
"9.9.9.9.9.9.9.9.9.0.0.8.8.7.7.4.7.7.0.7.7.9.8.8.8.8.0.7.0.8.8.0.9.7.7.7.7.7.7.7.9.7.7.0.7.7.7.7.5.5.9.7.7.8.0.9.y.e.9.9.0.0.0.0.",
"7.9.9.9.7.7.7.9.0.u.0.8.7.7.7.9.7.7.7.7.7.7.8.7.8.8.8.7.7.7.7.7.7.7.7.7.8.8.8.7.7.8.8.7.7.8.7.8.7.7.7.7.0.9.9.9.9.5.e.w.9.9.0.0.",
"7.9.7.e.w.w.w.7.9.9.9.9.9.9.9.0.e.9.e.9.7.9.e.9.7.9.9.7.9.9.e.9.9.8.7.9.9.7.0.0.0.9.0.9.7.7.7.9.7.7.7.9.0.9.9.9.9.e.9.7.9.9.0.7.",
"0.0.9.9.9.w.7.8.7.7.9.e.9.9.9.0.9.e.9.9.9.9.9.9.9.9.9.9.9.9.9.9.9.9.9.9.5.9.9.0.9.9.9.9.9.9.9.9.0.0.9.9.9.9.9.9.7.7.7.w.9.7.8.8.",
"u.9.y.9.9.7.w.7.7.7.w.5.5.9.9.9.9.7.9.9.0.0.7.e.9.7.0.9.7.9.9.7.9.9.7.9.e.7.9.0.9.7.5.5.9.0.7.9.9.9.9.y.e.9.e.7.7.7.9.w.9.7.7.8.",
"0.7.9.9.9.9.9.9.7.5.e.5.e.5.9.7.9.9.w.7.0.9.9.9.e.9.7.9.7.e.9.9.9.9.7.9.5.e.7.9.0.9.7.e.7.9.9.7.e.7.9.9.9.e.w.7.7.0.9.9.e.9.9.9.",
"7.7.7.9.9.0.u.9.9.9.9.9.y.9.7.7.7.9.e.9.9.9.5.5.5.e.0.9.9.9.6.9.9.0.9.9.9.5.7.0.8.9.9.e.9.9.0.0.w.w.9.9.9.7.w.7.7.0.0.9.9.e.9.0.",
"w.7.7.7.7.0.9.7.7.7.9.0.u.0.7.7.7.9.9.0.7.0.9.6.5.9.0.7.0.7.9.9.0.7.9.9.e.9.9.8.8.0.e.e.9.0.7.0.w.7.0.0.0.9.0.7.7.0.7.9.w.7.9.0.",
"7.7.7.7.7.7.7.7.7.7.0.0.0.0.7.8.8.7.7.8.8.8.7.6.7.9.q.8.8.8.7.8.7.8.7.7.w.7.8.8.7.7.w.7.7.7.7.7.w.0.0.0.0.0.7.7.7.8.7.w.w.w.7.9."
};
