/* XPM */
static char *result[] = {
/* columns rows colors chars-per-pixel */
"32 32 220 2 ",
"   c #1D0304",
".  c #250913",
"X  c #330B13",
"o  c #25060B",
"O  c #301623",
"+  c #342A32",
"@  c #2D3334",
"#  c #373338",
"$  c #362D2E",
"%  c #4A1524",
"&  c #631F32",
"*  c #47252D",
"=  c #58263D",
"-  c #4B393C",
";  c #473739",
":  c #59353D",
">  c #66273C",
",  c #303E6B",
"<  c #2F3855",
"1  c #573347",
"2  c #5E2F43",
"3  c #7C3446",
"4  c #6A364D",
"5  c #3A4257",
"6  c #384469",
"7  c #344379",
"8  c #354A74",
"9  c #57595D",
"0  c #5E4656",
"q  c #6C4952",
"w  c #705156",
"e  c #575962",
"r  c #54647E",
"t  c #676A6B",
"y  c #696866",
"u  c #766B6B",
"i  c #696A71",
"p  c #7A6973",
"a  c #873647",
"s  c #A23B5D",
"d  c #953A65",
"f  c #844856",
"g  c #985876",
"h  c #8E5E6C",
"j  c #AC476B",
"k  c #AC587A",
"l  c #BD587C",
"z  c #B0466A",
"x  c #926B77",
"c  c #A8657B",
"v  c #263F8F",
"b  c #1F4B9D",
"n  c #1B539F",
"m  c #2C4384",
"M  c #2A4A8B",
"N  c #334787",
"B  c #2B4593",
"V  c #264C93",
"C  c #2A4B93",
"Z  c #254D9C",
"A  c #2A4C9D",
"S  c #27479C",
"D  c #25519D",
"F  c #2B549C",
"G  c #235091",
"H  c #365694",
"J  c #375699",
"K  c #1D4FA2",
"L  c #1E51A7",
"P  c #244DA3",
"I  c #294DA4",
"U  c #234DAA",
"Y  c #294CAA",
"T  c #2352A4",
"R  c #2A50A4",
"E  c #2654AB",
"W  c #214DB0",
"Q  c #2555B1",
"!  c #355BA2",
"~  c #2760B9",
"^  c #56668B",
"/  c #536B9C",
"(  c #506799",
")  c #5F759E",
"_  c #67738B",
"`  c #64739A",
"'  c #697696",
"]  c #6A6D8C",
"[  c #4D6DA4",
"{  c #516DA5",
"}  c #576DA9",
"|  c #4C71A9",
" . c #5D7AA3",
".. c #5D78A9",
"X. c #5B7BB0",
"o. c #6272A3",
"O. c #6375AA",
"+. c #657AAC",
"@. c #6079B1",
"#. c #3772C5",
"$. c #3A77D4",
"%. c #B35F83",
"&. c #9A6582",
"*. c #A56882",
"=. c #BB6D8A",
"-. c #B17A8D",
";. c #C45780",
":. c #C8678D",
">. c #C76C91",
",. c #C47794",
"<. c #6488B7",
"1. c #5C89C7",
"2. c #548ED5",
"3. c #4F91DD",
"4. c #5393DD",
"5. c #5992D4",
"6. c #5691CB",
"7. c #6B98CE",
"8. c #78A3CF",
"9. c #74A4D7",
"0. c #7BAAD7",
"q. c #7CB0DF",
"w. c #4787E3",
"e. c #4B94E5",
"r. c #4897EA",
"t. c #5095F3",
"y. c #5093E9",
"u. c #74B0EF",
"i. c #6EA8E7",
"p. c #959C9C",
"a. c #A29497",
"s. c #B3959F",
"d. c #9FA09B",
"f. c #8B99A9",
"g. c #999DA2",
"h. c #8699BB",
"j. c #8998B4",
"k. c #919AB5",
"l. c #8084A9",
"z. c #B699A8",
"x. c #A88CA2",
"c. c #9DA3AD",
"v. c #ABA9BC",
"b. c #BBBABB",
"n. c #C5809D",
"m. c #E09ABE",
"M. c #C4BCBD",
"N. c #CBA5B2",
"B. c #8799C1",
"V. c #86A8CB",
"C. c #99B2CE",
"Z. c #89A7D2",
"A. c #9BAFD0",
"S. c #9CB3D1",
"D. c #98BBDA",
"F. c #A0B1CF",
"G. c #BFBFC2",
"H. c #A1B8DA",
"J. c #80B0E1",
"K. c #ED9FC5",
"L. c #D9A1C1",
"P. c #CCBBC1",
"I. c #D5B3C4",
"U. c #E3A5C6",
"Y. c #BEC4CB",
"T. c #A5C2DB",
"R. c #9FD0F1",
"E. c #9DC1E1",
"W. c #A7CAE9",
"Q. c #BFD9E9",
"!. c #B6E8FF",
"~. c #C7CAC4",
"^. c #D4CCCE",
"/. c #D2C7C7",
"(. c #CED1CC",
"). c #D2D1CE",
"_. c #C9CDD6",
"`. c #D8CED5",
"'. c #CBD3DD",
"]. c #C7D3D7",
"[. c #D2D3D3",
"{. c #D9D5D8",
"}. c #E4C7DA",
"|. c #ECD7DC",
" X c #C8CDE7",
".X c #C3D5E4",
"XX c #CAD6E3",
"oX c #C3D4EC",
"OX c #CDDDED",
"+X c #C9D8E8",
"@X c #D4DEE2",
"#X c #D3DEEC",
"$X c #D8DCE7",
"%X c #D4CBE6",
"&X c #E8DBE6",
"*X c #F6D8E9",
"=X c #F5CEE3",
"-X c #CEE4E9",
";X c #D3E2ED",
":X c #D7E5E7",
">X c #CCE2F2",
",X c #CBE5F9",
"<X c #C7EAF7",
"1X c #D4ECF0",
"2X c #D7EAF6",
"3X c #D6F9FB",
"4X c #E9EDEC",
"5X c #EEF2EF",
"6X c #F2F2ED",
"7X c #ECF3F3",
"8X c #EBF5FC",
"9X c #EDFDFD",
"0X c #E5F8FA",
"qX c #F5F2F4",
"wX c #FBF4F5",
"eX c #FAFFF6",
"rX c #F4FFFE",
"tX c #FDFEFE",
"yX c #F7F5FB",
"uX c #F1EEF7",
/* pixels */
"R Z Z I U U E A M 7 8 e , ] '.tXtXtXtXtXtXeXtXtXtX'._ 8 M R D n ",
"Z R P Z T K Z F { ' ' ] ] f.$XtXtXtXtXtXtXtXtXtXtX:Xf.^ H D L T ",
"I I I Z D D Z | A..X'._._.@X7XtXtXtXtXyXtXeXeXtXrX0X-XC.| Z U U ",
"Y Y I A G F X.<.>XrXrXrXtXrXtXrXtXtXtXtXtXeXeX7X#XQ.oXD.| A U U ",
"Y Y Y A V | D.>X0XeXrXrXtXtXtXtXtXtXeXtXtXeXtX#XB.O.X.[ ! Y Y Y ",
"W P I A B O.Q.9XrXtXrXtXtXtXtXtXtXtXeXtXeXtXrX XO.v V S I Q Y I ",
"W U I B 7 ` XXtXrXtXtXtXtXtXtXwXtXtXtXeXeXeXtXoX} v S P Y Y Y I ",
"L I S J / k.$XqX].P.P.P.M._.qXtXtXtXeXtXtXtXtX#XB.{ J A I I Y I ",
"K P C [ S.:XtX`.p 1 - - - u [.tXtXtXtXtXtXtXrX8XOXA.[ G Z R P I ",
"T K C @..X8X{.x.1 .     o : a.{.wXtXtXtXtXtXrXrX9XQ. .G V D Z T ",
"T P A +.OX`.x 1 4 2 X X : 4 1 h `.tXtXtXtXrXtXrXrXQ.) M V V n P ",
"U Y B O.oX~.4 2 &.*.> > &.&.= : a.`.qXeXtXtXtXeXrX.X .M Z D T P ",
"T S N +.%X}.*.g L.L.k k m.L.&.3 ; u ).eXrXtXtXrXrX+XO.C Z Z K U ",
"Z B N o.%X=X,.%.U.K.:.:.K.U.-.a   ; M.6X(.(.4XrX;XC.{ C D D U Y ",
"M m 7 o.%X=X,.%.>.>.%.;.:.>.c a . ; M.).y y [.2Xk./ J A Z Z I P ",
"X.X.O.l.v.z.&.d j j s s z ;.=.*.0 p |.).y 9 g.c.^ m A I D Z F A ",
"'.XX.Xv.e + O * w f & & w -.I.}.~.^.uXqX).d.e < , N C R I I Y Y ",
"XX#X9X].t # 1 q c h % % g N.*XyXeXtXtXtXeX).t 5 ^ / J I I I I Y ",
"' f.-X0X_.b.P./.|.z.* * s.*XwXtXtXtXtXtXeX6X~._..XH.{ B V D T P ",
"6 _ .XrXtXtXtXwX{.d.w p /.tXtXtXyXtXtXtXtXtXyXtXrX.X} m C Z T P ",
"7 ) Q.9XtXtXtX^.u 9 d.[.wXtXtXeXtXtXtXtXtXtXtXtXeX].` m C G D T ",
"M / S.;X8XtXtXb.@ @ ~.eXtXtXtXtXtXtXtXtXtXtXtXtXeX:Xj.( J C Z P ",
"C H ( j.:XtXtXb.@ @ Y.tXeXtXtXtXeXtXrXrXtXtXtXtXtXyX#XS. .M C C ",
"D Z m ) .XtXtX(.t 9 g.~.M./.4XtXeXrXrXrXrXrXtXyXtXtXtX.X` 8 / ..",
"R P C ..oXtXtX5X[.c.9 # $ y (.tXrX9X9X0XrXrXrXrXtXrXrX]._ r C.Q.",
"U Y S | H.;X8XtXtX[.i + $ y ).tX2X>X<X>X>X1X0XrXrXtXtX'.p.f.@XrX",
"Y P S H ( h.;XrXrXyX_.b.M.).qX4XW.V.V.V.V.D.3X9XrXrXtX7X'.:X8XrX",
"P K R D F X.W.,X,X2XrXtXeXtXrX:XA.<.<.<.1.8.W.2X0XrXrXrXrX8X#X.X",
"L L K L #.6.9.0.Z.D.3XrXrXrXrX-XV.<.1.5.5.5.0.D.2X8XrXrXrXOXj. .",
"n E ~ #.w.4.3.2.1.0.W.,X0X9XrX1XD.8.7.5.4.3.6.0.<X0X@X XoXA.( m ",
"L ~ $.w.r.r.e.e.3.4.9.T.2XrXrX0X<XR.i.y.e.e.4.q.<X>Xk.`  ./ H M ",
"L ~ w.t.r.r.r.t.t.y.1.Z.>XrXrXrX3X!.u.e.r.e.3.0.<XQ.' , N N G b "
};
