/* XPM */
static char *result[] = {
/* columns rows colors chars-per-pixel */
"32 32 117 2 ",
"   c #3E4C73",
".  c #3D4B7A",
"X  c #3B4B7E",
"o  c #2E4E8B",
"O  c #2B4F8D",
"+  c #2E4D8E",
"@  c #2C4E8E",
"#  c #2D4F8F",
"$  c #334F81",
"%  c #314F83",
"&  c #374A84",
"*  c #304F85",
"=  c #334D86",
"-  c #314E86",
";  c #304F86",
":  c #344D85",
">  c #344D86",
",  c #384B83",
"<  c #324C89",
"1  c #314E88",
"2  c #304F88",
"3  c #334D8A",
"4  c #304E8A",
"5  c #314E8A",
"6  c #374C8B",
"7  c #334A8D",
"8  c #314D8C",
"9  c #334C8C",
"0  c #314D8E",
"q  c #305083",
"w  c #2C4D90",
"e  c #2D4E91",
"r  c #2F4E91",
"t  c #2F4C92",
"y  c #2F4D93",
"u  c #2D4E93",
"i  c #2F4B95",
"p  c #2F4D95",
"a  c #2E4B99",
"s  c #294F9A",
"d  c #2F4C9A",
"f  c #2B4B9E",
"g  c #2B4C9D",
"h  c #294E9C",
"j  c #2A4E9C",
"k  c #2A4D9E",
"l  c #2A4D9F",
"z  c #294E9E",
"x  c #284F9E",
"c  c #284E9F",
"v  c #294E9F",
"b  c #2B4E9F",
"n  c #2D4C9E",
"m  c #334B91",
"M  c #314C91",
"N  c #304D91",
"B  c #314C93",
"V  c #324D92",
"C  c #304C95",
"Z  c #304D99",
"A  c #26509C",
"S  c #29509F",
"D  c #274DA2",
"F  c #244EA2",
"G  c #254FA3",
"H  c #264EA3",
"J  c #214FA5",
"K  c #224FA4",
"L  c #234FA6",
"P  c #224EA7",
"I  c #244DA5",
"U  c #254DA5",
"Y  c #244EA4",
"T  c #254FA5",
"R  c #264EA5",
"E  c #254CA7",
"W  c #244DA7",
"Q  c #254EA6",
"!  c #264EA6",
"~  c #264FA7",
"^  c #274FA7",
"/  c #294BA2",
"(  c #2A4FA0",
")  c #284EA3",
"_  c #2B4EA2",
"`  c #284DA5",
"'  c #2B4DA4",
"]  c #274BA9",
"[  c #224DA9",
"{  c #234FA8",
"}  c #234EAA",
"|  c #224FAA",
" . c #254CA9",
".. c #244DA9",
"X. c #264DA8",
"o. c #254EA8",
"O. c #264FA9",
"+. c #244CAB",
"@. c #264DAA",
"#. c #254EAA",
"$. c #244CAC",
"%. c #254DAC",
"&. c #264DAC",
"*. c #284DA8",
"=. c #284CAA",
"-. c #284CAC",
";. c #284CAD",
":. c #2151A3",
">. c #2251A3",
",. c #2250A5",
"<. c #2350A5",
"1. c #2250A6",
"2. c #2451A6",
"3. c #2450A7",
"4. c #2650A6",
"5. c #2250A8",
"6. c #2450A9",
/* pixels */
"o.o.o.o.o.o.o.o.o.o.o.o.o.o.o.o.Q { } #.X.! o.{ P X.E } 3.x + : ",
"o.o.o.o.o.o.o.o.o.o.o.o.o.o.o.o.Q { } #.X.! o.{ P X.E } 3.x + : ",
"o.o.o.o.o.o.o.o.o.o.o.o.o.o.o.o.Q { } #.X.! o.{ P X.E } 3.x + : ",
"o.o.o.o.o.o.o.o.o.o.o.o.o.o.o.o.Q { } #.X.! o.{ P X.E } 3.x + : ",
"o.o.o.o.o.o.o.o.o.o.o.o.o.o.o.o.Q { } #.X.! o.{ P X.E } 3.x + : ",
"o.o.o.o.o.o.o.o.o.o.o.o.o.o.o.o.Q { } #.X.! o.{ P X.E } 3.x + : ",
"o.o.o.o.o.o.o.o.o.o.o.o.o.o.o.o.Q { } #.X.! o.{ P X.E } 3.x + : ",
"o.o.o.o.o.o.o.o.o.o.o.o.o.o.o.o.Q { } #.X.! o.{ P X.E } 3.x + : ",
"o.o.o.o.o.o.o.o.o.o.o.o.o.o.o.o.Q { } #.X.! o.{ P X.E } 3.x + : ",
"o.o.o.o.o.o.o.o.o.o.o.o.o.o.o.o.Q { } #.X.! o.{ P X.E } 3.x + : ",
"o.o.o.o.o.o.o.o.o.o.o.o.o.o.o.o.Q { } #.X.! o.{ P X.E } 3.x + : ",
"o.o.o.o.o.o.o.o.o.o.o.o.o.o.o.o.Q { } #.X.! o.{ P X.E } 3.x + : ",
"o.o.o.o.o.o.o.o.o.o.o.o.o.o.o.o.Q { } #.X.! o.{ P X.E } 3.x + : ",
"o.o.o.o.o.o.o.o.o.o.o.o.o.o.o.o.Q { } #.X.! o.{ P X.E } 3.x + : ",
"o.o.o.o.o.o.o.o.o.o.o.o.o.o.o.o.Q { } #.X.! o.{ P X.E } 3.x + : ",
"o.o.o.o.o.o.o.o.o.o.o.o.o.o.o.o.Q { } #.X.! o.{ P X.E } 3.x + : ",
"L L L L L L L L L L L L L L L L ! X.=.@.o.L { o.E ! I L 4.s o $ ",
"o.o.o.o.o.o.o.o.o.o.o.o.o.o.o.o.! @.&.@.o.{ { } W o.P { ~ z + % ",
"@.@.@.@.@.@.@.@.@.@.@.@.@.@.@.@.Q @.&.@.{ 5.| } ..o.[ | 6.c w - ",
"@.@.@.@.@.@.@.@.@.@.@.@.@.@.@.@.T X.@.o.L 1.5.} W o.P | 6.c w - ",
"X.X.X.X.X.X.X.X.X.X.X.X.X.X.X.X.G ! X.! T <.L o.W Q W [ O.v r - ",
"Q Q Q Q Q Q Q Q Q Q Q Q Q Q Q Q R ! *.X.Q <.L o.E X.W ..o.( r = ",
"o.o.o.o.o.o.o.o.o.o.o.o.o.o.o.o.! @.-.=.X.o.o.@.] =. .+.@._ C 3 ",
"o.o.o.o.o.o.o.o.o.o.o.o.o.o.o.o.@.&.;.&.#.o.#.@.] =.&.$.&.' C 3 ",
"! ! ! ! ! ! ! ! U ! ! ! ! ! ! U #.%.&.&.o.{ { o.E X.o.} O.( y 1 ",
"! ! ! ! ! ! ! ! U ! ! ! ! ! ! U 5.} #.{ L ,.,.L Y T K J 2.x @ * ",
"L L L L L L L L L L L L L L L L 1.5.{ { ,.:.>.<.F G K J 2.A O q ",
"5.5.5.5.5.5.5.5.5.5.5.5.5.5.5.5.1.{ } { <.>.>.<.Y G <.L 3.S # - ",
"{ { { { { { { { { { { { { { { { T ! X.! H G G H D ) ` X.^ b N > ",
"c c c c c c c c c c c c c c c c z l l l j h h k g n f / _ d 7 , ",
"u u u u u u u u u u u u u u u u e u p y e # e y t B i a Z m & . ",
"1 1 1 1 1 1 1 1 1 1 1 1 1 1 1 1 2 4 8 5 2 ; 2 5 < 9 0 M V 6 X   "
};
