/* XPM */
static char *result[] = {
/* columns rows colors chars-per-pixel */
"32 32 250 2 ",
"   c #1C3C1A",
".  c #233A1C",
"X  c #1F3B24",
"o  c #2C3E30",
"O  c #1D4317",
"+  c #244719",
"@  c #3E611F",
"#  c #2E472B",
"$  c #374D2F",
"%  c #344738",
"&  c #2B5237",
"*  c #485D1A",
"=  c #55791F",
"-  c #485C21",
";  c #4D6B30",
":  c #617432",
">  c #473F78",
",  c #1E5856",
"<  c #205B46",
"1  c #344E5A",
"2  c #28555F",
"3  c #365A58",
"4  c #2C4D4B",
"5  c #3E7959",
"6  c #1B5471",
"7  c #2B4D68",
"8  c #285467",
"9  c #355868",
"0  c #2B4C7C",
"q  c #275477",
"w  c #345379",
"e  c #2D677D",
"r  c #3A6E78",
"t  c #3A7878",
"y  c #35716C",
"u  c #487241",
"i  c #587957",
"p  c #497050",
"a  c #677A52",
"s  c #494277",
"d  c #47786B",
"f  c #57776A",
"g  c #4C7178",
"h  c #62796F",
"j  c #6B507D",
"k  c #4C8437",
"l  c #659E37",
"z  c #74A02F",
"x  c #59855E",
"c  c #599652",
"v  c #5EA15A",
"b  c #528373",
"n  c #6B9165",
"m  c #5DA168",
"M  c #7BA56D",
"N  c #79A768",
"B  c #79A375",
"V  c #758C46",
"C  c #76FA4B",
"Z  c #7FEF5B",
"A  c #7DF455",
"S  c #76D367",
"D  c #76C56E",
"F  c #B69F5B",
"G  c #98A957",
"H  c #98BA5A",
"J  c #8CA653",
"K  c #B5A65E",
"L  c #A9B059",
"P  c #839E6B",
"I  c #B29F66",
"U  c #84A76B",
"Y  c #9DBB63",
"T  c #86B67A",
"R  c #86A36F",
"E  c #B9A766",
"W  c #AAB764",
"Q  c #B3B966",
"!  c #A9B26E",
"~  c #CD935C",
"^  c #C49964",
"/  c #DB8678",
"(  c #CF9572",
")  c #C0A868",
"_  c #C1B073",
"`  c #E08A6F",
"'  c #8ECE4F",
"]  c #85EE5B",
"[  c #8AEC5C",
"{  c #8CEE54",
"}  c #94E959",
"|  c #83F25A",
" . c #89F156",
".. c #97F255",
"X. c #95F04E",
"o. c #A5EB57",
"O. c #B1F45C",
"+. c #9BD767",
"@. c #8ED775",
"#. c #A8C767",
"$. c #B6CB6B",
"%. c #A6D56D",
"&. c #BCC976",
"*. c #AADA77",
"=. c #B3D372",
"-. c #8AEA67",
";. c #98E665",
":. c #87F265",
">. c #8CEB73",
",. c #97E97B",
"<. c #97F575",
"1. c #92F270",
"2. c #B5EB6C",
"3. c #A7EA76",
"4. c #ADF46D",
"5. c #B0D35F",
"6. c #C1D076",
"7. c #C7FC6A",
"8. c #D0F773",
"9. c #E6FF7E",
"0. c #1C548A",
"q. c #1D5498",
"w. c #1F4E9E",
"e. c #244C8C",
"r. c #2B4D87",
"t. c #364886",
"y. c #225483",
"u. c #285489",
"i. c #35588B",
"p. c #2B4E94",
"a. c #254D9E",
"s. c #2A4D9C",
"d. c #264B92",
"f. c #324A93",
"g. c #235294",
"h. c #24529D",
"j. c #2B5196",
"k. c #355A91",
"l. c #356989",
"z. c #1C4FA3",
"x. c #1E52A4",
"c. c #244EA4",
"v. c #294DA3",
"b. c #244DAA",
"n. c #2C4FAB",
"m. c #2451A3",
"M. c #2551AB",
"N. c #2A51A5",
"B. c #3152A8",
"V. c #695385",
"C. c #466F8C",
"Z. c #487786",
"A. c #4D7293",
"S. c #527391",
"D. c #6D7491",
"F. c #5270A3",
"G. c #9F7BA1",
"H. c #8D7491",
"J. c #5A8699",
"K. c #52988F",
"L. c #719790",
"P. c #73AF8E",
"I. c #759DA7",
"U. c #6896A7",
"Y. c #7FAFA3",
"T. c #58A792",
"R. c #7CC8A2",
"E. c #71C893",
"W. c #AA8D9A",
"Q. c #8BB59B",
"!. c #90B18D",
"~. c #AEAC87",
"^. c #918DA6",
"/. c #B290B2",
"(. c #97B3B3",
"). c #B6BFB2",
"_. c #B8A1A7",
"`. c #D68985",
"'. c #CE9193",
"]. c #CCAA8A",
"[. c #D49DA3",
"{. c #C7A8AA",
"}. c #E1BAB3",
"|. c #9CD78B",
" X c #9DD496",
".X c #94C180",
"XX c #A4D989",
"oX c #A9D597",
"OX c #B7D799",
"+X c #B1CD92",
"@X c #97E496",
"#X c #90E88B",
"$X c #A4E686",
"%X c #B8E89E",
"&X c #ACF59B",
"*X c #97CCB0",
"=X c #A9C9A2",
"-X c #ABD4A4",
";X c #B7DAA7",
":X c #B5C4B1",
">X c #B4D2B4",
",X c #95E4A4",
"<X c #B8E4AD",
"1X c #B1F0B0",
"2X c #CAD796",
"3X c #C4D48C",
"4X c #DDFF8B",
"5X c #C9FE97",
"6X c #CCF28F",
"7X c #E6FC89",
"8X c #E9FE95",
"9X c #C3D6B7",
"0X c #E6DFA9",
"qX c #CAEAA3",
"wX c #C4FAAA",
"eX c #CBFAB9",
"rX c #D4F3B1",
"tX c #EDF7B1",
"yX c #8FB6C9",
"uX c #A1B2CE",
"iX c #D6BDC1",
"pX c #9AC9C0",
"aX c #B6C5C4",
"sX c #B8D4D5",
"dX c #B1D4CD",
"fX c #B6E3C8",
"gX c #B9E0DB",
"hX c #D3D7DE",
"jX c #D0C0CA",
"kX c #C6FDCC",
"lX c #DAF8C5",
"zX c #DDF8D9",
"xX c #C9EDD4",
"cX c #E7FCC7",
"vX c #ECFDD7",
"bX c #F8FED8",
"nX c #F8EECC",
"mX c #C6DBE6",
"MX c #D5DFE9",
"NX c #F5DCE3",
"BX c #D9FBE7",
"VX c #CCEBEE",
"CX c #F4E5E8",
"ZX c #F9FEE7",
"AX c #FCFBF6",
"SX c #FEF4FE",
"DX c #FDFEFC",
"FX c #F4FAF6",
"GX c #E2FAEB",
"HX c #ECC4CC",
/* pixels */
"m.m.h.c.M.b.z.z.z.x.0.1 $ a 3X2Xh 1 7 q g.h.a.c.c.M.b.M.M.c.m.h.",
"x.m.m.z.b.b.M.x.q.q.6 9 i G 2X2XR f 9 w r.d.d.a.s.c.c.m.b.b.c.c.",
"M.m.m.m.x.z.m.q.0.0.6 x T qXqXrX<XQ.f 2 w w 0 t.e.s.v.B.b.b.b.b.",
"n.m.a.c.w.q.0.l.l.t 5 m XX5X5X5XeXoXM f h h h S.F.F.B.B.v.c.b.b.",
"v.v.m.h.h.q.6 t T.E.E.E.-.<.3.<.<.$X$XXXOX3X:X9XsXyXF.d.f.v.v.b.",
"s.s.s.h.0.y.e K.E.#XZ Z | | | [ { 1.4.6X4X8X8XtXhX(.S.t.d.s.v.b.",
"v.v.m.g.0.l.T.R.#X>.:.:.| Z | A  .{ ..O.7.9.8X6XP f 9 0 f.s.v.b.",
"v.v.m.k.l.J.pX,X#X,.<.<.<.1.-.[  . .X.X.O.8.8.G : # 1 w t.s.v.b.",
"v.a.d.l.U.*XxXfX&X#X&XwX1X&X3.-.]  . ...o.' z = @ & 4 9 t.p.v.b.",
"b.c.g.A.yXsXaX-X X@X|.OXlXlXqX$X:.:. . .[ ' l k c x b Z.i.k.s.v.",
"h.h.e.F.dXaXh 3 !.T ; f 9XvXlXwX<.[ [ [ :.;.,.|.+X>XdXyXA.e.s.c.",
"g.g.0.J.mXiXo . N M O $ ).ZXbXrX3.} } { ] <.&X1XkXzXgXyXF.e.s.s.",
"y.y.0.J.mXaX% o N N + & :XZXbXlX3.%.} ....:.<.&XfXfXI.A.k.j.a.N.",
"q e l.U.mXaX% . B N + % :XZXbXcX2.2.O.o.X. .>.#X,XQ.g 7 e.s.v.n.",
", t U.pXVXaX4 . M M + & :XZXbXbX4X4X7.O.X. .:.S v d 9 8 r.s.v.b.",
", l.pXVXGXaX% . M M O & :XZXbXbX4X7X8.7.O...| S c x h Z.i.p.b.n.",
"< b pXBXFX:X#   M T . # :XZXbXbXtX8X7X8.7.4...} %.XX9X(.S.e.a.b.",
"< b pXBXBX:Xi u M T ; a 9XbXtXtX8X7X$.5.2.O.} 4.5XtX9X(.A.y.M.b.",
"< t Q.fX<X>X-X=X XXX+X9XvXlXqXqX7X&.: = H O.o.2.5XqXR f i.d.m.b.",
", t U.Y.P.Q.Q.-X%X-X;X=X-X!.U U #.J - * J 5.5.*.OXT i 4 q g.b.M.",
"q l.l.d & X o i -X-Xi $ # # + + + ; V G G Q +X! n i 3 8 0 g.N.n.",
"g.g.q 7 & X   p =XoX; O + + + O   - G $.L E ].I n p 3 q 0 p.s.c.",
"h.h.0.l.J.!.B !. X XT M N N N N N U Y W K E _ ~.!.L.r q u.j.s.v.",
"c.c.g.k.I.*X>X<X;X-X<X<X<X%XoXXX*.*.Y L E ^ ( ~.{.Q.d 8 0 j.s.a.",
"c.v.v.i.g L.sXGXzXvXBXzXzXeX-XoX3.%.Y G F ^ ( ~.:X!.p , q d.m.h.",
"s.v.f.f.C.^.hXAXDXDXFXFXZXvXrX9X*.%.H L F ^ ( ].~.@.m y l.0.g.q.",
"f.f.t.F.uXMXFXDXDXDXSXAXZXbXcXrX3XXX#.Q E I I ! &.$X@XR.t 8 0.y.",
"t.t.t.D.mXDXDXAXAXAXAXZXnXnX0X0X3X6.&.&.Q L Y #.%.$X&X,XT.t 8 8 ",
"s > > D.hXDXDXDXDXFXSXCX0X[.].].^ E 6.6.$.%.%.+.:.1.<.#X@XE.5 & ",
"V.V.j H.iXCXSXSXSXCXCXHX[.`.`./ ^ ) _ $.%.;.;.[ | A A 1.&X@Xv k ",
"G./.G.W._.jXCXSXSXNXiX[.`./ / ` ~ ^ K #.+.[ | A C C C :.>.#XS D ",
"/././._.W._.NXSXSXNX[.`./ / ` ` ~ ^ K W +. .C C C C A | -.;.,.,."
};
