/* XPM */
static char *result[] = {
/* columns rows colors chars-per-pixel */
"64 64 256 2 ",
"   c #273628",
".  c #2B3832",
"X  c #21361D",
"o  c #25451B",
"O  c #294926",
"+  c #37592B",
"@  c #385835",
"#  c #304D33",
"$  c #3B6134",
"%  c #346735",
"&  c #1F451D",
"*  c #425E31",
"=  c #476539",
"-  c #55732F",
";  c #586F2B",
":  c #29585A",
">  c #36585A",
",  c #2D534B",
"<  c #3C6459",
"1  c #36674A",
"2  c #1E5572",
"3  c #2E4E68",
"4  c #285769",
"5  c #375868",
"6  c #2B4D79",
"7  c #344977",
"8  c #275678",
"9  c #375876",
"0  c #376969",
"q  c #286477",
"w  c #346876",
"e  c #336F6C",
"r  c #1D5659",
"t  c #4E5D54",
"y  c #486659",
"u  c #547657",
"i  c #516F4D",
"p  c #4D4878",
"a  c #457463",
"s  c #55776A",
"d  c #4B7072",
"f  c #656D62",
"g  c #6D9335",
"h  c #6B9731",
"j  c #3A847E",
"k  c #668A5B",
"l  c #709053",
"z  c #6AAC52",
"x  c #518D73",
"c  c #688964",
"v  c #6B9367",
"b  c #759669",
"n  c #709175",
"m  c #71AE70",
"M  c #559858",
"N  c #75FB4C",
"B  c #7AF756",
"V  c #77D26E",
"C  c #73C95E",
"Z  c #899B57",
"A  c #95B452",
"S  c #B8A759",
"D  c #A8B75A",
"F  c #AFB059",
"G  c #849872",
"H  c #BB9D66",
"J  c #86A97A",
"K  c #99BA77",
"L  c #91B16F",
"P  c #AAAA65",
"I  c #B7A666",
"U  c #AAB568",
"Y  c #A7B974",
"T  c #B7B878",
"R  c #B8AF6E",
"E  c #C39A5C",
"W  c #C69868",
"Q  c #C89874",
"!  c #D58B75",
"~  c #E58777",
"^  c #C2AC6E",
"/  c #C1A15D",
"(  c #92D054",
")  c #A8C95A",
"_  c #8CED5C",
"`  c #87ED57",
"'  c #96EA59",
"]  c #86F25A",
"[  c #97F25C",
"{  c #A5E95D",
"}  c #A6F45C",
"|  c #B4F55E",
" . c #9AD964",
".. c #91CF71",
"X. c #A6C766",
"o. c #B8C968",
"O. c #A9D668",
"+. c #AFD176",
"@. c #89EB65",
"#. c #96E966",
"$. c #88F166",
"%. c #88E976",
"&. c #97E876",
"*. c #8BF275",
"=. c #96F377",
"-. c #92F16C",
";. c #A7E666",
":. c #B8F868",
">. c #AEEE70",
",. c #C3CA6C",
"<. c #C2CE75",
"1. c #C8FA77",
"2. c #CFF872",
"3. c #E1FE7C",
"4. c #1D5688",
"5. c #1E4C99",
"6. c #1B5598",
"7. c #1D4D87",
"8. c #284C88",
"9. c #374B88",
"0. c #255384",
"q. c #2B538C",
"w. c #275588",
"e. c #355789",
"r. c #2B4C94",
"t. c #254D9C",
"y. c #2B4D9C",
"u. c #254C94",
"i. c #334C96",
"p. c #245293",
"a. c #2B5294",
"s. c #23529C",
"d. c #2A519C",
"f. c #345795",
"g. c #396888",
"h. c #306A8B",
"j. c #1A52A2",
"k. c #1E4EA7",
"l. c #254DA4",
"z. c #2A4DA3",
"x. c #244EAB",
"c. c #294DAA",
"v. c #2451A3",
"b. c #2A51A3",
"n. c #2250AC",
"m. c #2A50AE",
"M. c #294EB1",
"N. c #2D51AB",
"B. c #3C60A5",
"V. c #425387",
"C. c #725D8A",
"Z. c #466895",
"A. c #50728D",
"S. c #5274A5",
"D. c #6E678C",
"F. c #9275A2",
"G. c #847599",
"H. c #3D8387",
"J. c #538B8C",
"K. c #6D908F",
"L. c #58AB8A",
"P. c #70AE8D",
"I. c #6788A8",
"U. c #7696B4",
"Y. c #6D91A8",
"T. c #7BA9AD",
"R. c #5D80A7",
"E. c #77CF8E",
"W. c #7FC4A8",
"Q. c #8B9D8F",
"!. c #88AA83",
"~. c #8AB385",
"^. c #96BA89",
"/. c #96B995",
"(. c #94AB94",
"). c #B9A987",
"_. c #ADB991",
"`. c #908FA7",
"'. c #AD8FB3",
"]. c #95A5A6",
"[. c #8CB1AD",
"{. c #AEB3B0",
"}. c #BF8F99",
"|. c #CD8C8C",
" X c #D0AC8E",
".X c #D3AFB0",
"XX c #D5A0A3",
"oX c #98C48B",
"OX c #9BC795",
"+X c #91D38C",
"@X c #A8C787",
"#X c #A5C699",
"$X c #A8D799",
"%X c #B2D489",
"&X c #99E888",
"*X c #98E696",
"=X c #92EE86",
"-X c #A6E789",
";X c #A5F688",
":X c #B6FA9A",
">X c #B0EE92",
",X c #95C8B2",
"<X c #A9CAA7",
"1X c #ABD6A4",
"2X c #B4D6A8",
"3X c #AFCFB3",
"4X c #BBF8A5",
"5X c #B9E4B6",
"6X c #B2E9AB",
"7X c #9CE4A9",
"8X c #C9DA98",
"9X c #CDD593",
"0X c #D8FB88",
"qX c #CEF292",
"wX c #E7FA98",
"eX c #E6FB8B",
"rX c #C5D9B9",
"tX c #C8DBA8",
"yX c #C8F8A8",
"uX c #D7F5A8",
"iX c #C6E5BB",
"pX c #C7F8B6",
"aX c #D4ECAF",
"sX c #EAF6AE",
"dX c #E6D1B1",
"fX c #94B2C7",
"gX c #B0B9CC",
"hX c #B894C0",
"jX c #DDBCC6",
"kX c #9BC6C7",
"lX c #B7D7C9",
"zX c #B0CED0",
"xX c #B7E9CE",
"cX c #BDDCE2",
"vX c #C9D7C6",
"bX c #CBCFD4",
"nX c #E9D2D2",
"mX c #C8E6C5",
"MX c #D8F4C7",
"NX c #D9F3D5",
"BX c #CDEFCE",
"VX c #E5F8CA",
"CX c #E8F9D8",
"ZX c #F6FCDA",
"AX c #F3F3CB",
"SX c #CFDBE8",
"DX c #F3DAE2",
"FX c #D5F1EB",
"GX c #F7E7E9",
"HX c #EAF8E5",
"JX c #F9FDE8",
"KX c #FDFCF5",
"LX c #FEF4FB",
"PX c #FDFCFB",
"IX c #F9F6F5",
"UX c #EFEEF1",
/* pixels */
"z.z.l.b.x.k.v.n.k.n.n.n.n.n.n.n.l.l.5.t.t.p.q.0.6 3 3 > , > t G ).tX9X@XZ ; = * > 3 8.u.5.k.j.j.j.j.j.j.n.M.M.M.M.N.z.z.l.t.d.s.",
"l.z.l.l.v.k.k.k.n.n.n.n.n.n.n.x.k.l.t.5.p.p.w.e.6 8 3 3 > y d Q._.9X9X).Z f * t 5 3 9.8.5.j.j.j.j.j.j.j.k.M.M.M.c.c.z.z.y.t.s.t.",
"b.c.l.l.x.l.x.n.n.n.k.k.x.k.k.k.l.t.t.r.u.8.0.6 6 3 > > y s n (. X8X8X9XP l f t 5 3 6 5.5.j.j.j.j.j.j.j.k.n.M.c.c.c.z.z.l.s.b.s.",
"l.z.l.l.l.x.b.x.n.n.n.n.x.l.l.l.u.u.u.8.8.8.6 6 3 3 5 y s n K.OXtXaXaX9X_.L b u a 5 8 2 7.6.6.6.6.6.j.j.k.x.c.c.c.c.c.z.z.b.b.l.",
"l.z.z.l.l.b.l.l.l.x.l.l.l.t.t.u.u.8.8.8.6 6 7 3 : > 0 s n (.#X2XaXuXuXyX%X@XK n x e 4 2 4.4.6.6.6.6.6.j.j.j.x.l.c.c.z.z.b.b.b.z.",
"l.x.x.l.b.l.l.l.b.c.z.c.z.z.i.i.9.9.9.9 9 5 5 5 5 < a n ~.1X5XpXuXuXuXuXuX2X$XP.M j 4 2 2 2 4.6.6.6.6.6.j.j.l.x.l.z.l.z.b.N.b.z.",
"x.c.b.z.z.z.t.y.z.d.N.B.B.B.Z.S.D.A.V.d d f f y u s c m OX1X4XpXuXqXyXqXyX:X$X+Xx j j j j q 4.H.4.4.6.6.j.j.v.l.l.t.z.z.b.b.c.z.",
"c.l.c.z.z.z.y.t.y.d.M.S.S.I.I.Y.Y.K.Q.Q.n K.n b v b m L +X>X4XyXqX:XqX:XqX:X*X..V M M j j H.H.H.H.4.4.4.6.6.s.s.t.t.y.y.z.b.z.z.",
"c.c.c.z.z.y.y.r.r.f.B.S.U.fXfXfX{.<X{.#X_.^.K ^.^.....+X-X-X>X-X=.>.=.;X;X;X&X%.V m m L.E.L.L.L.H.h.2 4.4.5.5.u.t.t.t.t.y.y.y.z.",
"c.c.c.z.z.y.r.r.8.i.Z.I.fXfXcXbXrXrXtX8X8X9XqX%X%X%X+.&X&.&.;.&.} -.} -.-.&.-.%.%.V V E.E.E.L.L.j q q q 4.4.p.p.u.t.d.y.r.y.y.y.",
"M.c.c.z.y.y.r.r.8.e.Z.I.].kXlXmXaXaXsXwXeX0X0X0X1.>X>.>.>.&.' _ _ ] $._ @.@.$.%.B *.B E.E.E.E.L.j j q 4.0.4.p.p.u.d.d.i.y.i.y.y.",
"x.M.c.c.z.i.i.8.9.7 V.A.Y.[.<XiXaXsXwXwXeXeX0X0X1.1.>.} #.#.' ` ` ` ` ] @.B B @.*.B *.=X=X=XE.E.L.L.H.w h.w.4.p.p.u.d.d.y.z.i.y.",
"M.M.c.c.z.i.i.8.8.7 7 d s n Q._.8XeXwXeX3.3.3.3.1.| } ' ' ` ` ` ` B B B @.B $.B B *.$.*.*.=XE.E.E.L.L.H.h.w.w.4.u.a.d.d.y.i.z.z.",
"M.M.c.c.y.y.r.9.7 7 7 t y s l Z o.2.0X3.3.2.2.| | } ' ` ` ` ` ` ` B @.B @.@.@.$.$.$.$.*.%.%.*X+XW.W.T.Y.J.h.h.w.w.a.d.y.z.z.z.z.",
"M.c.c.c.y.y.i.8.7 6 3 , , t i l F ,.,.2.2.2.| | } } ' ` ` ` ` ` ` ` @.$.%.=.=.*.*.*.-.*.*.=X&X*X7XW.W.T.Y.H.g.f.f.a.i.z.z.z.N.c.",
"M.c.c.z.z.r.i.e.7 3 3 , # @ - - h F ) ,.| | | } } ' ` ' ` ` ` ] ` @.%.&.=.;X;X;X;X;X;X=.=X&X*X7XxXxXxXkXT.I.R.Z.g.f.y.i.z.z.c.c.",
"x.c.c.z.y.y.i.7 7 3 , , # + * ; h h z ( ( ' ' } [ ' ' [ ` ` _ _ @.#.&.&X;X:X:X4X:X:X:X;X-X&X*X6XxXxXxXxXkXT.U.S.B.h.a.t.l.l.c.c.",
"x.l.c.z.y.i.i.9.7 5 5 > , * * * ; ; h h ( ( ' ' [ _ ` ` ` ] ] @.#.&.-X>X4X4XpXyX4X4X:X-X-X*X7X7X7XxXxXcXkXkXfXI.S.f.u.p.t.k.x.n.",
"k.l.l.z.y.f.i.e.A.d s u i u - g ; h h h ( ( ' ' [ _ _ ` ] ] $.#.&.-X>X>XpXpXpXiX6X$X*X$XOX*X7X1X3X7XxXkXzXzXfXU.R.B.p.5.k.k.n.x.",
"l.l.l.l.y.f.V.Z.A.K.K.K.b b z l h h h z z ( ' ' [ _ _ ` [ ] -.-.%X>X4XyXMXMXpXiX#X^.~.K oXOX+XOX/.oX,X,XzXcXkXfXR.g.q.5.5.k.n.n.",
"z.l.l.y.u.f.Z.S.I.fX[.,X#XOXoX....L ..( ` ' _ _ ` ` ` ' _ #.-.=.>XyXaXMXVXNXmX3XJ k k v m OXoX~.x c n Q.{.zXcXfXY.Z.q.5.5.j.k.k.",
"b.b.y.y.u.a.Z.S.fXkXzXxX5X6X1X6X-X&X&.&.' ' _ _ ' ` ' ` _ #.-.>.qXpXMXVXCXNXrX_.c i = i b ~.~.n i 1 y s [.zXcXfXY.Z.q.4.5.5.j.n.",
"z.l.t.t.u.f.Z.S.T.kXzXxXBXBXpX4X4X>X;X;X=.-.-._ ` ` _ _ ' #.;.;XyXsXVXCXZXCXrX(.u # + $ v ~.!.v $ O # y ].zXbXfXU.Z.w.0.p.p.s.s.",
"t.d.d.y.u.d.Z.S.Y.fXkXxXBXBXBXpX4X:X;X;X=.-._ _ ' ` ' ' ' #.;.>XyXMXCXJXZXGXrX(.i O & $ c J !.c @ X . y (.zXSXzXU.Z.e.0.4.p.6.6.",
"b.d.d.t.u.a.f.Z.A.I.[.[.lXxXBXxX4X:X=X=X-.$._ _ ' ' ' ' ( { ;.>.yXVXCXJXJXCXvX(.i O o = v J P.c # X # p `.cXcXgXU.A.w.2 4.4.p.7.",
"d.b.d.d.d.q.e.e.e.A.J.[.,X5X4X4X7X=X=X*.$.@._ _ [ [ ' { { O.>.>XaXVXZXJXJXHXvX(.f O O @ v !.!.c @   . t `.cXSXzXU.A.9 8 8 4.w.4.",
"d.b.b.d.d.u.8.9.6 9 d K./.,X7X7X*X=X*.*.$._ _ [ { { { { O.;.>.>XaXCXHXJXJXZXvX(.u # O $ v !.!.c @   . t ].cXSXcX[.J.g.h.8 0.4.8 ",
"l.z.l.b.y.q.8.6 3 7 y d K.P.+X+X+X%.%.*.$._ _ [ } | ;.| >.>.1.qXsXCXZXJXKXGXbX(.i # O + c m J c #   . d `.bXSXcXfXU.J.g.q q 2 2 ",
"l.l.z.y.y.u.8.8.6 3 3 y a c v m V V %.@.@.` [ [ } :.:.1.>.qX0XqXsXAXZXJXJXGXvX(.f + o $ b J J f #   . t ].bXSXFXzXkXY.J.g.q 4 2 ",
"l.c.c.l.t.r.q.9 7 5 5 y < u M z C V B @._ _ [ } :.:.1.1.1.0X0XuXAXZXZXJXJXHXvX(.i # o = v J J Z *   . p ].lXFXFXcXkXT.L.J.e q r ",
"M.c.l.l.t.r.f.e.V.A.d s M M M M C V ] $.] [ [ } :.1.1.0XqXqXwXuXAXZXZXJXJXZXvX_.i # o $ l J G f * X   t ].bXFXFXcXxX,XT.J.e 4 r ",
"M.M.l.l.u.r.f.Z.J.K.K.n n v z z C ` @.] [ [ } :.1.1.0X0XeXwXwXsXAXAXZXJXJXGXvX(.i O o $ k J G Z .   . t ].SXFXFXFXcXkX[.J.e r r ",
"M.M.k.l.y.d.Z.A.U.[./._.@XK .. ... ._ [ [ } | :.2.0XeXwXwXwXsXsXAXZXZXZXJXCXrX(.i O X * l !.!.f * X   t Q.vXFXFXFXFXlXT.L.a : , ",
"n.x.l.l.u.r.Z.K.].{.rXtX8XqX%X>.#.#.' ' [ [ | 2.1.2.0XeXwXsXsXsXAXAXZXZXHXCXrX(.i + O = b !.!.n t O # t (.lXNXUXFXFXlX,Xx a : % ",
"x.n.x.5.u.a.Z.R.[.<XrXaXuXuXqX:X>.#.#.[ [ | | ;.;.O.<.qXwXsXsXsXsXVXZXZXZXCXrX_.c i = i b ^.!.G i t t f ].lXNXFXFXFXxX[.x < 1 , ",
"n.x.l.s.u.q.Z.A.K.].2XtXaXuXqX:X>.;.#.[ } } { { ) A D ,.9XwXsXsXVXVXVXVXCXCXMX2XJ b l l J ^.^.!.c c b !./.5XBXFXFXBX7XT.n e % r ",
"M.n.x.5.p.0.9 d J.K.J _.tXuXuXqX>X;.;.{ { { ( A h h g Z +.9XsXsXaXaXaXMXCXCXNXiX2XOX^.^.oXOX#X#X^././._.3XlXlXmXBXxX,X[.L.0 > , ",
"n.x.v.s.p.0.8 w y s c J @X8XqXqX1.>.;.;.| ) ( g h ; ; ; L 9XtXaXtX2XtXrXiXMXMXMXtX2X$X$X$X$X$X$X2X2X2X<X<X3X3X3XlXkX,XP.x a : , ",
"n.n.v.s.p.0.6 4 > < u b ^.@X%X%X+.>.o.;.{ ) A h ; ; ; ; Z Y ).%X_.^._._.{.tXrX2X2X2X1X$X$X1X1X1X2X2X#X_././././.[.,XT.K.d 0 : r ",
"n.k.b.s.5.w.6 3 : , y f b J +.+.+.+.o.o.o.) A Z g ; ; ; l G Z G G l l G G J !.Q.!.~.^.@X$X1X1X1X#X^.!.P.n n K.K.K.K.K.J.A.0 4 : ",
"x.x.l.t.u.8.6 8 4 > < a u k b L +.+.+.<.o.) F A Z l l - f ; ; * * * * * i i i i i M k b OX1X1XOXm M u y 1 1 1 0 e x A.d h.q 9 8 ",
"x.l.z.l.t.8.7.6 8 4 > < y u f G L T ).o.U U F P U A Z l ; * o o X o o o O O O O O + = v ^.1X1XoXn i # O     , , 4 9 9 h.8 e.0.8 ",
"l.l.l.t.t.8.8.6 8 4 4 < < a f b Q.).).T R I P U T Y L Z - * o X & & o o O & & & & o % v oX7X1X/.c i # & O , # r : 4 8 6 e.w.e.q.",
"l.l.z.y.t.p.0.0.8 4 e e a s n G R ).T R R S F R T T Y Z l = * + + + $ $ % @ @ @ + + M v ~.<X$X^.v i 1 % , , > 3 4 4 6 0.0.a.a.d.",
"z.z.y.y.u.u.0.6 8 4 q d s K.Q.(.).).).R I I I R T Y K L L l M l M l M v k v c k k c b J oX$X#XOX!.n n c n J.x A.g.9 0.8.q.d.d.d.",
"b.b.y.u.r.r.0.0.2 2 w A.Y.(.]._.(.).Q Q W / I I P P Y L L L L L ..m J J ~.~.(.~.~.~.^./.#X<X<X<XOX/./.(.(.[.Y.K.A.e.w.w.u.t.d.b.",
"b.t.y.d.u.w.0.8 2 4 0 J.P.].{._.).|.H Q W W / I P Y Y K ..@X@X+XoXOX$X$X$X<X1X1X2X1X<X2X2X2X3X2X3X3X,X3X,X[.T.Y.A.h.q.u.t.l.b.v.",
"b.d.s.d.a.8.0.8 2 4 e J.P.{.2X{.).R Q Q W W W I P P U X...%X@X-X-X$X$X6X6X5XiXiXmXiXiXiXiX5XiXvXmXvX5XzX[.[.K.R.Z.f.a.p.t.l.v.m.",
"v.d.s.p.p.0.8 2 4 r < x P./.#X X).Q Q Q Q W H H P F P L ..%X+.%X%X$X$X6X5XBXBXNXNXNXBXNXNXNXNXNXNXNXbXzX[.K.A.A.e.9.d.u.y.l.c.c.",
"v.v.d.s.w.0.8 4 r e j x P.^._.%XT  XQ Q ! W H H P Z A ) +...&.-X$X$X6XiXmXMXCXCXCXFXHXHXHXFXHXHXUXHXBXzX`.K.A.A.e.q.a.y.z.l.c.c.",
"v.v.s.p.p.0.8 q e e x x ~.^.#X X).Q Q |.W W H H P A D L X.O.+.-X%X6X6XiXMXNXCXHXHXHXHXHXHXIXIXIXPXHXSXlX].K.D.V.e.f.i.y.z.z.c.c.",
"s.s.p.p.w.8 q e x x m m ..@X@X+.).R H H W W I S F D D ) X.+.-X%X>XtXiXMXVXCXJXJXKXKXIXIXPXPXPXPXPXIXDXbXgX`.I.S.Z.9.i.r.i.z.z.z.",
"p.p.w.4.8 8 w d L.P.+X+X+X@X+.+.T I H H W I S R F F ) o.o.+.+.8XaXaXAXCXZXZXJXIXKXKXKXPXPXPXPXPXPXPXUXFXSXzXfXU.D.i.9.i.i.i.z.i.",
"4.w.0.8 8 q e J.P.E.*X*X+X&.@XX.Y Y R I I I S S F o.) o.o.<.%X9XaXaXVXAXZXZXJXJXJXKXKXPXPXPXPXPXPXPXPXUXUXSXbXfXU.V.9.9.i.i.i.i.",
"q 4 q 8 e e J.m E.7X7X;X&X&. .+.X.U U F P S F F o.) ,.o.+.<.9X9XdXsXdXAXAXDXAXGXJXIXPXPXPXPXPXLXPXPXIXIXIXUXSXgXS.D.9.7 9.i.i.p ",
": 4 e e a x L.E.+X*X;X;X=.&.&. .X.X.X.U U U D o.,.,.,.,.,.,.<.9X9XdXdXdXdXdXnXAXDXIXKXLXLXPXLXLXIXPXPXPXPXIXSXzX`.D.9.p p 9.p 9.",
"r 1 < a x P.E.*X*X=X=X;X*.-._ #. . .) X.X.X.o.o.,.,.,.,.,.R ^ ^  X X X XdX.XdXdXDXDXGXLXLXLXLXLXKXLXKXPXPXIXDXgXU.C.p p 7 p p p ",
"% 1 1 M P.+X*X*X=X=X*.*.$.$._ _ ' (  . .X.O.o.+.,.,.,.,.^ ^ ^ W Q ^  X X XXXXXjXnXDXGXLXLXLXLXLXLXKXIXIXLXUXDXgX`.C.p p p p p p ",
"% % M M ..&X*X;X=X*.*.$.] ] ] ] ` ` ' #.#.O.O.o.,.,.,.^ S / E E Q Q Q  X! |.XXXXjXDXDXDXLXLXLXLXLXIXIXIXUXUXnXgXF.D.D.V.p p p p ",
"M M z m %.&X;X;X=.*.$.B ] N ] B ` ` _ @.' O. .O.o.,.,.^ / / E E ~ ! ~ ! ! |. XXX.XjXDXDXGXLXGXLXLXIXUXUXDXnXbXhX`.F.D.C.G.C.C.G.",
"z m C ....&X=.=.*.$.] ] N B N B B B B @.' { { { ) F ,./ E E E ! ! ~ ~ ~ |.|.|.|..X.XjXDXDXGXLXLXLXIXGXDXbXjX{.{.F.F.F.F.F.F.F.F.",
"V ....%.%...&.-.$.$.] B N N N N B B B $._ ' ( ) ) ) S S E E E ! ! ~ ~ |.! |.|.|.}.XX.XjXDXGXLXLXLXIXGXnXbX.X'.'.hXhXF.F.F.'.'.'.",
"&X+X+X&.%.&.-.$.$.] ] N N N N N N B B V _  .( ) ) F S S E E E ! ~ ~ ~ ~ ~ |.|.|.}.}.hXjXbXGXLXLXLXIXUXnX.X{.'.'.hXF.'.hXhX}.hXhX",
"$X&X+X&X&.&.@.$.$.] ] N N N N N B B B B B @.' ( A A S S E E ! ! ~ ~ ~ ~ ~ ~ |.|.|.}.XXhXDXDXLXLXLXUXUXnX{.{.}.}.hXhXhXhXhXhXhXhX"
};
