/* XPM */
static char *result[] = {
/* columns rows colors chars-per-pixel */
"64 64 256 2 ",
"   c #1E3D19",
".  c #223819",
"X  c #1E3D25",
"o  c #273927",
"O  c #2E3A31",
"+  c #24411B",
"@  c #3B551F",
"#  c #294428",
"$  c #37582B",
"%  c #395634",
"&  c #334A34",
"*  c #306E33",
"=  c #1C5134",
"-  c #455B2D",
";  c #476237",
":  c #566D30",
">  c #657638",
",  c #1A5B55",
"<  c #275856",
"1  c #355151",
"2  c #2F6B54",
"3  c #1E5778",
"4  c #1B5969",
"5  c #285568",
"6  c #375667",
"7  c #2A4C78",
"8  c #255879",
"9  c #335172",
"0  c #286578",
"q  c #326D6E",
"w  c #1C625F",
"e  c #475857",
"r  c #4E5C51",
"t  c #4B6646",
"y  c #556557",
"u  c #517150",
"i  c #687056",
"p  c #4B586F",
"a  c #487568",
"s  c #506F71",
"d  c #6B6F6E",
"f  c #655D66",
"g  c #88786E",
"h  c #698A38",
"j  c #669735",
"k  c #3C896F",
"l  c #4E9051",
"z  c #678A59",
"x  c #719052",
"c  c #4D8D72",
"v  c #678866",
"b  c #71936F",
"n  c #59B16B",
"m  c #71AF6D",
"M  c #64AA52",
"N  c #79F94C",
"B  c #7DF457",
"V  c #7DEF5B",
"C  c #73D16E",
"Z  c #7DED6A",
"A  c #7DC54E",
"S  c #889851",
"D  c #97B85A",
"F  c #92AC50",
"G  c #A8B15B",
"H  c #8C8F6D",
"J  c #B79771",
"K  c #83A874",
"L  c #8AB478",
"P  c #92B06C",
"I  c #B9A868",
"U  c #AAB664",
"Y  c #B7B669",
"T  c #AFB174",
"R  c #C7976C",
"E  c #D88A79",
"W  c #C99675",
"Q  c #CF8F76",
"!  c #E1837E",
"~  c #C4A574",
"^  c #9ADA5A",
"/  c #90CD59",
"(  c #A6CF5C",
")  c #8AF34B",
"_  c #97F34C",
"`  c #8BED58",
"'  c #97E758",
"]  c #84F254",
"[  c #8BF054",
"{  c #84F25B",
"}  c #8BF15C",
"|  c #96F158",
" . c #8CEE4C",
".. c #A5E95A",
"X. c #A8F558",
"o. c #B6F95C",
"O. c #AEEF57",
"+. c #9AD967",
"@. c #91CE73",
"#. c #A7C967",
"$. c #B5C767",
"%. c #A5D967",
"&. c #B3C978",
"*. c #A4DA75",
"=. c #B5D46C",
"-. c #88EB67",
";. c #98E667",
":. c #86F266",
">. c #95F368",
",. c #98E876",
"<. c #8AF276",
"1. c #95F577",
"2. c #88E978",
"3. c #B6E967",
"4. c #A6E878",
"5. c #ADF26D",
"6. c #C8FB68",
"7. c #D7FB78",
"8. c #C8F276",
"9. c #D2EA7E",
"0. c #1E5387",
"q. c #1F5296",
"w. c #1E4F97",
"e. c #2A4C8B",
"r. c #294B87",
"t. c #394589",
"y. c #23538B",
"u. c #275687",
"i. c #365687",
"p. c #2A4C94",
"a. c #254E9D",
"s. c #2A4C9B",
"d. c #264B94",
"f. c #374893",
"g. c #245393",
"h. c #24529C",
"j. c #2B5396",
"k. c #355697",
"l. c #2B6984",
"z. c #386886",
"x. c #386D90",
"c. c #1D51A7",
"v. c #1E4FA5",
"b. c #254EA4",
"n. c #284CA4",
"m. c #254EAA",
"M. c #294CAB",
"N. c #2A47A0",
"B. c #2351A4",
"V. c #2351AB",
"C. c #2A4CB0",
"Z. c #3F69A0",
"A. c #484F91",
"S. c #466788",
"D. c #46788A",
"F. c #466696",
"G. c #547291",
"H. c #6D6E93",
"J. c #5474A6",
"K. c #6F73AD",
"L. c #5D5FA3",
"P. c #887C88",
"I. c #3D848A",
"U. c #508E8E",
"Y. c #689796",
"T. c #6F8E8D",
"R. c #58A88B",
"E. c #6EB191",
"W. c #6F93AB",
"Q. c #74ACAB",
"!. c #5A8EA3",
"~. c #77CE8E",
"^. c #7CC5B7",
"/. c #91938F",
"(. c #B5918D",
"). c #94BB86",
"_. c #97A495",
"`. c #8DAD8F",
"'. c #ACB98F",
"]. c #8E8BB4",
"[. c #AA9AB2",
"{. c #8EADAB",
"}. c #ADB1B1",
"|. c #D78B84",
" X c #C89486",
".X c #CD938E",
"XX c #E28583",
"oX c #E39791",
"OX c #CDAD93",
"+X c #CEB4AE",
"@X c #EAB1AB",
"#X c #EBA59D",
"$X c #99C788",
"%X c #8FD48F",
"&X c #A7D989",
"*X c #A9D697",
"=X c #B3D79B",
"-X c #ADCA8D",
";X c #99EB86",
":X c #99E496",
">X c #8FEE88",
",X c #A5E888",
"<X c #A6F887",
"1X c #A9E898",
"2X c #B8E597",
"3X c #B5FA99",
"4X c #B4EF8C",
"5X c #92CCAE",
"6X c #B5D6A6",
"7X c #ACCEAF",
"8X c #99E3AB",
"9X c #B8F6A6",
"0X c #AFE9AC",
"qX c #C8DA99",
"wX c #D2D192",
"eX c #C7E499",
"rX c #C9FA9A",
"tX c #D4F38D",
"yX c #E5FD89",
"uX c #E8FB98",
"iX c #F1FF96",
"pX c #CFD6AF",
"aX c #EED0B8",
"sX c #D6EAA9",
"dX c #D7F7A5",
"fX c #D5EBB7",
"gX c #C7F9B6",
"hX c #CDEEB0",
"jX c #EBF8B0",
"kX c #91AFC5",
"lX c #AFB8CD",
"zX c #9B92C3",
"xX c #C5B8C1",
"cX c #95CACB",
"vX c #B7D8CA",
"bX c #B9D4D5",
"nX c #ACCECD",
"mX c #BAE9CD",
"MX c #BAE2E4",
"NX c #C8D5C4",
"BX c #D1CECF",
"VX c #ECD4D0",
"CX c #D9F7C7",
"ZX c #CDF0CE",
"AX c #E7F9CA",
"SX c #E8F7D8",
"DX c #F5FCD8",
"FX c #F1F2CF",
"GX c #CFDBE7",
"HX c #D9F7EB",
"JX c #D0F0EA",
"KX c #F8E9EA",
"LX c #F7FCE4",
"PX c #FDFCFD",
"IX c #F8F5F7",
"UX c #EBEEED",
/* pixels */
"g.g.h.h.s.n.n.V.n.B.m.m.m.M.M.M.M.M.M.M.n.N.a.p.r.7 9 1 1 e y b '.qXwX'.S > - & 1 6 7 u.j.h.B.B.B.m.b.n.M.M.C.C.m.b.b.n.n.n.n.m.",
"q.h.h.h.h.B.n.n.n.V.m.B.B.n.M.m.M.M.n.n.n.N.a.e.u.7 9 1 1 r d H '.qXwX&.S i ; % 1 6 7 r.j.h.w.b.B.a.m.n.M.M.C.M.m.b.b.b.b.n.M.m.",
"q.B.h.B.B.n.B.m.m.V.n.B.b.b.n.n.N.n.s.s.s.s.d.r.r.8 9 6 6 s b `.qXeXqX-XP x i t 1 6 7 7 y.g.w.h.h.a.b.b.m.n.M.m.m.m.v.b.n.m.m.M.",
"c.q.v.B.B.B.B.B.B.n.B.B.a.a.h.s.s.d.d.f.e.e.r.7 7 5 6 e s b /.'.qXpXsX=XT P x u u 5 5 7 0.w.q.q.g.h.h.b.n.m.M.n.b.b.b.b.m.n.m.m.",
"c.c.c.c.v.m.B.B.B.B.B.h.g.g.w.r.e.e.t.r.r.r.7 7 5 < 6 c b `.$X6XeXrXdXrX=X-XP b c 2 < 4 3 0.0.0.g.g.h.h.h.B.B.n.b.m.m.B.m.V.V.m.",
"c.c.c.c.v.m.b.B.B.B.h.h.j.j.j.e.i.i.9 i.9 p 6 6 6 e a v E.7X0XhXdXdXdXrXrX2X&Xm v 2 q 4 4 3 l.0.u.g.g.q.j.B.n.B.B.B.b.B.V.V.m.V.",
"c.c.c.c.v.B.B.h.h.j.B.k.Z.F.F.G.F.S.G.f s s s s a l v E.$X1X9XgXrXrXrXrXrX3X&X%Xn k k k k l.I.0.l.0.0.y.g.h.h.B.a.b.b.v.V.V.V.V.",
"c.c.c.V.V.b.a.a.h.k.k.Z.J.!.W.W./.T.T.T.T.H b b b b m ).&X1X9X3X3X3X4X4X3X3X;X@.n n k k k I.I.I.l.0 0.0.u.h.j.h.a.a.m.c.c.V.c.V.",
"c.V.V.V.B.a.a.d.g.j.F.J.W.kXkXlX}.}.-X-X'.'.'.@.$XL @.&X,X<X,X<X5.1.5.<X1.<X1.2.C C m R.~.R.R.I.k 0 3 3 y.y.g.a.a.a.a.v.v.v.c.c.",
"V.V.V.m.B.a.d.d.y.i.F.!.kXkXbXbXNXpXpXpXeXqXqXeXqX4X,X,X4.4.;.>.>.>.>.>.>.>.<.-.C C Z ~.~.~.~.R.I.q 0 3 u.u.g.j.a.a.b.h.v.v.c.c.",
"V.V.n.B.n.s.p.e.r.i.S.J.{.}.vXZXfXjXjXjXjXuXtXtX7.tX8.5.>.>.` ` } { :.{ :.:.V :.Z Z ~.~.~.~.~.E.I.k 0 0 8 u.u.e.g.h.h.B.c.w.c.c.",
"V.V.V.B.a.p.e.e.r.r.S.G.W.{.7XpXsXjXjXiXiXiXyXyXtX5.5.5.>.| `  .V B B B V V B Z :.:.<.<.>X~.~.~.R.U.U.0 0 8 u.r.y.a.h.B.c.c.c.c.",
"V.M.V.n.s.s.g.r.t.7 t.p H.T.`.'.eXuXuXiXiXyXyX7.6.5.5.X.| [  .] B B B B V V B V B <.:.<.<.~.>X~.~.~.U.U.0 0 r.u.0.q.h.B.v.c.c.c.",
"V.V.B.B.s.s.p.r.7 9 9 e y u x P &.wXuXyX7.7.6.6.o.o.| _ [ [ ] B B V B { Z :.{ :.:.:.:.:.<.<.~.:X~.^.Q.Y.U.z.0 r.y.l.h.h.q.B.B.B.",
"V.V.n.B.h.s.j.e.7 9 9 1 1 r i x P $.9.9.7.7.6.6.O...'  .[ ) ] ] V V :.:.:.<.:.<.1.1.<.1.1.>X>X:X8X8X5XQ.Y.D.q i.l.g.g.h.q.B.V.B.",
"m.V.B.n.s.p.i.t.7 9 1 1 O - - > S F ( =.3.6.5.O.X._ ' [ ] ] B V { -.:.<.1.<X<X<X<X<X<X1.1.>X;X1X8XmXnX5XQ.Y.G.x.x.j.g.g.c.c.B.V.",
"m.m.B.n.s.j.e.i.9 9 1 1 O & $ : h h j F ..O.O...| | _ [ [ ] B { -.2.<.1.<X3X3X3X9X9X3X<X,X;X:X1X9XmXmXmXkX{.W.U.F.x.g.q.q.v.B.B.",
"m.m.m.n.s.j.e.i.9 9 p e r ; - : @ h j A A ^ ^ _ | | ` [ [ { ] :.-.,.;X1X9XgX9XgXgX9X3X1X,X;X1X0XmXmXmXmXnX5XQ.W.F.x.0.q.v.v.B.B.",
"m.m.n.n.N.k.i.i.S.s s d u u u > h h j M A / ' ' ` ` [ [ ] { { -.,.,X1X9X9XCXZXgX9X=X*X,X&X&X*X*X6X7X0XbXbXnXcXQ.!.x.q.q.w.b.B.m.",
"m.m.n.a.s.k.k.F.G.T.T.T.b H K x M j j M A / ` [ ` [ [ [ ] ` } >.,X1X9X9XCXCXZXpX*X).L L $X%X*X$X).).{.7XvXbXcXkX!.x.g.q.w.a.B.B.",
"m.m.N.a.s.k.k.J.W.kXkX}.}.-X$X$XL @./ @.V ` -.` ]  .] ` [ [ >.1.3XhXgXgXCXSXZX7X/.z z z L @.).K b d b /.}.bXnXkXW.x.u.w.w.a.a.B.",
"v.b.b.a.s.k.Z.W.kXkXbXGXmXpX0X0X1X;X;X<.-.-.` [ ]  . .` | | >.<X9XgXCXAXSXSXNX'.v t ; t x L L b u t r v {.bXbXcXW.D.u.0.q.g.h.h.",
"m.m.b.a.b.k.Z.K.kXlXbXJXZXZXZX9X9X3X<X<X>.:.[ ] N  . . .[ | >.5.9XCXCXSXSXHXpX_.y # # $ x m K b % o & f {.bXbXnXW.x.l.0.g.j.j.j.",
"v.N.m.b.s.n.k.J.W.kXcXbXZXZXZXZX9X9X<X1.1.:.] ) )  . . .' ' X.4XgXCXSXLXLXSXNX_.y #   $ z K K i & . O y {.NXGXcXQ.x.u.0.0.y.u.g.",
"m.V.m.v.h.j.k.F.J.!.{.}.nXZXZX9X9X3X>X<.:.{ ) ) ) ) _ _ ' ' 5.4.gXCXAXSXLXSXNX_.y #   $ z m K z &   O r {.bXMXcXW.D.8 3 0.y.u.u.",
"C.V.m.m.n.s.j.i.i.G.G.Q.7X0XmX9X1X>X1.<.{ ] ) ) ) _ _ | ' ..5.4XdXCXSXLXLXHXBX_.y #   $ z K P z & o O p [.bXGXnXW.U.u.3 8 3 0.8 ",
"V.M.m.m.n.p.e.r.9 9 s T.`.5X8X1X;X2.<.:.) ) ) _ _ _ ........5.4XdXAXDXDXLXSXpX_.y # + $ z m K v % . O f {.bXGXbXkXU.x.l.l.8 3 8 ",
"C.M.m.n.s.p.e.r.7 9 q s T.E.%X%X>X2.:.:.) ) ) _ _ X.O.X.3.3.8.tXfXAXDXDXLXSXNX_.u & + $ z L K z & o O e _.BXGXMXkXW.U.x.l.0 4 4 ",
"C.m.M.n.s.p.e.7 7 5 6 e l c n m C @.-.` ]  ._ _ X.o.o.6.6.8.7.rXjXFXDXDXLXKXpX_.y # X % z K K x - o O f _.BXJXGXcXkXW.I.z.0 4 4 ",
"C.M.m.N.p.p.i.7 9 6 q e a u l M C C -.` ` _ _ X.o.o.6.7.7.7.tXuXjXDXDXDXLXFXNX_.y # X % v K K z & . O r {.NXJXJXMXcX^.!.I.0 4 w ",
"M.M.N.s.p.j.i.A.S.p D.a a l v M A Z -.-.| _ X.X.o.6.6.7.yXyXtXuXjXDXDXDXDXKXNX_.y # + % z K K z - o O r ].bXJXHXJXMXcXQ.U.0 w w ",
"M.N.N.a.p.f.S.F.H.T.T.T.b M n m C / ` ' | X.X.o.6.6.7.7.yXyXyXjXjXDXDXDXLXFXNX_.y # X % z K K i O . O r _.GXHXHXJXMXcX^.U.0 4 w ",
"N.N.s.a.d.i.S.G.].{.'.5X$XU @.@.;.;.;.>.O.O.o.6.6.7.7.yXyXiXiXjXDXDXDXDXDXSXpX_.y #   $ z m K z & . o e _.bXHXHXHXJXcX5XU.q w < ",
"N.N.s.d.r.e.S.!.{.7X7XpXeX2X4X4.,.;.;.;.X.o.o.6.6.6.7.7.yXuXiXiXjXFXDXDXLXSXvX_.u & + ; z L K v ; o & y _.vXJXUXHXJXvX{.R.a w < ",
"f.N.s.d.d.i.F.Y.{.}.pXfXfXdXrXrX4.5.;.X.o.o.6.3.=.=.3.9.tXyXuXjXjXDXDXAXSXSXpX'.v ; ; u m L L m : 2 e v {.vXJXHXHXJXmX5XT.q 2 < ",
"N.s.d.d.e.i.S.G.Y.`.-XhXfXdXdXtX4.3...O.O.O.O.( ( F G U wXtXuXuXjXjXjXAXAXAXZX7X`.x z z K @.).K b d v `.5XmXZXJXJXmXcX{.c a < < ",
"s.s.s.d.e.i.i.s d b `.'.sXsXuXdX8.3.....O.O.$.F h > h S &.eXuXuXdXdXsXfXAXAXAXfX6X).).).$X%X$X$X).).).7X7XvXZXmXmXmX7X{.T.q 1 < ",
"p.p.d.e.y.r.9 6 a y d P -XqXsXtXtX=.=.( O.$.G F > : : > U 2XtXtXqXqXqXeXhXCXfXZXpX6X=X-X&X*X&X*X*X7X7X7X7X7X7X8XnXcX{.E.c a < < ",
"g.e.d.e.r.8 7 1 1 r i x T '.eXwX9.$.$.$.$.( G S > @ - > H #.&.=.&.P T $X-X=X6X6X6X6X6X=X*X*X*X=X6X6X7X7X5X{.`.{.5X{.{.Y.s q < < ",
"y.y.y.y.0.7 7 5 1 e r i H T '.T ~ $.$.$.Y I G S > : : : x x S S b x x b H K /.`.`.).).$X*X*X6X6X*X`.`.b b b b U.Y.Y.T.U.D.8 5 5 ",
"3 0.0.3 0.3 8 5 1 1 e f f g g J T I Y ~ $.Y I G S S > > > : : - - @ - - ; t t t u u z m $X*X=X$XK z u t % 1 1 1 a a D.D.q 8 8 5 ",
"3 u.0.l.0 3 5 5 9 1 1 e y i f g H J (.J ~ Y I G G G S h : @ + . . . + + + + # # # $ t z ).*X*X).v ; $ # # X X < 6 q q i.i.u.8 u.",
"l.x.l.l.0 8 8 5 9 6 e p r f f g H J (.J R I R I Y G G x > @ . .     + + X X   X   # ; z ).*X*X).z - # + X X = 1 < 5 8 8 u.u.u.u.",
"U.I.I.x.0 0 8 5 9 9 9 p f f g g P.|. XQ R R ~ I ~ G G S > : @ - @ $ $ @ $ % $ & $ * u z ).*X*X).x t % & % 2 2 < < 5 3 u.0.0.0.q.",
"^.!.!.U.q q w 4 5 9 p p P.P.P.P.(. X X XW W ~ ~ I U G D x x x z x l z z z z z z l v b m $X*X*X).L b v v b c c s q 8 u.0.q.0.q.q.",
"^.^.Q.R.U.q q 5 5 6 p G.P.P.P.[.(. X|..XQ Q R I I G D D D P A L P P L K L L L L L L ).).$X*X*X*X$X).).E.E.`.Y.T.D.l.u.0.q.q.q.q.",
"^.^.^.E.R.c q q 6 6 p H.P.P.(..X.X|.|.|.E Q R R I U #.P #.@.@.*.@.$X&X&X&X*X=X=X6X*X=X=X=X=X6X6X6X6X7X5X{.{.Q.!.D.z.0.q.q.q.c.h.",
"cX8X5X5XE.E.c a e e p P.P.P.[.(..X|.|.E E Q W I T T U #.+.*.*.4.4.&X,X2X2XeXhXfXfXfXpXfXhXpXhX0XhXZX6X7X5X`.Y.!.D.u.l.g.c.q.c.h.",
"8X8X8X8X5X5XE.b a t r i g (.(..X.X|.|.E E Q R I Y &.#.*.*.*.;.*.*.*.&X2XhXdXfXAXCXFXAXAXCXCXCXSXJXCXNXnX`.T.U.S.i.u.g.q.h.v.B.B.",
"~.8X8X8X8X8X$X`.v u t i g H (. X X|.E E Q Q R R Y &.#.*.*.;.,.*.,X&X2XeXsXfXAXAXFXFXSXFXFXDXUXLXUXHXGX7X{.H.s S.i.u.g.a.B.B.B.c.",
"~.@.~.:X0X0X8X$Xm x i x H H (.J  X XE Q Q R I I Y =.*.*.+.,.*.4.&X2XqXeXhXfXAXFXFXSXDXDXKXIXIXIXIXIXUXvX{.T.G.F.i.i.j.s.B.B.B.B.",
"M n C %X1X1X*X&X@.K S K H T T OXW W Q W R R I G $.%.*.%.+.;.,.4.2XeXsXpXsXsXaXfXVXVXVXKXLXIXPXPXPXIXUXBXlX[.W.J.F.k.j.s.B.B.B.B.",
"l l M M Z :X1X1X&X$X$X&.&.Y OXY ~ W W R R I G G #.%.%.^ ;.;.4.4.eXsXsXaXpXwXpX+X+X+XBXVXKXKXIXPXPXPXUXJXGXlXzXK.J.F.k.s.s.a.B.s.",
"* * l n C @.1X1X2X1X*X=X-X-X&.T Y I I J G I G G ( ( ..' +.;.4.4.tXjXaXsXwXOXOX(.'.+X+X+XVXKXIXIXPXIXIXIXIXGXGXlXK.F.f.p.p.h.s.s.",
"* * * l m @.%X0X9X9X2X2X&X&X&.&.U Y I I G G G ( ^ ^ ..^ ' ;.5.4XuXjXsXwXOXOX X(.(.(.OX+XBXVXKXKXIXIXIXPXIXUXGXlX].L.f.e.d.s.j.s.",
"* = * l n $X:X1X1X9X3X4X4X4.*.#.( U #.U G G ( ^ ^ ^ ^ ..%.%.4.4XwXwXwX@XOX XJ (. X X.X+X+XVXBXKXUXIXPXPXPXIXGXlX].J.f.t.f.f.f.k.",
"= 2 2 c E.%X8X8X:X1X;X;X,.,.+.+.+.#.%.( #.( ( ^ ^ ^ ' ^ %.%.4.&.wX~ OX~ oXW Q |.(.|. X.XOX+X+XVXKXIXIXIXKXKXKXlXW.L.A.t.t.f.f.f.",
", , k c R.~.>X>X>X>X;X<.>.>.-.;.+.+.+.+.+.^ ^ ' _ ' ' ..;.%.%.&.&.~ ~ ~ ~ Q Q E |.|.|. X.X.X@XBXVXKXIXIXIXKXGXlX].L.A.t.t.t.f.f.",
"w w q k R.E.~.~.>X2.<.:.:.{ ` -.-.' -.;.' ;.' ' ' ' ' ^ %.%.#.#.~ ~ ~ R Q E |.E |.|.|.|..X#X+XBXVXKXKXIXKXKXVXlX].H.L.A.A.f.f.A.",
"4 0 0 q c R.R.n ~.C Z Z { { { [ ` -.` ^ | ` `  . . .' ^ +.( #.Y Y R R R Q E ! |.XXXX|.oX#X+X@XVXVXKXKXKXKXGXBXxX].P.L.A.A.A.t.t.",
"4 4 0 q k k k n ~.C Z B B B N B ] ] `  .` ] ] ]  .` ^ ^ ( / D U R R R R E E ! ! XXXXoX#X#X@XaXVXKXKXKXKXVXxXxX[.zXK.K.L.L.A.A.t.",
"3 8 0 0 , k l n n Z Z Z B B N N N N B N B ] ]  .` ' -.^ / ( D G I R R Q E ! ! ! XXXXoX#X@XVXVXKXIXKXKXGXVXxXzX[.zXzXzXL.L.A.A.t.",
"8 3 4 4 , , k l n Z Z Z B B N N N N N N N  .B ] { ` ` / / D F G R R Q E ! ! ! ! XXXXoX#XVXVXKXKXKXKXVXGXBX[.oX[.[.zXzXzXL.A.t.t.",
"3 3 3 w , k * l n C Z Z B N N N N N N N N N V { { -.-./ / D G G R R E E ! ! ! ! XXXX#X#XaXVXKXKXIXKXUXVX@X[.zX[.[.zXzXP.L.A.t.t."
};
