/* XPM */
static char *result[] = {
/* columns rows colors chars-per-pixel */
"64 64 249 2 ",
"   c #1B0707",
".  c #250E13",
"X  c #281314",
"o  c #34161A",
"O  c #210D0E",
"+  c #361C28",
"@  c #38282A",
"#  c #37373A",
"$  c #2D2A30",
"%  c #491B27",
"&  c #45242B",
"*  c #482936",
"=  c #572A39",
"-  c #463336",
";  c #5A333D",
":  c #652D39",
">  c #38394D",
",  c #373E65",
"<  c #593646",
"1  c #4D3044",
"2  c #6D394E",
"3  c #37447A",
"4  c #384269",
"5  c #3D4159",
"6  c #4C5457",
"7  c #59585B",
"8  c #574C51",
"9  c #674756",
"0  c #754858",
"q  c #66585B",
"w  c #70474E",
"e  c #444A6B",
"r  c #575965",
"t  c #444C76",
"y  c #525979",
"u  c #695866",
"i  c #794E64",
"p  c #5A6376",
"a  c #68656A",
"s  c #696B79",
"d  c #77777A",
"f  c #756C6F",
"g  c #873B50",
"h  c #874958",
"j  c #9B4B65",
"k  c #865666",
"l  c #8F5772",
"z  c #A95975",
"x  c #A95470",
"c  c #876B73",
"v  c #996579",
"b  c #847679",
"n  c #8B696F",
"m  c #AD657D",
"M  c #85807B",
"N  c #313E8A",
"B  c #2D4A8D",
"V  c #2E478A",
"C  c #354C83",
"Z  c #334B8D",
"A  c #3B4E8C",
"S  c #364687",
"D  c #3B538C",
"F  c #3B5186",
"G  c #2E4D95",
"H  c #2E4D9B",
"J  c #2D4596",
"K  c #334693",
"L  c #324C94",
"P  c #3B4E93",
"I  c #324C9C",
"U  c #36499C",
"Y  c #2D5196",
"T  c #2D519C",
"R  c #275594",
"E  c #335295",
"W  c #3C5493",
"Q  c #32519B",
"!  c #3B569A",
"~  c #2D4DA3",
"^  c #2D4DAA",
"/  c #324BA3",
"(  c #334BA8",
")  c #2D51A2",
"_  c #3456A5",
"`  c #395DB0",
"'  c #3C64B6",
"]  c #3C609B",
"[  c #424B89",
"{  c #475689",
"}  c #465A96",
"|  c #545D8E",
" . c #5B6688",
".. c #4A629A",
"X. c #576798",
"o. c #5F719B",
"O. c #636988",
"+. c #7A7984",
"@. c #61729B",
"#. c #6A7293",
"$. c #4B5DA1",
"%. c #4A65A2",
"&. c #5869A2",
"*. c #5B75A7",
"=. c #4A6DB6",
"-. c #6576A5",
";. c #757EA4",
":. c #4B75CB",
">. c #917285",
",. c #AB6885",
"<. c #B66885",
"1. c #A77589",
"2. c #B97995",
"3. c #AA7793",
"4. c #C47998",
"5. c #7C8593",
"6. c #7787A9",
"7. c #6A88B7",
"8. c #788AB5",
"9. c #7D92B8",
"0. c #7189AD",
"q. c #5A8AD9",
"w. c #5C93DC",
"e. c #5E91D6",
"r. c #5F88CD",
"t. c #688CC8",
"y. c #6A93CC",
"u. c #7695C8",
"i. c #6391D4",
"p. c #6894D6",
"a. c #779CD4",
"s. c #658BD3",
"d. c #7EA3D3",
"f. c #5C94E3",
"g. c #5D97E8",
"h. c #5C8BE4",
"j. c #6296E7",
"k. c #628DE1",
"l. c #77A5E5",
"z. c #86899B",
"x. c #97989A",
"c. c #92888E",
"v. c #A39A9B",
"b. c #B08696",
"n. c #868CA8",
"m. c #8893AA",
"M. c #989AA5",
"N. c #828CB8",
"B. c #8797BA",
"V. c #979CB6",
"C. c #A69BA2",
"Z. c #B891A7",
"A. c #9AA4AA",
"S. c #97A3B8",
"D. c #8DA5BF",
"F. c #A9A8A9",
"G. c #B4A9AA",
"H. c #AAABB4",
"J. c #B5ACB4",
"K. c #B6B5B5",
"L. c #B0B4B6",
"P. c #C898B5",
"I. c #D497B6",
"U. c #CB90AB",
"Y. c #C7B7BB",
"T. c #C5ABB5",
"R. c #C3809E",
"E. c #849CC8",
"W. c #899FCA",
"Q. c #88A3C9",
"!. c #97A8C7",
"~. c #86A7D5",
"^. c #94ADD2",
"/. c #99B5D8",
"(. c #9AB3CE",
"). c #A3ABC6",
"_. c #ABB8CA",
"`. c #B3BCCB",
"'. c #B6B9C8",
"]. c #A8B9D5",
"[. c #B4BAD7",
"{. c #BCAFC0",
"}. c #98BCE4",
"|. c #8AB3E8",
" X c #D4ACC6",
".X c #E3B4CC",
"XX c #BAC4C9",
"oX c #AAC3DA",
"OX c #B4C2D5",
"+X c #B9C6D9",
"@X c #B3C6D3",
"#X c #B5C9E2",
"$X c #BCD5EA",
"%X c #B1D1ED",
"&X c #C7C7C9",
"*X c #D4C9CB",
"=X c #C5C9D5",
"-X c #D4CCD3",
";X c #D9CBD6",
":X c #CBD5D9",
">X c #DBDCDC",
",X c #D6D6D7",
"<X c #D6D3CE",
"1X c #E5D4DC",
"2X c #DAE1DD",
"3X c #E5E1DD",
"4X c #CBD5E3",
"5X c #CCDAE4",
"6X c #C6D9E8",
"7X c #D4DBE4",
"8X c #D3DDEB",
"9X c #D8DAE5",
"0X c #D5D2E9",
"qX c #E7DBE3",
"wX c #E9CEE3",
"eX c #CDE3EB",
"rX c #D4E1E5",
"tX c #DDE2E4",
"yX c #D4E3EB",
"uX c #DCEAEC",
"iX c #DAE5EC",
"pX c #DCECF3",
"aX c #D7E8F5",
"sX c #D2F1F3",
"dX c #E3E3E3",
"fX c #E3EBEC",
"gX c #EDECED",
"hX c #E6E6E9",
"jX c #F2EBED",
"kX c #E9F2ED",
"lX c #F2F3ED",
"zX c #E3EDF3",
"xX c #EBEDF2",
"cX c #E3EFF8",
"vX c #F2EDF2",
"bX c #F9EEF5",
"nX c #E4F3F5",
"mX c #EDF4F4",
"MX c #ECF5FA",
"NX c #ECF9FA",
"BX c #E9F7F8",
"VX c #F3F4F4",
"CX c #FCF4F4",
"ZX c #F5FAF5",
"AX c #FCFEF6",
"SX c #F3F5F9",
"DX c #FCF6FA",
"FX c #F5FDFC",
"GX c #FCFDFD",
/* pixels */
"R R T Q Q U Z S , t O.n.{.0XSXGXGXGXGXGXGXGXGXGXGXGXGXGXGXGXGXGXGXlX>X'.z.p e , 4 4 4 e 4 t S P K L ) ) ~ / / / I G G G H Q I ) ",
"R R T Q Q L Z S t { O.m.'.0XSXGXGXGXGXGXGXGXGXGXGXGXGXGXDXGXGXGXAXlXtX'.n.O.t e e e e t t [ [ [ L I T ) ) ~ ) / H I G G G I I I ",
"R R T T Q L D D {  .5.A.=XhXSXGXGXGXAXAXGXAXGXGXGXGXGXGXDXGXGXGXGXlXdX=XS.>.O.p O. .O.O.O.X.| $.! Q H H ) ~ I I G G G I I I I U ",
") T ) ) Q E W | @.5.S.`.:XfXDXGXGXGXAXAXAXGXGXGXGXGXGXGXGXGXGXGXGXZXfX:X_.V.z.z.z.z.n.n.N.n.;.-...E G T H T H H G G I H I I I U ",
"^ ) ~ / G E ..*.9.S.XX5XfXmXZXGXAXAXAXZXAXGXGXGXGXGXGXGXDXDXGXGXFXFXnXfX:X=X'.'.'.'.`.[.'._.!.9.*...R R G G L G G G H I / / I / ",
"^ ^ ^ ~ I E ..-.D.@X5XrXnXnXBXZXZXAXAXAXAXAXGXGXDXGXGXGXGXGXGXGXGXZXZXmXhXdXrX>X9X9X9XhXqX7X+X!.7.*.] R Y Y G G I I I U / I U / ",
"~ ^ / / I ! %.7.D.oX6XeXeXyXuXuXkXZXAXAXAXAXGXGXGXGXGXGXGXGXGXGXFXFXFXDXZXZXmXmXMXVXSXSXSXcX8X+XD.7...] Y Y G L L I U / U / / / ",
"~ ^ / / I U %.*.9.(.oXoXoXOX+X4XuXlXlXAXAXAXAXGXGXGXGXGXGXGXGXGXGXFXGXGXAXGXGXFXFXFXGXFXGXSXzX5XoXD.7.*.%.E E G U I U / / / / ( ",
"/ / / / U _ } %.7.7.9.9.9.N.!.].0XpXSXGXAXAXAXGXAXGXAXGXGXGXGXGXFXFXGXGXGXAXGXGXFXFXFXGXAXZXSXzX6XoX^.u.*.$.P K L U / / / ( ( ( ",
"} / / / ( ( _ _ ] ] %.%.%.*.;.!.=XaXSXFXAXAXAXGXAXGXAXGXGXGXGXGXGXGXGXGXGXGXGXGXFXFXFXZXZXGXZXNXpXeXoX^.7.%.[ K K U J / / ( ( ( ",
"/ / U ( ( ( / / R ! ! H U $.&.E.#X8XSXGXGXAXAXAXAXAXAXAXGXGXFXGXGXGXGXGXGXGXGXFXFXFXFXFXFXGXGXFXNXpX6X].9.&.[ K K U / / ^ ( ^ ^ ",
"( [ / / ( ( / ~ Q Y J J N ( $.;.[.8XMXFXAXAXAXAXGXAXAXGXGXGXGXDXAXGXGXGXGXGXGXGXGXGXFXFXGXGXFXFXFXNXyX[.8.X.[ N K K J / / ^ ^ ^ ",
"/ / } ( / ^ / ~ ~ ~ / J N N $.;.[.8XMXFXGXAXAXAXAXAXAXAXGXGXGXGXCXCXGXGXGXGXGXGXGXGXFXGXGXFXZXFXFXBXrX`.n.| [ N V K I H ~ ~ ^ ^ ",
"[ ( ( ( / ~ ~ ~ J H H J J } =.E.[.aXMXDXAXAXAXAXAXAXAXGXGXGXGXGXCXCXCXCXZXSXxXxXvXvXvXvXxXmXmXmXFXBXtX`.n.#.[ [ K K L I ~ / ^ ^ ",
"U U / / / / ~ ~ ~ J U ! $.&.;.W.#XiXSXGXGXAXAXGXAXAXAXAXGXGXGXGXCXCXCXvXhX>X-X-X-X;X;X-X-X:X9XdXmXvXhX=XS.;.O.} [ P L I H ~ ^ ^ ",
"J / J / ~ H H H G I ! $.&.;.W.[.4XzXSXFXAXAXAXAXGXAXGXGXGXGXGXGXCXCXjX3X&XL.F.x.C.C.C.C.C.F.K.=XqXxXvX9X'.S.6.-...W L H H H ~ ~ ",
"J ( ~ I I H H G R F ..o.9.(.OX4XuXnXFXGXGXAXGXAXGXGXGXGXGXGXGXGXDXbXqX*Xx.d a q q u u r u i >.N.&XqXxXxX9X+X).B.-.} L G I ~ T T ",
"/ / / I I I G G R F ..0.D.@XeXpXnXSXFXFXFXGXGXGXGXFXGXGXGXGXGXDXbXjX;XG.c 8 - @ & & @ $ + 1 e >.H.;XxXSXxXyX+X(.0...P G G H T H ",
"J / N / Q Q G B 3 R o.6._.:XsXNXZXFXGXGXGXGXGXGXGXGXGXGXGXGXDXVXqX;XT.c.q - o . . O . . . + 1 i z.{.;XzXBXzX5X].9.&.W J H G T Y ",
"( / / I Q Y G B R D  .9.@XeXkXZXFXGXGXGXGXGXFXGXGXGXGXGXGXDXCXqX&XJ.c.f w = o O O     O . + 1 2 >.3.J.=XdXfXyXOXB.&.! J J H ~ Q ",
"H H H E Y Y G B B D o.9.@XrXBXZXFXGXGXGXFXFXFXGXGXGXGXGXAXlXlX<XC.>.u 9 2 < * % X   O X % 1 1 t 9 u +.V.*X9X9X+XB.&.! J H H H T ",
"H H H H Y G G B Z D X.6.XX2XmXAXGXFXGXGXFXGXFXGXGXGXGXDXCXjX<XG.b 9 < 1 9 9 w < & o o & 2 t 2 2 < 1 9 >.K.,X>X+XN.&.} G ~ ~ ~ ) ",
"H ~ T Q Q Y G L E D X.9._.rXmXZXAXGXGXGXGXFXGXGXGXGXCXjX3X<XY.M q < * < i l l i : & * < i l l i < 1 2 f J.-X0X[.N.&.P J J ~ ) ) ",
"~ ~ / Y Q Q G G E W X.6.@XrXmXZXAXZXGXGXGXGXGXFXGXDXlX<X*XG.M f w ; < i >.b.3.,.0 2 2 h z N.3.>.i < 9 >.T.*X0X[.N.&.L J J H ~ ~ ",
"~ / ~ H H Y G G Z W X.9.OXiXZXGXGXGXGXGXAXGXZXGXGXZX3X&Xv.f q w : 2 0 v Z.P.P.2.,.j j ,.2.P.P.3.n k k 1.P..X0X[.N.&.P K J ~ ~ ~ ",
"~ ~ ~ H Q G G G B W X.8.].7XnXZXZXFXFXDXlXlXlXZXAXlX,XG.M 8 - - : h v 2.P. X XP.<.x x ,.P. X XP.1.v v b. XwX;X[.N.&.P J K J H H ",
"/ ~ / H Y H G G B W ..0.!.+X9XxXSXDXSXgX2X2X2XkXlXgX<XF.q - o o : h v b.I..X XI.4.<.<.4.P. X XI.2.,.<.U..XwX0X[.N.&.S N V J G G ",
"/ / / H H Y G G G U } -.N.).[.0XnXSXxX>XXXL.L.XX>X3X*Xv.q @ O X : h v b.I.I.I.4.4.<.<.<.U.I.I.I.2.3.2.P.wXwXwX[.n.| [ , V B B B ",
"/ / I I E G T I G L } } -.8.!.[.8XxXrXXXx.d M x.Y.<X&Xv.q @ O o = h v 1.4.R.4.4.<.<.x <.4.4.4.<.,.,.2.P..XwX0X[.n.X.3 3 3 V V C ",
"/ J I I H Y Y I Q U U } | X.;.!.=X0X:XH.d 7 7 +.K.<X*XG.u - + & 2 h z ,.<.<.4.<.<.x x <.,.<.,.,.z ,.3.Z. X0X0X[.n. .| 3 C D D D ",
"U U L L L I Q Q H I U K P [ X.>.H.{.H.x.f 7 7 M K.<X<XJ.b q < 8 i v <.<.m m x x j j j j x x j x j l ,.>.Z.{. X).N.;.o.X.X.X.%.*.",
"U / U G L Y Y Q H I K K N t { O.#.n.z.>.s a d x.XX2X3X*Xv.b f c 3.b.b.4.<.x x g g g g g j j j j i 2 i i >.3.z.M.n.n.N.9.9.9.9.9.",
"~ ) ~ ~ T / Q T U L P S N , t e e r p s 5.x.F.XX9XxXxX3X&XG.G.G.{. XT.Z.b.v k 2 : : : g g h h w : - & - 1 8 a +.V.H._.[.[.OXOXXX",
"^ ^ ^ ) ~ T ~ I L K A A [ t t 4 , , 6 p x.L.<XdXVXSXSXxX3X3X<X<X9X7X-X Xv.1.k w : % % : w h k w ; - + @ + # 6 O.A.[.0X8X8X8X7X7X",
"^ ) ~ ~ ) I H L U L P } | | | t , > r +.H.:XhXZXGXDXGXDXAXlXjXjXxXxXqX*XT.b.v 0 = % % ; w n n x w 1 - @ $ # 7 +.H.4XpXcXiX8X5X7X",
") ^ ~ ) Q Y H G L P } X.-.;.5.#.p s d x.&X2XZXGXGXGXGXGXAXAXGXDXGXSXvXwX*XG.b.i : % o ; n M b.M b f u q 7 u d M.XXiXcXzX5X=X[.'.",
"~ ) H T Y Q Y B B P } -.N.!._.).H.H.H.'.>XlXZXGXGXGXGXGXGXGXDXGXGXZXbXjX3X*XZ.n ; @ & ; n G.Y.&XT.G.C.v.v.C.H.XX>XuXpX:X_.S.m.n.",
") H T T E Y G B V Z ..0.!.+X4X8X4X:X>XdXgXZXAXAXGXGXGXGXGXGXGXGXDXDXDXDXjX1XY.b.w - - w M Y.<X3X1X1X;X<X-X-X,XtXnXkXuX@XS.5.O.p ",
"~ G G G E E G B V A ..8._.5XkXmXmXVXmXVXAXGXAXGXGXGXGXDXDXDXGXCXGXAXGXDXDXjX<XG.n q 8 q v.T.:X2XgXjXjXjXlXVXVXZXNXnXrXXXm.O.y e ",
"T T G G B L Z B V D X.6._.rXBXZXGXGXGXGXGXGXGXGXGXGXDXGXGXGXDXGXAXAXGXGXGXCX3XY.v.M f f M x.L.XXqXVXGXGXGXGXFXGXFXBXrXXXm. .4 , ",
") I L G B B Z B C F X.6.XXrXlXAXAXGXGXGXGXGXGXGXGXGXGXGXGXGXGXGXZXAXGXGXGXDXjX3X&XF.x.M s s d A.&XdXDXGXGXGXGXFXFXMXyX_.6. .3 4 ",
"Q U L B Z Z Z Z F } o.m.XX2XkXAXAXAXGXGXGXGXGXGXGXGXGXGXGXGXGXGXGXAXGXGXGXGXDXlX3X*XL.x.p 6 6 d H.>XVXGXGXGXFXSXSXzX:X_.6.O.t 3 ",
"U L L L Z L D W }  .6.S.@X2XlXAXAXAXGXGXGXGXGXGXGXGXGXGXGXGXGXGXGXGXGXGXGXGXAXAXlXfX&Xx.6 > # 6 A.<XVXGXGXGXSXMXzX8X+XS.0. .F 3 ",
"K K K Z Z D { ..*.6.m._.:XfXZXAXGXGXGXGXGXGXGXGXGXGXGXGXGXDXCXAXGXGXGXGXGXGXGXAXAXkX2XA.6 $ $ 6 x.&XVXGXGXGXSXfX4XOX!.9.o...D 3 ",
"V K S V C F } -.N.!.OX4XfXmXSXGXGXGXGXGXGXGXGXGXGXGXGXGXGXAXAXGXGXGXGXGXGXGXAXAXGXZX:XA.6 $ $ 6 x.&XnXGXGXDXnX7X_.V.6.@...D D F ",
"[ [ P A C [ | 6.!.+X8XzXmXZXFXGXGXDXGXGXGXGXGXGXGXFXZXFXGXGXAXAXGXGXCXCXCXlXjXjXVXdX=XM.r # # 7 A.<XlXGXGXCXhX=XV.;.X.{ F D D R ",
"&.&...| F y  .0._.6XcXSXFXFXGXGXGXGXGXGXGXGXAXAXGXZXFXFXZXAXAXGXGXDXbXjX3X3X<X<X-X&XL.x.p 6 6 d L.,XlXGXGXVXtXXXn. .{ S Z L L E ",
"E.8.0.o.| y  .6.`.iXMXGXFXGXGXGXGXDXFXGXZXGXZXZXZXFXFXFXFXZXGXFXGXDXjX;XY.G.v.v.x.M.z.z.d d d x.XX3XCXGXGXVX8X`.8.X.F V K G I H ",
"[.].^.N.o.p p 5.XXeXSXFXGXGXGXGXGXFXGXAXZXZXFXFXNXNXFXNXNXZXFXFXAXlX3XY.v.f q 8 8 r a s c.M.L.&X>XlXCXAXGXSX8X[.8.X.P K J ~ I / ",
"8X0X+X!.5.O.#.5.XX2XmXGXGXGXGXGXFXGXZXZXNXNXBXBXBXBXBXNXMXNXNXFXAXlX3XG.M 8 @ @ $ > 8 s x.K.,XhXlXlXAXAXDXxX8X].8.&.} J H / ~ ~ ",
"MXzX9X`.A.5.5.A.XX2XZXFXGXFXFXGXZXFXZXkXkXuXsXiXaXaXsXaXpXpXcXBXAXlX2XK.M 8 # @ $ 1 8 +.H.:XgXZXZXGXZXSXcX8X=X^.;.%.! I ~ ~ ~ ^ ",
"FXNXpX:XL.A.A.L.:XuXNXGXGXGXFXFXZXZXkXkXeXeX6X$X$X$X$X6X$X6X8XpXnXlX2X&Xv.f 7 8 8 r d M.&XhXFXGXGXZXmXfX0X+X(.N.*.$.U I H ) ^ / ",
"FXNXBXuX:X=XXX:XtXmXFXGXDXFXGXFXZXBXnXrX+XoX]./././.(.].(.].+X6XuXkXkX2X&XF.v.x.x.x.L.&X9XmXFXFXFXNXcX4X[.V.0.-...E G G H ~ ~ ^ ",
"BXNXnXnXfXuXtXfXlXSXFXGXFXFXFXFXBXnXsX$XoX^.Q.u.E.u.B.E.B.!.(.+XrXfXmXnXdX>X,X*X&X*X,XtXnXMXNXNXNXcX8X[.B.0.o.} W L G H H H ~ ~ ",
"eXyXiXuXkXBXZXNXZXSXGXFXFXFXFXMXnXsXeX#X/.d.u.t.t.t.8.7.8.9.Q.].5XnXNXZXZXVXmXlXlXkXlXnXnXpXpXnXpXaX$X/.9.-.} E E L G Y H H ~ ~ ",
"].].+X5XnXBXZXFXFXFXFXFXFXFXMXcXeX$X%X/.~.u.t.7.7.7.7.7.7.8.Q.].$XuXNXFXFXFXFXFXZXZXFXMXaXeX6X$X$X$X%X~.t.*.%._ Q Q T T T H ~ H ",
"6.9.D._.4XpXSXFXFXFXFXFXFXSXcXaX$XoX/.~.a.p.y.i.t.t.7.7.7.7.Q.(.$X2XNXNXFXFXFXFXFXZXNXpX$XoX(./././.^.a.u.:.=.$._ _ R R ) T T T ",
" . .6.m.@X8XcXMXMXSXMXMXSXMXpX6XoX^.d.a.p.p.p.i.i.i.t.u.t.9.Q.}.:XuXNXNXFXFXFXNXNXcXsX6XoX(.Q.d.~.a.a.a.t.r.:.:.' _ ) R ) _ Q T ",
"C F X.6.!.+X6X0X8X8X8XzXBXBXaX$X/.~.y.y.i.i.i.i.i.y.y.y.u.Q.^.oXeXsXNXFXFXFXFXNXcXaX0X#X/.~.u.y.y.y.p.p.p.s.q.:.:.' _ _ _ T _ Y ",
"3 C { o.8.!./.}.[.[.=X4XaXcXaX$X/.d.y.e.i.e.e.e.e.e.p.d.d./.}.%XeXnXNXFXFXFXNXnXaX6X#X/.~.a.y.y.t.i.i.i.i.k.q.q.:.:.' ' _ _ _ Q ",
"S C F ..o.;.;.3.>.N.V._.6XsXaX$X}.d.y.i.w.w.w.w.e.p.l.|.}.%X%XsXpXMXFXFXFXFXMXiX0X].^.~.a.p.k.h.w.w.i.f.w.w.w.q.h.:.:.:.' _ T Y ",
"C C 3 { | X.$.&.%.o.;.S.+XeXsX$X}.d.y.e.w.w.w.w.w.p.l.|.}.sXsXsXMXSXFXFXFXSXzX8X[.^.E.k.p.p.k.g.f.f.f.f.f.f.f.f.h.h.:.:.' _ T H ",
"C F F F [ [ [ [ [ } #.m.@XeXsX$X}.d.i.e.w.w.w.w.w.j.l.|.%XsXsXsXNXSXFXFXGXSXpX4X[.W.E.E.s.k.h.g.g.g.f.f.g.g.j.g.h.h.:.:.' _ ) H ",
"C F 3 C N [ N N N [  .6._.eXsX$X}.d.p.e.w.w.w.w.w.j.l.}.%XsXsXBXFXFXFXFXZXSXpX=X[.!.:.:.s.k.g.g.g.g.g.f.g.j.g.j.g.g.h.:.:.` _ H "
};
