/* XPM */
static char *result[] = {
/* columns rows colors chars-per-pixel */
"64 64 256 2 ",
"   c #1E3C19",
".  c #1D3D0F",
"X  c #223919",
"o  c #1C3C25",
"O  c #283A27",
"+  c #2E3C30",
"@  c #1F4017",
"#  c #244218",
"$  c #3A551F",
"%  c #294327",
"&  c #36572B",
"*  c #385833",
"=  c #324A33",
"-  c #326F34",
";  c #1C5933",
":  c #425B2E",
">  c #526B30",
",  c #5F7132",
"<  c #1D5A57",
"1  c #365648",
"2  c #275859",
"3  c #314F53",
"4  c #2E6C54",
"5  c #1E5879",
"6  c #1D5669",
"7  c #275669",
"8  c #375767",
"9  c #2B4D79",
"0  c #255878",
"q  c #345374",
"w  c #296677",
"e  c #336D6E",
"r  c #1C6450",
"t  c #495B52",
"y  c #566457",
"u  c #4F6D4E",
"i  c #667057",
"p  c #4D566D",
"a  c #49766A",
"s  c #507070",
"d  c #6D7170",
"f  c #675B66",
"g  c #907972",
"h  c #6C8B36",
"j  c #689934",
"k  c #3C8A6C",
"l  c #4E8F4F",
"z  c #658B58",
"x  c #6A935C",
"c  c #748E50",
"v  c #5EA555",
"b  c #4F8D70",
"n  c #6A8A65",
"m  c #779A68",
"M  c #709172",
"N  c #59B36D",
"B  c #73AF6F",
"V  c #6FAE53",
"C  c #77FB4C",
"Z  c #7CF556",
"A  c #7FEF5B",
"S  c #74D16E",
"D  c #7CEF6A",
"F  c #78C553",
"G  c #879852",
"H  c #96B356",
"J  c #A7B55C",
"K  c #ACAD5D",
"L  c #909070",
"P  c #B89A70",
"I  c #83A86D",
"U  c #83A974",
"Y  c #8AB578",
"T  c #92B26F",
"R  c #B8A768",
"E  c #B7B568",
"W  c #BAA875",
"Q  c #ADB56C",
"!  c #C6986B",
"~  c #D88A79",
"^  c #C99776",
"/  c #D19073",
"(  c #E2837D",
")  c #C3A96B",
"_  c #9BDA58",
"`  c #93CA58",
"'  c #A5CF5B",
"]  c #8BF24B",
"[  c #96F44B",
"{  c #8AEC58",
"}  c #97E85A",
"|  c #83F254",
" . c #8AF255",
".. c #84F15B",
"X. c #8AF25C",
"o. c #97F458",
"O. c #90EC4C",
"+. c #A4EA5C",
"@. c #AAF659",
"#. c #B1F55C",
"$. c #9ADA64",
"%. c #93CE74",
"&. c #A8C867",
"*. c #A4D865",
"=. c #B3C977",
"-. c #A4DA74",
";. c #B2CF6C",
":. c #88EC67",
">. c #99E668",
",. c #86F266",
"<. c #96F366",
"1. c #89E977",
"2. c #95F476",
"3. c #91ED76",
"4. c #A5E767",
"5. c #B8F564",
"6. c #A6E777",
"7. c #AEF171",
"8. c #C7FB68",
"9. c #D7FB78",
"0. c #CAF474",
"q. c #1E5587",
"w. c #1D5497",
"e. c #1D4F94",
"r. c #2A4C8B",
"t. c #294C87",
"y. c #39478A",
"u. c #23538C",
"i. c #265985",
"p. c #345688",
"a. c #2B4C94",
"s. c #254D9C",
"d. c #294D9C",
"f. c #264C94",
"g. c #235394",
"h. c #23529C",
"j. c #2B5398",
"k. c #335596",
"l. c #344C92",
"z. c #2C6884",
"x. c #376786",
"c. c #396F8C",
"v. c #1D52A5",
"b. c #1C52A9",
"n. c #1F4EA0",
"m. c #254EA4",
"M. c #2A4CA4",
"N. c #244DAB",
"B. c #294CAB",
"V. c #2351A4",
"C. c #2551AA",
"Z. c #2850A7",
"A. c #294EB0",
"S. c #3E63A1",
"D. c #475190",
"F. c #476888",
"G. c #47788A",
"H. c #456797",
"J. c #557392",
"K. c #6B6B93",
"L. c #526EA5",
"P. c #6D72AB",
"I. c #8B7989",
"U. c #A87F8B",
"Y. c #3D848B",
"T. c #518C8F",
"R. c #6D918F",
"E. c #5AA88C",
"W. c #70AF92",
"Q. c #7090AB",
"!. c #75ACAD",
"~. c #5F94AC",
"^. c #76CE8F",
"/. c #7BCEAB",
"(. c #8F9589",
"). c #B7918C",
"_. c #95BB86",
"`. c #97A396",
"'. c #8CAF8E",
"]. c #A9BD87",
"[. c #A6BC94",
"{. c #8E8BB4",
"}. c #AC98B4",
"|. c #8EAEAB",
" X c #AAB4AF",
".X c #D88B85",
"XX c #CB938B",
"oX c #E18D86",
"OX c #CBAB94",
"+X c #D1B4AD",
"@X c #EAB5AC",
"#X c #E8A99D",
"$X c #9BC788",
"%X c #90D48E",
"&X c #A5DA89",
"*X c #A5C898",
"=X c #A9D697",
"-X c #B3D79A",
";X c #B2CC8A",
":X c #98E986",
">X c #90EB8B",
",X c #A6E887",
"<X c #A9E798",
"1X c #B6E496",
"2X c #B6F79A",
"3X c #B0F28A",
"4X c #91CFAD",
"5X c #ABD6A6",
"6X c #B5D6A5",
"7X c #ACCDB2",
"8X c #97E1AE",
"9X c #A8E9A5",
"0X c #B8F7A5",
"qX c #B5EFB0",
"wX c #C8DA99",
"eX c #D2CF90",
"rX c #C9FA9A",
"tX c #CFF090",
"yX c #E5FD89",
"uX c #E7FB98",
"iX c #F1FF99",
"pX c #D0D5AD",
"aX c #D5E9A8",
"sX c #D8F6A6",
"dX c #CCEFB1",
"fX c #E9FBA8",
"gX c #E7F3B4",
"hX c #F1CEB6",
"jX c #91AEC5",
"kX c #ADB8CD",
"lX c #9D93C3",
"zX c #C7B6C3",
"xX c #B7D8C8",
"cX c #B2CFD1",
"vX c #B8E9C9",
"bX c #9FD3D4",
"nX c #C8D4C5",
"mX c #CCCED0",
"MX c #E9D7D7",
"NX c #EDD2CB",
"BX c #D7F8C7",
"VX c #DAF8D6",
"CX c #CAEECE",
"ZX c #E8F8C8",
"AX c #E8F8D9",
"SX c #F6FBD9",
"DX c #F4F1D0",
"FX c #D2DAE6",
"GX c #D5F2EB",
"HX c #F8E7EA",
"JX c #F7FDE5",
"KX c #F8EEF3",
"LX c #FDFCFD",
"PX c #F8F6F8",
"IX c #E9F1ED",
"UX c #E9DAE3",
/* pixels */
"N.b.C.m.m.N.B.B.B.A.B.B.B.M.M.n.n.s.s.f.t.q 7 1 = : u G ;XeXwX].L s 3 3 7 q 9 t.a.a.M.M.M.M.M.B.B.M.N.N.V.C.V.C.m.m.m.d.d.d.j.d.",
"N.N.N.V.m.m.B.B.B.A.B.B.B.M.M.n.s.s.s.f.t.9 8 1 * : i G Q wXwX[.M d t 3 3 q q t.a.a.d.M.M.M.M.M.M.M.N.N.b.V.C.V.Z.m.m.s.m.d.d.h.",
"N.N.C.C.m.N.M.N.B.B.B.M.M.M.d.s.s.h.e.q.0 9 7 8 u u c H =.wXpX-X(.M a p 8 8 9 9 r.a.a.d.l.M.M.M.s.m.m.n.V.V.V.V.m.m.V.m.m.h.h.V.",
"b.N.N.C.N.m.M.N.B.B.M.M.M.s.s.f.g.e.e.q.9 7 2 u u x I Q wXwXaX-X*X(.M s a 8 7 9 9 t.r.a.a.a.f.f.s.s.n.s.V.V.Z.V.Z.Z.m.V.h.V.V.V.",
"A.C.C.N.N.m.m.m.B.m.m.s.s.g.g.u.q.q.q.5 6 7 8 l m Y $X1XtXaXsXrX6X*X_.R.s e 8 7 q 9 t.p.t.t.r.r.r.e.f.s.s.m.V.Z.V.m.m.m.v.v.v.v.",
"C.A.C.N.v.n.n.m.V.m.h.s.g.g.u.u.q.5 5 w 7 4 e b B &X<XrXrXrXsXrXdXqX*XW.M a 8 2 8 q q q q p.p.p.p.r.k.M.d.s.d.m.m.m.v.v.v.v.b.b.",
"A.A.A.N.N.n.n.n.h.n.e.g.g.q.i.z.z.z.z.k e k b N %X,X2XrXrXrXrXrXdX0X=X$XB n z a s s s p s J.F.F.H.H.L.S.k.V.d.s.s.h.m.n.v.b.b.b.",
"A.A.b.N.m.v.n.w.w.e.e.q.q.0 z.z.Y.Y.Y.k k l N N %.>X3X2XtX3X3XtX2X2X<X%X%.B M M M M R.M (.R.R.Q.Q.Q.~.L.H.S.j.d.d.s.m.v.v.b.b.b.",
"B.N.N.m.V.V.V.w.h.e.w.q.5 5 w e Y.E.E.E.N S N D 1.:X3X2.7.2.6.7.7.3X6.,X&X%.$X%.].$X].[.[. X7X7XbXjXjX!.L.H.k.a.f.s.s.m.V.v.b.b.",
"M.N.m.m.v.v.V.h.g.w.q.q.5 w e Y.E.E./.^.^.^.^.D :.,.<.<.<.<.2.<.2.<.7.6.7.3X,XwX-XwXwXwXwXpXpXnXmXcXkX{.~.H.p.r.r.f.s.s.V.C.b.b.",
"B.M.Z.V.h.h.V.w.w.q.q.5 z.w k E.^.^.^.^.D D D D D ,.,.X.....{ X.X.} <.<.7.7.3XtXtXyXuXfXfXfXgXgXCXcXkX!.P.H.y.r.r.f.f.m.V.V.C.C.",
"M.M.V.V.V.h.w.w.q.i.z.z.c.k Y.E.^.^.>X>X^.D D D A A Z ..Z ..Z |  . .} <.7.7.0.9.yXyXiXiXfXfXgXaXpX7X XR.J.D.q t.r.f.f.s.V.V.C.C.",
"M.m.m.m.j.h.w.q.q.0 z.w T.E.W.^./.>X^.D ,.,.D D A A A A Z Z Z Z | ] O.{ } #.5.0.0.9.yXiXiXiXuXwX[.U (.d p q 9 9 r.r.j.d.m.Z.C.C.",
"N.m.m.V.Z.w.z.g.i.w x.T.E.!./.4X>X>X1.2.2.,.,.,.,.,.,.A ,.Z A Z Z | A O.} o.#.5.8.9.9.yXyX9.eX=.L n y p p q 9 t.r.a.d.d.V.C.C.C.",
"Z.Z.V.V.h.w.g.i.i.x.G.~.!.4X4X8X>X>X>X2.2.,.,.2.2.,.,.,.,.A A A | | { { X.O.+.#.5.8.0.0.9.0.E H c u 1 1 3 3 q 9 t.a.a.V.Z.N.A.A.",
"V.Z.m.h.h.g.j.x.F.T.R.!.4XbXvXqX9X:X>X2.:X>X3X:X3X3X:X2.3.,.:.A A Z Z O. .} o.@.5.5.5.5.;.J J G , > * = 3 3 q q t.k.d.m.m.N.C.C.",
"V.v.v.n.e.g.x.c.J.Q.!.4XxXvXvXvX0X<X:X,X3X2X2X0X0X0X2X>X2.2.>.:.A A | {  . .o.} @.+._ ` ` j j j > $ : = 1 3 8 9 y.r.d.m.Z.C.N.N.",
"v.v.v.n.e.g.c.L.~.|.kXbXvXCXCXqX9X<X,X,X<X0X0X0XdX0X0X2X3X:X3.1.,.......X. .} o.O._ O.F j j > > > : : : t 8 8 q p.k.k.d.Z.Z.N.N.",
"C.v.w.w.e.j.S.T.!.jXcXcXcXxX6X5X<X=X=X&X&X=X1XqXdXBXdXdX0X<X:X3.:.....X. . . .X.} _ O.F j j h > , , i i s d F.p.p.p.k.M.m.N.N.N.",
"b.v.v.e.u.u.H.~.|.cXcXcX7X|.`.[.$X%X%X$X_.Y [.*XqXCXVXdX0X0X2X:X<.X.X.{ {  . .{  .O.F O.F j V c m m m R.(.R.K.L.H.p.k.M.s.N.n.N.",
"v.v.w.w.q.u.H.Q.jXcXcX7X(.M d n '._.%.T x z x U 7XnXAXVXBXdX0X2X2.X. .{ | { ] { { { :.$.:.%.Y Y $X$X*X X7X|.jXQ.L.H.l.d.s.M.N.N.",
"w.w.w.e.q.t.G.Q.kXcXmX Xd y : u m Y U m u * u d [.nXAXAXVXBXdX0X6.<. . .| O.] | { { :.:.2.>X:X<X9X6XvXvXFXcXbX{.P.S.k.d.d.M.M.M.",
"w.w.w.q.q.p.H.Q.kXcXmX|.s = O : z U U x : O = y `.nXVXJXVXVXBX0X7.<.{ O.] ] ] | |  .:.2.3X3X0X0XdXCXCXCXvXcXbXjX~.S.d.d.d.n.M.M.",
"w.w.w.q.0 i.H.!.bXFXmX`.y O X = z U m c $ . O y `.nXIXJXAXAXBXdX3X<.} O.O.] ] ] ]  .X.2.:X>X0XqXBXCXCXCXcXbXjXQ.L.S.d.d.d.M.M.N.",
"q.q.q.5 5 i.F.Q.cXFXcX|.y O X = z U m z & # % y `.mXAXIXAXAXBXrX7.<.} O.O.O.O.] ] ] X.,.2.:X2XqXvXCXvXxXjXQ.Q.J.L.Z.k.m.m.m.M.B.",
"w q.q.5 0 i.J.!.cXFXmX`.p O O = z U I z & o % y `.pXAXJXSXAXVXdX3X4.} } O.[ [ O.] | | ,.,.2.:X9XqXvXvX4X|.R.G.p.p.k.d.d.M.M.Z.B.",
"5 5 5 5 z.c.~.!.cXFXcX}.y + O * x I U z & # % y `.nXAXJXJXAXZXdX3X7.7.4.+.[ [ [ [ ]  .X.,.3.>X>X9X9X4X'.R.e q 9 t.u.d.d.Z.B.A.A.",
"w 5 w z.S.T.~.jXFXFXcX`.f + X = x I B x * % % y `.pXHXJXSXAXAXgXtX5.5.5.#.@.@.[ [ ] ] | ,.,.1.1.^.%X'.E.s 8 7 9 t.r.a.m.Z.Z.Z.B.",
"< 5 z.c.T.~.jXbXGXFXcX|.f + O : z I U z * # % y `.nXSXJXJXSXSXgXrX0.9.0.5.5.#.@.[ [ [ | { :.D S S N b s 8 8 7 9 9 r.a.d.M.M.B.N.",
"r 6 z.Y.~.!.bXbXGXGXmX`.y + X & z U U n & % % y `.mXDXJXSXSXSXgXuXtXyX9.8.8.#.#.@.[ [ ] :.{ S B v l u u a t p q y.l.a.d.M.Z.N.N.",
"6 w w T.!.jXbXGXGXGXFX`.y + X & z U U z * @ = y `.mXDXJXSXSXSXDXfXyXyX9.9.8.8.#.@.[ o. .X.:.:.F v l l a s s F.s D.p.l.a.M.B.N.N.",
"< 6 k T.!.bXGXGXGXGXxX|.t O X = z U B z & o % y `.pXHXJXSXSXSXgXfXiXyXyX9.9.8.8.#.@.o.o.o.X.:.F B V m M R.(.K.J.J.p.l.f.s.M.B.B.",
"< 7 e T.!.bXGXIXIXIXnX`.y O X = z U B l & @ % y `.nXAXJXSXSXSXDXfXiXuXyX9.9.9.8.8.#.#.@.[ +.>.$.%.&.Y *X[. X|.Q.K.F.p.u.s.d.M.M.",
"< 4 a E.4XvXCXGXIXGXxX`.y = O : n B '.x - % = y `.nXAXAXSXSXDXZXfXiXyXyXyX0.8.8.8.8.#.#.+.+.6.-.,X1XwXwXdX7X7X|.T.F.p.u.f.d.M.M.",
"< 4 a M |.xXGXGXGXGXxX|.d u 1 u m Y Y m u - t n [.xXZXSXZXZXZXgXiXiXuXyX;.5.;.5.8.#.8.#.+.4.4.7.2XrXsXgXaXpX7X|.R.F.t.t.f.d.M.M.",
"2 2 e R.|.bXvXGXVXVXxX*X(.n z x B _.%.U m z n U 6XCXZXSXZXgXgXgXfXiXtXeXE J H J E #.' #.+.+.7.7.rXsXgXsXpX;X'.R.J.F.p.t.f.M.l.M.",
"2 2 a T.|.7XvXvXvXvXvX7X*X[.'.$X$X$X%X$X_._.[.7XCXZXAXZXgXdXaXfXfXuXaXQ H h , h H ' #.#.+.#.7.7.rXfXsXwX].U M s s q t.r.a.d.d.M.",
"< 2 a T.!.|.4XxXbX5X7X7X7X7X5X5X=X=X=X&X*X-X6XdXdXBXCXaXwX-XwXwXtXtX;XQ , , > h j ' ' #.;.;.;.tXtXsXwX;XL n y t e q i.u.f.a.d.d.",
"7 7 8 J.Q.|.|.|.|.'.'.*X7X*X6X5X-X=X=X-X-X5X6X7X6X6X6X;X$XQ Q ;.;X=.W G , $ $ , G J ' ;.;.;.=.;XwXwX;X].L u t 3 8 9 9 q.u.f.f.f.",
"7 7 e s T.R.W.W.b M M R.m (._.*X=X-X1X=X]._.'.U '.(.U L m c x c I G G h , , , , G K E ;.E &.=.Q =.].L L i t * 3 7 7 0 t.u.u.u.u.",
"0 0 q x.G.G.G.s 4 1 1 * t u z U *X-X5X$XU n u u u u : u & & $ $ : > , , , G c G K K ) E R E W W L L g f t t 3 3 7 7 0 q.q.q.q.q.",
"t.0 i.i.w s 8 8 < + O O X & > x $X-X=X$Xn > & % % % % # # # @ @ . # : > h G K K ! K R ) W P P L g i y f p 8 8 3 7 9 0 i.w i.q.z.",
"q.u.i.i.i.0 7 2 < o o o   % * c Y =X=XY x * % @ o @ @ @ @ @ @ @ . X $ > h J E E ) ) ! ! P ).U.U.g f f p p 3 8 q 7 6 0 w z.c.z.c.",
"g.g.q.u.i.0 7 7 2 1 1 1 * * u x _.=X=X_.x u - & & & * & & $ - $ & & > h G J E E ) ! ! ! ^ XX.XU.g g f f p p q q 7 6 7 w Y.Y.Y.Y.",
"h.g.g.e.i.i.0 e T.b n n b z m U $X;X=X$XU x x z i z z z c l v z z c c V H J E E E ! / / XX.X).U.g I.I.K.p D.8 7 6 6 w w Y.~.~./.",
"w.w.h.g.u.i.x.G.T.R.W.W.W.'._._.*X=X=X*X$X_.Y U Y Y Y Y Y T I Y T I T H H J K K ) ! / / oXXXXXXX.XU.I.I.K.p 8 8 2 w k Y.E.!././.",
"s.n.w.h.g.g.z.G.~.W.|.4X*X5X7X5X-X9X6X6X-X6X6X-X=X-X;X&X-.%X$X%.%.%.%.&.T J Q R ! ! / ( .X.XXXXX).).U.I.d p p 2 e a Y.E./././.bX",
"s.h.h.h.g.h.z.c.T.R.W.4X7X7XqXCXpXdXdXdXpXdXpXdXaXdXdX1X1X,X&X:X6.6.-.-.&.&.Q E R ! / ~ ~ .X.XXXXX}.U.I.d y 4 a s b E.!././.bX/.",
"V.V.V.w.s.u.i.x.G.b R.|.7XCXCXAXBXVXZXBXZXZXZXZXZXgXdXdX1X,X&X-.-.>.>.-.-.=.=.W P / / ~ ~ .XXXXX).).(.I.i y t b M W.4X4X4X8X8X8X",
"V.V.V.V.g.g.u.p.q F.R.|.cXnXIXIXJXJXHXDXDXDXAXDXZXZXgXsXwX,X&X-.>.>.-.-.-.-.=.E W P ! / / ~ ~ XXXX).L d i u u M W.*X8X9X8X%X8X%X",
"V.V.V.h.h.a.t.D.F.J.R.|.cXGXIXLXLXJXJXJXHXDXDXZXDXZXdXaXwX1X1X,X3.$.-.>.-.-.;.Q R R ! ! ^ / ^ ^ P ).W L i c n B $X=X9X9X>X%XS %X",
"h.h.h.s.j.a.p.H.J.Q.}. XmXIXPXLXLXLXKXHXUXDXMXNXNXNXpXaXaXaXwX1X6.3.>.>.$.$.;.&.E R P ! ^ ^ ^ ^ ).W W U I I I Y &X9X9X<X%XB B v ",
"j.d.s.f.f.l.H.L.{.jXkXFXIXIXPXLXLXLXKXHXMXhX+X+XpX+XpXpXpXaXaXwX3X6.>.>.*.+.*.&.K R R P P ! P W Q Q =.$XQ $X$X&X<X<X<X%.B l j l ",
"j.j.d.a.a.l.L.P.jXcXFXGXPXPXPXLXPXKXHXMXpX+X XOXXX].OXeXpXgXgXaX1X4.>.} +._ ' ' J J K K P R R W Q ;X=.;X=X1X1X1X<X<X%XB v l - - ",
"k.k.a.a.r.l.L.P.kXFXIXPXLXPXPXPXKXHXMXNX+XOX).).).).OXeXhXgXgXuX1X6.4.$.+._ _ ' ` J K K K E E Q =.=.&X;X2X0X0X9X<X=X1.N v - - ; ",
"a.l.l.l.y.y.K.Q.kXFXPXLXLXPXPXKXHXMXzX+X+X).).).P XXXXOXOXeXeXeX0.6.4.>.O._ _ _ ' ' J J E Q &.&.;.-.6.3X3X2X9X0X9X%XS N l - ; ; ",
"y.M.y.y.y.y.D.{.FXFXKXLXLXPXKXHXMX@X+XOXXXXXXX~ ^ XX/ OX^ eXeX=.=.-.4.4.} _ } _ _ ' ' ' &.&.&.*.$.>.3.6.3X:X2X9X9X8X%XE.b 4 - ; ",
"y.y.y.y.y.D.P.I.kXFXKXKXPXPXHXMXzX+X+XXXXX.X.X.X~ ~ / ^ / / ) E ;.;.*.*._ } } +.} _ $.*.*.*.$._ _ >.>.>.2.>X>X>X>X8X^.E.b 4 < < ",
"y.y.y.D.y.D.P.lXzXUXUXKXKXKXHXUXNX+X#XoXXX.X.X.X.X~ ~ / ) / ) ) &.&.*.*.$.} } } >.} } _ } } } } X.} ,.:.,.1.D ^.%X^.W.E.k e 7 < ",
"y.y.D.D.D.P.P.I.lXUXUXUXKXHXHXUXNX+X#X#XoX.X.X.XoX~ ( ~ / ) ! ) Q ' *._ _ $.} } } X.} { } X.X. . .| ,.,.,.D ^.S ^.E.E.b e e e 6 ",
"y.y.D.D.P.P.lXlX}.zXzXUXUXHXHXHXNXNX@X#X#XoXoX( ( ( ( ~ / ! ! K K ` ` $.$.{ { :.{ { { {  .| Z C Z Z Z Z D D D ^.N b k k e w 6 6 ",
"y.D.D.P.P.P.lXlX}.}.zXmXUXHXKXHXHXNXNX@X#XoXoX( ( ( ( ~ / / / ! K J T ` :.$.{ { { | Z Z Z Z C C C C C Z D D S N N k e e w w 5 6 ",
"y.y.D.P.P.lXlX}.}.}.+XzXUXUXKXKXHXDXNXhX#XoXoX.X( ( ( ( ~ / / P Q H ` ` ` { :.{ Z Z Z Z C C C C C C C Z D D C N l k r < 6 7 6 w ",
"y.y.D.P.{.lXkX}.}.}.}.zXmXHXKXKXHXHXHXhX@XoXoX( ( ( ( ~ / / / P K H T ` ` $.{ A A Z Z C C C C C C C Z Z C D S N l r r r 6 6 0 0 "
};
