/* XPM */
static char *result[] = {
/* columns rows colors chars-per-pixel */
"64 64 256 2 ",
"   c #1D3B19",
".  c #263925",
"X  c #2E3B32",
"o  c #1F3921",
"O  c #1E431A",
"+  c #224319",
"@  c #294627",
"#  c #365A2B",
"$  c #385535",
"%  c #2F4A32",
"&  c #386838",
"*  c #465839",
"=  c #4F6D2E",
"-  c #586C2D",
";  c #433F78",
":  c #1E594C",
">  c #365758",
",  c #2D5451",
"<  c #326654",
"1  c #1D5677",
"2  c #285769",
"3  c #365867",
"4  c #2B4D78",
"5  c #344979",
"6  c #285679",
"7  c #345370",
"8  c #2A6579",
"9  c #366776",
"0  c #366E69",
"q  c #1F627A",
"w  c #4E5E57",
"e  c #4A6546",
"r  c #547446",
"t  c #546657",
"y  c #4D7153",
"u  c #4D457B",
"i  c #4A787A",
"p  c #50706C",
"a  c #66646D",
"s  c #6C8B36",
"d  c #6B9931",
"f  c #568D53",
"g  c #668A4A",
"h  c #678B58",
"j  c #67945A",
"k  c #75944D",
"l  c #73AC52",
"z  c #518B72",
"x  c #698967",
"c  c #699665",
"v  c #769969",
"b  c #709075",
"n  c #75AD70",
"m  c #5CA75E",
"M  c #77FA4B",
"N  c #7CF654",
"B  c #7FEF58",
"V  c #76D26B",
"C  c #76D163",
"Z  c #37807D",
"A  c #889A50",
"S  c #BA9D5E",
"D  c #99B659",
"F  c #93AD53",
"G  c #B3A65D",
"H  c #A8B45B",
"J  c #A8AA5B",
"K  c #B99D65",
"L  c #82A974",
"P  c #86B678",
"I  c #93B26D",
"U  c #ABAB65",
"Y  c #B8A765",
"T  c #A8B964",
"R  c #B6B767",
"E  c #B5B279",
"W  c #839579",
"Q  c #CB965D",
"!  c #C49966",
"~  c #DB8778",
"^  c #CE9570",
"/  c #C3A96D",
"(  c #E08A6F",
")  c #90CE51",
"_  c #ABD35C",
"`  c #8BED5C",
"'  c #88ED58",
"]  c #96EB58",
"[  c #83F155",
"{  c #83F25B",
"}  c #8CF059",
"|  c #96F256",
" . c #99F24F",
".. c #A7E859",
"X. c #A7F457",
"o. c #B7F65E",
"O. c #9CC867",
"+. c #98D965",
"@. c #8ECF73",
"#. c #A5C869",
"$. c #B4C76A",
"%. c #A8D769",
"&. c #A8CB76",
"*. c #B8C975",
"=. c #A8D976",
"-. c #B6D471",
";. c #89EB65",
":. c #95E866",
">. c #88F266",
",. c #97F269",
"<. c #8BE976",
"1. c #98E876",
"2. c #95F478",
"3. c #8AF273",
"4. c #A7E867",
"5. c #A6E678",
"6. c #A6F57A",
"7. c #B4F16C",
"8. c #C1CB73",
"9. c #C7FC69",
"0. c #D7FB77",
"q. c #CBF376",
"w. c #E1FE7B",
"e. c #1C5789",
"r. c #1D5397",
"t. c #1F4F82",
"y. c #294C89",
"u. c #354987",
"i. c #23538B",
"p. c #2B528B",
"a. c #285685",
"s. c #365787",
"d. c #254D93",
"f. c #2B4D94",
"g. c #244D9D",
"h. c #2A4C9C",
"j. c #334B94",
"k. c #235293",
"l. c #2B5393",
"z. c #24519C",
"x. c #2B519B",
"c. c #335694",
"v. c #396688",
"b. c #316A8A",
"n. c #1C51A4",
"m. c #1B4FA4",
"M. c #254EA4",
"N. c #294DA3",
"B. c #244EAA",
"V. c #294CAB",
"C. c #2351A3",
"Z. c #2551AA",
"A. c #2950A5",
"S. c #3656A1",
"D. c #6D5687",
"F. c #456888",
"G. c #456897",
"H. c #4F7590",
"J. c #72638C",
"K. c #4F6FA7",
"L. c #4D5D95",
"P. c #93759B",
"I. c #3D8585",
"U. c #528D8D",
"Y. c #749486",
"T. c #6A9094",
"R. c #6EAE8E",
"E. c #5C86A6",
"W. c #6F91AB",
"Q. c #79ABAC",
"!. c #58A78E",
"~. c #77CE90",
"^. c #7492C0",
"/. c #8D9E91",
"(. c #AD929D",
"). c #96BB88",
"_. c #96A594",
"`. c #97B798",
"'. c #8BAD8A",
"]. c #B8A887",
"[. c #B1B88F",
"{. c #8F8CA8",
"}. c #B090AF",
"|. c #97A5A4",
" X c #8BB2AE",
".X c #ADB5A9",
"XX c #D38E8B",
"oX c #CEA88B",
"OX c #D4AFB0",
"+X c #DEAFAA",
"@X c #98C687",
"#X c #9AD488",
"$X c #90CC91",
"%X c #A5D889",
"&X c #A5C795",
"*X c #A8D69A",
"=X c #B3CF8E",
"-X c #98E987",
";X c #99F488",
":X c #98E89A",
">X c #8BEA8A",
",X c #A6E889",
"<X c #B8FA99",
"1X c #AFF08F",
"2X c #96C9B1",
"3X c #ABD5A6",
"4X c #B4D7A6",
"5X c #AFCFB2",
"6X c #BAE5A7",
"7X c #B4EFAE",
"8X c #9AE5A5",
"9X c #CAD996",
"0X c #CECC8E",
"qX c #D9FB87",
"wX c #D7F999",
"eX c #CAEF92",
"rX c #E4FC87",
"tX c #E9FC97",
"yX c #C5DDAF",
"uX c #EBD3B2",
"iX c #D4F5A6",
"pX c #C6EAB7",
"aX c #C9F5B6",
"sX c #D7F5B8",
"dX c #CCF0AA",
"fX c #E7FBA6",
"gX c #EBF6B6",
"hX c #90B0C5",
"jX c #B2B9CB",
"kX c #E0BEC5",
"lX c #9DC5CF",
"zX c #B1D1CF",
"xX c #B8E9CB",
"cX c #BADEE3",
"vX c #C9D4C3",
"bX c #C4D5D6",
"nX c #D1CCCE",
"mX c #EBD0D3",
"MX c #D8F6C7",
"NX c #D6F3D4",
"BX c #C9EECC",
"VX c #E6FBC9",
"CX c #E9F7D8",
"ZX c #F7FED9",
"AX c #F5F2CC",
"SX c #CDDCE4",
"DX c #D3EFEB",
"FX c #F8E7EA",
"GX c #E6F9E7",
"HX c #FAFDE6",
"JX c #FCFCF5",
"KX c #FDF4FC",
"LX c #FDFDFC",
"PX c #F5F8F6",
"IX c #EFEEF1",
"UX c #EBDEE6",
/* pixels */
"C.C.n.C.n.M.M.M.B.Z.V.B.B.B.m.m.m.m.m.r.r.4 > , X * - A [.0X9X[.b t > , > 2 4 4 y.p.z.z.M.M.M.M.B.B.V.Z.B.B.B.Z.B.B.n.B.Z.C.z.g.",
"Z.C.C.C.C.z.n.M.V.V.B.B.B.B.m.m.m.m.r.r.y.a.7 > e * a A *.9X9X=XW a > 3 7 7 4 4 i.p.k.g.g.g.N.M.M.M.V.Z.Z.B.B.Z.B.B.B.n.A.M.z.C.",
"C.n.C.C.C.C.n.M.B.B.B.B.C.Z.n.n.m.m.r.r.y.4 3 > e r A K 0X9X9X=X'.b p w 3 3 4 4 y.y.i.d.d.d.g.g.h.M.M.M.V.Z.B.B.B.B.B.m.M.M.M.M.",
"Z.C.C.C.n.M.M.M.B.B.B.m.Z.C.C.n.r.r.r.e.6 6 3 w a h W U 9X9XiX=X`.'.b p w 3 2 4 4 y.y.y.y.d.d.d.d.g.M.M.M.V.V.B.B.m.B.B.M.B.M.A.",
"Z.C.A.C.C.C.m.M.Z.n.n.n.n.r.r.r.e.e.e.q 1 2 w z v I =X9XeXiXiXdX4X2X'.Y.i 0 3 2 7 4 4 y.5 a.u.u.y.d.h.g.N.V.V.V.B.M.M.B.B.B.M.B.",
"Z.Z.Z.C.C.z.z.M.C.n.n.r.r.r.r.b.e.e.e.q 2 0 0 z P %X1XeXiXwXiXiXaX7X2X'.b p > 3 3 7 9 u 5 5 s.u.c.j.S.V.h.N.S.V.V.V.V.M.B.B.B.B.",
"Z.A.A.C.C.g.M.m.n.z.m.r.e.e.b.e.e.b.Z 0 0 0 z m @X*X<XeXeXeXwXwXdXaX*X$XR.x p p p p p a H.i L.H.G.L.K.K.S.N.N.N.M.N.V.V.B.B.B.B.",
"A.Z.A.A.g.M.z.z.n.r.r.r.e.e.b.b.I.I.I.Z Z m m V @.;X<X<X<X<X1X<X<X<X7X%XP n v v b Y.a /.Y./.T.T.W.W.E.K.K.S.j.N.h.h.M.M.B.B.B.B.",
"M.N.N.N.g.M.g.C.z.z.e.e.e.e.q I.I.!.!.!.~.m V ~.<.2.6.6.6.6.6.1X1X1X,X,X%X@.@XI &X[.).[.[..X.X2XjXhXhXW.K.G.j.j.h.h.h.V.V.M.B.B.",
"g.N.N.g.M.x.C.z.z.k.e.e.q q 8 Z !.!.~.~.~.V V V ;.3.3.,.,.,.,.,.2.1.1.6.5.6.1X9X1X9XeX9XyXyXpXvXSXzXjXhXK.G.j.y.j.h.h.V.h.V.B.m.",
"h.N.g.N.h.A.x.z.k.r.i.e.q 8 Z !.~.~.~.>X~.~.3.B ;.{ { ;.} ` ;.` ` :.,.4.6.<X7.<XeXwXwXtXfXfXuXMXbXzXlX XW.L.s.y.y.j.h.h.M.M.V.B.",
"h.g.N.g.N.x.z.k.k.i.a.b.I.I.I.!.~.~.>X>XB B B 3.B B B ' [ [ ' { } ` | ,.7.6.7.qX0.qXtXtXtXfXfXiXyX5X X{.H.G.u.y.u.d.h.h.h.V.M.B.",
"N.N.h.N.A.z.z.k.i.e.b.b.U.!.!.~.~.>X>XV 3.>.>.N ;.B B B B B { [ [ '  .} ] X.7.o.9.0.w.rXtXtXqX9X[.L Y.a u 3 5 u.u.f.h.h.h.M.V.B.",
"N.h.N.N.x.x.l.p.a.e.b.U.!.Q.Q.2X:X>X<.<.>.>.>.>.>.B B >.B { B [ [ [ [ [ ] | X.o.o.0.0.w.w.rXeX*.L h y p > 5 7 5 u.j.j.h.V.V.V.B.",
"V.N.N.h.x.x.l.l.b.v.I.E.hX~.8X8X:X>X2.2.3.3.,.2.2.,.3.>.;.>.B ' [ [ [  .|  . .X.o.9.9.0.q.8._ H k r * , , 7 7 5 y.u.f.h.N.V.V.B.",
"V.N.N.h.z.x.c.v.v.U.!.Q.lXlXxXxX8X-X-X2.2.2.6.1X;X,X6.2.:.<.;.B ' [ [ } [  . ...o.o.o.o.$._ H d - = # % , , 3 4 u.f.j.h.N.M.B.V.",
"N.N.M.g.d.d.c.v.H.W.Q.2XzXxXxXxX7X;X-X;X1X1X<X<X<X<X<X1X2.1.<.` { ' ' ' [ } ]  ... . .) ) d d d = # # # , , > 5 5 p.f.f.N.V.V.Z.",
"N.N.M.g.d.d.S.H.W. XlXzXcXxXxX7X7X:X,X-X1X<X7X7XaXaX<X<X,X,X1.+.;.{ { ' } } } |  . .) ) d d = = = # & * e > 7 7 s.u.l.h.h.N.N.N.",
"V.M.M.g.z.l.v.E. XhXzXzXxXzX4X3X:X*X#X-X,X*X6X7XaXMXsXaX<X,X,X5.;.;.{ { } [ } ] ] ) ) ) d d d = = r r y p p i 9 s.s.c.f.h.N.M.N.",
"V.N.M.g.r.l.b.W. XlXzXzX2X`.`.).$X#X#X$XP P ).*XyXMXMXMXdXdX1X,X,.>.` ' ' } ` ] ` ] ) ) C d g k l v v n Y.T.T.E.H.c.c.f.h.g.g.M.",
"M.M.g.r.e.l.H.W.hXzXbX.X/.b h x n $X@.n j h x '.5XvXVXVXsXaXdX<X6.,.` ` ` ` ` } ` :.+.;.@.@.@.@.@X@X$X2X2X XhXW.K.v.c.p.f.h.g.N.",
"z.C.g.d.i.p.b.W.lXzXzX.Xa e , r v P P v r & r a .XvXCXZXVXMXaX<X,X,.;.` ' ] } ` ` ` +.<.<.-X-X*X7X5XxXxXxXzXlX^.E.G.p.d.d.h.h.z.",
"z.z.z.r.e.b.H.W.lXSXzX|.t $ . * c n n j & + % t _.nXCXZXZXVXsXiX1X:.:.] ' ' ] ' ' ;.;.2.;X<X7X7X7XxXBXBXbXzXlXhXE.G.c.d.d.h.g.h.",
"l.l.i.r.t.a.G.Q.zXbXbX|.t X . # h L n j # + @ t /.vXCXHXHXCXVXaX1X1.:.] ' ] ] ' ' ` 3.2.;X<X7XaXMXNXNXxXxXlXhXW.K.G.l.d.h.h.g.N.",
"a.i.e.t.t.a.H.W.zXcXcX|.a X o % h n n h # O @ w /.vXCXHXHXCXVXdX7.5.:.] ] ] ] ] } ` ;.3.1.;X:X7XxXBXBXzX XQ.W.H.G.c.l.h.h.h.N.N.",
"q t.a.1 1 b.H.W.zXcXbX|.w X o % h n n j & O @ y _.vXGXHXZXCXVXaX1X7.%.....] ] ]  .} | 3.3.-X;X7X7XxXxX2X XT.F.v.c.x.l.h.g.N.A.A.",
"2 1 6 6 b.b.E.Q.zXSXbX|.t X   * h L L j # O @ t /.vXCXHXZXCXVXsXeX7.=.4....... . .} } >.;.<.>X:X7X8X2X`.H.i 7 4 s.p.f.h.h.A.V.V.",
"1 1 8 b.b.I.W.lXcXSXnX|.w X . @ h L n h # O % t _.yXCXHXHXZXVXgXeXq.q.7.o.o... . . .} { ;.<.<.$X$X$XR.T.i w 2 4 a.y.l.g.N.A.V.V.",
"2 2 8 b.U.W.hXlXSXDXvX|.w X . * h L L g # + @ t _.vXCXHXZXZXAXgXwXqXq.q.q.o.o.o. . .| [ ;.;.V C V m z p 3 3 3 4 4 p.d.g.N.N.V.V.",
"2 : 9 v.W.Q.lXcXDXDXbX{.a X . @ h I L j & @ @ y _.vXCXHXZXZXZXAXiXwXqX0.q.9.o.o.X. . .[ { ;.C C m f f < < 3 7 7 s.p.f.h.N.V.V.V.",
": : 8 U.Q.lXlXDXDXDXcX|.w X . * h L L h # O @ y _.yXCXHXZXZXZXgXfXqXqXqX0.0.9.o.X.X.| | >.;.C C m f f 0 p p i F.s.p.f.d.M.V.V.V.",
": q Z !.Q.lXcXDXPXDXbX|.w X   % h L L g # O @ w /.vXFXHXHXZXZXAXfXtXrXrXw.0.9.9.o.o.| | ` ` C C C m c b Y.Y.T.H.G.s.f.d.N.V.V.V.",
": : p U.Q.lXDXDXIXGXnX_.w .   % h L L h #   @ t _.vXCXHXZXZXZXAXfXfXtXrXw.w.w.q.9.o.X.X.,.>.] +.+.O.&.@X&X.X XW.H.F.p.d.g.M.B.V.",
"& < 0 R.2XxXDXGXGXCXzX/.y @ @ # c L P j * @ * r _.vXCXHXZXAXAXgXgXtXtXtXrXq.q.9.9.9.7.,.,.| :.:.5.5.=X6XyX5X.X XH.G.p.y.d.M.B.B.",
": : 0 z ~.zXDXDXGXDXyX_.x e & y c P P v = = e a .XvXCXCXZXAXVXgXfXtXtXrXq._ R o.7.7.o.7.X.] ] 7.7.wXwXiXdXyX5X|.T.F.c.d.M.B.B.B.",
"& : 0 !.Q.xXxXDXNXBXxX.Xn x f c n @.@.L c h k /.4XMXCXVXgXgXgXfXtXtXrXq.R H J H %.4.7.......4.7.eXiXiXdXyX5X XT.H.L.p.d.M.B.B.B.",
": < 0 z ~.lXxXxXBXxX5X5X&X`.'.).$X@X@X@X).).).4XvXMXVXVXsXiXiXfXtXrXq.$.A s - A D _ ..o.....4.7.eXwXdX6X&X'.Y.i i s.p.d.M.m.B.B.",
": : Z z Q.Q.2XzXzX3X5X3X3X3X8X*X*X*X*X*X=X4X4XpXMXMXsXpXdX=X=X9XeXqX8.H s - - - d _ _ ...._ 7.q.<XeX9X=XL x p 3 7 a.p.z.M.M.B.B.",
": < 0 Z T.Q.Q.2X X'.`.$X&X2X3X3X3X*X*X*X*X4X5X9X4XyX4X&XE P I #.&.$.H A - - # - d F _ _ _ _ =.1X1X=X=X).x y w > 7 a.p.h.B.Z.B.B.",
"2 8 9 9 U.T.R.T.b b b b b '.`.&X3X*X4X*X[.).'.'./.P W W v j j k l A A d - - - - A H _ -._ -.-.-.&.@XP v y y > 2 4 a.k.g.Z.Z.B.B.",
"6 8 6 v.H.H.i p w , $ , * r x n &X3X4X&Xv h r t r e e * = & # # = = - - r s A A F J H _ -.*.*.I I v v y y > > 2 4 4 y.z.M.Z.Z.V.",
"1 a.a.b.b.9 9 < : . o o . $ e x ).4X4X).b e # @ + + @ + O O O O   + # = k A F J J H R R E *.[.I W x y y < > 2 7 4 y.y.h.A.M.Z.V.",
"i.i.p.p.p.6 2 , , . o     @ * h ).3X*X).h & + + O O + + O + O O   + # - k D H $.R H G R E ].].U v r y < > 3 2 6 6 y.y.d.h.N.A.M.",
"z.k.k.i.e.4 4 2 > , , , $ $ r c ).3X&X).j r # # # # # # # # # # # # = g A D $.R R G G / E E ]._.W b p p 0 2 2 4 4 y.l.f.g.g.N.N.",
"C.z.g.r.i.i.6 9 i z b b x c v L $X&X*X@XL j h f f h g j f g g g g g j l D T T R G G Y / / ].]._._./.Y.z p 9 6 6 4 y.p.f.h.h.M.N.",
"C.r.g.g.d.p.v.H.T.T./.'.'.'.`.@X&X*X*X#X@X).P P ).P P P P P P I P I I I I T T J G G Y ! ^ / ].].]._./.T.i 9 7 6 a.p.l.j.h.h.C.x.",
"M.M.g.r.z.l.c.H.T.Q. X2X2X3X3X3X3X4X3X3X3X*X3X*X*X*X%X%X%X%X%X@X+.&.&.#.O.T U U G S ! K K K ].].[..X`.Q.z 9 2 2 4 p.d.x.x.h.h.g.",
"M.M.C.C.z.A.b.v.U.W.'..XzX6XvXBXBX7XvX7X6XpXBX7XpXpX6X6X6X%X*X,X=.5.=.+.O.D D U G G Q ! ^ ].XX].OX4X`.Y.z 0 2 2 4 a.l.x.x.A.g.C.",
"N.M.M.N.h.f.l.v.F.U.Y. X5XvXNXNXNXNXNXNXNXBXNXMXMXMXaX7X6X*X%X%X=.4.=.&.T D F J S S S ^ ! ^ XX].[..X`.L z < : 2 1 6 l.x.M.z.z.C.",
"g.N.N.N.N.h.c.s.u i U.|.zXbXGXGXGXGXGXGXGXCXGXCXGXNXMXsX6X6X*X%X,X5.%.O.O.D J J S S ! ! ^ ^ ].oX[.=X`.L m y < 2 1 a.y.k.z.h.z.z.",
"h.h.N.h.h.j.j.L.F.H.Y.|.vXDXPXLXPXPXPXJXPXPXGXGXHXGXCXMXpXyX6X=X=.=.=.O.O.D H J J S ! ^ / XX].].oX=X@XP c z 0 0 2 a.a.k.r.g.r.r.",
"j.h.h.h.S.j.j.L.H.W.{.jXbXDXPXLXLXLXLXLXPXLXJXJXHXGXZXMXsXpXdX4X1X=.=.#.#.D H H J S K K K E E [.=X[.@X@.n n z Z 9 8 a.i.i.k.r.k.",
"j.h.j.j.j.j.L.K.{.hXlXSXUXIXKXLXLXLXLXLXJXJXJXJXJXHXZXZXVXgXiXdX9X-.=X-.&.$.H H G G Y K K K E E E %X&.#X$X$XR.!.U.9 6 6 t.i.i.e.",
"j.j.j.j.u.j.K.K.hXbXSXIXPXPXLXLXLXLXLXLXLXJXJXJXHXHXZXZXAXVXsXuX9X9X*.&.-.$.$.R G U U K K U U E &.&.%X,X:X:X8XR.U.0 8 6 6 1 e.6 ",
"u.u.u.j.; j.D.^.jXSXIXPXLXLXPXLXLXLXLXLXJXJXHXFXZXFXAXAXgXgXuXfX9X9X=X*.*.*.$.$.R R U U U T T O.#.=.5.-X1X8X8X~.!.z 0 0 8 1 2 2 ",
"; u.; ; ; u.J.{.jXUXPXLXLXLXLXPXJXJXJXJXJXJXHXFXFXuXuXuXuXuXuX0X0X/ 8.8.*.8.8.*.$.T R T T T #.O.+.1.1.-X;X7X:X:X~.!.z Z 0 0 : 2 ",
"u u u u u u a {.jXUXKXLXLXLXLXLXLXPXPXLXJXJXFXFXuXuXuX+X+X+X0XoX/ E / 8.8.8.8.-.*.$.#.#.#.#.+.+.:.:.,.2.;X;X>X>X$X$XR.z z < : & ",
"u u u u u u J.{.jXUXIXKXLXLXLXLXKXPXPXPXJXFXFXmXkX+XXXXXoXoXoX^ / / R / / 8.8.8.-.%.%.%.+.+.+.+.` >.>.>.>.3.;X;X:X8X$XR.m < & : ",
"D.u a u u D.P.P.jXSXFXKXKXLXLXLXKXPXKXKXPXFXmXkX+XXXXXXX( XXXX^ ! / S R / 8.-._ %.%.%.%.:.:.:.` ' ' { { N >.3.;X:X7X:X~.m f & & ",
"D.P.D.D.D.P.P.P.}.mXmXUXIXPXKXKXKXKXFXFXUXmXmX+X+XXXXXXXXX( ~ ~ ! Q ! / R 8.$.$.%.%.:.+.:.;.;.{ { N N N N N 3.2.;X;X>X>XC m d m ",
"P.P.P.P.P.P.P.(..XOXnXnXUXFXKXKXKXKXFXUXmXkXOXOXXXXX~ ~ ~ ~ ~ ^ Q Q ! ! S R R _ _ +.] ` ` { N M N M N M N N N 3.2.;X<.>XV C l m ",
"P.P.}.}.}.P.}.(.(.}.OXnXUXFXKXKXKXKXFXmXkXOXXXXXXXXX~ ~ ~ ( ~ ( Q Q Q ! S R H #.+.+.` ` { N N M M M M M N N N 3.3.<.<.@.V @.@.@.",
"}.}.}.}.}.}.}.(.(.(.OXOXmXFXKXKXKXFXUXmXkX}.XXXXXX~ ~ ~ ( ( ( ( Q Q ! S K U J O.O.+.} [ [ M M M M M M M N N B B >.;.<.:.1.1.:.@.",
"}.}.kX}.OX}.(.(.(.(.(.jXmXFXKXKXFXFXUXmXkXXXXXXXXX~ ~ ~ ( ( ( ( Q Q Q S K U U D O.+.` [ [ M M M M M M M N N N >.>.;.<.1.1.1.1.5."
};
