/* XPM */
static char *result[] = {
/* columns rows colors chars-per-pixel */
"32 32 252 2 ",
"   c #1F3A1A",
".  c #22391A",
"X  c #2D3E32",
"o  c #1D411A",
"O  c #244418",
"+  c #1B4F28",
"@  c #364736",
"#  c #2F4B30",
"$  c #475B26",
"%  c #4D6E3E",
"&  c #516C29",
"*  c #566729",
"=  c #1B5C4F",
"-  c #334E57",
";  c #265558",
":  c #36585A",
">  c #2B4B46",
",  c #397D40",
"<  c #1D5764",
"1  c #1E5676",
"2  c #1E4F77",
"3  c #2B4D6C",
"4  c #245566",
"5  c #35546C",
"6  c #2A4E79",
"7  c #26597C",
"8  c #355373",
"9  c #367C63",
"0  c #296774",
"q  c #347775",
"w  c #396C73",
"e  c #506F4C",
"r  c #667D48",
"t  c #637A5B",
"y  c #66685B",
"u  c #51546E",
"i  c #4F746F",
"p  c #627666",
"a  c #6E7575",
"s  c #475556",
"d  c #847F62",
"f  c #3B8234",
"g  c #629F38",
"h  c #669334",
"j  c #318553",
"k  c #599254",
"l  c #6E864D",
"z  c #4D8C71",
"x  c #799E6B",
"c  c #7CA46C",
"v  c #79A669",
"b  c #7AA472",
"n  c #78BB76",
"m  c #58A267",
"M  c #77FB4C",
"N  c #7FEF5E",
"B  c #7CF457",
"V  c #72CE6E",
"C  c #7EE25C",
"Z  c #9BB85A",
"A  c #93A657",
"S  c #ACB15D",
"D  c #8E9770",
"F  c #B1966E",
"G  c #8BA466",
"H  c #88B57A",
"J  c #88A86C",
"K  c #B6AC66",
"L  c #BAA675",
"P  c #AFBA71",
"I  c #C7976A",
"U  c #D98B78",
"Y  c #C99576",
"T  c #D18F77",
"R  c #E2837C",
"E  c #C4A670",
"W  c #9BD854",
"Q  c #8EDD5E",
"!  c #A8D15B",
"~  c #8CF24A",
"^  c #89EC56",
"/  c #97E75A",
"(  c #8AF154",
")  c #86F257",
"_  c #97F356",
"`  c #97F14A",
"'  c #A4ED59",
"]  c #ACFB59",
"[  c #96DF62",
"{  c #9DD26F",
"}  c #A4D665",
"|  c #A7D977",
" . c #B0CA6B",
".. c #89EB68",
"X. c #9AE568",
"o. c #85F265",
"O. c #98F369",
"+. c #89ED75",
"@. c #94E87A",
"#. c #96F576",
"$. c #89F17A",
"%. c #A6E865",
"&. c #B8F563",
"*. c #A7EA76",
"=. c #B4F06E",
"-. c #C2C069",
";. c #C5FB68",
":. c #D0F873",
">. c #E3FF7D",
",. c #1E5686",
"<. c #1E4F99",
"1. c #1D5498",
"2. c #1E4F87",
"3. c #2A4D8B",
"4. c #2C4C85",
"5. c #3A4589",
"6. c #22538C",
"7. c #275586",
"8. c #2C4B94",
"9. c #254D9D",
"0. c #294E9B",
"q. c #254B95",
"w. c #394B93",
"e. c #225193",
"r. c #23529B",
"t. c #2B519A",
"y. c #365A96",
"u. c #34558A",
"i. c #366C84",
"p. c #357788",
"a. c #31678B",
"s. c #1C52A8",
"d. c #1F4FA1",
"f. c #254DA4",
"g. c #2A4CA5",
"h. c #234DAB",
"j. c #294DAB",
"k. c #2A47A5",
"l. c #2351A4",
"z. c #2551AB",
"x. c #2851AB",
"c. c #2A4EB0",
"v. c #525698",
"b. c #40578B",
"n. c #556E89",
"m. c #536C99",
"M. c #4E738F",
"N. c #67758F",
"B. c #4F6EA3",
"V. c #5173A5",
"C. c #6F75AC",
"Z. c #82779B",
"A. c #5B8598",
"S. c #5C9789",
"D. c #6C9A97",
"F. c #5BA494",
"G. c #77A58A",
"H. c #6C98A9",
"J. c #72A9AB",
"K. c #78C792",
"L. c #6CC693",
"P. c #7DC8A1",
"I. c #8C928B",
"U. c #BA9287",
"Y. c #AB8496",
"T. c #87B795",
"R. c #86A88D",
"E. c #A2BA8E",
"W. c #9294AF",
"Q. c #93B4AC",
"!. c #B9BFB2",
"~. c #BAA7B7",
"^. c #AB95AA",
"/. c #D68B85",
"(. c #CC908A",
"). c #E28C86",
"_. c #C8A79B",
"`. c #CAB287",
"'. c #E1A195",
"]. c #C196A0",
"[. c #EABCB6",
"{. c #C5AFA4",
"}. c #8AD582",
"|. c #9FD389",
" X c #A5D88A",
".X c #A8CA99",
"XX c #A9D598",
"oX c #B8D696",
"OX c #B7CF86",
"+X c #9CE686",
"@X c #85E690",
"#X c #96E78E",
"$X c #A9E488",
"%X c #AAE79B",
"&X c #B8E296",
"*X c #B7FA9C",
"=X c #A9F292",
"-X c #93CCB3",
";X c #AFD3A8",
":X c #B9D9A8",
">X c #B5C3B7",
",X c #B8D5B9",
"<X c #A7D2B2",
"1X c #9BE4A6",
"2X c #B8F5A8",
"3X c #B4E4B4",
"4X c #C7D697",
"5X c #CDC39F",
"6X c #C3FE95",
"7X c #D4F191",
"8X c #E7FD89",
"9X c #EBFF96",
"0X c #C1DAA6",
"qX c #C2D6B7",
"wX c #D8C2BD",
"eX c #C6E3A7",
"rX c #D4EAA7",
"tX c #C4FFAC",
"yX c #D7FAA4",
"uX c #D5EBB2",
"iX c #F1FFA4",
"pX c #E6F3B1",
"aX c #E3D5A6",
"sX c #93AFCA",
"dX c #8EB8C8",
"fX c #9C9BC7",
"gX c #CFBFD0",
"hX c #92DEC0",
"jX c #B8C5C5",
"kX c #BCD8D6",
"lX c #ADD0CD",
"zX c #B6E4C8",
"xX c #BFEDED",
"cX c #F4D2CC",
"vX c #C9FAC6",
"bX c #D5FAC5",
"nX c #CAF3DA",
"mX c #EAFDC8",
"MX c #E9FCD7",
"NX c #F5FCD5",
"BX c #F0EAD3",
"VX c #C8D9E6",
"CX c #D2D8E5",
"ZX c #E5DBE3",
"AX c #D7FCE6",
"SX c #D2ECED",
"DX c #F6E7E7",
"FX c #F8FEE8",
"GX c #FDFDFE",
"HX c #F8F3F9",
"JX c #EFF2F0",
"KX c #CBDFC6",
/* pixels */
"h.l.f.j.c.c.k.f.d.<.4.- # l 4X4Xp > - 4.8.g.k.j.j.z.d.z.l.g.0.9.",
"h.z.f.h.j.k.g.9.1.1.2 : e G 4X4XR.i 5 6 3.8.8.9.9.f.f.l.f.l.l.r.",
"c.z.d.d.f.f.e.6.,.1 < z H &XyXyX3XT.i - 8 4.4.7.3.q.9.l.f.d.d.s.",
"c.z.f.d.9.2.,.a.a.z j m +X6X6X6XtXXXb k i z a N.V.V.y.t.f.l.s.s.",
"g.l.l.l.1.,.1 q F.L.V L.+.#.O.O.*.*.*. XoXoX5XjXkXsXB.3.q.9.l.s.",
"g.l.s.1.,.7.0 z K.@XN N o.) ) ) ( O.&.7X8XiXiXpXKXQ.m.4.3.9.l.z.",
"g.l.r.6.1 i.F.P.@X@Xo.o.N N B B ~ ^ _ &.:.8X9X7XD p 8 6 3.9.z.z.",
"l.l.r.6.i.A.hXzX#X@.#.#.#.+.o.N B ^ ^ ' &.:.:.A e @ - 8 3.t.h.c.",
"l.d.e.a.H.>XnXzX=X+X*XtXtX2X@...) ) ( ( / W g & $ # - 3 7.0.x.j.",
"s.1.6.V.dXkX>X<XXX X|.;XvXvX2X$X..) ( ( ^ Q g h l l a n.y.t.f.f.",
"s.1.2.V.lXjXp s H J % t qXMXbX2XO.^ ~ ) ^ Q @.+XXX,XkXsXB.8.f.g.",
"1.,.7.A.VXjXX   b v   @ >XFXMXbXO.^ ^ ~ ^ O.=X2XvXAXkXsXB.q.k.g.",
"1 ,.6 V.VXjXX X J c . @ >XFXMXbX%./ ` ~ ~ ) #.=XzXzXH.M.y.r.g.j.",
"1 0 a.H.SXjX@   J v . $ >XFXMXmX=.=.' ` ~ ) o.@X1XT.i 6 3.9.j.c.",
"< p.H.hXAXjX@   b c o > !.FXNXNX7X:.;.] ` ~ o.V m e : 8 4.8.l.h.",
"< p.dXxXJXjX@   b c o @ !.FXNXNX9X8X:.;.] ` o.C k k a n.b.8.f.j.",
"= S.lXAXAX>XX   b v o # >XFXNXNXiX8X8X;.;.] ' %.| oXqXQ.M.7.0.k.",
"= i -XAXAX>Xp e H n e t ,XMXmXpX9X8X .! &.&.' *.yXpX0XQ.M.4.8.g.",
"; i Q.zXzX,X;X.X X|..X:XmXmXrXrX9X4Xr * W ! ! $XyXrXG y 8 7.0.0.",
"4 i.D.Q.G.R..X;X:XXX;X.X.XE.J A P A $ $ A -. . .4XE.e @ 4 7.3.e.",
"6 7 M.: > o # e XXXXr # @ # O O O $ l A K K L F d y s : 3 7 ,.,.",
"1.6.7 4 > o   e XXXXe o o o o O   $ A E E I U.F y u u 8 4 0 p.p.",
"r.r.7.i.S.G.b H XX XH x v v v v v G Z S I T ).(.Z.Z.u 5 < 0 F.dX",
"<.1.6.a.D.-X<X3X:X:XeX:XeX&X$X X*.}  .S I T U '.].U.i : q F.P.hX",
"l.l.e.7.i D.lXMXMXMXNXBXmXyX$X| [ X.| P E T U /.(.D e e T.1X1X-X",
"r.l.q.u.n.W.CXGXGXFXDXBXBXuXeX&XX.X.|  .K I T Y (.D l x XX2X}.V ",
"t.0.8.m.sXVXHXGXGXDXwX{._.5XpXpX$XX./ ! S F F K P OXXXoX%X{ k f ",
"8.8.4.C.CXGXGXHXDXwX_.U.F _.aXaX*.X.W W ! S S P  .$X*X2X%XV j + ",
"5.5.5.C.CXHXGXDXwX_././.T Y `.E | } ' W Q } } } X.#.#X#X1XT.j ; ",
"5.5.5.Z.gXHXHXDX[.'.U /.).U I I ! } X./ / / / / ( o.o.K.K.F.q < ",
"5.v.C.fX{.gXZXDXcX[.'.).R R I I Z { / ^ ) ) ) M M M N V m q 0 4 ",
"5.v.fXfX^.~.ZXHXDXcX'.R ).R U I A Z Q o.B M M M M B B V j = < 7 "
};
