/* XPM */
static char *result[] = {
/* columns rows colors chars-per-pixel */
"32 32 247 2 ",
"   c #1D3B1F",
".  c #233823",
"X  c #363D3A",
"o  c #26341B",
"O  c #1E4519",
"+  c #24471A",
"@  c #30491F",
"#  c #254923",
"$  c #32542D",
"%  c #284634",
"&  c #324936",
"*  c #285637",
"=  c #385235",
"-  c #344D2D",
";  c #51701D",
":  c #4C6C2E",
">  c #667C33",
",  c #1E585C",
"<  c #294E4D",
"1  c #265647",
"2  c #2B5257",
"3  c #314F57",
"4  c #1E5469",
"5  c #17557A",
"6  c #294D6A",
"7  c #314E69",
"8  c #385767",
"9  c #264F7A",
"0  c #324A77",
"q  c #265477",
"w  c #2E5B72",
"e  c #3B7A6A",
"r  c #397678",
"t  c #326875",
"y  c #396359",
"u  c #4E7446",
"i  c #487654",
"p  c #577859",
"a  c #4A6C52",
"s  c #617A5A",
"d  c #464272",
"f  c #4D7B6B",
"g  c #587567",
"h  c #456A77",
"j  c #507D7A",
"k  c #627976",
"l  c #6D9E32",
"z  c #56842C",
"x  c #5B8459",
"c  c #5B974E",
"v  c #718753",
"b  c #60A056",
"n  c #549977",
"m  c #67826F",
"M  c #5CA06F",
"N  c #78A66B",
"B  c #7DA578",
"V  c #60A17F",
"C  c #75FB4C",
"Z  c #7AF756",
"A  c #77CD6E",
"S  c #95B456",
"D  c #AEAF57",
"F  c #839F70",
"G  c #BA9D68",
"H  c #85A579",
"J  c #93AF6E",
"K  c #B7A763",
"L  c #B8B865",
"P  c #AEB16F",
"I  c #C4995C",
"U  c #C79668",
"Y  c #D78C75",
"T  c #CB9174",
"R  c #E58776",
"E  c #C1A666",
"W  c #C3AF77",
"Q  c #98DB5B",
"!  c #8FCF4F",
"~  c #ABC95D",
"^  c #8CED5C",
"/  c #87ED58",
"(  c #96EB59",
")  c #83F25C",
"_  c #86F258",
"`  c #96F45B",
"'  c #8DEB4F",
"]  c #A7EF5E",
"[  c #9CD968",
"{  c #92D378",
"}  c #A4CA68",
"|  c #B9CB67",
" . c #BCC877",
".. c #A5D97A",
"X. c #B1D470",
"o. c #88ED64",
"O. c #96E869",
"+. c #88F166",
"@. c #9CF16E",
"#. c #95E97A",
"$. c #96F478",
"%. c #89F078",
"&. c #AAE865",
"*. c #A6ED75",
"=. c #B4F46C",
"-. c #C6CC6E",
";. c #C5FB78",
":. c #CCF66F",
">. c #E4FF7A",
",. c #1C558A",
"<. c #1E4F9A",
"1. c #1A559D",
"2. c #1F4A8F",
"3. c #294D88",
"4. c #344B8A",
"5. c #255285",
"6. c #27528C",
"7. c #34568C",
"8. c #264C93",
"9. c #2A4D95",
"0. c #254C9D",
"q. c #2B4C9C",
"w. c #245395",
"e. c #23529C",
"r. c #2B509B",
"t. c #2B5394",
"y. c #385C92",
"u. c #354C9A",
"i. c #3A6888",
"p. c #336A8F",
"a. c #1E4DA2",
"s. c #1C53A5",
"d. c #244CA5",
"f. c #2A4DA4",
"g. c #244EAB",
"h. c #2A4DAA",
"j. c #2A51A4",
"k. c #2251AC",
"l. c #2651A6",
"z. c #284EB1",
"x. c #2B50B2",
"c. c #3459A0",
"v. c #404A88",
"b. c #675481",
"n. c #55748A",
"m. c #4C6E9B",
"M. c #587B9D",
"N. c #516E91",
"B. c #6D7396",
"V. c #5171A6",
"C. c #A27EAD",
"Z. c #857A9A",
"A. c #5E9B9E",
"S. c #6F9496",
"D. c #7EA48A",
"F. c #79B28E",
"G. c #5F8EA0",
"H. c #6C98A7",
"J. c #749AAB",
"K. c #7DA0A2",
"L. c #56A98F",
"P. c #7AC4A1",
"I. c #6FC98F",
"U. c #809D87",
"Y. c #89A986",
"T. c #8CB487",
"R. c #8BB595",
"E. c #9BB692",
"W. c #ADAF89",
"Q. c #918DA7",
"!. c #B892BE",
"~. c #A790AC",
"^. c #95BAAF",
"/. c #9AB7B5",
"(. c #88B5AB",
"). c #B1ADB0",
"_. c #BE8993",
"`. c #D28C8B",
"'. c #D2AC8E",
"]. c #E0BEB5",
"[. c #CBA3AC",
"{. c #9CD996",
"}. c #98D285",
"|. c #B9D88C",
" X c #A5CC9B",
".X c #A8D598",
"XX c #B1CE8B",
"oX c #99E58B",
"OX c #90E593",
"+X c #A7FB99",
"@X c #ADED91",
"#X c #9FD6AE",
"$X c #AACCA6",
"%X c #B4C6AA",
"&X c #ACD8A2",
"*X c #B5D9A7",
"=X c #A6CFBC",
"-X c #B9C8B5",
";X c #BADAB5",
":X c #BBFDA7",
">X c #ACE6B2",
",X c #CAD494",
"<X c #D5FC88",
"1X c #D4FD97",
"2X c #CBF590",
"3X c #E8FD98",
"4X c #E7F796",
"5X c #C1D9B9",
"6X c #C4D6AC",
"7X c #C6E9A2",
"8X c #C3FFA6",
"9X c #CBF9B9",
"0X c #D8F9B8",
"qX c #D4EBB3",
"wX c #EDF6AF",
"eX c #E5DDAC",
"rX c #8EB2C5",
"tX c #95B5CE",
"yX c #ACB9C6",
"uX c #D2BCC5",
"iX c #98C7C5",
"pX c #AAC8C8",
"aX c #B6C5C9",
"sX c #B6D6CF",
"dX c #BEE8DA",
"fX c #BAE9CB",
"gX c #BED8E7",
"hX c #D1D6DD",
"jX c #C7CCD0",
"kX c #E8C1C6",
"lX c #C9F9C2",
"zX c #DBF8D6",
"xX c #D6F1C3",
"cX c #E7FBD6",
"vX c #F7FEDB",
"bX c #F0EFCE",
"nX c #C8D8EA",
"mX c #F1DAE4",
"MX c #D7FBE8",
"NX c #D0E8EE",
"BX c #F2E4E9",
"VX c #F8FEE8",
"CX c #FEFCF5",
"ZX c #FFF4FB",
"AX c #FEFDFC",
"SX c #F8F8F5",
"DX c #EAF4ED",
/* pixels */
"f.f.a.s.k.z.g.g.a.0.w.6.0 2 3 k ,X,Xv = w 6.a.s.1.s.k.x.h.f.q.0.",
"f.d.f.k.g.s.z.s.d.8.3.5.6 8 g Y.,X,XJ s y 5 <.1.1.s.k.z.h.f.f.e.",
"d.f.f.d.g.d.d.8.4.0 7 7 3 f R.>X1X0X,XT.e 5 ,.,.1.1.s.g.h.f.j.j.",
"g.j.f.0.q.c.V.V.M.k k s x N .X9X1X2X8X.XM e r r ,.,.1.e.0.f.j.f.",
"h.h.q.9.9.V.tXsX;X6XXX,XXX..oX*.@.@.$.$.A A I.L.r 5 ,.e.0.9.9.f.",
"z.h.q.9.0 N./.jXwX3X4X<X;.=.O.^ / / +.Z Z OXOXI.n t ,.6.w.r.q.q.",
"z.h.q.3.4.8 f F ,X>.>.:.] ` ' / Z Z o.+.Z +.%.OXP.A.i.5.8.r.q.u.",
"z.h.f.4.0 2 % > S :.:.=.] ' _ _ ^ o.#.oXoX$.oXOX#XiXG.p.y.q.h.h.",
"h.h.q.4.6 < * : ; l Q ] ` ' _ ^ O.oX:X8X8X+XoX>XdXdXiXJ.c.0.a.z.",
"d.d.u.y.n.m x z z l ! ( ^ ^ o.+.@X@XxX9X&X}.{.{.#X=XsXtXV.2.a.s.",
"h.0.3.m.rXpX>X.X{ Q O.o.^ ^ o.$.7X0XcX5Xs u T.T.i f pXsXM.8.a.k.",
"q.0.8.m.rXdXzXlX:X+X$.^ ' ( ( *.0XvXVX).- + B B O % -XgXM.5.,.e.",
"j.r.t.7.N.K.fX:X+XoXo.^ ` ( Q =.xXvXVX-X= # Y.B . X sXnXM.9 ,.5.",
"e.j.9.3.6 h R.#XoX%.+.' ] ] X.=.bXVXCX-X= # B H . 3 yXNXJ.t q 5 ",
"h.f.8.3.7 2 i b A ) _ ` =.:.;.2XbXVXVX-X= # H F . X aXNXiXA.r 4 ",
"z.d.8.y.n.k x b A Z ` ] :.<X1X3XvXvXCX-X& + H F o X aXDXdX=Xj , ",
"z.a.9.m./.*X|...O.` ` =.;.3X3XwXvXvXVX%X- + H U.. & ).DXMXiXn 1 ",
"k.d.6.N./.qXwX1X&.` ] ] ~ -.4XwXwXcXcX6Xv u Y.T.a s %XMXMX=Xf 1 ",
"k.l.6.w g F 7X1X=.&.Q S z > ,XwXqXqXcXcX*X X.X X$X%X;XfXsX#Xf 1 ",
"g.l.3.q < p E.|.X.| ~ S ; ; F W.H H E.$X X&X.X&X*XE.Y.D.K.S.t , ",
"d.f.8.9 4 y i v P  .| S S v : @ @ @ $ = $ x &X&Xp * % < t i.t 9 ",
"d.d.8.5.w 8 a m W.W.K L  .J : + + # + + O u  X&Xu # * < 2 9 6.t.",
"j.q.8.5.q t S.E.W.W U K P J J F N N B B N H .X XR.Y.U.G.i.5.t.j.",
"0.t.t.9 4 f (.%X_.U U K P J ...X.X&X>X5X;X;X;X;XfX-X/.J.i.t.d.j.",
"l.e.6.q , f T. X'.T U G D J .....X&XxXzXzXzXcXMXDXsXS.h 4.9.d.h.",
"l.w.q w e M T.XXP T U K D S } ..&XqXzXVXVXSXAXSXCXhXQ.N.7.q.f.h.",
"w.5.4 h F.OX..X.P G I D D ~ X.|.0XbXVXCXAXAXCXAXAXDXNXyXm.4.u.u.",
"4 t e L.OX+XoX[ } P D L | -.-.,XeXwXeXmXVXAXZXZXCXAXAXnXB.d 4.v.",
"* i F.OXoX%.$.^ Q [ } | -.-.K G '.'.'.].mXZXZXZXCXCXZXhXB.d d d ",
"u b oX+X$.+.) Z _ ^ [ X.-.W E I Y T T [.kXmXZXZXZXBXBXjXZ.b.b.b.",
"A A #.@.+._ C C Z ) ` ~ ~ D I U R R Y _.[.uXBXZXZXBXuX~.Q.C.C.C.",
"oXoX#.+.) Z C C Z Z ^ ! D D U T R R R `._.[.mXZXCXmX).~.!.!.!.!."
};
