/* XPM */
static char *result[] = {
/* columns rows colors chars-per-pixel */
"32 32 221 2 ",
"   c #98373E",
".  c #BD3B2C",
"X  c #B83624",
"o  c #AE3936",
"O  c #BC3E3D",
"+  c #B93936",
"@  c #C9341E",
"#  c #DA351C",
"$  c #DC3A1F",
"%  c #E4361E",
"&  c #E4391F",
"*  c #CC3621",
"=  c #CD3A25",
"-  c #CA342B",
";  c #C63A2B",
":  c #CD3B2D",
">  c #C5362E",
",  c #D33626",
"<  c #DC3522",
"1  c #D33B23",
"2  c #DD3A24",
"3  c #DB362B",
"4  c #D23A2D",
"5  c #DC3B2B",
"6  c #D1372D",
"7  c #CC3631",
"8  c #CB3B31",
"9  c #CE3E3B",
"0  c #D23B33",
"q  c #DC3933",
"w  c #D23D3A",
"e  c #D53531",
"r  c #E33624",
"t  c #E93625",
"y  c #E43A24",
"u  c #EA3A24",
"i  c #E5362A",
"p  c #EB3629",
"a  c #E53C29",
"s  c #EA3A2A",
"d  c #EA3931",
"f  c #BD443D",
"g  c #B54237",
"h  c #D9422D",
"j  c #C24334",
"k  c #CD443C",
"l  c #C74537",
"z  c #D24339",
"x  c #D5473A",
"c  c #D0513E",
"v  c #EC412B",
"b  c #E14135",
"n  c #B43F45",
"m  c #994044",
"M  c #B34E46",
"N  c #AC584E",
"B  c #BA534E",
"V  c #A44F52",
"C  c #AD5757",
"Z  c #B75757",
"A  c #9E707B",
"S  c #A96363",
"D  c #AA6779",
"F  c #C14642",
"G  c #C74C47",
"H  c #C14C4B",
"J  c #CB4848",
"K  c #D44F4A",
"L  c #CE534D",
"P  c #C25A4F",
"I  c #C4534B",
"U  c #D0514B",
"Y  c #CC5359",
"T  c #C95E5B",
"R  c #C65653",
"E  c #D55D58",
"W  c #CA675D",
"Q  c #D0705A",
"!  c #D9645B",
"~  c #FA655F",
"^  c #CF6D6D",
"/  c #C4676A",
"(  c #D36A64",
")  c #D76868",
"_  c #C87777",
"`  c #D47573",
"'  c #D97674",
"]  c #DC7A7C",
"[  c #D8777A",
"{  c #D8736B",
"}  c #F06761",
"|  c #E17A67",
" . c #CF807C",
".. c #D37A82",
"X. c #DC7B82",
"o. c #D68286",
"O. c #DD8586",
"+. c #D98C8D",
"@. c #D5868C",
"#. c #DB938E",
"$. c #D88C95",
"%. c #CF9798",
"&. c #D7999C",
"*. c #E38383",
"=. c #E1838C",
"-. c #E78A89",
";. c #F18A81",
":. c #E49C9B",
">. c #E89597",
",. c #EBA599",
"<. c #FBA59F",
"1. c #DB99A2",
"2. c #E89BA7",
"3. c #F09BA0",
"4. c #D8A3A9",
"5. c #DEA9B3",
"6. c #E5A7A8",
"7. c #F9A5A4",
"8. c #EDABB3",
"9. c #E9A6B5",
"0. c #F4ABB6",
"q. c #E3B3BB",
"w. c #F0B2B3",
"e. c #DBAECD",
"r. c #D0B0C7",
"t. c #EBBBC6",
"y. c #EABAC5",
"u. c #F3BBC3",
"i. c #FFBAC1",
"p. c #FFBFCC",
"a. c #F5B2C5",
"s. c #EABBDF",
"d. c #EAAEEA",
"f. c #EBB4E5",
"g. c #E5BDE3",
"h. c #ECBCE5",
"j. c #ECB5EC",
"k. c #E4BDEC",
"l. c #ECBBEC",
"z. c #E7B4EC",
"x. c #F1B6ED",
"c. c #F3BDED",
"v. c #EDB4F3",
"b. c #EDBCF3",
"n. c #EFB3F9",
"m. c #EDBEF9",
"M. c #E6B8F2",
"N. c #F2B5F4",
"B. c #F2BBF3",
"V. c #F8BCF5",
"C. c #F4B5F9",
"Z. c #F3BBFA",
"A. c #F8BAFC",
"S. c #CFC1DA",
"D. c #D4C1DD",
"F. c #E4C0CE",
"G. c #F6C4C5",
"H. c #FEC3CB",
"J. c #FDCCCD",
"K. c #FAC8CB",
"L. c #E9C7DC",
"P. c #F4C6D7",
"I. c #FDC4D1",
"U. c #FFCCD3",
"Y. c #FECCDC",
"T. c #F9C8D9",
"R. c #FED3DA",
"E. c #FEDADB",
"W. c #FFD1D2",
"Q. c #FFE0DE",
"!. c #DFC4EA",
"~. c #D8C6E4",
"^. c #E4C3E4",
"/. c #EAC4E5",
"(. c #E2CCE7",
"). c #EBCBE4",
"_. c #E4C3EB",
"`. c #ECC4ED",
"'. c #E7CAED",
"]. c #EDCCEC",
"[. c #F6C4E4",
"{. c #F4CBE6",
"}. c #FCCCE4",
"|. c #F2C4EA",
" X c #F3CBED",
".X c #FCCDEA",
"XX c #EDDBE6",
"oX c #E3D4ED",
"OX c #EDD3EC",
"+X c #EED7E7",
"@X c #FFD6E3",
"#X c #FEDAE4",
"$X c #F4D3EC",
"%X c #FBD3EA",
"&X c #F4DAEA",
"*X c #FCDDEB",
"=X c #F7D5E5",
"-X c #ECC2F3",
";X c #EDCAF2",
":X c #EEC4FA",
">X c #E9C9FB",
",X c #F2C3F5",
"<X c #F3CCF4",
"1X c #F3C3FB",
"2X c #FAC6FD",
"3X c #F5C9FC",
"4X c #FBCFF0",
"5X c #EAD3F3",
"6X c #F6D4F4",
"7X c #FDD6F3",
"8X c #FCDBF2",
"9X c #FFD6FB",
"0X c #FCDCFC",
"qX c #F5DCF5",
"wX c #FFE2ED",
"eX c #F4E8E8",
"rX c #F8F2EC",
"tX c #FEE4F3",
"yX c #FDEAF2",
"uX c #FFE8FB",
"iX c #F7E7F7",
/* pixels */
":X:XN.d.b.<X0XuXiXeXeXiX)./.k.3X2Xj.g.].8XeXeXrXrXeX5X_.l.b.2X-X",
">XM.c.,X|..X%X#X@XR.R.R.%X%Xg._._.^.[.}.T.R.E.Q.Q.wX%X].k.`.3X,X",
">X_.-X|.}.a.$...[ [ X.@.a.@X$XoXoXqXT.2...` ` `  .&.K.*X6X_.,X<X",
"_.;X7X{.T.3.T F 9 9 9 Y =.I.*XXXXX#Xp.X.G k z j f ^ 0.@X0X X].3X",
"<X6X@Xq.+.( j = 5 3 e w R O.8.H.G.4.] U z 5 2 5 - J ^ $.t.%X X X",
"6X8X#X%.N g ; 1 y a r q > l ( 7.<.T + = h a v a 3 7 + C 1.#X=X].",
"$XtXQ.#.g X = h 2 y < i 3 0 x ~ ~ w 6 b v $ $ u a 3 7 I >.@X%XXX",
"%XY.K. .f ; @ @ 2 2 y y 5 a a r 3 5 s a & & y y p d q K -.H.E.XX",
"R.8.X.E z , < 2 a a y 2 y h & # % t t t u s y s i p 5 k ( +.y.*X",
"U.$.n w x < a a p i a a a 2 $ $ & u u t t t a y y a 5 ; g V 4.wX",
"J.o.o e v y u p p p i s a y 2 2 & u u r t s y y y v $ h o m 4.*X",
"J.o.O e u v u & p p p s s i u s & & u u a y u & u u 2 x B C 9.*X",
"U.@.o 8 a u v & t p s a a t s p u v y y 2 r y & % r 5 k ) 2.P.wX",
"=X1.Z x 5 y a y r s u < < y s p & & y y y 2 y u % < - G >.R.#XXX",
"%Xy.>.} h 2 a 2 r y s % 2 < y p u t u r r y 2 y r < > B :.#XwX+X",
"XX*XU. .c * y a r y u y $ $ y p % t t p a y 2 v 5 6 M Z 6.E.&XL.",
"OXiXtX%.B 8 < u y y % u % % y p y y t r a y % i 3 L _ 4.L.).5X<X",
"oXuXwX4./ j = < y s u y y y s y r r r r y a u a 0 E 7.@XwX).].`.",
"oXiX=Xt.6.{ k q s s u y y y p y u r r 2 2 y s 3 8 W 8.yX*Xg.,Xl.",
"5X].).=XE.:.I e d p a & u t p s p i a < 2 5 3 8 M ` u.uX$Xg.<Xb.",
";X_./.7XtX6.N + q i i y & t p p i r a 2 h 5 ; L *.8.T..X`.l.2X,X",
">X-Xl.9X8Xq._ B w 3 2 y & u u p i r a 2 h f I -.i.Y.T.s.c.c.m.-X",
":XB.l.,X7XP.0.*.J - , r y u y y y s 5 = g Q >.u.Y..X[.f.f.b.1X:X",
":XB.B.V.l.}.Y.0.] G : = # & & y s 2 @ j P >.J.=Xh.l.c.x.x.b.1X:X",
"1XZ.N.N.j. X.XI.8.O.I . 4 $ v y $ # g Q #.u..X<Xl.N.B.B.j.b.2X-X",
"3XZ.C.N.z.-X`.{..Xp.+.R k , 5 a @ l Q ,.W.@Xc.d.Z.v.v.N.l.B.1X-X",
"2XC.C.N.z.b.k.`.9X7Xy.>.( 9 0 : c  .,.J.#X Xx.v.n.n.v.b.b.b.,X-X",
"3XZ.C.C.M.m.M.v.-X<X{.p.X.Y 9 + Q <.K.E.L.l.N.C.n.n.B.B.b.b.1X:X",
":XZ.m.n.n.Z.N.v.b.-X].}.a.2./   S G.eX#X^.j.N.A.Z.A.B.N.j.v.:Xb.",
":X:Xb.m.m.v.B.N.z.k._./.[.T.9.D A F.*X8Xh.j.N.N.Z.Z.B.N.x.N.m.b.",
"1X1Xb.m.z.f.l.k.-X!.!.(.6X7X%Xe.r.(.'.<XB.V.V.l.b.1XV.C.C.Z.Z.Z.",
"1X1X:Xb.k.f.`.'.!.(.~.D.S.D.'.0X0X5X!._.l.x.x.B.l.B.B.C.C.Z.A.A."
};
