/* XPM */
static char *result[] = {
/* columns rows colors chars-per-pixel */
"64 64 254 2 ",
"   c #523C6D",
".  c #6B356F",
"X  c #2A5954",
"o  c #326D56",
"O  c #1B586A",
"+  c #1A5979",
"@  c #275C6A",
"#  c #255779",
"$  c #34567A",
"%  c #334B74",
"&  c #1B6669",
"*  c #1D6276",
"=  c #24686A",
"-  c #276879",
";  c #297772",
":  c #317370",
">  c #1C5A59",
",  c #494678",
"<  c #51456F",
"1  c #6E4E74",
"2  c #4C7371",
"3  c #72665C",
"4  c #8B5379",
"5  c #8B736B",
"6  c #957868",
"7  c #3A8977",
"8  c #39916F",
"9  c #4B8F72",
"0  c #6A9177",
"q  c #52B078",
"w  c #6FB06D",
"e  c #4F905C",
"r  c #7CF64C",
"t  c #76FB4C",
"y  c #7AF94D",
"u  c #7BF747",
"i  c #7CF553",
"p  c #76FA52",
"a  c #7AFA53",
"s  c #7BF55C",
"d  c #79F85A",
"f  c #5EC27B",
"g  c #6DD57B",
"h  c #7BF567",
"j  c #7BE97A",
"k  c #7DF275",
"l  c #7FEE6C",
"z  c #9AEB3C",
"x  c #A8EA3C",
"c  c #939476",
"v  c #95AF72",
"b  c #B1B276",
"n  c #9F9D62",
"m  c #CC9669",
"M  c #D58978",
"N  c #CF9074",
"B  c #CBAA6B",
"V  c #C4B55F",
"C  c #ADD55C",
"Z  c #89EE4B",
"A  c #96EC4B",
"S  c #83F44B",
"D  c #88F448",
"F  c #93F54B",
"G  c #96F44A",
"H  c #8AED57",
"J  c #97E957",
"K  c #82F252",
"L  c #87F155",
"P  c #9AF554",
"I  c #A7F54D",
"U  c #A6E758",
"Y  c #A6F753",
"T  c #B8F95A",
"R  c #B5EB4E",
"E  c #93D276",
"W  c #A5D877",
"Q  c #AED06C",
"!  c #88EC66",
"~  c #98E967",
"^  c #81F367",
"/  c #87EB77",
"(  c #97E776",
")  c #8CF36E",
"_  c #A3EC67",
"`  c #A8EA76",
"'  c #B0EF6F",
"]  c #9ED15E",
"[  c #C7F959",
"{  c #D7FB5D",
"}  c #C6E958",
"|  c #CBCF69",
" . c #C9FA64",
".. c #D3FD6A",
"X. c #D8FD67",
"o. c #D8FA73",
"O. c #CDED70",
"+. c #E3FE65",
"@. c #E7FF68",
"#. c #E1EE77",
"$. c #C2DA5F",
"%. c #3C3EBD",
"&. c #3D3FAD",
"*. c #3A3D88",
"=. c #553A99",
"-. c #543B8B",
";. c #732B8F",
":. c #493DA9",
">. c #5636A9",
",. c #4939B9",
"<. c #5536B7",
"1. c #542CB7",
"2. c #6E31B0",
"3. c #7D1FBC",
"4. c #1C5583",
"5. c #1E558B",
"6. c #1D5985",
"7. c #1E5497",
"8. c #1E4F9D",
"9. c #284D88",
"0. c #3A498B",
"q. c #22548C",
"w. c #245784",
"e. c #284D9A",
"r. c #354996",
"t. c #225394",
"y. c #24529C",
"u. c #2A5791",
"i. c #395D88",
"p. c #366D87",
"a. c #1F4FA5",
"s. c #1E52A5",
"d. c #1E51AB",
"f. c #1E51B2",
"g. c #244EA5",
"h. c #2A4CA4",
"j. c #254DAA",
"k. c #2A4CAB",
"l. c #2F47AA",
"z. c #2451A4",
"x. c #2351A9",
"c. c #2850A9",
"v. c #284CB6",
"b. c #3742B9",
"n. c #3047AB",
"m. c #464986",
"M. c #524E90",
"N. c #775B86",
"B. c #6D4D90",
"V. c #526C8E",
"C. c #6F688E",
"Z. c #4A46A7",
"A. c #5A49AC",
"S. c #6647B6",
"D. c #7250B0",
"F. c #7667B4",
"G. c #3A3EC3",
"H. c #7A1EC9",
"J. c #751ED8",
"K. c #6F1FDD",
"L. c #5A2EC5",
"P. c #4838C4",
"I. c #5232C6",
"U. c #5A2DD5",
"Y. c #6627D8",
"T. c #6E25C7",
"R. c #731EEA",
"E. c #721EEB",
"W. c #6C22E5",
"Q. c #7121EA",
"!. c #7E5DC7",
"~. c #3042C0",
"^. c #8829B1",
"/. c #8B3198",
"(. c #8B4F8F",
"). c #8A7596",
"_. c #936E94",
"`. c #AF6F8E",
"'. c #9051B4",
"]. c #926EB4",
"[. c #B174B0",
"{. c #AB58A1",
"}. c #C67A97",
"|. c #D077B0",
" X c #8C32C6",
".X c #B255CE",
"XX c #9470C9",
"oX c #AD74CA",
"OX c #9852CF",
"+X c #CE77CF",
"@X c #C877E3",
"#X c #468986",
"$X c #56968E",
"%X c #69948B",
"&X c #57AD87",
"*X c #6AB28D",
"=X c #74A3A9",
"-X c #72CF8C",
";X c #7BE787",
":X c #7AC7A6",
">X c #3F8881",
",X c #8F8787",
"<X c #B19094",
"1X c #B2AC88",
"2X c #8D88AB",
"3X c #AF8CAB",
"4X c #8FAFB0",
"5X c #A7B1A2",
"6X c #D8868B",
"7X c #C99587",
"8X c #C98996",
"9X c #D88598",
"0X c #C98F90",
"qX c #E78389",
"wX c #E48496",
"eX c #D985A6",
"rX c #CF8BAF",
"tX c #E182A7",
"yX c #CEB0B1",
"uX c #DAB39E",
"iX c #8CD393",
"pX c #ADCB85",
"aX c #88E688",
"sX c #8FE88B",
"dX c #B5EF8B",
"fX c #92CFAE",
"gX c #AED8B3",
"hX c #B4E8AC",
"jX c #8AE2A2",
"kX c #CED899",
"lX c #CBF491",
"zX c #D3D1B4",
"xX c #CBF8A7",
"cX c #D8F7A9",
"vX c #D8F8B7",
"bX c #D0EDB8",
"nX c #E7E9B7",
"mX c #AD91D1",
"MX c #B7B5CD",
"NX c #AD96DD",
"BX c #CE84CC",
"VX c #CAB3CE",
"CX c #C7B2EA",
"ZX c #D59DD8",
"AX c #ABD5C4",
"SX c #D3CCCD",
"DX c #E9D6D6",
"FX c #D2ECC8",
"GX c #E7F9C7",
"HX c #ECF0D4",
"JX c #DCD3EE",
"KX c #E9D9EE",
"LX c #FCF7F8",
"PX c #F4EEEF",
/* pixels */
"g.g.g.g.l.g.g.l.j.k.k.k.v.j.j.l.g.c.c.c.c.g.j.a.d.d.g.g.h.h.h.r.9.0.% % # $ # # 9.q.t.8.g.g.g.g.g.g.z.z.g.g.k.x.x.x.d.f.f.f.v.f.",
"g.h.h.g.g.g.g.j.j.l.k.k.j.j.g.a.g.z.c.z.g.g.s.x.d.s.s.z.h.h.r.e.9.$ $ $ 9.$ $ 9.u.u.t.e.e.g.g.g.g.g.g.z.g.j.g.x.x.d.d.d.f.f.f.v.",
"h.j.k.j.j.g.a.a.l.k.k.k.d.&.j.j.x.c.g.x.g.j.s.d.s.x.z.z.y.e.e.9.9.# $ $ i.V.p.i.u.u.e.y.e.h.g.g.z.z.z.g.g.j.j.g.d.d.d.d.f.f.v.f.",
"k.j.l.j.j.j.j.&.j.v.k.j.d.j.j.j.j.x.j.j.g.g.d.z.x.s.z.7.t.e.t.9.% % $ V.V.%X$XV.p.i.u.t.8.g.g.g.z.z.z.z.g.g.g.g.j.s.d.d.f.f.f.v.",
"l.j.j.j.j.j.j.j.k.k.l.j.j.j.j.v.j.j.j.j.g.g.a.s.s.s.7.7.u.w.9.% % @ : V.=X4X=X=XV.p.z.q.t.y.e.z.c.z.z.c.z.g.j.h.j.a.d.a.j.a.j.j.",
"k.k.l.j.j.j.j.a.k.j.v.v.j.j.d.f.j.j.j.x.g.a.a.s.7.7.7.6.6.w.# @ X $ 2 %X4X4XAX=X$Xp.w.q.9.y.y.e.y.h.z.h.g.h.j.j.g.a.g.d.a.j.j.j.",
"k.k.k.j.l.a.&.a.x.k.j.j.v.j.j.j.d.j.j.g.a.a.8.7.7.7.6.6.+ @ @ $ 2 2 0 ,XAXAXAX4X$XV.# # q.q.t.e.y.y.c.z.g.g.g.g.a.g.a.g.a.g.j.j.",
"k.v.k.v.a.g.a.a.k.f.j.j.f.a.f.v.j.j.j.g.g.y.7.7.6.6.6.& O @ = o 2 0 *XfXAXFXAXfX%X2 @ O # 9.q.t.u.y.y.h.e.h.h.g.g.d.g.g.g.h.j.j.",
"k.k.j.j.a.g.a.g.x.x.x.x.d.d.j.x.x.x.g.z.y.y.t.q.4.+ & > > X o e w v pXgXbXbXhXiX0 o = X O # w.q.q.t.8.e.g.g.g.h.g.j.x.z.g.g.k.c.",
"j.j.j.g.g.a.g.a.g.g.j.a.j.a.d.d.x.z.z.z.e.t.q.w.+ & & > X o o e v E dXxXvXcXhXiXw 2 o > @ # # w.q.q.t.e.e.e.h.g.g.j.c.x.j.h.k.h.",
"k.j.j.g.g.8.8.z.z.g.a.a.a.a.a.z.x.y.y.y.t.q.w.w.- - ; o o o e w E dXlXcXcXlXdXpXw e o : : - p.p.w.w.q.q.t.y.g.g.j.c.c.c.c.k.h.n.",
"k.h.g.g.g.g.z.z.z.s.g.a.a.a.a.s.z.y.y.t.q.w.w.- p.9 9 e e e e w Q ' lXlXcXlXdXW v w e e 9 >X>Xp.p.6.4.5.q.t.8.e.c.z.c.c.c.h.k.k.",
"j.g.k.g.z.z.g.z.g.s.g.s.g.g.s.8.y.t.7.w.6.# - p.#X$X*X*Xw f E E C C O.o.lXlXdX` E w w w &X%X$X#X; - + 6.4.5.t.e.y.c.z.c.c.n.k.n.",
"k.k.k.z.z.z.z.g.g.z.g.s.s.s.8.7.7.7.6.w.# p.; 7 &X*X-X-X-XE E E C C } O.o...o.dXW ~ E -X-X:X:X$X#X; = + + 6.5.q.y.y.z.c.c.h.h.k.",
"c.c.c.c.g.g.z.g.g.g.s.z.s.z.7.7.5.6.w.# - ; 7 $X*X:XiXaXsX( ( ` T $.} } ..o.o.O.' ( E aXjXiX:X*X#X7 ; = # + 4.5.t.y.z.g.c.k.k.n.",
"c.c.h.z.z.g.g.g.g.g.z.z.y.7.7.5.6.+ * ; ; #X&X&X-X-XaXsX( ( ( _ R } } { X.X...' ' ` ( aXsXjX-X-X&X&X8 ; = = + + 6.7.y.y.c.h.h.h.",
"c.g.g.g.g.g.g.g.z.c.h.z.u.y.5.6.+ & & 7 8 &X&X-X-XaXaX/ / ~ ~ _ } } { X.X.X...O.' _ ( / aXaXjX-X-X*Xq 8 8 & & O 4.4.7.s.z.z.c.h.",
"g.g.g.g.g.g.z.h.z.z.z.y.y.5.6.* & & 8 8 8 -X-X;X;X;X/ ^ ! ! P _ } { X.+.@.X... .' _ ~ ) / / aX;X;X-X-Xq 8 8 & & + 4.6.7.7.z.y.h.",
"y.g.8.8.z.c.z.c.z.z.z.y.5.6.6.* & & 8 8 f -X-X;X/ l l ! H H P Y [ { +.@.@.+... .T _ ~ ! / k j ;X;X;X-Xf 8 8 8 ; * 6.6.7.y.e.h.h.",
"g.8.a.g.z.z.z.z.z.y.y.t.6.6.- ; 7 8 8 f f ;X;X;Xj l s i L F G Y [ { @.@.@.+...T T P ! ) ^ ^ k j ;X;Xj f f 8 8 7 * 6.6.6.t.y.z.e.",
"s.s.s.x.z.x.x.z.s.7.7.7.6.6.& ; 8 &Xf f k j k h h s s i S D F I [ +.+.@.@.+.X.[ Y Y H H s l h h h k g g g f q 8 7 * + 5.7.t.y.e.",
"s.s.s.s.x.x.x.z.s.7.7.5.+ * & 8 &Xf ;X;Xj k k h s d i r D F G I [ { +.@.+.+.{ [ U P H K s s h h h h k j g ;X&X&X7 - + 4.5.t.y.y.",
"s.s.s.s.s.s.z.s.s.7.7.4.+ * 8 8 &X-X;X;Xk g d d s i r u D D G I [ { +.+.+.+.{ [ Y P L S p s d d h h h k k ;X-Xq >X; * + 5.q.t.t.",
"s.s.s.s.s.z.s.z.s.7.5.4.+ & & 8 f -X;X;Xk k h d i i r S D D F I [ { { +.+.{ { [ Y G D r p p p p d d h h ;X;X;Xq 8 ; O + 4.q.q.t.",
"d.d.z.d.z.z.z.z.y.7.6.+ O & ; 8 q g ;X;Xk h d d p a K S D D G Y [ [ { { +.+.{ R I G D t t t t t a d h ^ ) ;Xg q 8 ; & + + 6.q.q.",
"x.z.z.z.g.z.y.y.t.q.4.+ & & 8 8 f g ;X;Xh h h d a a a S S D G Y [ [ { { +.{ [ [ I F z t t t t t a a d h k k g w 8 ; & + + 4.w.w.",
"c.c.h.h.e.y.e.t.q.9.# # = = 8 e f g ;Xk h h d d a a a S S F F I x [ { { { { [ [ Y F z u u t t t a a a ^ h k g f q 8 ; - - + w.w.",
"r.r.e.e.r.e.9.9.9.# - - ; 8 q q f g k k h d d d a a a S S D D G I [ [ [ { { [ T G F t u t t t t t p a h ^ k g g q 9 >X; 6.- # # ",
"r.r.r.r.9.9.9.$ # # $ : #X&X*X-Xg h j ^ ^ s a a p t t u S D D F I R R [ { { [ T Y F S u t t t t t p a s h / j -X:X&X$X#Xp.- - @ ",
"r.r.r.0.0.0.9.% % $ 2 9 %X*X-X;X;Xk ^ h L a a p t t t u u S S D x x x R [ [ [ T P F S u t t t t t y a a h ^ j aX-X:X:X$X#X; @ O ",
"m.0.0.m.m.M.m.V.$ 2 V.$X*XiXiXaX;Xk h s d a a a t t y u S u S z z x R R [  .[ T Y F S u u t t t y y y i h h ;XjXjX:X:X=X#X- @ O ",
"-., m.M.V.V.V.V.2 2 0 %X*XiXiXsXk k h s s a y y t t y u u z z u z x R R [ [  .T Y F S y t t t y y r i i K h ) sXjXjX:X*X9 : @ > ",
"    1 1 C.C.).%X0 ,X%Xv E iXE sX/ / ^ K i a t t t t y y u S u z z z x [ [ [ [ I P F S y y t a S y S i K L ! / aXsXiXiX*X9 o X X ",
". . 1 1 _._.<X<X<Xc v v v pXW ( ( ! H s i y t t t t y y u u S z z x x R [ [ [ T Y L S y y y y i S S S S L ! ( ( sXjXiX*X9 o X X ",
"1 4 4 _.`.<X3X<X<X1X1Xv pXW ( ( ~ ! ! K i y t t t t y y y D D D z x x R [ [ [ T Y F S u y y r r S D D H P ) ( sXdXjXiX*Xe 2 X X ",
"4 4 4 _.`.3X<XyX<X1X1Xb pXpXpX` ~ ~ H L K y y y p p t y y S D F I R R [ [ { [ T Y F S u y y r S S L L P _ ) dXdXhXgXfX,X0 o o X ",
"4 }.`.}.`.rX0X<X1XN 1Xb pXpXW W ~ ~ H H K S i a p p p p S S D F I T [ [ .. . .T P F S u y y S S K H P ~ ' dXdXxXFXhXgX4X0 2 X X ",
"}.}.}.}.}.8X8X0X7X<X1X1Xb b W Q ] ~ J J K S K a p p p p y S D F T [  ...X... .T Y Z D y S K K L H J P ' dXdXxXvXFXFXgX4X%X2 X   ",
"tXwX}.}.wX6X}.0X6X<X7Xb m b V n ] J J J Z Z r r i p p p y S F G T  ......... .T Y F D r r K L L J _ ' dXlXxXvXFXFXAXMX4XC.2 < % ",
"wXwXqX}.}.9X6X0X6X8XM <Xn n n x ] ] ] J Z Z Z r i i p r y S F P T  ...o..... .T Y F Z S S K ! P _ ` dXxXxXvXGXFXSXAX4X2XC.M., , ",
"qXqXqXwXwXwXwXwX9X8X8X`.6 n n n n ] C J A Z S K i i i i Z S D P T  .o...o.X. .T Y F D r Z H ~ ( dXdXxXvXGXHXHXSXMX2X).F.M.M.-.-.",
"qXqXqXqXqXwXwXtXwX|.}.6 5 4 3 3 n ] C U U A A L K i K K r Z F P T  ...o..... .T Y F Z Z H ! ~ ` dXlXcXFXHXDXSXVXmX].D.A.A.>.>.:.",
"qXqXqXqXqXwXwXtX|.eX}.`.4 3 3 6 n Q Q ' Y Y J H H H H Z Z Z A Y T  .....X... .T I A Z Z H ~ ~ dXdXkXzXzXSXDXVXmX].D.2.>.<.1.<.<.",
"qXqXqXqXwXtXtXtX|.|.|.`.4 4 3 3 b Q lXO.' ' _ _ ~ H H H Z J A U R } O.o.o.o... .T J A J J ~ W pXpX5XyX5XyXMXmXXX!.S.2.>.1.2.L.L.",
"qXqX9X9XwXtXeXtX|.+X|.{.(.4 1 6 1XkXcXlXlXlX' ' ~ ~ H J J J J R C } } #.o.#.X. .T U U J _ W W v v c ,X,X_.[.].'.D.2.2.L.T.Y.U.Y.",
"6X}.9XeXeXeXtXBX|.+X|.'.(.N.4 ).<XzXnXcXcXlXdXdX` W ( ~ ] U U C C $.$.O.o.#.#.#.T C C C _ Q b b c 3 3 (.N.(.D.^.T.T.T.Y.Y.Y.Y.Y.",
"`.}.8X}.rXrXBXBX+XoX[.{.(.B.(.).3XgXzXFXvXxXxXlXdXdXdXQ ` ' C $.$.| | | #.#.#.#.$.C C Q Q Q 1Xc 5 3 1 1 ;.;.;.2.2.T.T.Y.K.Y.Y.W.",
"`.6 `.`.[.[.rXBXoX[.OX'.D.;.B.N.2X3XyXzXbXGXvXvXxXxXlXdXlXlXlX| | | V | | | | | | Q V Q | 1Xb c 3 1 . . . ;.3.2.T.J.J.K.W.W.W.Q.",
"4 (._._.3X3XoXoXXX'.'.D.;.B.=.B.N.).2X5XSXFXGXGXGXGXxXvXnXcXcX#.| | V V B | | V V V b b B 1X0X6 4 . . . ;.3.3.3.3.H.K.R.K.E.E.E.",
". 1 N.(.].oXoXoX'.'.2.2.>.2.=.B.B.B.).5XSXDXPXHXHXHXGXGXGXnXnXkXB B m m m m m B m V B B 7XN 8X6 4 4 . /.;.;.3.3.H.J.K.K.E.E.E.E.",
"  1 1 C.F.].XXXX!.S.2.>.>.>.>.=.-.B.C.3XMXKXPXLXLXHXHXHXGXnXzXkXuXM m m M m m m m m N N 7X6X}.}.{./././.^.3.3.H.J.J.K.R.E.E.E.E.",
"  , M.M.F.F.F.F.S.S.>.>.>.1.>.=.-.M.D.].VXJXPXLXLXPXPXPXHXDXSXuXuXM m M M M M M M m N N 6X6X}.|.{.{.{.^.^.^.H.H.J.K.R.R.E.E.E.E.",
"*.m.m.M.A.A.D.S.A.<.,.1.1.<.>.>.>.=.D.2XCXKXPXLXLXLXPXHXDXyXyXuXuXN 7XM 6XM M M M M M qXwXtX|.|.|..X.X.X^. XH.H.K.K.W.W.E.E.E.E.",
"m.0.0.m.M.M.Z.Z.Z.,.,.,.1.1.1.:.>.>.F.XXCXJXKXLXLXLXPXHXDXyXyXyXqX7X7X6X6X7X6X6XM }.qXwXtX|.|.|.+X+X@X.X X XH.J.K.W.W.W.E.E.E.E.",
"0.*.0.0.r.Z.Z.Z.:.,.,.,.,.I.,.1.,.A.!.XXNXCXJXKXPXLXPXDXzXyXyXyXuXtXuXtX9X9X0X6X9X9X9X9XtXrXtX+X+X@X@X.X X X XH.K.Y.W.W.W.W.E.E.",
"r.r.r.r.r.h.r.n.&.%.,.,.P.P.,.,.P.S.I.OXOXNXCXJXKXLXPXKXDXSXSXyXVXDXyXyXeXyXeXrX9X8XeXeXtXtXBXBX+X+X@X.X.X XJ.H.T.L.W.U.U.U.W.W.",
"r.r.e.r.l.r.r.n.n.,.b.,.P.P.,.P.1.<.I.!.!.XXNXCXJXPXLXLXPXKXDXDXDXDXDXVXZXyXrXrXeX8XrXrXrX|.BXBX@XNX@XOXOX'.2.2.1.U.U.U.U.U.U.U.",
"e.r.h.r.h.r.n.n.n.b.b.,.G.P.P.P.P.1.<.<.S.D.!.NXCXJXKXLXPXPXKXKXKXKXDXVXyXrXrX3X<X3X3XrX3XrXBXBXBX@XoXXX!.T.<.<.L.1.I.I.I.I.U.U.",
"h.h.h.h.h.h.n.n.n.n.b.%.Z.P.P.P.I.P.1.1.<.>.D.XXNXCXJXJXJXJXJXJXKXDXSXSXVX3X3X,X_.3X<X3X[.[.[.3XoXoXXXOXS.2.>.<.1.,.,.P.P.I.P.P.",
"h.j.h.h.h.h.n.n.b.b.b.G.G.P.P.P.P.I.I.1.1.<.S.F.XXNXMXMXMXMXSXMXVXVXmXmX2X].)._.).)._.)._.].].].XXXX].'.D.A.>.>.:.,.%.,.P.G.P.P.",
"g.&.8.a.c.k.k.v.v.~.~.G.G.G.G.P.P.I.I.I.1.<.A.S.F.=XXX=X2X2X2X2X2X2X2XC.).C.C.C.1 N.N.N.N.N.(.B.D.D.D.D.A.=.>.:.:.,.,.%.G.%.P.%.",
"g.g.j.g.x.v.k.v.b.~.~.~.G.G.P.P.P.I.I.I.,.1.,.A.c.F.V.A.C.V.V.M.1 C.2 1 B.< 1 1 1 1 1 1 < 1 B.B.B.B.B.M.=.=.=.Z.:.&.&.%.%.G.%.%.",
"a.j.a.j.c.k.v.v.v.~.~.G.G.G.G.P.P.I.I.I.I.1.1.:.:.m.Z.m.m., , < , 2 < < < , , < < < <   .   . M.-.-.=.=.=.:.:.:.Z.&.b.Z.%.%.G.%.",
"j.j.j.j.f.f.v.v.v.~.~.G.G.G.G.P.P.I.I.I.I.,.:.:.:.*.*.0.% *.% % %   %   < < < < <             -.. -.-.-.=.=.=.:.:.&.b.b.%.G.%.G."
};
