/* XPM */
static char *result[] = {
/* columns rows colors chars-per-pixel */
"64 64 255 2 ",
"   c #0C170C",
".  c #1D3B0A",
"X  c #1D3514",
"o  c #233C18",
"O  c #243611",
"+  c #2C372F",
"@  c #172228",
"#  c #1E4210",
"$  c #284A19",
"%  c #2E4F1A",
"&  c #2E4C23",
"*  c #364928",
"=  c #2D5224",
"-  c #37552B",
";  c #3A5131",
":  c #38682F",
">  c #425233",
",  c #4B763A",
"<  c #4A6A3E",
"1  c #2A374A",
"2  c #523C5E",
"3  c #2C5659",
"4  c #386659",
"5  c #2D715B",
"6  c #1C5A6A",
"7  c #1D5779",
"8  c #394967",
"9  c #265668",
"0  c #36596B",
"q  c #2A4F7B",
"w  c #3B4C75",
"e  c #354E7C",
"r  c #3B4B7C",
"t  c #3A4779",
"y  c #265679",
"u  c #335579",
"i  c #2C4B62",
"p  c #1D6269",
"a  c #296778",
"s  c #386577",
"d  c #316E69",
"f  c #1D615A",
"g  c #4D5351",
"h  c #4C7644",
"j  c #506F4B",
"k  c #677659",
"l  c #66744E",
"z  c #494468",
"x  c #564767",
"c  c #464877",
"v  c #554B76",
"b  c #59557A",
"n  c #4A566F",
"m  c #67526A",
"M  c #665576",
"N  c #72576F",
"B  c #4E7172",
"V  c #706F74",
"C  c #856577",
"Z  c #867679",
"A  c #A2767D",
"S  c #3C8873",
"D  c #37875C",
"F  c #568653",
"G  c #648659",
"H  c #6E8B54",
"J  c #518E6D",
"K  c #668763",
"L  c #758969",
"P  c #6E9170",
"I  c #56A973",
"U  c #7DA576",
"Y  c #6FAD71",
"T  c #70C87C",
"R  c #57823E",
"E  c #879175",
"W  c #85A779",
"Q  c #8FB071",
"!  c #B0B17B",
"~  c #A09E7E",
"^  c #85EB6B",
"/  c #89EA78",
"(  c #98ED77",
")  c #A4C67A",
"_  c #1D5484",
"`  c #1E538C",
"'  c #1D5986",
"]  c #1F5398",
"[  c #1F4F9F",
"{  c #2E4E8C",
"}  c #294D87",
"|  c #344D84",
" . c #3B4B83",
".. c #334C8B",
"X. c #3A4B8A",
"o. c #3B4786",
"O. c #235584",
"+. c #22548C",
"@. c #2A518C",
"#. c #275784",
"$. c #36508A",
"%. c #2C4D94",
"&. c #254E9D",
"*. c #2C4D9C",
"=. c #254D95",
"-. c #324B93",
";. c #324D99",
":. c #225394",
">. c #2A5093",
",. c #22529C",
"<. c #295497",
"1. c #296485",
"2. c #397787",
"3. c #326E8B",
"4. c #1F4FA3",
"5. c #1E52A4",
"6. c #244EA3",
"7. c #254EA9",
"8. c #2A4CAB",
"9. c #2B4EA5",
"0. c #2251A3",
"q. c #2551A9",
"w. c #304AB0",
"e. c #454A84",
"r. c #595785",
"t. c #4D558C",
"y. c #6A5A83",
"u. c #4D768B",
"i. c #6A668A",
"p. c #746D90",
"a. c #6E70A7",
"s. c #5E6CA5",
"d. c #877799",
"f. c #967D98",
"g. c #8E718A",
"h. c #A47987",
"j. c #8B7EA9",
"k. c #3E8287",
"l. c #498788",
"z. c #53918F",
"x. c #6E958F",
"c. c #5AA58E",
"v. c #6EAE90",
"b. c #5191A3",
"n. c #7190AD",
"m. c #74B2AB",
"M. c #7BD585",
"N. c #76C791",
"B. c #79C5A8",
"V. c #958B8F",
"C. c #B99B8A",
"Z. c #AA8699",
"A. c #B98A97",
"S. c #A99599",
"D. c #B99799",
"F. c #B2898B",
"G. c #98A888",
"H. c #96B689",
"J. c #86B995",
"K. c #8FB08F",
"L. c #A8A688",
"P. c #B8A788",
"I. c #B7B68A",
"U. c #B0B394",
"Y. c #948DAD",
"T. c #AA94A7",
"R. c #B194A5",
"E. c #8FB8AB",
"W. c #ABBAA2",
"Q. c #B6AEA5",
"!. c #C88D88",
"~. c #D3898A",
"^. c #C79689",
"/. c #CC8D92",
"(. c #C48D95",
"). c #C69496",
"_. c #D29A95",
"`. c #D28C91",
"'. c #C9B095",
"]. c #D9ABA5",
"[. c #D3B2AC",
"{. c #E3BCB8",
"}. c #8AD997",
"|. c #94DC98",
" X c #90CD8E",
".X c #B6C787",
"XX c #A9D989",
"oX c #A7C899",
"OX c #A8D794",
"+X c #B3CF8F",
"@X c #89E584",
"#X c #96EB87",
"$X c #98E499",
"%X c #96ED8C",
"&X c #A8E797",
"*X c #B4EB99",
"=X c #AEEF92",
"-X c #8ADAA7",
";X c #92CFB1",
":X c #A9CAA1",
">X c #B7C5A8",
",X c #AAD5A3",
"<X c #B7D7A9",
"1X c #AFD1B8",
"2X c #96E3A4",
"3X c #A7EAA5",
"4X c #B8E8A9",
"5X c #B8F6A8",
"6X c #BCE3B5",
"7X c #BBF4B5",
"8X c #ABEFAE",
"9X c #C6C893",
"0X c #D6FC9C",
"qX c #C7F397",
"wX c #CDD3AF",
"eX c #E7CBB9",
"rX c #DAFDA7",
"tX c #C7E7B9",
"yX c #D9E9B7",
"uX c #C9F8B9",
"iX c #CCF4AB",
"pX c #E8FAB9",
"aX c #E6F7B3",
"sX c #8E91C0",
"dX c #D0B3C1",
"fX c #92CDC4",
"gX c #B7D9C9",
"hX c #A9DACE",
"jX c #B8E7CD",
"kX c #BBE8E0",
"lX c #DACDCE",
"zX c #ECD2CE",
"xX c #D8E9CA",
"cX c #C8F8C5",
"vX c #D7F6C9",
"bX c #DBF9D5",
"nX c #CDEAD0",
"mX c #E6E6CA",
"MX c #E8F9C8",
"NX c #F4FEC9",
"BX c #E7FBD8",
"VX c #F6FBD8",
"CX c #F0E8D5",
"ZX c #D4F6E9",
"AX c #F9EAE7",
"SX c #EAFCE7",
"DX c #F4FEE3",
"FX c #F4FFEC",
"GX c #FBFEEB",
"HX c #FCF5EA",
"JX c #EBFFF2",
"KX c #FFF5F2",
"LX c #FEFAF2",
"PX c #F5FEF4",
"IX c #F0DEE4",
/* pixels */
"w.w.w.8.8.8.8.7.8.7.7.q.6.[ 5.0.5.] ] ] 1.#.9 3 4 P E.gXgXW.x.B 0 i i u q q | } >.:.,.,.0.,.6.&.6.6.7.7.8.7.7.7.7.*.;.-.-.o.o.o.",
"w.8.w.8.8.8.8.8.7.7.7.q.6.[ [ [ 5.,.] 1.+.y 9 3 4 B K.gXgX1XY.B 0 0 0 u q q } { %.=.=.,.,.0.,.6.6.6.7.7.7.7.8.7.9.9.%.-.-.o. .| ",
"w.8.8.8.7.7.7.q.7.7.7.q.0.[ [ ] ] ] ] ` O.y 6 3 n J E.1XgXgXE.x.B B 0 y 0 q } #.{ :.=.] &.&.0.6.6.7.7.7.7.7.7.6.6.*.*.%.....X.o.",
"8.8.8.8.7.7.q.q.7.5.5.q.,.[ 5.] ] :.:.#.y 9 3 3 4 V K.1XgXnX;XJ.x.B B 0 9 q q #.+.+.` =.:.&.,.&.&.7.7.7.7.7.7.7.6.*.*.%.%.X.....",
"8.8.8.7.7.q.q.5.5.5.0.5.5.,.,.] ] +.#.' y 6 f : 4 K J.1XjXnXjX1XE.x.J 4 9 9 y y O.+.+.=.:.,.,.5.6.9.7.7.7.7.7.4.q.&.*.%.-.....X.",
"8.8.7.7.q.q.q.5.5.5.5.5.,.] :.:.] #.' y 6 3 f f h J  X,XjXcXjXjX1XJ.z.B 4 9 9 y 7 7 _ ` ` :.] ] &.6.7.7.7.7.7.4.6.6.&.<.%.....{ ",
"7.8.7.7.q.q.5.5.5.5.5.] ] ,.] +._ 7 7 9 9 f f D J Y  XOX7XjXuX7X2X;Xv.J B 5 d 9 7 7 7 _ ` :.5.] &.6.9.6.7.7.5.7.6.,.,.%.%.%.{ ..",
"8.8.7.7.q.5.5.5.5.5.5.[ ] :.' ' _ 7 6 6 3 f D I I Y  X}.3X5X5X8X3X}.N.I J d 5 p 6 6 7 _ _ ` 1.5.&.7.6.7.7.7.4.5.4.,.=.<.{ { { ..",
"w.9.9.6.6.4.4.5.5.5.5.] :.] ' ' ' p p p f f D I T @X@X%X%X%X=X%X$X}. XT I J D f p p 6 ' ' ' 5.] ,.0.q.q.7.5.6.4.0.,.,.=.>.@.....",
"9.9.9.6.6.[ 4.5.5.q.5.] 1.` +.a p S p D D D I T T @X@X#X#X/ / ^ @X@X@XM.T I S 5 D p a ' ' 5.' 5.,.,.0.0.q.7.5.4.4.,.,.>.@...{ ..",
"9.9.9.6.4.[ 4.5.5.5.<.:.' +.3.3.k.k.S S D I I T @X@X/ / ^ T ^ ^ / @X@X@XM.T I J S k.k.k.5.k.' ] :.,.0.0.5.6.6.5.0.,.,.%.@.@...| ",
"9.9.9.6.6.&.4.0.5.<.] :.+.1.3.l.c.c.c.c.I I T T @X/ / ^ ^ ^ ^ ^ T / @X@XT T T c.c.c.b.b.b.k.3.] ` ,.,.0.0.0.0.0.&.,.<.%...#.{ | ",
"9.9.9.0.&.0.,.,.[ ] =.+.#.1.l.b.m.B.B.M.B.M.M.M.@X/ / / ^ ^ ^ ^ ^ ( / / M.@XM.N.N.B.B.m.b.b.1.' ` =.] [ ,.0.9.6.0.&.<.%.@.$.| ..",
"9.9.9.,.0.0.,.[ ] ` ` ` O.1.z.c.B.-XB.B.M.M.%X%X@X%X#X#X( ( ( ^ ( / #X( %X$X2X2XfX-XfXB.m.b.3.' _ ` =.` ,.0.,.0.&.*.>.%.-...{ | ",
"0.q.0.0.,.[ ,.] =.` _ 7 a a l.c.B.8X2X2X2X2X%X%X3X=X=X=X=X=X( ( ( #X=X=X3X5X8X5X8X8XfXfXm.b.5.' 7 _ ` ` ,.<.<.&.*.&.*.>.{ { | | ",
"q.0.0.0.[ ] ,.] =._ _ 7 6 a l.v.M.B.2X2X2X2X3X8X5X5X5XiXqX=X=X#X%X%X=X5X5X7X7XjXkXjXhXfXm.b.1.p 7 _ _ :.,.<.&.&.9.*.*.%...$...| ",
"0.q.0.5.,.] ,.:.+.O.7 7 p d l.v.N.-X2X$X2X3X8XuXuXuXuXuXiX*X*XXX&X=X3XiXiXuXcXcXcXnXgXE.m.z.2.a 7 7 +.+.:.=.=.&.*.*.*.-.-...X.X.",
"5.5.5.0.,.,.,.' ' O.y a a S I v.N.2X$X2X3X3X7XuXvXcXuXtX<XOXOXXXOXXXOXOX4XtXvXvXbXnXgXfXm.x.l.3.y a #.#.+.>.*.*.9.*.*.;.-.....| ",
"0.5.0.0.,.:.:.' ' 7 a 2.l.c.v.N.}.-X$X3X8X7XcXvXvXnX:XH.W H.H.oX XQ W Q Q :XtXbXbXZXnXgX;XE.n.l.u.3.#.#.+.+.*.*.*.*.;.;.%.......",
"5.0.0.0.,.:.] ' 7 a 2.l.c.v.B.N.}.|.3X5X7XuXvXbXBX1XG.K k G W H.H.W H H H G.wXmXbXSXZXkXhXfXm.m.l.2.1.#.+.>.>.*.*.*.*.;.-.......",
"0.,.,.,.:.:.' _ 7 1.k.c.m.B.-X}.}.$X8X5XuXvXbXBXxX>XL g * < K G.H.P < > j L W.xXSXSXSXZXkXhXfXm.b.l.3.y #.:.%.*.9.;.*.*.%.....| ",
",.,.,.,.:.' _ 7 p a l.c.B.-X-X2X|.$X8X7XcXMXBXBXnXW.V * X ; G W W G - $ ; k U.xXSXJXJXZXZXkXhXsXn.l.s y #.+.<.*.*.*.*.-...{ ..| ",
",.,.,.:.] ' _ 7 6 p S c.B.-X2X-X|.$X*XuXcXMXBXBXxXQ.B * X * F U U K - o * k Q.xXJXJXJXJXZXkXhXfXm.u.3.y y +.=.<.*.*.*.%.{ | | | ",
",.:.,.:.' ' 7 6 p d S c.N.}.}.|.$X&X5XuXvXBXDXVXxXQ.k * X & l U U G ; o ; k W.nXSXJXJXZXZXkXhXfXx.l.s y y } @.%.*.;.%.%.{ ..} | ",
":.:.:.+.' ' 7 p a S S c.v.}.$X$X$X*X5XuXpXMXBXBXxXW.k * X & G U U K ; o ; B :XxXSXPXJXZXZXnXhXE.x.l.s 9 y q @.>.*.%.%.%...$.| e ",
"] ] ] ` ' ' a a S S I T M.}.$X%X&X*XiXrXMXNXVXVXmXQ.k * X & G U U K = X = K W.nXSXPXJXJXZXZXgX1XE.J B 9 9 q #.@.=.%.%.%.{ $.| | ",
":.] ] ' ' 7 1.k.z.c.c.N. X}.&X=X*X5XiXuXNXNXVXVXmXQ.k + X & G U U G = X = k W.xXSXJXJXJXZXZXnX1XK.J 4 3 i 6 #.@.%.=.*.%.{ $.| | ",
",.] ] ' ' ' 2.l.c.B.N.M.|.%X=X=XqXiXrXpXpXNXVXVXmXQ.k > o - G U v.G - & ; V W.nXSXFXFXSXSXbXnX1XK.x.B 3 i i y @.} %.%.%.{ { #.| ",
",.:.] ` _ 1.2.b.v.-X|.|.&X&X=XqXqXrXrXaXpXNXVXVXmXwXE g ; < L W K.P h - j L >XbXSXFXFXDXDXBXbXtXW.K.k B d 0 u #.@.@.*.>.{ { ..| ",
",.,.] ` _ 1.u.z.m.-X2X&X*X*X=XqXiXrXaXaXpXNXNXVXCXwXG.V k k W K.K.U G l L K.wXbXDXFXDXDXDXBXmXyX>XH.x.P B s u y @.>.>.>.%.{ ....",
",.,.:.' _ 1.2.c.m.;X&X8X5XqXqXqX0XrXrXaXpXNXNXVXCXmXwXW.K.H.W.oXoXH.K.K.H.>XxXCXDXGXDXDXVXVXmXyXyX<X:XK.x.B s q } +.%.>.>.......",
"0.,.,.:._ 1.u.z. X;XOX*X*XqXqX0X0XrXrXaXpXNXVXVXDXDXlXnXlX1X1X<X,X,X<X<XtXnXxXSXBXDXVXNXVXNXMXpXyXtXwXE.V.l.u q } } @.<.-.@.{ ..",
"6.&.&.>.#.1.u.c.J. X|.#XXX) qX0X0X0X0X0XrXaXNXVXVXDXHXBXbXxX6X6X<X6XcXxXvXvXbXBXBXNXBXMXNXMXaXaXyXwX>XH.x.B n u q { } { >.{ $.@.",
"&.&.=.@.} a B c.J. X X) Y Q ) ( 0X0X0X0X0XrXpXVXGXGXGXFXSXvXnX<X6X6XcXvXbXBXBXBXBXMXMXpXMXpXaXaXwXI.G.E K m u u q | { { { { @...",
"*.&.=.} q s l.x.m.J.Y H R R H ) qXqX0XqXqXrXyXMXVXGXPXFXBXbXcX6X6X6XvXbXBXBXBXBXMXxXxXyXyXaXaXwXI.E k j 3 3 8 w e | $.......| $.",
"*.-.=.} | #.B z.v.J.Y F : : R Y ) qXqX9X+X+XqXyXmXmXCXBXxXtX<X,X,X,X6XcXcXcXvXxXtXwXwX9XwXwXwX9XE l * + + i 8 r  .$.$...........",
"-.-.-.} | s s z.x.U J F : : F H Q Q ) Q Q Q ! I.>X>X>X>X>XoXH.W W H. XoXoXoX>XoXI.G.~ Q ! ! ! ~ l ; @   @ 1 8 t X.$.X.X.X.X...X.",
"-.-.-.o.e u s B J I J F : F F F H H H R l H H E E E E L L L H G F G L H L P L L H E l H l l Z l > O     @ + 1 t e.e.e.X.X.X.X. .",
"....o...e u 0 d B J J J P K F h , % % % % % & ; > > > > ; - = % & = % : : : > > % % % % % * * * O       @ 1 8 t r e.o.o. .o.o. .",
"X.X.X.o.$.| 0 3 5 5 J Y v.v.J h - # # # . . . o & o o $ o . # # . # # # # # % # . O O . O O O O       O 1 1 z c c e.e.o.o.o. . .",
" .X.$.$.t.u.$.0 f 4 J c.J.J.Y K , % % $ % % $ & * & % & & % % = = % = = % % % % % % # % * % * O + + + + 3 n b b t.t.c o.r o.r o.",
" .X.t.$.s.u.u.B 0 4 F Y J. XK.Y G , , , < h < h < , j , h h h h h h h , , , , , , , , , , , l < > l g g m V p.i.r.n c t r e.c r ",
"r X.t.s.a.a.s.B 4 j F P K.oX XJ.W U U W U W W U W W W W W W W U U U U U U Y Y Y Q Y Y Q Q E Q E E E V E E d.V.a.p.r.n w c t r r ",
"t X.t.s.n.Y.n.x.B k B U K.oX:X:XoXoX XoXoXoXoXoX:X:XoXoX:XoX,X,X:XOXoXXXXX( )  X) ^ ) (  XXXU.I.L.C.G.V.S.S.Y.V.p.i.r.t.c c c w ",
"o.e.t.s.sXsXsXa.V V P E H.oXoXoXoXOX<X4X*XtXwXtXtXtXtXtXcX6XtX6X6X6X6X4X4X&XOXXX( ) XXXXXX.X.XI.P.L.L.S.Q.R.T.Y.V.p.i.r.b c c 8 ",
"o.e.t.a.sXsXY.Y.V.E E W Q U.I.oX+X<XtXtXtXcXyXvXxXMXyXvXxXvXbXcXnXbXcXcX7X4X&X&X#XXXXX*XXX.X.XI.I.P.P.C.D.R.R.T.Y.j.d.p.r.v z c ",
"o.e.t.s.sXsXY.Y.V.V.~ ~ L.L.U.oX<X<XtXtXvXBXBXBXBXBXBXBXBXBXBXSXSXbXbXbXuXiX&XOXXXXXXX) ) ) ! ! ! C.P.D.D.Q.R.R.T.Y.f.p.y.b n z ",
"c e.t.s.a.Y.Y.T.S.S.L.P.L.I.I..X>XtXtXvXBXBXDXBXDXVXDXDXSXFXSXFXSXSXSXBXvXuX4X*X&XXX) XX) ! ! ! ~ ! C.C.).R.R.R.R.f.j.d.i.v v c ",
"o.e.e.r.a.d.j.f.f.(.P.P.P.I.'.wXyXyXMXBXBXDXGXGXGXGXGXGXPXLXPXFXFXJXFXDXBXvXyX0XqX9XqX) ) ) ! ! P.P.^.P.D.D.R.R.Z.j.g.p.y.v v 2 ",
"o.o.e.t.y.y.d.d.R.R.).Q.'.[.wXwXeXCXCXVXDXGXGXGXGXGXGXGXLXLXLXLXPXGXFXDXBXMXMXeXqXqX9X.X9X9X! I.P.P.C.C.D.D.R.T.f.g.y.y.v v v c ",
"o.e.e.e.v r.y.g.h.D.).'.'.[.eXzXCXVXAXVXHXHXGXKXLXLXKXLXLXLXKXKXKXGXHXDXVXMXaXaXyX9X9X9X9X.X9X'.P.P.P.C.D.R.T.V.d.y.y.v v v c c ",
"o.;.o.e.e.v M y.g.h.A.).'.].eXeXeXCXCXCXCXHXHXHXLXLXLXKXKXLXKXKXKXHXCXCXCXCXaXaXaXwX9X'..X9X+X'.P.L.~ V.V.f.f.g.y.y.v c c z c c ",
"w.e.o.o.o.c v N C C h.!.).].[.eXeXeXeXeXzXzXIXAXLXLXLXLXLXLXKXKXAXAXzXzXeXeXeXeX'.'.9X'..X9X'.I.L.G.E V Z p.p.i.y.v c c c z o.c ",
"e.;.-.o.o.c v x m C C ~ )._.].].].].].].[.{.zXIXKXLXLXKXKXKXKXAXAXzXeX{.9X'.].'.'.'.^.! '.Q.>XI.L.E V V M V i.r.e.v c t t o.t t ",
"w.;.-.-.o.c v 2 2 C C A F.)./._._._._._._.[.{.IXAXHXKXKXKXKXKXAXzXzX{.].^.^.^.^.^.^.^.! P.'.Q.L.V.L n g n n n c e.e.c o.o.t o.t ",
";.;.-.o.o.e.c v 2 C C h.F.!./.~.!.~.~.`./._.[.lXIXAXHXHXKXAXIXIXzX{.].^.^.^.^.!.^.^.^.^.P.Q.Q.W.V.V n g 8 z z c e.e.o.t o.o.o.o.",
";.;.w.o.o.e.t.y.C C h.h./.(.`.`.~.~.~.~.~.~.].[.eXlXIXKXKXAXIXzX{.].]././.!.!.!.!.^.(.).D.Q.Q.S.x.V n 8 8 8 t r o.o.o.t o.| | | ",
"-.;.o.;.o.o.r.y.d.h.f.A.(./.`.`.~.~.~.~.~.^.).'.Q.lXzXIXAXIXlXdX]._.(.(.(.!.!.!././.D.D.D.D.W.Y.x.V n 8 w w t r o.o. . .| o. .e ",
"-.-.-.o.o.e.r.p.d.f.f.(.(.(.`.`.~.~.~.~.~.(.).).Q.[.lXlXIXlXdXR.A.A.A.A.h.!.F.A.A.F.A.A.S.T.Y.V.p.V n u 8 e e | o.o. . . .| e t ",
"o.-.-.;.o.e.t.y.d.f.f.(.A.(./.`.`.`.~.`.`.!.D.D.D.R.Q.dXdXR.R.f.h.h.h.h.h.h.h.h.h.h.f.h.V.V.d.p.i.r.n 8 e e e e o.o.| |  . . .e ",
"o.} o...o.o.v r.y.y.g.h.A.(.`.(./.`.`././.(.D.D.S.S.S.S.Z.V.g.g.g.N N C C C C C N C V V V p.i.i.B n r u u e e | | | |  .e r r w ",
"o.o.o.o.c o.c v y.y.g.h.f.(.R.(.(.)././.(.(.D.D.S.V.g.V N N M M m M N m N m m m m m m M M b b b c e.w w e e e e e | u e e e e w ",
" . . .t o.t e.e.2 M C g.f.A.(.dX).(.).(.(.D.D.R.S.h.Z N m x x x x x 2 z x x x x x x z z v v z c c r w e e e | u u | e e u w w w ",
"e e  . .c o.c 2 v 2 y.g.A.R.(.(.).).(.(.D.).D.D.F.E V m 2 2 2 2 x 2 2 g 2 x x 2 z 2 z z z z c c w c w e e e y | q e e e w w w w "
};
