/* XPM */
static char *result[] = {
/* columns rows colors chars-per-pixel */
"64 64 227 2 ",
"   c #380C0A",
".  c #491E17",
"X  c #421A0D",
"o  c #4D231A",
"O  c #54251C",
"+  c #59301F",
"@  c #542D2B",
"#  c #572A24",
"$  c #5B332C",
"%  c #5C3024",
"&  c #5D3934",
"*  c #4D2924",
"=  c #623A38",
"-  c #78313F",
";  c #394330",
":  c #465E1F",
">  c #64433C",
",  c #67463A",
"<  c #7C553B",
"1  c #4C642D",
"2  c #536738",
"3  c #557031",
"4  c #717936",
"5  c #495A38",
"6  c #4A4E45",
"7  c #57564B",
"8  c #5D5852",
"9  c #674844",
"0  c #714C49",
"q  c #6D514B",
"w  c #74574A",
"e  c #785A55",
"r  c #5B6356",
"t  c #586648",
"y  c #7B625A",
"u  c #696F56",
"i  c #6E5F68",
"p  c #6A6966",
"a  c #7C6967",
"s  c #766B73",
"d  c #78796E",
"f  c #856B3D",
"g  c #85773B",
"h  c #8B523E",
"j  c #992849",
"k  c #8A3D42",
"l  c #9D3649",
"z  c #963A57",
"x  c #922F54",
"c  c #A5254C",
"v  c #A4364D",
"b  c #AC2D53",
"n  c #AB2452",
"m  c #B22A55",
"M  c #BD245B",
"N  c #B52A59",
"B  c #B82757",
"V  c #A53152",
"C  c #A93657",
"Z  c #B03153",
"A  c #B13165",
"S  c #C51C5B",
"D  c #C7255B",
"F  c #D1275F",
"G  c #C71F62",
"H  c #CE2E64",
"J  c #C92864",
"K  c #D12562",
"L  c #D32D66",
"P  c #DA2C66",
"I  c #D52E69",
"U  c #D92E6A",
"Y  c #D62669",
"T  c #D53165",
"R  c #D5316A",
"E  c #D9306A",
"W  c #DB3170",
"Q  c #E2316B",
"!  c #E22A69",
"~  c #964744",
"^  c #8B5641",
"/  c #98435B",
"(  c #914E44",
")  c #8E6C42",
"_  c #857541",
"`  c #826B59",
"'  c #87715A",
"]  c #A94666",
"[  c #A7536D",
"{  c #AB5771",
"}  c #856B65",
"|  c #8A7969",
" . c #917C6D",
".. c #8A7776",
"X. c #927579",
"o. c #8C5E6C",
"O. c #678834",
"+. c #7A8C38",
"@. c #769838",
"#. c #708F2B",
"$. c #7BA336",
"%. c #778E4A",
"&. c #7C8666",
"*. c #828939",
"=. c #839439",
"-. c #849B3B",
";. c #8A9F3A",
":. c #82AC33",
">. c #87AB3D",
",. c #8AAC3E",
"<. c #81A539",
"1. c #93AD3D",
"2. c #99AA3D",
"3. c #8CB43C",
"4. c #8CBB3E",
"5. c #8AB735",
"6. c #94B33E",
"7. c #9AB43E",
"8. c #92BB3E",
"9. c #A4B43F",
"0. c #8FC33A",
"q. c #92C336",
"w. c #94C53E",
"e. c #96C93F",
"r. c #99C83E",
"t. c #9AD23F",
"y. c #8BA940",
"u. c #8DB441",
"i. c #8DBE41",
"p. c #93B541",
"a. c #9CB441",
"s. c #92BD42",
"d. c #91AF5D",
"f. c #ACB544",
"g. c #A7B541",
"h. c #B4B944",
"j. c #B8BA46",
"k. c #A6AF43",
"l. c #95886C",
"z. c #8B8C7A",
"x. c #988876",
"c. c #969D7A",
"v. c #8E9771",
"b. c #A19E7F",
"n. c #9EB96A",
"m. c #97A877",
"M. c #ABA97C",
"N. c #A7BA77",
"B. c #B1B87D",
"V. c #A0B868",
"C. c #C3BE49",
"Z. c #8FC341",
"A. c #96C541",
"S. c #99C542",
"D. c #95CA42",
"F. c #9ACB43",
"G. c #9CC649",
"H. c #9DCA48",
"J. c #94D142",
"K. c #98D143",
"L. c #9CD546",
"P. c #9FC652",
"I. c #A2D248",
"U. c #A3CC55",
"Y. c #A3CA56",
"T. c #A9D359",
"R. c #AEC547",
"E. c #AACB68",
"W. c #B2CE6A",
"Q. c #AFD366",
"!. c #B3D368",
"~. c #B5CB78",
"^. c #B6D474",
"/. c #CBC24B",
"(. c #C6C34A",
"). c #D2C64E",
"_. c #D8CC4D",
"`. c #DBCE52",
"'. c #D3CB52",
"]. c #E1CE4E",
"[. c #E4D14E",
"{. c #E4D351",
"}. c #ECD654",
"|. c #ECD953",
" X c #F4DD55",
".X c #F9DE55",
"XX c #F5DE58",
"oX c #FBDD5A",
"OX c #E9D350",
"+X c #F6E154",
"@X c #FBE255",
"#X c #FEE45A",
"$X c #FFEA5A",
"%X c #FBE658",
"&X c #B27B8E",
"*X c #8C8681",
"=X c #978788",
"-X c #95968C",
";X c #999C97",
":X c #A5968C",
">X c #AB9995",
",X c #9AA690",
"<X c #B3BB85",
"1X c #A5A29E",
"2X c #A5A89A",
"3X c #AEB28E",
"4X c #BB9DA6",
"5X c #AAA7A5",
"6X c #B5ABAA",
"7X c #B6B2AB",
"8X c #B5B6B3",
"9X c #C0B6AA",
"0X c #C7BCBA",
"qX c #B6CA82",
"wX c #C9D396",
"eX c #C4C4BC",
"rX c #C7CBA7",
"tX c #C7C8C4",
"yX c #DAD8D6",
"uX c #D3CCCB",
"iX c #DCE1DC",
"pX c #E2E3DE",
"aX c #DFE4E2",
"sX c #EAF2ED",
"dX c #FEFEFE",
"fX c #F3F5F4",
"gX c #EDEEED",
/* pixels */
"A.A.A.A.A.A.A.A.A.A.A.A.A.A.A.A.A.A.A.A.A.A.A.A.A.A.A.A.A.A.A.A.A.w.A.7. X%X/.`.#Xf.w.D.A.A.A.A.A.A.A.A.A.A.A.A.A.A.A.A.A.A.A.A.",
"A.A.A.A.A.A.A.A.A.A.A.A.A.A.A.S.A.A.A.A.S.A.A.A.S.A.A.A.A.A.A.A.A.S.F.p.|.@X@X@X|.p.D.A.A.A.A.A.A.A.A.A.A.A.A.A.A.A.A.A.A.A.A.A.",
"A.A.A.A.A.A.A.A.A.w.S.A.A.A.A.A.A.A.A.A.A.A.A.A.A.A.A.A.A.A.A.A.S.S.4.k. X@X@X@XOX1.A.S.A.A.A.A.A.A.A.A.A.A.A.A.A.A.A.S.A.A.A.A.",
"A.A.A.A.A.A.A.A.A.A.A.A.A.A.A.A.A.A.A.A.w.A.A.A.A.A.A.A.A.A.A.A.D.s.f.@X@X+X@X@X#X).4.D.A.A.A.A.A.A.A.A.A.A.A.A.A.A.A.w.A.A.A.A.",
"A.A.A.A.A.A.A.A.A.A.A.A.A.A.A.A.A.A.A.A.A.A.A.A.A.A.A.A.A.A.A.A.F.3.).@X.X@X@X+X X}.p.A.A.A.A.A.A.A.A.A.A.A.S.A.A.A.A.A.A.A.A.A.",
"A.A.A.A.A.A.A.A.A.A.A.A.A.A.A.A.A.A.A.A.A.A.A.A.A.A.A.A.A.S.A.A.A.A.p.1.j.#X.Xk.7.6.p.S.A.A.A.A.A.A.A.A.A.A.A.A.A.A.A.A.A.A.A.A.",
"A.A.A.S.A.A.A.A.A.A.A.A.A.A.A.A.A.A.S.A.A.A.A.A.A.A.A.A.A.A.w.A.A.D.S.D.3.`./.4.D.D.S.A.A.A.A.A.A.A.A.A.A.A.A.A.A.A.A.A.A.A.A.A.",
"A.A.A.w.A.S.A.A.w.A.A.S.A.A.A.A.A.A.A.A.A.A.A.A.A.A.A.A.A.A.A.A.A.A.S.r.w.6.8.A.S.w.A.A.A.A.S.S.w.S.A.A.A.A.A.A.A.A.A.A.A.A.A.A.",
"A.A.A.A.D.A.A.A.S.A.A.A.A.A.A.A.A.A.A.A.w.A.A.A.A.A.A.A.A.A.A.A.A.A.A.A.A.D.D.A.S.A.A.S.r.r.q.S.A.F.A.A.A.A.A.A.A.A.A.A.A.A.A.A.",
"A.A.A.A.6.8.D.A.i.A.A.D.A.A.A.w.w.A.D.w.F.S.S.w.S.A.S.A.A.A.A.A.A.w.A.w.w.A.A.w.w.A.A.S.8.G.T.q.A.A.w.r.A.A.A.A.A.A.A.A.A.A.A.A.",
"A.r.D.6.].(.1.7.j.g.A.A.A.A.A.A.A.A.A.r.w.A.A.S.S.w.A.A.A.A.A.A.A.A.D.w.A.A.A.A.A.D.w.q.T.~.c.Q.q.A.w.D.A.A.A.A.A.A.w.A.A.A.A.A.",
"A.A.A.a..X#X{. X#X9.Z.A.A.A.A.w.r.A.A.A.S.A.w.q.q.H.H.w.A.A.A.A.A.A.A.A.A.A.A.F.A.A.P.W.7X7Xy <X8.F.A.w.A.A.A.A.A.A.A.A.A.A.A.A.",
"A.A.D.6.|.@X@X@X].1.F.A.A.A.A.A.A.S.A.w.q.s.U.W.qXM.<XU.w.S.A.A.S.A.D.A.A.S.Z.0.A.q.!.x.@ 7X7X1 A.w.A.w.A.A.A.A.A.A.A.A.A.A.A.D.",
"A.D.3.j.oX+X+X@X X7.A.D.A.A.A.A.A.A.w.H.^.~.M.' > . q ~.q.S.A.w.w.w.0.0.w.A.G.W.P.0.T.x.X ` m.s.F.w.r.A.A.A.A.A.A.A.A.A.A.A.A.A.",
"F.4.(.$X@X+XXX@X$X}.6.D.A.A.A.A.S.w.H.B.e $ o * q a s 2 S.S.w.Y.~.~.!.Q.G.H.qX| <XA.^.uX6Xp 1 F.A.A.A.S.A.A.A.A.w.A.A.A.A.A.A.A.",
"A.s.j.'.}..X@X{.)./.6.D.A.A.A.w.S.q.T.x.@ e X.0X;Xr 2 y.G.G.q.~.9 = ` l.M.wX:X  l.wXx., x.c.3.H.A.S.A.A.A.A.A.A.A.A.A.A.A.A.A.A.",
"S.F.8.4.k.#X|.1.u.8.A.A.A.A.A.A.A.S.A.~.z.6 z.a q qXr.r.w.S.w.~.} = @ * o , >X$ = $ . , ..%.S.A.A.S.A.S.A.A.A.A.A.A.A.A.A.A.A.A.",
"A.A.S.D.4.C.h.Z.F.S.A.A.A.A.A.A.A.A.A.Q.n.n.3X. 0 2XE.Q.G.w.w.H.E.v.z.z.} o 0X0 O & ..s ; #.H.A.S.A.A.A.A.A.A.A.A.A.A.A.A.A.A.A.",
"A.A.A.A.A.4.s.A.A.A.A.A.A.A.A.A.A.0.W.l.` ' = # , y e l.~.5.q.w.A.p.>.d.:XO 6X} . =Xt : u.U.S.S.A.A.S.A.A.A.A.A.A.A.A.A.A.A.A.A.",
"A.A.A.A.S.D.D.A.A.A.A.w.A.A.A.A.A.w.~.q $ @ # % $ % # @ 3XP.Q.H.A.q.q.T.l.$ -X..o } n.T.Q.A.w.A.A.A.A.S.A.S.A.A.A.A.S.A.A.A.A.w.",
"A.A.A.A.A.S.A.D.A.A.A.A.A.A.A.A.A.w.Y.N.z.>X. ` =Xd -X6X-Xl. .B.E.^.Q.wX` = z.c.+ , wXl. .W.r.S.A.S.S.S.A.A.A.A.A.A.w.D.A.A.A.A.",
"A.A.A.A.A.A.A.A.A.A.A.A.A.A.A.S.A.A.S.5.N.e # ..2 @.M.| = a @ x.9X, w w O 0 z.~.= + % o = ,Xs.r.A.A.w.S.A.A.A.A.A.w.D.8.w.D.D.A.",
"A.A.S.A.A.A.A.A.A.A.A.A.A.A.A.A.A.A.A.H.<X# 0 p $.I.I.rX>Xx.a } 7X> w w q ..u E.x.= e ..s ; u.S.A.S.A.A.A.A.A.A.D.S.s.h.a.4.i.6.",
"A.A.A.A.A.A.A.A.A.A.A.A.A.A.A.w.A.D.8.T.| X ..t s.S.w.qX*XX. .& rXm.u &.&.2 3 H.W.c.r 5 3 u.F.A.A.A.A.A.A.A.A.w.D.D.2.XX Xh.(.{.",
"A.A.A.A.A.A.A.A.A.S.A.A.A.A.A.S.A.A.A.G.B.x.i 3 I.A.w.qX=Xw , } &.4.i.3.i.s.H.w.w.u.$.S.U.r.A.A.A.A.A.A.A.A.A.A.A.D.p.}.@X#X@X@X",
"A.A.A.A.A.A.A.A.A.w.A.A.A.A.A.A.A.A.A.w.H.d.2 i.D.F.A.W.y a s 6 1 D.D.G.A.A.A.A.D.S.H.r.w.A.A.A.A.A.A.A.A.A.A.A.D.w.p.}..X.X@X X",
"A.A.A.A.A.A.A.A.A.A.A.A.A.A.A.A.A.A.A.A.A.w.L.A.A.A.A.G.n.2 3 -.G.A.Z.A.A.A.S.A.A.A.A.A.A.A.A.A.A.A.A.A.A.A.A.A.A.a.{.@X+X+X+X@X",
"A.A.A.A.A.S.A.A.A.A.A.A.A.A.A.A.A.A.A.A.S.A.A.w.D.A.F.K.F.I.I.F.A.F.L.F.A.D.A.A.A.A.A.A.A.A.A.A.A.A.A.A.A.A.A.S.3./.#X@X@X@X@X X",
"A.A.A.A.A.A.A.A.A.A.A.A.A.A.A.A.A.A.A.A.A.A.A.A.A.F.5.@.@.$.w.S.e.$.$.:.F.A.A.A.A.A.A.A.A.A.A.A.A.A.A.A.A.A.A.A.A.a.g.R.@X@Xj.9.",
"S.A.A.A.A.A.A.A.A.A.A.A.A.A.A.A.A.A.A.A.A.A.A.A.F.<.c.tXeX-X@.w.%.2X8X-X%.F.A.S.A.A.A.A.A.A.A.A.A.A.A.A.A.A.A.A.A.S.A.,.{.`.3.F.",
"A.A.A.A.A.A.A.A.A.A.A.A.S.A.A.A.A.A.A.A.A.A.A.S.8.7 8XdXdXdX2X2 aXdXdXdXd #.L.A.A.A.A.A.A.A.A.S.A.A.A.A.A.A.A.A.D.A.A.A.7.a.A.S.",
"A.A.A.A.A.A.A.A.A.A.A.A.A.A.A.w.A.A.A.w.s.A.A.F.@.tXyXr 8 eXeX*XgX1Xp -XuX&.q.A.A.A.A.A.A.A.A.A.A.A.A.A.A.A.A.A.S.A.A.A.A.D.D.A.",
"A.A.A.A.A.A.A.S.A.A.A.S.A.A.A.A.A.A.A.F.F.w.S.F.#.yXdXeX7 8X-Xp 8Xp 7 dXdXc.5.r.S.A.S.A.A.A.A.A.A.A.A.A.A.A.A.A.A.A.A.A.A.A.S.w.",
"A.A.A.A.A.A.A.A.A.A.A.A.A.A.A.A.A.S.S.<.<.F.w.H.$.2XdXdXdXdX6Xq dXdXdXdXfXu 3.e.F.D.D.A.A.A.A.A.A.A.A.A.A.A.A.A.A.A.A.A.A.A.A.A.",
"A.A.A.A.A.A.w.A.A.A.A.A.A.A.A.A.A.J.-.c B f H.K.y.- >XyXpX5Xx c &XsXfXiXX.c C ^ *.D.r.r.A.A.A.A.A.A.A.A.A.A.A.A.A.A.A.A.A.A.A.A.",
"A.A.A.A.A.A.A.A.A.A.A.A.A.A.A.A.A.F.g Y Q N 4 g k P n j x n I E c k / x M E P P B f A.r.A.A.A.A.A.A.A.A.A.A.S.A.A.A.A.A.A.A.A.A.",
"A.A.A.A.A.A.A.A.A.A.A.A.A.A.A.A.A.F.<.B L P B D J T U U U U L H E I L I P H L T E D u t.A.A.A.A.w.A.A.A.A.A.A.A.A.A.A.A.A.A.A.A.",
"A.A.s.S.A.A.A.A.A.A.A.A.A.A.A.A.A.A.D.h Y L I L L L T E I I E E U I Y Y K E H H L U v 5.S.A.A.A.A.S.A.A.A.A.A.A.A.A.A.A.A.A.A.A.",
"A.A.r.A.S.A.A.A.A.A.A.A.A.A.A.r.A.A.D.>.l K P P K I D D D S B b b C C C C B U L H U M =.F.A.A.A.A.A.A.A.A.A.A.A.A.A.A.A.A.A.A.A.",
"S.A.A.A.A.A.A.A.A.A.A.A.A.A.A.A.A.D.A.J.,.^ v b ] / [ &Xo.4XuX5X1XfXyX-XgX4Xm T R T M *.F.A.A.A.A.A.A.A.A.A.A.A.A.A.A.A.A.A.A.A.",
"A.A.A.A.A.A.A.A.A.A.A.A.A.A.A.A.A.A.A.A.F.A.>.&.dXeX8XdX8XiXdXyX8XdXdX1XfXdX&XS L E B -.F.A.A.A.A.S.A.A.A.A.A.A.A.A.A.A.A.A.A.A.",
"A.A.A.A.A.A.A.A.A.A.A.A.A.A.A.A.A.A.A.A.w.S.F.%.dXpX5XdXuX5XdXyX6XdXdX6XyXdX4XS T P l 4.A.A.A.A.A.A.A.A.A.A.A.A.A.A.A.A.A.A.w.A.",
"A.A.A.A.A.A.A.A.A.A.A.A.A.A.A.A.A.A.A.A.A.A.F.@.aXsX;XdXsX;XdXaX5XdXdX8X5XyX] L E B +.F.A.A.A.A.A.A.A.A.A.A.A.A.A.A.A.A.A.A.A.A.",
"A.A.A.A.S.A.A.A.A.A.A.A.A.A.A.A.A.A.A.A.A.r.A.< A { / { { / [ [ z [ ] ] V m D T D ^ J.S.A.A.A.A.A.A.A.A.A.A.A.A.A.A.A.A.A.A.A.A.",
"A.A.A.A.A.A.A.A.A.A.A.A.A.A.A.A.A.A.A.A.A.A.D.g l n B D J L K K Y K L K P E E T M l _ A.A.D.A.A.A.A.A.A.A.w.A.A.A.A.A.A.A.A.A.A.",
"A.A.A.A.A.w.A.A.A.A.A.A.A.A.A.A.A.A.A.A.A.A.D.F.4.y.4 n I I I H H L L L I H L H R ! l 0.A.A.A.A.A.A.A.A.A.A.A.A.A.A.A.A.A.A.A.D.",
"A.A.A.A.S.A.A.A.A.A.A.A.A.A.A.A.A.A.A.A.A.A.A.A.F.J.( I L L L L I I H L D T H H I J ^ J.F.A.A.A.A.A.A.A.A.A.A.A.A.A.A.A.A.A.A.A.",
"A.A.A.A.A.A.A.A.A.A.A.A.A.A.A.A.A.A.A.A.A.A.A.w.F.,.m U L L I H H I L I c H T R I L v ^ y.D.A.A.A.A.A.w.A.A.A.A.A.A.A.A.A.A.A.A.",
"A.A.A.A.A.A.A.A.A.A.A.A.A.A.A.A.A.A.A.A.A.A.A.A.F.=.D E L L I I H L L I m B Q B J I U S *.K.A.A.A.A.A.A.A.A.A.A.A.A.A.A.A.A.A.A.",
"A.A.A.A.A.A.A.A.A.A.A.A.A.A.A.A.A.A.w.A.A.A.A.w.F.@.J T H L H I I L H R H j J j H I I J ~ _ A.F.A.A.A.A.A.A.D.S.A.A.A.A.A.A.A.A.",
"A.A.A.A.A.A.A.A.A.A.A.A.w.A.A.A.A.A.A.A.A.A.A.A.K.>.n L L I L L L L R H L D j M T H L H Y N +.S.D.D.A.A.A.A.A.w.F.S.D.D.A.A.A.A.",
"A.A.A.A.A.A.A.A.A.A.A.A.A.A.A.A.A.A.A.A.A.A.A.A.A.^ D T H L I H R J D T H T L I L L I H L I n +.A.A.A.A.A.Z.9.7.i.Z.6.4.A.A.A.r.",
"A.A.A.A.S.s.A.A.S.A.A.A.A.A.A.A.A.A.A.A.A.A.A.F.=.M U L L H T E E c D T H L L I L L H H H I L v k >.F.A.F.u.[.@Xh.h.`.j.i.A.A.A.",
"A.A.w.S.A.S.D.D.A.A.S.A.A.A.A.A.A.A.A.A.A.A.A.F.=.B I L I I H N V j E H H T I N H P U U U I I G ( 0.A.A.F.u.].%X@X@X@XR.0.D.A.A.",
"A.A.A.A.A.A.S.8.8.D.S.D.D.A.A.S.A.A.A.A.A.A.A.F.$.j Y J J Y c +.*.l ! U T P P j ~ v Z m V v ~ *.i.A.A.A.F.,._.@X X.X X2.A.A.A.D.",
"A.A.A.A.A.D.i.h.R.3.4.6.a.A.S.A.A.A.A.A.A.A.A.F.>.f ) ) ) ) f t.%.j Z V b V n < A.u.,.,.u.p.D.F.A.A.A.D.3./.%X@XoX.X%X).3.D.A.A.",
"A.A.A.A.A.F.3.`.$X_./..X).4.D.A.A.A.A.A.A.A.A.w.F.F.J.D.D.D.F.A.8.,.,.,.,.,.,.u.D.F.S.F.F.A.A.A.A.A.D.i.h.$X#X+X+X@X@X$Xf.A.A.A.",
"A.A.A.A.A.S.i./.@X.X%X@Xh.w.S.w.A.A.A.A.A.A.A.A.A.A.A.A.A.A.A.S.S.F.F.F.F.F.F.S.A.A.A.A.A.A.A.A.A.A.w.A.a.f.(.+X@X).9.f.a.A.D.A.",
"A.A.A.A.w.A.y.].@X X+X.Xf.i.S.A.A.A.A.A.A.A.A.A.S.A.A.A.A.A.A.w.A.A.w.A.A.A.A.A.A.A.S.A.A.A.A.A.A.A.A.A.D.A.,._.+X1.Z.A.A.A.A.A.",
"A.A.A.A.A.p.[.@X@X@X@X%X Xa.D.w.A.A.S.A.A.A.A.A.A.A.A.A.A.A.A.A.S.A.A.A.A.A.A.A.A.A.A.w.A.A.A.A.A.A.A.A.A.A.A.7.9.A.S.D.A.A.A.A.",
"A.A.A.S.i.f.XXXX@X+X.X}.oXh.4.F.A.A.A.A.A.A.A.A.A.A.A.A.A.A.A.A.A.A.A.A.A.A.A.A.A.A.A.S.A.A.A.A.A.A.A.A.A.A.A.A.A.D.w.A.A.A.A.A.",
"A.A.A.A.A.s.p.7.}.$X/.u.p.6.S.r.A.A.A.A.A.A.A.A.A.A.A.A.A.A.A.A.A.A.A.A.A.A.A.A.A.A.A.A.A.A.A.A.A.A.A.A.A.A.A.A.A.A.A.A.A.A.A.D.",
"A.A.A.S.A.D.D.0.j.{.6.A.D.D.A.A.A.A.A.A.A.A.A.A.A.A.A.A.A.A.A.A.A.A.A.A.A.A.A.A.A.A.A.A.A.A.A.A.A.A.A.A.A.A.A.A.A.A.w.A.A.A.A.A.",
"A.A.A.w.A.D.A.D.7.6.A.A.A.A.A.A.A.A.A.A.A.A.A.A.A.A.A.A.A.A.A.A.A.A.A.A.A.A.A.A.A.A.A.A.A.A.A.A.A.A.A.A.A.A.A.A.A.A.A.A.A.A.A.A."
};
