/* XPM */
static char *result[] = {
/* columns rows colors chars-per-pixel */
"64 64 142 2 ",
"   c #912D28",
".  c #A92B2A",
"X  c #AB342D",
"o  c #B53B35",
"O  c #C7322D",
"+  c #C33B35",
"@  c #D43F36",
"#  c #83403D",
"$  c #AF443D",
"%  c #D74238",
"&  c #DB4439",
"*  c #E04A3F",
"=  c #805751",
"-  c #A74740",
";  c #B44C41",
":  c #A3605D",
">  c #986E64",
",  c #936B69",
"<  c #947E7D",
"1  c #A16D68",
"2  c #A47B75",
"3  c #EB5247",
"4  c #F55447",
"5  c #73A85E",
"6  c #769B6D",
"7  c #7A9E6D",
"8  c #7E9D75",
"9  c #74A563",
"0  c #76A862",
"q  c #76A468",
"w  c #79A56B",
"e  c #7DAD69",
"r  c #7FBC66",
"t  c #7EB36D",
"y  c #7FBB6C",
"u  c #7BA072",
"i  c #988B5E",
"p  c #B3A25F",
"a  c #938C6E",
"s  c #998F6C",
"d  c #9D9B7F",
"f  c #AE9F63",
"g  c #A99B69",
"h  c #A59C6C",
"j  c #A7857A",
"k  c #A8837D",
"l  c #80A677",
"z  c #86A37D",
"x  c #ACA275",
"c  c #B7A868",
"v  c #C0A962",
"b  c #CFB465",
"n  c #D1BA6A",
"m  c #D8BF69",
"M  c #8BCC6C",
"N  c #8CCF71",
"B  c #8FD876",
"V  c #8DD473",
"C  c #90D673",
"Z  c #92DB73",
"A  c #9AE57C",
"S  c #9CE97C",
"D  c #DCC371",
"F  c #E1C56B",
"G  c #E9CC6A",
"H  c #EECE71",
"J  c #F4D975",
"K  c #FADA7E",
"L  c #FFE47E",
"P  c #8E8A84",
"I  c #9E8883",
"U  c #9E9B84",
"Y  c #9C9E91",
"T  c #A58682",
"R  c #A68885",
"E  c #A88981",
"W  c #A6928B",
"Q  c #AB918A",
"!  c #8CA586",
"~  c #8CA589",
"^  c #9BB096",
"/  c #ACA584",
"(  c #A4A596",
")  c #ABA896",
"_  c #A6A798",
"`  c #A9A39D",
"'  c #B2AC98",
"]  c #B3A29C",
"[  c #A4A0A0",
"{  c #AFAFA5",
"}  c #ADACAD",
"|  c #A3B5A4",
" . c #ACBAAD",
".. c #B6B3A6",
"X. c #ADBDB3",
"o. c #B2BCB2",
"O. c #B8BDB2",
"+. c #B7BDBB",
"@. c #9EE683",
"#. c #9FED80",
"$. c #A2E784",
"%. c #A0EB8A",
"&. c #A4F286",
"*. c #B0C0B3",
"=. c #BCC3BC",
"-. c #BDC8BF",
";. c #FFE387",
":. c #C0C2BE",
">. c #C7C7C0",
",. c #C2CBC4",
"<. c #C6CCCA",
"1. c #CCCECB",
"2. c #C6D1CC",
"3. c #CBD6CF",
"4. c #C9CFD6",
"5. c #CAD3D0",
"6. c #CFD9D4",
"7. c #CFD6D9",
"8. c #CFD9D8",
"9. c #D3DCD6",
"0. c #D4DDDA",
"q. c #DBDFDF",
"w. c #D7E1DD",
"e. c #D8E2DD",
"r. c #DEE4E2",
"t. c #DFE4E8",
"y. c #E1EAE7",
"u. c #E3ECEB",
"i. c #ECEFEB",
"p. c #E6F3ED",
"a. c #E9F3EE",
"s. c #E4EDF1",
"d. c #EAEFF3",
"f. c #ECEFF8",
"g. c #E6F4F1",
"h. c #EAF3F0",
"j. c #EDF9F5",
"k. c #EEFEFB",
"l. c #F1F6F7",
"z. c #F1FAF6",
"x. c #F3F5F9",
"c. c #F3FCFB",
/* pixels */
"h.h.h.h.h.h.h.h.h.h.h.h.h.h.h.h.a.h.h.h.h.h.a.a.a.h.h.a.h.h.h.h.h.h.h.h.h.h.h.h.h.h.h.h.h.h.h.h.h.h.h.h.h.h.h.h.h.h.h.h.h.h.h.h.",
"h.h.h.h.h.h.h.h.h.h.a.h.h.h.h.h.h.h.h.h.h.h.j.a.h.h.h.h.h.h.h.h.h.h.h.h.a.h.h.h.h.a.h.h.h.h.h.h.h.h.a.h.h.h.h.h.h.h.h.h.h.h.h.h.",
"h.h.h.h.h.h.h.h.h.h.h.h.h.h.h.h.h.h.h.h.h.h.h.c.h.h.h.h.h.h.h.h.h.h.h.h.h.h.h.h.h.h.h.h.h.h.h.h.h.h.h.h.h.h.h.h.a.h.h.h.h.h.h.h.",
"h.h.h.h.h.h.h.h.h.h.h.h.h.h.h.h.h.h.h.a.j.j.u.5.u.j.a.h.h.h.h.h.h.h.h.h.h.h.h.h.h.h.h.h.h.h.h.h.h.h.h.h.h.h.h.h.h.h.h.h.h.h.h.h.",
"a.h.h.h.h.h.h.a.h.h.h.h.h.h.h.h.h.h.h.a.j.9.l l u 9.l.p.h.h.h.h.h.h.h.h.h.h.h.h.h.h.h.h.a.h.h.h.h.h.h.h.h.h.h.h.h.h.h.h.h.a.h.h.",
"h.h.h.h.h.h.h.h.h.h.h.h.h.h.h.h.h.h.h.a.l.! C %.V ! x.p.h.h.h.h.h.h.h.h.h.h.h.h.h.h.h.h.h.h.h.h.h.h.h.h.h.h.h.h.h.h.h.h.h.h.h.h.",
"h.h.h.h.h.h.h.h.h.h.h.h.h.h.h.h.h.h.a.a.h.z S @.S l d.j.h.h.h.h.h.h.h.h.h.h.h.h.h.h.h.h.h.h.h.h.h.h.h.h.h.h.h.h.h.h.h.h.h.h.h.h.",
"h.h.h.h.h.h.h.h.h.h.h.h.h.a.h.h.h.h.h.a.c.*.9 B 0  .c.a.a.h.h.h.h.h.h.a.h.h.h.h.h.h.h.h.h.h.h.h.h.h.h.h.a.h.h.h.h.h.h.h.h.h.h.h.",
"h.h.a.h.h.h.h.h.h.h.h.h.h.h.h.h.h.h.h.h.h.l.,.^ -.l.h.h.h.a.h.h.h.h.h.h.h.h.h.h.h.h.h.h.h.h.h.h.h.h.h.h.h.h.h.h.h.a.h.h.h.h.h.h.",
"h.h.h.h.h.h.h.h.h.h.h.h.h.h.h.h.h.a.h.h.g.h.c.c.c.h.h.h.h.h.h.h.h.h.h.h.h.h.h.h.h.h.h.h.h.h.h.h.h.h.h.h.h.h.h.h.h.h.h.h.h.h.h.h.",
"h.h.h.h.h.h.h.h.h.h.h.a.h.h.h.h.h.h.h.h.h.j.p.p.p.h.h.a.h.h.h.h.h.h.h.h.h.h.h.h.h.h.h.h.h.h.h.h.h.h.h.h.a.h.h.h.h.h.h.h.h.h.h.h.",
"h.h.h.h.h.h.h.h.h.h.h.h.h.h.h.h.h.h.h.h.h.h.i.h.h.h.h.h.h.h.h.h.a.h.h.h.h.h.h.h.h.a.h.h.h.h.h.h.h.h.h.a.a.h.h.h.h.h.h.h.h.h.h.h.",
"h.h.h.h.h.h.h.h.h.h.h.h.h.h.h.h.h.h.h.h.h.h.h.h.h.h.h.h.h.h.h.h.h.h.h.h.h.h.h.h.h.h.h.h.h.h.h.a.h.i.h.c.j.p.a.a.h.h.h.h.a.h.h.h.",
"h.h.h.h.h.a.h.h.h.h.h.h.h.h.h.h.h.h.h.h.h.h.h.h.h.h.h.h.h.h.h.h.h.h.h.h.h.h.a.h.h.h.h.h.h.h.h.a.h.c.y.<.t.z.a.a.h.h.h.h.h.h.h.h.",
"h.h.h.h.h.h.h.h.h.h.h.h.h.h.h.a.h.h.h.h.h.h.h.h.h.h.h.h.h.h.h.h.h.h.h.h.h.h.h.h.h.h.h.h.h.h.h.a.j.9.7 l 6 2.x.i.h.h.h.h.h.h.h.h.",
"h.h.h.h.h.h.h.h.h.h.h.h.h.h.h.h.h.h.h.h.h.h.h.h.h.h.h.h.h.h.h.h.h.h.h.h.h.h.h.h.h.h.h.h.h.h.a.p.j.! Z &.B ! j.h.h.h.h.h.h.h.h.h.",
"h.h.h.h.h.h.h.h.h.h.h.h.h.h.h.h.h.h.h.h.h.h.h.h.h.h.h.h.h.h.h.h.h.h.h.h.h.h.h.h.h.h.h.h.h.a.h.h.j.z S @.S z h.j.a.a.h.h.h.h.h.h.",
"h.h.h.h.h.h.h.h.h.h.h.h.h.h.h.h.h.h.h.h.h.a.h.h.h.h.h.h.h.h.h.h.h.h.h.h.h.h.a.h.h.h.h.h.h.h.h.a.c.=.9 N 5 *.c.u.h.h.h.h.h.h.h.h.",
"h.h.h.h.h.h.h.h.h.h.h.h.a.h.h.h.h.h.h.h.h.h.h.h.h.h.h.h.h.h.h.a.h.h.h.h.h.h.h.h.h.h.h.h.h.h.h.h.a.x.2.| ,.l.h.h.h.h.h.h.h.h.h.h.",
"a.h.h.h.h.h.h.h.h.h.h.h.h.h.h.h.h.h.h.h.h.h.h.h.h.h.h.h.h.h.h.h.h.h.h.h.h.h.h.h.h.h.h.h.h.h.h.h.j.a.c.c.c.d.h.h.h.h.h.h.h.h.h.h.",
"h.h.h.h.h.h.a.h.h.h.h.h.h.h.h.h.h.h.h.h.h.h.h.h.h.h.a.h.a.h.h.a.a.h.h.h.h.h.h.h.h.h.h.h.h.h.h.h.a.h.a.a.p.h.a.a.h.h.h.h.h.h.h.h.",
"h.h.h.h.h.h.h.h.h.h.h.h.h.h.h.h.h.h.h.h.h.h.h.h.h.h.h.h.j.h.h.h.h.h.h.h.h.h.h.h.h.h.h.h.h.h.h.h.h.h.h.h.h.h.h.h.h.h.h.h.h.h.h.h.",
"h.h.h.h.h.h.h.h.h.h.h.h.h.h.h.h.h.h.h.h.h.h.h.h.h.h.h.h.h.h.p.h.h.j.h.h.h.h.h.h.h.h.a.h.h.h.h.h.h.h.h.h.h.h.h.h.h.h.h.h.a.h.h.h.",
"h.h.h.h.h.h.h.h.a.h.h.h.h.h.h.h.h.h.a.h.h.h.h.h.h.h.h.h.a.a.j.a.p.a.g.h.h.h.h.h.h.h.h.h.h.h.h.h.h.h.h.a.h.h.h.h.h.h.h.h.h.h.h.h.",
"h.h.h.h.h.h.h.h.h.h.h.h.h.h.h.h.h.h.h.h.h.h.h.h.h.h.h.h.p.j.r.j.c.i.j.a.h.h.h.h.h.h.h.h.h.h.h.h.h.h.h.h.h.h.h.h.h.h.h.h.h.h.h.h.",
"h.a.h.h.h.h.h.h.h.h.h.h.h.h.h.h.h.h.h.h.h.h.h.h.h.h.h.h.p.c.< > 0.c.h.p.h.h.h.h.h.h.h.h.h.h.h.a.h.h.h.h.h.h.h.h.h.h.a.h.h.h.h.h.",
"h.h.h.h.h.h.h.h.g.h.l.h.h.h.h.h.h.h.h.h.h.h.h.h.h.h.h.h.a.k.k O - W t.k.i.h.h.h.h.h.h.h.h.h.h.h.h.h.h.h.h.h.h.h.h.h.h.h.h.a.h.h.",
"h.h.h.h.h.h.h.h.c.h.9.h.h.h.h.h.h.h.h.h.h.h.h.h.h.h.h.h.a.c.k & 3 @ # =.c.p.h.h.h.h.h.h.h.h.h.h.h.h.h.a.h.h.h.h.h.h.h.h.h.d.h.h.",
"h.h.h.h.h.h.h.y.O./ i 3.z.a.h.h.a.h.h.h.h.h.a.h.h.h.h.g.i.c.E @ & ; R 0.h.h.h.h.h.h.h.h.h.h.h.h.h.h.h.h.h.h.h.h.h.h.h.h.h.a.h.h.",
"h.h.h.h.h.a.c.Y c K G ) c.a.h.h.h.h.h.h.h.h.h.h.h.h.h.h.h.k.T . > 2.c.j.g.h.h.h.h.h.h.a.h.h.h.h.h.h.h.h.h.h.h.h.h.h.h.h.h.h.h.h.",
"h.h.h.a.a.g.c.:.n ;.L g 0.j.p.h.h.h.h.h.h.h.h.h.h.h.h.h.p.c.[ ` x.c.i.a.h.h.h.h.h.h.h.h.h.h.h.h.h.h.h.h.h.h.a.h.h.h.h.h.h.h.h.h.",
"h.h.h.h.h.i.h.s.g F c U r.j.p.a.h.h.h.h.h.h.h.h.h.h.h.h.h.h.j.c.h.h.h.h.h.h.h.h.h.h.h.h.h.h.h.h.a.h.h.h.h.h.h.h.h.h.h.h.h.h.h.h.",
"h.h.h.h.h.a.a.c.O.( 7.z.h.h.h.a.h.h.h.h.h.h.h.h.h.h.h.h.h.h.h.u.h.h.h.h.h.h.h.h.h.h.h.h.h.h.h.h.h.h.h.h.h.h.h.h.h.h.h.h.h.h.h.h.",
"h.h.h.h.h.a.a.a.h.c.c.a.h.h.h.h.h.h.h.h.a.h.h.h.h.h.h.h.h.h.h.h.h.h.h.h.h.h.h.h.h.h.h.h.h.h.h.h.h.h.h.h.h.h.h.h.h.h.h.h.h.h.h.h.",
"h.h.h.h.h.a.h.a.a.a.h.h.h.h.a.h.h.h.h.h.h.h.h.h.h.h.h.h.h.h.h.h.h.h.h.h.h.h.h.h.h.h.h.h.h.a.h.h.h.h.h.h.h.h.h.h.h.h.h.h.h.h.h.h.",
"h.h.h.h.h.h.h.h.h.a.a.h.h.h.h.h.h.h.h.h.h.h.h.h.h.h.h.h.h.h.h.h.h.h.h.h.h.h.h.h.h.h.h.h.h.h.h.h.h.h.h.h.h.h.h.h.h.a.h.h.h.h.h.h.",
"h.h.h.h.h.h.h.h.a.h.h.h.h.h.h.h.h.h.h.h.h.h.h.h.h.h.h.h.h.h.h.h.h.h.h.h.h.h.h.h.h.h.h.h.h.h.h.h.h.h.h.h.h.h.h.h.h.h.h.h.h.h.a.h.",
"h.h.h.h.h.h.h.h.h.h.h.h.h.h.h.h.h.h.h.h.h.h.h.h.h.h.h.h.a.h.h.h.h.h.h.h.h.h.h.h.h.a.h.h.h.h.h.h.h.h.h.h.h.h.h.p.h.h.h.h.h.h.h.h.",
"h.h.h.h.h.h.h.h.h.h.h.h.h.h.h.h.h.h.h.a.h.h.h.h.h.h.h.h.h.h.h.h.h.h.h.h.h.h.h.h.h.h.h.h.h.h.h.h.h.h.h.h.h.h.h.j.h.h.g.a.h.h.h.h.",
"h.a.h.h.h.h.h.h.h.h.h.h.h.h.h.h.h.h.h.h.h.h.h.h.h.a.h.h.h.h.h.h.h.h.h.h.h.h.h.h.h.h.h.h.h.h.h.h.h.a.h.h.h.h.h.p.a.h.c.c.i.h.h.h.",
"h.h.h.h.h.h.h.h.h.h.h.h.h.h.h.h.h.h.h.h.h.h.h.h.h.a.h.h.h.h.h.h.h.h.h.h.h.h.h.h.h.h.h.h.a.h.h.h.a.h.h.a.h.h.h.z.c.g.>.} g.h.h.h.",
"h.h.h.h.h.h.h.h.h.h.h.h.h.h.h.h.h.h.h.h.h.h.h.h.h.h.h.h.h.h.h.h.h.h.h.a.h.h.h.h.h.h.h.h.h.h.h.h.h.h.h.j.h.h.p.1.Q : X , k.i.h.h.",
"h.h.h.h.h.h.h.h.h.h.h.h.a.h.h.h.h.h.h.h.h.h.a.h.h.h.h.h.h.h.h.h.h.h.h.h.h.h.h.h.h.h.h.h.h.h.h.h.h.h.h.h.a.c.P   % 3 @ ] c.i.h.h.",
"h.h.h.h.h.h.a.h.h.h.h.h.h.h.h.h.h.h.h.h.h.h.h.h.h.h.h.h.h.h.h.h.h.h.h.h.h.h.h.h.h.h.h.h.h.h.h.h.h.h.h.h.a.h.u.< + 4 o =.c.g.h.h.",
"h.a.h.h.h.h.h.h.h.h.h.h.h.h.h.h.h.h.h.h.h.h.h.h.h.h.h.h.h.h.h.h.h.h.a.a.h.h.h.h.h.h.h.h.h.h.h.h.h.h.h.h.p.a.j.k.I + ; 0.j.h.h.h.",
"h.h.h.h.h.h.h.h.h.h.h.h.h.h.h.h.h.h.a.h.h.h.h.h.h.h.h.h.h.h.h.h.h.h.h.h.h.h.h.h.h.h.h.h.h.h.h.h.h.h.h.h.j.h.i.h.k.W = l.g.h.h.h.",
"h.h.h.h.h.h.h.h.h.h.h.h.h.h.h.h.h.h.h.h.h.h.h.h.h.h.h.h.h.h.h.h.h.j.g.a.h.h.h.h.h.h.h.h.h.h.h.h.h.h.h.h.h.h.h.h.h.j.7.h.h.h.h.h.",
"h.h.h.h.h.h.h.h.a.h.h.h.h.h.h.h.h.h.h.h.h.h.h.h.h.h.h.h.h.h.h.h.h.h.d.p.a.a.h.h.h.h.h.h.h.h.h.h.h.h.h.h.h.h.h.h.h.h.j.h.h.h.h.h.",
"a.h.h.h.a.h.h.a.a.h.h.h.h.h.h.h.h.h.h.h.h.a.h.h.h.h.h.h.h.h.h.h.j.h.j.c.j.h.a.h.h.h.d.h.h.h.h.h.h.h.h.h.h.h.h.h.h.h.h.a.h.h.h.h.",
"h.h.a.a.a.a.l.a.h.h.h.h.h.h.h.h.h.h.h.h.h.h.h.h.h.h.h.h.h.h.h.h.a.a.( ..q.j.j.h.h.a.a.h.h.h.h.h.h.h.h.h.h.h.h.a.h.h.h.h.h.h.h.h.",
"a.a.l.c.p.a.a.j.h.a.h.h.h.h.h.h.h.h.h.h.h.h.h.h.h.h.h.h.h.h.h.d.j.5.p D f _ i.h.h.h.h.h.h.h.h.h.h.h.h.h.h.h.h.h.h.h.h.h.h.h.h.h.",
"h.x.9.3.l.j.h.a.h.h.h.h.h.h.h.h.h.h.h.h.h.h.h.h.a.h.h.h.h.h.h.p.k.' H ;.J U j.a.h.h.h.h.h.h.a.h.h.h.h.h.h.h.h.h.h.h.h.h.h.h.h.h.",
"c. .q e ~ h.a.a.d.h.h.h.h.h.h.h.h.h.h.h.h.h.h.h.h.h.h.h.h.h.a.h.s.a m L b +.c.a.h.h.h.h.h.h.h.h.h.h.h.h.a.h.h.h.h.h.h.h.h.h.h.h.",
"0.w S &.l X.c.p.a.h.h.h.h.h.h.a.h.h.h.h.h.h.h.h.h.h.h.h.h.h.h.h.j.q.{ x s u.z.a.h.h.h.h.h.h.h.h.h.h.h.h.h.h.h.h.h.h.h.h.h.h.h.h.",
"5.l S $.M | c.p.h.h.h.h.h.h.h.h.h.h.a.h.h.h.h.h.h.h.h.h.h.h.h.h.a.l.c.t.0.j.h.h.h.h.h.h.h.h.h.h.h.h.h.h.h.h.h.h.h.h.h.h.h.h.h.h.",
"x.~ M M 0 e.z.a.h.h.h.h.h.h.h.h.h.h.h.h.h.h.h.h.h.h.h.h.h.h.h.h.h.a.p.j.l.h.h.h.h.h.h.h.h.h.h.h.h.h.h.h.h.h.h.h.h.h.h.h.h.a.h.h.",
"h.a.X.| e.c.h.h.a.h.h.h.h.h.h.h.h.h.h.h.h.h.h.h.h.h.h.h.h.h.h.h.h.h.h.a.h.h.h.h.a.h.h.h.h.h.h.h.h.h.a.h.h.h.h.h.h.h.h.h.h.h.h.h.",
"h.a.c.c.j.h.h.h.h.h.h.h.h.h.h.h.h.h.h.h.a.h.h.h.h.h.h.h.h.h.a.h.h.h.h.h.h.h.h.h.h.h.h.h.h.h.h.h.h.h.h.h.h.h.h.h.h.h.h.h.h.h.h.h.",
"h.j.d.p.h.h.a.h.h.h.h.h.h.h.h.h.h.h.h.h.h.h.h.h.h.h.h.h.h.h.h.h.h.h.h.h.h.h.h.h.h.h.h.h.h.h.h.h.h.h.h.h.h.h.h.h.h.h.h.h.h.h.h.h.",
"a.a.h.h.h.h.h.a.h.h.h.h.h.h.h.h.h.h.h.h.h.h.h.h.h.h.h.h.h.h.h.h.h.h.h.h.h.h.h.h.h.a.h.h.h.h.h.h.h.h.h.h.h.h.h.h.h.h.h.a.h.h.h.h.",
"h.h.a.a.h.h.h.h.h.h.h.h.h.h.h.h.h.h.h.h.h.h.h.h.h.h.h.h.h.h.h.h.h.h.h.h.h.h.h.h.h.h.h.h.h.h.h.a.h.h.h.h.h.h.h.h.h.h.h.h.h.h.h.h.",
"h.h.h.h.a.h.h.h.h.h.h.h.h.h.h.h.h.h.h.h.h.h.h.h.h.h.h.a.h.h.h.h.h.h.h.h.h.h.h.h.h.h.h.h.h.h.h.h.h.h.h.h.h.a.h.h.h.h.h.h.h.h.h.h.",
"h.h.h.h.h.h.h.h.h.h.h.h.h.h.h.h.h.h.h.h.h.h.h.h.h.h.h.h.h.h.h.h.h.h.h.h.h.h.h.h.h.h.h.h.h.h.h.h.h.h.h.h.h.h.h.h.h.h.h.h.h.h.h.a.",
"h.h.h.h.h.h.h.h.h.h.h.h.h.h.h.a.a.h.h.h.h.h.h.h.h.h.h.h.h.h.h.h.h.h.h.h.h.h.h.h.h.h.h.h.h.h.h.h.h.h.h.h.h.h.h.h.h.h.h.h.h.h.h.h."
};
