/* XPM */
static char *result[] = {
/* columns rows colors chars-per-pixel */
"64 64 222 2 ",
"   c #000000",
".  c #0D0402",
"X  c #090609",
"o  c #0C0B0A",
"O  c #110703",
"+  c #140A05",
"@  c #190C07",
"#  c #140D0A",
"$  c #180F0A",
"%  c #17140E",
"&  c #1A130E",
"*  c #0B0818",
"=  c #1A1919",
"-  c #320B00",
";  c #24150D",
":  c #271F16",
">  c #2A2218",
",  c #31251B",
"<  c #31291E",
"1  c #17102B",
"2  c #070738",
"3  c #161539",
"4  c #37163D",
"5  c #252424",
"6  c #372E28",
"7  c #3B322E",
"8  c #36323D",
"9  c #542A17",
"0  c #792400",
"q  c #6E2A11",
"w  c #501C2B",
"e  c #483A29",
"r  c #50332C",
"t  c #793D22",
"y  c #4C4335",
"u  c #594A36",
"i  c #5F503A",
"p  c #7A452A",
"a  c #654A38",
"s  c #724D3C",
"d  c #63533D",
"f  c #6F553C",
"g  c #77553B",
"h  c #08084A",
"j  c #191D4C",
"k  c #080856",
"l  c #0A0B5D",
"z  c #1C1B55",
"x  c #161659",
"c  c #2F1B4B",
"v  c #2E294B",
"b  c #323346",
"n  c #282858",
"m  c #343455",
"M  c #0C0C68",
"N  c #131464",
"B  c #12126C",
"V  c #1A196B",
"C  c #0C0C74",
"Z  c #0D0D7C",
"A  c #161678",
"S  c #231F6F",
"D  c #2A296E",
"F  c #332C63",
"G  c #353366",
"H  c #282876",
"J  c #3A3A73",
"K  c #483E52",
"L  c #48464A",
"P  c #584E44",
"I  c #48475B",
"U  c #564A59",
"Y  c #5A585A",
"T  c #6D5C43",
"R  c #665949",
"E  c #735C47",
"W  c #665859",
"Q  c #76634A",
"!  c #786448",
"~  c #7E6A4D",
"^  c #6D635B",
"/  c #796658",
"(  c #494967",
")  c #555564",
"_  c #5C5C6A",
"`  c #484876",
"'  c #535376",
"]  c #5C5C7B",
"[  c #636363",
"{  c #67676B",
"}  c #756B64",
"|  c #686978",
" . c #737374",
".. c #777576",
"X. c #7C7C7D",
"o. c #893610",
"O. c #AC3605",
"+. c #B23500",
"@. c #C83D00",
"#. c #8C4929",
"$. c #934A29",
"%. c #944928",
"&. c #934E2F",
"*. c #A4522D",
"=. c #B0572F",
"-. c #B85B32",
";. c #D24000",
":. c #E64600",
">. c #F64B00",
",. c #C15F33",
"<. c #C86336",
"1. c #CE6638",
"2. c #D66939",
"3. c #E36E3B",
"4. c #E9723D",
"5. c #816A4C",
"6. c #826C56",
"7. c #8B7555",
"8. c #8A7457",
"9. c #967B59",
"0. c #947C5A",
"q. c #836D64",
"w. c #847269",
"e. c #847873",
"r. c #F17641",
"t. c #FE7E45",
"y. c #9C825F",
"u. c #9F8562",
"i. c #8C807B",
"p. c #A18662",
"a. c #A68B65",
"s. c #A78D69",
"d. c #AE9269",
"f. c #B3956D",
"g. c #B7996F",
"h. c #BA9B6F",
"j. c #BC9E73",
"k. c #BFA175",
"l. c #FF8046",
"z. c #C2A376",
"x. c #C7A679",
"c. c #CDAB7C",
"v. c #D0AE7E",
"b. c #D7B37F",
"n. c #0C0D84",
"m. c #0D0E8C",
"M. c #0F108B",
"N. c #141483",
"B. c #13138D",
"V. c #0D0E97",
"C. c #0F1099",
"Z. c #121393",
"A. c #11119C",
"S. c #0E0FA5",
"D. c #0F10A4",
"F. c #1112A3",
"G. c #1112AB",
"H. c #0E10BA",
"J. c #1113B4",
"K. c #1213BC",
"L. c #2E2AAF",
"P. c #6A6A82",
"I. c #787888",
"U. c #1415C3",
"Y. c #1415CA",
"T. c #1718CE",
"R. c #1516D1",
"E. c #1718D5",
"W. c #1819D7",
"Q. c #1718D9",
"!. c #1819D9",
"~. c #848485",
"^. c #8A8785",
"/. c #8C8C8C",
"(. c #8B8B98",
"). c #949494",
"_. c #9C9895",
"`. c #95959A",
"'. c #9C9C9C",
"]. c #8686A1",
"[. c #9A9AA9",
"{. c #A2A2A3",
"}. c #A5A5A8",
"|. c #ABABAC",
" X c #B0B0AE",
".X c #AAAAB1",
"XX c #AEB1B2",
"oX c #B4B4B4",
"OX c #B8B9B7",
"+X c #BCBCBB",
"@X c #D8B584",
"#X c #DAB684",
"$X c #DEB985",
"%X c #E0BA86",
"&X c #E3BD8A",
"*X c #C0BFBE",
"=X c #E7C18B",
"-X c #EAC38D",
";X c #EEC690",
":X c #F4CB93",
">X c #F8CF96",
",X c #FBD197",
"<X c #FFD49A",
"1X c #FFD99D",
"2X c #BFBFC0",
"3X c #BFC0C0",
"4X c #C4C4C3",
"5X c #C9C9C7",
"6X c #CBCBCB",
"7X c #CFD0CF",
"8X c #D5D5D3",
"9X c #DBDCDB",
"0X c #E0E0DE",
"qX c #DFE0E0",
"wX c #E4E4E3",
"eX c #E7E8E9",
"rX c #EDEDEC",
"tX c #F1F1EF",
"yX c #EBECF3",
"uX c #F4F4F4",
"iX c #F7F7F7",
"pX c #FFFFFF",
/* pixels */
"pXpXpXpXpXpXpXpXpXpXpXpXpXpXpXpXpXpXpXpXpXpXpXpXpXpXpXpXpXpXpXpXpXpXpXpXpXpXpXpXpXpXpXpXpXpXpXpXpXpXpXpXpXpXpXpXpXpXpXpXpXpXpXpX",
"pXpXpXpXpXpXpXpXpXpXpXpXpXpXpXpXpXpXpXpXpXpXpXpXpXpXpXpXpXpXpXpXpXpXpXpXpXpXpXpXpXpXpXpXpXpXpXpXpXpXpXpXpXpXpXpXpXpXpXpXpXpXpXpX",
"pXpXpXpXpXpXpXpXpXpXpXpXpXpXpXpXpXpXpXpXpXpXpXpXpXpXpXpXpXpXpXpXpXpXpXpXpXpXpXpXpXpXpXpXpXpXpXpXpXpXpXpXpXpXpXpXpXpXpXpXpXpXpXpX",
"pXpXpXpXpXpXpXpXpXpXpXpXpXpXpXpXpXpXpXpXpXpXpXpXpXiXeX8X5XOX}.`.I.I.P.] ] ] I.`.oX9XtXpXpXpXpXpXpXpXpXpXpXpXpXpXpXpXpXpXpXpXpXpX",
"pXpXpXpXpXpXpXpXpXpXpXpXpXpXpXpXpXpXpXpXiX9X3XOX{.I v z V Z Z C m.V.S.J.H.K.J.A.B.H ` P.}.9XpXpXpXpXpXpXpXpXpXpXpXpXpXpXpXpXpXpX",
"pXpXpXpXpXpXpXpXpXpXpXpXpXpXpXpXpXpXwX'.P 5 & @ # X 1 R W U W 6./ W I F A Z.J.Y.R.E.U.H.B.D ] {.0XpXpXpXpXpXpXpXpXpXpXpXpXpXpXpX",
"pXpXpXpXpXpXpXpXpXpXpXpXpXpXpXpXqX~.6 + . @ @ @ @ @ + y @X<X<X1X<X>X>X=Xv.a./ U K G D Z.K.T.K.B.G | 2XiXpXpXpXpXpXpXpXpXpXpXpXpX",
"pXpXpXpXpXpXpXpXpXpXpXpXpXpXiX'.6 O o @ @ @ + + @ @ @ . 6 $X<X<X<X<X<X<X<X1X1X,X;X$Xj.T 5 l C C V.m.A ' |.tXpXpXpXpXpXpXpXpXpXpX",
"pXpXpXpXpXpXpXpXpXpXpXpXpXiX..# + @ @ + + & < & + @ @ @ X 5.<X<X<X<X<X<X<X>Xz.6.a e , & # + + + O * l Z.N.( OXiXpXpXpXpXpXpXpXpX",
"pXpXpXpXpXpXpXpXpXpXpXpXpXoX# + $ @ @ y p.v.=X9.$ @ @ @ O e >X<X<X<X<X<X:XQ & O + O @ @ @ @ @ @ @ @ O 2 C.H.V  .rXpXpXpXpXpXpXpX",
"pXpXpXpXpXpXpXpXpXpXpXpXpX[ . O O > y.:X1X1X1X1X6.+ @ @ @ > &X<X<X<X<X<Xy.O + @ @ @ + O O @ & + @ @ @ + * Z R.m.) 0XpXpXpXpXpXpX",
"pXpXpXpXpXpXpXpXpXpXpXpXpX^.e i 0.$X1X<X-Xv.h.h.f.7 + O . : $X<X<X<X<X<Xu . + O + @ : u ~ f.k.> O @ @ @ @ o Z.Q.V.) rXpXpXpXpXpX",
"pXpXpXpXpXpXpXpXpXpXpXpXwXR $X1X1X=Xd.~ ~ 7.u.a.y.f 6 T Q a.,X<X<X<X<X<Xf.u e 6 < e Q a.c.=X<Xu.$ @ @ @ @ + 2 T.W.n.| iXpXpXpXpX",
"pXpXpXiXuXpXpXpXpXpXpXpX5XR ,X@X5.Q u.@X>X1X1X1X1X<Xy.! >X1X<X<X,X<X<X<X<X#XQ Q u.k.k.a.0.~ ! 0.y O @ @ @ @ X B.!.E.B ~.pXpXpXpX",
"pXpX9X{ { uXpXpXpXpXpXtX/.5.f.R f.:X;Xx.y.7.T ! y.v.:X~ y.<X<X<X<X<X<X<Xg.R f.>X1X1X1X1X<X>X=Xa.u , $ + @ @ . v L.W.Y.z 4XpXpXpX",
"pXrXm n.m tXpXpXtX2X/.} 0.j.i #X:X0.< o           % i d.T =X<X<X<X<X:X0.; e i T 0.j.=X<X<X<X<X1X@Xd e , + O . e R N.Q.A.) uXpXpX",
"pX XN E.V (.wX'.} 7.z.-X1X>X&X$Xy           o         % 0.>X<X<X<Xj.e X           X , y.>X<X<X<X<X#Xu k.a.5.~ k.=X8 K.E.N  XpXpX",
"pX}.B Q.J.3 R p.&X<X1X<X<X<X<X~         = /.4X'.=       > $X<X<Xz.&         X         X ~ ,X<X<X<X<X0.8.1X<X1X<X<XE C.!.F.) iXpX",
"pX*Xx V.m u.=X1X<X<X<X<X<X<X<Xi         ~.pXpXpX[       o x.1X1X~       5 ).oXX.%       X s.<X<X<X<X=X6.:X,X<X<X<Xd.N Q.R.z 5XpX",
"pXwX8 R $X<X<X<X<X<X<X<X<X<X<X7.        5 '.oXX.=       < =X<X<Xi       { pXpXiXL         P <X<X<X<X<X<X<X<X<X<X1Xc.z E.!.Z /.pX",
"pXXXT :X<X<X<X<X<X<X<X<X<X<X<X$X6           X         o y.<X<X<XQ       =  .X.Y o         0.<X<X<X<X<X<X<X<X<X<X1Xc.z E.!.S.{ pX",
"uXW x.<X<X<X<X<X<X<X<X,X<X<X<X<X$X! > X           > d f.,X<X<X<Xc.:                     u :X<X<X<X<X<X<X<X,X<X<X1Xa.M !.!.V.| pX",
"6XR >X<X,X<X<X<X<X<X<X<X<X<X<X,X1X1X&Xf.0.8.7.y.g.=X<X<X<X<X<X<X<Xc.d $           X > d &X<X<X<X<X<X<X<X<X<X<X<X-Xu F.Q.!.n.~.pX",
"+XR >X<X<X<X<X<X<X<X,X<X<X<X<X<X<X<X<X<X1X1X<X$Xc.c.#X:X1X<X<X<X<X<X>X@X0.T i T 5.g.=X,X<X<X<X<X<X<X<X,X<X<X<X:XE n.W.W.W.N oXpX",
"6XR :X<X<X<X<X<X,X<X<X<X<X<X<X<X<X<X1X,X@Xy.g p &.&.#.g 7.x.<X<X<X<X<X<X1X<X<X<X<X<X<X<X<X<X<X<X<X<X<X<X<X1X>X~ B E.!.!.A.( tXpX",
"wXP -X1X<X<X<X<X<X<X<X<X<X<X<X<X<X,Xx.5.p -.2.t.l.l.l.4.-.p 5.c.<X<X<X<X<X<X<X<X<X<X<X<X<X<X<X<X<X<X<X<X1X;XE C E.!.Q.D.m 8XpXpX",
"iX} f.1X<X<X<X<X<X<X,X<X<X<X<X>Xz.! p <.r.l.l.t.t.t.l.l.l.t.-.p 0.:X<X<X<X<X<X<X<X<X<X<X<X<X<X<X<X<X<X,Xk.K B.Q.Y.m.N ( 6XpXpXpX",
"pX6XP =X1X<X<X<X<X<X<X<X1X:Xf.E t <.t.t.t.t.t.l.t.l.t.t.t.t.l.4.#.f $X<X<X<X<X<X<X<X<X<X<X<X<X<X:X@Xp.U V S.J.N.G ~.oXrXpXpXpXpX",
"pXpX`.Q -X1X<X<X,X<X<X<Xc.g #.2.t.l.l.l.l.t.l.l.t.l.t.l.t.t.t.l.4.=.a @X<X<X<X<X<X<X<X1X<X:Xc.9.L z M Z A J | |.eXpXpXpXpXpXpXpX",
"pXpXiX{.^ a.#X>X<X1X1X=Xy 9 t t %.%.%.%.*.=.,.1.1.1.1.1.1.1.1.1.2.1.#.e a.%X-X;X&X@Xz.u./ 8 = 2 k M l L {.eXpXpXpXpXpXpXpXpXpXpX",
"pXpXpXpX0X{...E 7.d.c.-X$Xb.9.r p =.<.<.-.*.%.$.%.%.#.%.%.%.$.%.%.q , L  .e.y v F S N.Z.J.J.J.U.T.W.U.B.D | `. X0XpXpXpXpXpXpXpX",
"pXpXpXpXpXpXpX .k B.A F I W 8.Q 6 9 &.3.l.l.l.l.l.t.t.t.l.l.4.<.#.} 4XiXpXpX|.z U.Q.Q.Q.Q.E.W.W.W.W.!.!.R.H.F.B.m 4XpXpXpXpXpXpX",
"pXpXpXpXpXpXpX+Xx E.!.E.Y.K.G.G.n.b /.u $.<.2.2.4.4.4.2.1.*.a ..4XiXpXpXpXpXpX/.B E.Q.W.W.W.W.W.W.W.W.W.W.!.!.!.S.I rXpXpXpXpXpX",
"pXpXpXpXpXpXpXtXI J.!.W.E.!.!.U.x {.pXeXOX_.e.w.q.6.q.w.i.}.8XpXpXpXpXpXpXpXpXuX) A.!.!.W.W.W.W.W.W.W.W.W.W.W.W.E.x OXpXpXpXpXpX",
"pXpXpXpXpXpXpXpX).C !.W.T.W.U.z '.pXpXpXpXpXpXpXpXiXiXpXpXpXpXpXpXpXpXpXpXpXpXpX4Xz T.E.W.W.W.W.W.W.W.W.W.W.W.W.Q.N oXpXpXpXpXpX",
"pXpXpXpXpXpXpXpXwXm J.K.M U.V '.pXpXpXpXpXpXpXpXpXpXpXpXpXpXpXpXpXpXpXpXpXpXpXpXiX| m.E.W.W.W.W.W.W.!.W.W.W.W.W.R.z 7XpXpXpXpXpX",
"pXpXpXpXpXpXpXpXpX'.V m.M m.{ iXpXpXpXpXpXpXpXpXpXpXpXpXpXpXpXpXpXpXpXpXpXpXpXpXpX9Xm J.!.W.W.W.W.W.W.W.W.W.W.!.U.m eXpXpXpXpXpX",
"pXpXpXpXpXpXpXpXpXpX'.3 h m 8XpXpXpXpXpXpXpXpXpXpXpXpXpXpXpXpXpXpXpXpXpXpXpXpXpXpXpX{.x Y.!.W.W.W.W.W.W.W.W.W.!.G.I iXpXpXpXpXpX",
"pXpXpXpXpXpXpXpXpXpXpX~.* '.pXpXpXpXpXpXpXpXpXpXpXpXpXpXpXpXpXpXpXpXpXpXpXpXpXpXpXpXiX[ M.W.W.W.W.W.W.W.W.W.W.!.V. .pXpXpXpXpXpX",
"pXpXpXpXpXpXpXpXpXpXpX'.Y iXpXpXpXpXpXpXpXpXpXpXpXpXpXpXpXpXpXpXpXpXpXpXpXpXpXpXpXpXpX5Xz T.W.!.W.W.W.W.W.W.!.!.V. .pXpXpXpXpXpX",
"pXpXpXpXpXpXpXpXpXpXpX)._.pXpXpXpXpXpXpXpXpXpXpXpXpXpXpXpXpXpXpXpXpXpXpXpXpXpXpXpXpXpXiX_ V.C K.!.W.W.W.W.W.Q.!.m.X.pXpXpXpXpXpX",
"pXpXpXpXpXpXpXpXpXpXiX{ +XpXpXpXpXpXpXpXpXpXpXpXpXpXpXpXpXpXpXpXpXpXpXpXpXpXpXpXpXpXpXpX XN n.l Y.!.W.W.W.!.W.!.Z /.pXpXpXpXpXpX",
"pXpXpXpXpXpXpXpXpXpXrXY wXpXpXpXpXpXpXpXpXpXpXpXpXpXpXpXpXpXpXpXpXpXpXpXpXpXpXpXpXpXpXpXrXm K.Z C E.W.W.W.W.W.!.n./.pXpXpXpXpXpX",
"pXpXpXpXpXpXpXpXpXpXtX[ 9XpXpXpXpXpXpXpXpXpXpXpXpXpXpXpXpXpXpXpXpXpXpXpXpXpXpXpXpXpXpXpXpX..B.E.h B.!.W.W.W.!.!.n.~.pXpXpXpXpXpX",
"pXpXpXpXpXpXpXpXpXpXiXY 7XpXpXpXpXpXpXpXpXpXpXpXpXpXpXpXpXpXpXpXpXpXpXpXpXpXpXpXpXpXpXpXpX).Z !.G.2 K.!.W.W.W.!.n.~.pXpXpXpXpXpX",
"pXpXpXpXpXpXpXpXpXpXpX .+XpXpXpXpXpXpXpXpXpXpXpXpXpXpXpXpXpXpXpXpXpXpXpXpXpXpXpXpXpXpXpXpX).Z !.!.Z.l T.!.!.W.!.m.~.pXpXpXpXpXpX",
"pXpXpXpXpXpXpXpXpXpXpX/.).pXpXpXpXpXpXpXpXpXpXpXpXpXpXpXpXpXpXpXpXpXpXpXpXpXpXpXpXpXpXpXiX_ F.!.W.E.C C R.E.Q.Q.m.| pXpXpXpXpXpX",
"pXpXpXpXpXpXpXpXpXpXpX4X[ uXpXpXpXpXpXpXpXpXpXpXpXpXpXpXpXpXpXpXpXpXpXpXpXpXpXpXpXpXpXpX Xx T.W.W.E.T.l V.Q.Q.Q.n.P.pXpXpXpXpXpX",
"pXpXpXpXpXpXpXpXpXpXpXiX{ OXpXpXpXpXpXpXpXpXpXpXpXpXpXpXpXpXpXpXpXpXpXpXpXpXpXpXpXpXpX2XF J.!.W.W.W.W.K.k G.!.!.m.P.pXpXpXpXpXpX",
"pXpXpXpXpXpXpXpXpXpXpXpX+X{ tXpXpXpXpXpXpXpXpXpXpXpXpXpXpXpXpXpXpXpXpXpXpXpXpXpXpXrX`.n G.!.W.W.W.W.W.!.D.2 n.J.C I.pXpXpXpXpXpX",
"pXpXpXpXpXpXpXpXpXpXpXpXpX..Y [.5XqXrXtXuXiXiXiXiXtXrXtXtXuXiXpXpXpXpXpXpXpXpXwX'.( N.Y.!.W.W.W.W.W.W.W.E.M L P.~.9XpXpXpXpXpXpX",
"pXpXpXpXpXpXpXpXpXpXpXpXpX4X3 M.A H J ` ` ' ' ' ' J J J ` ` ] I./.[.[..X[.(.P.G m.U.!.W.W.W.W.W.W.W.W.W.Q.J.I tXpXpXpXpXpXpXpXpX",
"pXpXpXpXpXpXpXpXpXpXpXpXpXuX) F.!.W.R.Y.Y.Y.U.U.Y.Y.E.T.T.Y.Y.J.S.A.Z.m.M.F.J.Y.Q.Q.W.W.W.W.W.W.W.W.!.!.!.U.c 9XpXpXpXpXpXpXpXpX",
"pXpXpXpXpXpXpXpXpXpXpXpXpXpX5Xz Y.Q.W.W.W.Q.Q.!.Q.E.!.!.W.W.!.!.Q.Q.Q.Q.!.!.Q.W.W.W.W.W.W.W.W.W.W.W.!.!.J.l j ` `.rXpXpXpXpXpXpX",
"pXpXpXpXpXpXpXpXpXpXpXpXpXpXpX .Z Q.W.W.W.W.!.W.Q.!.!.!.!.!.!.!.Q.Q.!.!.!.!.W.!.Q.W.W.W.W.W.W.W.!.E.G.A M A.E.H.l ( yXpXpXpXpXpX",
"pXpXpXpXpXpXpXpXpXpXpXpXpXpXpX8Xb F.Q.W.W.W.Q.J.N N.N.B.Z.Z.B.Z.A.J.J.K.K.K.J.G.U.Q.W.W.W.W.W.W.F.k 2 l M.B.H J ' [.uXpXpXpXpXpX",
"pXpXpXpXpXpXpXpXpXpXpXpXpXpXpXpXoXj S.Y.R.R.C.z }.6X+XoX.X X X|.`.I.| | ] P.' 1 F.Q.Q.Q.E.Q.R.Z _ _.(.].[.oX8XrXpXpXpXpXpXpXpXpX",
"pXpXpXpXpXpXpXpXpXpXpXpXrX6X'.} s q q w 4 3 b .XpXpXpXpXpXpXpXpXpXpXpXpXpXpXiX{.G A.T.R.R.K.B I.uXpXpXpXpXpXpXpXpXpXpXpXpXpXpXpX",
"pXpXpXpXpXpXpXpXpXpX9X .L 5 O - O.@.@.>.>.+.r 9XpXpXpXpXpXpXpXpXpXpXpXpXpXpXpXpX7X8 4 c 4 r e.eXpXpXpXpXpXpXpXpXpXpXpXpXpXpXpXpX",
"pXpXpXpXpXpXpXpXpXpXqX}. .> ; r s ; 0 +.o.#.w.eXpXpXpXpXpXpXpXpXpXpXpXpXpXpXpXtX..o.:.:.>.>.O.E OXpXpXpXpXpXpXpXpXpXpXpXpXpXpXpX",
"pXpXpXpXpXpXpXpXpXpXpXiX^./.4XwXXX7 / _.6XeXpXpXpXpXpXpXpXpXpXpXpXpXpXpXpXpXwX^ 0 +.o.q ;.@.0 o.9 W 8XpXpXpXpXpXpXpXpXpXpXpXpXpX",
"pXpXpXpXpXpXpXpXpXpXpXpXpXpXpXpXiXeXpXpXpXpXpXpXpXpXpXpXpXpXpXpXpXpXpXpXpXpXX.6 / _.7X.X9 9 oX|./ 6 Y uXpXpXpXpXpXpXpXpXpXpXpXpX",
"pXpXpXpXpXpXpXpXpXpXpXpXpXpXpXpXpXpXpXpXpXpXpXpXpXpXpXpXpXpXpXpXpXpXpXpXpXpXeXeXpXpXpXiXX.'.pXpXiXeXwXpXpXpXpXpXpXpXpXpXpXpXpXpX",
"pXpXpXpXpXpXpXpXpXpXpXpXpXpXpXpXpXpXpXpXpXpXpXpXpXpXpXpXpXpXpXpXpXpXpXpXpXpXpXpXpXpXpXpXpXpXpXpXpXpXpXpXpXpXpXpXpXpXpXpXpXpXpXpX"
};
