/* XPM */
static char *result[] = {
/* columns rows colors chars-per-pixel */
"64 64 245 2 ",
"   c #0B0300",
".  c #0B0400",
"X  c #140A07",
"o  c #1C1211",
"O  c #251B16",
"+  c #291B0F",
"@  c #2E251D",
"#  c #382F2B",
"$  c #551E09",
"%  c #621F0B",
"&  c #670318",
"*  c #7B021A",
"=  c #641F10",
"-  c #5D240D",
";  c #5D2514",
":  c #5D2915",
">  c #5D2B1A",
",  c #64240E",
"<  c #69270E",
"1  c #632513",
"2  c #652A15",
"3  c #6C2C14",
"4  c #6D2F1A",
"5  c #662A17",
"6  c #722E15",
"7  c #712E1A",
"8  c #6E3115",
"9  c #6D321A",
"0  c #64311E",
"q  c #723116",
"w  c #73321A",
"e  c #76351C",
"r  c #7C0A23",
"t  c #760E27",
"y  c #79182A",
"u  c #7C1930",
"i  c #6E1425",
"p  c #43362B",
"a  c #423A35",
"s  c #5C2E26",
"d  c #76262B",
"f  c #653423",
"g  c #6B3322",
"h  c #683A28",
"j  c #7A2435",
"k  c #6E2F30",
"l  c #65422E",
"z  c #694835",
"x  c #764B39",
"c  c #7B543D",
"v  c #704328",
"b  c #50443C",
"n  c #072F5A",
"m  c #003676",
"M  c #0D3968",
"N  c #793A46",
"B  c #0F4376",
"V  c #31587B",
"C  c #584E4C",
"Z  c #7B594A",
"A  c #795545",
"S  c #6A5C51",
"D  c #796658",
"F  c #736155",
"G  c #786968",
"H  c #6F757C",
"J  c #4F5E73",
"K  c #8B001C",
"L  c #82011E",
"P  c #93001D",
"I  c #9D001F",
"U  c #830322",
"Y  c #8C0323",
"T  c #8C0C2B",
"R  c #860B27",
"E  c #940225",
"W  c #9D0025",
"Q  c #950628",
"!  c #9D0229",
"~  c #930B2C",
"^  c #9A0B2D",
"/  c #84142C",
"(  c #8B122E",
")  c #84182F",
"_  c #91112D",
"`  c #970D30",
"'  c #8C1530",
"]  c #831B32",
"[  c #891932",
"{  c #921532",
"}  c #941934",
"|  c #A20026",
" . c #A2022A",
".. c #AB002C",
"X. c #BE002D",
"o. c #BC0131",
"O. c #B20833",
"+. c #B5183D",
"@. c #A91136",
"#. c #852639",
"$. c #C9002E",
"%. c #C50133",
"&. c #CC0033",
"*. c #C20B38",
"=. c #DB0139",
"-. c #D80036",
";. c #D0002D",
":. c #E0003A",
">. c #B81542",
",. c #8A3847",
"<. c #973148",
"1. c #B63656",
"2. c #AD2F4C",
"3. c #C11C4A",
"4. c #825A48",
"5. c #904F58",
"6. c #B2455B",
"7. c #A74751",
"8. c #886857",
"9. c #91715D",
"0. c #975866",
"q. c #994C60",
"w. c #BC4563",
"e. c #B85A64",
"r. c #B35B71",
"t. c #8A7667",
"y. c #957666",
"u. c #9C7478",
"i. c #8D6D6F",
"p. c #A76876",
"a. c #A67877",
"s. c #B56970",
"d. c #C2787A",
"f. c #86817A",
"g. c #97877A",
"h. c #9B8C76",
"j. c #A58A79",
"k. c #B28978",
"l. c #C4887F",
"z. c #003E86",
"x. c #00468F",
"c. c #346896",
"v. c #54718D",
"b. c #A77A83",
"n. c #BC7E81",
"m. c #7B95AC",
"M. c #6D869C",
"N. c #979287",
"B. c #928F8E",
"V. c #A78988",
"C. c #A89889",
"Z. c #AB8C92",
"A. c #B38A92",
"S. c #A69C94",
"D. c #B2959B",
"F. c #BC998F",
"G. c #AAA495",
"H. c #B5AD9B",
"J. c #B4A897",
"K. c #B9B29C",
"L. c #AFA188",
"P. c #8DA4BA",
"I. c #9DA8B3",
"U. c #ADAAA4",
"Y. c #ABAAA9",
"T. c #B8AAA5",
"R. c #B9B5AA",
"E. c #B9B8B5",
"W. c #AFADB3",
"Q. c #8A94A3",
"!. c #CB8E8B",
"~. c #CDAA99",
"^. c #C8B59C",
"/. c #D7A193",
"(. c #C3BBAB",
"). c #C8BAA8",
"_. c #C7BAB6",
"`. c #CDB4A5",
"'. c #C998A1",
"]. c #CBC4AB",
"[. c #D5C7AA",
"{. c #CAC4BD",
"}. c #C8C3B6",
"|. c #D5CCBA",
" X c #D7CBB5",
".X c #DCD2BC",
"XX c #DBD1B3",
"oX c #E3CCAD",
"OX c #E1CAB6",
"+X c #E3D5BC",
"@X c #E6D7B7",
"#X c #F1DABA",
"$X c #F1E4BC",
"%X c #AEB8C3",
"&X c #9FB1C5",
"*X c #CCBEC2",
"=X c #BAC4CA",
"-X c #CBC9C6",
";X c #D5CAC9",
":X c #DAD5C6",
">X c #D5D5D2",
",X c #DBDCDA",
"<X c #DADAD5",
"1X c #D4CFCC",
"2X c #EADDC5",
"3X c #E6DBC6",
"4X c #E2DDDC",
"5X c #E2D7D4",
"6X c #F0DFC0",
"7X c #ECE3CC",
"8X c #ECE5C8",
"9X c #FEEDC4",
"0X c #F5E6CB",
"qX c #FAE6CC",
"wX c #FCEACE",
"eX c #F4E9C7",
"rX c #FEF3CB",
"tX c #FAF5C9",
"yX c #E4E2DD",
"uX c #EDE5D1",
"iX c #FCEBD2",
"pX c #F7EBD6",
"aX c #FDF1D5",
"sX c #FFFCD2",
"dX c #FFF3DA",
"fX c #FFFADE",
"gX c #F4F0D4",
"hX c #E8DFE3",
"jX c #E4E4E3",
"kX c #EAE9E5",
"lX c #EBEBEA",
"zX c #E7EAE8",
"xX c #F3EDEC",
"cX c #FEF5E2",
"vX c #FFFAE2",
"bX c #FFFEEB",
"nX c #F2F2EE",
"mX c #F1EEF1",
"MX c #F3F3F3",
"NX c #F6F9F7",
"BX c #FBF7FA",
"VX c #F7FBFB",
"CX c #FFFFFF",
"ZX c #FAFAF6",
"AX c #EAF3EC",
/* pixels */
"CXCXCXCXCXCXCXCXCXCXCXCXCXCXCXCXCXCXCXCXCXCXCXCXCXCXCXCXCXCXCXCXCXCXCXCXCXCXCXCXCXCXCXCXCXCXCXCXCXCXCXCXCXCXCXCXCXCXCXCXCXCXCXCX",
"CXCXCXCXCXCXCXCXCXCXCXCXCXCXCXCXCXCXCXCXCXCXCXCXCXCXCXCXCXCXCXCXCXCXCXCXCXCXCXCXCXCXCXCXCXCXCXCXCXCXCXCXCXCXCXCXCXCXCXCXCXCXCXCX",
"CXCXCXCXCXCXCXCXCXCXCXCXCXCXCXCXCXCXCXCXCXCXCXCXCXCXCXCXCXCXCXCXCXCXCXCXCXCXCXCXCXCXCXCXCXCXCXCXCXCXCXCXCXCXCXCXCXCXCXCXCXCXCXCX",
"CXCXCXCXCXCXZXCXxXyXyXlXCXCXCXCXCXCXCXCXCXCXCXCXCXCXCXCXCXCXCXCXCXCXCXCXCXCXCXCXCXCXCXCXCXCXCXCXCXCXCXCXCXCXCXCXCXCXCXCXCXCXCXCX",
"CXCXCXCXCXCXCX<XJ.+X^.R.R.{.kXCXCXZXCXCXCXCXCXCXCXCXCXCXCXCXCXCXCXCXCXCXCXCXCXCXCXCXCXCXCXCXCXCXCXCXCXCXCXCXCXCXCXCXCXCXCXCXCXCX",
"CXCXCXCXCXCXCXkXg.rXrX9X8XXXK.(.,XNXCXCXNXCXBXCXVXCXCXCXCXNXmXmXxXMXMXNXCXCXCXCXCXBXCXCXCXCXCXCXCXCXCXCXCXCXCXCXCXCXCXCXCXCXCXCX",
"CXCXCXCXCXCXZXCX>XN.eX9X$X9XrX8Xh.G.1XzXCXCXBXZXCXCXyX-X{.}.].[.].].].).}.{.1XyXCXCXCXCXCXCXCXCXCXCXCXCXCXCXCXCXCXCXCXCXCXCXCXCX",
"CXCXCXCXCXCXCXZXCX4XG.[.9XrX#X4.0 0 8.K.{.>XNXCX*Xi.a.F.^.oX#XeXtXsXsXsX$X#X[.).R.-XnXCXCXCXCXCXCXCXCXCXCXCXCXCXCXCXCXCXCXCXCXCX",
"CXCXCXCXCXCXCXCXNXCXBXR.H..XA , e 7 2 z J.[.(.u.@.*.&.&.%.+.+.2.6.e.!.~.@XeXsXsX9X[.H.E.NXCXVXCXCXCXCXCXCXCXCXCXCXCXCXCXCXCXCXCX",
"CXCXCXCXCXCXCXCXCXZXCXCXjXl 1 w 9 8 q 2 0 j.j.8.d #.w.3.X.%.-.-.-.&.%.%.+.2.e.!.oXtXsXXXS.1XCXZXCXCXCXCXCXCXCXCXCXCXCXCXCXCXCXCX",
"CXCXCXCXCXCXCXCXCXCXZXCXC.> q q 9 6 6 6 6 , , 4 0 f D L.~.s.2.+.o.&.;.=.=.=.&.%.+.6.k.OXtXK.(.CXCXZXCXBXZXVXVXCXCXCXVXCXCXCXCXCX",
"CXCXCXCXCXCXCXCXCXVXCX{.: w q q 7 7 8 9 8 w q 6 q q 8 0 9.XXwX$X^.k.e.2.+.o.%.;.:.-.&.O.7./.K.E.CXBXVXCXCXCXVXVXhXMXCXBXCXCXCXCX",
"CXCXCXCXCXCXCXCXCXCXxXz 3 w 4 6 6 7 7 7 7 4 7 4 6 8 w 7 = : A L.eXfXsX$XoX~.l.e.2.+.*.;.;.X.1.5.S.CXCXMX*X'.r.1.Z zXCXVXCXCXVXCX",
"CXCXCXCXCXCXCXCXVXCXg.- w 4 7 7 7 6 8 q w 6 7 8 9 6 q 0 g 7 < - h 9.^.tXsXsXtXtX$XoX~.d.6.2.o.X.^ A.b.<.} ^ o.O.<.1.e.r.Z.hXCXCX",
"CXCXCXCXCXCXCXBXCX-X> e 4 8 9 7 7 7 w g e 7 w w w w w h h 7 9 w 6 , : c j.XXeX9X9XrXrXrXeX@X`.l.e.d ! %.=.=.-.=.=.=.&.2.0.1XCXVX",
"CXCXCXCXCXCXBXCXBXF 2 q 8 4 w w 3 7 = ; > : ; 2 1 - l h.$ 3 2 0 3 8 e 2 2 f c j.^.@X9X9X9XrX9XrXtX+X/.7.<.w.1.>.o.&.X.r.CXCXVXCX",
"CXCXCXCXCXCXZXCX(.; 7 q w 7 g 0 l h D h.g.C.g.D C.k.[..Xt.9.Z h x l h 0 f 1 , , 2 v Z j.^.@XeXrXrX9XrX$X].E.{.,X;X'.s.,.D.CXNXCX",
"CXCXCXCXCXCXCXVXA % < 4 4 e 4 z uX:X:XK.H.K.7XeXdXvXdXiXfXfX7X].}.G.j.f.t.g.Z h 2 < 3 1 : 9 x y.C.[.@X$XrXrXXX(.<XCXCXNXlXCXBXCX",
"CXCXCXCXCXCXCX4XD 8.x h 9 5 ; F :XG.H. X3X(.S.7XfXeXqXwXqXiXuXJ.K.|.:X.XG.K.|.H..X8.2 w q 6 2 , - : g.T.G.^.XX@X].K.|.CXCXVXCXCX",
"CXCXCXCXCXCXCXCXCXCXxXlXyX;XT.G.C.K.cXJ.C # @ p ).fX0XiXiX2XL.3X:Xh.G D g.(.L.G..Xj.; w 8 9 9 w e , V.CXnXkX>X-X|.}.T.N.>XCXCXCX",
"CXCXCXCXCXCXCXZXCXCXCXCXCXCX,X XcXbXf.. O S C o O |.dXwXiX0XdXS.O . X X   @ (.(.+X9., q 4 0 9 q q 8 Z BXCXCXCXCXCXZXZXkXlXCXBXCX",
"CXCXCXCXCXCXCXCXCXZXVXZXCXVXH.3XdX2X@ X G CX1X#   g.vXwXqXdX+X+ X C xXnXC . p cXaXx 3 8 4 4 2 - 2 8 f <XCXZXCXZXVXCXCXCXCXCXCXCX",
"CXCXCXCXCXCXCXCXCXBXCXkX{.T.}.aX+X|.S X X O X X @ |.iXwXiXiXuXp X # U.U.a . p pXOXf 4 q 7 : y.).4.3 2 `.CXBXCXCXCXCXCXCXCXCXCXCX",
"CXCXCXCXCXCXCXCXCXCX_.J.:XpXaXpX7X].(.S b C S f.3XdXiXiXiX0X].C.# O     X # ^.bX^.1 w 9 6 f 3XbX[.f < y.CXZXCXCXCXCXCXCXCXCXCXCX",
"CXCXCXCXCXCXCXCXCX-XH.dXaXiXqXwXiXdXiXaXaXaXdXcXiXiXiXiXiXiX2X|.(.G.N.N.J.2XdXvXj.1 e 9 6 v +XiXpX4., x lXCXCXCXCXCXCXCXCXCXCXCX",
"CXCXCXCXCXCXCXCXMXG.dXwXwXiXiXwXiXiXwXwXiXiXiXwXiXwXiXiXiXiXiXdXdXdXdXfXfXrX0XdX4.2 w 9 3 x 0XwXcXy.2 > {.CXCXCXCXCXCXCXCXCXCXCX",
"CXCXCXCXCXCXCXCX,X(.aXqXiXiXiXiXiXiXiXwXiXiXiXiXiXwXiXiXiXiXiXqXiXqXwXwXwXwXaX2Xh 4 w 9 2 Z aXqXcXy.3 , V.CXBXCXCXCXCXCXCXCXCXCX",
"CXCXCXCXCXCXCXCXyX(.dXeXwXiXpXiXiXwXiXiXiXqXiXiXiXiXiXwXiXiXiXiXwXwXiXiXiX0XdX`.1 6 4 w , y.vXwXbXy., 8 Z ZXCXCXCXCXCXCXCXCXCXCX",
"CXCXCXCXCXCXCXCXCXS.3XdXqXiXiXiXiXiXiXiXiXwXiXiXwXiXiXiXiXiXiXiXiXiXiXiXqXpXbXg.2 w 9 q ; t.3X8X.Xx 3 8 g <XCXCXCXCXCXCXCXCXCXCX",
"CXCXCXCXCXCXCXCXCXkXG.:XfXiXqXwXwXiXwXiXwXiXiXiXdXiX0XiXiXiXiXqXiXiXiXdXvXpX).l 9 8 6 q f 0 0 h h 3 q q 1 S.CXBXCXCXCXCXCXCXCXCX",
"CXCXCXCXCXCXCXCXCXCXMXU.H.3XvXdXiXiXwXqXqXiXiX.X[.K.7XaXiXaXdXaXaXpX2X).a.N > 5 q q 8 9 f g 3 6 4 w q q 1 D CXCXCXCXCXCXCXCXCXCX",
"CXCXCXCXCXCXCXCXCXCXCXCX,XS.u.).3XpXfXcXvXaXaX0X+XiXdX0X7X.X].(.E.0.#.Y E ~ j g 9 0 3 9 d f w 7 6 7 8 q 4 h yXCXCXCXCXCXCXCXCXCX",
"CXCXCXCXCXCXCXCXCXCXCXZXCXA.* T k ,.5.p.V.U.R.].N.f.g.U.E.E.-XAXj.r !  .^ } _ ~ / ) d k ( d g q 6 7 9 9 6 1 ).CXVXCXCXCXCXCXCXCX",
"CXCXCXCXCXCXCXCXCXCXCXBXCX0.P { T I I P t 5XkXM.@ o # Y.xXCXCXD.U ! ! ! _ [ ! W  .| ! Q | _ f q w 9 e e 6 - t.CXVXCXCXCXCXCXCXCX",
"CXCXCXCXCXCXCXCXCXCXCXCXxX,.R #.[ ` ^ ^ K u.W.@ # a O C *X,XA.U  .~ ~ ~ } _ ! W  .! !  .| _ 9 w 6 < = % h 4.f.CXZXCXCXCXCXCXCXCX",
"CXCXCXCXCXCXCXCXCXCXCXCX;XY } T ~ { ) i / j AXu.C a G -XCX0.r _ u u ' ^ ^ !  .^ ! ! ! ! | Q d 1 2 8.V.C.5XZXCXCXCXCXCXCXCXCXCXCX",
"CXCXCXCXCXCXCXCXCXCXVXCXA.K [ ^ W R u `  .U T.BX,XH 1XCXb.Y ..! ! T / ' Q  .! ) !  . .E  .E j J.:XCXCXCXCXCXCXCXCXCXCXCXCXCXCXCX",
"CXCXCXCXCXCXCXCXCXCXCXCX5.E [ ! | ^ T ( ~ W ,.MXCXCXCXA.r  .! ` ' ' T ~ ! ! ! ( ' ! ! !  .| 5.CXCXCXZXCXCXVXCXCXCXCXCXCXCXCXCXCX",
"CXCXCXCXCXCXCXCXCXVXCXkX] Q _  .| W  .~ / ( r b.CXCXZ.* T { ( ( _ ! !  .! ! ! ! ' ~  .! ! | [ 4XCXVXCXCXCXCXCXCXCXCXCXCXCXCXCXCX",
"CXCXCXCXCXCXCXCXCXBXCX_.* { {  .! | ! !  .Q / i _.V.t [ ' ~ !  . .! ! ! ! ! ! ..T / ! !  . .U ;XCXCXCXCXCXCXCXCXCXCXCXCXCXCXCXCX",
"CXCXCXCXCXCXCXCXCXVXCXu.K [ {  .! ! ! ! ! ! ! ~ U Y ! ^  . .! ! ! !  .! ! ! ! !  ./ T !  . .R _.CXCXCXCXCXCXCXCXCXCXCXCXCXCXCXCX",
"CXCXCXCXCXCXCXCXCXVXCXq.W T T  .! ! ! ! ! ! !  . . . .!  .! ! ! ! ! ! ! ! !  .! ! ^ ) ^ |  .L C.CXZXCXCXCXCXCXCXCXCXCXCXCXCXCXCX",
"CXCXCXCXCXCXCXCXCXVXVXN K r ~  .! ! ! ! ! W ! ! ! ! W ! ! ! ! ! ! ! ! ! ! ! !  .! ! R & #.7.0.V.NXCXZXCXCXCXCXCXCXCXCXCXCXCXCXCX",
"CXCXCXCXCXCXCXCXCXCX>XC.|.u.R ! ! ! W ! ! ! ! ! ! ! ! ! ! ! ! ! ! ! ! ! ! ! !  .! ! ,.H.uXgXfX7X_.CXCXCXCXCXCXCXCXCXCXCXCXCXCXCX",
"CXCXCXCXCXCXCXCXCXNXU.S.cXa.K  .!  .! ! ! ! ! ! ! ! ! ! ! ! ! ! ! ! ! !  .! ! ! ! E u.fXiXiXiX7XW.CXZXCXCXCXCXCXCXCXCXCXCXCXCXCX",
"CXCXCXCXCXCXCXCXCXZXU.J.R.4.E ! ! ! ! ! !  . . . .!  . . . .! ! ! ! ! | ! ! ! W ! ` t i.pX|.}.U.kXCXCXCXCXCXCXCXCXCXCXCXCXCXCXCX",
"CXCXCXCXCXCXCXCXCXCXkX-XW.G j } ] T _ { _ ~ ~ ~ ` T T ~ ~ ~ ~ ~ ~ T ~ _ R #.( / [ [ R k _.-XjXBXCXVXVXCXCXCXCXCXCXCXCXCXCXCXCXCX",
"CXCXCXCXCXCXCXCXCXCXCXCXCX{.r  .^ ! ~ R / T ' ' ' y T ' ~ t / _ { { T R Q ! ! Q R ..! R ;XCXCXCXCXCXCXCXCXCXCXCXCXCXCXCXCXCXCXCX",
"CXCXCXCXCXCXCXCXCXCXCXZXCX0.P  .W ! Q L ! W W  .U Y  . .! U E ..| ! ! L !  .W Q * ^  .K p.CXVXCXCXCXCXCXCXCXCXCXCXCXCXCXCXCXCXCX",
"CXCXCXCXCXCXCXCXCXCXCXCXxX<. .! ! | T r  . .| ^ r Q  .!  .t R  .! !  .R ~  . .^ R R  .W ,.xXCXVXCXCXCXCXCXCXCXCXCXCXCXCXCXCXCXCX",
"CXCXCXCXCXCXCXCXCXCXCXCX`.& W P P | E K  .| | | U !  .| ! U Y |  . .I K P W  .W P K K Y & D.CXBXCXCXCXCXCXCXCXCXCXCXCXCXCXCXCXCX",
"CXCXCXCXCXCXCXCXCXCXCXCXjXD.p.0.q.,.j #.j ] ] ] d ] #.[ ) j [ [ u y #.5.#.5.k N 0.p.Z._._.>XCXVXCXCXCXCXCXCXCXCXCXCXCXCXCXCXCXCX",
"CXCXCXCXCXCXCXCXCXCXCXCXCXCXCXCXCXAXG.uX2X2X2XuXG.-XMXjXyXzXlXzX-XS.gXgXgXvXR.>XCXCXCXCXCXCXCXCXCXCXCXCXCXCXCXCXCXCXCXCXCXCXCXCX",
"CXCXCXCXCXCXCXCXCXCXCXCXVXBXBXCXBXCX{.:XvXiXiXvX_.,XCXCXCXCXCXCXCXT.iXwXwXvXT.yXCXZXCXVXVXCXCXCXCXCXCXCXCXCXCXCXCXCXCXCXCXCXCXCX",
"CXCXCXCXCXCXCXCXCXCXCXCXCXCXCXCXCXCXMXW.uX0X0X0XJ.,XCXBXCXCXVXZXCXE.(.2X+X7XS.mXCXBXCXCXCXCXCXCXCXCXCXCXCXCXCXCXCXCXCXCXCXCXCXCX",
"CXCXCXCXCXCXCXCXCXCXCXCXCXCXCXCXCXCXCXE.G.(.E.{.B.yXCXCXCXCXCXCXCX,XB.:X}.E.S.CXCXCXCXCXCXCXCXCXCXCXCXCXCXCXCXCXCXCXCXCXCXCXCXCX",
"CXCXCXCXCXCXCXCXCXCXCXCXCXCXCXCXCXCXVXxX-XCXMXCXW.zXCXCXCXCXCXCXCXMXY.CXCXCX{.VXCXZXCXCXCXCXCXCXCXCXCXCXCXCXCXCXCXCXCXCXCXCXCXCX",
"CXCXCXCXCXCXCXCXCXCXCXCXCXCXCXCXCXVXZXCXH E.CXCXR.xXCXZXCXCXZXCXCXCX_.5XCX>XB.CXNXCXCXCXCXCXCXCXCXCXCXCXCXCXCXCXCXCXCXCXCXCXCXCX",
"CXCXCXCXCXCXCXCXCXCXCXCXCXCXCXCXCXCXZXW.B V E.P.v.MXCXCXCXCXCXCXCXCXQ.v.P.V M -XCXCXCXCXCXCXCXCXCXCXCXCXCXCXCXCXCXCXCXCXCXCXCXCX",
"CXCXCXCXCXCXCXCXCXCXCXCXCXCXVXZXAXI.V m x.x.m m n %XCXCXCXZXCXZXCXM.n z.m x.x.B v.-XVXVXCXCXCXCXCXCXCXCXCXCXCXCXCXCXCXCXCXCXCXCX",
"CXCXCXCXCXCXCXCXCXCXCXCXCXCXCXCXE.v.M.m.m.Q.P.&XW.jXZXCXCXZXCXCXCX,X=X&Xm.v.v.c.V J jXCXCXCXCXCXCXCXCXCXCXCXCXCXCXCXCXCXCXCXCXCX",
"CXCXCXCXCXCXCXCXCXCXCXCXCXCXCXCXCXCXCXCXCXCXCXCXCXCXZXCXCXCXCXCXCXCXCXCXCXCXCXCXCXCXVXVXCXCXCXCXCXCXCXCXCXCXCXCXCXCXCXCXCXCXCXCX",
"CXCXCXCXCXCXCXCXCXCXCXCXCXCXCXBXVXCXCXVXVXCXVXVXCXVXCXCXCXCXCXCXCXCXZXZXCXVXCXCXCXZXCXCXZXCXCXCXCXCXCXCXCXCXCXCXCXCXCXCXCXCXCXCX",
"CXCXCXCXCXCXCXCXCXCXCXCXCXCXCXCXCXCXCXCXCXCXCXCXCXCXCXCXCXCXZXCXCXCXCXCXCXCXCXVXCXCXCXCXCXCXCXCXCXCXCXCXCXCXCXCXCXCXCXCXCXCXCXCX"
};
