/* XPM */
static char *result[] = {
/* columns rows colors chars-per-pixel */
"32 32 249 2 ",
"   c #0C2F02",
".  c #162B09",
"X  c #1A380B",
"o  c #193A14",
"O  c #192D12",
"+  c #243919",
"@  c #213114",
"#  c #1F3422",
"$  c #142423",
"%  c #1D4913",
"&  c #234017",
"*  c #374A2B",
"=  c #345A2B",
"-  c #39572C",
";  c #345B33",
":  c #366632",
">  c #42593A",
",  c #45483D",
"<  c #406F38",
"1  c #313E4F",
"2  c #1D5E59",
"3  c #2E5058",
"4  c #196059",
"5  c #1E7147",
"6  c #2F7754",
"7  c #1B576D",
"8  c #1B5776",
"9  c #1C4F7A",
"0  c #364E69",
"q  c #385569",
"w  c #2D4F77",
"e  c #3C4B7C",
"r  c #394C78",
"t  c #275878",
"y  c #375678",
"u  c #275367",
"i  c #1D616A",
"p  c #256468",
"a  c #2E6C6F",
"s  c #475744",
"d  c #494A53",
"f  c #4D7456",
"g  c #667654",
"h  c #484565",
"j  c #554B77",
"k  c #45497C",
"l  c #6B586A",
"z  c #6D5D77",
"x  c #745874",
"c  c #6F4D66",
"v  c #4E6764",
"b  c #586A6A",
"n  c #4E7877",
"m  c #647E67",
"M  c #6F6B74",
"N  c #835F6D",
"B  c #B07F7A",
"V  c #9F6A72",
"C  c #63823F",
"Z  c #4D983D",
"A  c #559F4E",
"S  c #7D915E",
"D  c #69A85A",
"F  c #558762",
"G  c #4D9674",
"H  c #648878",
"J  c #77956F",
"K  c #53A86F",
"L  c #71AB73",
"P  c #51AC5F",
"I  c #7FCD69",
"U  c #73D577",
"Y  c #859B78",
"T  c #8B926E",
"R  c #B39B71",
"E  c #88A563",
"W  c #86A579",
"Q  c #93A57B",
"!  c #B6A578",
"~  c #AFB47C",
"^  c #C79379",
"/  c #C8887F",
"(  c #C6A47B",
")  c #81DD78",
"_  c #84E967",
"`  c #89EA76",
"'  c #8CF073",
"]  c #1C5484",
"[  c #1F5498",
"{  c #1F4F8C",
"}  c #2E4E8B",
"|  c #2A4D86",
" . c #344C83",
".. c #3A4A82",
"X. c #344C8C",
"o. c #3A488B",
"O. c #22548C",
"+. c #265586",
"@. c #325087",
"#. c #2B4D93",
"$. c #244D9C",
"%. c #2D4D9A",
"&. c #264D93",
"*. c #334B92",
"=. c #314C9B",
"-. c #3B4792",
";. c #235294",
":. c #24529D",
">. c #295295",
",. c #3D539F",
"<. c #3A748C",
"1. c #1E4DA9",
"2. c #1F52A1",
"3. c #244EA4",
"4. c #294DA1",
"5. c #244DAA",
"6. c #2B4CAB",
"7. c #2B47AA",
"8. c #2451A4",
"9. c #2952A3",
"0. c #2451AC",
"q. c #2951AA",
"w. c #224CB0",
"e. c #454784",
"r. c #4B5493",
"t. c #625A8D",
"y. c #5B6697",
"u. c #53718B",
"i. c #6E6B8B",
"p. c #666AA6",
"a. c #525AA3",
"s. c #90758B",
"d. c #B47F8D",
"f. c #907CA8",
"g. c #4A8A96",
"h. c #4B9290",
"j. c #55908F",
"k. c #699B9E",
"l. c #71988A",
"z. c #58A092",
"x. c #5C96A2",
"c. c #6EAD9C",
"v. c #7AC7A1",
"b. c #849481",
"n. c #999883",
"m. c #928A98",
"M. c #BA898C",
"N. c #A78995",
"B. c #B88598",
"V. c #AF918E",
"C. c #99B78C",
"Z. c #92B190",
"A. c #A2BF8E",
"S. c #A5AF9B",
"D. c #A9B894",
"F. c #B2AA8A",
"G. c #908EB3",
"H. c #AF94AA",
"J. c #92B6AC",
"K. c #B5ACA6",
"L. c #CC8A86",
"P. c #D88988",
"I. c #C79A89",
"U. c #D29686",
"Y. c #CA8D98",
"T. c #D28992",
"R. c #C79494",
"E. c #D19F98",
"W. c #C5AB86",
"Q. c #C4B486",
"!. c #D2A39C",
"~. c #CFB793",
"^. c #E5B09E",
"/. c #C18DA2",
"(. c #C592A1",
"). c #D2B1A8",
"_. c #E4BBA8",
"`. c #99C28A",
"'. c #80DB87",
"]. c #99C494",
"[. c #86DB99",
"{. c #96DB8C",
"}. c #A5D898",
"|. c #B6D799",
" X c #ACC495",
".X c #88E883",
"XX c #94E48C",
"oX c #95E495",
"OX c #B8E39B",
"+X c #A4E797",
"@X c #8AD9A7",
"#X c #93C8B8",
"$X c #83D2B4",
"%X c #90D3AB",
"&X c #ABCCA6",
"*X c #B5D4A8",
"=X c #BCDDB3",
"-X c #AFCBB2",
";X c #96E2A3",
":X c #B9E7AA",
">X c #BAF5A7",
",X c #AFEBAD",
"<X c #C8D499",
"1X c #CFE799",
"2X c #D9FA98",
"3X c #C6F597",
"4X c #E1FF95",
"5X c #CACCB0",
"6X c #E7CBB1",
"7X c #C5E8A3",
"8X c #D9F4A6",
"9X c #CBEAB7",
"0X c #D0F5B3",
"qX c #E5FCB8",
"wX c #EAF9AD",
"eX c #8681C1",
"rX c #9CCEC3",
"tX c #B3D7C5",
"yX c #B2F0C7",
"uX c #D9C5CB",
"iX c #C7D9C6",
"pX c #D6D9CC",
"aX c #EECBC8",
"sX c #CFEFC3",
"dX c #C7E2CA",
"fX c #D2EEC3",
"gX c #C9F8C8",
"hX c #D8FAC4",
"jX c #CCF7DA",
"kX c #F8FCC7",
"lX c #FCE7D9",
"zX c #E3FFD6",
"xX c #E5FDDD",
"cX c #EBFEDB",
"vX c #E1F4DE",
"bX c #FEFCDC",
"nX c #F4FCDA",
"mX c #E5F4C5",
"MX c #C7ECE1",
"NX c #FBE7E7",
"BX c #EAFEE7",
"VX c #F2FFE5",
"CX c #FDFEEC",
"ZX c #F6F9E6",
"AX c #E7FEF2",
"SX c #FCFEF4",
"DX c #FFF5FB",
"FX c #FAF9F6",
"GX c #FAECF3",
/* pixels */
"$.3.0.0.5.5.5.3.8.>.+.3 v -XtXH u w w *.9.9.8.2.8.2.5.3.3.=.*.X.",
"$.3.8.5.w.5.3.$.:.O.t 3 f &XdXZ.n w w } &.$.8.8.8.5.1.3.4.#.X. .",
"9.3.5.5.q.5.5.:.;.+.p 4 6 ].gXjXJ.n u t O.;.:.8.3.1.0.5.$.>.}  .",
"q.5.3.3.0.6.9.;.] 7 4 5 P {.>X>X;XK 6 i 7 ] ;.9.3.5.0.0.:.&.} @.",
"7.4.5.5.0.5.&.O.8 4 5 P ` ' ' ' XX'.K 6 i 8 ] :.:.1.0.8.8.>.X.@.",
"7.6.5.5.6.8.;.<.h.K P U ` ' ' _ ` .XU P G h.<.] ;.:.8.8.9.%.#. .",
"6.7.4.$.3.&.+.h.v.@Xv..X` ` _ _ ' ) ` [.v.v.x.<.{ [ 8.8.8.%.X.X.",
"6.5.3.$.;.t 7 z.;XoXXX,XoXA Z I ) Z D ,XyXrXk.+.9 O.8.9.4.%.X.o.",
"6.6.8.;.] t a K [.XX+XgX*X: % L L % : =XjXtXk.a t ] :.8.3.%.}  .",
"5.0.8.;.O.<.z.v.[.+X>XzXiXs O b.W o s 9XAXMXrXk.<.+.{ $.%.=.X. .",
"1.1.2.[ 8 h.$X@XXX>XqXBXpXs @ Y W + > pXFXAXMXrXj.a ] &.9.%.} | ",
"0.1.[ ] 8 j.$X@XXX>XhXVXuXs O J W X 3 iXAXAXjX%XG 2 7 ;.%.%.} y ",
"1.2.O.8 i h.[.;X+X7XhXZXpXg - W W = g dXFXBXgX}.L 6 p +.$.%.} @.",
"8.:.] 7 4 G ;X,X>XqXkXbXZX5XS. X`.`.*XxXBXcXhX7X{.L n t #.=.}  .",
"5.$.O.t a K L |.0XwXkXbXSXSXxX=X|.hXxXBXVXVXqX8X3X}.H t #.=.} @.",
"6.5.O.g.c.F : D 8XqXkXbXCXSXBX=XOXhXBXAXVXbXqX2X2X:Xl.y #.%.*.X.",
"7.$.} j.#XF   C 8X4XwXkXCXSXBX:XOXhXzXxXcXqX2X4X4X3Xl.u &.#.o...",
"5.4.| g.J.F   g 8X8X1XmXZXSXBX=X*XhXzXBXhX7X1X2X2X XH 0 | #.X.e ",
"7.2.&.u.l.m > g Q T S Q S.S.Z.J J Z.Z.C.Q S E E E J v r o.*.X. .",
"0.3.&.r v J n.g + . X @ + + & o o % & + X X X X X # 1 r o.-. . .",
"0.3.} y b T F.S , * - - - - - ; ; = = = = = ; ; # $ 0 p.r.X. . .",
"3.$.X.y.m.V.W.R T Q C.~ A.C.].C.].`.`.`.`.`.].Z.H s i.k.y.X. .e ",
"=.6.p.f.B.I.^ ( ~  X|.7XfXfXsXsXgX9X9X9X:X*X|. XQ M m.eXp...e e ",
"-.a.eXH.T.^ ^ R ! F.<X9XBXVXBXVXxXxXxXzX9X*XD.F.F.F.H.G.y...e k ",
"r.r.p.f.B.T.^ ( ( 1XwXkXZXSXFXSXCXCXSXZXnXmX5X~.F.M.m.i.r.o.o.e ",
"-.-.e.i.d.Y.U.( <X6XkXlXZXGXDXDXDXSXZXZXbXlX6X!.I.V.x k e.*.X.e ",
"=.o.e i.S.).~.W.( ~.6X_.6XNXGXDXDXFXlX6X_._.^.U.B N j e.-.*.X.r ",
"7.*. .u.G.&X~.W.^ ^ ^ / E.aXNXDXDXNXaX!./ P.P.T.V c j e.*.*.X. .",
"%.#.| v H Y D.W.L.L.P.T.T.!.uXGXGXuX!.P.P.P.P.T.d.s.t...-.*.X...",
">.} X.u 3 v b.n.V.d.M.d.M.N.H.uXuXK.L.L.P.T.P.T./.G.t.o.X.o...k ",
"}  .r r q h b l x x x x l l x i.s.V.M.R.T.T.Y./.s.t.j ......r r ",
"+.| r r y 0 0 0 h h h h h h d d l N.H.R.Y.Y.(.H.N c h e  .e r 0 "
};
