/* XPM */
static char *result[] = {
/* columns rows colors chars-per-pixel */
"32 32 223 2 ",
"   c #180604",
".  c #250C13",
"X  c #260C10",
"o  c #2E1824",
"O  c #342B2E",
"+  c #2A3337",
"@  c #37363D",
"#  c #352E36",
"$  c #481926",
"%  c #45262D",
"&  c #5B212F",
"*  c #59293A",
"=  c #48393A",
"-  c #56343D",
";  c #373E66",
":  c #333657",
">  c #502540",
",  c #563347",
"<  c #453841",
"1  c #763847",
"2  c #673B53",
"3  c #3C4059",
"4  c #3B4469",
"5  c #32417D",
"6  c #394578",
"7  c #555A5D",
"8  c #5C4652",
"9  c #674B53",
"0  c #7A4B54",
"q  c #625857",
"w  c #6F665F",
"e  c #585965",
"r  c #43517E",
"t  c #59657F",
"y  c #686969",
"u  c #746A69",
"i  c #6A6B73",
"p  c #776973",
"a  c #7B7078",
"s  c #8A3F66",
"d  c #944359",
"f  c #8E5B77",
"g  c #A34B68",
"h  c #A15C78",
"j  c #B35E79",
"k  c #8C646D",
"l  c #99697A",
"z  c #98787D",
"x  c #2D3F91",
"c  c #3A3D82",
"v  c #2E448B",
"b  c #2F4B89",
"n  c #364B83",
"m  c #33448C",
"M  c #334B8C",
"N  c #374687",
"B  c #3C5489",
"V  c #2D4C94",
"C  c #2E479B",
"Z  c #2D4C9B",
"A  c #2E4491",
"S  c #324B94",
"D  c #35479A",
"F  c #324C9B",
"G  c #374A9B",
"H  c #2E519C",
"J  c #2B5395",
"K  c #3B5392",
"L  c #31529B",
"P  c #3C5599",
"I  c #365697",
"U  c #2D4DA3",
"Y  c #2D4DAB",
"T  c #324CA2",
"R  c #344AA7",
"E  c #2D52A4",
"W  c #355BAA",
"Q  c #3C60B8",
"!  c #455893",
"~  c #5C6589",
"^  c #556C9D",
"/  c #5B6A9B",
"(  c #596995",
")  c #6D738D",
"_  c #697588",
"`  c #686E99",
"'  c #64749B",
"]  c #697596",
"[  c #717596",
"{  c #6C6D8B",
"}  c #5A6CA3",
"|  c #546DA4",
" . c #5873A7",
".. c #4D71BF",
"X. c #4B6FA3",
"o. c #646FA8",
"O. c #657AA2",
"+. c #6976AA",
"@. c #6678A8",
"#. c #426FC2",
"$. c #547FDD",
"%. c #4B74CC",
"&. c #8E6182",
"*. c #996B84",
"=. c #9D7C85",
"-. c #A56482",
";. c #B7718D",
":. c #B47891",
">. c #B36D8A",
",. c #C17090",
"<. c #C0698B",
"1. c #6F86AF",
"2. c #6986B8",
"3. c #598CDE",
"4. c #5986D9",
"5. c #5B94DC",
"6. c #5F90D5",
"7. c #668BC7",
"8. c #7F9BCD",
"9. c #618BD8",
"0. c #6391D4",
"q. c #6192DB",
"w. c #6D95D3",
"e. c #7FA0D3",
"r. c #5C96E5",
"t. c #6195EA",
"y. c #7DA7E3",
"u. c #9E938F",
"i. c #96989C",
"p. c #BF8196",
"a. c #A9929B",
"s. c #9BA09C",
"d. c #8D97A9",
"f. c #9C9CA6",
"g. c #939DA9",
"h. c #8999B8",
"j. c #9498B3",
"k. c #8184A7",
"l. c #A08DA3",
"z. c #B592A5",
"x. c #9FA0B5",
"c. c #9BA0A3",
"v. c #AAA9BD",
"b. c #BABABC",
"n. c #D69DBD",
"m. c #C4BDBC",
"M. c #C4A9B2",
"N. c #CAC7B6",
"B. c #89A4CB",
"V. c #9AAACA",
"C. c #9CB3C8",
"Z. c #85A6D3",
"A. c #8AACD7",
"S. c #9AB7D4",
"D. c #89B0D9",
"F. c #A0AFCE",
"G. c #A4B2CD",
"H. c #BEBCC3",
"J. c #A6BAD6",
"K. c #81ADEA",
"L. c #CEA4C3",
"P. c #D7A4C3",
"I. c #C7B9C3",
"U. c #E4A1C2",
"Y. c #BDC6C7",
"T. c #B0C1DB",
"R. c #ACC9E9",
"E. c #B3CDE6",
"W. c #C9C9CC",
"Q. c #D4CDCD",
"!. c #D6CAC9",
"~. c #CDD0CD",
"^. c #D2D2CE",
"/. c #CBCED1",
"(. c #C9CDDC",
"). c #C6CFD8",
"_. c #D3CCD3",
"`. c #D6CED8",
"'. c #CCD0D6",
"]. c #CAD3DC",
"[. c #C6D5DB",
"{. c #D1D3D4",
"}. c #D6D6D9",
"|. c #E7CED9",
" X c #D6E1DD",
".X c #CACCE7",
"XX c #C4D4E2",
"oX c #CBD4E3",
"OX c #CEDAE5",
"+X c #C7D4EB",
"@X c #D4DCE5",
"#X c #D3DEEA",
"$X c #D6D9E3",
"%X c #D0CAE4",
"&X c #F1CEE2",
"*X c #F1D8E8",
"=X c #E8DBE4",
"-X c #CAE6EE",
";X c #D4E1EB",
":X c #D7E5E8",
">X c #DCFFEF",
",X c #CEE2F3",
"<X c #CBE8F8",
"1X c #DBEAF4",
"2X c #D5E7F2",
"3X c #DDF0F6",
"4X c #E2E7E8",
"5X c #EFF1EE",
"6X c #F6F2ED",
"7X c #E7EBF1",
"8X c #EBF4F3",
"9X c #EEFAF5",
"0X c #EEFBFD",
"qX c #EAF5FC",
"wX c #F4F2F4",
"eX c #FAF3F5",
"rX c #F5FEF6",
"tX c #FCFEF5",
"yX c #F1F5F8",
"uX c #FDF6FE",
"iX c #F5FDFD",
"pX c #FDFDFD",
"aX c #F1E7E8",
/* pixels */
"J H F m 4 ] (.pXpXpXpXpXpXpXuXpXtX].) ; 4 4 6 N F E E T F V F F ",
"H H S ! ~ g.$XpXpXtXpXpXpXpXpXpXpX}.d._ ) ) [ } P Z U L V V F F ",
"E U V | C.:XyXrXtXtXtXpXpXpXpXpXpX8X}.'.(.$X%XC.| J J S V F T T ",
"U Y F | S.OXXX;X8XtXtXpXpXpXpXpXiXpXpXpXiXpXpX;Xh.X.J V F G T R ",
"T T G W X. .@.h.#XpXtXtXpXpXpXpXiXpXpXpXiXrXtXyX-XS. .m D D R Y ",
"G R R U V V x +.+XpXpXtXtXtXpXpXpXpXpXpXiXiXiXpX0X+X@.c D T R Y ",
"G R R U T T x } +XiXpXtXtXtXpXpXeXtXpXpXpXpXiXrXiX(.{ N m F U Y ",
"G T T Z Z T | h.#XpXtXtXtXpXpXpXeX6X'.I.I.I.I.].wX:Xj./ K F U U ",
"D T F V b ^ C.:X7XpXrXpXpXpXpXpXuX_.u = - < < { `.uX:XG.} V F H ",
"T F L V 5 1.E.rXiXpXpXpXpXpXpXeX`.u.- X     . , l.}.yX+X+.S Z H ",
"Z L V V M ' [.rXpXpXiXiXpXpXpX^.p > 9 - . . , 2 , a {.OX+.F Z E ",
"U L L V S O.[.tXrXpXpXpXpX6XQ.u.- * *.-.* , *.&.> 9 I.#X+.v C U ",
"U C H V M O.oXpXiXpXiXtXpXQ.u = 1 l L.n.h h n.L.h l |..X+.m C Z ",
"T T L V v } G.#XuX5X/.{.5Xm.=   1 :.L.U.<.>.U.P.>.:.&X%X' N v V ",
"T F V L Z P / j.7X{.y y ^.m.= X 1 l :.,.-.j ;.>.-.p.*X%X` 6 n b ",
"G S V L C G N ~ j.f.7 y Q.}.p 8 -.;.j g d d g g s &.z.v.k.O. .@.",
"Y U E H G N 6 ; : e c.~.yXwX^.N.$XI.=.0 & & d 0 O o O e v.oXoX}.",
"Y U H V S ! / ~ 3 i ~.pXpXpXpXeXuX=XM.k $ % k z 9 = @ i ).0X#XoX",
"U H I V M } G..XY.).5XtXpXpXpXpXiXeX*Xa.% % z.=X!.m.m./.7X;Xd.) ",
"Z J M V v ' [.rXpXiXpXpXpXuXpXuXtXpXuX_.u q s.}.6XpXpXpXrX[.] 4 ",
"L v M M N ' [.rXpXpXpXpXpXpXpXpXtXpXuXeXQ.s.7 i {.pXpXpXiX[.] 6 ",
"D S M K / d. XtXtXpXpXpXpXpXpXpXpXpXpXtXtXY.+ + b.pXpXeX#XC.( 5 ",
"N M n / F.#X8XpXpXpXpXpXpXpXpXtXpXpXpXtXpXY.@ + H.pXpX#Xd.( B K ",
"+./ r ] oXiXiXpXiXpXtXpXrXiXtXiXpXaX!.m.H.g.e i ~.pXrX(.` n V H ",
"+XG.t t [.pXpXpXiXrXrXiX0X0X0XrXpXQ.w O @ e c.}.5XtXpX.X@.S D U ",
"iXOXd.i. XpXiXiXrX9X:X-X,X,X;X1XrX^.u O # i {.pXtXyX#XJ.} F U U ",
"iX9X:X}.5XpXiXpX9X2XT.B.B.B.V.T.4X8X_.m.b._.yXiXiX@Xh.^ K Z Z U ",
"E.:X9XiXiXiXiX0X2XE.e.2.2.2.1.V.:XiXiXtXiXrX1X2X<XR.@.S V H Z U ",
"` h.@XiXiXiXiX2XT.e.w.0.0.2.2.A.-X0XiXrXyX3XJ.B.Z.Z.7.%.W H H H ",
"5 ( C..X.X@XqX,XZ.7.5.6.0.w.8.J.1XrXiX0X7XT.Z.7.7.0.9.4.#.W W L ",
"n B / o.` h.#X<XD.0.5.5.q.y.R.<XqXiXiX7XJ.B.w.q.r.r.r.3.3.%.W V ",
"b 6 N m c ] [.<XD.0.5.5.q.K.<X>XiXiXiX#XF.$.3.r.r.r.r.r.r.4.Q Z "
};
