/* XPM */
static char *result[] = {
/* columns rows colors chars-per-pixel */
"32 32 246 2 ",
"   c #1D3D14",
".  c #22381C",
"X  c #2E3F34",
"o  c #1D4119",
"O  c #244319",
"+  c #1F4123",
"@  c #1A5F29",
"#  c #344C2E",
"$  c #354637",
"%  c #2F4C33",
"&  c #475B27",
"*  c #5E713C",
"=  c #4E6C30",
"-  c #4E591F",
";  c #1A5E4E",
":  c #1A5C5B",
">  c #265555",
",  c #35555B",
"<  c #2E4B4F",
"1  c #397F40",
"2  c #1B5765",
"3  c #1D5577",
"4  c #2B4D6C",
"5  c #255666",
"6  c #2B4C79",
"7  c #334F73",
"8  c #255879",
"9  c #38566C",
"0  c #286775",
"q  c #376B7C",
"w  c #337675",
"e  c #347569",
"r  c #50704B",
"t  c #617A56",
"y  c #6C744F",
"u  c #4C5165",
"i  c #467668",
"p  c #5B7567",
"a  c #4B6F73",
"s  c #64797A",
"d  c #6D6F67",
"f  c #4A5654",
"g  c #867F63",
"h  c #3B8337",
"j  c #6CA139",
"k  c #598435",
"l  c #32854F",
"z  c #599D51",
"x  c #70864B",
"c  c #5AA05A",
"v  c #528970",
"b  c #729464",
"n  c #5AA167",
"m  c #7CA36C",
"M  c #7DA667",
"N  c #7AA472",
"B  c #77BE74",
"V  c #79F94C",
"C  c #7EEF5A",
"Z  c #7DF457",
"A  c #76D774",
"S  c #72CE6D",
"D  c #7FF060",
"F  c #7FCB4F",
"G  c #99A453",
"H  c #9CB55C",
"J  c #84A959",
"K  c #AAB35D",
"L  c #8C9D71",
"P  c #969072",
"I  c #B09374",
"U  c #89A369",
"Y  c #81A371",
"T  c #89B57A",
"R  c #97AF66",
"E  c #B8AA66",
"W  c #B5B66D",
"Q  c #C5986A",
"!  c #D78A78",
"~  c #C99577",
"^  c #D18D74",
"/  c #E1847C",
"(  c #C1A56A",
")  c #C6AE79",
"_  c #99C45B",
"`  c #9AD857",
"'  c #ABD95B",
"]  c #8AED4B",
"[  c #8CF54A",
"{  c #8BED58",
"}  c #97E657",
"|  c #84F152",
" . c #8CF154",
".. c #86F25B",
"X. c #99F250",
"o. c #A4EE59",
"O. c #B0F956",
"+. c #93D96E",
"@. c #A5C767",
"#. c #B7CC68",
"$. c #A4D967",
"%. c #A8C772",
"&. c #A6D977",
"*. c #BBC974",
"=. c #8AEC67",
"-. c #96E667",
";. c #84F468",
":. c #8BEB7A",
">. c #97EC79",
",. c #98F676",
"<. c #93F370",
"1. c #A7E765",
"2. c #A7F569",
"3. c #A5E979",
"4. c #B9F06B",
"5. c #C4FE65",
"6. c #D0F873",
"7. c #E2FF7B",
"8. c #1E5387",
"9. c #1F5296",
"0. c #1F4E9E",
"q. c #2B4D89",
"w. c #294C87",
"e. c #3A4489",
"r. c #225584",
"t. c #24538C",
"y. c #2C558A",
"u. c #2B4C95",
"i. c #264D9D",
"p. c #2A4D9B",
"a. c #254B97",
"s. c #364993",
"d. c #235393",
"f. c #24529C",
"g. c #2A5398",
"h. c #355892",
"j. c #346F87",
"k. c #1D4EA3",
"l. c #1C51A7",
"z. c #244DA4",
"x. c #294DA5",
"c. c #244EAA",
"v. c #294CAB",
"b. c #2451A4",
"n. c #2451AB",
"m. c #2A4DB1",
"M. c #525598",
"N. c #45528B",
"B. c #466D89",
"V. c #546D89",
"C. c #4D6E98",
"Z. c #517894",
"A. c #4F6DA3",
"S. c #7075AD",
"D. c #6E719E",
"F. c #827BA7",
"G. c #807890",
"H. c #578696",
"J. c #5E998D",
"K. c #729794",
"L. c #59A493",
"P. c #78A48B",
"I. c #789EA7",
"U. c #6699A7",
"Y. c #72AFAE",
"T. c #79C896",
"R. c #71C790",
"E. c #7FC8AB",
"W. c #8D938D",
"Q. c #B7948F",
"!. c #8BB694",
"~. c #A6B788",
"^. c #9394B0",
"/. c #93B4AD",
"(. c #B7B0B3",
"). c #A997A7",
"_. c #CA8C89",
"`. c #D98A84",
"'. c #C59588",
"]. c #D4978E",
"[. c #E38382",
"{. c #E69991",
"}. c #C8A79B",
"|. c #C9A889",
" X c #E5A099",
".X c #CEB7B0",
"XX c #EBBBB6",
"oX c #99D287",
"OX c #A7D88B",
"+X c #A9CC97",
"@X c #AAD698",
"#X c #B5D690",
"$X c #94E78D",
"%X c #A9E89A",
"&X c #AFED93",
"*X c #9AC8BC",
"=X c #98D1AC",
"-X c #B9DAA7",
";X c #B6C3B5",
":X c #AAD8B1",
">X c #B9D6B8",
",X c #ACCAAC",
"<X c #9AE3A3",
"1X c #B9F9A8",
"2X c #B5E7B0",
"3X c #C5D496",
"4X c #C7CE93",
"5X c #C3FF97",
"6X c #D2F094",
"7X c #E6FE88",
"8X c #EAFF95",
"9X c #F0FE9F",
"0X c #C2D8AA",
"qX c #C8CEBA",
"wX c #C8E5A9",
"eX c #D7E9A5",
"rX c #C2FCAC",
"tX c #D4F0AD",
"yX c #E7FAB8",
"uX c #E7F2A9",
"iX c #E4D4A3",
"pX c #90B5C9",
"aX c #9E9CC6",
"sX c #B6C7C6",
"dX c #BBD7D2",
"fX c #A5CFCE",
"gX c #93E0C0",
"hX c #B5E4C8",
"jX c #BCDFE3",
"kX c #C8CED0",
"lX c #F0D5D2",
"zX c #D3FAC4",
"xX c #C9F3CD",
"cX c #E7FBC8",
"vX c #EBFBD7",
"bX c #F7FFD7",
"nX c #F1F1D0",
"mX c #C7D9E8",
"MX c #D4D7E5",
"NX c #D4FDE8",
"BX c #CCECEE",
"VX c #F6E7E8",
"CX c #F6FFE4",
"ZX c #FEFDFE",
"AX c #F9F4F6",
"SX c #EDF5EF",
/* pixels */
"d.f.z.x.z.c.n.v.m.v.x.u.w.4 < d 3X3Xy # , r.f.b.b.z.m.m.c.b.z.x.",
"0.b.b.b.x.b.z.i.p.p.u.q.6 , p W.6X3XG r 5 8.9.9.i.b.x.x.z.z.c.c.",
"l.l.b.b.n.g.d.w.q.7 7 4 > i !.2XtX6X&XT l 3 8.8.t.g.b.b.z.b.x.n.",
"l.l.b.z.g.b.A.Z.V.s s s p N %XrX5X5X5X%Xn l v w r.r.d.f.z.l.n.n.",
"n.n.i.a.t.A.pXdXqX0X4X#XOXOX3.>.,.2.,.:.A S R.L.w 3 t.p.i.z.k.l.",
"n.z.i.u.w.V./.xXyX9X9X7X6X2.o.{ ..Z C D ;.T.$XT.v 0 8 t.d.b.k.l.",
"n.b.p.q.w.u p P 3X8X7X6.O.O. .| Z C C D ..;.:.T.E.L.q 8 t.f.k.b.",
"c.z.p.h.6 < $ r H 6.6.4.o. .| | C ;.<.,.,.,.,.$X<X*XJ.j.y.f.k.b.",
"c.x.p.y.7 < # & = j ` o.X. ...Z =.>.1X1XrX&X$X%XxXBX*XU.j.9.l.b.",
"c.z.g.h.V.s b t k j _  . . .....OX1XzXzX@XoXOX@X=X:XdX*XA.9.0.b.",
"v.i.u.A.aXdX-X@XOX=.=.| |  . .<.1XzXvX>Xt r T T r d sXfXZ.8.9.b.",
"z.z.p.A.pXxXNXzX1X&X;.| ] ] } 2.zXvXCX(.# O M Y . X sXjXH.r.t.g.",
"c.c.i.h.B.^.hXhX&X;.| [ [ X.} 2.zXvXCX;X% O N Y . X sXmXH.3 8.r.",
"c.c.p.w.5 a !.<X$X;.| [ X.o.1.4.cXbXCX;X$ O m Y . < sXBXU.j.0 8 ",
"m.v.u.w.4 < r c A ..X.X.O.5.6.6XnXbXCX(.$ + N L . $ sXBXgXU.q 2 ",
"v.p.u.N.V.H.v z S  .X.O.5.7.7X8XbXbXCX;X$ + N P . $ sXNXBXpXj.: ",
"x.p.t.V./.-X#X&.-.=.O.5.5.7.7X9XcXbXbX;X% o N N . $ ;XSXNX*XH.; ",
"s.a.q.Z./.tXyX5X4.1.O.4.#.*.7X8XyXcXvXqXt * T T r p *XNXNX*Xa ; ",
"p.a.w.9 p P iXtX4.' ' H = * 4X7XeXtXcXcX-X+XOXOX@X-X>XhXhX*Xi > ",
"t.a.r.4 < y W 4X*.#.#.G - - U %.U U ~.+X,X@X@X@X@X/.!.P.Y.K.a 5 ",
"3 r.8 8 , f d g I E E E G x = O O O # % # t @X+Xt % + < e q 8 8 ",
"j.j.0 5 4 u u d I Q.~ ( W G - o O O o + + = +XOX= . + X > 6 r.d.",
"Y.L.w 2 4 N.D.Q.Q.].~ Q E H J U M M M L N T oX@XT N P.J.q 8.9.9.",
"gXE.J.i , d G.}._.`.! Q K @.&.&.OXOX&XwX2X-X-X-X>X:X=XU.j.9.9.b.",
"<X<X=X!.r r P Q.`.! ^ Q *.&.3.+.OX#XtXcXcXnXvXvXSXdXK.a y.9.b.b.",
"R.oX1X@XM x P Q._.~ Q E #.&.-.-.#X0XeXnXnXVXAXZXZXMX^.Z.h.a.b.b.",
"h z +.%X@X#X#XW E ~ E K ' -.-.3.uXuX4X}.}.kXVXAXZXAXMXaXA.u.i.f.",
"@ 1 B <X1X5XOX%.K E K H ` ` $.3.uXiX].I Q.}.lXAXSXZXZXmXS.e.u.u.",
"; l R.<X$X$X-.-.$.$.` ` } } 1.$.) ) ~ ! _.].}..XVXAXAXMXD.6 e.s.",
"2 w L.R.:.D C ..=.} } { ] ` $.@.E ~ ! `.[.[.].XXVXAXVXkXF.M.M.e.",
"3 0 w n A D Z V Z | | | { ` _ H Q ^ ! [.[.{.XXlXVXVXXXaXF.S.M.e.",
"3 2 ; l S D Z V V V V Z ..-.H K Q ! / [.[.{.lXVXAXMX.X).aXaXM.e."
};
