/* XPM */
static char *_d6d7d1b9c5d455490fee3d4d95c2a4666hLfrl89tLsYpIi[] = {
/* columns rows colors chars-per-pixel */
"16 16 254 2 ",
"   c #6E3017",
".  c #3A3F52",
"X  c #3B3B55",
"o  c #3D2F64",
"O  c #35296B",
"+  c #273B6E",
"@  c #433A4F",
"#  c #543145",
"$  c #773B57",
"%  c #344453",
"&  c #384653",
"*  c #32445A",
"=  c #31425C",
"-  c #37415C",
";  c #13467D",
":  c #2E4066",
">  c #42424E",
",  c #444059",
"<  c #42445B",
"1  c #5D5256",
"2  c #465B76",
"3  c #41597F",
"4  c #4D5D7F",
"5  c #52667E",
"6  c #91211F",
"7  c #AE2213",
"8  c #993738",
"9  c #C12E1C",
"0  c #C63727",
"q  c #CB3D25",
"w  c #AA641C",
"e  c #B4671F",
"r  c #B9651F",
"t  c #9F4139",
"y  c #B64324",
"u  c #A76123",
"i  c #A56F27",
"p  c #AA6E25",
"a  c #A26F2E",
"s  c #B96525",
"d  c #B86821",
"f  c #BF7B3C",
"g  c #C16A27",
"h  c #A84049",
"j  c #B64B45",
"k  c #B25F5B",
"l  c #8D6A4A",
"z  c #A4685D",
"x  c #847369",
"c  c #867F6F",
"v  c #987E63",
"b  c #C25143",
"n  c #C47D47",
"m  c #CB6362",
"M  c #C7853B",
"N  c #CA8739",
"B  c #D8863D",
"V  c #878378",
"C  c #86817B",
"Z  c #8B847E",
"A  c #8A8D7A",
"S  c #8B8F7E",
"D  c #92847B",
"F  c #93867E",
"G  c #C98244",
"H  c #CB8E4F",
"J  c #D9874F",
"K  c #DD894D",
"L  c #D59347",
"P  c #DE9757",
"I  c #EC9D58",
"U  c #EA9A5D",
"Y  c #DEB450",
"T  c #E5A05B",
"R  c #E1B256",
"E  c #EAB358",
"W  c #EBBE59",
"Q  c #F4BE5E",
"!  c #E1A660",
"~  c #EAA063",
"^  c #E1B961",
"/  c #E3B967",
"(  c #E8BC63",
")  c #E0B46D",
"_  c #EFC468",
"`  c #FFC974",
"'  c #FFC976",
"]  c #FFCD77",
"[  c #FFCF7B",
"{  c #FFCF7F",
"}  c #FFD07E",
"|  c #FFD37F",
" . c #173F87",
".. c #1A3B98",
"X. c #144780",
"o. c #1A4186",
"O. c #1E4B86",
"+. c #194C85",
"@. c #14428F",
"#. c #194B8A",
"$. c #04538C",
"%. c #195385",
"&. c #195089",
"*. c #1F518C",
"=. c #0E4190",
"-. c #064F9E",
";. c #094E99",
":. c #124193",
">. c #104297",
",. c #1B4694",
"<. c #184890",
"1. c #194890",
"2. c #1D4897",
"3. c #134199",
"4. c #13429E",
"5. c #075296",
"6. c #0A5493",
"7. c #0F5499",
"8. c #135393",
"9. c #105795",
"0. c #1A5895",
"q. c #11539F",
"w. c #18529B",
"e. c #264585",
"r. c #2B4286",
"t. c #245283",
"y. c #2C508A",
"u. c #295489",
"i. c #3E588B",
"p. c #234896",
"a. c #2A5E90",
"s. c #365C9D",
"d. c #396781",
"f. c #376D87",
"g. c #0945A7",
"h. c #0A49A6",
"j. c #0B4EA7",
"k. c #054CA8",
"l. c #074EAA",
"z. c #084DA8",
"x. c #0A4CAC",
"c. c #0C4CAD",
"v. c #0C4EAE",
"b. c #1047A1",
"n. c #1649A2",
"m. c #124BA4",
"M. c #144DA4",
"N. c #1B4FA2",
"B. c #184BA7",
"V. c #124AAB",
"C. c #124DA9",
"Z. c #124FAA",
"A. c #104FAC",
"S. c #1A4FAB",
"D. c #0B52A0",
"F. c #0C51AE",
"G. c #0C53AF",
"H. c #1051A3",
"J. c #1253A7",
"K. c #1850A7",
"L. c #1C50A4",
"P. c #1052A9",
"I. c #1550AE",
"U. c #1056AC",
"Y. c #1952AB",
"T. c #0B4FB0",
"R. c #0D4AB4",
"E. c #134EB2",
"W. c #154CB1",
"Q. c #134EB4",
"!. c #104DB7",
"~. c #0F51B2",
"^. c #0D51B6",
"/. c #1052B0",
"(. c #1153B3",
"). c #1551B1",
"_. c #1055B0",
"`. c #1156B5",
"'. c #1454B5",
"]. c #1953B7",
"[. c #1459B4",
"{. c #1352B9",
"}. c #1C51BB",
"|. c #384EA3",
" X c #495683",
".X c #455B80",
"XX c #4B5E96",
"oX c #4E6380",
"OX c #4E708C",
"+X c #5D669D",
"@X c #4E789E",
"#X c #667C89",
"$X c #63709C",
"%X c #4E6BA3",
"&X c #5F6FA3",
"*X c #5467AC",
"=X c #5F7BA0",
"-X c #0E52C1",
";X c #8C8384",
":X c #8B8D82",
">X c #88959B",
",X c #8890A3",
"<X c #B58AA6",
"1X c #C59684",
"2X c #C99099",
"3X c #C7A389",
"4X c #C7BD8C",
"5X c #D0B997",
"6X c #C690B2",
"7X c #FFBEA8",
"8X c #F3AFBC",
"9X c #FFD782",
"0X c #FFD384",
"qX c #FFD78B",
"wX c #FFD38C",
"eX c #FFD597",
"rX c #FFE39A",
"tX c #FFEE9F",
"yX c #FFF09F",
"uX c #FFC8AD",
"iX c #FFD4AA",
"pX c #FFD9AE",
"aX c #FFCCB7",
"sX c #FFCBBA",
"dX c #F5D6BA",
"fX c #FFD7BB",
"gX c #FFD9BC",
"hX c #FFEAA1",
"jX c #FFEBA3",
"kX c #FFECA5",
"lX c #FFEEA4",
"zX c #FFE7AA",
"xX c #FFECAB",
"cX c #FFEFAC",
"vX c #FFF1AA",
"bX c #FFEDB9",
"nX c #9CB1DC",
"mX c #A5ADC0",
"MX c #B4C9E4",
"NX c #FFCBCA",
"BX c #FFD9CA",
"VX c #FFCED5",
"CX c #F1E0C6",
"ZX c #ECF2CC",
"AX c #EEE7DD",
"SX c #F2EAD5",
"DX c #FFEFD7",
"FX c #FAF5DF",
"GX c #FDDFE9",
"HX c #FFEDFF",
"JX c #FDF3FF",
"KX c #F4FFFF",
"LX c #FFF8FB",
"PX c #FEFEFF",
/* pixels */
"C.A.k.j.N.N.P.~.~.C.w.0.9.5.G.x.",
"I.h.F.[.M.m.(.c.B.p.+ .X@X%.H.U.",
"V.)./.k.z.T.-X}.|.o 2Xz x #X&.5.",
"].g.v.`.U.'.!...O $ b y   1 u.D.",
"R.{.^.F.Y.:.o.+X6Xh 9 q t # e.U.",
"!.Q.Y.=.o.%XnXJX8X6 0 7 8 <Xr.Y.",
"Q.>.y.$XMXKXPXLXNXk j m VXHX*X3.",
"n.s.mXAXSXCXdXgXfXuX7XsXBXGXXX2.",
"<.3 v a i p w e d r g s u l 2 +.",
"<.4 iX| 9X] ` | [ ` { 0XqXpX5 X.",
"4.&XDXU K eXcXI B wXxX~ J aX$X@.",
"b.i.3Xf G P T M N L ! H n 1X X,.",
"6.d.4X^ _ R E Q W Y ( / ) 5XoXO.",
"$.f.ZXvXlXhXkXrXtXhXjXzXbXFXOX; ",
";.a.>Xc D F C :XS A V Z ;X>Xt.8.",
"H.#.= > @ , - * % & & , X + *.7."
};
