/* XPM */
static char *result[] = {
/* columns rows colors chars-per-pixel */
"16 16 30 1 ",
"  c #1B7AA0",
". c #1B7DA4",
"X c #1C789C",
"o c #1C779B",
"O c #1B7A9F",
"+ c #1B7DA5",
"@ c #1B7CA4",
"# c #1B7AA1",
"$ c #1B7BA1",
"% c #1B7CA3",
"& c #1B799E",
"* c #1C799E",
"= c #1B799F",
"- c #1C789D",
"; c #1B7BA2",
": c #1C779C",
"> c #1C799F",
", c #1C779A",
"< c #1B789D",
"1 c #1C799D",
"2 c #1B789E",
"3 c #1981AE",
"4 c #1B79A0",
"5 c #1A7DA7",
"6 c #1A7EA8",
"7 c #1A7BA3",
"8 c #1A7DA5",
"9 c #1A7CA4",
"0 c #1980AD",
"q c white",
/* pixels */
" .XooOooo+XoooO@",
"X#$oX%&*oo X.= -",
"$;:o+:> oo;XX> :",
"::XoXoo:Xooooo,o",
"  .Xooo ;ooo-=#o",
"**ooo #ooooo@&*-",
"ooooo--ooooooooX",
":.$$oo ;oo :ooo+",
"o-XX:oXXoo;X,O;<",
"XXo:+XoXo;:o;-:<",
"$$oo:oo.X :o :o:",
"# oooo*@XooooX-o",
"  oooo@O:@Xoo=$o",
"; -=.Xooo1ooO;o2",
"&,> -o*>oooo::O+",
"34=5678@ 72o-#90"
};
