/* XPM */
static char *result[] = {
/* columns rows colors chars-per-pixel */
"64 64 254 2 ",
"   c #1A3512",
".  c #243A18",
"X  c #20390E",
"o  c #23352E",
"O  c #1C4416",
"+  c #274418",
"@  c #324D1D",
"#  c #2D4A23",
"$  c #344927",
"%  c #2C5426",
"&  c #345529",
"*  c #3B5533",
"=  c #364733",
"-  c #376830",
";  c #455834",
":  c #4A6A3A",
">  c #2A3C44",
",  c #4E3E5D",
"<  c #2F5156",
"1  c #1B6255",
"2  c #2E6F55",
"3  c #1B5968",
"4  c #1C5678",
"5  c #384D68",
"6  c #265868",
"7  c #38546A",
"8  c #2B4D7C",
"9  c #3B4B7D",
"0  c #364D78",
"q  c #275678",
"w  c #3A5477",
"e  c #2B4F65",
"r  c #286868",
"t  c #2A6978",
"y  c #396674",
"u  c #38706D",
"i  c #1D5F5C",
"p  c #494659",
"a  c #4E4D5B",
"s  c #576C46",
"d  c #4C7445",
"f  c #527052",
"g  c #677A59",
"h  c #687850",
"j  c #584766",
"k  c #46487B",
"l  c #4D526F",
"z  c #675469",
"x  c #6D5471",
"c  c #506F71",
"v  c #667965",
"b  c #7A6676",
"n  c #6E7575",
"m  c #624A5A",
"M  c #8A6777",
"N  c #8E6274",
"B  c #499038",
"V  c #3D8870",
"C  c #3B8E5A",
"Z  c #548852",
"A  c #688659",
"S  c #6C8D56",
"D  c #67B256",
"F  c #528D73",
"G  c #778A68",
"H  c #708E70",
"J  c #57AB70",
"K  c #7CA774",
"L  c #6BB06C",
"P  c #55A25E",
"I  c #77CA74",
"U  c #869372",
"Y  c #B89B77",
"T  c #A89B78",
"R  c #85A678",
"E  c #94AF75",
"W  c #AFAF7A",
"Q  c #C2967D",
"!  c #C5A37C",
"~  c #86D577",
"^  c #81D56C",
"/  c #8AE878",
"(  c #90EC7B",
")  c #1E5387",
"_  c #1F5395",
"`  c #2D4E8C",
"'  c #2A4E86",
"]  c #354C85",
"[  c #3A4B83",
"{  c #334C8B",
"}  c #3A4B8A",
"|  c #3B4688",
" . c #235484",
".. c #2D5184",
"X. c #23538C",
"o. c #285887",
"O. c #335487",
"+. c #2C4E94",
"@. c #254E9D",
"#. c #2A4D9B",
"$. c #254E94",
"%. c #314D93",
"&. c #384895",
"*. c #235394",
"=. c #23529C",
"-. c #2A5198",
";. c #365193",
":. c #2C6485",
">. c #356886",
",. c #3A778A",
"<. c #3C7392",
"1. c #244EA4",
"2. c #294DA4",
"3. c #244DAA",
"4. c #2A4DAB",
"5. c #2451A4",
"6. c #2951A3",
"7. c #2450A9",
"8. c #2852AB",
"9. c #1F4EA3",
"0. c #454A85",
"q. c #465389",
"w. c #595888",
"e. c #4D5594",
"r. c #526B90",
"t. c #716F90",
"y. c #7074A7",
"u. c #5B5F9A",
"i. c #967988",
"p. c #8C738F",
"a. c #A47887",
"s. c #8D7EA6",
"d. c #3E8481",
"f. c #468588",
"g. c #58999A",
"h. c #528C92",
"j. c #709191",
"k. c #5AA391",
"l. c #6DAC8F",
"z. c #76AFA9",
"x. c #6597A2",
"c. c #79C699",
"v. c #7AD187",
"b. c #7AC5A7",
"n. c #988898",
"m. c #928F88",
"M. c #B89788",
"N. c #AA8798",
"B. c #B88A97",
"V. c #A89498",
"C. c #B89599",
"Z. c #AC8E8A",
"A. c #87B989",
"S. c #92B08E",
"D. c #A9A78A",
"F. c #B8A694",
"G. c #ADB48F",
"H. c #908EAF",
"J. c #AE8EA5",
"K. c #87B3AC",
"L. c #A7BCA4",
"P. c #B3AFA8",
"I. c #C98B89",
"U. c #D38A8B",
"Y. c #C69688",
"T. c #CA8C96",
"R. c #D28A92",
"E. c #C59498",
"W. c #D39890",
"Q. c #C8A986",
"!. c #C5AB95",
"~. c #D8A99C",
"^. c #C7B598",
"/. c #D0B78E",
"(. c #D9B6A7",
"). c #CDAFB1",
"_. c #DAB2AA",
"`. c #8AD898",
"'. c #95DA99",
"]. c #8ECB90",
"[. c #A6C899",
"{. c #B6C99B",
"}. c #A6D39A",
"|. c #B9D898",
" X c #B8C98C",
".X c #8AE585",
"XX c #96E98B",
"oX c #9AE598",
"OX c #98EB8F",
"+X c #A8E69C",
"@X c #8BD8A9",
"#X c #95DBA8",
"$X c #8FCCB3",
"%X c #ACCAA3",
"&X c #B5C8A7",
"*X c #B6DAA7",
"=X c #B8D6B4",
"-X c #ADD1B2",
";X c #97E1A4",
":X c #A7E7A6",
">X c #B7E8A9",
",X c #BCE6B5",
"<X c #B3F1AF",
"1X c #CFCE98",
"2X c #CDED9A",
"3X c #C6DAA8",
"4X c #D1D5AF",
"5X c #E7CAB7",
"6X c #E9D4B3",
"7X c #C5E9A7",
"8X c #C8F3A9",
"9X c #D9FAA7",
"0X c #C6E5B9",
"qX c #C9F6B8",
"wX c #D9FAB8",
"eX c #D6EAB0",
"rX c #E2F9A9",
"tX c #E7FCB8",
"yX c #EBECB9",
"uX c #E3FE9E",
"iX c #9ACDC4",
"pX c #B0DACA",
"aX c #B7E7CA",
"sX c #D9CECB",
"dX c #ECD3D0",
"fX c #C9E8C6",
"gX c #D6EBC5",
"hX c #C9F5C5",
"jX c #D9F7CA",
"kX c #D8E8D4",
"lX c #D9F5D4",
"zX c #C7EEDB",
"xX c #E7FCC9",
"cX c #F6FDC9",
"vX c #E3FDD4",
"bX c #E6FEDB",
"nX c #ECFCDB",
"mX c #EAFCD5",
"MX c #F8FCD9",
"NX c #F0E9D2",
"BX c #D9FAE7",
"VX c #CCF5E3",
"CX c #FAE8E8",
"ZX c #EDFEE3",
"AX c #E7FCE7",
"SX c #F2FFE3",
"DX c #FBFCE4",
"FX c #FBFEEC",
"GX c #F8F9E9",
"HX c #FFF4F4",
"JX c #FEFCF3",
"KX c #FFF4F9",
"LX c #F4F5F2",
"PX c #EDD9E4",
/* pixels */
"@.@.1.1.7.8.8.7.3.3.3.3.3.9.9.9.=.-.:.o.o.q e < a F L.-XpXL.m.c 7 < 6 8 8 ..' +.#.#.6.6.=._ 9.9.7.7.7.9.3.9.3.1.1.2.#.%.&.%.{ { ",
"@.1.1.1.7.7.7.7.3.3.3.3.3.9.9.9.=.*.=.o. .7 e < 2 H S.pXpX-Xj.F c e e 7 q 8 ' +.*.-.-.6.5.5.5._ 5.7.7.7.3.3.3.9.2.#.#.%.%.{ { { ",
"@.@.1.1.7.7.7.7.3.3.3.3.3.9.9.9.*.=.*.o.q 6 e < 7 H K.=XaX-XA.j.c y y q q 8 ..X.` $.=.6.5.5.9.9.7.9.9.7.3.3.7.5.1.#.#.+.%.{ { ] ",
"@.1.2.1.9.7.7.3.3.3.3.3.1.1.@.$.=.*.o. .q 6 i < 2 F S.-XfXaX$XK.j.c u 7 e q 8 ' X.$.*.$.=.=.5.5.9.7.9.7.3.3.1.5.2.#.+.+.` { { { ",
"2.6.1.1.1.1.3.1.4.7.4.7.3.6.=.*.*.X. .4 i 1 1 1 2 A A.:XfXhXaX-XK.l.c y 6 e q  .o.o.*.@.=.=.5.5.7.9.9.7.9.7.9.5.1.@.$.+.` ` { { ",
"6.6.6.1.1.3.3.1.7.4.7.4.3.6.-.*.X.) 4 q 3 1 1 1 2 F A.}.aXhXhX<X-XK.F u r 6 6 q  .) ) ) _ *.=.5.5.5.7.9.7.7.7.7.@.$.+.+.` { O...",
"6.6.6.1.3.1.1.1.8.8.3.8.6.=.=.*.) ) 4 3 i 1 1 B Z L ~ oX<X<XqX<X;X].L F u r r 6 3 4 4 ) ) _ =.5.5.5.7.7.9.7.7.9.@.@.+.+.` ' ` { ",
"2.4.3.4.3.3.3.3.8.8.4.4.=.#.X.X.q 4 3 i 1 2 C C P D ].XX<X+X<X<X:X`.v.J F C r i 3 3 4 ) ) _ *.=.5.5.9.5.7.9.7.5.6.#.-.+.` ` ` O.",
"4.3.4.3.4.3.3.3.8.8.1.1.@.*.X.o.4 3 3 1 1 C C J I ^ / ( ( OXOX( OX.X`.I J V 2 1 i 3 3 4 ) ) _ _ 5.5.9.9.7.9.7.5.6.@.-.+.%.` O.O.",
"3.3.4.8.4.3.3.1.8.3.1.@.*.X.o.o.) V V 1 1 C J I I / ( ( ( ( ( ( .X.X`.v.v.J V C r r t :.:._ _ X.*.=.5.9.9.5.7.5.6.@.#.+.+.` ` { ",
"2.4.3.3.3.3.3.1.3.3.1.@.*.X.>.<.d.d.V C C C J I / / ( ( ( ( / / / .X.X.Xv.v.J C V V V d.<.:.*.) *.=.=.=.5.5.5.7.6.6.-.-.+.` { { ",
"4.4.4.4.4.3.1.1.1.1.=.X.X.) <.h.k.k.k.k.J J I v.v..X( ( ( ( / ^ ( .X.X.X.Xv.J l.k.k.g.g.h.<.:.:.*._ _ _ 5.5.5.8.6.6.#.+.+.{ ` { ",
"4.4.4.4.4.5.6.@.@.@.=.) o.:.f.g.b.b.b.c.v.v.v..X.X.X/ / / / / / ( / .X.X.X].v.c.c.b.z.z.g.<.:.) ) _ _ *.=.5.5.5.2.@.#.+.%.%.O.{ ",
"4.4.2.2.4.2.=.=.=.*.) ) 4 t f.g.b.b.b.;Xc.OXOXOXXX( / I ^ ^ ^ / / / ~ ~ I ].;X#X@X@XiXb.z.g.,.4 ) ) ) *.*.=.5.5.@.2.#.+.{ { { { ",
"4.2.2.2.2.=.6.$._ X.) 4 t t f.x.b.;X;X;X;XOXOXOX+X~ I D D D D ^ ~ ^ D D D I oX#XaXaX@X$Xz.8.<.:.) 4 ) *.*.5.6.=.1.@.#.%.%.%.{ } ",
"&.4.2.2.@.@.@.$.*.) ) 4 3 t d.z.b.@X;X;X;XoX+X<X+X~ D B B B D ^ I D B B Z L '.<XaXaXpX$Xz.g.<.) 4 ) ) ) *.=.6.6.2.#.#.+.{ { { ] ",
"4.4.3.3.3.1.9.$.) ) 4 3 3 V V k.v.;X#XoXoX:X<XqX,X].A 2 & - D R K D - - : H [.aXzXzXpXiXK.h.u q q 4  . .*.*.6.=.6.@.#.%.%.%.{ { ",
"3.4.3.3.3.3.$._ _ ) :.t t V k.c.v.`.oXoX:X>XqXhX,X].Z & O % Z R K S - O - Z K.fXkXzXzXiXK.x.h.,.o.q :. .*.*.=.6.@.#.#.%.%.{ { { ",
"3.3.3.3.1.1._ X._ :._ d.d.d.k.c.`.;XoX:X<X<XhXjXfX[.h $ O # Z R R S % O % Z ].fXBXBXVXpXiXK.x.h.,.>.q )  ._ @.@.@.#.%.;.%.{ { ' ",
"3.3.3.3.9._ =.) _ _ d.f.k.b.b.b.`.;X:X<X8XwXjXjXeXL.f o X @ A R R Z %   % g L.fXAXBXVXzXpXiXK.x.h.,.t 4 ) ) $.$.#.#.#.+.%.{ ' ] ",
"9.7.7.7.5.=._ ) :.:.d.g.z.b.@X@X'.oX<XqXqXjXvXvXgXP.g = . $ G U R S & O & v L.kXBXAXBXVXVXpXiXz.g.f.t q 4 ) $.$.#.-.+.+.%.O.' { ",
"7.9.9.9.9._ _ ) 4 :.d.g.b.@X@X@XXXOX<X<XhXxXmXmXgXL.v = . $ v R R S * . * A L.zXLXAXLXBXVXaXpXb.x.F y 3 4 4 ) $.-.-.-.+.{ ` O.8 ",
"7.9.9.9._ _ _ 4 4 :.d.g.b.@X#X;X'.oX+X8XwXxXmXnXNXP.z o   o g R S.A &   = c L.kXBXAXAXBXVXhXpX].l.F r 6 6 4 ' ' +.-.+.;.` { ....",
"7.7.5.5._ _ ) 4 4 ,.d.g.b.@X#X;XOX}.<XqXjXvXMXnXkX).g = . = g R R A * . = v L.VXLXLXLXBXVXaX=X$Xl.F 2 i 6 4 4 $.-.+.+.+.` O.{ ..",
"9.7.9.9.=._ ) 4 3 V d.k.z.`.#X;XoX+X7XqXjXxXMXnXNXL.H a o ; G R R H : = d H %XkXAXLXAXlXlXhX-X].l.F 2 r r q q X.+.+.#.%.{ ` O...",
"9.9.9._ *.) 4 3 3 r V k.c.@X:X:X+X+X<XwXjXcXMXnXNXsXm.g s g K S.S.K Z f g m.pXkXAXLXAXbXlXhX>X}.].K F c u y ..' X.+.+.+.+.O.' O.",
"5.5.=._ *.) 4 3 i r V k.].$X:X>X>X>X8XtXxXmXMXMXCXkX&XS.S.R S.[.].A.E R S.%XfXAXZXZXnXmXjXqX8X+X].~ L F c u t ..` +.+.%.%.` { O.",
"_ 5.5._ X.o.4 3 i r V k.].#X:X<X8XqXwXtXcXcXMXDXMXNXkXsX3X%X|.&X X[.}.*X=XfXkXnXZXZXnXmXjXjXqX8X|.[.].K h.c w q ' ` +.+.%.{ { ' ",
"7.5.6.*.*.o.q t r u F J l.].}.>X8XwXwXtXxXcXMXMXDXGXZXbXkXfX0X&X*X>X0XhXjXlXAXZXSXSXnXmXxXwXwX9X8X+X}.A.j.F w 0 ' ` %.%.%.%.{ ' ",
"5.5.2.$.X.o.:.t V F F F H R A. X8XwXtXcXcXcXMXMXDXFXJXGXSXlX0X=X*X7XqXjXvXbXnXZXSXnXnXmXxXwXwX9X8X8X>X[.l.c y q 8 ` +.+.{ ` { { ",
"8.6.1.$.X.:.<.f.h.k.F Z 2 B S ~ 2XwXtXtXcXcXMXDXDXFXFXGXSXlX0X=X*X>XgXjXvXbXZXnXZXnXmXmXtXwX9X9X9X8X>X}.S.F y 8 ' ` +.%.%.{ { { ",
"5.1.@.$.X.O.r.g.z.l.J 2 - - Z E |.9XtXtXtXcXcXMXDXFXFXFXZXlXfX3X*X3XqXjXvXbXZXZXMXmXMXxXtXtX9X9X9X9X8X}.l.H y q 8 ` { +.%.{ { { ",
"3.1.@.$.X.>.f.x.K.z.h.d + + - E 1XrXtXtXtXtXcXMXMXFXJXGXZXlX0X>X*X7XwXjXvXvXbXnXmXvXxXtX9XrXuXuX9X2X8X+XS.F l q 8 ' +.{ { ] ] ] ",
"3.1.@.X.' >.r.x.K.K.H d O O : D |.rXrXtXyXtXtXMXDXGXJXFXZXlX0X=X>X>XhXjXvXbXbXbXvXxXtXwX9XrXuXuX2X9X2X}.S.F y 8 8 ` ` { { { { ] ",
"3.1.@.-. .O.r.x.K.K.H 2 O X ; U |.rX9X9XuXyXyXmXSXFXJXLXZXlXfX>X*X0XqXjXlXbXbXvXvXgXeX8X9X9XuXuXuX9X|.[.l.v l e 8 ' { { { ] | ] ",
"1.1.=.-.` :.r.h.z.K.H d + + : U  X7X1X|.1X1X3XgXlXNXNXNXkXfX=X%X}.*X,XfXhXgXgXgXfX3X|. X|.|.1X2X|.|.}.S.j.c y 0 8 ] { %.{ ] ] ] ",
"1.1.@.$.` O.r.h.j.j.H f ; ; : U E G.E E E T W G.&XP.=X&X&XL.S.A.A.A.S.[.%X{.%X[. XE E E E W ~ W ~ W U H n c 5 0 0 ] { ;.} | ] ] ",
"3.@.@.$.X.o.>.r.h.H v n h s h h A S S h h h A G U U m.U H H A A A A S H H K G G U S h Z B S S S S h g f f 7 5 0 ] ] } } { { ] ] ",
"1.1.@.#.*.O.O.c c v n H U h N s ; . @ + . @ $ = * ; * ; * * % % % % & & - & ; ; @ @ @ @ @ @ % @ @ # $ > < 5 5 0 [ | } { { } | ] ",
"2.1.1.#.-.` 0 7 l c n m.E U U s @ X X X X X X . . . . . . O . O O . + O + + + + X + X X + X X         o > > k k [ q.} } } ] ] ] ",
"1.6.1.#.+.' 9 l l n n U G.D.U h ; . + + @ @ . @ @ # # # # # % % % % % # % @ @ @ @ % % % & & # .       o > l q.;.e.} } ] ] ] ] } ",
"6.2.@.#.{ { q.q.n n m.Z.D.D.U M h ; ; ; : s s s s s d : d d d d d d d d : : : Z : : d B s f s : = o o o < c r.y.r.q.[ | ] ] ] [ ",
"2.#.#.+.` [ r.r.t.m.m.D.D.D.T U N U U U U R U E R R R U R R R K K l.K K K K R R K R R R R R R G v f p p z t.y.y.y.q.;.] [ [ [ [ ",
"2.#.#.&.e.e.t.t.n.V.C.F.M.T T T Y E T E G.G. X X{.%X{.[.[.%X%X%X%X%X[.[.}.[.[.[.[.[.].[.].L.L.S.j.v f c t.j.H.H.y.e.O.9 9 [ [ [ ",
"&.4.4.u.e.y.y.y.J.J.C.M.Y T Y Y W W G.G. X{.3X3XeX0X0X0X0X0X0X0X,X0X0X0X>X0X,X>X*X*X*X%X%X{.[.S.U G n n n.H.H.H.y.r.0.] [ [ 9 9 ",
"&.e.4.4.y.y.H.H.J.J.E.Y.Y Y Y Y W W W  X|.3X0XeXgXkXkXlXkXkXlXkXlXgXkXgXgXgXjXqX0X7X3X&X%X{.L.G.D.m.M m.S.H.H.x.y.u.} 9 0 [ 9 [ ",
"&.&.u.u.y.H.H.J.J.E.I.M.Y Q Y ! W W W  X1X3XeXgXvXmXbXZXbXbXZXAXbXnXvXvXvXvXvXjXgX0X3X*X{.G.G.G.V.S.D.m.H.J.H.H.y.r.0.[ 9 [ 9 k ",
"&.&.4.u.y.H.H.J.J.B.B.I.Q Q Q ! W ! W  X|.3XeXNXnXSXZXZXZXSXSXSXSXSXSXnXnXnXmXvXjXeX0X&X{.G.G.D.D.D.D.V.J.H.H.j.u.e.0.[ 9 k [ 9 ",
"&.e.e.u.y.s.s.s.T.T.B.I.Q Q Y ! ! /.1X1X1XyXcXNXMXGXFXJXJXJXJXJXFXFXFXGXGXGXGXMXnXNXgX6X4X^./.F.F.F.C.V.n.s.s.u.u.w.0.[ [ [ [ [ ",
"&.&.&.e.u.t.y.p.s.J.B.Y.Y.! ! ! ! /.1XuXyXyXNXMXDXFXFXJXJXJXJXJXJXFXFXFXFXGXGXDXMXMXNX6X6X1X^.^.!.F.V.V.p.p.t.w.e.q.[ [ [ [ [ 9 ",
"&.| 0.0.e.w.t.p.a.B.E.E.Y.Q.Q.! /.1X1X6XyXcXcXMXDXDXFXJXJXJXHXHXJXFXFXHXFXDXMXMXMXMXMXNXdX6X(.^.!.M.V.m.p.x x k 0.0.[ | [ [ [ [ ",
"&.&.&.| 0.l w.p.J.J.F.!.Q.Q.Q.Q././.1X6X6XyXNXNXNXNXCXHXHXJXHXKXJXJXFXHXGXGXCXMXNXNXNX6X6X5X~.~.E.Z.Z.i.p.w.0.k 0.| | ] { ] ] [ ",
"&.&.| | | k w.t.n.P.^.P.!.Q.Q.Q.Q././.(.6X6X5X6XdXdXPXCXHXHXKXKXHXJXKXHXCXNXdXdX5X5X5X5X_._.~.W.M.Z.N N x z k k | { } { [ ] ] ] ",
"&.&.&.| 9 | r.t.H.P.P.).^./.Q.Q.Q.Q./.~./.(.~.(.~.5XdXCXCXHXKXKXKXJXHXHXCXdX5X_._.~.~.~.~.R.~.Q Z.N N x z k k 0.| | | | { ] [ O.",
"&.&.&.| 9 9 w.j.V.L.P.^.^.^.^.Y ! Y.! W.Y.W.W.Y.~._.sXdXCXKXKXKXHXHXCXCXdXdX_.~.U.U.W.W.R.R.R.I.N N N m j k k 0.| | { { { ] | [ ",
"&.&.&.| | 9 l t.j.K.L.{.P.F.^.Q.Y.Y.Q Q Q Q I.Y.E.~._.dXdXCXCXKXHXHXCXdXdX_.~.W.U.Q Q U.U.U.R.B.a.N N N x 0.0.0.&.| | { { { ] [ ",
"+.%.` ] ..w l r.t.j.m.S.P.P.F.F.Y.M.Y.Y.I.I.Y.T.R.).).).sXPXPXKXHXCXdXsX_._.T.R.U.U.U.U.U.U.R.T.a.a.a.p.x w.k | | { } { | ] ] [ ",
"+.+.` { ] 0 y l c n H m.V.D.F.F.M.Y.M.T.Y.I.I.I.T.T.E.).).sXPXPXCXPXdX).E.T.W.R.U.U.U.U.U.U.R.R.J.a.a.p.t.w.0.| | &.{ { { | [ [ ",
"+.` ` { ..0 0 7 5 f c n m.V.D.m.M.M.Z.M.B.B.B.T.B.N.B.J.J.).sXPXdXsX).).C.E.I.I.R.R.R.R.R.R.R.T.T.J.s.s.t.w.0.| | } } | [ [ 9 [ ",
"` ` O.O.[ 0 0 5 e 5 l c n n m.m.M m.a.M a.a.N a.a.i.i.a.s.J.P.P.).P.P.J.C.C.I.R.R.R.R.R.R.R.T.B.s.J.a.p.u.w.0.9 } } } } [ 9 9 9 ",
"` ` ` ..] w 0 e 7 < a c c v b n n b b M t.N M N N b x M b p.m.n.V.V.V.V.C.Y.T.I.R.R.R.R.T.T.J.T.B.p.p.u.w.k k | [ | ] | [ 9 9 9 ",
"` O.] ..0 0 0 5 7 7 7 l l c z a z z z z m z x x z z z j m z z b M M N.N.C.T.E.T.T.R.R.T.T.T.T.T.a.p.x x l k k 0.[ [ 9 9 9 w 0 w ",
"......0 0 O.0 5 5 7 5 5 a a a 7 j j j j j j j j j j j a m p a m z b i.N.C.E.E.T.T.R.T.T.T.J.J.a.p.x x j k 5 9 [ 9 [ 9 9 9 0 w 0 ",
"........] 0 0 0 0 w 5 5 < < < a , , , , , , , , , j p , p , p p m b i.N.C.C.E.T.T.T.T.T.T.).B.a.a.p.j , , k k 9 9 9 9 0 9 k 5 0 "
};
