/* XPM */
static char *result[] = {
/* columns rows colors chars-per-pixel */
"64 64 255 2 ",
"   c #26080B",
".  c #290C12",
"X  c #39141C",
"o  c #2E1217",
"O  c #361B27",
"+  c #2A2A2C",
"@  c #39373A",
"#  c #36272D",
"$  c #1F0103",
"%  c #471926",
"&  c #591B2D",
"*  c #44272C",
"=  c #572738",
"-  c #473337",
";  c #4F2D38",
":  c #6A2939",
">  c #323F6E",
",  c #323B56",
"<  c #5B3845",
"1  c #553145",
"2  c #653647",
"3  c #72364D",
"4  c #2E4279",
"5  c #374978",
"6  c #37446A",
"7  c #394259",
"8  c #575759",
"9  c #534D51",
"0  c #684955",
"q  c #774456",
"w  c #67575A",
"e  c #704E54",
"r  c #455378",
"t  c #48506C",
"y  c #725665",
"u  c #586277",
"i  c #676568",
"p  c #777879",
"a  c #706E72",
"s  c #963756",
"d  c #873956",
"f  c #884558",
"g  c #904B5B",
"h  c #875567",
"j  c #91516B",
"k  c #A84668",
"l  c #B75679",
"z  c #AC5475",
"x  c #946778",
"c  c #847679",
"v  c #896A73",
"b  c #A7647B",
"n  c #2C3F88",
"m  c #1E529E",
"M  c #2C4B8D",
"N  c #28478B",
"B  c #374B89",
"V  c #38528C",
"C  c #254C95",
"Z  c #2A4C93",
"A  c #254D9C",
"S  c #2A4C9C",
"D  c #294595",
"F  c #344D94",
"G  c #24519D",
"H  c #2D529C",
"J  c #2A5293",
"K  c #335494",
"L  c #33539A",
"P  c #3A5799",
"I  c #2C518F",
"U  c #1D4FA3",
"Y  c #1E53A3",
"T  c #1F52AA",
"R  c #244DA3",
"E  c #294DA4",
"W  c #244DAA",
"Q  c #294DAA",
"!  c #2351A3",
"~  c #2151AA",
"^  c #2955A7",
"/  c #2359B2",
"(  c #2E55A9",
")  c #3B62A3",
"_  c #2B64B9",
"`  c #3E629C",
"'  c #465788",
"]  c #435D96",
"[  c #5A5E80",
"{  c #596887",
"}  c #49669B",
"|  c #556898",
" . c #5C7397",
".. c #626C89",
"X. c #70768D",
"o. c #485FA0",
"O. c #4D6AA4",
"+. c #4765A3",
"@. c #556BA4",
"#. c #5975A8",
"$. c #4D75B0",
"%. c #6E7DA7",
"&. c #3672CC",
"*. c #447DD2",
"=. c #B75E82",
"-. c #8D7382",
";. c #B96787",
":. c #B77B94",
">. c #AC738C",
",. c #C35C83",
"<. c #C56389",
"1. c #C67798",
"2. c #D06F97",
"3. c #D07CA0",
"4. c #778599",
"5. c #7D8185",
"6. c #6C82AC",
"7. c #7788A8",
"8. c #6788B7",
"9. c #768BB6",
"0. c #7B92BB",
"q. c #7692B8",
"w. c #7F90A5",
"e. c #5D8CC8",
"r. c #568CD7",
"t. c #4E91DC",
"y. c #5A92D4",
"u. c #5494DC",
"i. c #5A95DA",
"p. c #518FD6",
"a. c #658EC5",
"s. c #6997CB",
"d. c #7A9AC5",
"f. c #6599D6",
"g. c #7A9ED2",
"h. c #7BA4CD",
"j. c #76A6D8",
"k. c #6DA3D8",
"l. c #488BE6",
"z. c #4B94E4",
"x. c #4A95EA",
"c. c #4897EA",
"v. c #5395E4",
"b. c #4C95F3",
"n. c #5193EE",
"m. c #6DA9E8",
"M. c #838385",
"N. c #858B9A",
"B. c #9C9A9D",
"V. c #969797",
"C. c #968A90",
"Z. c #A59A9C",
"A. c #AE8696",
"S. c #868CA9",
"D. c #8694AA",
"F. c #959AA7",
"G. c #818CB8",
"H. c #889ABB",
"J. c #9698AE",
"K. c #A89CA1",
"L. c #BC92A5",
"P. c #95A2B8",
"I. c #97A4AD",
"U. c #AAA8A8",
"Y. c #B5A9AB",
"T. c #A7ACB5",
"R. c #B7B5B5",
"E. c #B3ADB3",
"W. c #9DA09E",
"Q. c #D895B6",
"!. c #CE90AE",
"~. c #E491B7",
"^. c #CAAFB9",
"/. c #C28099",
"(. c #C2C3BF",
"). c #849EC5",
"_. c #89A6C8",
"`. c #95A9CA",
"'. c #88ABD7",
"]. c #8CB3D8",
"[. c #99B8D7",
"{. c #97ADCC",
"}. c #ABB9C9",
"|. c #B4B9CA",
" X c #ABBCD4",
".X c #A6BAD7",
"XX c #B4BAD7",
"oX c #ABA5C1",
"OX c #92BDE3",
"+X c #89BCEA",
"@X c #DBB9C8",
"#X c #D1ABC4",
"$X c #E7ACCB",
"%X c #B8C3CB",
"&X c #A9C3DA",
"*X c #B6C6D9",
"=X c #ABC0C9",
"-X c #9CCAEA",
";X c #A7C7E5",
":X c #B9D6EB",
">X c #B7DBF2",
",X c #B2CEE9",
"<X c #ABD7ED",
"1X c #C8C6C7",
"2X c #D2C9CC",
"3X c #D4D2CE",
"4X c #D8CDD4",
"5X c #CAD5DC",
"6X c #D3D2D3",
"7X c #DCDDDB",
"8X c #D8D6D7",
"9X c #C4C9D4",
"0X c #E2C8D7",
"qX c #E5DBDD",
"wX c #E3E3DE",
"eX c #CADAEB",
"rX c #C7DAE7",
"tX c #D3DEEA",
"yX c #D5DBE5",
"uX c #D3D7ED",
"iX c #E7D9E3",
"pX c #F0D3E7",
"aX c #CDE3ED",
"sX c #C8E3E8",
"dX c #DCE3E5",
"fX c #D4E2EC",
"gX c #DAE6EA",
"hX c #CAE9F5",
"jX c #DDECF3",
"kX c #D6E9F6",
"lX c #DBF4F8",
"zX c #C8F6FB",
"xX c #E3E3E3",
"cX c #E8E9EA",
"vX c #F3EAEE",
"bX c #EDF1ED",
"nX c #F2F2EE",
"mX c #E3EDF4",
"MX c #EBECF4",
"NX c #F5ECF2",
"BX c #E4F2F6",
"VX c #EDF4F5",
"CX c #ECF6FA",
"ZX c #E5F9FD",
"AX c #ECFBFD",
"SX c #E5F5F9",
"DX c #F3F3F3",
"FX c #F4FAF5",
"GX c #FAFCF5",
"HX c #F4F6FA",
"JX c #FBF6FA",
"KX c #F4FEFD",
"LX c #FDFEFD",
"PX c #FBF1F7",
"IX c #DBE0DA",
/* pixels */
"! ! G A A R R E W ~ W ~ ~ ! S S M B 4 5 6 6 > , > t u -.|.xXHXLXLXLXLXLXJXLXLXLXLXGXLXLXLXLXLXLXLXHXyX|.4.{ 5 4 N J S E G G m Y ",
"E S E G A A ! E W W W T ! ! S H L V B r r r r t t r ..G.|.gXHXLXLXLXLXJXLXLXLXLXLXLXGXLXLXLXLXLXLXHXtX|.w.4.r 5 N I H G ! ! Y Y ",
"S E G S A A A ! ! R U R R ! G P ) } | { { { { [ u ..%.J.#XkXJXLXLXLXLXLXLXLXJXLXLXLXLXLXLXLXLXLXLXFXcX*XT.4.{ r V K J G ! Y Y Y ",
"E G E E E S R R R ! R U A G H +.#.6.7.S.S.S.N.N.N.S.F.|.5XMXKXLXLXLXLXLXJXLXLXLXLXLXGXGXGXGXLXLXLXKXBXyX=Xw.6.6.` K H G ! ! Y ! ",
"E E E E E S A A G m m m C G ) #.0.`..X X|.|.|.}.|.|.%X5XgXMXKXLXLXLXLXLXLXLXLXLXLXLXLXLXGXGXGXLXLXKXAXjX5X*XP.d.#.+.S D R ~ T W ",
"E E Q E E E A A G G G m G L $.8.].*XrXtXgXyXyXyXyXdXdXmXMXKXKXLXLXLXLXLXLXLXLXJXLXLXGXGXGXGXKXFXAXCXBXlXaXsX&X_.8.+.H E R W T W ",
"E E Q E E E E R G G m J ) O.8._.&XaXmXAXCXVXCXVXVXCXFXHXLXKXLXLXLXLXLXLXLXLXLXLXLXLXLXGXGXGXFXVXjXjXaXsXsX>X&X_.8.) S E W W W W ",
"Q Q E Q Q E S S C J J ^ 8.8._.[.eXjXKXKXKXLXLXKXLXLXLXLXLXLXLXKXLXLXLXLXLXLXLXJXLXLXLXLXGXKXCXgX5X*X&X&X&X&X].d.$.) E Q W W W W ",
"Q Q Q E Q E S S C Z ) $.s.'.;XeXjXSXFXFXKXKXKXLXLXLXLXLXLXLXLXLXLXLXLXLXLXLXLXLXLXLXGXLXLXHXmXeX X_.0.9.d.8.8.#.O.) Q Q Q Q Q Q ",
"W W W W E E S S D L +.8.].,XaXjXCXAXKXKXFXKXKXLXLXLXLXLXLXLXLXLXLXLXLXLXGXLXGXLXLXGXGXLXLXHXgX*X).9.@.@.O.+.+.) ( ^ ( Q Q Q Q ( ",
"W W Q Q E E S D D F @.9.[.eXlXAXKXKXKXKXKXKXLXKXLXLXLXLXLXLXLXLXLXLXLXLXLXGXLXGXLXLXLXLXLXCXuXXXG.@.] S L H E H ( ( Q ( Q Q Q Q ",
"W W Q Q E E S D N B | 9..XtXAXKXLXKXLXLXLXLXLXLXLXLXLXLXLXLXLXLXLXLXLXLXLXGXGXLXGXGXGXLXLXMXkX.X-.@.S n D D S D E E Q Q Q Q Q ( ",
"W / W W E S D D n B | G.XXtXHXLXKXKXLXLXLXLXLXLXLXLXLXLXLXLXJXGXLXLXLXLXKXGXGXLXLXGXGXLXLXHXuX.Xf.o.D n D S R R R W W Q Q Q Q E ",
"/ W W W E S S M M ' ..S.%XgXDXKXFXVXVXDXDXNXNXNXDXVXDXHXJXGXJXGXLXLXLXLXGXGXGXLXLXGXLXLXLXAXkXXX).@.F Q S S R R E E W E Q Q E E ",
"T T W W E S F P ] | %.P.9XxXDXVXxXIX8X8X4X4X4X4X2X6X7XdXVXJXJXJXLXLXLXLXLXGXLXGXGXGXLXLXLXHXkX*X`.%.@.o.L E R W R W R W E Q Q E ",
"T T W U E S P ] #.7.P.|.yXMXvXxX1XE.U.Z.Z.K.K.K.Z.U.E.1XiXPXJXLXLXLXLXLXLXGXGXLXLXLXLXLXLXAXmXrX.X).%.@.+.L D D R D R Q E E E Q ",
"U U R D A H o.#.0.{.*XyXVXPXcX@XJ.X.i w w y e w w i c V.(.cXPXLXLXLXLXLXLXLXLXLXLXLXLXLXKXHXCXkXuX;X`.a.6.` J C m m G ! R R E E ",
"U U U R D S +.8.{.*XgXBXHXvX0XT.c 0 1 # # * * * # - 0 c Y.4XvXJXJXLXLXLXLXLXLXLXLXLXLXKXKXKXHXZXkXuX*X`.8.} J J m C G G R R E E ",
"U U U U D L O.9..XrXmXMXcX4X#X>.y 1 X .     . . . X - i C.R.4XpXPXJXLXLXLXLXLXLXKXLXLXLXLXKXKXKXCXlXeX.X8.} J I C C m G ! R R ~ ",
"T U W D A L @.0.&XfXmXgX2XE.C.-.0 1 O   $ $     o X ; 0 v A.Y.2XiXNXLXLXLXLXLXLXLXGXLXLXKXLXKXKXKXZXaX.Xq. .I N C C G G G A ! E ",
"W U R R S P @.).*XtXdX2XJ.-.[ 3 0 1 1 % o .   X % = 1 2 0 y x K.2XvXGXGXLXLXLXLXLXLXLXKXKXLXKXLXKXSXfX&X7.} I I C C C G A A Y R ",
"T W R R S L @.G.XXuX8XR.-.q 3 1 q q 3 2 % X X % 2 3 q 3 1 < w c Y.4XvXJXJXLXLXLXKXGXLXLXLXLXKXKXKXCXsX&Xq.} I C C C G G G m A U ",
"T W W D E F @.G.XXuX4XY.x 2 1 2 y j j h 3 & & : q x j h 2 = 9 e C.Y.3XcXDXGXLXLXGXKXKXLXLXLXKXKXKXSXfX Xw.O.V J C m G G ! R R U ",
"U W Q Q n F @.G.XXuX4XY.-.3 2 3 =.:.>.>.f 3 3 f >.>.:.-.q 2 : e h C.^.(.qXnXJXLXLXLXLXLXLXGXKXLXKXCXaX=Xq.O.P J C C A G ! ! R R ",
"W W R S n L @.G.XXuX0XQ.>.y j -.:.Q.Q.!.=.j k z 3.Q.!.G.-.f 3 : e w c Z.(.wXnXGXGXGXKXLXLXLXLXKXKXZXaX&Xq.@.K C m C G A R R R W ",
"! R S D n ] @.G.XXpXpX#X:.=.=.>.oX~.$X!.<.,.=.<.Q.#X~.~.>.b d : * - 9 c Y.IXnXGXFXbXnXFXFXLXKXKXKXSXeX.Xq.O.K C C A A A ! R W W ",
"U A D D n n o.g.XXuXpX$X!.;.>.:.Q.$X$X~.2.,.,.2.~.$X$XQ.A.b s : X o - i Y.3XwXnXwXIXIXIXbXFXHXKXmXtX*X`.6.+.L C C A G G E E W W ",
"C C D n n ' @.-.XXuXpX$X!.1.;.1.!.Q.~.3.2.,.,.2.~.~.~.Q.1.b g : o   + w Z.(.wXwX(.R.R.(.7XmXVXBXtX*X{.0.#.` L Z A G G ! ! Q Q W ",
"N N N N > ' @.G.XXpXpX$X~.1.=.;.2.3.3.2.<.,.,.,.2.3.3.1.:.=.d : X . # w Z.3X3X(.V.p p V.1XgXMXtXXXP.9.#.o.P S S S G A G R E E E ",
"K J K V B ' @.>.XX0XuX$X!.>.=.=.=.=.=.,.l l l l <.<.<.<.=.=.j 3 * # - y Y.(.3X^.M.8 8 p T.9X8XXXP.%.| ] P L E S A A A A S E R R ",
"$.O.O.O.@.| %.J.oXXX#XL.>.=.k k z z k k k k k k l l =.,.=.>.=.y < < w c ^.3X3X^.5.8 8 i V.T.|.T.%.| ' B F D E S G G A G A H S E ",
"q.q.d.9.G.G.S.S.:.G.-.-.y q 3 d j k k k s d s s s k l =.>.:.:.>.v X.c Z.2XwXwX(.V.p i a 5.N.N.X.[ r B n F S S E G E G S G E E E ",
"*X=X*XXXXX XT.F.X.u 9 1 ; ; ; : f g f f d : : : f g b A.!.#X#X#XY.Y.R.@XyXMXvXyX(.U.V.M.a i t t 6 5 5 I F S D E E E E E E W Q Q ",
"5XyXyXtXtXrX%XI.p 9 @ O O # * : e e g f : & & : d x b L.#X4X0XpX8X8X7XxXMXHXJXnXwX3XR.V.a 7 7 7 6 5 V V F H S E E E E W W Q Q Q ",
"rXyXfXjXmXmX5XT.X.9 @ # # @ - e g v v e & & % & q x A.^.4XpXNXPXDXDXDXJXJXLXLXJXGXcX3XU.p t 7 7 t ' ' } P L H E E E E E E W Q Q ",
"=X%X*XeXmXmXgX%XV.p i 9 0 y v v A.Z.>.h : % % ; h >.!.@XpXvXJXLXLXLXLXLXLXLXLXLXGXFXwX1XV.p u u X.4.6.#.O.P L D G A ! E E E Q Q ",
"D.D.I.}.rXjXjXIX%XT.F.Z.Z.K.Y.^.^.@XL.x < X * : v Y.@XqXvXPXJXJXLXLXLXLXLXJXLXLXLXGXnX7X%XT.I.T.}.{.`.d.#.o.H C C A G G E R E R ",
"{  .4.P.*XkXBXBXdX7X6X2X3X4X0XqXwX3X^.C.0 - - e C.^.pXnXJXJXLXLXLXLXJXLXLXLXLXLXGXGXGXbXxX8XyXyXtXeX,X{.%.o.F D C A G H ! R R W ",
"5 r { w.%XaXSXAXHXVXDXDXDXNXvXvXwX3XY.C.w e e c Y.0XvXGXLXLXGXLXJXLXLXLXJXLXLXLXGXLXJXLXDXDXDXCXHXmXeX.X9.+.F D Z C G G A Y Y U ",
"6 5 { 7.=XfXCXKXLXLXLXLXLXJXDXxX3XR.Z.c a a c Z.^.qXPXGXLXLXLXLXJXLXJXLXLXLXLXLXLXLXLXLXLXLXLXLXLXCXfX.X9.+.B N Z C C G G A ! W ",
"> 5 { 7.&XfXAXKXLXLXLXLXLXJXxX1XZ.c a p p V.U.(.wXNXJXLXLXLXLXGXLXLXLXLXLXLXLXLXLXLXLXLXLXLXLXGXKXVXdX&X7.| B N C Z C C G G ! ! ",
"4 5 { q.[.rXBXAXHXLXLXLXLXFX7XE.c 9 9 i V.R.IXwXNXJXLXLXLXLXGXLXLXLXLXLXLXLXLXLXLXLXLXLXLXLXLXLXGXVXdX%XD. .V B M Z Z C G m ! ! ",
"I 5 } 6.`.*XeXBXMXHXLXLXLXDX6XW.8 @ @ 8 W.(.wXnXJXGXLXLXLXLXLXLXGXLXLXLXLXLXLXLXLXLXLXLXLXLXLXLXGXGXgX%XP.6.| ] K K Z J m A R R ",
"I I }  .0.`.*XeXmXCXLXLXLXNX1XV.9 + + 8 W.3XGXGXLXLXLXLXLXLXLXLXLXGXJXLXLXKXLXLXLXLXLXLXLXJXLXLXGXJXcX5X}.P.7.#.} P M Z C C A A ",
"M F P } #.%.H. XuXMXKXLXFXbX3XW.7 + + 8 W.5XFXGXGXGXLXLXLXLXLXLXGXGXGXLXLXLXLXKXKXLXLXLXLXLXLXLXLXLXVXcXrXXX{.G.#.` I I N M C D ",
"Z Z K K ] | %.P.*XgXHXLXFXbX3XW.8 @ @ 8 W.3XcXDXnXnXnXGXJXLXLXLXGXLXKXKXKXKXKXKXKXKXKXLXJXLXLXLXLXLXHXCXmXtX*X`.6.{ V V I L L L ",
"A G D S B V | G.%XgXHXLXGXnXIXU.p 8 9 u V.R.1X6X3X3X3XwXvXDXLXLXLXKXKXKXKXKXKXKXLXKXLXLXKXLXLXJXLXLXLXKXKXmXrX}.7.{ ' V ] +.O.O.",
"G S S C C I | q.&XfXHXLXLXFXIX(.w.5.a p 5.N.B.B.W.Z.Y.(.8XvXJXLXLXKXKXKXKXKXKXKXKXKXKXKXLXKXJXLXJXLXLXLXKXAXfX=Xw.{ r ' @.%.9.d.",
"E E E A D F O.9..XkXAXLXLXFXbXIX1XT.W.5.p u 8 8 9 w a V.(.wXDXLXKXKXKXAXKXAXAXAXAXKXKXAXKXKXLXLXLXLXLXLXKXCXfX=X4.{ u 4.8.].[.&X",
"Q ~ E E S L O.9..XeXmXKXKXJXFXnXxX6XR.W.a 9 @ # # @ 9 c R.7XDXLXKXAXZXZXZXZXZXSXZXCXAXFXAXKXKXKXKXLXLXKXLXVXdXR.w...u 4.P.*XrXkX",
"W W W R D L +.8.{.,XuXMXVXKXKXGXFXMX6XT.p 8 @ + + - 8 c R.wXDXKXZXlXkXkXkXkXkXhXkXkXjXBXVXAXFXFXKXLXKXLXLXFXdX%XW.4.4.F.=XfXBXZX",
"W W W R E E ) #.d.{.*XuXmXCXKXLXLXFXcX9XB.p 8 9 9 w p V.(.dXnXCXkXaXrX:X:X>X:X:X:X:XsXsXlXSXAXFXKXKXKXLXKXFXgX5XT.I.U.=XrXmXAXLX",
"W W W R D S L } @.9.).XXeXmXAXLXKXKXHXiX#XT.B.V.V.Z.Y.1X7XcXbXgXeX;X.X[.=X].[.].[.[.&X:XaXSXAXAXKXKXKXLXLXKXbXdX5X1X9X5XcXCXKXLX",
"W W R U R A H K ] @.%.).*XhXSXCXAXCXCXmXgX8X3X2X3X3X7XxXbXVXbXyX*X[._.).h.h.d.h.d.h.'.&X>XhXlXAXAXAXKXKXKXKXFXBXgXdXgXgXmXSXCXCX",
"W W A A A G G H L o.#.d.[.>XhXkXlXlXlXSXSXVXVXbXnXnXDXFXFXAXcXsX.X_.0.8.8.8.8.a.8.s.h.].;X>XkXlXZXAXKXKXKXKXKXKXFXAXCXBXmXkXfXeX",
"R U U R G Y G ^ ^ ) $.a.'.-X,X>X:X>XeXkXSXAXLXLXGXGXLXLXKXHXjX5X[.g.9.8.8.e.e.e.e.e.s.h.[.<X>XhXlXZXAXKXKXLXLXKXKXKXAXjXeX*XXX X",
"Y Y Y Y Y Y T / _ $.$.y.g.'.+X].].OX&X:XzXAXKXKXKXKXKXKXKXAXjX5X[.g.q.8.e.e.a.e.y.y.y.f.j.[.-X,XhXlXZXAXKXKXKXKXKXKXmXeX.X_.0.7.",
"Y Y Y Y Y T / / &.*.p.y.f.f.k.j.h.h.].;XsXhXZXZXAXKXKXKXKXAXgX:X[._.s.8.e.e.y.y.y.i.y.f.f.j.].;XhXlXZXAXAXCXCXCXCXmXaX.XH.%.| | ",
"Y / Y / / / &.&.*.p.t.u.i.i.y.y.y.s.j.].-X>XhXSXZXAXAXKXAXAXlXrX&X'.h.s.s.f.i.i.u.u.z.p.y.f.j.OX>XhXSXSXjXgXuXuXfXeX*X`.6.| K B ",
"Y Y / / _ _ &.&.l.l.l.t.t.t.p.p.r.i.f.'.].<X>XhXlXZXAXKXAXAXmXaX,X-X].j.k.i.y.u.u.v.t.t.r.y.j.[.>XhXlXfX5X*XXX;X.X.X`.9.#.P M N ",
"Y Y / _ &.&.*.*.z.c.c.c.z.z.z.t.r.i.f.f.j.'.;X:XkXSXZXKXKXAXAXlXzX<X-X+Xm.m.i.u.z.z.z.t.p.i.k.+X>XhXkXrX|.P.S.-.9.9.6. .} K I I ",
"Y Y / _ &.*.b.b.z.c.c.c.c.c.c.c.n.n.v.i.f.g.'.;XeXlXAXKXKXAXAXSXzXzX<X-Xm.m.v.z.t.z.c.t.t.i.k.+X>XhXaX*XP.%. .| | } } ` V I C I ",
"Y T _ &.*.*.x.n.c.c.c.c.c.c.c.c.n.n.n.r.r.g.).[.rXkXAXKXKXKXKXZXzXzX<X<X-Xm.v.z.z.c.z.z.z.i.m.-X<XhXsX%X). .' ' B B I I I I I C ",
"U Y T &.*.l.n.b.b.c.c.c.c.c.b.b.n.n.n.v.*.a.g.[.:XkXAXKXKXKXKXAXlXzXzX<X+Xm.v.c.l.c.c.z.z.i.k.-X>XhXsX=X-.[ r > n n I 4 I I C C "
};
