/* XPM */
static char *result[] = {
/* columns rows colors chars-per-pixel */
"64 64 254 2 ",
"   c #543C71",
".  c #6C346E",
"X  c #1B5955",
"o  c #2B5A55",
"O  c #326B57",
"+  c #1A5A69",
"@  c #1B5879",
"#  c #265A6A",
"$  c #255779",
"%  c #345879",
"&  c #354A71",
"*  c #1B6569",
"=  c #1E6274",
"-  c #236669",
";  c #297968",
":  c #33766A",
">  c #286777",
",  c #2A7374",
"<  c #347677",
"1  c #39696E",
"2  c #1E6B5E",
"3  c #5B4275",
"4  c #4C4872",
"5  c #704F74",
"6  c #4C7471",
"7  c #69695C",
"8  c #2F4B5D",
"9  c #867558",
"0  c #8C5477",
"q  c #8B716F",
"w  c #A37B74",
"e  c #3A8D71",
"r  c #46997A",
"t  c #4E8E71",
"y  c #689375",
"u  c #53AF76",
"i  c #6EAE74",
"p  c #568D5C",
"a  c #7DF54D",
"s  c #74FA4B",
"d  c #7AF94D",
"f  c #75F947",
"g  c #7CF553",
"h  c #75FA53",
"j  c #7AFA54",
"k  c #79F65B",
"l  c #72F949",
"z  c #6ED479",
"x  c #7BF563",
"c  c #7CF46B",
"v  c #78F564",
"b  c #7BEA79",
"n  c #7DF375",
"m  c #7BEE6E",
"M  c #5FC176",
"N  c #A2E63F",
"B  c #98E83F",
"V  c #8E9277",
"C  c #92AE73",
"Z  c #ADAE77",
"A  c #9D9765",
"S  c #CB9A6A",
"D  c #D58A77",
"F  c #CF9271",
"G  c #CBAD6F",
"H  c #ACD75B",
"J  c #88EE4B",
"K  c #96EB49",
"L  c #83F34B",
"P  c #8BF24C",
"I  c #86F447",
"U  c #93F34C",
"Y  c #95F64A",
"T  c #89ED56",
"R  c #96E957",
"E  c #85F355",
"W  c #9DF454",
"Q  c #A6F64C",
"!  c #A4E85A",
"~  c #B9E954",
"^  c #A7F655",
"/  c #B7FA57",
"(  c #B1ED48",
")  c #96CE78",
"_  c #A6D875",
"`  c #AFD06E",
"'  c #88EC68",
"]  c #98E966",
"[  c #81F268",
"{  c #86EA78",
"}  c #98E676",
"|  c #84F377",
" . c #A8E975",
".. c #B1EC6D",
"X. c #9FD95D",
"o. c #CBFB5B",
"O. c #C4F958",
"+. c #D5FC5C",
"@. c #C5EC58",
"#. c #CCCD6D",
"$. c #CCFD63",
"%. c #C6FB64",
"&. c #D7FC66",
"*. c #D4F874",
"=. c #CBED70",
"-. c #E4FE68",
";. c #C4D75F",
":. c #3A3DB8",
">. c #3E3EA9",
",. c #3D3C81",
"<. c #5A3887",
"1. c #593898",
"2. c #493B97",
"3. c #6F2F92",
"4. c #4939A6",
"5. c #5537A8",
"6. c #483BBB",
"7. c #5437B7",
"8. c #5A2CB5",
"9. c #7424B8",
"0. c #6D31AF",
"q. c #761FBA",
"w. c #1D5583",
"e. c #1D5689",
"r. c #1F5496",
"t. c #294F88",
"y. c #384A8C",
"u. c #22538C",
"i. c #255786",
"p. c #345585",
"a. c #244E9D",
"s. c #2A4C98",
"d. c #364A96",
"f. c #235394",
"g. c #23529B",
"h. c #2A5295",
"j. c #356B85",
"k. c #1E52A5",
"l. c #1D52AA",
"z. c #1C4EB1",
"x. c #1F4FA9",
"c. c #244DA5",
"v. c #294DA5",
"b. c #244EAB",
"n. c #2A4CAA",
"m. c #3646A9",
"M. c #2351A4",
"N. c #2351AB",
"B. c #2950A6",
"V. c #2B4BB1",
"C. c #3744B4",
"Z. c #2A50B0",
"A. c #444887",
"S. c #504E91",
"D. c #795988",
"F. c #6F4C90",
"G. c #506F8C",
"H. c #796588",
"J. c #65678C",
"K. c #4643B7",
"L. c #5449A8",
"P. c #6F4FAE",
"I. c #7568B1",
"U. c #741EC9",
"Y. c #741ED9",
"T. c #4938C4",
"R. c #5434C6",
"E. c #5A2DD3",
"W. c #6827C7",
"Q. c #6727D8",
"!. c #7629C7",
"~. c #741CE8",
"^. c #731CF0",
"/. c #6923E5",
"(. c #8834A8",
"). c #8E5488",
"_. c #957598",
"`. c #8E718D",
"'. c #B07090",
"]. c #8C54B1",
"[. c #9270B2",
"{. c #AF74AF",
"}. c #A655A1",
"|. c #C97B95",
" X c #CB7BB2",
".X c #8838C6",
"XX c #916EC6",
"oX c #AF73CF",
"OX c #9350CC",
"+X c #C579CF",
"@X c #458885",
"#X c #58958E",
"$X c #6B948E",
"%X c #5BB784",
"&X c #54A48A",
"*X c #6BB18D",
"=X c #76A2AC",
"-X c #6DD384",
";X c #75D889",
":X c #74CA91",
">X c #7CE686",
",X c #7AC4A4",
"<X c #3F8081",
"1X c #968A8E",
"2X c #B29391",
"3X c #B3AE8B",
"4X c #8D8AAC",
"5X c #B88AAB",
"6X c #8DB0AE",
"7X c #B6ACB0",
"8X c #89B68A",
"9X c #C88989",
"0X c #D78A88",
"qX c #C79689",
"wX c #D68597",
"eX c #CA9097",
"rX c #E7818C",
"tX c #E58297",
"yX c #CC8AA6",
"uX c #DA85A6",
"iX c #CF8CB4",
"pX c #CEB2B1",
"aX c #D49E99",
"sX c #8CD291",
"dX c #ADCD85",
"fX c #95E687",
"gX c #8AE78F",
"hX c #B4EC8E",
"jX c #95CDAD",
"kX c #B1DCB3",
"lX c #B5EBB0",
"zX c #CCCF94",
"xX c #C9F397",
"cX c #CAF18F",
"vX c #CFD1AC",
"bX c #D0F2AE",
"nX c #E6EBB3",
"mX c #AF8FCD",
"MX c #B6B2CC",
"NX c #A497D3",
"BX c #CA86CA",
"VX c #C9B0CD",
"CX c #CAB4E2",
"ZX c #B3D1C6",
"AX c #BBE7C2",
"SX c #D4CECE",
"DX c #E7D4D5",
"FX c #D0E8C6",
"GX c #EDF5CE",
"HX c #DACEEC",
"JX c #E9D7EB",
"KX c #F6E9F9",
"LX c #FEF6F7",
"PX c #F2ECEB",
/* pixels */
"z.z.z.z.l.l.l.l.N.N.M.k.M.M.M.M.x.a.k.k.a.f.u.t.$ $ & $ & t.p.y.t.s.s.a.B.c.b.b.b.V.b.V.Z.z.N.N.b.x.b.b.n.c.v.v.v.c.b.b.b.b.b.b.",
"z.z.z.l.l.l.l.l.N.N.N.M.N.M.c.M.x.a.c.a.a.f.h.i.$ % % % $ % % t.t.s.s.s.M.M.b.N.z.V.b.b.Z.N.N.l.l.b.b.b.b.n.n.v.n.v.v.b.M.b.b.x.",
"z.z.z.l.l.l.l.l.l.N.M.M.M.M.N.M.x.x.a.a.a.h.i.h.j.G.G.j.% % & $ t.f.s.g.g.M.k.N.b.b.b.b.b.Z.z.N.x.x.x.b.n.B.n.v.v.c.c.c.b.b.x.b.",
"b.z.l.l.l.l.l.k.N.N.k.M.M.N.M.M.c.x.a.a.f.h.j.G.G.G.#XG.6 % % & % t.u.u.g.g.M.M.b.x.b.b.b.N.N.N.x.x.b.b.B.n.B.v.c.v.c.b.b.b.b.b.",
"b.x.x.l.l.k.k.b.M.M.c.M.B.B.M.M.M.g.g.r.f.h.G.G.=X=X=X=XG.j.O & $ $ i.i.u.f.r.M.x.c.c.x.b.b.b.l.b.x.Z.b.b.b.v.n.v.c.c.v.c.n.b.b.",
"b.b.c.x.N.M.k.k.x.c.c.v.B.M.M.B.a.f.f.f.i.g.j.#X=XjXjX,X$X6 4 o # $ $ w.e.u.r.k.a.x.x.a.b.b.b.b.l.b.N.z.b.n.n.v.v.v.c.c.c.b.n.n.",
"b.N.c.M.x.k.c.x.x.c.c.c.g.B.g.h.a.f.u.u.i.$ 6 #X6XZXZXjX=X7 6 O # # # + @ e.e.r.a.a.a.c.b.b.b.N.b.z.N.b.Z.b.n.n.c.>.v.c.c.n.n.b.",
"M.c.c.c.c.M.x.c.c.c.c.M.v.g.g.g.u.u.u.$ # - 6 $XZXZXAXkXsX8Xy 6 1 # # + @ @ e.e.r.r.a.c.b.b.N.b.N.b.b.b.b.n.n.b.a.x.c.c.v.v.n.n.",
"B.n.c.c.c.N.M.c.c.c.c.g.g.g.h.u.i.i.@ + X # p y sXlXbXbXkXsXC y 6 O X X + + @ w.u.f.a.a.B.B.N.N.b.z.z.V.V.b.b.b.x.c.c.v.>.c.c.v.",
"B.n.v.c.c.n.b.b.c.x.c.a.h.f.f.i.i.i.> # o O O i 8XhXbXbXbXhXdXC p 6 O 2 - # $ w.u.u.h.a.B.B.N.N.b.b.z.b.z.n.n.n.n.c.v.c.x.x.x.>.",
"n.n.b.n.n.N.b.M.c.c.a.a.f.i.i.i.j.> , , : O p i sXhXxXnXxXcXdX) y p O O - < j.j.i.i.u.f.g.g.M.N.z.b.z.b.b.V.b.b.b.n.c.v.v.v.x.a.",
"n.n.n.n.n.n.N.c.a.r.r.e.e.i.i.j.j.@X@Xr t p i C _ cXcXcXcXcX.._ i i t t r e <Xj.j.$ u.t.f.g.g.M.c.b.b.z.b.b.x.x.c.c.c.v.v.v.c.c.",
"V.V.n.n.n.b.c.M.a.u.u.w.@ $ > j.@X&X&X*Xu i C ) _ cXcX*.*.=...` ) z i i *X&X&X#Xj., $ $ u.u.g.g.x.M.b.b.b.b.b.x.c.c.c.c.v.v.v.v.",
"n.n.V.n.v.c.c.f.r.u.w.@ = > < @X&X,X,X,XsX) ' _ ..*.*.*.=.;.H H ) ) sXsXsX:X*X&X@X< > @ $ w.f.r.g.k.x.x.c.b.b.>.c.c.v.B.v.v.v.v.",
"V.n.n.v.c.c.a.r.w.w.@ = - , e &X*X,XsXgXsX} }  ...*.*.$.;.@.;.~ _ fXfXfXsXsX,X*X&Xt > > $ $ w.e.r.r.r.c.c.c.n.c.c.c.c.v.B.B.v.B.",
"n.n.v.c.c.a.r.e.@ @ * , < e r %X:X,XgXsX{ }  ...*.*.*.&.+.@.@.H ..} } fXgXgX;X:X%Xr t < , @ = @ w.r.r.a.c.c.c.n.v.c.B.B.s.B.v.g.",
"v.n.c.a.a.a.e.w.+ + * e e r %X-X;X>XgX{ { } ] ..*.&.&.-.&.&.+.@...] } } { gXgX;X-X%X&Xe ; * * @ @ e.r.r.g.M.B.B.M.B.M.M.B.c.g.v.",
"v.v.a.a.a.u.i.@ * 2 e e u %X-X;X>X>XgX{ { ] ! ..$.&.*.-.-.-.&.@./ ] ' ' ' { { >X>X-X%Xu e e * * @ w.e.r.g.k.M.B.B.M.M.M.g.c.c.g.",
"c.>.a.a.r.e.i.> 2 e e u M -X>X>X>Xn n [ [ ] ! / o.&.-.-.-.-.&.o.^ ] T T ' [ | b >X>X-XM e e 2 * = = e.f.r.k.k.k.M.M.N.M.x.x.c.a.",
"a.a.r.r.u.e.i., e e e u M b >Xn >Xn m c T ] ! / o.-.-.-.-.-.-.@.^ W J T T x c m >X>Xb M M r e e , > w.e.r.r.r.k.N.M.M.k.x.r.x.x.",
"r.a.r.r.e.e., < e u %Xz z b n n m v x x E R W ^ O.+.+.-.-.-.+.O.^ Y P P T k x m n >Xn -X-X%X%Xr e w.@ e.e.k.k.k.k.l.l.k.k.k.k.k.",
"a.a.r.e.i.> j.e &X%X-Xb b m c v v v k k k T ! ^ O.+.-.-.-.-.+.O./ Y P L a g g v v v n >X>X;X%X&Xe , = @ e.e.r.k.k.l.l.l.k.k.l.l.",
"r.f.e.e.w.= , e %X-X>X>Xm v v k k h h g L P Y ( O.+.+.-.-.+.+.O.Q Y U I g g h v v v v >X>X>X:X%Xe * = @ e.e.r.k.k.k.k.k.l.l.l.l.",
"u.u.e.w.@ = , r u -X>Xn c v k k h h h d a U Y ^ +.+.+.-.-.+.+.O.Q Y B I l h h h v v v n >X>X-X-Xe e * @ w.e.e.k.r.k.k.l.l.k.l.l.",
"u.u.w.@ + * * e u z n n c k j h h h l s I I Y Q / o.+.+.+.+.+.O.Q Y I I I a j h k v c n >X>Xz u e 2 2 + @ e.e.r.r.k.M.k.M.M.l.M.",
"w.@ @ @ @ * e e M z n n [ k j h h s s l f I Y N / O.+.+.+.+.O.( Q Y K I L a j g h v x c | n z M e ; 2 * + @ w.u.r.g.g.M.M.M.M.M.",
"$ @ $ @ = e e r M z n v E k j s l l l l f I Y Y O.O.+.+.+.O.O.( Q U I I L g h h h x x [ n n z u u e ; * @ @ $ u.e.h.g.h.s.s.B.s.",
"@ $ $ > j.r r %Xz z n v k j j j l l l l f I Y Q ( O.O.o.o.o.N / Q U P I d d d h h j k x c n b z M p t : - > $ $ i.i.h.h.h.h.B.d.",
"+ - > j.#X&X,X-X;Xb m [ g j d s l l l l l f Y W / O.O.O.O.N ( N Y Y I I a d s h h k k x ' m m z z i u t < % # # $ t.p.t.d.y.d.d.",
"+ # < j.&X*X,X>X>Xn [ k g d d s l l l l f I Y Q / O.O.O.O.( N N Y I L d d f s h h h k x c ' { gXz z *X#X@X< % % & p.p.p.y.y.y.A.",
"X + : @X=X,X,XjX>Xb c k g d s f l l l l f I Y W / O.O.O.N N N N I I I d s s s h h h g x [ ' { { gXsX:X*Xy 6 1 j.p.G.A.A.A.A.A.A.",
"X 2 : t *X,XgXgXgX| [ [ E d a s s l l l f I Y W / / O./ O.N N N B I L L d s h h h h g g x [ | fXgXsXsX8X$Xy G.5 6 G.G.J.S.A.4 A.",
"o o O t *X8XjXgXfX{ ' E L L I a a f f s s I Y Q Q / O.O.~ N H B J I I a a d j h h h k k k v ' ] ) fXsXC 8XV V V H.`.`.5 5 3 3 4 ",
"o O O t *XsXgXfXfX} ' T T J J J a d f s s d Y W / O.O.O.( ( N N B I J a a j j h l h l k g T ' ' } ) _ ) C C 1X1X1X1X`.`.5 5 . . ",
"o o O p *XsXgXlXfX} } ' R T J J L d d d d L Y W / O.O.O.@.N ( K K I J a j j h h h h g g g T ' } } _ dX3X3X3X2X2X2X5X2X_.0 0 5 5 ",
"o O 6 y *X7XlXlXhXhX .] R R T J L a j j d L U W Q O.o.O.@.@.~ ( K I I L E j h k g k g g T ' X.] _ _ dX` 3X3X3X3XqX2X2X'.'.0 0 0 ",
"o o 7 y 6XkXAXAXlXhXhX .] R R R T E E j g L P Q / O.$.$.%.O.~ ! W P E L j j j g g g g E T T X.X._ _ dXzX3XqXqX2X2XeX5X9X'.'.'.'.",
"o o 7 y 6XZXAXFXbXlXhXhX.._ R R T E E E g L R W / O.$.$.&.%.%./ W Y E L g j j k g a T T R R X.X.` ` Z 3X3XqXqX9XeXwX|.|.wX|.|.|.",
"% 4 J.J.4X7XZXFXFXbXxXhXhX..] ] ] E E E a J E W / O.$.$.$.$.%./ W E P E g g g g a T J R R X.X.X.` Z Z Z G qX9XeXwXwXtXtX XtX|. X",
"4 S.S.I.=XNXMXZXAXFXFXbXxXcX ...] ] ' k a E U W / %.$.$.&.$.$./ W Y E L a a a L L J J R R R H X.C A Z S 2X9X9XwX0XwXtXrXtXtX|.|.",
"S.L.S.P.I.[.4X7XZXSXFXGXbXxXhXhX .] T T T J J ! / ..&.&.$.$.%./ W Y E L L a a a J J K K ! H X.C A 9 9 9 '.9XwXuX|.|.tXtXtXtXrXtX",
"4.4.5.L.S.P.[.4XMXSXDXFXnXbXbXhX .} ' T g T T Q / / $.$.$.$.O./ W E P L a L J J J J K ! H H ` A 9 9 9 9 '.|.|.tXtXtXtXtXrXrXrX|.",
"7.7.8.8.5.L.I.[.NXVXVXSXSXvXxXhXhX} ] ' T T K ^ / *.$.&.$.o./ ~ W P P L I J P E R ^ ! ! ..` Z A 9 9 0 0 w |. XuXuXtXtXtXrXrXrXrX",
"E.R.R.8.0.8.P.P.[.mXiX7X7X3X3XdX_ } ] X.R R ! ^ / $.*.-.$.O.@.( Q R K T T P T T W ^ ....=.hX` A 9 9 5 0 '.{. XuXuX XtXtXrXrXrXrX",
"Q.E.W.W.8.0.0.P.].[._._._.V A C Z ) _ _ X.! ! ..-.*.*.-.@.@.~ ~ R K R K T R R W ....=.=.cXzXzXZ 9 5 0 0 }.{.iX XiXuXuXtXtXwXrX0X",
"/./.Q.Q.U.W.9.9.0.0.].D.0 5 q V C ` `  ._ H H =.-.cX*.#.@.;.;.;.! H H R X.] ] ....hXcXcXxXvXkX3Xq 0 5 ).}.{.+XiXBXiXuXwXtXwXwX|.",
"^././.Y.Q.!.!.0.3.3.3.. 5 5 0 9 A 3XdX` ` H ;.#.-.#.-.#.#.#.;.;.H ...... . . .hXxXxXxXbXbXvX7X1X`.D.F.).}.oX{.+XBXiXiX X|.'.|.'.",
"^.^.~.Y.Y.Y.W.9.q.q.3.. . . 5 0 A 3XG Z #.G ` #.#.#.G #.#.#.#.#.#.cXcXhXhXcXxXbXbXbXbXbXvX3X1X_.H.F.F.3.].].{. X+XBX5X X{.'.'.w ",
"^.^.^.~.Y.Y.U.q.q.q.q.. . . . 0 w Z 2X3XG G G G G #.G G G G G #.*.cXnXnXbXbXbXnXGXFXFXvX3X1X1X5 F.F.3.F.P.].].[.oX{.5X{._.).).0 ",
"^.^.~.~.~.Y.U.U.q.q.3.3.(.. 0 ).'.F F S S S S S S S S S S G G zXzXnXnXGXGXGXGXGXGXGXSXpX4XH.D.S.S.<.1.0.3.0.P.].XXoX[.[._.F.D.5 ",
"^.^.~.~.Y.Y.Y.U.q.q.q.q.3.(.(.}.'.9X9XF S F F F F S S S S F S zXnXnXnXGXGXGXGXLXLXGXSXpX1X`.3 <.1.1.1.5.5.8.P.P.[.XXXX[.F.5 3 3 ",
"^..X^.~.~.Y.Y.U.q.q.q.(.(.}.}.'.'.|.9X0XF F F F D D D F F F D aXaXvXDXGXGXLXLXLXLXKXHXVX4XF.<.<.1.1.5.8.5.7.7.P.I.I.I.P.F.S.S.  ",
"^.^.^./././.Y.U..X.X.X.X}.}.+X X|.|.wX9X0XD D D D D D D D 2XqXqXaXpXvXDXPXPXLXLXLXKXHXCX[.P.F.1.4.5.7.7.7.7.7.P.K.I.P.L.S.S.A.  ",
"^.^././././.Q.Q.~..X.X.X}.OX+X X XyXuXwX0X0XrX0XD D 0X0XD 9X0XaXaXpXpXvXDXJXLXKXKXKXHXmXXXP.1.4.4.8.6.7.7.6.K.K.K.L.S.L.S.d.A.y.",
"^./././././.Q.W.U.U..X.X^.+X+X+XBXuXyXwXaX0X0X0XrX0X0XwXeXaXaXiXpXpXpXDXJXKXKXKXJXHXCXoXXXP.5.5.4.6.R.T.6.6.6.4.K.m.d.d.d.y.d.y.",
"/.E.E./.Q.E.W.W.W.U..X.X+X+X+X+XBXiXiXyXuXwXeXwXrX0XaXpXpXpXpXpXpXpXSXDXJXKXKXJXHXCXNXoXI.P.7.7.7.T.T.6.T.K.C.C.m.d.>.d.d.d.d.d.",
"E.E.E.E.E.E.R.W.W.8.!.OXXXoXCX+XBXiXiXiXiXyXyXyXyXaXuXpXpXDXDXDXDXDXDXPXKXKXKXHXCXNXXXI.R.P.7.T.T.T.T.T.6.C.C.C.m.Z.v.v.d.d.s.s.",
"E.T.E.R.R.R.R.R.8.8.P.OXOXoXoX+XBXmX5X5XyX5XyX2X5X5XiXVXCXJXJXPXJXJXJXPXKXKXHXCXNX[.P.7.7.R.7.7.T.T.K.:.K.K.C.C.m.m.m.v.v.s.s.s.",
"T.T.T.T.R.R.7.7.8.0.P..XOXoXoXNXoX{.{.5X5X{._.{.5X2X5XMXVXDXDXHXSXDXHXJXHXHXCXNXXXI.5.5.7.7.R.T.T.T.:.T.C.:.m.V.Z.m.B.B.x.a.c.a.",
":.T.T.6.K.K.7.6.8.5.7.P.P.XXOXXX[.[._.[._.`._._._._._.4X5XVXMXMXMXZXMXMXMXNXNX=XI.L.5.5.7.7.T.T.T.K.T.:.:.C.:.V.Z.Z.Z.B.a.>.a.c.",
"C.T.C.T.:.4.6.4.5.5.5.P.P.P.].P.D.P.).D.H.).`.5 J.H.H.H._.4X4X4X4X4X4X4X=X4XI.I.L.L.5.7.T.T.T.E.T.T.C.:.:.b.:.b.V.Z.V.b.x.x.x.a.",
"Z.:.C.Z.:.>.4.4.5.5.1.3.0.F.F.F.F.F.F.5 5 3 5 7 3 5 5 3 7 5 4 J.J.J.J.J.L.G.I.L.L.5.5.7.T.E.T.T.T.T.T.:.:.:.b.:.V.V.Z.Z.z.c.x.a.",
"Z.C.C.C.>.>.4.4.2.1.5.1.1.<.<.<.<..   <.  3       4 4 4   8 8 4 & 4 4 & A.A.y.A.2.5.4.8.R.R.T.T.T.T.:.C.>.V.V.C.V.V.V.b.b.c.a.x.",
"C.C.C.C.>.>.>.4.2.5.1.1.<.3.<.  <.<.              4 4 4   8     & ,.  & ,.& ,.2.4.4.4.8.T.R.T.T.T.T.:.:.:.:.:.V.V.V.V.b.b.c.c.x."
};
