/* XPM */
static char *result[] = {
/* columns rows colors chars-per-pixel */
"64 64 23 1 ",
"  c #3E4C75",
". c #3C4B7C",
"X c #2F4F86",
"o c #2E4E8C",
"O c #334D86",
"+ c #394B82",
"@ c #314D8A",
"# c #384C88",
"$ c #2F5085",
"% c #305083",
"& c #2D4E93",
"* c #2A4E9B",
"= c #314C92",
"- c #304D9A",
"; c #26509F",
": c #29509A",
"> c #254EA6",
", c #294DA2",
"< c #254EA9",
"1 c #284CAB",
"2 c #2450A5",
"3 c #2850A1",
"4 c #2350A8",
/* pixels */
"<<<<12<2<2<<<<<1<><2<<<<<12<><1<>><4<<<<1>>,11<<<>>><<<<<>;*ooXX",
"<<<<<<<1<<><<><221<121<>><<<<<2>>>4<<<<<1>>>>><<>4<><<<<>>>*&XXX",
"<<<<<><<<<><21<2<<2<<<<<<2><<<<>1>>44141>>>>><><<<><<<<<>>>*&oXX",
"<<<<21<><<<<<<<<<>1<2<<<<1<<<21>2>2<144411>>><><<<<<<<<<<>>*&o+X",
"<,<<<><<<2><<><<><1<<<<<><<<>1><<<444414<<>>>>44>><<><<<>>>*oo+O",
"<22<<><<<1<<<<21<<2<<<2221<<<2<><1444141<>>>>>44>><>><<<>>*&&ooO",
"<<<<<<<><1<<<<<<<<<<<<<1<2<<<<>2<4444141<<<>><4>44<<><<<>>>*&o+O",
"<<<<<><<<2>21<<>>21<<>21<1<2<<<1<4441444<<<>><<444<<<<<<>>**&oOO",
"<<212<1<><<<1<2<<12<<<<<<<<<<>>2<<<<<4411<<<><<4><<><<<<>>;*ooXX",
"><<<<<2<1<212<<<<<<>><><221<<<<1<<44<<441<<<><44><<<<<<<>>;*&oOX",
"<<<>12<>212<<<<<<>1<1<<2<<1><1<>>>4<4<<<<<<<<<4<<><<<<<<<>>*ooOO",
"21<<<<<<<<<><<><<<2>2<<1<<2<<2<<>>44<4<<<<<<<<44><<<<<<<<>>*&o+X",
"<<<<<<<<<<21><><<<<<<<<2<2><<<<>>>44<4<<<<>>>><<><<<<<<<>>**&@O+",
"<>1<><<>1><<<<<<2<<<<><1<1<<<<<<>>44<<<<1<<<><<<<>>>><<<>>>*&oOO",
"2<2><<2<2<2<><122<><12<<<<<><<<>>>>4<<<<<<<<><<<><>>><<<>>>*&oOO",
"1<<<<<<21<1<<21<1<<12<<><21<3<<<>>4<<<<<1<<<><<<<>><><<>>>**&oOO",
"<><<<<<1<<<>12><<<1><2<<12<><<<><<<<<<<<<>>><<<<>><<><<<<<>*ooXX",
"<<21<><2<2<<<<<<212<<121<<<<1<>><<<<<<<<<>>><<<<><<<<<<<>>**&oX+",
"1<2<1<<><<<><><<<<<<<2<><>212<<1<<<<<<<1<<>>><<<<<<<<<<<>>>*&oX+",
"2<<<2<<<21<1<<12><12<1<<<<<><><2<<<<<<<1<<>>><<<><<<<<<<<>>*&oo+",
"<<2<><<><12221<<<><<1><<<<<<<<<><><<<<<<<1>>><>><>><><<<>>**&o+@",
"<<<<<<1<<<<<><<><<<>2<2121<<<><2>><<<<<<<<>>><>><>>><<<<>>>*ooX+",
"<112<22<<>1<<<<<<><<<2<12<1<12<1><<<<<<<>1>><<<<>><<<<<<>>**&oo+",
"<2<<>1<<<<2><<21<<<<<<<2<<2<><<>><<<<<<>11>>><><<><<<<<<>>>*&o+X",
"><<>12<<<12>2<<<<<<2<<1<1><<<<<<>><>><<<1>>1>>><><<<<<<<>>>&ooXX",
"<<21<<<><<<<<<<<12<<><2<2<21<>>>>><<<<<<1>>>>><<><<<><<<>>>*&oXX",
"<<<<<<<<<2<<12<<<<<<12><<2<1<<<>>><<<<<<>>>>>1><<><<><<<>>>*&o+X",
"1><<2<<><1<><<><<><<<<<<<<<2<<<>>>><<<<<1>>>1>><><<<<<<<>>>&&oX+",
"2<<<<><<<<<<>1><<1<2<<<<<<<<><<><<<<<<<<<<><><<<><<<<<<<>>>*&o++",
"><<><<<<<><<<2<<>2<<<<><<<<<<<<<<<<<<<<<<<>><><<<><><<<<>>**&ooX",
"<<<<1<<<<<<<<<<<<<<<<<<<><<<1<<<<<<<<<<<<>>>><<><><<>><>>>**oo++",
"><2<2>>>>>2<>>><><>>>>><><>>2><2<<<<<<<<<<>>><><><<>><<>>>>*oooX",
">>4444<<>>>>>>>>>4>>44<<4>>>>>>><<<<<<<<<<4>4><<<><>>><><4;&ooXX",
">>>44<<<>>>>>>>>>44<444<4>>>>>>><<<<<<<1<>>4<4<<><>>>>>>4>>&ooXX",
"4><<<<<<>4<<<><>>><4<<<<>><<<><><<<<1<<1<<4<4<<<<>><>><<>>>*oXX%",
">4<<<<<<<4<<<<<<4><<<<<<>><<<<<<<<<<111<<>44>4<<<<<<<<<<>>>&oXX%",
"<<<<<111<<<<1<11<<<<11<<<<<<<<11<<<11111>44444<<<<<><<<<>>>*&ooX",
"<<<<1<<1<<<<>1<<<<<<<111<<<<1<<<<<<<<<1<444444<<<><<<<<<>>>*&oXX",
"1<<<<11<<<<<<1><<1<<1<1<<<<<<111<<1<<<<<444444<<<<<<<<><<>**&o@X",
"<<<<<1<<11<<11111<<<<1<<11<1<1<><<<<<<<<44444<<<<<<<<<><<>>*&oXX",
"<1<<<<<<>1>111>1<<<<<1<1<<<<<11><>>><<1>>>>>><<<<<<<<<<<<<>*&@@@",
"1<<<<<<<>>>>>>11<<><<<>><><>><1>>>>>1<>>>>>>>>><<<<<<<<<<>,*&@@@",
"<<>>>><>>>><>>>><<<>>>>>><>>>>>>>>>>1<<<>>>><><<<><<<<<<<>>*&@@+",
"<<>>>>>>><>>>>>><<<>>>>><><>>>>>>>>><<11>>>><<<<<<<<<<<<<<>*&o@O",
">><<>>>1><><<<>><>>>>>><>>>>><<>>>1<111<>>>><<<<<<<<<<1<,11**=+@",
"<<<<>><<<><><<<<1<<<1><<<<>><<<>>><11111>><<<<<<<<11<<<<111**=@@",
">><<>><<<><<<<<<><<<>><><>><<<>>111<1111<<<<<<<<1111<111111*===+",
">><1><<<><<<<<<>>>><<1<<<<<<<>>>11<11111<<<<<<<<>1111<1<11,,*==@",
">>1>>>>>>>>>>>>>>>>>>>>>>>>,>>>><<<<<<<<>444444>>1>1>>>>>>;*&&oX",
">>1>>>>>>>>>>>>>;>>>>>>>>>>>>>>><<<<<<<<>4>444>>>>>>>>>><>>&&ooo",
">>>>>>>>>>>>>>>>>>>>>>>>>>>>>>>><<<<<<>44422>>22>>>>>>>>>>>;ooXX",
">>>>>>>>>>>>>>>>>>>>>>>>>>>,>>>><<<<<<44>>222222>>>>;>>>4>>;ooXX",
">,>>>>>>>>>>>>>>442>2>4>>>>>>4>4<444444>>2222222>**>>>>>>>;*&oXX",
">>>>44>44>44>>>>44424>>4>>4>44>><444444>>>2222;;>>>>>>>>>>;*&oXX",
"><<<4444444444><44444444<<<44444<<4444222222>2>>>>*>*>>>22**&oXX",
"><><444444444>>>4444444>>>444444<4444>>22222;>>>>>>>>>>>>2>*&XXX",
">>>><<>>44>>>4>4<><444>>>>>><>>><<>>>>>>>>>>;>>*,1*1,111>>,*=@OO",
">>>>>>>>>4>>>>>>><<<>>>>>>>>>>>>44>>>>>>*>*>;;>>**1*,,,1>;,*==@+",
">>*>>>>>>;;>;;>;>**>>>;>>>>*>>>>>;>*,,*,>**>*;*****1,,,,>***==++",
"********;;****;;****************>;********&*****,***=*,,***==@++",
"&&*&&*&&&&*&&**&&*&&&&*&&&&*&&*&&&&&&&*&&o&&&&&&=====-*,--==+++.",
"o&&ooo&o&&ooooooo&&o&&oo&&&o&o&o&&&o====ooooo===========-===++..",
"oooo@X@@@@o@oooo@@@@@@@@ooXXoXoO@@o=o==OoooXoo=@=+========##+.  ",
"XXXX@@@@@@XXXXoXX@XX@@@XXXoX+oOoXoO@@oOoXOXOoO@@@@=+=#=====+..  "
};
