/* XPM */
static char *result[] = {
/* columns rows colors chars-per-pixel */
"64 64 137 2 ",
"   c #555575",
".  c #525A7B",
"X  c #4E5E84",
"o  c #505C80",
"O  c #4E6086",
"+  c #43638D",
"@  c #4C638B",
"#  c #4D6C8F",
"$  c #506483",
"%  c #516885",
"&  c #516E89",
"*  c #436692",
"=  c #4A6791",
"-  c #466996",
";  c #4A6995",
":  c #476E9D",
">  c #486B99",
",  c #4F7490",
"<  c #47709F",
"1  c #4A739C",
"2  c #4D7B9D",
"3  c #507591",
"4  c #507A93",
"5  c #476FA0",
"6  c #4771A2",
"7  c #4576AA",
"8  c #4579AE",
"9  c #487EAB",
"0  c #457BB2",
"q  c #447FB9",
"w  c #4F829D",
"e  c #50859C",
"r  c #4A83AB",
"t  c #4D8BAC",
"y  c #508AA2",
"u  c #4F91AC",
"i  c #5190A5",
"p  c #5194AA",
"a  c #4482BD",
"s  c #478ABC",
"d  c #498EBC",
"f  c #4C94BC",
"g  c #4E99BC",
"h  c #539DB0",
"j  c #509DBD",
"k  c #54A4B6",
"l  c #53A3BD",
"z  c #56ABBD",
"x  c #4484C1",
"c  c #4488C6",
"v  c #448BCB",
"b  c #4790CB",
"n  c #4895CB",
"m  c #4B9BCB",
"M  c #458FD2",
"N  c #4591D6",
"B  c #4A9CD7",
"V  c #4594DA",
"C  c #4698DF",
"Z  c #4EA1CB",
"A  c #56AEC0",
"S  c #51A7CB",
"D  c #53ADCC",
"F  c #59B6C4",
"G  c #56B3CC",
"H  c #5BBCCB",
"J  c #4EA5D7",
"K  c #4EA6D8",
"L  c #52ADD7",
"P  c #52ADD8",
"I  c #56B4D9",
"U  c #59BBD9",
"Y  c #4697E0",
"T  c #479BE4",
"R  c #489CE5",
"E  c #479DE8",
"W  c #489EEA",
"Q  c #459BF7",
"!  c #469DF8",
"~  c #489FF8",
"^  c #4BA2E4",
"/  c #4EA8E4",
"(  c #4AA2EE",
")  c #4DAAEF",
"_  c #52AFE4",
"`  c #52B0E4",
"'  c #56B8E5",
"]  c #51B0EF",
"[  c #4AA4F4",
"{  c #4EADF6",
"}  c #47A0F8",
"|  c #4AA4F8",
" . c #4DABF8",
".. c #50AFF5",
"X. c #50AFF9",
"o. c #4FB0F9",
"O. c #53B5F4",
"+. c #55BAF5",
"@. c #51B3F9",
"#. c #55BBF9",
"$. c #58BFFA",
"%. c #5CC1CE",
"&. c #5EC5D1",
"*. c #5FC9DA",
"=. c #61CDD6",
"-. c #61CFDC",
";. c #64D4DD",
":. c #5CC3E5",
">. c #59C3F4",
",. c #5DCBF3",
"<. c #57C0FA",
"1. c #59C3FA",
"2. c #5CCAFA",
"3. c #5FD0FA",
"4. c #61CEE6",
"5. c #64D6E7",
"6. c #66DAE2",
"7. c #68DEE4",
"8. c #67DCE8",
"9. c #60CFFA",
"0. c #61D2F3",
"q. c #65D9F2",
"w. c #61D3FA",
"e. c #66DCFB",
"r. c #68E0E6",
"t. c #6AE4EA",
"y. c #6CE8EC",
"u. c #6AE4F3",
"i. c #6EEDF3",
"p. c #67E0FB",
"a. c #6AE5FC",
"s. c #6DECFC",
"d. c #70EFFC",
"f. c #6FF0F7",
"g. c #6FF0FC",
"h. c #71F2F6",
"j. c #71F2FC",
/* pixels */
"+ * : 8 a v N Y E W ( ( ( ( ( E ( ( ( ( ( W ( ( ( ( ( ^ W W ( W ( W W W W ( W ( W W W W W W ( ( W ( ( W W W ( ( W ( ( W ( W W R ",
"* - 6 0 x M V E ( [ [ ( ( ( ( ( ( [ ( ( ( ) [ ( ( ( ( ( ) [ ) ( ) [ ( ) [ [ ( ) ) [ [ ) ) [ ( ( ( ( ( ( ( ) ( ( [ ( ( ( [ W W W ",
"* : 7 0 c M Y W [ [ | [ { { { { { {  .o.{ .... .....@...X.X. .@...@.......@.....{ .......... . . . .[ [ [ | | | [ | [ [ | [ [ ( ",
"- : 7 q c V E ( [  .o.o.{ ..@.@.@.#.#.@.+.@.#.#.#.#.@.#.@.#.#.@.@.@.@.#.O.@.#.@.#.@.#.@.@.@.@.X.o.o.o. . .|  .| | |  .| | | [ [ ",
": : 7 q c V T W |  .{ @.o.#.#.#.$.$.$.$.<.$.<.$.$.$.<.<.<.<.$.$.$.1.1.1.1.#.1.$.1.$.$.$.#.#.#.@.@.o.o. . . .|  .| | | |  . .[ [ ",
"- : 7 q c V E (  . .@.@.#.#.<.<.2.2.2.2.2.2.2.2.2.2.2.2.2.2.2.2.2.2.1.1.2.2.2.2.2.1.2.2.2.1.1.#.#.#.@. . . . .| X.| .. .| [ [ ( ",
"> : 7 q c V T ( { { @.#.#.1.1.2.2.w.w.w.w.w.w.w.w.2.w.w.w.w.w.w.w.w.3.w.w.3.w.w.9.w.w.w.w.2.2.1.#.#.@... . . . .|  . .|  .| [ [ ",
"> : 7 q c V T W  .@.@.#.1.2.3.w.w.e.e.e.e.e.e.e.e.e.e.e.e.e.e.e.e.e.e.e.e.e.e.e.e.e.e.e.e.w.w.2.1.#.+.o.o. .| |  .| |  .| [ [ [ ",
"> : 7 q v N T ( { @.#.#.1.w.w.e.a.a.a.a.a.a.a.a.a.s.a.a.a.s.a.a.a.a.a.a.a.a.a.a.a.a.a.a.a.a.w.w.2.1.$.@... .X.| | |  .| | [ [ ) ",
"> > 7 q c N T ( { @.#.1.2.w.e.a.s.j.d.s.g.g.d.j.s.s.s.s.s.s.s.s.a.g.s.s.s.s.s.d.s.g.s.s.a.a.e.w.9.2.#.@.X.X.| | |  .|  . .| [ [ ",
"- : 7 q v N T ) { O.#.1.w.w.e.a.j.j.j.j.j.j.j.j.g.g.g.j.j.g.j.d.j.j.j.j.j.j.j.j.j.j.j.j.s.a.e.e.9.1.$.@.X. .X.|  . .| | [ [ [ ( ",
"> : 7 a v N T ( { @.$.2.w.e.a.s.j.j.j.j.j.j.j.j.g.g.j.s.g.g.j.j.s.g.g.j.d.s.d.j.j.s.g.d.s.a.e.w.2.2.#.@.X. .| | | | |  . .| [ [ ",
"> < 7 a c N E ( { #.<.2.w.e.a.a.j.j.j.j.j.g.g.s.s.a.s.s.a.a.a.a.a.a.a.a.a.a.a.a.a.a.a.a.a.a.w.9.2.$.#.@.X.| | | | | | | |  .[ [ ",
"> > 7 q v N T ( { @.<.1.9.e.a.s.j.j.j.j.g.g.a.a.a.p.e.e.e.e.a.e.e.a.e.e.e.a.e.e.a.e.e.e.e.w.9.2.1.#.@.X.X.| | | | | | | | | [ ( ",
"- < 7 q c V E ( { #.1.2.w.e.a.s.j.j.j.g.s.a.a.p.e.e.0.w.w.w.w.w.w.w.w.w.w.w.w.w.w.w.w.w.9.2.2.$.$.@.X.X.| | } | [ | | | | | [ [ ",
"> > 7 q v N R ( { @.#.2.w.e.a.s.j.j.j.g.a.a.e.w.2.3.2.2.2.2.2.2.2.2.2.2.2.2.2.2.2.2.2.<.2.$.$.#.@.X.X.| | | ~ ~ } | [ | | [ [ [ ",
"> : 6 q c V T ( ..@.1.2.w.e.a.s.j.j.g.a.a.e.w.2.2.1.$.#.#.#.#.#.#.#.#.#.#.#.#.#.#.#.$.#.#.#.@.@.X. .| | ~ ! ! ~ ~ ~ | | | | [ [ ",
"> : 7 q c V R ( { #.#.2.2.e.a.s.j.j.s.a.a.w.9.2.$.@.@.X.@.@. .@.o.@.o.@.@.o.@.o.@.@.X.@.X.X. . .| | } } ! Q ! ! ~ ~ } | | | [ ~ ",
"> < 7 q c V R ( ..@.$.1.w.e.a.s.j.j.s.a.e.w.2.#.@.@. .| | |  . .[  . .| | |  . .| |  .| | | | } } ~ ~ ! Q Q Q Q ~ ~ } } [ } [ ( ",
"> > 7 a c N T ) ..@.$.2.w.e.a.a.j.g.a.a.e.2.1.#.X. .} ~ ~ ~ ! } } } } | } | } } } } } | } } } } ~ Q Q Q Q Q Q ! ~ ! } } | [ [ [ ",
"> : 7 q v V T ( { #.#.2.w.e.a.s.g.j.a.a.w.2.$.@. .} ~ Q Q ! ~ ~ } } } | } | } | | } | } | } } } ! ! Q Q Q Q Q ! ! ~ ~ ~ | | [ [ ",
"> : 7 q v M T [ ..@.1.2.w.e.a.s.g.j.a.e.w.2.#.@. .} Q Q Q Q ~ } } | |  .|  . .|  .|  . .[ | | | ~ ~ ~ ~ Q Q Q ! ! ~ | | | [ ( ~ ",
"> > 7 q v V T (  .#.<.2.w.e.a.s.g.g.a.a.w.2.#.@.| } Q Q Q ! | |  . .o.@.@.@.o.@.@.@.@.X. .o.{  .| | } ~ ! ! ! ! ~ ~ ~ | | [ [ [ ",
"- : 7 q c N T ( @.@.<.2.2.e.a.s.j.g.a.a.w.2.#.@. .} ! ! } |  . .@.@.@.#.#.#.#.#.#.#.#.#.#.#.@.@.X.X.| | ~ ! ~ ~ ~ } | | | [ [ ( ",
"> : 7 q c N R ) { #.1.1.w.e.a.s.j.j.a.p.w.2.#.@.| } ! } |  . .@.#.$.2.2.2.2.2.2.2.2.2.2.>.<.#.#.@.@. .| | | | ~ | | | | |  .[ [ ",
"> : 7 q v V R ( { @.<.2.2.e.a.s.j.s.a.e.w.2.$.@.[ | ! } |  .@.#.$.2.2.2.2.w.w.3.w.w.3.3.3.2.1.1.$.@.@. .| | } | ~ | | | | | [ [ ",
"> : 7 q c V R ( o.@.#.2.w.e.a.s.j.d.a.a.w.2.#.@. .} } }  .@.@.1.2.w.w.e.e.a.e.e.a.a.a.e.e.e.2.2.1.#.@.X.X.| | | | | | | | [ [ ( ",
"> : 7 q c N R ( { #.#.2.w.e.a.s.d.j.a.a.w.2.#.@.| | } |  .@.$.2.2.e.a.a.a.a.s.a.a.a.a.a.a.e.e.9.2.1.#.@.X.| | } | | | | | [ [ [ ",
"> : 7 q c V T ) ..#.<.2.3.e.a.d.j.s.a.a.w.2.#.@. .} | | X.@.1.2.w.a.a.j.g.j.j.g.d.s.j.s.i.a.e.0.2.>.+.O...[ [ [ | [ [ | |  .~ ( ",
"> : 7 q c N T (  .@.#.2.3.e.a.s.j.j.a.a.w.2.#.@. .| | | @.#.1.9.e.a.j.j.j.j.h.h.d.i.i.i.u.u.q.0.,.>.+.] ) ) [ ( [ [ [ [  .[ [ ( ",
"> : 7 q v N E ( ..@.<.2.3.e.a.s.j.d.a.e.w.2.#.@.| | } | X.#.2.9.e.a.h.j.j.h.h.f.i.y.t.r.8.5.4.:.' ' ` _ ^ R R R W W ( [ [ [ [ ( ",
"> > 7 q c N T ( ..#.<.2.3.e.a.a.j.s.a.a.0.2.$.@. .} | | @.#.1.w.a.a.h.j.h.h.y.y.r.7.6.;.-.*.&.U I L J B B V C V C R R W [ ( [ ( ",
"> : 7 q v N T ( { #.#.2.3.e.a.s.j.j.a.e.w.2.$.X. .} } | o.$.2.w.e.a.j.h.h.i.y.r.;.;.=.=.%.H G D S Z m n b v v N N C T E ( ( ( [ ",
"> : 7 q v N T ) { @.<.2.3.e.a.s.j.j.a.a.w.2.#.@. .| |  .o.@.2.w.p.a.g.h.i.y.r.;.=.=.%.z z k l j g f d s a a x c v N V R E ( ( ( ",
"> : 7 q c N T ( { #.<.2.w.e.a.s.j.s.a.a.w.2.#.@.| | } | @.#.2.2.p.a.j.f.y.r.;.;.&.z z k h p p t t r 9 9 9 9 0 a c c N C T ( ( ( ",
"> : 8 0 v V T ( o.@.#.2.9.e.s.s.j.g.a.e.w.2.$.X. .| }  . .#.2.3.p.a.g.f.y.r.;.%.F z h i y e w 2 2 1 , 1 < 1 7 8 a x v V T W W ( ",
"> : 7 q v N T ( { @.<.2.w.e.a.s.j.j.a.e.w.2.#.@.| | } | @.#.2.w.p.a.s.i.y.6.=.H z k i e 4 3 3 & # # # @ @ ; < 6 0 a c M Y W W ( ",
"; : 7 q v N T ) { #.1.1.2.e.a.a.g.s.a.e.w.2.#.@. .} }  .X.#.<.w.e.a.s.i.t.;.&.F k p e 3 & $ $ $ $ % $ O O @ = > 7 0 c M C T W ( ",
"> : 7 q v N R ( { @.#.1.3.e.p.a.d.a.a.e.9.2.#.@.| | }  .X.#.2.2.e.a.s.u.8.-.%.A h y 4 & $ . . . .   . . . . @ > 5 8 a v V T W ( ",
"> : 7 q v N T ( { @.#.1.2.w.e.p.a.a.a.w.9.<.#.@.| } } | X.@.$.2.w.e.p.u.5.*.H z p e 3 & .                 . O = : 8 a v V E W ( ",
"> : 7 q v N T [ { @.+.1.1.3.e.e.a.e.w.w.1.#.@.@.| } } | X.@.#.2.3.w.e.q.4.*.G l u 2 3 % .                 . X = : 8 a v V T W Q ",
"> : 7 q v M R (  .@.@.#.1.2.3.w.w.w.9.2.1.#.@. .} ~ } } | @.#.$.2.3.w.0.:.U L j u 2 & % .                   X = : 7 q v V T W ( ",
"> : 7 q v N Y (  . .@.#.#.1.2.2.w.9.2.1.#.@.{ | } ~ Q ~ | X.@.#.<.2.2.,.:.I S j t 2 ; % .                 . X = : 7 q v V T W ( ",
"; : 7 q v V R (  . .@.@.#.#.1.1.2.<.1.#.#.@. .| ~ ! Q Q | X.X.@.+.2.>.>.' P m f r 2 # $ .                 . X = : 8 a v V T W ( ",
"; : 7 q c N R W | ......@.@.#.#.$.#.#.@.o. .| } Q Q Q Q | |  .X.@.#.+.] ` K m d r 1 = $ .                 . X = : 8 a v V T W ( ",
"> : 7 q v M R W | ..X.X.@.X.@.@.@.@.@.X. . .| } Q Q Q Q } } | X. ...@.] / J n s 9 1 = o .                 . X ; : 8 a v V T W ( ",
"> : 7 q v V R W [  . . .X. .X...@...X.|  .| } ~ Q Q Q Q ~ ~ | |  . .{ { ^ B b s 9 1 = X . .               . X ; 5 8 a v V T W ( ",
"> : 7 q c V R } | |  .|  . . . . . . .| | } } ! Q Q Q Q ! ~ } | |  . .( R V v x 0 6 ; @ o . . . o . .   . X @ > 5 8 x v V E W W ",
"> : 7 q v M R ~ [  .| X.|  . .|  .| | | | } ! ! ! Q Q Q ~ ~ ~ } | | | [ E V N c q 7 5 = = X X X X X X X X = = 5 7 q c M V R W [ ",
"> : 7 q v V R W [ [ | [ | | |  .| | | | } } } } ! ! Q Q ~ ~ ~ } [ | [ ( E C N c q 0 7 : > = ; = = ; ; - = : 5 7 0 q v M Y W W ( ",
"> : 7 q v M T [  .| |  .|  . .| |  . .| | } } } ! ! ! ! ~ } } [ | | | ( ( C N b c q 0 7 5 5 5 5 : 5 5 5 5 6 7 0 q c M V R W ( ( ",
"> : 7 q v N T } [ | X.|  .|  .| |  .| | | | } } } ! } ! } } | } | | | [ ( T C N v x x q 0 8 8 8 8 8 8 8 8 0 q a v v M Y R W [ W ",
"> : 7 q v M R W  .| ..| | |  .| |  .| | | | } } } } } [ } | | | | |  .| ( W T V N N c x x a a a q a a a a x c v M N V T W ( [ W ",
"> : 8 q v V R W | | | | |  .| X. .[ | | | | | | | } } } | | | | | | | [ ( ( E R C V N N v v v v v v v v v M M N V Y T W W [ [ } ",
"> : 7 q v N R W [ | ..|  .| | X. .| | | | | | | | | | | | | |  . .| |  .[ ( ( W R T C C V V V V V V V V V V Y Y T E W ( [ [ ( [ ",
"; : 7 0 x N R W [  .| | | | | [ [  .[  .| | | } | | | [ | | | [ | [ | [ [ [ ( ( ( W W R R R R R E E T E E E E E W W W ( [ [ ( ( ",
"> > 6 q x M Y W ( [ [ [ [ [ [ [ ( [ ( ( } [ ( ( [ } [ [ } [ [ [ ( [ [ [ ( [ ( ( ~ W W W W W W W W W W W W W W W ( ( W ( [ [ W W ",
"= > 6 8 x v N Y R W R W R W R R W ( W W W W W W R R R W W W R W R W W W W R W T W R R R R W R R E E E E W W W E T E E E E E T T ",
"= = 5 7 q x v M N C V V V V V V V V V V V V C C V V C V V V V V V V V V V V V V Y V V V V V C C V V V V V C V V V V V V C V N N ",
"@ = > 5 7 q a c v v v v v M v M v v N b v v v v M v v v v v v v v v M v v M v v v v v v v M v v v v v M v v M v v M v M v v v c ",
"@ @ ; 5 6 8 q q a x x x x x x x x a x x x a x x x x a x a x x a x a x x x x x x x x x x a x x x x x x x x x x q x x x x x a a q ",
"o X @ = > 5 7 7 0 0 0 0 0 8 0 8 0 0 0 0 0 0 0 0 0 0 0 0 0 0 0 0 0 0 0 0 0 0 0 0 0 0 8 0 0 8 0 8 0 0 8 8 0 0 0 0 0 0 0 0 0 0 8 0 ",
"o X X @ = > > : 5 5 5 5 5 5 5 5 6 6 6 6 6 6 6 6 6 6 6 6 6 6 5 5 6 5 5 6 6 6 6 6 5 5 5 5 5 6 5 5 5 5 5 5 6 6 6 5 6 6 5 5 5 5 5 5 ",
"o o X X @ = = ; > : > > : : : : > > > > > > > > > > > > > > : : > > > : > > > > > > : : : : > : : > : 5 > > > > : > > > > > > > "
};
