/* XPM */
static char *result[] = {
/* columns rows colors chars-per-pixel */
"64 64 254 2 ",
"   c #3E3A01",
".  c #3F350B",
"X  c #373A2B",
"o  c #561902",
"O  c #521902",
"+  c #690A05",
"@  c #780807",
"#  c #651403",
"$  c #771310",
"%  c #482801",
"&  c #572502",
"*  c #473702",
"=  c #533604",
"-  c #5B3B14",
";  c #643604",
":  c #6C2D12",
">  c #56382F",
",  c #6B2A2E",
"<  c #6B1F21",
"1  c #374A05",
"2  c #3A5A04",
"3  c #355016",
"4  c #13721D",
"5  c #3B6A06",
"6  c #3C7A07",
"7  c #377817",
"8  c #145A3A",
"9  c #0C5431",
"0  c #2E5433",
"q  c #17692B",
"w  c #1B782A",
"e  c #19693A",
"r  c #167036",
"t  c #277938",
"y  c #2A7336",
"u  c #464807",
"i  c #55460A",
"p  c #455706",
"a  c #545210",
"s  c #654E12",
"d  c #456709",
"f  c #467A0B",
"g  c #5B6518",
"h  c #467813",
"j  c #567818",
"k  c #50690F",
"l  c #62681B",
"z  c #514F2A",
"x  c #6B4E31",
"c  c #587822",
"v  c #57712C",
"b  c #657124",
"n  c #0D3B58",
"m  c #143B5B",
"M  c #0D3C4D",
"N  c #2D3353",
"B  c #0C3B66",
"V  c #153A67",
"C  c #173A78",
"Z  c #152F75",
"A  c #283777",
"S  c #29316F",
"D  c #4D334D",
"F  c #683146",
"G  c #483660",
"H  c #0C4648",
"J  c #154C49",
"K  c #0C5447",
"L  c #165549",
"P  c #0D4557",
"I  c #154857",
"U  c #195658",
"Y  c #0D5150",
"T  c #26595B",
"R  c #2D4E53",
"E  c #1A6547",
"W  c #1D6255",
"Q  c #236A4C",
"!  c #246846",
"~  c #2B7D43",
"^  c #287646",
"/  c #286656",
"(  c #34754D",
")  c #0D4466",
"_  c #164769",
"`  c #1B5265",
"'  c #174378",
"]  c #0F4475",
"[  c #284865",
"{  c #2E5071",
"}  c #316663",
"|  c #4D494D",
" . c #4D714E",
".. c #716752",
"X. c #584A6F",
"o. c #72526D",
"O. c #497072",
"+. c #715665",
"@. c #895455",
"#. c #844D40",
"$. c #8D5D6A",
"%. c #8B6E72",
"&. c #1D9E03",
"*. c #1D9D0B",
"=. c #179E03",
"-. c #1E9C14",
";. c #1D861D",
":. c #3A8A08",
">. c #239D03",
",. c #2A9B04",
"<. c #239C0B",
"1. c #2A9B0C",
"2. c #2B950A",
"3. c #349405",
"4. c #34950B",
"5. c #369808",
"6. c #2D8D17",
"7. c #398C19",
"8. c #269613",
"9. c #2B9614",
"0. c #239C13",
"q. c #2A9A13",
"w. c #25951C",
"e. c #2B941C",
"r. c #249A1B",
"t. c #2B991A",
"y. c #339413",
"u. c #33931C",
"i. c #389617",
"p. c #1CA102",
"a. c #1DA20A",
"s. c #17A602",
"d. c #23A103",
"f. c #23A10A",
"g. c #29A10A",
"h. c #25A213",
"j. c #1D8427",
"k. c #2B8B2B",
"l. c #278926",
"z. c #348C28",
"x. c #2C9323",
"c. c #289327",
"v. c #339424",
"b. c #34932A",
"n. c #2B8836",
"m. c #358838",
"M. c #339235",
"N. c #2A9533",
"B. c #2EA128",
"V. c #43870C",
"C. c #478715",
"Z. c #518319",
"A. c #459217",
"S. c #43942A",
"D. c #4D9135",
"F. c #2D8444",
"G. c #358A47",
"H. c #4C914E",
"J. c #6CA756",
"K. c #548A6B",
"L. c #7A8963",
"P. c #6BA563",
"I. c #659D4B",
"U. c #89B773",
"Y. c #868070",
"T. c #172888",
"R. c #1A3E84",
"E. c #193988",
"W. c #1B2B9C",
"Q. c #162A94",
"!. c #1B3798",
"~. c #0D2A8D",
"^. c #242985",
"/. c #293489",
"(. c #363885",
"). c #242B98",
"_. c #263999",
"`. c #313A9A",
"'. c #1B2CA6",
"]. c #1B34A4",
"[. c #1D3CA2",
"{. c #1634AC",
"}. c #1B34AC",
"|. c #1E39AC",
" X c #1734A5",
".X c #1B34B3",
"XX c #1D39B4",
"oX c #1A34BA",
"OX c #1E3BBA",
"+X c #1632B6",
"@X c #162FB8",
"#X c #2233A5",
"$X c #2235AD",
"%X c #233BAD",
"&X c #2B3BAC",
"*X c #283AA6",
"=X c #303BAE",
"-X c #2335B3",
";X c #243CB4",
":X c #2A3CB4",
">X c #233DBB",
",X c #2A3BBA",
"<X c #2A36B7",
"1X c #2D36AE",
"2X c #1A428B",
"3X c #194184",
"4X c #1C4294",
"5X c #1E429B",
"6X c #21418C",
"7X c #254399",
"8X c #36479C",
"9X c #3F5C84",
"0X c #1F43A3",
"qX c #2343A4",
"wX c #2243AC",
"eX c #2944AB",
"rX c #3649A9",
"tX c #2443B3",
"yX c #2542BB",
"uX c #2B43BB",
"iX c #2A47B8",
"pX c #344AB7",
"aX c #3152B3",
"sX c #4B4F90",
"dX c #6A6999",
"fX c #7275AE",
"gX c #515E9E",
"hX c #253CC1",
"jX c #3139C3",
"kX c #1C38C0",
"lX c #2A46C2",
"zX c #364BC5",
"xX c #3756C8",
"cX c #3755CC",
"vX c #435BD6",
"bX c #4961DD",
"nX c #837996",
"mX c #719498",
"MX c #95918C",
"NX c #94AE86",
"BX c #908FB5",
"VX c #ACB6AD",
"CX c #98A8A2",
"ZX c #97C48A",
"AX c #B6D4AB",
"SX c #A8CD92",
"DX c #D1E6BB",
"FX c #C8CDB9",
"GX c #ADB1CD",
"HX c #9B9AC6",
"JX c #D1CFDD",
"KX c #D2ECD1",
"LX c #ECF1EB",
"PX c #D7D7EC",
/* pixels */
"p.p.a.=.*.s.a.a.a.a.p.p.p.&.&.p.*.*.*.*.<.f.>.>.&.>.p.>.a.a.<.a.h.h.f.&.>.d.d.d.>.>.>.*.*.-.r.r.-.-.a.s.&.s.p.s.&.&.&.>.&.&.<.f.",
"p.*.=.a.a.p.*.s.a.p.=.s.p.p.p.&.*.*.*.<.f.f.>.*.>.d.d.f.a.-.-.0.8.r.-.h.1.f.>.d.>.>.>.*.*.w.c.-.-.a.a.a.p.s.p.p.p.p.p.&.p.>.>.f.",
"p.&.p.p.a.a.s.p.=.a.=.a.p.p.&.p.*.f.f.*.1.<.<.<.f.1.1.0.-.r.-.-.w.j.r.c.8.1.,.<.>.>.>.<.8.-.-.r.-.a.a.a.p.p.p.p.p.p.&.p.&.&.&.>.",
"&.p.p.p.p.=.=.=.=.=.=.a.a.p.a.p.f.f.*.f.<.*.<.8.8.t.t.c.N.j.j.j.w j.j.j.c.w.9.9.<.<.<.<.<.<.*.*.a.-.a.a.p.p.p.s.p.p.&.>.d.d.>.>.",
"p.p.p.d.p.p.&.=.=.=.=.p.a.a.f.a.g.f.g.<.<.0.8.t.c.c.N.n.n.t r r r r r r l.l.c.x.t.1.1.<.<.&.&.>.a.a.a.p.p.p.p.p.p.>.p.>.>.>.>.d.",
"&.&.p.d.d.p.p.&.p.=.p.d.a.a.a.f.g.d.g.f.8.8.x.c.M.M.F.F.^ E E K K K K E E t n.k.b.e.q.1.<.<.1.d.a.a.a.s.p.p.p.p.p.p.&.&.>.&.>.>.",
"&.>.&.p.p.d.&.&.p.p.p.p.p.p.d.p.d.g.g.q.9.x.z.n.n.F.^ Q W W Y ) ) P Y Y E E t t n.x.6.8.2.<.1.g.a.a.a.a.p.p.p.p.p.>.&.>.>.>.>.>.",
"&.&.&.>.&.&.p.p.p.d.p.d.>.>.d.>.d.>.1.q.x.b.n.n.^ Q W ` ) ] ] ] 3X] ] ) P U E E t n.k.6.9.9.q.1.-.a.=.*.f.p.d.f.p.&.&.>.>.>.>.>.",
"&.>.&.&.&.p.&.&.>.>.d.d.>.>.>.>.2.2.9.u.b.M.F.^ W W W ` ] 3X2X2X2X4X2X] ` ` Y W E ^ n.N.N.x.e.e.<.0.0.f.<.f.f.*.<.&.&.*.>.>.>.>.",
"&.*.&.&.&.&.&.d.d.>.>.,.,.,.,.,.y.i.u.z.m.~ ^ / W ` ] ] 3X2X0X0X0X0X5X4X3X] ] Y W E E ^ n.F.M.z.x.t.t.q.8.0.1.1.<.<.<.*.<.>.>.>.",
"*.p.p.&.&.>.f.>.,.1.1.9.1.y.y.y.z.z.m.m.^ Q / ` ) ] 3X3X4X0XwXwXwXwX0X0X5X2X3X] ) ` W E ^ F.F.G.N.b.N.v.e.t.t.8.8.1.0.1.<.<.>.&.",
"a.a.*.=.p.>.f.1.q.q.9.e.v.v.z.z.m.G.~ ^ / U I _ ] 2X2X4X0XwXwXyXwXwXwX0X0X0X4X4X] _ ) U / / ( G.F.G.m.n.k.k.x.e.w.r.0.0.0.<.<.&.",
"s.s.p.p.*.<.0.r.e.u.l.7.t y t y  .( / / T ` ' 3X4X4X0X0XwXwXaXwXwXwXwXwXtXwXwX0X5X2X] ] ` } } } ( / ~ ~ y w l.x.c.w.r.r.h.a.*.*.",
"s.p.s.p.a.-.0.w.l.w w q q e ! ( / T T [ ' ' 2X4X0X0X0XaXwXwXwXwXwXwXwXtXyXyXyXyX0X0XE.3X' ' ` { T / / E q 4 w w w.w.r.h.0.*.*.*.",
"s.s.s.p.a.-.-.c.l.w q 9 8 8 J J I I _ ' ' 6X0X0XwXwXwXtXwXwXaXwXaX0XwXwXyXkXlXlXyXtX0X4X3X' ' _ I m I K 9 9 q 4 4 w.r.r.-.h.*.*.",
"s.s.s.s.a.-.w.c.j.q 9 9 H M M J M m V C E.7X0XwXyXiXtXtX0XaXwXaXaXaXaXlXyXlXkXkXlXlXtX0X6X3XV V B n n 9 9 9 9 4 4 ;.;.r.h.0.a.&.",
"s.s.s.f.h.c.N.n.~ Q Y P V C E.E.T.~.Q.!.}.>X>XhXlXOXOXyXyXiXxXaXxXxXxXlXiXiXXX;XyX:XuXtX;X'.'.'.Q.~.E.C n H 9 q w l.t.t.q.g.<.&.",
"s.d.s.a.h.h.N.N.F.Q Y P V C R.2XE.!.!.]..X;X>XhXkXhXlXyXiXlXaXxXxXxXxXxXlXtXtX;X;XuX,X:X<X@X{.'.Q.!.E.' B H 9 8 q l.v.t.h.1.<.1.",
"d.s.d.f.0.r.c.n.~ E Y I B C 4X7X!.!.#X%X;X>X>XhXyX>XyXyXaXlXxXxXxXcXcXcXzXyXyXOX;X>X>X>X;X;X>X-X].[.4X3X] P 9 e y l.b.t.1.1.>.g.",
"s.d.d.f.0.r.c.n.~ ! L n C C 7X7XeXeXwXtXyX>XhXhXOXyXyXiXlXxXxXxXvXcXcXcXzXlXyXOXyX>X>XOX>X,X>X>X:XwXqX4X] n H L t n.k.u.q.,.,.g.",
"p.d.>.<.8.t.b.M.~ ! L P B 3X6XqXtXwXtXXX;XyX>XyX>XtXyXtXiXpXpXzXbXcXcXcXzXlXlXlXyX>XOX>X>X>XyXlXyXyX0X5XC B Y K ! n.M.6.y.,.,.,.",
">.>.>.<.q.u.b.m.^ ! U n B 3X5XqXyXtXyXyXOXOXOXOXtXXXXXtXpXzXcXvXbXbXvXcXlXuXyXyXlX>X>XOXOXOXhXlXyXyXwX!.~.B P W Q ~ m.z.y.5.,.5.",
"<.>.<.2.q.v.b.n.t Q Y ) C E.!.wXyXyXyXoXOXOXOXOXOX;X:XtXlXxXvXvXbXbXcXcXlXuXyXtXyXyXOXOXXXOXOXOX>XOX0X0X3XB ] ` / ( m.z.i.5.5.5.",
"<.2.2.9.e.z.k.~ ^ U U ] C 4X[.wXkXkXoX+XoXoXOXOXOXtX;XtXiXzXzXvXcXcXcXcXuXyX>XXXXXOXXXXX.X+XXXoXOXtX|.0X2X3X] ` / ( m.z.v.5.5.5.",
"<.1.8.9.w.k.t y ! U ` ' 3X5X|.wXkXkX@X+X@X+X+XXXXXXX|.;X,XlXzXcXcXcXzXzXuX;XXXXX|.|.{.{.{.{.{.{.XX|.0X%X5X3X' ` T Q ^ n.7.7.4.2.",
"2.1.9.w.l.l.w e L I _ ' 4X0X|.%XoX+X@X@X@XoX+X.X.X}.|..X-XjXzXzXzXzXpXuX:X;X|.|.{.{.{.{.{.{.+X}.].].[.!.!.E.' ' ` W e y z.7.6.4.",
"<.1.9.e.c.t r E J I ' 6X5X0X|.|.oX@X@X@X@X@X+X+X@X{.'.}..X<XhXjX,XuXpX:X;X|. X X X|.{.{.{.}.}..X X].[.[.5XE.R._ I J E y k.z.7.6.",
"<.8.8.c.n.n.e K Y V ' R._.*X'.#XoXoX@XoXoXOX.X.X}.}.}.}.-X-X<XhX,X:X1X%X%X]. X[. X].%X%XOXXX|.}.!.'.].]._.7XR.' P I 8 y t z.e.6.",
"&.<.0.c.k.~ E Y P B ' !.7X%X'.'.-X-X-X>X<XOX>X-X-X.X}.|.-X-X-X-X-X$X$X$X].].].].|.|.%XtX:X-X-X<X$X'.#X$X*X_.2XC B H L t m.M.b.v.",
"p.<.-.c.n.^ W Y B B R.7X*X*X#X#X$X-X%X<X,X,X>X;X;X%X-X$X$X}.-X-X$X].$X].].]. X].|.%X;X;X:X,X<X<X-X<X$X$X&XqX7X' B P K E F.M.b.l.",
"d.f.-.c.j.^ W Y B Z E.!.qX&X#X*X1X1X&X:X:X<X:X;X;X;X|.$X}.$X'.'.'.'.}.}.].].|.|.%X;X%X;X<X,X<X<X<X<X<X<X:X*X5XR.B P K E F.G.N.x.",
"p.d.h.c.N.^ K Y B B 4XqXeXrX&X&X&X&X&X:X;X;X;X|.|.|.$X}.$X}..X'.'.'.'.}.|.|.|.|.|.$X$X;X;X<X,X<XjXjX<X<X;XeX_.3XB n K E F.n.k.l.",
",.<.9.w.k.^ L Y P ' R.7X*XrX=X=X&X&X:X:X;X.X}.+X.X.X.X-X-X-X-X1X].|.%X%XXX%X|.{.{.{.{.0X|.%X%X&XjXjX<X;XtXqX6X' V I L E F.G.F.n.",
">.<.8.c.k.t e H P V C _.`.&X&X=XtXtX:X;X$X}.{.{..X.XXX;X-X;X-X<X;X;X:X:X;X;XXX|.{.{.{.{.|.;X&X<XjXjX,X:XeX7X6XC n H L ! ~ G.N.N.",
">.>.0.w.n.w e 8 H B Z E.!._.*X=X&XtX%X|.{.}.{.{.+X;X>X<X<X:X:X,X:X:X:X>X,X,X>XOXoX.X@X{.}.-X:X1X<X<X=X&X#XE.Z B n H 9 e r N.N.N.",
"p.>.h.r.j.n.r L H n B C E._.*X&X&X*X]. X X X}.XX;X>XyXyX:X:X:X:X,X<X>X,X,XhX>X>X>X-X.X{.}..X$X-X1X=X=X*X/.C V n H 8 8 q j.c.N.B.",
"a.a.h.r.c.l.t e L J n C R._._.&X%X[.!. X'. X.X|.;X;XyXtX:X%X&X:XuX<X,X<X<XhX<XhXhX>XXX.X}.}.$X'.`.1X*X`.A Z m I J ! y w c.w.r.h.",
"a.a.h.r.c.c.n.~ ! T I V Z E./.!.!.!.Q.W.!.].|.XX;X>XuX,X:X:X%X%X&X-X:X:X<X,X,XhX,XyX;X;X$X].W.Q.^.)././.Z n M J ! y m.l.w.8.g.h.",
"s.a.a.-.w.c.b.F.( ! J m V C T.E.Q.E.Q.!.!.}.&XtX:XuXuX=X:X&X1X'.W.].$X1X:X,X,X,X<X;XtXwX*X!.!.T.^.^.^.Z V m M J ! m.M.e.q.1.d.d.",
"s.a.a.*.0.w.b.D.y ! L J ) V C R.T.T.T.Q._.*X&X=X&X&X:X:X1X1X'.W.~.Q.W.#X&X<X1X:X:X%XeXqX_._.E.T.S ^.S S m M 9 0 y m.b.t.1.d.s.d.",
"=.a.a.a.h.8.e.M.t y ! R [ [ 2X' Z Z Z )./._.*X1X'.1X'.'.1X).'.Q.~.~.Q.'.'.'.#X1X#X$X*X7X6XR.C Z S A { { [ R ! e t k.x.9.1.d.d.p.",
"s.a.a.a.a.<.e.v.z.y 0 ( } O.9X9X(.A A (.`.`.`.`.).).).).'.).).).~.Q.Q.Q.'.'.'.'.).W._.7X_.R.C C A { { } } / ( n.n.z.e.1.>.d.p.p.",
"-.a.a.a.>.1.9.u.z.S.( H.O.mXmXmXdXgXsX8X(.(.^.^.T.^.T.).).).).).[.].'.'.'.'.'.).W.Q.E.E.6X[ ' { X.O.} 9XO.G.G.M.l.w.w.8.f.d.d.p.",
"a.a.a.h.<.>.q.i.v.z.H.K.mXCXGXAXGXHXfXdXsX(.^.S ^.^.^.).).1X1X1XtXeXtXXX1X#XW.).Q.T.Z Z ' { { sXO.O.K.K.K.H.G.M.x.6.8.<.g.g.d.p.",
"g.f.g.>.<.,.9.y.v.S.H.P.NXAXKXKXPXPXJXnXdXsX(.(.).`.).`.rXrXrXrXaXaXpXpXpX=X1X).T.Z V S [ { O.O.K.K.K.H.H.G.M.x.w.8.8.<.f.g.g.p.",
">.,.>.>.>.<.1.q.B.S.H.J.ZXAXKXLXLXLXPXGXnXnXdXsXsXrXsXrXrXrXrXaXaXaXaXrXrXrX`.).S Z S S R O.O.K.K.H.H.H.M.M.v.r.8.<.>.>.f.g.f.d.",
",.>.,.>.>.>.q.q.S.S.M.P.ZXAXKXLXLXLXLXJXGXHXBXfXfXgXsX8X8X7X7X8X8X8X8X8X`.`./.^.A S S R R | O. .H.H.H.M.z.e.t.0.<.>.>.>.>.<.>.&.",
",.,.,.>.2.1.1.i.i.B.H.P.ZXAXFXLXLXLXPXPXJXGXHXBXfXgXgX8X7X/.R._.3X6X7X6X(./.^.S S S [ R  . . . .y S.m.b.x.e.8.1.2.<.g.,.>.,.&.&.",
"d.d.d.>.,.,.,.9.i.S.D.J.U.SXAXDXDXDXFXFXVXMXBXnXfXdXsX[ S V _ V ) V B V Z S S N G G D z z z l b j c Z.7.4.4.1.f.p.p.&.&.p.*.&.p.",
"d.d.>.>.,.,.3.4.y.i.S.I.J.ZXZXSXAXFXVXVXVXnXnXdXdXsX{ S m V I [ I _ I S N N G G G D D > > z x l b j Z.C.i.5.1.d.&.&.&.&.&.p.p.*.",
"p.d.>.>.,.,.2.4.y.7.S.D.I.J.U.U.U.NXNXMXnXnX$.o.X.X.N N m R R R T T R R N N D D D F x , > s s #.l l c Z.V.5.,.d.&.&.&.&.a.p.a.a.",
"&.p.d.g.d.g.1.2.4.y.7.S.S.I.I.I.L.L.Y.Y.%.%.$.o.X.| N N X R / } (  .| R N < D D F F , , , , ; #.l l j j V.V.5.g.>.&.>.*.f.<.a.&.",
"&.*.f.f.g.>.>.2.2.9.u.7.A.D.D.D.v .. ...%.%.$.$.+.F D X X ! (  .H. . ...z > , , , , , < : : : s s s s k V.V.5.5.,.>.>.>.&.f.a.&.",
"=.&.a.f.f.g.1.,.2.4.y.u.A.S.C.7.y 3 z x ..$.$.$.@.F z X X 0 y v v D.v l z , , < $ $ $ @ $ $ $ $ ; ; s a k V.V.V.3.>.1.f.&.*.a.&.",
"p.*.p.f.g.d.g.>.2.8.q.y.v.6.z.7 3 3 1 z x @.$.@.@.x > . 1 3 7 S.Z.j v l s - < < $ $ @ @ $ @ @ @ # ; ; i s f V.V.5.1.1.>.>.&.p.p.",
"=.p.p.p.d.d.>.>.>.1.q.y.6.6.6.7 3 1 . u x #.#.#.x x x * 1 2 7 h Z.j j g s - $ $ @ $ @ @ @ @ @ @ # : ; ; k k V.V.5.5.2.>.>.>.p.f.",
"s.p.p.p.p.d.>.>.&.<.8.q.9.6.6.6.d 2 1 1 i > - : > - i p 1 5 7 C.Z.Z.k k i & & # $ @ $ @ @ @ @ @ # # & i p k f A.4.4.,.,.&.&.d.d.",
"s.p.s.d.d.p.p.&.&.<.<.8.9.e.6.6.7 5 2 2 i i = * = * a p d f C.A.Z.C.j d u = & # + + + + @ @ + + o o & * a d V.V.i.5.,.,.>.>.d.d.",
"s.d.p.p.p.p.&.&.d.>.<.<.8.9.e.e.V.:.5 2 p p u * u p p d h C.C.A.A.C.f p   . % O O O + + + # o # o % % * p d 6 i.5.g.,.,.d.d.d.d.",
"s.s.p.p.&.p.d.&.&.&.*.<.<.q.9.y.V.:.:.6 5 d p d 5 d f h C.7.A.7.A.V.f 5 1   . % O O O o O o o & % % * 1 2 6 6 :.A.5.,.,.>.d.d.s.",
"p.s.p.p.p.>.p.&.p.>.>.>.1.1.9.1.5.5.:.:.:.6 f V.f V.7.:.7.y.y.y.5.:.:.5 2 1 1 * % % % % & = = = *   1 2 5 6 :.3.5.,.,.>.>.>.>.&.",
"p.p.p.p.&.p.d.d.>.p.>.>.<.<.1.4.,.3.,.3.3.3.4.4.4.y.y.y.4.2.3.2.3.:.:.6 5 d p u u - i i i i i i 1 u 2 5 6 :.2.3.5.3.,.,.>.>.&.&.",
"a.*.*.&.p.>.>.>.d.&.>.d.g.,.2.1.d.,.,.,.,.,.,.1.g.g.1.>.<.<.1.1.3.V.3.V.f h k g g g z l l l g g k h d h :.:.3.3.,.,.>.,.,.>.&.&.",
"a.a.*.f.&.>.&.&.d.>.d.,.d.d.,.g.,.d.,.>.>.>.d.f.f.p.*.&.&.f.1.g.5.5.5.V.C.Z.c c v l b b b b c g c j C.C.:.:.,.,.,.,.,.,.,.>.>.&."
};
