/* XPM */
static char *result[] = {
/* columns rows colors chars-per-pixel */
"64 64 256 2 ",
"   c #3B3A00",
".  c #34340E",
"X  c #2F3534",
"o  c #4D1C01",
"O  c #591802",
"+  c #5B0F00",
"@  c #6A0C05",
"#  c #780708",
"$  c #651504",
"%  c #741717",
"&  c #74140E",
"*  c #472500",
"=  c #463705",
"-  c #51320A",
";  c #672503",
":  c #673212",
">  c #573636",
",  c #672E2C",
"<  c #711F25",
"1  c #384802",
"2  c #3B5805",
"3  c #2E4615",
"4  c #3A6908",
"5  c #3E7811",
"6  c #3C7010",
"7  c #0B5838",
"8  c #145939",
"9  c #074F36",
"0  c #1B7729",
"q  c #196A37",
"w  c #1B7736",
"e  c #116731",
"r  c #227D2A",
"t  c #257939",
"y  c #29733C",
"u  c #375332",
"i  c #474907",
"p  c #485409",
"a  c #484615",
"s  c #465913",
"d  c #534A12",
"f  c #634E17",
"g  c #496815",
"h  c #566616",
"j  c #467817",
"k  c #537819",
"l  c #466D0D",
"z  c #554B2C",
"x  c #645030",
"c  c #597A22",
"v  c #51732D",
"b  c #656E31",
"n  c #62741F",
"m  c #183858",
"M  c #0F3D52",
"N  c #273759",
"B  c #3A3555",
"V  c #2C3447",
"C  c #0B3C67",
"Z  c #193868",
"A  c #192A78",
"S  c #133C73",
"D  c #183878",
"F  c #0D3C76",
"G  c #213B6A",
"H  c #233879",
"J  c #222A7F",
"K  c #4A3648",
"L  c #4F3348",
"P  c #0A4849",
"I  c #134847",
"U  c #0B5346",
"Y  c #155848",
"T  c #0B435C",
"R  c #0A4755",
"E  c #154A5B",
"W  c #185758",
"Q  c #0E5255",
"!  c #275857",
"~  c #314E56",
"^  c #1B6747",
"/  c #1D6852",
"(  c #246947",
")  c #287646",
"_  c #246755",
"`  c #347250",
"'  c #0D4666",
"]  c #154768",
"[  c #0F4274",
"{  c #164479",
"}  c #195363",
"|  c #274668",
" . c #355869",
".. c #274673",
"X. c #34516C",
"o. c #3F6B63",
"O. c #514B4C",
"+. c #6F594E",
"@. c #4B7151",
"#. c #776B55",
"$. c #496F6E",
"%. c #79696D",
"&. c #5A5871",
"*. c #88706C",
"=. c #846657",
"-. c #1D9E03",
";. c #1D9D0B",
":. c #179E00",
">. c #1C9A14",
",. c #3A880C",
"<. c #229D04",
"1. c #2A9A03",
"2. c #2C960C",
"3. c #249C0B",
"4. c #2A9B0C",
"5. c #279607",
"6. c #34940D",
"7. c #35950B",
"8. c #288E1D",
"9. c #3B8A15",
"0. c #2B9614",
"q. c #259B13",
"w. c #2A9A13",
"e. c #2B951B",
"r. c #2B991B",
"t. c #269618",
"y. c #339413",
"u. c #3B9313",
"i. c #319719",
"p. c #2F8F0A",
"a. c #15A401",
"s. c #1CA103",
"d. c #1AA10A",
"f. c #15A30A",
"g. c #0DA007",
"h. c #22A102",
"j. c #22A20A",
"k. c #2AA204",
"l. c #22A010",
"z. c #1E8227",
"x. c #2A8D23",
"c. c #2B8C2C",
"v. c #268828",
"b. c #348D29",
"n. c #2B9523",
"m. c #2C9A22",
"M. c #2D932C",
"N. c #279526",
"B. c #349526",
"V. c #2A8335",
"C. c #2C8B32",
"Z. c #2C833B",
"A. c #278736",
"S. c #348A38",
"D. c #2D9433",
"F. c #319232",
"G. c #389136",
"H. c #40890F",
"J. c #468817",
"K. c #468C14",
"L. c #458725",
"P. c #46962A",
"I. c #549838",
"U. c #4E8A39",
"Y. c #58A53F",
"T. c #2C8342",
"R. c #338743",
"E. c #4F8B4E",
"W. c #68954C",
"Q. c #598B69",
"!. c #7DAC69",
"~. c #6EA65A",
"^. c #8BB172",
"/. c #90C376",
"(. c #1A2988",
"). c #183A85",
"_. c #182A99",
"`. c #1D3D94",
"'. c #1C3B9C",
"]. c #183499",
"[. c #0A2895",
"{. c #243987",
"}. c #232E99",
"|. c #253998",
" X c #2C368B",
".X c #1B2EA6",
"XX c #1C34A5",
"oX c #1C34AB",
"OX c #1D3AAC",
"+X c #1936A7",
"@X c #1C35B2",
"#X c #1E3BB3",
"$X c #1B37B8",
"%X c #132EB1",
"&X c #222FA4",
"*X c #2234A5",
"=X c #233CA3",
"-X c #2235AB",
";X c #233BAC",
":X c #2A3CAD",
">X c #2A36A7",
",X c #2336B1",
"<X c #233CB4",
"1X c #2B3CB4",
"2X c #233DBB",
"3X c #2A3EBA",
"4X c #2836B3",
"5X c #313CB6",
"6X c #303BAF",
"7X c #184387",
"8X c #1C4596",
"9X c #244399",
"0X c #344491",
"qX c #1D43A5",
"wX c #1F43B1",
"eX c #2444A5",
"rX c #2442AC",
"tX c #2946A8",
"yX c #374DA9",
"uX c #2542B4",
"iX c #2A42B3",
"pX c #2442BB",
"aX c #2A42BB",
"sX c #2B4AB8",
"dX c #3758BA",
"fX c #314DB6",
"gX c #4B5596",
"hX c #546390",
"jX c #6C74AA",
"kX c #787087",
"lX c #263DC3",
"zX c #2C46C3",
"xX c #324BC7",
"cX c #3554C5",
"vX c #3C58C9",
"bX c #3B55D2",
"nX c #405ACD",
"mX c #857C8C",
"MX c #7A81AF",
"NX c #789993",
"BX c #948F8B",
"VX c #8593B2",
"CX c #B1B2AA",
"ZX c #9CAE9B",
"AX c #A9CC92",
"SX c #ABC8A9",
"DX c #BDE1B1",
"FX c #C7DFB5",
"GX c #9BA3C3",
"HX c #A2AACA",
"JX c #B6C6D0",
"KX c #BBC5E0",
"LX c #D2EFD1",
"PX c #DAE8E8",
"IX c #E9F9EF",
"UX c #D0D9DE",
/* pixels */
";.<.d.<.s.<.h.h.h.h.h.<.-.-.<.<.-.-.-.-.<.<.<.<.k.k.k.w.N.N.A.A.D.D.D.N.N.>.>.l.<.<.3.-.-.-.j.d.s.s.a.s.s.d.d.j.s.<.<.<.<.h.1.1.",
"<.;.<.s.<.s.h.h.h.h.<.<.<.<.<.<.-.-.-.<.<.<.<.5.1.1.4.w.>.N.N.A.A.N.N.A.N.N.m.m.2.3.3.-.;.<.s.d.s.s.s.s.s.s.j.s.;.<.<.<.<.1.h.1.",
"d.<.;.s.<.-.h.s.h.h.h.h.<.<.<.<.-.-.-.;.<.<.5.-.3.4.e.e.N.A.z.A.z.z.z.A.M.N.m.r.q.2.w.l.j.j.;.-.:.:.:.:.s.:.-.s.-.-.<.<.1.<.<.1.",
"j.d.<.-.s.-.h.h.h.h.h.<.<.3.<.<.3.;.3.5.q.q.q.q.t.8.n.v.z.A.^ z.^ w w z.A.A.v.N.N.r.w.l.3.<.-.-.-.:.:.-.:.-.s.s.s.-.-.h.h.h.<.<.",
"d.-.-.s.s.s.s.<.<.<.j.<.j.3.j.3.;.3.q.q.r.r.m.m.n.c.A.A.w q ^ ^ 7 7 e ^ q w T.A.D.D.m.m.w.3.<.-.h.s.s.h.s.h.s.s.s.<.-.h.h.h.<.-.",
"s.s.:.s.-.s.s.h.<.<.<.j.3.3.3.3.q.5.q.t.r.m.M.D.D.Z.A.^ ^ U U U U U U U ^ ^ ) ) R.R.D.m.r.q.5.5.<.j.<.<.h.h.h.h.-.s.s.h.h.h.<.-.",
"s.s.a.s.s.s.j.s.<.<.<.3.3.3.5.3.2.q.t.t.m.M.D.A.T.) ^ ^ Q Q Q Q ' Q Q Q Q Q / _ T.R.S.F.e.0.2.5.-.<.<.-.h.s.s.s.s.s.s.h.h.h.<.-.",
"a.s.:.:.s.j.j.j.;.<.j.1.4.5.5.3.q.0.t.n.M.D.A.) ) / Y Q Q ' ' [ [ 7X{ [ ' } } } _ ` T.S.b.e.0.0.<.<.5.<.h.<.<.-.-.-.s.s.h.s.j.-.",
"a.s.s.s.s.s.-.-.j.3.3.4.w.w.4.0.r.m.B.c.c.Z.Z.) / / Q Q { } 7X7X8X8X8X8X7X{ [ ] } _ ) ) S.b.i.i.2.4.4.5.3.k.<.-.h.h.s.h.-.j.j.s.",
"a.a.a.s.s.s.<.<.3.4.5.0.0.0.e.e.B.F.F.C.Z.t ^ W Q } [ } 7X8X8X8XwXwXeX8X8X8X7X[ } } _ ) ) S.b.b.e.e.e.y.w.w.5.<.<.<.s.-.-.d.-.d.",
"s.s.s.s.-.<.3.<.3.w.0.t.8.8.x.b.R.G.T.T.) ^ Y Q ' [ 7X8X8XdXeXeXsXwXdXwXrXqX8X).F ] E ! ) ) Z.S.C.b.n.x.e.e.5.q.3.<.;.-.;.-.-.;.",
"s.s.s.s.s.-.;.4.w.e.8.x.r v.V.V.) T.) ) / W Q ' [ 8X8XeXwXqXqXOXwXwXsXwXiX;XOX'.).{ ] W ! ( ` ` ) Z.t V.v.x.8.8.q.4.3.;.-.;.-.-.",
"s.j.s.s.<.<.q.w.m.n.v.0 0 e y q _ _ / W } Q ' [ 8X8XwXwXpXwXwX#XpXpX2X2X2X2X1XrXeX`.{ ] } ! ! _ ( ( q q 0 0 >.5.t.q.q.3.;.-.;.s.",
"a.s.s.j.-.;.q.t.M.c.0 0 8 7 Y Y Q R } ' ' [ 7X8X8XwXwXpXlX2XwX#XpXpX2X2X3XlX3XaXrX9X`.{ ] ] E E Y Q U 7 9 e 0 0 N.t.q.l.;.-.s.-.",
":.a.s.j.<.q.t.e.M.C.w 7 9 P U P ' C ' ' 7X7X8XqXwXpXpXlXzXzXzXzXzXzXzXzXlXlXlXlXiXeXeX`.).S ' Z M R P 9 9 e e z.v.t.q.l.3.-.-.s.",
":.s.s.h.;.4.t.m.D.Z.q 9 9 9 M R C C [ [ 7X8XwXwXpXlX$XlXzXxXxXvXcXcXxXxXzXzXlX5X3XiXeX9X).S C C C M M M 9 7 e 0 v.N.r.q.j.-.-.-.",
":.<.3.3.4.w.e.B.b.t ) Y R C F 7X].].].+X+XwX$XpXpX2XlX2XzXxXbXbXvXbXbXbXzXzXzX$XpXuXuXOX].].].].8X`.).' T P ^ t Z.M.e.q.3.-.-.-.",
"-.<.<.3.4.w.e.n.b.Z.q Y R C { 7X'.8X8X+XqXwXpXpX$XzX$XzXzXzXbXbXbXvXbXcXzXlX$XpXpXuXuXqX'.'.'.=X8X8X7XF T U ^ w S.D.m.q.3.-.-.-.",
"-.<.<.3.2.0.e.B.b.t ( Y E C 7X8XqX+XqXOXwXwXpXpX2X$X#X2XzXxXcXvXnXnXbXcXzXlX$XpXpXpXuXrX=XOX=XeXqX8X7XF C P ^ w A.D.m.t.q.<.<.<.",
"<.<.3.5.q.0.i.B.S.y ( I T S 7X9XwXwXwX#X#XpX$XpX2XpX#XuXpXzXcXvXvXvXvXcXzXzX$XwXpXaXuXrXrX;XuXtXrXqX8XF ' R Y ( R.D.M.t.q.3.3.3.",
"j.3.j.j.2.i.B.B.G.) ( W ' F `.8XiXuXpX<X#XpXpX2XpX#XuXuXuXdXdXvXvXnXvXdXzXsXpXpXpXpXuXuX;X;XrXiXsXeX8X).C R W ) T.G.M.e.t.4.;.q.",
"<.4.4.w.w.i.B.G.U.) _ W ] F ].|.aXpX3X2X2X$X2X2X<XuX#XuXsXdXdXdXnXdXnXvXcXzXpXpXuX<XrXOXOX=X<XuXuXeX8X).[ E _ ` R.R.F.n.e.q.>.4.",
"3.3.k.w.i.i.B.G.R.` _ } D ).].=XaX3X<X,X@X@X@X#X#X#XwXtXtXfXdXdXdXvXdXvXxXsXpXwXOXOXOXoX+XOX;X<XuXrX9X).{ } W _ ) R.F.M.e.q.2.q.",
"l.4.l.w.i.m.B.G.t _ ! | { `.'.;X4X<X,X@XoXoXoX@XOXwXwXwXwXsXdXdXvXvXcXcXzXzXwXwXOX+X+X+XXXXXoX;X<X;X=X`.D ] } _ ) T.C.b.m.e.q.q.",
"3.3.q.w.w.e.v.r q ( ~ ] ..'.;X-X;X-XoXoXoXoXoXoXoXoXOXOXrXuXsXdXdXcXzXpXpXpX$XOX+X+X+XXX].+XoXXX;X<X=X`.).] E Y ( t t b.B.r.w.w.",
"3.q.3.w.e.e.v.r 8 Y E D 9X9X;X-X*XXXoX*XoXoX-X@XoXoXoXoXOXuXrXsXzXwXpXpXpXwX%XOX+X+X+X'.XXXXXXXX,X;X=X`.7X..] W 8 q r c.m.r.w.4.",
"<.3.q.w.e.8.v.e 8 I E { 8X|.:X-X&X.X.X*X-X;X,X,XoXoX+XoX+X#XuXwXwXpXwX$X%XOX+X+X+XOXOXOXOXOXXXXXoX*X*X`.{.{ ] P I q t c.b.r.w.w.",
";.d.l.w.r.n.0 w 7 I T D `.=X;X-X].*X*X-X:X<X<X,X@XoXoX+X+XOX#X#X$XpX$X%X%X%X%XwX+X;X=XuX;X;X-XoXoXoX*X|.9X7XZ R U 8 q V.B.e.0.5.",
";.-.q.q.m.M.w q 7 R C D 9X=X=X-X&X*X;X4XiXiX4X2X@X@X@XoXoXOX+X+XoX@X@X@XOX+X+X#XOX;XuXiX1X,X,X,X.XoX.X|.9X7XS C P ^ ) A.M.e.q.5.",
"-.;.;.q.m.M.z.w U R C F 9X=X;X;X-X:X1X1XaX5X3X1X<X<X<X@X#XoX+X+XoX%XoX.X%XOXOX#X;X<X<XuX3XlX2XlX,X-XoX;XeX9XD ' R Y ( S.F.m.t.5.",
"-.;.;.>.m.D.w ^ U R C ).9XeX1X1X1X1X1X1X3X3X1X<X<X<X<X<X,XOX+X.X.X.X.XoXoXoXOX#X;XOX<X3X2XlXlXlX1X<X<X>XeX|.D C R Y ( T.F.n.0.2.",
":.;.;.>.m.N.z.^ U R C ).9XeXiX:X5X1X5X3X1X1X,X,X,X<X<X1X<X;XoX.X.X.XoXOX,X#X#XOXOXoX#X,X2XlXlXlX3XaX<X1XrX8X).S T Q / T.G.B.0.q.",
"g.f.>.>.D.S.) ( I P m S ).9X:X1X2XpXlXlXlXlX@X%X%X$X$X2XzX#X$X$X%X@X<X1XiX;X=XXX&X,X,X,X,X2X3XlX5XaX:X=X8X).C C P Y ) A.c.B.y.y.",
"g.g.>.N.M.F.y q 8 P M C 7X9X|.tX3X3X4X2X$X$X%X%X@X@X,X2X$XpX$X#X<X<XpXiX:X;X;X*X&X&X-X-X,X4X3XzX3X3XrX|.).F C M U ^ ^ A.c.e.i.y.",
"f.f.;.>.N.c.r q 8 I M m D ).|.eX1X;X,X,X@X%X%X%X%X,X<X1X<X<X<XpX2XpXuX1XrX>X=X-X4X&X&X4XoX-X,X,X<X<X=X'.).F M R U ^ w A.x.e.4.4.",
"f.f.;.>.t.c.r t q U I R Z D {. X>X*X&X.X-X@X@X@X,X4X3X1X3X<X4X<X<X<X<XuX:X;X;X;X4X4X4X&X.XoX&X-X;XrX'.).).C M Q Y ^ A.A.x.0.4.5.",
"f.:.:.;.q.N.v.V.y q Y I M Z A {.|.|.}._..X*X,X,X4X4XlX5X5X1X:X;X#X;XuX<XuX1X:X1X4X4X&X&X&X&X&X&X=X9X`.F F C E Y / ) D.M.m.t.3.<.",
"a.s.:.;.q.r.n.F.t y ^ I M m m G {.(.(.(.}.&X4X4X4X5XlX5X5X1X;X*XOX+XOXqXuXiXiXiX4X4X4X&X&X}.}.}.|.`.D S C R Y ( T.T.D.M.t.q.5.-.",
"s.-.-.<.q.w.m.B.F.t q 8 V M m m H J A (.}.&X>X4X5X5X5X5X>X>X*X.X].[.+X+X;X1X1X1X5X5X5X>X&X}.(.(.(.D D Z R I Y ( T.T.D.m.t.q.;.-.",
"h.<.-.<.3.q.w.m.F.b.y 8 9 8 M | Z Z A ). X>X6X5X6X5X>X6X>X.X_._.[.[.[..XXX-X<X4X5X6X6X6X}.(.J J Z D Z Z I ! q ) A.D.M.r.q.;.-.-.",
"h.k.h.h.j.3.q.t.N.c.r e q ! _ ! H G G D {.|.|.>X&X&X&X&X}._.[._.[.[.[.[._..X.X&X&X>X>X>X X X(.J G ....| ! ( y y D.M.m.w.w.<.d.<.",
"h.h.h.h.j.3.3.q.t.N.A.t y y @.`  .X...7X7X X|.|._._.&X&X_..X_._.[.].[.[._._._._.}.}.}. X X X XgXhXhX$.$.@.` v S.b.B.i.w.4.<.h.h.",
"k.h.h.j.j.<.;.>.t.N.M.C.v R.Q.Q.hX$.X.....D ).(.(.(._.].&X*XXX*X|.*X=X].}._.(.}.(.J (.J 0XgXgXjXMXVXNXNXQ.E.E.b.b.8.y.w.4.k.j.h.",
"s.s.h.j.j.d.;.;.>.t.n.M.S.E.Q.Q.Q.Q.$. .X...Z A A (.(.|.>X:XtXiXtXtXtXtX|.|.}.(.J J J gXnXmXGXKXJXDXSXZX!.E.U.b.9.0.y.4.4.k.h.h.",
"-.h.h.j.j.j.d.;.;.>.8.M.F.G.E.E.Q.Q.Q.o. .} | Z A A ).|.=XyXyXfXdXyXyXyXyX0X>X0X X X0XgXmXHXKXPXPXLXDXSX!.W.U.P.9.0.6.w.j.k.<.-.",
"-.h.j.j.j.j.;.;.l.q.t.t.B.B.G.U.E.Q.@.$.o. .| Z Z A H  X9XtXtXfXyXyXyXyXyX0X0XgXgXhXjXjXHXKXPXIXIXIXLXSX^.Y.U.B.y.y.6.4.4.j.<.-.",
"-.-.j.s.<.s.d.-.l.l.q.e.e.x.b.G.E.E.R.@.@. .~ | G G H {.{.|.9XtXtX0X9X0X X0XgXgXjXMXGXGXKXUXIXIXIXLXDXAX^.Y.I.P.9.0.2.5.<.<.<.-.",
"s.-.:.-.-.d.-.;.d.l.q.0.i.8.x.b.U.v v @.@.` ! | | G G H {.).`.|. X|.{.{.{. XgXhXjXmXGXHXKXKXPXPXLXLXDXAX~.W.I.P.y.y.5.5.4.<.h.h.",
"s.s.s.<.<.-.<.h.j.-.5.5.6.u.J.J.b v v b z z K K K K B B N N Z Z G G Z m N G X.&.kXmXmXBXCXCXFXUXFXDXAX/.~.Y.P.B.i.w.q.q.d.d.;.s.",
"a.s.s.-.<.<.<.s.j.j.<.1.p.9.J.J.v b b z z > z L K K B B B G Z Z | G G N m N K X.&.kXmXmXBXZXCXCXAXAX/./.~.I.P.m.w.w.l.l.l.d.d.d.",
"a.s.-.-.<.<.<.s.h.j.1.7.K.K.J.J.b h x f > , z , L L L L B ~ ~ X.X. .X.| N X V B B &.*.mX*.BXBX^.^.^.!.W.I.P.B.e.r.w.l.l.l.d.f.d.",
":.s.s.<.<.h.h.h.<.<.4.u.K.J.k n h f f : : , , , , , > L K O.O.@.$.$.$.@.I X X V L %.*.*.*.*.*.W.^.W.W.I.P.P.y.0.l.l.j.l.d.d.d.f.",
"s.s.-.-.h.h.h.-.k.k.k.H.K.J.h h f f ; ; % % < < < < , > > z +.@.@.@.$.@.u X X K +.*.*.=.+.+.x x z b U.L.L.9.0.2.3.l.d.d.f.f.d.f.",
"s.s.s.-.h.<.<.<.<.k.7.H.K.k h p : ; ; & & % # % % < % , > x @.#.@.v @.s 3 . u x =.*.*.=.+.x z > s g v j b.i.0.3.;.d.d.d.;.f.>.f.",
"s.-.-.s.h.h.<.<.<.1.7.K.K.h p i ; ; & # # # # # # % % : : z b b E.v v 6 3 3 a z +.=.=.+.x z = = s v 5 L.J.y.2.3.;.d.d.d.f.f.f.d.",
"s.s.;.-.-.h.-.-.<.1.H.K.k h d i ; $ @ # # # # # # # + O - f h n b.v 6 6 2 3 a d x +.x , z - 3 a 6 v v b.9.y.5.<.j.d.d.d.d.d.d.d.",
";.-.-.-.-.<.<.-.5.1.u.K.J.h i = $ O $ @ # # # % @ $ $ O - i h k j K.j l 4 2 1 1   = - - a a a s j j L.J.u.6.5.<.-.s.d.s.d.d.;.-.",
";.;.;.;.<.<.<.5.<.7.u.K.c h i   o O + @ @ @ @ @ $ + o o = i s k H.H.K.H.5 4 2 1 1   3 1 i s s g 5 J.J.9.y.1.<.<.:.s.s.s.j.-.s.;.",
";.-.;.<.3.-.<.-.<.2.y.K.j s i   * o o + $ $ + O O o o   i p g j H.H.H.H.,.j 6 4 2 2 1 1 s l j j 5 9.u.y.5.<.<.:.s.s.s.s.s.-.-.s.",
";.-.-.<.3.-.-.<.<.4.y.9.H.l 2 1 = * * * O o * o * * .   1 2 6 j H.H.7.,.H.H.,.4 4 4 4 4 6 5 ,.5 9.y.6.4.1.<.:.:.s.s.s.j.j.j.<.<.",
"s.h.<.<.<.<.-.-.<.4.y.u.j 6 4 2 i = = - - - = .       1 2 4 6 j u.u.7.7.7.7.,.,.,.5 ,.,.,.u.,.6.0.2.4.<.s.a.a.s.a.s.s.-.-.<.s.h.",
"s.<.h.h.<.<.-.;.j.j.2.u.,.j l p s p p d d d i i i 2 s 2 4 6 9.b.y.y.y.y.p.7.p.p.7.,.7.H.u.7.4.4.<.<.<.s.a.a.a.s.s.s.s.s.<.s.h.h.",
"-.h.h.<.<.<.<.-.-.j.w.y.H.H.j l k h h h h h h h g j g j j 5 J.9.y.0.y.4.4.1.1.1.1.7.7.5.1.<.h.h.s.s.s.a.a.a.a.a.d.a.s.-.-.-.s.h.",
"-.h.h.<.<.<.-.-.j.3.k.6.,.K.J.J.n n n n n n c c c c c k k J.b.L.i.y.y.w.1.1.1.1.1.1.1.5.<.<.h.h.a.a.a.a.a.a.a.a.d.s.s.-.:.s.s.h."
};
