/* XPM */
static char *result[] = {
/* columns rows colors chars-per-pixel */
"64 64 256 2 ",
"   c #3A7207",
".  c #375800",
"X  c #484B00",
"o  c #4A5702",
"O  c #585803",
"+  c #535A10",
"@  c #665B03",
"#  c #755C01",
"$  c #456603",
"%  c #516F0E",
"&  c #696408",
"*  c #79640B",
"=  c #757411",
"-  c #6A772C",
";  c #597326",
":  c #856708",
">  c #867716",
",  c #967B16",
"<  c #90710D",
"1  c #A7790C",
"2  c #877D28",
"3  c #1C9D02",
"4  c #1D9D09",
"5  c #189A01",
"6  c #169500",
"7  c #2C8C09",
"8  c #348D0B",
"9  c #3B8B0C",
"0  c #388806",
"q  c #249503",
"w  c #2B9504",
"e  c #239C03",
"r  c #2A9B04",
"t  c #25950B",
"y  c #2D950B",
"u  c #249C0A",
"i  c #2B9B0B",
"p  c #339404",
"a  c #33940C",
"s  c #3A930D",
"d  c #359809",
"f  c #3C8C13",
"g  c #368C14",
"h  c #2C9B12",
"j  c #2C9612",
"k  c #349412",
"l  c #3C9313",
"z  c #329A12",
"x  c #3C9418",
"c  c #2F8E11",
"v  c #1DA103",
"b  c #1BA406",
"n  c #22A204",
"m  c #23A20A",
"M  c #2AA30B",
"N  c #28A307",
"B  c #2BA412",
"V  c #35A10F",
"C  c #458A08",
"Z  c #538A05",
"A  c #44940B",
"S  c #468C16",
"D  c #47941A",
"F  c #59971A",
"G  c #558D11",
"H  c #659A19",
"J  c #708E10",
"K  c #62A41C",
"L  c #458A26",
"P  c #4B9623",
"I  c #579A26",
"U  c #56962D",
"Y  c #639B29",
"T  c #719030",
"R  c #56A32B",
"E  c #4FA72E",
"W  c #69A229",
"Q  c #69AA36",
"!  c #77AA36",
"~  c #77B43B",
"^  c #77AD2D",
"/  c #5DA31A",
"(  c #7AB848",
")  c #6FAE47",
"_  c #6D9546",
"`  c #7DC34D",
"'  c #7BDD62",
"]  c #9A861C",
"[  c #9B9B1E",
"{  c #8D8A17",
"}  c #A78718",
"|  c #B38B1C",
" . c #A69619",
".. c #B7991B",
"X. c #B68707",
"o. c #BBA41B",
"O. c #918F2A",
"+. c #A88B27",
"@. c #A99826",
"#. c #B79826",
"$. c #A99D38",
"%. c #B6962E",
"&. c #88B337",
"*. c #97B638",
"=. c #91A930",
"-. c #A8A629",
";. c #B8A629",
":. c #AAA735",
">. c #B8A938",
",. c #A8B938",
"<. c #B4B335",
"1. c #82A81F",
"2. c #C68B07",
"3. c #CD960A",
"4. c #C89818",
"5. c #D59A16",
"6. c #D2980E",
"7. c #C9A619",
"8. c #D5A314",
"9. c #D9A71A",
"0. c #D8AE13",
"q. c #E4AC1A",
"w. c #E9B31D",
"e. c #C79B26",
"r. c #D29E2A",
"t. c #C9A728",
"y. c #D7A726",
"u. c #D8B727",
"i. c #C5A837",
"p. c #D5AB35",
"a. c #C7B73B",
"s. c #D8B837",
"d. c #C9B328",
"f. c #E2AB25",
"g. c #E6B826",
"h. c #ECB92B",
"j. c #B3C739",
"k. c #9FC03E",
"l. c #CAC938",
"z. c #D8C538",
"x. c #DAC228",
"c. c #E6C829",
"v. c #E8D22A",
"b. c #E8C836",
"n. c #EBD538",
"m. c #F4D93B",
"M. c #F4C72B",
"N. c #F4E33D",
"B. c #959D42",
"V. c #8EB649",
"C. c #B9B95A",
"Z. c #B1B14C",
"A. c #90B566",
"S. c #B9B966",
"D. c #A2BC63",
"F. c #A19A49",
"G. c #C9B746",
"H. c #D6B846",
"J. c #D6BC57",
"K. c #CDB952",
"L. c #E0BA4B",
"P. c #97C24A",
"I. c #87C455",
"U. c #99CA58",
"Y. c #85C950",
"T. c #A7C548",
"R. c #B8C85A",
"E. c #B1CE54",
"W. c #B7E65A",
"Q. c #97CB67",
"!. c #98D568",
"~. c #95C870",
"^. c #A6D86A",
"/. c #AFCF6E",
"(. c #B9E779",
"). c #B1E572",
"_. c #C9C748",
"`. c #D9C647",
"'. c #DED44B",
"]. c #C8C656",
"[. c #DAC758",
"{. c #DAD75A",
"}. c #C9D550",
"|. c #E7CA48",
" X c #E9D748",
".X c #F5D948",
"XX c #E8CA57",
"oX c #E7D857",
"OX c #F7DA57",
"+X c #F0CE52",
"@X c #EBE247",
"#X c #F4E444",
"$X c #F4E54C",
"%X c #FBEA4B",
"&X c #FAE648",
"*X c #EBE358",
"=X c #FCE552",
"-X c #FCEC53",
";X c #FDEB5B",
":X c #F6E656",
">X c #FFF154",
",X c #FFF15C",
"<X c #FFF349",
"1X c #C5C767",
"2X c #D8C965",
"3X c #C5D869",
"4X c #D9D769",
"5X c #CAD976",
"6X c #DAD877",
"7X c #CAC974",
"8X c #E2CC63",
"9X c #E7DB66",
"0X c #F9DC63",
"qX c #E5DB76",
"wX c #E6CC74",
"eX c #D9E46A",
"rX c #C5E779",
"tX c #D9E776",
"yX c #D1EE75",
"uX c #E8E468",
"iX c #F9E866",
"pX c #FDF169",
"aX c #E7E879",
"sX c #F9EB78",
"dX c #E7F37A",
"fX c #FBF478",
"gX c #D3EC5C",
"hX c #B3D58A",
"jX c #B7E985",
"kX c #B4F48F",
"lX c #CDDB8B",
"zX c #EBDA86",
"xX c #C6EA83",
"cX c #D6EA86",
"vX c #CAF68A",
"bX c #D6FA8D",
"nX c #C7F895",
"mX c #D8FB98",
"MX c #D0EB95",
"NX c #E9E887",
"BX c #F5EC85",
"VX c #E7F98C",
"CX c #F9F786",
"ZX c #E4FE9C",
"AX c #EBFE9C",
"SX c #E9F695",
"DX c #F9F996",
"FX c #ECEA95",
"GX c #DBFEA6",
"HX c #DDFBB1",
"JX c #CCF3A5",
"KX c #E8FCA8",
"LX c #F5FBA6",
"PX c #E8FEB4",
"IX c #F2FFB5",
"UX c #EAEDA2",
/* pixels */
"v n n 4 4 m m 4 4 b 4 4 t j x x P L U _ ~.hXhXhXHXJXhXA._ - - ; - - _ ;   L g g l D d a i i B e 5 5 3 3 n v v v v v 4 n e e n e ",
"n v 3 4 u b 4 5 b m 4 4 j k x L Q ~.jXMXJXMXD._ + + + + + X X X + X X . .   f   S f 0 7 a z h u u M m 3 5 v v v v 3 v e v e e n ",
"v e 3 n e e 3 v b b 4 t y k x P ) JXGXjXA.- + X X X X + O O @ & + O X o $   $   0 C S D f a k x V u e n e 3 3 v v v 4 v n e e n ",
"3 e n e 3 e n v 5 5 u i k g S P V./.D.T + X @ & * > > 2 > < , , < > > * = & % $ $ $ % % S   g f z y q q e n n n 3 v v 3 3 n e e ",
"n n e e n n n e e N r w s S I Q =.T ; O @ > +.+.+.+.} #.;.#.| } } } } [ { { = = & $ o $ %   % L x l 8 y w q n 3 v v n 3 n e e e ",
"v e e n n e e e N r p p C W &.! J & * ] $.Z.G.H.H.H.s.s.p.t.t.t.4..... .] ] { { = & o o $ $ % T I P f f a r q n v 3 v v 3 v e n ",
"v v v v e e e q p w d F ^ V.=.- * { >.G.L.XX|. X+XOX.Xb.z.s.u.y.7.o.7.7.o...#.@.+.: & @ O o o $ S U P 9 8 z i q e v 3 v n v v e ",
"v b v v 3 i i w p A / Y.E.=.= J [ l.`.`. X.X.X&XOX=X.X.X.Xm.b.s.0.7.7.d.t.t.t.t.#. ., : & O O X $ T Q U D 9 a r e e v v 3 3 v v ",
"b 5 v m u i y 7 D Q ^.W.V.{ { :.l.l.b..X.X@X#X&X&X&X%X&X.X.X.X.Xv.c.u.u.u.u.y.d.e...} < : * @ O $ $ _ U.! D l w r e n n 3 v 3 v ",
"b b 5 u h j x E ` ^.rXE.{ [ G.'.|.n. X&XN.N.<XN.N.<X%X%X=X.X.XOX.Xb.b.g.q.y.9.9.y.4...| , < # @ O O - V.!.I.S 8 a r q 3 n n v n ",
"b b 4 5 j k I I.jXbXE.*.] a.oXoX@X#X&X&XN.N.N.%X<XN.#X X=X=X-X=XOX+Xb.f.u.9.9.8.8.7.y.e.| , < # @ & O + /.(.V.E l d r q e n 3 e ",
"b b i z k P ( kXmXcX:.O.<._. X.X-X>X%X<X#XN.N.N.N.@X X X$XiXpXpXpXOX|.|.s.h.h.q.8.6.5.8.e.| , : * * @ O B./.xXQ.R D z y u q 5 e ",
"3 i z 8 S Q ^.mXrXC.$.:.[.oX:X=X<X&X&XN.N.#X#X$X@X@XgX*XpXfXfXfXfXiXuXXX|.b.s.9.8.8.8.4.4.t.%.< * : : > * F.MXxXQ.R 9 c i i u 4 ",
"j k g f Q ^.mXSX1XF.:.].*XiX:X=XN.N.N.m.m.m.&X$X*X*X:XdXdXCXCXCXCXCXfXoX`.z.b.u.9.8.8.f.y.y.e.e.+.< : # @ - lXmXnXI.I k c h h t ",
"x g D ( (.mXAXFXC.:.Z.XXiX:X:X-XN.N.m.n.v.n..X@XoXgXeXdXVXVXVXVXVXVXVXeX_.`.z.b.u.u.f.u.y.y.p.r.r., : # * 2 Z.cXmXjX' P c t t B ",
"g x Q ^.mXZXbX5XK.Z.[.9X0X;X$X$Xm.v.c.v.v.m.#X XoX*XdXbX3XP.V.V.*.V.T.}.]._.a.u.u.q.9.f.y.r.r.p.r.r.1 : : - O./.mXGXhXE c x h h ",
"L _ hXkXJXPXlXC.Z.J.qXsX;X-X%Xn.v.v.c.c.v.m. X X{.eXyXU.^ A 0 0 C C / 1.j.j.l.x.x.0.0.0.q.9.5.f.p.p.r.< : : * S.UXHXkX!.) E h 4 ",
"L ) kXHXHXPXlXF.C.2XsXpXpX,X#Xn.v.v.v.c.c.n. XoXgXR.*.I C C 0 8 A C C Z ^ j.}.l.x.g.c.g.5.5.5.f.L.r.r.| , : * F.lXUXmXkX' x 7 t ",
"L ' JXHXHXKX7XZ.1XsXfXiX:X%X%Xv.v.v.x.x.c.b.|.{.{.&.G C A s d s d A A Z K j.gXx.x.0.w.w.q.q.q.f.f.r.r.r.1 , : F.7XMXMXA.R k y h ",
"_ A.JXHXKXUX7XZ.2XBXfXiXOX$X>X#Xv.v.v.v.z.z.oXuXtX=.C A x i q q d d A A / j.gXl.l.x.g.g.w.q.9.q.r.r.r.r.1 , , O.F.MXjXQ f k i t ",
"` hXHXPXKXlX7XC.wXsXsX*XoX$X%X$Xn.c.c.x.z.`.{.dXdX~ C s c i u 3 r p d 0 K W.gXl.l.v.b.v.c.g.9.y.f.f.y.r.| | +.2 B.5XxXY 0 7 p i ",
"~.hXHXPXUXhX7XwXNXsX9XoX@X X%X#XN.b.x.s.b.XX{.dXyX~ s l i u u e N p d p K W.gXj.l.v.b.b.M.h.g.g.f.f.f.r.r.%., > O.5XxXY f 8 d z ",
"hXhXHXIXPXS.S.NXNX9X[.'. X:X-X=X#XN.n.z.z.{.uXdXyX( 0 k y u 3 4 n q w 0 K W.gXl._.|. Xn.m.b.g.g.f.5.f.y.p.e., > O./.(.Y A 8 d p ",
"hXhXHXIXUXS.S.NXsX9X{.'. X:X;X-X%X#Xn.z.`.[.eXbXcX) 0 k y i u u N r w 0 K W.yXE._.'. X XOX.Xb.g.f.5.y.y.p.t.| , { 1XxXY 0 8 p w ",
"hXhXPXPXUXS.S.BXBXsX0XoXOX$X:X-X%X Xz.z.`.[.tXVXvX~ 9 8 y u e e N r d 0 K W.yX]._.`.oXOXOXOX Xs.t.9.9.t.p.p.%., 2 7XxXI   l w w ",
"A.hXPXIXUXD.S.NXBXfXpXiX:X:X;X,X$X$X Xz._.[.tXVXvX~ 9 a y t u e u p d 0 H ).yX].].].oXuX0X:X Xs.u.u.d.y.p.H.e., > /.5XY C l a a ",
"hXhXHXPXUXS.S.qXBXfXpXiX=X;X-X=X&X.X.X`.`.].aXVXvX~ 9 c i e u m q r s 0 H (.bX1XK.].9XsXsXiX+Xs.d.d.y.y.p.p.%.2 { 1XxX( F s l z ",
"A.hXHXIXUXS.K.qXsXfXpX;X=X=X=X%X&X.X|.b.a.].NXVXvX~ 8 z u e m b r y s 9 W (.cX].S.2XsXCXCXsX0X`.z.s.s.L.H.H.>.+.2 R.mXjX` R l s ",
"~.hXmXLXUXS.K.2X0XiXiX=Xm.m..X&X.Xm.|.z.a.[.CXbX(.Q s y q 3 b e q i s 0 Y rXcXR.K.5XNXCXCXsXsX0XOXoX+X+XXXL.r.+.O.1XmXmX^.R l 8 ",
"hXhXmXKXSXC.Z.K.XXOXOX.Xb.c.b.M.M.b.b.z.a.K.cXrXY./ a a u 3 n v q i s 9 H (.xXC.1X6XBXDXDXCXCXfXpXiXOXOXXXL.%.+.O.1XmXmXQ.x 8 l ",
"A.jXmXKXSX].Z.H.|.+X.Xm.c.c.c.c.c.b.n.`.a.].tXE.Y C p i i e 4 3 u i s 0 F (.cXD.7XzXDXDXDXCXBXBXiXiX0X0X0XXX%.+.F.6XmXGXU.S 0 l ",
"A.).mXAXFX1XK.H.H.|.m.b.g.c.c.M.n.n.|.z.a.}.dXT.Z 9 8 i u e 3 v u i a 0 Y (.cXR.7XFXDXDXCXBXuXaX0X9XoX0X0XL.%.+.>.lXKXmX!.I f 9 ",
"V.Q.bXZXVX1XG.i.s.h.M.g.M.w.w.M.v.v.z.d.d.T.gXT.Z 0 p r r q u u r a c 9 U (.xXR.5XVXDXDXCXqX8XXX|.OX0X0X+XH.%.$.Z.rXbX(.` l w p ",
"Q U.vXSXVXK.>.i.a.s.g.M.w.w.M.M.n.x.u.d.;.<.3X*.Z 0 w r r u i u r y 8 0 Y ).(.D.3XDXDXDXsXXX`.a.s.+XOX0XXXa.:.:.R.5X).~ D d d i ",
"S ) (.SXNX1XZ.H.p.g.w.w.w.w.w.h.M.u.u.t.t.Z.Z.1.Z p p p e q u u i w s f I !./.R.tXSXDXBXwX[.H.a.p.+X0X0X`.>.;.Z.E.V.&.D 0 d i i ",
"% G ! /.SX4XJ.H.p.y.q.w.w.w.h.w.f.9.4.7.t.a.<.1.Z C d r r e e e r r a 9 F P.E.3XtXCXBXaXXX[.s.i.p.OX0X+Xi.-.:.E.E.! G l a i q q ",
"D C G /.SXNX8XH.p.t.9.q.q.w.w.q.9.5.4.4.t.>.,.1.Z C p r r N n e q w p 9 F V.E.rXdXsXBXiXXXH.p.p.z.OXOXXX;.[ -.T.E.Q 0 8 y i e u ",
"C S F Q.ZXNXqXJ.p.y.5.q.q.w.w.5.6.6.2.4.;.;.[ T Z C p r q e M M i w 8 A F &.E.eXdXCXfX9XH.s.s.+X+XOX Xa.-.[ =.k.P./ 9 w t m m b ",
"l g G ~.KXLXzXJ.H.y.9.8.q.q.q.6.2.2.2...o.o.-.J Z Z A p q q i M d p 8 C H &.E.eXfXfXsXoX`.s.s..X=XOXs.o.[ -.*.1.K A p y u 5 4 v ",
"k   S ^.KXIXFXJ.H.s.p.9.9.q.8.2.2.3.2.X.X.o.[ { Z Z A A s p r p s A C G ^ T.}.dXuXsXiXOX.X|.|..XOX|.t.} [ ,.k.^ C p y i M 3 n b ",
"c c P ~.GXIXFXwXJ.L.r.y.5.5.5.6.3.2.X.1 1 |  .[ J H G Z C 9 0 8 C G F K &.E.gXfXpXiXiX:X X.XOX.X+Xd... .[ ,.T.^ A p w 6 e v b b ",
"c g L ~.GXPXUX6XwXL.p.r.f.9.5.5.5.6.2.X.6.e.#.+.{ O.T W I G G F Y ^ &.*.,.E.uXpXfXpXiX.X X.XOX.Xs... .-.-.*.&./ A s i e e n 4 3 ",
"k g L ~.PXPXUXFXwXJ.L.r.r.f.y.f.5.r.2.2.y.p.t.+., O.=.Z.Z.D.V.V.U.T.T.,.j.}.uXpXpXpX;X=X.X X Xu.#. . .-.j.*.H Z s p i M n v 3 3 ",
"x x L ' nXIXIXUXzXwXJ.H.r.y.f.5.5.5.5.5.5.r.r. ., , O.$.7XSXDXVXgXj.-.,.}.*XpXpX,X:X=X=X$Xb.d.o...}  .-.R.E.F C d p e e 3 v n B ",
"7 7 f ) ~.JXIXIXLXzX8XH.p.p.p.5.5.q.q.6.3.4.4.| 1 , < , $.4XaXuX:.-.-.l.@X*X:XpXpX-X;X&X Xu.o.o.;.>.:.<.yXW.Y 0 p q M M v 5 5 3 ",
"k c L L ) jXPXLXLXFXwX8XH.s.p.e.6.5.6.3.5.5.4.2.1 1 < : : ] @.:.<.<.l.'.@X>X,X,X-X=X.Xn.u.o.o...-.<.R.].3XU.F 9 y t e 4 v 3 3 3 ",
"k k g c U jXGXKXKXUXNXwX[.H.s.t.5.8.0.8.8.3.6.4.4.4...} } } @.i.l.z. X$X>X>X>X@X&X.Xn.x.7.o.o.;.<.].eX3XV.^ S 9 a t u b m m m n ",
"z j c x L ) /.GXPXLXDXaX2X[.|.z.g.0.0.0.3.3.8.5.r.y.r.t.t.a.l.`.z. X$X>X>X>X<X-X=Xm.x.7.o.o.d.;.G.{.dXyX&.G S s y u v v v b b m ",
"e r p d 8 g R ~.jXmXKXVXtX9X8XXX|.u.s.g.0.8.0.q.0.0.0.v.n.n.n.n.@X$X-X>X>X<X&X&X.Xh.y.t.p.i.i.K.3XcXVX(.^ 0 p p r u e u 4 4 4 4 ",
"e e q i a g g S ( ^.bXVXVXaXaX8XoX X Xb.M.M.h.M.M.M.v.v.n.N.N.@X#X:X>X>X>X%X.X Xb.s.t.p.J.K.].2XcXmXrXU.R 8 q q u e n m M b 4 3 ",
"3 n e r i z g l x R U.vXbXcXdXaXuX9XoX+X.X.Xm..Xm.m.N.N.v.v.n.<X>X>X-X-X%X@X Xb.s.L.H.H.K.[.qXNXcX(.( D f a i V M 3 5 3 3 v v B ",
"b b v n u u w a k f D Q U.rXVXbXNXuX9XiXOXOX.X.Xm.m.N.N.n.v.N.<X,X-X$X$X@X X|.`.|.XX8X2X1XzXLXDX).) D l z j u 5 v 4 3 n b 5 b 5 ",
"b 5 5 5 b v r r i d s 9 F ( ).vXVXVXtX9X9XoXOX$X&X.X@X#X#X#X#X@X X@X'.*X*XoX9XXX8XwXqXqXcXAXKXMX!.E l k j t u b 3 v 3 3 v v n N ",
"b b b v v n n n r w i l a D Q !.xXbXVXcXtX6X9XuXuX X*X@X*X,X:X@X{.*XoXgXoX4X9X4XqXqXFXDXKXGXjXA.E x k h h m m v v n n 3 3 3 n b ",
"b b b v n n n e e q i z z c z E I.(.vXmXAXSXBXNXuXuX9X{.gXeX*X4X}.{.4X4X4X6XNXVXFXDXAXZXnX).( P t y y i u m 5 5 5 v u 3 e e m e ",
"b b b v v e n r N r i q y j 7 c D ~ ^.vXmXAXAXSXVXNXaXaXtXaXtXtXtX5XrXyXcXcXSXLXLXKXmXjXQ.Q x l r w q e 3 n v n 5 e e 3 u u u u ",
"e n n N e e e e e r e u w i z z 8 9 R I.(.nXmXAXZXAXSXAXAXAXKXKXmXZXmXZXKXKXZXGXGXnXjX` D a z j r N N 3 3 v 5 v n n M e u e q 6 ",
"e e q n e e e e e n r e r u q q a a x R ( !.jXnXbXbXbXbXbXmXbXMXvXvXvXnXnXkXnXnXkXjX) x k j q 3 e e 3 3 n v v b 3 3 n 3 q M M i ",
"e e e r n e 4 e n n e e e e r M w w y k x P I I U Y Y Y Y Y Y Y R I I I R U U E U E x c z h 4 m e n 3 3 n m b 6 v v v v e N e q ",
"e e e m e n u b n 4 3 3 3 n e n N q q y h a 7 s 9 9 9 f f f A 0 a 8 a g g g g g c 7 j h t 4 4 m m v v v b b b 5 v v n n e q 6 e ",
"r e u m 3 5 3 5 3 3 3 3 n e 3 5 m M M u u i y y y a a a a a a d i r a i h y j h y u h h M m 3 5 b 3 b b v b b b b 5 b 4 n u q i ",
"e u m m v b b b v v v v n n n e 3 m m 5 5 e M u t t i t q e q e r r e e e u u u u m 3 e e e 3 3 4 v m m v 5 5 b b 5 5 h i u q t ",
"u u i m b v v v v v n n v e e e v 5 5 v e v v u m 4 4 4 3 v v v n n v v v v n m n 3 3 v n N n 3 v 3 v n v 3 b m 4 m 4 h 4 m E E ",
"u u e 3 b 5 5 b b v 3 3 3 e n m m b v v v v b b b b 4 3 v v v v n v v v v v v v v v 3 n N N e n 3 5 3 v 3 4 b 4 4 B t 4 j E ' kX"
};
