/* XPM */
static char *_5d1bb1ca11e40f1f2535b281751f5e3jAFj093i5ZE5XZII[] = {
/* columns rows colors chars-per-pixel */
"64 64 251 2 ",
"   c #393800",
".  c #2E3700",
"X  c #4D3E03",
"o  c #375008",
"O  c #39730D",
"+  c #474A06",
"@  c #50530E",
"#  c #6B5A12",
"$  c #506B10",
"%  c #767110",
"&  c #567328",
"*  c #776524",
"=  c #876B04",
"-  c #9A7508",
";  c #877917",
":  c #927110",
">  c #A37C0A",
",  c #A17D18",
"<  c #957526",
"1  c #A37C27",
"2  c #1B9502",
"3  c #159B00",
"4  c #1F9F02",
"5  c #1D9C0A",
"6  c #189703",
"7  c #2C8C0B",
"8  c #278806",
"9  c #3B8E03",
"0  c #328E0D",
"q  c #3A8F0B",
"w  c #358809",
"e  c #259505",
"r  c #2B9505",
"t  c #229E03",
"y  c #2A9A03",
"u  c #25940C",
"i  c #2C950B",
"p  c #249C09",
"a  c #2A9B0C",
"s  c #339303",
"d  c #34930D",
"f  c #3A920B",
"g  c #389608",
"h  c #3C8914",
"j  c #388814",
"k  c #2D9311",
"l  c #2B9D14",
"z  c #329512",
"x  c #359813",
"c  c #3A9519",
"v  c #288E11",
"b  c #1EA002",
"n  c #1EA109",
"m  c #16A100",
"M  c #21A103",
"N  c #23A20A",
"B  c #29A30D",
"V  c #29A513",
"C  c #34A418",
"Z  c #359D20",
"A  c #3EAA22",
"S  c #37B120",
"D  c #478907",
"F  c #58890B",
"G  c #469208",
"H  c #4C8E13",
"J  c #428916",
"K  c #4C9113",
"L  c #459719",
"P  c #539413",
"I  c #58920E",
"U  c #6A9213",
"Y  c #479727",
"T  c #589928",
"R  c #5B9B33",
"E  c #4E8925",
"W  c #6D9132",
"Q  c #58A329",
"!  c #55A230",
"~  c #4CB12E",
"^  c #69AA2C",
"/  c #5AA31E",
"(  c #49C331",
")  c #76AA4A",
"_  c #68B545",
"`  c #78B44A",
"'  c #73B251",
"]  c #729E49",
"[  c #69C84A",
"{  c #7FCA61",
"}  c #71E858",
"|  c #8A8616",
" . c #978917",
".. c #908D16",
"X. c #A7820B",
"o. c #B38809",
"O. c #B99207",
"+. c #A78716",
"@. c #B88E16",
"#. c #BB941A",
"$. c #A7921D",
"%. c #8A8C28",
"&. c #958625",
"*. c #9B9424",
"=. c #8B912F",
"-. c #A69728",
";. c #B89828",
":. c #AB9636",
">. c #B89C37",
",. c #AE8B29",
"<. c #84AE30",
"1. c #BBA037",
"2. c #BAA12A",
"3. c #C59B05",
"4. c #C99B19",
"5. c #D39F0B",
"6. c #DAA90B",
"7. c #DEB60A",
"8. c #D7A618",
"9. c #DAB417",
"0. c #CDA816",
"q. c #E2B20B",
"w. c #E3AD1A",
"e. c #E9AF17",
"r. c #E4B313",
"t. c #EBB215",
"y. c #E4B31A",
"u. c #EBB31B",
"i. c #EDBC1B",
"p. c #E9BB15",
"a. c #F2BA1B",
"s. c #E0AE0F",
"d. c #C49C24",
"f. c #C8A429",
"g. c #D7AA24",
"h. c #DEB428",
"j. c #C3A839",
"k. c #D6AA35",
"l. c #CAB437",
"z. c #DCB635",
"x. c #E5AE24",
"c. c #E8B727",
"v. c #EDB82E",
"b. c #AECB3F",
"n. c #EBC717",
"m. c #D8C43A",
"M. c #D3CA34",
"N. c #EBC828",
"B. c #F5C729",
"V. c #F7D92A",
"C. c #E9C536",
"Z. c #E8D639",
"A. c #F7D938",
"S. c #F8CF33",
"D. c #FDE43D",
"F. c #FEE12D",
"G. c #909048",
"H. c #86B94F",
"J. c #AABB49",
"K. c #B1BA49",
"L. c #B3BE53",
"P. c #AFBF54",
"I. c #95B868",
"U. c #A79445",
"Y. c #CCB748",
"T. c #D8BC47",
"R. c #CBBB58",
"E. c #C9A745",
"W. c #E1B645",
"Q. c #CDBE69",
"!. c #8EC856",
"~. c #AFC749",
"^. c #B5C84A",
"/. c #B8C554",
"(. c #B5D04F",
"). c #9BD46A",
"_. c #92D16D",
"`. c #A3D36B",
"'. c #A4D668",
"]. c #A4D273",
"[. c #A7D374",
"{. c #A4CE78",
"}. c #B5E676",
"|. c #83FA6A",
" X c #D9D54A",
".X c #CAC85A",
"XX c #D8CB58",
"oX c #D7D757",
"OX c #CFD24A",
"+X c #E8CA47",
"@X c #EAD54A",
"#X c #F6DA48",
"$X c #E7D759",
"%X c #F3DA54",
"&X c #E1C955",
"*X c #FCE44B",
"=X c #FFEC4C",
"-X c #FAE546",
";X c #ECE854",
":X c #FEE45C",
">X c #FEE85D",
",X c #F6E856",
"<X c #FEF255",
"1X c #FDF45C",
"2X c #FFFA5D",
"3X c #FFF04F",
"4X c #CBC667",
"5X c #D5C868",
"6X c #D2D671",
"7X c #E7DC67",
"8X c #E9D573",
"9X c #C3EA74",
"0X c #C2EB79",
"qX c #C6E875",
"wX c #CFE870",
"eX c #FDEB6D",
"rX c #F9E767",
"tX c #FEF566",
"yX c #E5E47B",
"uX c #E0EF7A",
"iX c #FBEB78",
"pX c #FEF479",
"aX c #E8E26C",
"sX c #ADD784",
"dX c #B8EA91",
"fX c #E4DB82",
"gX c #D5E887",
"hX c #D5FB88",
"jX c #CBFA96",
"kX c #D7F99B",
"lX c #D1EE8E",
"zX c #EAE688",
"xX c #F8EA85",
"cX c #E9F58A",
"vX c #FCF789",
"bX c #E7E798",
"nX c #ECFE9C",
"mX c #E6FA96",
"MX c #FBFA98",
"NX c #F6ED93",
"BX c #DDFDA3",
"VX c #D8FFA8",
"CX c #ECFEA3",
"ZX c #E4FFAB",
"AX c #EBFFAA",
"SX c #E3FFA2",
"DX c #F2FFA5",
"FX c #FEFEA2",
"GX c #F4FFAA",
"HX c #FBFEAC",
"JX c #F1FFB8",
/* pixels */
"t t b 4 4 4 b b b 4 b 4 4 4 t t e a y t M 3 b M b 3 6 V 5 b b b N M p p 2 l 5 5 4 4 y y M t b b b 4 4 4 b 4 b 4 4 4 4 4 4 4 b t ",
"t t 4 4 b t b b b b t 4 4 4 t t 2 B M t M M 6 4 V 5 l 6 5 a b M M y a 2 u V 5 5 4 t t t y t b 4 b 4 4 4 t 4 t b b t 4 4 t b 4 b ",
"t t 4 b 4 4 b b M b 4 4 4 4 t t t a 4 t 4 M p u u Z Z v k i i i i i x v k l 6 5 b M y M M t b b b 4 4 4 4 4 4 4 4 b t b 4 4 4 4 ",
"t t b t b t b b 4 b 4 4 4 b t t t 3 4 N t 2 l i 8 j v j j j j q h 0 w w c l l p t b M y y b n b 4 4 4 b 4 4 4 4 4 4 b t b 4 b t ",
"t t 4 4 b 4 t b b b 4 4 b t t b M m b M l k A ~ _ _ ' ' ) H.` ` ` ` ` ` ! 8 i u t t t t t t 5 n 4 4 4 4 4 4 4 4 b t 4 4 t b 4 4 ",
"4 t 4 4 4 4 b b b b t 4 t b t b m b N 3 u Z j { sX{ VXZXZXZXmXCXSXkXBXjX).! c a t M t t t 4 n 5 4 4 4 4 t b M 4 t b 4 4 b t 4 4 ",
"t M 4 4 4 b b b b b 4 4 4 4 t b m m 5 l l c Y _.' I.bXZXDXnXcXcXnXnXnXkXhX).Q e e t t M t b 4 n 4 4 4 4 b b 4 4 b 4 t b b t 4 4 ",
"t t 4 4 4 t b b b b b t b 4 t b m n 6 l j c sXjXVXbXgXfX8X5XoX.XyXvXvXmXkXjXQ i a t t t t 4 4 4 n 4 4 4 4 t 4 4 4 4 4 4 4 b b t ",
"t t t 4 4 b b b b M b 4 4 4 t b b 4 t i Y ' jXZXCXyX5X7XoX;X X;XrX7X7XwXcXhXQ d a p t 4 t b b 4 4 4 b 4 t b 4 4 4 4 4 4 b t b 4 ",
"t t b 4 4 t 4 b b 4 t 4 4 4 t t 4 4 a k ! sXZXAXfXR.l.&X@X-XZ.Z.@X,X7X7XuXwX^ d a 5 p 4 b 4 b b t b t b b 4 4 b b t 4 4 t b 4 4 ",
"t t b 4 4 4 4 b 4 b 4 4 t 4 t b 4 3 u j ! kXAXzX5XY.l.C.A.-XV.Z.-X1X>X$XwXwX<.C a p 5 n b 4 4 4 b 4 4 t t b 4 t 4 b 4 b t b 4 4 ",
"t 4 t b b t b b b b 4 4 b b t 4 M p a 0 R VXCXzX5XT.z.N.S.n.n.V.D.-X,X@XOXwXH./ i p 5 4 t 4 4 b 4 4 4 4 4 4 4 b b t 4 t b 4 b t ",
"t 4 4 4 4 4 b b b b 4 4 4 b t t t t i 0 R kXHXfXY.W.z.c.p.7.n.V.D.D.*X;XoX~.^ G y p M b 4 4 t 4 4 b t b t b 4 t 4 4 t b 4 b 4 4 ",
"t M 4 4 4 M b 4 b b t b 4 4 t b 3 p i j R bXHXQ.E.W.g.w.p.q.n.F.D.-X3X;XOX~./ g y t b b b 4 t n b t 4 4 4 4 4 b t 4 b 4 4 t 4 4 ",
"t t 4 4 4 4 b b b b b t 4 4 t 4 4 M k j R ZXHXQ.E.W.4.5.6.q.n.V.D.=X<X;Xb.b./ g y y b b t t t p b b 4 4 4 4 t b b 4 t b 4 4 b t ",
"t t 4 4 4 t b 4 b b 4 b t 4 t b 4 4 u j R VXHXQ.d.k.3.5.6.s.n.A.=X-X<X,X X(.I G s M b b b 4 p t t t t 4 b t b 4 4 4 4 4 4 b t b ",
"b 4 M 4 4 4 4 4 4 4 4 t b 4 b t 4 4 a 7 T kXDX5Xj.f.O.3.6.7.N.A.3X;X2X;XOXb.I 9 y t m b b b p t y t t 4 4 b b 4 t t t t t t b 4 ",
"t b 4 4 4 4 4 4 b t 4 4 t b 4 4 4 4 y 7 T jXnX5X;.d.O.3.0.9.B.*X<X<X2X;XOXb.U D s B b m m b t e t M t 4 t b b b t t M t t t t b ",
"b t b 4 b t 4 4 t b 4 4 b t b 4 4 3 a d Y lXnX5X1.f.O.3.7.N.D.3X<X<X2X;X Xb.<.I w r N b b M t B y t t b 4 b b b 4 t t t t t b t ",
"4 4 4 4 4 b b t b 4 4 b 4 4 4 4 4 4 y i K !.cX5X1.2.O.3.0.N.A.=X<X2X2X2XoXOX(.!.Q d t b b M 4 M b t t 4 b 4 b 4 b t t t t t 4 b ",
"t 4 t b 4 b 4 4 b t b t 4 4 4 4 4 t t r L T gX.X1.;.@.0.N.A.-X=X<X2X<X;X XoXcXhX).f r t 4 N n 6 t t t 4 b b b b 4 t t t t t b 4 ",
"b 4 b 4 4 t 4 4 4 b 4 4 4 4 4 4 4 t t r f D uX5X>.;.#.M.#X=X<X3X<X2X1X;X&XXXvXnX'.9 i a 3 n n 3 t t t 4 b b b b 4 4 M t t 4 b 4 ",
"4 4 t b 4 4 b t 4 t 4 4 4 4 4 4 4 4 y y 9 H qX4X-.,.d.C.-X=X-XD.<X2X1X,X$XXXyXnX!.O x a 4 6 n n t t t b b b b 4 4 4 4 t t t t b ",
"4 4 4 4 4 b t b 4 4 4 b t 4 4 4 4 6 t y s P qX4X:.;.f.#X*X-XD.D.<X2X>X,X$XoXxXnX'.J x a 4 n 4 n M t t b b 4 b b t b t t t t b t ",
"b t b 4 4 t b t 4 4 4 4 4 4 4 4 4 t 4 t s G wX.X-.-.+X@X-XZ.Z.Z.,X1XtX;X&X.XzXnX'.J d e M M 4 4 4 t t b b 5 m b b 4 t b t t 4 b ",
"t b 4 4 4 4 4 b 4 4 4 4 4 4 4 4 4 b t y s G 9X.X-.2.+X:X-XZ.M.M.;XtXtXrX7X.XcXCX).j d t M M b t t t t b b b 4 b 4 4 t t t b b b ",
"t b 4 4 4 4 t b 4 4 4 4 t 4 4 4 4 4 4 y s G 9X/.-.2.+X>X#XC.M.+X,XtXpXrX7X.XcXAX).w z y t M M t t t 4 b b b 4 b 4 b t t b t b b ",
"b 4 b t b t b 4 4 4 4 4 3 4 4 4 4 4 t t s G 9X/.$.j.@X>X@Xm.M.@XrXpXvXiX8X4XmXAX).j i t t b M t t t 4 b b b b b b t t t 4 b t b ",
"4 4 4 4 4 4 4 4 4 4 4 4 4 4 4 4 2 t 4 a r K 0X/.-.l.%X>X@Xm.OX7XvXvXvXxX8X4XbXZX).h 0 e 4 4 4 4 t t b b b 4 m b b b 4 t 4 4 b b ",
"t 4 4 b t 4 4 b 4 4 4 4 4 4 4 4 t t 4 a r K 0X^.*.l.%X>X;X+X$XaXvXvXMXNXfX4XbXZX).J d e t 4 4 4 t t b b b b 4 b b b t t 4 4 b b ",
"b 4 b t b b 4 t 4 t 4 4 4 t t 4 t p 4 a 7 L 0XJ...l.#X>X:X%XaXxXMXnXFXNXfX4XbXZX].J d e t b 4 4 b t t b b b b b b b t t 4 4 b M ",
"4 4 t b b t 4 4 3 4 4 4 4 3 4 4 4 5 5 k 7 L 0XL.*.l.@X1XeXeXxXvXFXFXFXNXfXQ.bXAX`.J d y t b b b 4 4 4 b b b b b b t t t 4 4 4 4 ",
"4 b t b t b 4 4 4 b t b b 4 4 4 5 t e a d H 0XK.*.l.@X:XrXpXvXvXFXFXMXNX8XQ.fXHX`.$ i e t b b 3 b 4 4 b b b b b b 4 t 4 t 4 4 4 ",
"4 t b 4 b b t 4 4 t b 4 t b t 4 b t p r q H 0X/.-.l.+X%X:XeXvXvXMXMXNXxX8XQ.fXHX`.D d a M b b b b b 4 b b b b b b 4 t t t t 4 4 ",
"4 4 4 4 4 4 4 4 4 4 4 4 b 4 4 4 4 t t d q H qX^.-.l.+XC.#XrXeXvXvXvXxX8X5XR.zXDX`.h d e t b b b 4 4 4 b b m b b 4 4 4 t t t 4 b ",
"t 4 4 b t 4 4 4 4 4 b t 4 4 b t 4 b y r q H 9XK.$.l.c.c.C.+X%XeXpXiXrX$X&XY.zXCX'.J z a t b b b 4 4 4 b b b b 5 4 4 4 4 t t 4 4 ",
"b t b 4 4 M 4 4 M 4 4 4 b t b 4 4 4 t y 9 H 9XK...f.h.9.c.C.+X:X>X:X%X+X&XY.yXnX'.h d e 4 b 4 4 4 4 4 b b b b m 4 4 t 4 t t b 4 ",
"4 b t 4 4 4 4 4 4 4 4 4 t b 4 b 4 4 t r f P 9XJ. .0.c.h.y.N.C.#X#X#X#X+X+XY.yXnX'.j d a 4 b 5 3 t b 4 b b b 4 b 4 4 t t t 4 t b ",
"t b b 4 4 4 4 b 4 4 4 4 4 4 t b 4 b t r f H qXK. .f.c.c.c.a.B.S.S.S.A.C.m.Y.yXnX'.j i p t n 4 4 b 4 t b b b b b 4 b t M t t b 4 ",
"b 4 4 4 b t 4 t b b t 4 4 4 b b 4 b y r f H qXL. .f.c.y.u.a.a.B.B.V.S.C.z.l.yXDX'.j z a t b 4 4 t 4 b b b m b b 4 4 t t 4 t t 4 ",
"t b 4 4 t 4 4 b t b t 4 4 4 4 b b 4 t r d H 0XL. .d.v.e.u.a.a.a.n.B.V.v.z.j.zXnX`.h z a 4 b 4 4 4 4 4 b b b m b 4 4 t t M t 4 4 ",
"4 4 4 b b 4 b t b 4 b 4 b t t b 4 4 t r f H 0X/. .;.v.x.u.a.a.a.a.B.B.B.z.j.zXDX`.h z p t M t 4 4 4 4 b b b 5 b b t t t t 4 4 4 ",
"4 t b t 4 4 t b 4 4 4 4 4 t b b 4 5 4 a h H 0XL.: #.x.u.u.t.a.a.a.B.B.v.z.E.zXDX].h z N 4 b b 4 t 4 b b b m 4 b 4 b t t t t 4 4 ",
"4 4 4 b 4 4 4 4 4 b t b 4 b 4 4 5 4 p r z H 0XL.< @.g.v.u.t.a.a.p.B.v.v.k.j.zXDX].h z p t b t 4 t 4 b b b b b b 4 4 t t t t b 4 ",
"4 b 4 4 t t b 4 t b 4 t 4 4 t 4 5 4 M i f H }./.| +.4.x.e.e.i.t.q.a.c.c.k.>.zXHX`.h z e M b b b t 4 4 b b m b b 4 4 t t t t b b ",
"b t 4 4 b b 4 4 4 4 4 b 4 4 n 4 n t y i f K }.P.| X.@.w.e.t.y.t.q.p.c.x.f.>.fXHX[.h z y t M n 5 t 4 4 b b b b b 4 b t t t t 4 4 ",
"t b b 4 b 4 t b 4 4 t b 4 4 4 4 4 t t r s G }.L.| X.o.8.w.y.w.s.q.p.r.9.f.j.fXDX].h d a 4 b M 4 t 4 4 b 4 b 4 b 4 4 t 4 t t 4 4 ",
"4 4 t b t 4 4 4 b t b 4 4 4 4 4 4 4 t y s 9 }.J...X.> 4.w.u.e.s.q.q.9.8.f.j.fXHX[.J d t 4 n p N 4 4 4 b b b b b b b t M t t t 4 ",
"t 4 4 4 t b 4 4 t b 4 b t 4 4 4 t t 4 6 a L !.*.| $.- O.w.x.s.e.6.w.9.g.d.>.bXbX[.J i t n 4 p p t 4 4 n b b b b b b t b t t t t ",
"b 4 t b b t 4 4 4 4 4 4 b t 4 4 t M 5 4 p x ^ U U X.= - > 5.w.e.6.w.h.k.>.>.bXJX[.J d M b b p t t 4 4 4 b b t b b b 4 4 t t M t ",
"4 4 b t 4 b b t b 4 4 4 4 n 4 4 t M n p p d P F | ..= > > 4.g.x.5.8.g.f.,.U.bXJX[.J d p M b M t t b 4 4 b b b b b b 4 b t t t t ",
"4 4 4 b 4 4 4 4 t b t b 4 5 4 4 M M b n e i G I =.&.= +.> , 4.g.8.4.d.f.:.U.bXJX{.J k t b b M b 4 4 4 4 t b b 4 b t b t t t t t ",
"t b b t b t 4 4 4 4 4 4 4 4 4 4 M t M n t i 9 I U *.; : - X.3.4.g.@.#.;.:.U.bXJX{.E v 5 M b b b 4 t 4 4 b b b b b b b t M t t t ",
"b 4 4 4 4 b b t 4 4 4 4 n t n M M t M n a r 9 F U =.$.% - > > 4.d.4.#.,.1 =.bXJX[.c k p M m M m 4 b 4 4 b b b b b b 4 4 t 4 4 t ",
"t 4 t 4 4 4 t b 4 4 4 4 4 t t n t 4 N 4 B e g D F U  .= = - > 4.4.d.;.+.< =.lXZX_.j k p b b b 4 4 b 4 4 t b 4 b t 4 4 b t t t t ",
"b 4 b 4 4 4 b 4 4 4 4 n 4 M 4 M t 4 4 3 a e f 9 F U % < = = > 4.@.#.,.; ; W gXdX!.7 l p 5 b b 4 b t t b b t 4 t 4 4 4 b t 4 t t ",
"4 b 4 4 4 4 b t 4 4 4 4 4 4 4 4 t t 4 V V C r D D U U * : : , 1 ,.1 1 = # =.W T L l e 2 p N N 4 4 4 M b 4 4 b t 4 b 4 t b t b 4 ",
"b t 4 4 4 4 4 4 4 4 4 4 4 4 M 5 6 4 p S } C d f D $ @ # ; < 1 < 1 < # X @ W H Y x a p 4 p M M p 4 b 4 b 4 4 4 b b t 4 b 4 b 4 4 ",
"t b 4 4 M 4 t b 4 b t b 4 4 4 4 4 4 5 ~ |.C a f J $ @ o @ * * * * X X @ W ) Y j u p p 4 4 t t t 4 b b b t b b t t t t 4 b 4 t b ",
"4 4 4 4 4 4 b 4 4 4 b t 5 M 5 4 n 4 3 S ( a a i c E $ . .   o +     @ G.sXdX_.~ u 5 4 t 5 t t t b b b b 4 4 t t t t t t t 4 4 4 ",
"t 4 4 4 4 4 4 4 b 4 4 t M 4 4 n 4 5 4 V a 4 B u C ^ { ] & o @ $ & W I.dXdX_.[ A p 6 p p p t 4 4 b b b 4 t b t t t t t t b 4 4 4 ",
"b 4 t b 4 4 t b t 4 4 n n t 4 4 5 4 B 2 N N 5 t C [ _._.) T E R ] _.sX].!.Y v V p 4 5 p p t b b b b b b 4 4 t t t 4 M t t b 4 4 ",
"4 4 b t 4 b 4 4 4 4 4 4 5 4 4 4 n N p 6 n N 3 m M B z f J J 9 w j h j O c z u B t 4 p p p N b m b b b b 4 4 4 t t 4 t t 4 b t b ",
"4 4 4 b 4 4 4 4 4 4 4 M M 4 4 5 5 N 5 n n N m 3 3 y d d w G q g f w L c w d a 4 4 4 p u p 4 b b b b b 4 b 4 t t t t t t 4 t b 4 "
};
