/* XPM */
static char *c21dd4599bcd4686977977b3586ba819vwsQuCOFtWUjPryp[] = {
/* columns rows colors chars-per-pixel */
"64 64 256 2 ",
"   c #3E5C00",
".  c #3E6E02",
"X  c #4A5701",
"o  c #595803",
"O  c #4D4F05",
"+  c #655A03",
"@  c #715D01",
"#  c #486602",
"$  c #45770A",
"%  c #57680F",
"&  c #676203",
"*  c #796406",
"=  c #727312",
"-  c #64792B",
";  c #856708",
":  c #997508",
">  c #897916",
",  c #977916",
"<  c #887210",
"1  c #A47D17",
"2  c #169C01",
"3  c #1D9D02",
"4  c #1D9802",
"5  c #2B8B08",
"6  c #338C03",
"7  c #3C8C04",
"8  c #338D0B",
"9  c #3B8C0B",
"0  c #3A8508",
"q  c #239504",
"w  c #2B9505",
"e  c #239D04",
"r  c #2A9A06",
"t  c #2C950B",
"y  c #259D09",
"u  c #2B9B0B",
"i  c #249409",
"p  c #339405",
"a  c #33930C",
"s  c #32990C",
"d  c #3A950A",
"f  c #358D12",
"g  c #3C8B13",
"h  c #3B8A1B",
"j  c #2D9C11",
"k  c #2D9612",
"l  c #339512",
"z  c #3B9313",
"x  c #339A12",
"c  c #3C9518",
"v  c #1DA103",
"b  c #1AA307",
"n  c #22A105",
"m  c #24A209",
"M  c #29A20C",
"N  c #29A408",
"B  c #2DA412",
"V  c #32A60F",
"C  c #3FA925",
"Z  c #468908",
"A  c #558906",
"S  c #449209",
"D  c #458B16",
"F  c #578B16",
"G  c #469418",
"H  c #579618",
"J  c #59920B",
"K  c #639B1A",
"L  c #718F11",
"P  c #66A11A",
"I  c #488924",
"U  c #4A9723",
"Y  c #589927",
"T  c #5A9535",
"R  c #639C28",
"E  c #759030",
"W  c #56A22A",
"Q  c #4DA72C",
"!  c #68A935",
"~  c #78A936",
"^  c #78B23A",
"/  c #71AB2D",
"(  c #56A11C",
")  c #79B546",
"_  c #73AE48",
"`  c #6B9C4B",
"'  c #7BCC52",
"]  c #88851A",
"[  c #9A871B",
"{  c #83941B",
"}  c #9B981A",
"|  c #B78704",
" . c #A68819",
".. c #A8981B",
"X. c #BA9A1A",
"o. c #AF8C15",
"O. c #BEA11C",
"+. c #978B27",
"@. c #969624",
"#. c #919031",
"$. c #A68D25",
"%. c #B79826",
"&. c #AD992D",
"*. c #8AB537",
"=. c #98B739",
"-. c #90A930",
";. c #A9A52A",
":. c #B9A628",
">. c #AAA734",
",. c #BAA837",
"<. c #A9B838",
"1. c #BAB639",
"2. c #B0B02C",
"3. c #85A71C",
"4. c #C38D05",
"5. c #C99309",
"6. c #CA9A17",
"7. c #D39C16",
"8. c #D59D0D",
"9. c #CAA61C",
"0. c #DAA41C",
"q. c #D8A71A",
"w. c #DCB41C",
"e. c #D8A50E",
"r. c #E4AC1B",
"t. c #E7B41D",
"y. c #C89B27",
"u. c #D09E22",
"i. c #C7A627",
"p. c #D6A726",
"a. c #D8B729",
"s. c #C4A935",
"d. c #D5AB36",
"f. c #CAB63A",
"g. c #D6B838",
"h. c #CBB229",
"j. c #E7B827",
"k. c #E7B429",
"l. c #B1C43B",
"z. c #DCC42D",
"x. c #CBC83A",
"c. c #DCC23C",
"v. c #D8C639",
"b. c #CCD03E",
"n. c #E6C72A",
"m. c #F4C82C",
"M. c #E9D32B",
"N. c #E7C937",
"B. c #EBD739",
"V. c #F4DA3B",
"C. c #F2C837",
"Z. c #F8E13E",
"A. c #94BB46",
"S. c #89B84B",
"D. c #B2B250",
"F. c #92B66A",
"G. c #BAB964",
"H. c #AAB768",
"J. c #A49D48",
"K. c #C8B846",
"L. c #D6B846",
"P. c #CEB754",
"I. c #CABD63",
"U. c #E3BE49",
"Y. c #89C656",
"T. c #98CA5A",
"R. c #96C952",
"E. c #ACCB57",
"W. c #B7C759",
"Q. c #ADCB4D",
"!. c #B8E55A",
"~. c #9ACC68",
"^. c #98D668",
"/. c #97CB6E",
"(. c #B6D668",
"). c #AED06D",
"_. c #BBE369",
"`. c #BAE577",
"'. c #AFE879",
"]. c #C9C748",
"[. c #D9C746",
"{. c #C7C756",
"}. c #D7C857",
"|. c #DAD858",
" X c #D0D651",
".X c #E7CC46",
"XX c #ECDD4C",
"oX c #E8D547",
"OX c #F5D948",
"+X c #E6CB56",
"@X c #E7D856",
"#X c #F5DC5C",
"$X c #F6D956",
"%X c #F3CD4F",
"&X c #D9E65A",
"*X c #F4E44C",
"=X c #FBE54C",
"-X c #FCEB4C",
";X c #F8E545",
":X c #E9E358",
">X c #F4E453",
",X c #FBE454",
"<X c #FBEB53",
"1X c #F9E95A",
"2X c #FEF254",
"3X c #FFF25A",
"4X c #ECE24C",
"5X c #C5CA68",
"6X c #DACA65",
"7X c #C9D66B",
"8X c #D8D669",
"9X c #C9D976",
"0X c #D8D77C",
"qX c #CFC975",
"wX c #E5DB67",
"eX c #F9DB65",
"rX c #E5DA74",
"tX c #E3CD74",
"yX c #D8E568",
"uX c #C6E97A",
"iX c #D9E978",
"pX c #D0EF77",
"aX c #E8E566",
"sX c #F8E867",
"dX c #FEF369",
"fX c #E6E77A",
"gX c #F8EC76",
"hX c #E8F378",
"jX c #FAF479",
"kX c #B2D28A",
"lX c #B8E985",
"zX c #ADF583",
"xX c #CDDC91",
"cX c #C9EB83",
"vX c #CAF688",
"bX c #D6F98C",
"nX c #C8F795",
"mX c #D7FB98",
"MX c #D2EC8C",
"NX c #E9E985",
"BX c #F7ED84",
"VX c #E7F889",
"CX c #F9F886",
"ZX c #E3FD93",
"AX c #EBFE93",
"SX c #E8F899",
"DX c #F8F996",
"FX c #EBEC97",
"GX c #DCFDA5",
"HX c #D8F5AB",
"JX c #E3FEA3",
"KX c #EBFDA9",
"LX c #F3FCA9",
"PX c #E8FDB5",
"IX c #EDF7B1",
"UX c #EDDE87",
/* pixels */
"zX' C b i j M 3 y m v 2 3 2 3 n 3 3 2 n v v v b v v v v 3 v e n 3 3 3 y 3 y 3 y 3 n n v 4 4 e V V e e 4 2 b b 2 b b b y i y w r ",
"Q C B B j y y 3 m b 2 v n n e v v n N v 2 2 v m v v n v e y N r e e y e y y y y m e e 3 3 N n q q e n n v b b b b b m m y j r u ",
"i 4 j B y e 4 e m v 3 4 b m e 2 v 3 m m 3 3 m y y y y y r u u u u r t t k i y k r e q e n n e e e n N v v 2 v v 2 b y 4 e r u y ",
"k j y y e 4 e n 3 e 3 3 e e e e 3 2 e e m u u i u t k j k a t a a a f a 8 8 k t s s r i r r M e e e 3 v v v v 2 2 3 3 y y q y y ",
"4 3 e 4 m M N v 2 v n v 3 3 y y m m 4 q j x 5 k f f f h f f g g h h g D g h D 9 z z a r i u u y e n n e v v e 3 e N e e u M M y ",
"3 4 3 4 m M n 2 2 v M m e i y y u y j x l c U Q T W W Y Y Y Y W Y Y R Y Y R Y Y U U U c z 5 t t u m e 4 4 e e N e e r e e e y e ",
"m b m y v n v 2 2 3 m n e e y i q i l f G _ '.nXlXnXnXnXnXvXvXvXbXbXbXbXbXbXbXnXmXlX^._ Q G c t w i i y n n e e e e e e e e 3 3 ",
"2 4 m b v m n n v 2 3 2 e M u u k c f G ' lXmXmXGXJXmXZXmXZXbXZXZXSXZXAXZXAXAXSXmXGXnXzXY.T g 8 x u u u r q e N e e e e e m e e ",
"e 3 4 3 e e 3 3 v v b 3 m y q a D G ! ~.lXGXJXKXSXSXMXiXuXyXyXpXyXyXyXfXiXfXhXNXVXSXJXmXvX/._ U f a s x w y e n e n n 3 n e 3 v ",
"m e n e v v 3 2 2 v N m y r s 6 U ) '.MXJXSXSXDXNXfXiX8X8X8X X X|.&X:X|.:XaXaXaXfXNXVXSXmXbX`.Y.Y 8 9 x d r q e e n v 2 v v v n ",
"y y y e e n n 2 2 v m u r r d W Y.lXmXZXAXNXUXrXrXwX8XaX8X:X|.XX:X:X1X:X4X4XXX@X@XwXaXfXiXVXbXcX^.! S 9 x s u y e 3 m m v v v 2 ",
"m e y e e n n m m m e w d d ( ^.vXSXSXNXfXrX6X+XwX@X@X:X:X@X@X4X4X*X-X-X;XoXXXOX#X#X@XwXaXfXVXVXbX_.S.D 9 d x u y e 3 b v v v v ",
"3 e n m n e 4 e y y w p d H / _.ZXDXfX6X6X+X+X+X[.[.XXXX>X>X>X<X2XZ.B.B.4XB.V.V.OXOXOX1XsXaXaXhXhXbXuXT.! G z a x j i 3 3 n n n ",
"N m 4 e 4 4 e B B u a z H ^ `.cXNXfX6XK.K.L.L.N..X.XXX<X<X2X3X3X-XB.M.B.Z.Z.V.V.OXV.OXOX%X%XaXaXhXiXpXZXuXT.! 9 f t l j y e e n ",
"n 3 n n m e e y q q a W R.`.mXiX7XP.K.L.g.i.h.g.OX*X<X2X2X2X-X;XZ.B.B.oXV.M.n.m.m.m.j.m.C.%X@X+X|.wXNXAXAXbX'.) G f 8 l s i r r ",
"v 2 e n y e e u j 8 6 ! uXVXMX6XK.s.f.f.i.p.N.oX;X-X2X2X2X<X*XoX4XB.4XB.z.a.w.t.t.e.e.r.j.z.a.[.+X8XwXfXAXAXmXlXT.T f 9 a s w q ",
"n n v v 3 3 e t l G D -.uXhX8XK.:.i.:.O.h.v.B.*X*X2X2X2X2X4XXXoXv.g.h.9.i.p.p.7.8.7.5.7.q.q.q.g.L.+XP.6XUXFXDXJXmX/.! G c x k s ",
"n n n m m n e k a z / R.yX8X].,.%.i.9.i.z.B.*X-X4X2X2X2X4X Xv.v.:.:. .[ 1 %.y.5.7.7.7.7.8.0.w.9.h.L.L.}.tXUXFXLXJXKXlXY . x x x ",
"2 3 3 e 3 y i t 6 H R.7XW.Q.s.%.O.O.9.a.N.XX>X<X2X2X<X4X4Xx.2.2.2.&.[ ; * : : : 1 7.7.7.7.7.6.5.p.d.L.L.6XtXUXIXKXKXlX` I c l l ",
"3 2 3 m M u r 8 6 ( _.uXD.;.:.i.X.O.h.oX,X,X3X3X3XdX:X Xx.2.;.2.fXfX7X;.< < , o.y.u.6.5.5.0.0.p.7.d.d.d.L.tXUXIXLXIXHX~._ c . 5 ",
"B m 3 3 y u s d S K Q. X;.} ....i.h..X,X1X,X,X1XdXdX:Xb.<.;.l. XhXAXVX7X>.] > [ 1 d.u.6.7.5.6.0.p.p.p.d.d.P.tXUXFXLXPXnXY.U h h ",
"m 3 3 m M u s 7 S J =.Q.;.} o.O.g.N.OXOX,XsXdXdXdXaX&Xl.=.Q.Q.W.A.A.R.D.D.-.] +.o.y.d.p.4.4.7.7.r.0.p.p.d.P.U.tXFXLXPXJX/.I h h ",
"v 2 3 e r s d S P *.=.2.....X.g.OXOXOX$X$X1XdXdXdXyXQ.l.=.*./ K H Z F H ~ E E } ..%.y.5.| 4.5.8.7.r.0.p.d.d.P.I.tXLXKXGX/.U h h ",
"v b 3 4 q w d Z / Q.2.} } ..h.%X,X$X%XOX#XsXsXdXjX:XQ.=.P J S S 7 7 9 Z A A L L } .. .| | | 4.5.5.7.7.u.u.d.U.tX6XFXKXGX/.I h h ",
"v 2 n e r p 7 Z 3.l.-.} } i..XOX$XoX.X.X#XsXsXgXhX&XR.P J S d d p r p 7 S Z A L { ..X.| | | 5.5.5.7.r.0.0.d.L.P.6XUXLXSX~.I D G ",
"N v e r w p S P *.=.;...;.g.$X$X%Xc.g.c.#XgXjXCXyXW.-.K S 7 p p r e q w p S A A { } ..9.O.5.4.4.8.r.r.r.0.u.u.L.P.UXLXSXT.F D D ",
"e n q r p 6 ( *.=.-.3.:.g.@X$X$X.X[.g.[.aXjXjXNXyXQ.*.J S 6 w q n n e r p 7 Z A { ;.2.i.O.| 5.5.r.r.r.r.r.p.p.d.}.rXNXZXE.R D D ",
"q N r p p d ^ E.Q.;...2.+X#X$XL.h.f.L.[.aXBXBXiX9X(.S.H 7 p r r e n n e r 7 Z A P >.1.i.X.5.e.w.r.r.k.k.r.0.0.d.L.tXfXAXE.F $ D ",
"r r a z 9 Z / W.Q.2.;.s.$X#X%Xg.i.L.[.}.gXCXBXiX(.(.R.H 9 d r u 3 e n r r p Z A 3.<.1.:.X.9.q.a.k.j.t.t.r.r.p.d.L.P.7XVX9X~ F $ ",
"d a a f G ^ A.E.D.>.s.L.eX#X+Xd.f.L.}.6XBXDXDXiX(.(.T.R 0 p s u N e e r d p 7 A / l.1.:.i.q.a.m.k.j.t.t.k.k.k.d.L.K.{.FXmX(.^ F ",
"a z c D ^ '.uXW.>.&.K.+XeX$X%XL.K.[.6XgXCXDXDX9XW.9X).W 0 8 s t r e q r p p Z A *. Xl.:.h.a.m.m.m.m.t.t.j.m.j.d.s.,.W.VXbXvXR./ ",
"c 8 D ' lXmXuXD.>.&.L.+XeX$X%X+X[.+XwXCXDXDXAX9X).cX'.R 0 a p r r e N r p 6 7 A Q.|.x.2.h.z.C.m.m.j.t.t.j.j.N.g.s.,.{.VXAXbXE.S.",
"f g U ^.mXmXxXJ.1 &.+XeXeXeXeXeXsXeXBXCXCXDXFXqXW.cX`.Y 0 l u y q n r u s 6 7 A E.hX].f.v.oXB.B.C.C.n.C.N.C..X[.K.K.5XVXSXmX).Y.",
"D h G Y.GXZX7X>.$.,.+XeXeXeXeXsXgXgXCXDXDXDXNX5XW.cX_.Y 9 d u y e n e r p 6 Z K Q.iX].].[.oXB.N.n.n.j.n.C.OX%X[.P.K.5XNXSXZX`.T.",
"c g I ^.mXmX5X#.1 D.U.%X$X#XsXsXjXBXCXCXDXBX0X(.G.cX`.P 0 s u e e v e y s 8 Y R.7XhX].K.v.N.N.C.C.N.N.N.OX,X#X+X}.D.P.FXKXSX`./.",
"f c Q ^.mXbXW.#.1 s.L.U.%X%X%X$XeXgXjXCXDXNXqX{.W.cXuXR 0 p w q e n 4 r s a / `.VXVX}.f.[..X.XOXOX;XV.XX,XsXsXeX}.D.G.SXKXmXkX/.",
"f c Q Y.`.MX5X#.#.,.d.L.c.g.N.[..X#XgXjXCXfX5XW.W.bXuXK 7 d w q n n e r p 9 ^ vXAXhX].f.[.%XOX=X-X<X=X,X3XdXdXgXtXI.H.FXIXGXkX/.",
"l c h Y ) uX5X> 1 ,.d.d.d.p.d.h.c.@XsXdXgXwX}.W.5XpXuXK 7 7 p u N n q r a 9 ^ vXVXfX}.K..XOX$X<X,X<X,X>XdXdXjXjXUXI.G.FXIXPXkX/.",
"a l g Z R 9XqX> , ,.d.d.p.h.p.p.j..X$XsXeXwX{.{.{.iX_.K Z 7 p r e e q r a z ^ vXVXiX}.].[.oX$X,X3X3X1X>X1XdXjXBXUXG.G.IXPXPXxXkX",
"t t g 0 R xX).> , 1 d.d.p.p.p.p.j.OX$X$X#X@X X].{.iXuXK S d p r e e q s a 9 ^ pXVXfX8X[.v.c.XX*X<X<X>XXX@XaXsXBXBXG.H.IXPXHXkXkX",
"t a 8 0 R uX7X] < $.y.d.d.u.u.0.j..XOX$X%XoX+X].!.yX!.P p p p N e e u u 8 9 ^ pXVXyX}.[.v.B.4X-X<X<X>XXX[.|.wXBXBXG.H.IXIXPXxXkX",
"u w 8 9 R uX9X] < 1 y.P.d.u.p.0.k.j.C.C..X.XoX].b.&X!.P 7 w r q N e y u p 9 ^ vXhXyX X[.x.B.XX;X*X<X>XXX.X+XwXBXNXI.G.FXPXPXkXF.",
"u s p 9 R `.9X#., #.J.y.u.p.k.0.k.j.j.C.N.B.oXx.l.&X!.P 7 p r N y m y t z Z *.pXhX@XoXv.z.z.M.B.-X*X*XXX@X:XgXrX0XI.xXIXPXHXkXkX",
"u s 8 9 ! lX9X#.1 1 1 y.y.d.k.k.q.q.j.m.N.N.v.x.l.&X!.P 7 p p e e y u a z S ^ pXhX|.c.v.z.z.z.Z.-X<X4X@X:XgXBX0XI.I.xXIXPXHXkXF.",
"j t a h ! lXcXD.#.> , $.u.d.u.d.r.e.t.n.j.z.z.v.b.&XQ.P 7 S d r i i s G S Z / aXaX Xv.z.n.n.n.M.;X2X4X:XsXgXBX6XD.qXHXPXPXHXF.` ",
"t t l Q Y.nXMXG.J.; ; 1 y.u.p.k.k.r.e.e.w.w.a.z.b. Xl.P Z S S d p t a z S F =.yX:XoXN.z.z.n.n.z.B.2X<X:XdXgXBXP.J.qXKXPXPXHXF.I ",
"j t C ' lXmXJXFXJ.* ; : 1 u.k.k.r.e.e.e.w.w.w.z.v.b.l.3.J A Z S 9 8 9 Z K A.E.&X|.oXB.M.M.M.M.M.M.-X3XdXgXgXtXP.J.xXPXPXHXnX` I ",
"i j C ! Y.nXJXHXH.; ; ; , y.d.p.r.7.e.e.w.w.w.z.z.x.x.l.3.J Z Z Z Z F / E.pXyX XoXoXB.M.n.M.M.M.B.<XsXdXsXwXP.D.D.xXPXHXnX/.` I ",
"y k k c ! lXHXJX).#.= ; ; 1 y.y.d.u.0.0.r.r.w.w.a.x.x.].].Q.=.=.A.*.R._.hXhX:X|.XXB.Z.M.M.M.M.B.4X4X1XsXaX}.D.D.UXmXJXHX^.T U h ",
"j j k 5 U Y.lXnXxXD.] * * ; , y.d.u.u.u.0.r.w.a.N.v.x.].yXVXCXVXVXVXCXCXhXyX&X:X4X;XM.M.M.M.V.-X<X>X1X1X}.K.&.G.FXJXmXzX' I h c ",
"4 y k k g U S.nXSXcX= O + ; , 1 %.y.u.p.r.0.q.q.j.N.c.[.:XjXjXjXCXCXCXhXhXaX:X>X*X=XZ.M.M.Z.Z.;X<X1XsXaXK.>.>.(.MXmX'.! h h l k ",
"4 4 j k f f ! ^.MXMXJ.= > * * ; : %.y.u.u.6.6.q.a.a.c.[.[.:XdXjXjXjXjXjXaX:X4X4X*X;XZ.Z.-XZ.=X<X1X#X@X].>.-.G.uXbX^._ D 8 k i k ",
"m 4 4 i j c G W T.cX).J.o o = * ; 1 o.%.u.7.6.q.p.g.g.N.N..X$XdXdXdXsX:XXXXX4X4XZ.Z.Z.Z.-X-X-X3X#X@XK.,.@.-.pXbXlX^ G z j j e 4 ",
"b m y e q x z G U ) `.~.% O + + @ ;  .%.y.i.u.0.0.q.9.a.a.c.OX$X>X1X1X>X4XV.;X-X;X-XZ.Z.;X=X*X>X@XwX1.@.=.W.pX`.Y.W l u i m m m ",
"b 2 b 3 4 r u a a G S.~.-.- O % + * < , o.y.6.u.p.p.w.a.a.N..XOXOX=X*X=X-X-X-X;X-XZ.Z.Z.;XXX.XoX}.].@.{ E.uX^.Y.( x x B 4 2 2 b ",
"b 3 v 3 3 e q w p z D ! T.` % O o @ @ * : 1 %.y.i.p.p.a.a.a.n.N.OXV.OXV.Z.-X-X;XZ.;XZ.OXXX[.x.].>.] { =.(.(./ S p M u y b b b b ",
"v v v v n n e r s p z G Y R E # O o o * * , ..y.i.i.O.i.h.h.p.9.n.n.N.V.;X;X=X=XOXOXOXXX[.[.].@.= L =.E.*.W G a t u j 3 3 b m b ",
"v v v n v e 3 e r r p d D H Y I $ o X o & & <  .&.%.%.X.9.i.9.9.p.a.n.c..XOX$XOX.X%X@X[.1.>.] & L *.*.~ H S p s r y 3 3 2 b b b ",
"v 3 v v v 3 v n n q r d 9 z H Y F $ # # X X & = ] +.[ ....%.%.X.9.y.i.d.f.g.f.g.P.D.D.J.+.L = L -.~ R Z d d t u y e 3 3 b 3 b b ",
"e 3 e v e v e v e e e r t p f G G Z . . .   # % = = ] ] [ [ .. .o.%.%.%.%.$.+.&.J.1 < + o % E -.~ H S z a d j y e e y m y b 3 b ",
"e 3 e n e v 3 v 3 e y y u w t z z 9 0 0 $ $ # . # # = & - = < < < , < , > > > = + + O O E F.).) F D f z j i y 3 3 e 3 m y 3 3 y ",
"n e e e n e v e v m 3 4 y u u V l a a D D D Z $ . $ # #   O O + @ @ O + + o O O O + - H.`.HXHX) U c l t k i 4 3 3 v e e 3 m b 3 ",
"e e e n e n e b 3 3 3 m y m M u t k l l f f D D 0 $ . . O O O O O O O O % O O - - H.xXHXnXlX/.` U k k j i b b 3 3 n e 3 3 m y 3 ",
"e e e e 3 e e 3 y b b 3 4 4 e e j x l k 9 z G D D D $ $ - - - - + - - ` H.kXxXxXxXkXkXF.S.T I U h h k y y y m 3 n v v y y 3 b m "
};
