/* XPM */
static char *_d9bd770ef5b466999d10ed5c9a00aedoxZV3QFmGGOuP71L[] = {
/* columns rows colors chars-per-pixel */
"64 64 256 2 ",
"   c #010B01",
".  c #040701",
"X  c #031C02",
"o  c #081602",
"O  c #171804",
"+  c #1B1A17",
"@  c #13140B",
"#  c #241907",
"$  c #371805",
"%  c #2A1918",
"&  c #341615",
"*  c #022202",
"=  c #022D01",
"-  c #0B2304",
";  c #172802",
":  c #073703",
">  c #183A09",
",  c #143B18",
"<  c #132514",
"1  c #282607",
"2  c #372903",
"3  c #283906",
"4  c #373803",
"5  c #282919",
"6  c #332919",
"7  c #393919",
"8  c #2B3619",
"9  c #1D1C24",
"0  c #251B27",
"q  c #391928",
"w  c #2F1F34",
"e  c #1D2527",
"r  c #23232B",
"t  c #292928",
"y  c #322C27",
"u  c #2D3126",
"i  c #373526",
"p  c #282634",
"a  c #372837",
"s  c #393737",
"d  c #2D363A",
"f  c #561904",
"g  c #4C1610",
"h  c #701910",
"j  c #482B06",
"k  c #453605",
"l  c #583709",
"z  c #493819",
"x  c #552C12",
"c  c #663808",
"v  c #793808",
"b  c #722D11",
"n  c #481722",
"m  c #5A1B21",
"M  c #4D392B",
"N  c #702F20",
"B  c #6F1F20",
"V  c #0A4703",
"C  c #174906",
"Z  c #095705",
"A  c #165706",
"S  c #185514",
"D  c #194617",
"F  c #274608",
"G  c #39460A",
"H  c #265807",
"J  c #375906",
"K  c #264814",
"L  c #384915",
"P  c #295715",
"I  c #365916",
"U  c #086901",
"Y  c #196509",
"T  c #187506",
"R  c #1A6515",
"E  c #0F7004",
"W  c #28670A",
"Q  c #27780D",
"!  c #367509",
"~  c #296717",
"^  c #366716",
"/  c #277817",
"(  c #387816",
")  c #376A08",
"_  c #274A27",
"`  c #3D4526",
"'  c #365B25",
"]  c #394836",
"[  c #396525",
"{  c #287726",
"}  c #3A7B26",
"|  c #366E2D",
" . c #1B4823",
".. c #4C4908",
"X. c #584707",
"o. c #474717",
"O. c #465716",
"+. c #545816",
"@. c #525210",
"#. c #6B4506",
"$. c #6C5113",
"%. c #466906",
"&. c #556406",
"*. c #46770A",
"=. c #4A6918",
"-. c #457719",
";. c #587718",
":. c #586A13",
">. c #6B6814",
",. c #474527",
"<. c #554728",
"1. c #4A5827",
"2. c #575627",
"3. c #454935",
"4. c #565938",
"5. c #4D5533",
"6. c #685829",
"7. c #685A34",
"8. c #744E2B",
"9. c #4A6823",
"0. c #566826",
"q. c #467929",
"w. c #59643A",
"e. c #477836",
"r. c #506F31",
"t. c #66672A",
"y. c #65653A",
"u. c #6F7032",
"i. c #3D3643",
"p. c #423546",
"a. c #4E4D4E",
"s. c #576B49",
"d. c #696A46",
"f. c #76684B",
"g. c #6B7448",
"h. c #777A48",
"j. c #767758",
"k. c #6D6D55",
"l. c #707070",
"z. c #775E47",
"x. c #3A4549",
"c. c #8C2D08",
"v. c #992A06",
"b. c #893508",
"n. c #953717",
"m. c #8F3112",
"M. c #A72B09",
"N. c #B92B09",
"B. c #A62B16",
"V. c #B72A14",
"C. c #A83418",
"Z. c #BA3615",
"A. c #B1330C",
"S. c #8D2B21",
"D. c #931B0C",
"F. c #C92809",
"G. c #C72B12",
"H. c #CB2F13",
"J. c #8E5030",
"K. c #B04F2D",
"L. c #8F6C32",
"P. c #AF7337",
"I. c #8A581D",
"U. c #C57A3D",
"Y. c #C65938",
"T. c #8C7352",
"R. c #AE764D",
"E. c #8F7969",
"W. c #9A6D53",
"Q. c #CD7851",
"!. c #CA7F62",
"~. c #1D9E04",
"^. c #1E9E0B",
"/. c #1D9406",
"(. c #1C9D11",
"). c #168901",
"_. c #38890D",
"`. c #239D03",
"'. c #299B03",
"]. c #2C950B",
"[. c #239C0B",
"{. c #2A9A0C",
"}. c #259508",
"|. c #32940D",
" X c #35960B",
".X c #2A8817",
"XX c #348D14",
"oX c #3B8D14",
"OX c #348C1B",
"+X c #3B8C1C",
"@X c #388417",
"#X c #2C9413",
"$X c #259C11",
"%X c #2B9B14",
"&X c #2C931B",
"*X c #2A9918",
"=X c #339414",
"-X c #319A13",
";X c #33941B",
":X c #379719",
">X c #28860C",
",X c #16A204",
"<X c #1CA103",
"1X c #1CA109",
"2X c #16A309",
"3X c #1CA214",
"4X c #22A103",
"5X c #22A10A",
"6X c #27A205",
"7X c #26A114",
"8X c #30A219",
"9X c #2D8A23",
"0X c #398824",
"qX c #369622",
"wX c #338E26",
"eX c #448618",
"rX c #488612",
"tX c #458A26",
"yX c #4F892A",
"uX c #768432",
"iX c #798348",
"pX c #7B8455",
"aX c #778F52",
"sX c #7F8E67",
"dX c #8C8A3A",
"fX c #878C57",
"gX c #918F4E",
"hX c #AD9359",
"jX c #ADAD58",
"kX c #8A8477",
"lX c #968977",
"zX c #928B6D",
"xX c #AE8E6F",
"cX c #ADB16B",
"vX c #9CA370",
"bX c #C68346",
"nX c #C6AD68",
"mX c #D78F6F",
"MX c #BCC562",
"NX c #C0C861",
"BX c #827881",
"VX c #8A8985",
"CX c #989290",
"ZX c #A9978A",
"AX c #A7999A",
"SX c #AD948C",
"DX c #AEA98E",
"FX c #A89BA4",
"GX c #B1A8A8",
"HX c #9CA192",
"JX c #D3AE8C",
"KX c #E5B08F",
"LX c #EDD1B3",
"PX c #DCCCAF",
"IX c #E9DBC2",
"UX c #FEF0D7",
/* pixels */
"~.~.~.~.`./.`.4X`.4X<X`.~.).).).E U U U U U Z U Z A Y A H A H W ! XXqXqX8X%X^.^.5X5X5X5X4X4X4X4X4X`.{.5X[.[.^.`.4X4X`.'.6X'.'.'.",
"~.~.~.~.~.`.`.4X~.4X4X`.`./.).).T E E U U E E R U R ~ ~ ~ H H H Y Q .X;XqX%X$X/.7X5X5X5X4X4X4X<X6X`.[.[.[.<X~.<X~.4X`.6X'.'.'. X",
"~.1X~.^.`.~.[.`.`.4X4X`.`././.}.>X.X#X.X.X&X.X9X0X} tXe.| [ P A A A W / 9XqXqX*X%X{.`.`.6X6X6X`.`.[.`.[.[.^.~.~.<X4X4X`.'.'.'.'.",
"1X~.1X^.^.[.~.~.~.~.<X[.1X`.[.[.].&X;X;X;XqXwX0X0X0Xe.e.e.| ~ _ H P H ~ / @X9XqX=X#X].'.7X6X6X'.6X`.6X[.^.^.^.1X~.4X~.4X6X'.'.'.",
"<X<X<X[.[.[.^.^.^.~.<X^.5X5X5X[.].-X-X].=X+XtXtX| | [ P P ' ' | r.r.1.^ I W ! Q _.oXoX-X X].'.'.`.`.`.^.1X1X^.~.<X<X<X<X6X6X`.'.",
"~.~.[.1X$X1X^.^.~.^.~.~.1X5X5X[.{.].-X|.oXoXoX-.q.9.I P > K s.aXsXsXs.I F F J ) ! *.rXrX X|.].{.`.`.~.~.[.2X2X2X~.<X<X<X4X`.`.`.",
"~.~.~.`.5X5X(.^.^.,X~.,X<X4X4X[.`.}.]. XoX_.*.*.;.r.r.1.8 ' j.vXGXDXh.<.G 4 ..&.&.%.*.*.rX_. X{.`.`.<X<X1X1X2X2X,X,X<X<X<X4X4X6X",
"~.~.~.~.5X(.5X^.^.2X<X<X<X<X4X`.}.'.|._.rX*.*.&.uXuXuXu.G o.j.HXDXDXT.2...l >.>.&.&.&.*.rXoX=X].'.`.<X`.~.,X^.,X,X2X,X<X~.<X`.4X",
"4X<X4X`.[.1X~.1X1X,X<X<X<X4X<X6X[.}.|._.) %.;.dXgXjXjXL.6.2.7.f.j.f.8.$.$.L.P.P.I.I.&.rXrX_._.].'.`.`.~.1X<X1X,X2X2X,X1X~.<X`.~.",
"`.4X`.~.`.[.<X~.<X<X<X<X<X4X4X6X{.#XXX! ) %.uXgXjXnXhXdXL.6.$.z o.<.6.8.L.P.P.P.dXP.>.&.%.! _._.{.[.`.4X5X,X2X1X1X2X2X,X<X~.`.4X",
"6X4X`.`.~.~.~.,X<X<X<X<X4X4X4X6X8X=X_.! J &.dXcXnXnXhXhXgXJ.z 2 2 z 8.L.P.bXU.U.bXP.I...J J @X=X].{.`./.<X4X<X<X,X2X1X~.~.<X`.`.",
"6X6X`.~.`.~.~.<X<X<X<X<X4X6X5X6X;X+X@X! J &.dXhXnXnXhXhXhXT.N g x 8.T.R.R.U.U.U.bXP.#...F H ! +X].}.{.'.`.~.<X<X1X~.~.1X~.`.`.4X",
"6X6X'.`.~.`.~.~.,X<X~.<X`.`.'.%X=XOXtX^ O.@.u.T.hXmXhXhXxXR.T.T.T.T.W.R.R.R.P.U.bXP.$.j 3 H ( 0X=X].{.{.`.4X<X<X<X1X1X<X`.`.`.`.",
"'.`.`.`.`.`.~.~.~.<X~.~.~.`.{.#X;X+Xq.-.O.+.$.T.gXhXxXxXxXxXE.E.SXxXxXR.R.P.J.K.R.L.$.j 3 F ^ ( OX].].'.'.`.`.<X<X4X<X[.`.`.'.'.",
"'.'.`.'.`.4X4X4X<X<X<X~.`.[.{.#X;X+Xq.=.O...7.8.W.hXxXxXSXE.E.lXSXSX!.!.W.J.n.I.J.I.l 2 1 F J ( OX>X].{.'.`.`.4X4X<X4X5X`.`.'.'.",
"'.`.`.`.`.`.4X<X<X<X<X/.}.{.].-X;X( ( ^ G o.8.u.W.E.zXzXE.SXSXCXSXSXSXSXR.J.8.N N N j 2 1 F I ( @XXX|.|.'.6X`.`.<X4X`.`.`.'.'.`.",
"6X`.`.~.`.1X<X1X,X<X<X5X}.].:X;X.XW H F G o.7.f.zXkXlXCXlXCXCXCXSXSXDXSXxXE.T.<.N x $ # 2 G 9.9.( -._.XX{.'.`.~.4X4X5X[.`.`.`.'.",
"6X`.`.~.<X1X,X,X,X,X1X5X}.%X:XOX/ W C F o.w.f.E.zXVXCXHXCXAXAXFXFXGXSXAXSXZXT.g.<.z 2 k o.O.0.9.^ ^ ! _.=X'.~.~.<X<X5X`.`.`.`.'.",
"6X6X~.`.1X2X,X~.,X~.1X[.}.#X=X.X/ H > F w.j.E.kXkXVXCXHXAXFXFXFXGXSXAXDXDXDXHXkXf.y.7.y.0.2.O.I ^ ^ ( XX X{.[.<X^.^.<X5X6X6X6X6X",
"6X<X<X<X1X2X,X,X,X,X~.[.*X#X.XQ ~ H K 1.g.zXzXlXVXVXVXCXFXFXGXFXFXAXAXAXAXFXHXVXj.d.g.h.h.u.:.I I I ( @X:X-X[.<X~.~.5X5X6X4X6X6X",
"<X4X`.<X<X1X2X2X2X,X^.[.-X;X>XW H ^ e.aXpXpXE.sXkXkXCXHXAXFXAXFXFXBXBXFXVXCXVXBXk.4.s.d.iXiXt.=.P H ^ 0XXX;X{./.~.1X1X5X5X4X6X4X",
"`.~.<X<X1X1X2X,X1X(.^.*XqXOXT A H q.aXfXiXd.7.d.j.l.VXVXVXBXBXBXBXE.l.BXl.l.l.a.a.] ` 5.h.fXuXu.L F ^ ( OX:X{.[.^.1X1X5X5X4X4X4X",
"`.`.4X5X1X(.1X1X^.5X$X*X;X.XA A F =.aXfXu.2.` 7 ,.a.k.l.l.a.a.a.a.p.p.p.x.a.x.x.] e 5 ` d.aXaXiXL > H ^ ( :X%X%X[.^.1X1X1X4X<X<X",
"`.`.5X5X5X5X1X1X(.$X#X.X.X~ A > F O.uXaXu.o.1 1 5 d i.a.a.x.s r p p p p d d d p p e + 8 4.h.aXu.8 ; C ^ ( +X=X%X5X(.1X1X1X<X<X<X",
"`.{.`.[.$X$X^.(.$X#X&X.XQ A : : 3 G +.2.1.o.1 O O + a i.s i.y 5 9 + < + 9 e r r r r 9 u 3.4.5.` ; ; > P ^ @X=X-X%X^.^.2X2X<X<X<X",
"'.'.{.{.}.$X[.}.*X&XOX/ A C = - 3 G 2.0.u.2.7 ; . @ r p p s s u u 8 5 5 + 9 9 9 p p 9 r i ] ` 3 O O > F ^ @XXX-X*X5X^.1X2X1X<X<X",
"}.'.}.{.$X$X(.}.%X&X0X/ A : * - 3 1.u.fXgXaX1.1 # @ % t y i ` ` w.0.5.,.5 + 9 0 w p p r u u i 1 X o ; C W ( @X=X%X5X^.^.1X1X<X<X",
"'.'.}.`.}.$X}.}.%X;X0X/ C = X - 7 w.sXcXDXvX4.8 # @ % y 7 ,.2.u.iXfXaXy.,.q 0 0 0 p w r t u u 5 O o ; F J ( _.:X%X$X5X1X<X4X4X<X",
"}.`.`.`.}./.[.$X*X;XwX/ C = * - 7 y.fXcXDXvXy.z O @ # & z +.u.dXjXcXjXgXd.,.6 % 0 0 r r p u i 5 O O ; 3 H ( rX X%X7X$X(.[.5X~.~.",
"`.`.`.`.`.[.^.$X%X#XwX/ A : X - 7 4.j.vXvXfXy.7 # O # 7 <.u.gXjXMXNXcXgXT.<.6 @ + + 9 p d y i 5 O o - F J ( @XoX X%X[.1X1X4X`.`.",
"`.~.`.~.~.~.^.5X[.#X9X/ A : * X 5 ` s.d.iXs.,.6 $ # & z 6.gXjXNXMXjXjXdXt.<.z t + e + r u y y 5 O o ; 3 J -.rXoX-X{.[.1X[.^.`.~.",
"~.`.~.`.~.^.4X[.[.*X&X{ S = * - 5 i s 5.5.] i 6 % # & g t.gXjXjXjXdXu.$.@.o.o.,.s s u u y y y 6 O O 1 F J ( @X:X%X{.$X[.5X`.`.`.",
"<X4X~.{.}.^./.}.(.*X*X/ Z : X < 5 y s s M p.p.w 0 % & & z y.h.gXdX;...4 4 o.o.d.j.j.s.M s y y 5 # # 1 3 I ( .X;X*X$X$X^.[.`.{.`.",
"<X<X`.`.'.{.}.$X*X*XqX{ D = X < e d s i.i.p.w w q & & $ 6 z 6.t.2.o.2 2 4 o.7.fXZXDXCXj.a.3.y # O # 1 F ^ / 9X&X*X5X$X5X[.`.[.'.",
"~.~.`.[.}.[.}.^.7X*XqX/ Z = X @ e y i.p.i.i.w q q & & & $ j 2 j k 2 $ 2 o.7.fXDXPXIXIXGXlXa.6 # 6 1 3 F P ( wX*X*X$X5X7X`.`.`.}.",
"~.~.`.`.[.}.`.[.5X[.&X/ Z = X o r a p.p.a w q q n n g g f $ $ $ $ $ j l 8.gXxXJXIXUXUXIXDXk.i # 6 7 3 F ^ / OX:X$X(.7X[.6X`./.}.",
"~.<X`.`.`.[.`.`.[.}.&X/ Z : - < r a p.p.M w q n n n m f f f f f f f h J.R.xXJXKXLXIXUXIXDXk.7 5 z 1.L F ^ ( &X#X$X[.[.[.{.`.`.`.",
"`.`.`.[.[.[.`.^.%X$X&X/ S : X + r p i.i.a q n n m h B h h b b h h h b J.Q.mXKXKXKXPXIXKXSXk.M i d.u.9.^ ^ Q XX-X#X[.`.`.6X6X`.`.",
"5X4X~.~.~.`.`.^.7X7X&X/ Z = X X r w w w a n m m B B S.B.B.n.c.c.D.D.D.C.Y.Q.mXmXJXKXKXJXxXz.<.<.pXaXr.=.Q Q  X-X[.[.~.`.`.6X`.`.",
"4X4X`./.~.~.^.^.7X*XqX{ D = * < r 0 0 q n n m B S.S.B.B.C.C.B.V.V.N.B.B.Z.Y.Q.Q.!.!.mXR.W.<.M 4.pXaXyX-.( >X#X].{.[.`.`.`.'.6X`.",
"4X4X~.~.`.<X~.[.(.qXwX{ Z : < e u s % % n m N b S.B.V.V.V.H.H.H.F.G.V.V.Z.Z.K.K.K.K.K.L.J.M l o.0.-.-.( _.XX#X}.`.`.`.6X6X4X`.~.",
"`.~.~.4X<X4X^.^.(.*X9X{ Z , ,  .a.3.i & j x B m.B.V.V.G.G.G.F.F.F.G.F.F.F.A.A.Z.A.M.n.N N x l o.O.( -.( oX=X].}.`.`.5X6X4X`.`.`.",
"<X<X4X<X<X1X~.^..X*X9X/ S ,  .] s.s.z 2 j f b v.B.Z.G.F.F.F.F.F.H.H.G.F.F.A.N.N.A.n.m.v c z o.O.! ( @X_.=X].'.`.}.[.6X6X4X`.<X4X",
"4X<X<X<X4X~.^.^.(.3X9X{ Z V D  .r.w.L 2 l l h v.M.V.G.H.F.F.F.F.F.F.F.F.F.F.N.A.A.n.b.b X.@.%.%.eXeXXX_.|.'.}.'.`.`.5X4X<X~.<X4X",
"4X<X,X~.~.~.^.^.8XqX&X/ A Z : V K G G 4 l l c c.v.A.H.H.G.F.F.N.F.F.N.N.F.A.A.M.v.v.b.#.&.&.-.@X@XoX X|. X[.`.~.`.<X5X`.~.~.<X4X",
"1X,X~.~.~.^.^.^.8X*X&X9XT A V : V C F L @.$.c v b.M.Z.Z.V.N.M.M.N.D.M.A.Z.A.A.A.v.c.b.#.>.;.rXrX|. X X].6X'.`.~.~.`.<X<X~.~.<X4X",
"1X,X<X,X^.1X5X$X8X*X&X.X@X/ Y Z A A [ 9.=.6.#.v b.c.C.C.M.M.M.v.D.b.c.b.A.A.v.M.v.b.b.#.+.*.rXrX X|.{.'.6X`.<X<X~.~.<X~.<X<X<X<X",
",X<X1X<X1X5X1X[.%X#X#XXXwX.XQ Y Y W tXyX0.0.$.c c v n.n.m.b.b.b.v #.#.b.#.b.b.b.c.b.#.#.$.;.rXrXoX X'.}.'.`.`.`.~.`.[.4X4X<X<X<X",
"<X,X<X<X<X^.`.[.[.$X$X#X#X#X#X>X.X.X0XyXr.0.+.c c c v b.v b 8.I.>.>.>.#.#.#.v b.b.b.v #.X.&.%.rXoX X X'.'.'.'.`.'.{.`.[.<X<X,X,X",
",X,X<X<X~.~.^.`.[.{.{.$X$X*X$X*X&X&X0XtXyXr.+...l l c l l l $.t.>.;.;.>.@.@.#.c #.v c c X.&.%.%._._. X X'.'.'.'.`.'.{.[.[.1X,X,X",
"~.,X,X<X4X<X<X4X~.^.[.[.%X7X$X*X*X;XwX} q.[ O.4 4 j j j k ..:.t.rXyXyX;.:.&.X.#.c c c c X...J ) ! _. X X'.'.`.`.'.`.}.$X5X2X,X2X",
"<X<X<X<X<X<X<X<X~./.`.[.[.[.[.*X*X&X9X{ ~ L 3 4 2 2 2 2 4 O.=.rXyXrXyXeX;.:.+.@.l x l k k G J J ! _. X X'.'.`.`.[.[.$X^.(.2X3X2X",
"<X<X<X1X4X<X<X4X~.4X~.`.`.[.[.5X*X#X9X/ S > ; ; 1 1 1 3 G I -.-.rX+X:XeXeXeX=.+.k k j j 2 3 F H ! _.oX|.'.'.`.~.`.[.[.(.(.(.3X3X",
"<X,X<X<X<X<X<X4X<X4X<X4X1X[.5X{.*X.X/ S : * O O 1 1 1 3 P =.-.+XeXqX+X=XeXeX-.=.G 1 1 # # ; 3 F ! _.oX|.'.`.`.~.^.^.(.^.(.(.3X7X",
"<X<X1X5X1X<X<X<X<X~.<X4X~.4X4X[.#X.X~ C ; - O # 6 z ,.` I ^ ( tXtXqX:X+X:XeXq.^ 3 ; @ . o o ; C ^ ( 0X=X|.'.`.`.4X1X1X^.(.(.(.3X",
"1X<X<X<X<X<X,X<X<X<X<X<X4X4X1X{.#X/ A V - ; 1 6 M 4.s.1.L H ! ( tX@XOXXXtXtX} I > o . .     - C ^ } tXOX=X{.`.~.4X1X^.^.^.^.(.7X",
"<X<X,X<X<X,X<X,X<X<X4X<X4X4X4X$X.XY V = - ; i 3.f.j.k.w.L C A H H W W @X+X0X0XI > X . . .   X - K ~ } 0X:X%X`.~.<X1X1X5X5X5X4X5X",
"1X5X,X<X,X<X,X<X<X,X<X<X4X6X[.}./ A V = > ` 4.d.T.j.g.s.I F C A C A W Q ( 0X} [ , X   .       * D P ~ / OX#X[./.~.1X<X5X5X5X`.`.",
"<X1X<X<X,X,X<X,X<X,X<X4X4X[.{.}.T A : : _ s.j.sXj.k.s.r.r.9.F F H ^ ~ ~ / / { ~ > X     . .   X * : V Y Q .X$X^.~.<X1X4X4X4X4X`.",
"1X<X<X,X,X,X,X,X<X<X<X6X[.%X}.#XQ Z V V ' g.g.j.w.r.r.5.s.e.P H ^ [ ~ P Y R { ' > * o   . . .   X = : Z Y >X#X5X~.<X~.4X4X6X`.`.",
"2X1X1X<X,X,X,X,X<X~.^.[.{.].%X#XQ A V : ' r.5.1.K 3 K ' s.e.K K ' [ P S V Z R R V = X         o X * = V Z Q #X*X7X5X^.~.`.`.`.`.",
"1X,X,X,X,X<X,X<X1X<X[.[.%X%X%XXX/ Y V V  .' ' K ; : > K ' r.P K I I S V V Z R R D : * X - < X X X * = V Y / .X*X%X$X^.~.`.`.'.'.",
"1X,X,X,X,X,X<X,X1X~.^.{.%X;X;XXX.XW A C S K K K > > , K K K F > F K D Z Z R { { S C > : , , , , , , D V S / &XqX*X$X[.[.[.6X'.'.",
"<X1X1X,X,X,X,X,X1X~.{.[.%X*X;XXX( W H C F > > > K K 3 , C > F F 3 F V S S R { { { S D D _ _  . ._ _  .S ~ / 9X&X*X(.$X[.7X6X'.`."
};
