/* XPM */
static char *_77ba9e3a5fd4236f3b2aa55ae2bb11cBtsFFiKzK4NtBqBs[] = {
/* columns rows colors chars-per-pixel */
"64 64 253 2 ",
"   c #010C01",
".  c #050506",
"X  c #021300",
"o  c #021B00",
"O  c #0A1905",
"+  c #1D1C01",
"@  c #171603",
"#  c #1D161B",
"$  c #190F0F",
"%  c #251904",
"&  c #381803",
"*  c #231B16",
"=  c #301712",
"-  c #022301",
";  c #092802",
":  c #172604",
">  c #083802",
",  c #163706",
"<  c #183013",
"1  c #232302",
"2  c #282805",
"3  c #372704",
"4  c #263605",
"5  c #363509",
"6  c #262817",
"7  c #362B18",
"8  c #383716",
"9  c #293517",
"0  c #1E1623",
"q  c #231B27",
"w  c #3E1927",
"e  c #292429",
"r  c #332726",
"t  c #3A3627",
"y  c #2B2435",
"u  c #372938",
"i  c #393638",
"p  c #2C342C",
"a  c #451901",
"s  c #55171B",
"d  c #51160D",
"f  c #671A16",
"g  c #711A0B",
"h  c #482904",
"j  c #562906",
"k  c #583806",
"l  c #5A3C15",
"z  c #493411",
"x  c #692A07",
"c  c #782706",
"v  c #673506",
"b  c #763507",
"n  c #782717",
"m  c #6E3318",
"M  c #451D29",
"N  c #531D24",
"B  c #463A2A",
"V  c #443A36",
"C  c #4D2D33",
"Z  c #6E352A",
"A  c #094903",
"S  c #174705",
"D  c #0A5602",
"F  c #165508",
"G  c #1B4713",
"H  c #1D5814",
"J  c #2B470B",
"K  c #364608",
"L  c #25590A",
"P  c #365807",
"I  c #294815",
"U  c #374719",
"Y  c #275817",
"T  c #375815",
"R  c #1A6709",
"E  c #1A770B",
"W  c #1B6515",
"Q  c #0F680A",
"!  c #26680B",
"~  c #356809",
"^  c #257A0C",
"/  c #387908",
"(  c #286816",
")  c #366618",
"_  c #277819",
"`  c #387919",
"'  c #34512A",
"]  c #376726",
"[  c #2B7B25",
"{  c #377826",
"}  c #316B2A",
"|  c #484607",
" . c #564607",
".. c #485806",
"X. c #454618",
"o. c #564518",
"O. c #46571B",
"+. c #595815",
"@. c #545701",
"#. c #654608",
"$. c #654616",
"%. c #6B5312",
"&. c #49670B",
"*. c #48760A",
"=. c #466916",
"-. c #457717",
";. c #556B11",
":. c #69650E",
">. c #484729",
",. c #564A29",
"<. c #485528",
"1. c #575629",
"2. c #4A4739",
"3. c #575735",
"4. c #4E5335",
"5. c #6E542E",
"6. c #477926",
"7. c #476A36",
"8. c #59663A",
"9. c #4E7029",
"0. c #696539",
"q. c #706F31",
"w. c #3A3844",
"e. c #392F47",
"r. c #433A49",
"t. c #453852",
"y. c #3A4344",
"u. c #4F4C4C",
"i. c #6D594D",
"p. c #5D6842",
"a. c #55784B",
"s. c #696748",
"d. c #79765A",
"f. c #726E4D",
"g. c #585562",
"h. c #797868",
"j. c #766E6F",
"k. c #615B69",
"l. c #871E08",
"z. c #901D0E",
"x. c #AB1D04",
"c. c #8A2707",
"v. c #99270A",
"b. c #862616",
"n. c #992715",
"m. c #8F350D",
"M. c #A8280A",
"N. c #B7280C",
"B. c #A82814",
"V. c #B82914",
"C. c #AF3513",
"Z. c #AD2C22",
"A. c #8F2A23",
"S. c #C42A0B",
"D. c #C9250A",
"F. c #D52405",
"G. c #D32709",
"H. c #C82715",
"J. c #D22719",
"K. c #C8251B",
"L. c #8E6917",
"P. c #88542F",
"I. c #926F30",
"U. c #B17530",
"Y. c #925A19",
"T. c #C37E30",
"R. c #8D7450",
"E. c #A87C4D",
"W. c #8B7769",
"Q. c #8D6651",
"!. c #198B06",
"~. c #1D9E03",
"^. c #1D9D0A",
"/. c #189A04",
"(. c #1D9916",
"). c #1C8812",
"_. c #288B0B",
"`. c #388A0B",
"'. c #229D04",
"]. c #2A9B04",
"[. c #26950C",
"{. c #2B950C",
"}. c #249C0B",
"|. c #2A9B0C",
" X c #259505",
".X c #32940D",
"XX c #33970B",
"oX c #298817",
"OX c #378918",
"+X c #269514",
"@X c #2B9414",
"#X c #249C13",
"$X c #2A9B13",
"%X c #2C941B",
"&X c #2A9A1A",
"*X c #349413",
"=X c #34931C",
"-X c #389516",
";X c #16A302",
":X c #1CA202",
">X c #1EA109",
",X c #1CA801",
"<X c #1EA112",
"1X c #21A103",
"2X c #22A10A",
"3X c #26A40A",
"4X c #24A113",
"5X c #27A313",
"6X c #2B8825",
"7X c #388823",
"8X c #349426",
"9X c #309525",
"0X c #448719",
"qX c #418E13",
"wX c #448724",
"eX c #4C882B",
"rX c #778D2B",
"tX c #648115",
"yX c #72844E",
"uX c #74926B",
"iX c #A18F32",
"pX c #C68530",
"aX c #8E8D52",
"sX c #AC9356",
"dX c #B0A856",
"fX c #8E8D71",
"gX c #A6867A",
"hX c #B09070",
"jX c #B5AC69",
"kX c #88A17A",
"lX c #C8B26F",
"zX c #C09666",
"xX c #C7C175",
"cX c #7B7884",
"vX c #827C87",
"bX c #88878B",
"nX c #998988",
"mX c #9B9397",
"MX c #918994",
"NX c #A6989B",
"BX c #AA9089",
"VX c #B4B393",
"CX c #9C98A4",
"ZX c #A49CA5",
"AX c #A6A1AA",
"SX c #AFB7A2",
"DX c #99A884",
"FX c #C9B49C",
"GX c #D0CCAF",
"HX c #DDCEAF",
"JX c #F3EDD5",
"KX c #FCFAE6",
"LX c #DCDBC5",
/* pixels */
";X;X~.;X~.~.1X}.].{.[._._._.oX_._.!.!.!.!.!.!.!.!.!.oX6X[ { { { [ [ [ [ 6X6X9X9X@X}.|. X}.|. X].].~.'.~.;X;X;X:X;X:X~.~.}.}.|.}.",
";X;X;X:X:X'.'.}.}.|.{.{.@X_.oX`._. X X X!.!.!.^.!.oXoX7X7X{ } [ [ } W [ [ 6X9X6X@X{.{. X|.|.].1X'.'.'./.~.;X:X:X:X~.~.'.}.3X[. X",
":X;X~.~.:X:X1X}.].|.}.{.{.*X_.@X{. X{.|.[.#X$X$XoXOX7X{ { 6.} Y G A A D W W 6X6XOX_._._.XXXXXXXX X'.'.~./.;X;X:X;X~.'.'.3X}.#X}.",
":X:X:X;X~.1X1X1X}.'.}.|.|.|.@X{.{. X$X{.$X-X=XwXOX` -.{ ] ] Y ' ' } } ' W W W W ^ ^ / `..X-X-XXX].]. X'.~.~.:X,X1X~.~.'.}.}.}.'.",
"2X:X:X:X~.:X:X:X1X1X'.}.}.}.|.5X|. X{.{.*XqXqX0X-.-.=.T K J I 7.eXuXuXuXa.Y S S ! ~ / `.`.`.`.`.].].].].2X:X:X>X>X}.~.~.}.3X'.'.",
"2X2X^.:X:X:X:X:X:X:X1X1X2X}.}.3X3X|.{._.`.0X0X*.;.&...P 5 4 z 8.bXVXSXVXh.' 4 S ;.-.*.*.*./ `.`..X.X|.].}.~.>X>X:X:X^.}.1X}.}./.",
"^.}.~.:X~.:X:X,X:X:X:X:X1X:X'.1X3X|.@X*XOX*.*.&.:.:.:.%. .h  .0.DXSXVXkXf.O.K | ;.rXrXtX*.*.qXqX`.].XX].|.'.^.}.2X>X~.>X}.^.~.~.",
"}.^.^.~.:X:X:X:X;X,X:X;X:X:X:X>X5X5X*X`.0X*.@.:.:.L.L.L.#.#.#.q.aXhXfXR.0.5.1.:.aXdXiXrXtX*.*.*.`.`.XXXX|.}.~.~.2X>X>X^.1X'.'./.",
"}.^.}.'.:X,X:X,X,X;X;X:X,X:X:X>X^.[.=XOX/ &.;.:.L.L.pXT.L.L.Y.%.5.,.o.o.$.5.5.I.sXsXdXdXiXeXqX/ / `..X{.{.}.~.^.>X:X~.2X2X2X1X^.",
"#X}.}.2X:X:X:X:X;X:X:X,X:X>X^.^.[.%XOX` P ..:.L.iXpXpXT.pXU.Y.m.l h & h l 5.E.sXsXdXlXdXdXrX*.*.^ `.`.*X{.[. X'.2X~.~.>X:X^.^.:X",
"}.}.}.~.:X;X;X:X;X;X:X,X2X2X}.#X&X%X7X~ J K %.I.T.pXT.T.pXpXU.I.P.l h h m P.E.E.zXzXlXxXjXaX;.P ~ `.OX-X*X|.'.'.~.:X2X~.:X2X:X^.",
"#X}.}.2X~.:X:X;X;X:X:X>X2X#X#X&X%X7X{ ! , 5 #.L.U.T.T.T.T.pXT.E.R.5.$.l 5.Q.E.zXpXzXlXlXhXrX=.P ~ ` OX-X=X{.].'.1X1X:X1X'.~.2X~.",
"}.}.'.~.:X:X;X:X:X~.~.^.#X$X+X%X7X7X{ I 4 3 $.P.U.T.U.Y.T.U.E.E.hXE.R.Q.R.fXzXhXzXhXhXE.R.s.O.T ( ` 7X-X-X@X|.1X1X1X1X~.:X>X:X^.",
"}.}.'.~.:X:X1X;X:X~.^.}.$X+X%XoX[ ` T J : 3 l P.I.U.Y.A.P.Q.E.E.hXBXgXgXgXgXBXBXBXE.Q.Q.3.X.I I ) ` wX7X-X|.}.1X1X1X:X:X:X}.~.^.",
"'.[.'.'.1X:X:X:X:X}.}.+X&X%XoX6X( Y J , + & N $.P.P.m.Z Z.Q.zXBXBXBXBXBXgXW.BXE.BXW.Q.Z 7 1 : , Y _ 7XOX=X{.].'.1X1X'.:X1X^.2X}.",
"~.~.~.}.1X1X1X1X:X2X}.+X+XoX^ _ ( I S : @ % z N n Z m 5.Q.Q.BXBXNXNXNXBXnXnXvXBXvXE.Q.C 7 : O : S Y ` ` OX_. X].'.1X:X1X~.1X~.>X",
"~.~.~.~.:X:X:X:X:X1X}.{._.^ R ! F T I U 1 % $ d M Z i.W.vXvXNXAXAXNXmXDXmXnXnXmXmXfXj.i.2.8 9 : ; S L ( OX=X@X{.$X2X~.~.1X3X1X~.",
"'.~.~.~.:X:X:X:X1X1X3X{._.^ R L L T I 8 1 % $ = N k.W.vXNXNXAXAXZXAXCXZXNXNXNXmXmXnXbXh.f.8.4.U , > S ! ` 8XoX+X$X4X^.~.:X'.'.'.",
":X:X~.~.:X:X:X:X1X1X5XXXOXOX~ Y J J 4 4 1 % = C i.Q.vXAXAXAXAXAXAXZXZXZXAXNXCXmXnXMXnXfXfXuXyXp.J > S F ` 7XoX+X+X$X4X^.~.~.~.1X",
"1X1X~.:X1X1X1X1X1X1XXX-X-X` ` T I J : : 5 B C 3.k.W.NXZXNXZXAXAXAXAXZXZXAXAXCXCXmXnXbXbXfXfXuXyX9.T P L ( ` oXoX+X$X4X^.^.~.1X1X",
"1X1X1X1X'.1X'.'.].]..XOX0X` ) T 4 , : 4 1.0.i.i.k.j.vXvXvXMXMXMXCXCXCXCXCXAXAXCXmXMXbXfXh.d.a.q.q.eX6.) F R ^ oX%X&X#X}.}.2X>X2X",
"1X1X1X'.'.'.'.'.].XX`.`.` ) T T 4 : 2 X.d.fXh.s.u.u.k.k.cXcXcXcXbXbXcXcXcXcXbXbXcXj.h.h.s.8.1.8.uXaXyX=.S S ( 7X9X9X&X(.4X3X2X:X",
"1X].'.'.}.1X].]. X`.`./ ~ T K 4 1 1 2 o.aXfXW.s.i i e.y.g.g.g.g.g.g.g.g.g.g.g.g.u.u.y.u.4.>.U 1.aXaXyX=.S A ! _ 6X9X%X(.4X2X:X:X",
"'.1X1X'.}.|.].|.{.*X/ ~ P K 4 2 + % 7 4.R.fXd.u.p y e.e.e.e.u V i e.u.y.w.w.y p e p p 9 8 5 2 X.yXyXeXO.J > H ( 6X6X%X#X#X>X:X3X",
"'.'.1X'.}.}.[.$X.X`.` ~ J 4 2 + % 6 7 ,.i.f.i.2.i u y y y y q q e y i u e.y q q * # 6 + % 1 1 5 1.1.<.I , ; A D ( _ %X&X}.2X:X1X",
"'.~.~.~.^.^.|.@X-XOX-.P J 4 : + % = 7 B 3.u.2.2.i u y y q 0 # # q q u i i u q 6 * * 6 1 2 % % 5 X.1.<.U < - - > D _ 6X&X5X'.,X1X",
"~.~.~.~.^.^.[.{.-XOX-.T J 2 @ $ $ = B B B ' i i V w.w.y y 0 0 0 $ q q u i i p r 7 8 2.>.>.o.5 z 1.0.3.4.9 - - > A W 6X9X#X'.>X:X",
":X:X^.;X^.^.[.@X-X0X-.) 5 % % @ * r V V 2.t i u.u.r.r.w.e.u q 0 0 # q u V V t B B 1.s.d.d.0.,.>.3.0.0.4.9 O - ; A H oX%X$X}.~.~.",
":X,X;X;X;X(.^.@XOX0X-.T 5 2 @ @ % e i V w.' y.y.w.r.r.r.r.r.y 0 0 0 0 q r B B 3.s.yXaXjXjXaXR.q.0.1.>.B 9 : O - A W [ 6X@X$X^.^.",
";X;X,X,X;X;X^.+X`.OX-.T J 2 @ @ % e i ' y.r.y.w.w.u.r.t.r.t.e.y y q 0 # * 7 >.5.R.sXlXlXjXaXaXq.1.>.8 6 6 O o - G H [ 8X%X#X4X^.",
";X;X;X;X;X;X^.[.-X0X-.=.J 2 + @ $ e p y.y.y.y.y.w.y.r.r.t.t.t.e.e.y q $ $ 7 z 1.aXjXlXxXjXsXq.1.z 2 + @ O O X - > H [ 8X9X&X#X(.",
";X;X;X;X;X<X^.^.*XOX-.) K 4 + @ @ < p p y.y.y.w.w.r.r.r.r.r.t.t.e.u y * % % 3 o.rXsXjXjXaXrX1.| 5 1 + + # < O - < W 6X8X9X&X(.(.",
"/.;X;X:X,X^.}. X.XOX` ~ J 4 @ @ @ $ p p u e.e.e.e.e.u u u u C e.u M w = = & & h o.5.q.I.q.8.X.z 2 5 8 >.4.<.: ; S H [ 6X9X(.(.(.",
";X:X;X:X>X:X'.].XX`.` ) P J : @ @ < 6 p i t.e.e.u w w w M M w w M M w s = a a & a j o.o.o.X.8 z 8 ,.0.W.fXuX8.U Y Y [ 6X6X(.(.(.",
":X:X:X:X:X'.'.{.$X-XOX` ) I 4 : 2 6 7 r i i t.M M M M s N N N s N s s s d d a a a a a a 3 h z o.3.d.fXVXGXSXDXuXa.} W Q ).(.(.9X",
"1X1X'.~.~.'.'.].XX-X0X{ =.=.J 5 t ' 2.V r.C C N s s N f f f f f f f f f g g d g d d & & a h ,.0.R.hXVXHXJXJXLXSXyX} A D E (.<X<X",
"'.'.~.'.:X'.'. XXX*XqXwX6.=.U U 3.i.W.j.k.N N N s f f A.A.n b.b.n l.l.l.b.b.b.n f d d a j o.Q.aXhXVXHXLXJXKXJXGXuX7.F D E ).(.(.",
"1X'.'.~.'.~.'.'.|..X-XwXeX=.O.X.s.d.gXW.Q.N f f f z.A.Z.B.n.n.B.v.v.n.v.n.B.n.A.b.g g d x m Q.gXjXGXHXJXJXKXKXLXDX7.A D E (.#X<X",
"].'.~.'.'.'.'.'.|.|.-XqXeX=.P K ,.s.Q.Q.Z Z f b.A.Z.Z.Z.C.N.N.N.N.N.N.M.V.B.B.B.n.z.g g x Z P.E.jXFXHXHXJXJXKXLXkX7.F A E ).<X5X",
"~.'.'.~.1X1X~.~.1X|.-XqXwX-.P | o.5.5.Z n b.z.z.B.Z.K.K.S.S.S.S.S.S.D.N.D.V.V.V.x.v.z.g x m 5.P.W.hXhXFXFXGXGXAXuX} F D E [.(.>X",
"'.'.'.1X1X1X:X:X~.].@X-X0X=.P K h k x x l.z.B.V.K.K.K.H.H.D.G.G.G.G.G.G.F.G.G.D.V.V.z.z.c n m Z 5.5.5.i.j.W.h.h.a.' Y E _ ).^./.",
":X:X~.1X:X:X:X;X~.3X|.*X0X*.P | j j x c.c.B.K.K.K.J.J.J.G.G.G.G.F.F.G.G.F.F.F.G.D.V.V.v.b.c x x f j l z M V ' ' ' ] } [ oX$X^.^.",
"1X:X1X:X1X:X:X;X~.}.XX`.0X*...| j x c.v.B.H.K.K.J.J.J.J.H.D.F.F.F.F.F.F.F.F.F.F.G.G.V.V.n.b.n j h h & % @ @ O : I Y [ 7X9X&X(.<X",
":X:X:X:X:X;X;X;X~.3X|.*X0X&...| v m.m.C.V.H.K.J.D.J.J.H.H.G.G.J.G.D.D.F.F.F.F.F.G.H.H.B.n.b.n x h & % + @ X X - < W { 8X9X&X4X<X",
":X:X:X:X:X;X~./.^.3X.X`.0X*.@. .#.m.C.C.S.D.H.H.D.V.H.V.N.N.N.S.S.H.D.D.D.D.D.D.D.S.N.M.m.b.x v h 5 3 2 : o - > A R _ =X$X$X(.<X",
";X;X:X:X;X:X/.;X1X3X.X`.*.&.@. .b m.m.C.N.S.D.D.N.N.B.B.M.M.M.M.N.M.x.N.V.S.S.N.x.N.M.M.c.b v k  .5 K 4 > ; > A F ! oXoX#X#X(.^.",
",X:X:X1X:X:X:X;X2X|.`.qX*.;.@. .b m.m.C.N.N.x.x.M.M.v.c.c.v.c.c.c.v.z.v.B.C.V.N.x.x.z.c.b x k k | | J 4 > > A D R ^ oX*X$X#X^.^.",
":X:X:X1X2X:X>X:X1X].XXqX*.;.@. .v m.m.C.C.M.N.B.v.c.c.c b b b b c c l.c.v.n.B.M.v.z.l.c c k k | O.T P F A D F Q E _.*X&X#X#X^.^.",
"'.'.'.'.1X>X>X>X^.}..X`.-.&...| v m.m.Y.B.v.v.v.m.b #.#. .#.#.$.$.v x x b b.n.n.l.l.g x v k +...-.` ( ! R Q E oXoXoX@X{.$X3X~.^.",
"].].'.].}.:X>X>X^.[..XOX-.*.....#.b m.m.m.m.m.c v v %.%.+.:.:.:.%.#. .k b b m.m.c.c x v  .+.=.=.-.OX_ ^ E ).oX&X+X+X{.|.|.}.1X~.",
"].].].'.~.:X:X:X^.}..X-X0X-.&.&.o.#.m b c g c x v $.:.q.q.9.;.q.;.+.@.k k k x n x x m l +.+.;.eXwX8X=XoX%X+X&X&X@X$X|.|.}.}.'.~.",
"].].'.'.~.~.:X:X~.}.{.-XqX0X-.=.O. . .k j j j j | | O.9.eXtXeXeX-.;.....| h h h s j z o.+.9.9.wXOX-X%X@X#X#X#X#X}.}.}.}.'.1X'.1X",
"].1X'.'.~.:X1X:X1X].XX*XqXqXeX-.T K 5 3 3 h h 3 5 5 J ~ ` ` -.OX0X*.*.~ K 4 3 3 & 3 7 8 U ) 6.wXOX%X+X#X#X^./.^.'.1X1X1X1X1X1X'.",
"'.'.'.'.:X1X:X1X1X1X3X{.-XwXwX0X) T 4 1 % % 3 3 2 4 , S ( ` 7XOXqXqX/ ~ L 4 : @ @ + + 4 J ) ` wX=X%X$X(.<X<X;X;X;X:X1X1X1X'.1X1X",
"'.~.'.:X:X:X1X:X:X1X}.{.-X-XwXwX] T J 4 % % % % 2 : ; > L _ { OXXXqX`./ L , ; O   O O @ , I ) { OX=X@X$X4X>X;X;X;X:X:X1X~.1X'.1X",
"~.:X:X:X~.:X:X1X1X1X]. X@X-X8X7X6.] I J 2 2 2 1 @ ; ; > H ( { 7XqXqXOX` ( S ; o       X : , ) { 7X8X%X$X4X>X/.;X,X1X1X:X~.'.1X1X",
">X>X:X:X~./././.2X}.}.$XoX8XeX8X{ ) U U 4.4.B 7 + @ - ; , F ( { OXqX8XwX} Y < ; O O . X O < G Y { 7X7X%X&X4X>X:X,X1X~.~.1X:X~.1X",
",X>X:X>X~.~.~.~.}.|.@X+X_.oX7X{ T L J <.8.f.s.2.t 9 : : > > G ( OXwXeX7X{ } G < O O X   O - < G Y ( _ oX%X&X#X:X1X1X~.~.1X1X:X>X",
";X;X/.~.}.2X#X#X#X_.oX^ E R R F S S 4 T s.d.uXf.i.>.6 ; - ; S H ` wXeXeX} ' ' < O O       X o ; A F ( _ %X%X$X[.3X2X'.~.2X2X>X>X",
";X/.~.^.}.5X$X&X+XoXE E R F A S J J J <.8.d.W.fXW.s.>.4 : ; , G ] 6.{ } } H < ; O .         X o ; , Y Y _ oXoX#X|.[.'.'.2X3X>X^.",
":X~.}.}.$X&X%XoX^ E R ( ) ) L I T <.a.8.8.p.f.R.fXW.d.3.9 : , I 6.7.] Y G > - O . . .       X o ; , G H ( E _ =X@X{. X X}.3X'.~.",
"1X3X}.}.$X&XoXoXR D R ( ] 7.' I <.8.f.a.3.>.4.3.s.f.R.0.U 2 4 I 7.7.T , < O X . . . . .       X : , < A A Q _ oX=X{. X X|.3X}.~.",
"'.'.}.[.%X=XoX_ D A S L 7.7.U U ' 3.8.3.X.7 8 z ,.3.s.1.8 2 5 U 3.<.I : O     . . . . .       X ; < , > > D W OXOX*X{.{.3X}.'.~.",
"'.'.|.$X=X8XoXE D A > J 7.8.' 8 >.4.3.1.8 2 % 3 h z 5.,.8 2 9 U 7.<.9 O X     . . $ . . .     X < < ; - > A R oX=X*X.XXX|.|.].'."
};
