/* XPM */
static char *e791bb9fd3744b17c0866c282b7256beSPzzWCzHRFDIdQUq[] = {
/* columns rows colors chars-per-pixel */
"64 64 256 2 ",
"   c #3B3900",
".  c #3C2B01",
"X  c #173739",
"o  c #0E3435",
"O  c #263A34",
"+  c #4C1D03",
"@  c #551902",
"#  c #5B170D",
"$  c #690B05",
"%  c #780608",
"&  c #771719",
"*  c #71120B",
"=  c #462801",
"-  c #473502",
";  c #54320D",
":  c #6B2E0F",
">  c #692D28",
",  c #602D21",
"<  c #19571E",
"1  c #3C4902",
"2  c #3C5806",
"3  c #20551D",
"4  c #1A6C11",
"5  c #35740F",
"6  c #164939",
"7  c #18573A",
"8  c #124D2F",
"9  c #2E5038",
"0  c #1B6538",
"q  c #196F2F",
"w  c #236827",
"e  c #277929",
"r  c #256838",
"t  c #267836",
"y  c #367A37",
"u  c #376F32",
"i  c #474908",
"p  c #455A07",
"a  c #525113",
"s  c #664E11",
"d  c #436A0B",
"f  c #47790D",
"g  c #496916",
"h  c #56681A",
"j  c #497817",
"k  c #56791A",
"l  c #536E0C",
"z  c #54502E",
"x  c #587625",
"c  c #536E31",
"v  c #687531",
"b  c #65552C",
"n  c #0C384B",
"m  c #163748",
"M  c #153857",
"N  c #142F54",
"B  c #283850",
"V  c #183868",
"C  c #1D3D70",
"Z  c #273668",
"A  c #283978",
"S  c #323D79",
"D  c #2F396B",
"F  c #164946",
"G  c #185549",
"H  c #165857",
"J  c #0F4C52",
"K  c #304D4E",
"L  c #196753",
"P  c #1A6C49",
"I  c #256444",
"U  c #247946",
"Y  c #317149",
"T  c #0B4B68",
"R  c #154869",
"E  c #144677",
"W  c #0D4E6C",
"Q  c #384679",
"!  c #2D446E",
"~  c #485852",
"^  c #754845",
"/  c #506D4A",
"(  c #6D774F",
")  c #4B576F",
"_  c #566770",
"`  c #677570",
"'  c #810818",
"]  c #92776E",
"[  c #1D9E04",
"{  c #1D9E0B",
"}  c #179E05",
"|  c #1C9C12",
" . c #1E880A",
".. c #3A8A0B",
"X. c #239D04",
"o. c #299C04",
"O. c #24950C",
"+. c #2C950B",
"@. c #239C0B",
"#. c #2A9B0B",
"$. c #2B9603",
"%. c #32940D",
"&. c #329707",
"*. c #28891A",
"=. c #3A8B16",
"-. c #2A9614",
";. c #249C13",
":. c #2A9A13",
">. c #2C951C",
",. c #249A1B",
"<. c #2A9B1B",
"1. c #269416",
"2. c #349414",
"3. c #389318",
"4. c #20880F",
"5. c #17A204",
"6. c #1CA203",
"7. c #1CA10A",
"8. c #16A507",
"9. c #1DA213",
"0. c #21A103",
"q. c #22A10A",
"w. c #29A104",
"e. c #25A113",
"r. c #2C8C2C",
"t. c #298728",
"y. c #378B26",
"u. c #2C9424",
"i. c #2A932B",
"p. c #299924",
"a. c #359424",
"s. c #2A8736",
"d. c #368A34",
"f. c #2D9235",
"g. c #1C8028",
"h. c #468715",
"j. c #488813",
"k. c #478929",
"l. c #568426",
"z. c #498937",
"x. c #509133",
"c. c #698738",
"v. c #778836",
"b. c #738930",
"n. c #2C8544",
"m. c #588647",
"M. c #548D47",
"N. c #668956",
"B. c #6F8B4F",
"V. c #768D6F",
"C. c #70A556",
"Z. c #8D9236",
"A. c #A2A13D",
"S. c #A39E3D",
"D. c #8C924B",
"F. c #A49D44",
"G. c #98A34F",
"H. c #A9A848",
"J. c #B7B65C",
"K. c #AEAF58",
"L. c #879668",
"P. c #8E986F",
"I. c #99A377",
"U. c #8EAA6C",
"Y. c #B9BA65",
"T. c #ACAF6D",
"R. c #A09F66",
"E. c #B8C05A",
"W. c #B7C56B",
"Q. c #CACF72",
"!. c #DEE37C",
"~. c #C0BF6F",
"^. c #1F3890",
"/. c #273A86",
"(. c #273B97",
"). c #323E8C",
"_. c #1D3DB9",
"`. c #1F3CA7",
"'. c #273CA8",
"]. c #253DB4",
"[. c #283CB9",
"{. c #313EA4",
"}. c #174688",
"|. c #194698",
" X c #0C4785",
".X c #28428A",
"XX c #38468A",
"oX c #2A4498",
"OX c #374798",
"+X c #3F5297",
"@X c #1C47A8",
"#X c #1E42B7",
"$X c #2243AC",
"%X c #2645A6",
"&X c #2343B4",
"*X c #2542BD",
"=X c #2946B8",
"-X c #354BA7",
";X c #48568B",
":X c #475797",
">X c #4A548A",
",X c #596698",
"<X c #55658D",
"1X c #68758E",
"2X c #4956A8",
"3X c #5766A5",
"4X c #6A75AD",
"5X c #2C3CC1",
"6X c #1E40C2",
"7X c #2945C3",
"8X c #334AC4",
"9X c #3858C7",
"0X c #3554CE",
"qX c #3B60CB",
"wX c #415ED2",
"eX c #4161D1",
"rX c #7279C7",
"tX c #7A8992",
"yX c #7484B7",
"uX c #7B8AC3",
"iX c #88948D",
"pX c #99AA8D",
"aX c #B1B190",
"sX c #8993B2",
"dX c #99A6B4",
"fX c #ACB8AB",
"gX c #A59F85",
"hX c #B1C594",
"jX c #B9CBAF",
"kX c #9EC18B",
"lX c #D4D985",
"zX c #C9D190",
"xX c #DBE697",
"cX c #D7E180",
"vX c #CCD0B1",
"bX c #DBE5A9",
"nX c #E7EEB8",
"mX c #E1E4AE",
"MX c #929AD1",
"NX c #9CA7D1",
"BX c #B0BBE8",
"VX c #A8B3D9",
"CX c #B9C5D0",
"ZX c #B4C3E9",
"AX c #CFD5CC",
"SX c #D8E3D3",
"DX c #ECEED3",
"FX c #CBD4F3",
"GX c #DAE4FD",
"HX c #DAE6E4",
"JX c #F7FCE8",
"KX c #E9F3FC",
"LX c #F6FBFA",
"PX c #E7EFF5",
"IX c #E0D2C9",
"UX c #C2A9A5",
/* pixels */
"X.@.X.X.X.6.6.0.6.[ X.0.w.w.o.o.o.X.X.X.[ [ 6.0.6.[ [ O.O.1.:.<.2.:.-.+.:.:.o.o.X.X.w.w.0.0.6.{ { 9.@.{ { @.{ { 6.0.0.6.0.6.[ [ ",
"@.X.X.@.X.[ 0.0.[ X.0.X.X.w.o.o.o.X.X.X.X.[ X.6.0.X.O.O.1.-.>.>.p.-.1.1.:.#.+.X.o.X.X.X.X.6.X.7.{ | { | @.{ { X.[ X.0.0.0.6.6.[ ",
"@.X.@.[ [ [ [ 6.6.[ X.0.0.w.0.X.X.X.X.X.[ X.[ [ 0.@.;.:.p.u.g.p.a.u.u.u.>.3.:.:.#.X.X.[ X.[ q.q.{ { { { { [ [ [ X.0.X.6.X.6.[ [ ",
"[ { { [ [ 6.[ [ [ 6.6.X.X.w.X.X.[ X.6.0.0.6.[ X.@.1.,.p.p.p.g.g.t.s.t.t.r.u.p.:.:.+.X.X.X.0.q.q.X.6.[ @.X.{ [ [ [ X.[ X.0.0.0.0.",
"{ { [ [ 6.} 6.6.0.6.6.0.6.0.7.0.} { @.0.7.q.{ ;.,.<.p.i.g.g.q q q q q t s.r.i.1.| 1.O.@.X.@.X.[ [ 0.X.[ [ 6.6.X.6.X.0.X.X.q.X.q.",
"7.6.} [ } 6.5.6.6.0.6.0.q.7.7.{ { { 7.{ @.@.;.,.<.i.s.s.U q q q 8 7 0 0 r t s.s.p.p.,.<.;.X.[ [ X.6.6.X.6.X.@.0.X.{ [ X.[ X.X.@.",
"8.} 7.5.6.6.6.6.0.6.0.7.7.@.7.} { { | | ;.;.,.p.i.s.g.t P P J J J J J J P P U s.f.f.p.p.:.;.@.X.X.X.[ [ X.0.0.6.7.7.[ { @.[ X.@.",
"8.5.5.5.6.6.6.6.6.0.6.0.7.{ { { | | | | ,.p.p.s.s.U P L H J J T T T T J J L P P n.n.f.i.,.;.@.+.X.[ X.[ 6.6.6.[ 6.@.{ [ { @.6.X.",
"8.8.6.5.6.6.6.0.0.6.6.{ @.{ ;.| ;.,.,.p.i.f.s.s.U P H L T W E E |.}. XE T T L L P n.n.f.i.p.,.#.+.X.X.[ 0.0.0.7.7.{ } { } { X.0.",
"6.8.5.5.6.6.6.6.0.0.q.@.;.;.,.,.p.p.i.i.f.s.n.P P H H W E }.|.|.@XoX|.}. XW T H L P n.n.f.i.p.>.-.1.O.@.@.{ 7.} { 7.{ { { } X.X.",
"6.6.6.5.6.5.6.0.0.w.@.:.-.>.u.u.f.f.n.f.n.U L L J W E }.}.|.%X'.$X&X%X|.|. XW T W L L n.n.s.d.a.u.>.3.:.;.@.;.7.7.| { { } [ 0.0.",
"6.6.6.6.6.6.6.6.0.X.;.-.>.a.r.r.z.n.n.Y U L H H W E }.|.%X$X'.].=X=X&X$X@X X X XW W W L Y n.n.d.d.y.u.*.1.;.@.{ 9.{ { } [ [ X.0.",
"0.6.6.6.[ 6.[ X.@.#.-.2.t.*.e y y Y Y Y L H R R E }.@X$X=X=X[.[.[.].[.'.@X@X|. X XW W H L L Y y y t.e *.1.| 1.| q.| { { [ X.0.0.",
"q.6.0.6.6.X.0.X.#.:.*.*.e e w w r r I H H R E E |.|.$X&X5X[.[.[.[.[.[.'.$X@X@X@X@X XE W H H K I r w w e 4 4.O.O.;.7.@.@.X.X.w.0.",
"{ [ 6.@.[ 6.q.@.:.1.*.e w w 4 3 9 6 F F R ! }.^.@X$X&X[.[.5X5X[.[.[.'.].&X#X@X@X@X|. XE ! F F 6 8 < < 4 4  . .O.;.@.@.q.0.w.w.w.",
"@.@.[ [ X.6.@.#.-.-.=.*.w 3 3 3 6 X m M R E }.|.$X&X*X7X5X5X5X[.{.[.[.].].#X#X#X@X@X@X}.C M m o o 3 < < 4 5 4.O.;.@.@.w.w.w.w.w.",
"[ [ [ [ @.@.@.;.>.3.y.y.u u u 9 9 B B N C }.oX`.#X#X#X*X7X5X5X5X[.].[.5X[._.#X].[.].{.(.A Z B O O 9 3 u u 3.3.:.:.:.#.#.#.o.o.X.",
"[ [ [ { { q.@.#.>.3.y.k.z./ / / ~ ~ B V A .XoX@X@X_._.[.5X7X8X[.=X[.5X5X7X7X_._.].[.'.{./.D B B ~ / / c k.k.h.3.+.+.@.+.#.o.o.o.",
"@.@.7.0.0.0.X.@.+.2.a.k.m.m.N.` ` _ ! D ! .XoX@X#X_._.#X*X8X8X8X8X8X0X7X7X7X6X_._.[.[.{.).S ) ) ` N.N.m.x.k.h.2.+.$.O.+.o.w.X.o.",
"X.[ X.6.6.[ [ X.+.2.a.k.x.N.N.V.tX` _ ) XXoX%X&X#X_._.#X*X8X9X9XwXwX0X0X7X6X6X_.[.[.{.{.{.>X>X1XtXV.V.M.x.k.3.%.+.+.+.@.o.w.X.w.",
"[ [ 5.6.6.6.0.X.+.3.a.x.M.N.V.P.tXtXtX<X3X+X@X=X6X6X#X#X=X8X-XwXwXwXwX9X0X6X#X#X].].'.{.:X3X1XtXiXtXV.N.M.y.h.2.+.+.+.X.X.X.X.o.",
"} } } 6.6.0.0.w.:.3.k.z.z.( N.V.V.tXtXyX3X-X@X#X6X6X6X6X*X8X9XwXwXwXwX0X7X#X#X_.[.[.{.2X3X3X4XtXtXV.V.M.z.k.y.3.2.#.#.X.X.[ [ [ ",
"[ } 5.5.6.0.0.q.+.>.y.d.u / ~ ` V.1XtX<X3X+X-X@X#X6X6X6X*X8X8X9XqXqX9X0X7X#X#X].=X=X{.OX:X3X,X1X1X_ _ / u u y.y.<.:.e.@.{ [ [ q.",
"5.5.5.6.6.0.q.#.*.y.u u 9 K ~ ) ) _ <X:X+XOX%X#X#X#X6X6X6X=X9X9X9X9X9X9X=X&X_.'.%X%XoXOX;X;X>X>X_ ) Y K I r y y.a.<.<.;.{ 7.7.q.",
"6.6.6.6.[ 6.;.,.*.e r r F K K ~ Q D S S A A ^.`.`._._.[.5X7X0X9X=XqX=X=X=X=X#X@X$XoX^./.A A D Q Q ! ! F G 7 q q t.u.,.| | | 9.9.",
"8.8.6.5.[ { 1.*.e q 9 G F K D D D D A D A /.^.^.`.`._.[.[.5X8X8X=X@X&X&X@X@X&X$XoXoX(.A A A S ).S A D ! F J 0 q e g.p.,.| | 9.9.",
"8.8.5.5.{ ;.1.t.e r 7 F B Z D S S /.).>X+X+X+X+X(.(.`.'.[.[.[.[.=X=X=X$X'.@X@X(.oX.XoXOXXX:XOX)..X/.A E ! J J 8 q g.,.,.9.| 9.| ",
"8.6.5.6.@.1.u.s.r 7 F R R A .X.X).>X,X4XyXyX4X3XOX).(.(.'.'.'.'.@X|.oX%X%X^.(.(.oX:X3X4XyX4X4X2XOX(.(./.! R J 8 q q i.p.,.| | | ",
"8.8.8.{ :.p.r.s.r G n M E /..X.X).3XuXBXBXBXNXyX3X:X).).{.{.(.(.^.^.(.(.oX(..XXX,X4XMXVXBXBXMXrX2X).(./..XV n 6 0 e r.u.p.,.9.| ",
"8.7.7.{ <.u.d.s.I G J M A }..X.X:X4XNXFXGXFXFXVXsX4X>X).A /./.).^./.A /.A Q ;X,X4XsXCXFXGXFXBXMX2X{.).(.A C n 8 7 t d.u.,.,.| 9.",
"8.8.| | <.u.d.U I K M V E .X.X.X:XyXBXGXGXKXGXFXBXMX4X>XD Z /.OX).A Z Z Z D <XsXNXFXHXKXKXGXFXMX3X-X(..X.XR n F 0 t d.u.-.1.<.;.",
"8.8.} { :.u.s.y I G M V A .X/..X:XyXZXGXKXKXKXKXGXCXtX>XD Z S >X,X>X) B B D 1XdXAXPXPXLXLXKXFXNX4XOX)././.R n F G t t.>.*.O.@.;.",
"8.6.6.{ e.a.d.t 0 F n n V V A ).>XsXBXGXLXLXLXLXKXAXiX) K K tXyXdXdXtX<XK B ` fXSXLXJXLXLXKXFXMX,X).S S V V n F 0 q d.a.>.O.O.O.",
"8.6.8.q.<.a.i.y 0 F n n N V V A >XyXBXPXLXLXLXJXLXSXpX` ~ _ tXCXZXAXfXtXY ) iXfXDXJXJXLXLXPXFXdX,XS D Z N n n F 0 t d.a.1.+.+.O.",
"8.8.6.q.e.p.r.s.t 7 6 n N N N Z Q 4XVXFXPXJXJXJXJXAXhXtXV.tXjXHXPXHXCXpXV.V.iXvXDXJXJXJXPXHXCXsX>XD Z N N n F 8 0 e t.>.-.:.@.e.",
"8.6.q.w.e.<.u.r.t 0 6 n n N N Z Q <XsXCXHXDXDXDXDXmXhXpXiXpXfXjXvXjXhXpXP.U.aXvXnXDXDXDXSXAXfXtX>XZ Z N n n 6 7 q e t.>.:.#.q.w.",
"6.6.0.0.@.:.>.r.s.r P F F m N N K ) 4XfXjXIXDXnXnXbXzXhXaXI.L.V.B.B.B.L.I.kXzXxXmXnXnXIXvXfXgX` D D N X X m 7 r e t.>.:.@.[ @.0.",
"6.0.0.@.X.1.-.u.t.s.U 7 F m o N B ~ ) ] pXzXxXbXxXxXxXzXaXR.( b z z ( D.I.zXxXbXmXxXxXzXaXgX` ) B B o o m 9 I t s.r.>.#.@.[ 6.6.",
"{ X.@.@.X.@.;.,.p.s.t 0 7 F o X B B ~ ~ ( I.W.W.cXcXxXxXzXT.D.v v v ( G.W.zXxXxXlXzXaXI.P.` ~ 9 O O o o 6 7 t s.r.u.<.e.@.0.6.5.",
"O.@.#.q.@.@.@.:.<.r.s.t 7 6 X X O O O z v B.U.W.W.W.!.!.Q.~.F.] v.D.G.K.zXQ.lX!.Q.T.K.L.( z 9 O O O o o 8 r e d.u.p.<.q.q.6.5.5.",
"O.O.e.w.e.q.e.#.,.i.r.e 0 7 G K O O z z ( B.G.K.J.E.E.J.Y.J.J.K.K.K.K.J.E.E.Q.E.J.G.D.( / c 9 9 9 9 8 8 0 t t.i.p.<.;.7.7.7.8.6.",
" .@.:.w.q.q.q.q.e.p.i.t.y r I Y ~ z ~ c ( D.G.K.K.H.H.S.H.K.J.T.J.J.K.K.A.J.A.A.F.Z.v.v c.c / u u 9 w w w g.t.i.,.<.;.q.7.6.6.5.",
"@.@.@.e.q.@.{ { e.,.u.r.d.Y / / / ( ( ( L.R.R.T.F.Z.Z.Z.H.F.H.F.S.S.F.F.A.A.Z.Z.Z.b.v.c.M.B.m.M.c y y t.t.u.p.,.| | @.7.8.6.5.5.",
"@.+.e.@.@.[ [ } { <.<.a.d.d.M.M.N.N.` L.P.I.R.R.D.D.F.F.H.K.K.H.F.H.H.H.A.A.Z.b.b.b.b.B.c.c.B.M.z.d.y.r.u.p.p.| | { { 7.6.6.6.6.",
"o.e.q.X.} [ } [ 7.;.:.>.a.d.x.M.M.V.V.U.P.I.I.R.R.R.K.Y.Q.W.Q.W.Q.Q.Q.E.Q.E.F.Z.b.Z.v.c.c.x.x.x.x.a.a.>.-.1.| e.{ { 7.q.q.6.0.6.",
"w.w.X.X.[ [ [ } 7.@.;.1.a.a.f.M.C.C.U.kXaXaXaXaXaX~.aX~.aXQ.lXlX!.!.!.!.Q.J.F.Z.v v v.c.c.c.x.k.>.:.-.-.;.| 9.7.7.7.{ 6.0.0.0.0.",
"w.0.0.X.[ { [ } 6.@.:.:.a.a.a.M.C.C.kXhXvXvXIXnXIXmXhXT.T.Y.W.!.!.!.Q.E.H.G.Z.v.v b.v x x.l.k.h.3.+.+.@.X.} 7.7.7.7.7.[ 0.0.0.w.",
"X.X.X.X.[ [ [ } q.q.@.:.3.3.x.M.C.U.hXjXAXSXDXJXDXmXvXT.U.G.T.W.E.E.J.H.Z.Z.v v h h s h k l.l.h.2.&.+.X.{ } 5.8.7.7.6.[ 0.0.0.w.",
"X.o.[ [ [ [ 5.6.6.6.@.#.-.3.a.x.C.U.kXjXbXSXIXHXDXIXUXaXL.D.D.D.G.Z.v.v c z z z z z z a s k j.l.j.&.$.$.{ [ } } | | @.@.@.X.o.o.",
"o.X.X.[ [ [ 5.5.6.6.{ #.2.3.k.x.C.U.pXhXjXvXIXIXIXIXUXI.L.B.B.B.x.b.c.h a 1   z > b , z h s l l j...%.+.1.{ { { 8.{ 7.@.@.@.#.+.",
"X.X.X.[ [ [ [ 5.6.[ @.O.:.3.a.x.m.B.P.pXgXUXgXUXUXaXgXP.B.B.( c.l.l.g g i i ; , b > b : s s l l f j.j.%.+.@.{ } } { { @.@.w.o.#.",
"[ [ [ [ [ 6.X.6.X.X.X.@.#.:.3.3.z.c.B.( ] ] ] ] ] ] ] ( v ( x l.l.l.c g i ; ; , > > b ' > s s s l j.j.j.%.:.{ } } } } @.w.#.#.w.",
"[ [ 6.[ { X.[ X.X.X.X.+.:.%.3.3.k.c c z z ^ ^ ^ ] > z z z c c x l.k l h a ; , , > > ' > : : : s s l l j.&.&.X.} 5.6.6.0.0.X.o.o.",
"8.6.{ 6.[ [ [ X.X.X.o.X.&.:.3.3.y c a i , , , > , , , ; 1 g g x l.l.k s s , : & ' ' ' ' ' : ' s s l l j.=.&.@.[ 5.6.6.0.X.X.X.o.",
"7.8.} { [ X.X.X.o.o.o.o.o.%.:.3.5 2 1 . . + # , # + + .   3 h x l.k k b a # & * * ' ' ' % % * : ; s p f h.%.@.5.6.6.6.0.0.X.X.+.",
"8.5.} } [ X.X.o.X.o.o.o.#.:.#.2.5 5 1 . . + + # @ + . .   2 g j l.l.h h s : # & % ' ' ' ' % * * @ i a l h.%.+.X.6.6.6.0.X.X.@.X.",
"8.8.} [ [ X.X.X.X.X.0.o.o.#.@.%.5 5 p i - = + + + = = 1 1 p f j.j.l l a s ; * $ % % % % % % $ $ @ ; a g h.2.:.q.6.6.X.X.0.X.@.@.",
"} 6.{ [ [ X.X.X.X.X.o.X.o.o.o.+...f d p i - - = = - i i d f j j.l.j.l a - @ @ $ $ * % $ $ $ $ $ ; - i g h.j.:.w.0.6.6.w.X.0.@.7.",
"} 7.[ { X.X.X.X.X.X.X.0.X.X.X.+...h.j l d i i     1 i d d j.j.j.j.j.l p i = = @ @ $ @ $ @ @ $ + + - p g =.=.:.w.0.o.w.w.w.@.7.7.",
"7.@.@.[ X.X.[ X.[ 0.0.0.o.X.X.$.&.%.j.h.d d 2 2 2 2 5 f ..j.j.j.j.j.l d 1 - = + + @ @ @ @ @ + + = i p d 5 2.%.#.o.w.o.o.@.X.7.{ ",
"X.X.@.X.X.X.[ [ 6.6.6.6.X.X.X.X.+.%.3.3.h.h.5 5 ........%.j.%.3.j...5 5 2 1     = - ; = - + - =   1 2 5 ..3.#.#.&.w.&.w.X.0.7.8.",
"o.+.o.X.X.[ [ 5.8.6.6.0.0.X.X.$.@.#.%.2.%.3.3.2.%.:.2.+.+.2.%.%.$.....5 2 2 i 1 i a i a a i a a p p 5 h.=.2.&.+.&.&.&.o.X.@.} 8.",
"X.$.$.@.X.X.6.6.8.6.8.6.0.X.X.@.[ O.O.1.-.:.<.@.e.;.@.@.#.#.#.&.$.&.3.h.j j g g g h h a h s h h g j j h.2.%.&.&.&.&.&.o.@.} 8.8.",
"$.$.$.o.w.0.6.8.8.8.6.6.0.X.o.X.@.{ { @.;.:.<.@.q.{ { { q.e.#.+.$.&.2.h.k.k.x c c x v v x x b x x x h.y.3.%.o.$.$.o.$.$.o.7.7.8."
};
