/* XPM */
static char *_ef3795c7baa466ad41ef2d95fb359e1nxQXURm217IrCizr[] = {
/* columns rows colors chars-per-pixel */
"64 64 253 2 ",
"   c #3A3303",
".  c #133732",
"X  c #283931",
"o  c #4A1B05",
"O  c #561901",
"+  c #551918",
"@  c #6C0D03",
"#  c #760905",
"$  c #661601",
"%  c #721413",
"&  c #472802",
"*  c #562401",
"=  c #463602",
"-  c #563506",
";  c #51351A",
":  c #652D0D",
">  c #57332A",
",  c #682A28",
"<  c #155B1D",
"1  c #3D5204",
"2  c #197111",
"3  c #3D790A",
"4  c #31700C",
"5  c #15583B",
"6  c #124D2F",
"7  c #304D32",
"8  c #196839",
"9  c #1C712D",
"0  c #237A2B",
"q  c #266B3A",
"w  c #386736",
"e  c #277939",
"r  c #31722E",
"t  c #464703",
"y  c #57460B",
"u  c #465805",
"i  c #4B4817",
"p  c #564813",
"a  c #595918",
"s  c #505814",
"d  c #47680A",
"f  c #45790B",
"g  c #566717",
"h  c #497915",
"j  c #567818",
"k  c #4B6816",
"l  c #505231",
"z  c #685736",
"x  c #586727",
"c  c #597824",
"v  c #576737",
"b  c #4C7231",
"n  c #697633",
"m  c #605A10",
"M  c #183447",
"N  c #0A3957",
"B  c #123554",
"V  c #293A54",
"C  c #0C3966",
"Z  c #163766",
"A  c #173777",
"S  c #142D6B",
"D  c #28397A",
"F  c #333B79",
"G  c #25366C",
"H  c #0C4848",
"J  c #174B4B",
"K  c #175847",
"L  c #0D4B58",
"P  c #174958",
"I  c #195756",
"U  c #0C534A",
"Y  c #2D5052",
"T  c #1D6446",
"R  c #1F6A4B",
"E  c #297847",
"W  c #286B4F",
"Q  c #174768",
"!  c #174477",
"~  c #174F66",
"^  c #344672",
"/  c #4A5455",
"(  c #734547",
")  c #526F4B",
"_  c #6D744A",
"`  c #4A5771",
"'  c #576B6A",
"]  c #677472",
"[  c #94746E",
"{  c #807740",
"}  c #1D9E04",
"|  c #1D9D0B",
" . c #1D9706",
".. c #1D9C12",
"X. c #1D9512",
"o. c #19890F",
"O. c #3C890B",
"+. c #239D03",
"@. c #299C02",
"#. c #239C0B",
"$. c #2A9A0D",
"%. c #29960B",
"&. c #359609",
"*. c #258A15",
"=. c #3A8B17",
"-. c #259613",
";. c #2B9515",
":. c #249B13",
">. c #2A9A14",
",. c #2B951C",
"<. c #249B1C",
"1. c #2B9A1C",
"2. c #25951B",
"3. c #3B9313",
"4. c #359415",
"5. c #278909",
"6. c #1DA102",
"7. c #1DA10A",
"8. c #16A504",
"9. c #0FA704",
"0. c #21A103",
"q. c #22A10A",
"w. c #29A108",
"e. c #24A317",
"r. c #1F812E",
"t. c #2C8C2C",
"y. c #268927",
"u. c #398A2A",
"i. c #2C9424",
"p. c #2D922B",
"a. c #279723",
"s. c #339428",
"d. c #2A8735",
"f. c #338836",
"g. c #319232",
"h. c #28A621",
"j. c #44870D",
"k. c #488815",
"l. c #53821A",
"z. c #449117",
"x. c #488925",
"c. c #568A3A",
"v. c #4E8E31",
"b. c #6D8937",
"n. c #60801F",
"m. c #318547",
"M. c #588E49",
"N. c #688744",
"B. c #6F8E51",
"V. c #758E6D",
"C. c #71A85C",
"Z. c #929233",
"A. c #A39E39",
"S. c #A5A03C",
"D. c #868B46",
"F. c #959745",
"G. c #8C9553",
"H. c #95A44F",
"J. c #ABA847",
"K. c #A6A958",
"L. c #B7B75B",
"P. c #B2AE48",
"I. c #899766",
"U. c #8C9773",
"Y. c #95AA73",
"T. c #A5AA66",
"R. c #B5B96A",
"E. c #ADB36F",
"W. c #A19D4C",
"Q. c #BAC373",
"!. c #C9C876",
"~. c #D8D87B",
"^. c #CECB67",
"/. c #E2DE7A",
"(. c #1C3A86",
"). c #1B3A9A",
"_. c #263988",
"`. c #253C93",
"'. c #293C98",
"]. c #343B8B",
"[. c #1E3DB7",
"{. c #1C37A3",
"}. c #2A3DAD",
"|. c #263DA6",
" X c #2B3EB3",
".X c #263DB7",
"XX c #194588",
"oX c #1B4598",
"OX c #284287",
"+X c #364789",
"@X c #294298",
"#X c #364798",
"$X c #3B5192",
"%X c #1D44A8",
"&X c #1D42B9",
"*X c #2343AC",
"=X c #2942A5",
"-X c #2243B4",
";X c #2C42B3",
":X c #2A44BB",
">X c #314ABA",
",X c #3B51B0",
"<X c #465898",
"1X c #48538F",
"2X c #556897",
"3X c #576B8C",
"4X c #677592",
"5X c #5367A6",
"6X c #6A74B3",
"7X c #5258A2",
"8X c #223DC2",
"9X c #1E43C3",
"0X c #2946C3",
"qX c #3A57C9",
"wX c #344EC5",
"eX c #415FCC",
"rX c #4160CC",
"tX c #78888B",
"yX c #7889B2",
"uX c #7E8BC0",
"iX c #8A968B",
"pX c #B19C91",
"aX c #98AD8C",
"sX c #B0B489",
"dX c #8B94B5",
"fX c #ADB1AF",
"gX c #92A2B2",
"hX c #C3A2A5",
"jX c #B2C790",
"kX c #B7CAB3",
"lX c #C9D490",
"zX c #D7E395",
"xX c #CED2B1",
"cX c #D8E6A5",
"vX c #E6EDB8",
"bX c #E2EB98",
"nX c #8B93C4",
"mX c #97A8D1",
"MX c #A7B3CF",
"NX c #ABB6E4",
"BX c #B8C7D0",
"VX c #B7C8E3",
"CX c #D0D2CE",
"ZX c #D6E4D9",
"AX c #EEF1D1",
"SX c #C9D5ED",
"DX c #D8E7FB",
"FX c #D9EBEB",
"GX c #F5FEE7",
"HX c #EAF8FA",
"JX c #F4FCFB",
"KX c #EAF0EE",
"LX c #E4D0C9",
/* pixels */
"7.| 9.| } 8.6.6.7.7.7...7...8.7.} +.} 6.0.0.6.6.6.6.} | #...e.#.$.$.>.:.X...a...a...| | } 8.8.6.8.6.6.0.+.#.0.6.} 6.6.6.8.8.9.9.",
"7.8.9.| } 6.} 6.7.q.7.7.7.7.7.7.} +.} 0.6.0.6.} 0.0.7.#.:.<.<.>.:.>.-.<.<.a.a.a.......| | 8.6.8.6.6.6.} | 0.+.| } 6.6.8.8.8.8.8.",
"7.8.| } 6.} } 6.6.| } 7.6.| 8.| +.0.+.+.6.} } } #.q.:.1.a.2.2.2.a.X.y.a.a.a.a...<.| | | } } } } 6.} +.6.} #.| +.+.6.6.6.6.8.8.8.",
"7.| 8.} } 6.} } +.6.6.+.} } 6.} q.q.q.+.+.} +.+.>.1.a.i.t.y.y.r.0 0 r.y.t.p.a.a.:.:.#.6.| 6.} } 0.6.0.} 6.#.} } 7.0.6.6.6.6.8.8.",
"} } } } } } } +.} 0.6.0.6.0.6.0.w.w.q.+.+.#.$.;.1.s.s.f.d.e 9 8 9 8 8 r.r.r.p.a.a.>.#.#.q.+.0.+.0.0.7.+.7.7.q.| 0.7.0.6.6.6.6.6.",
"+.6.} +.+.} 0.6.0.0.0.0.0.0.0.0.w.w.e.$.%.$.,.,.s.g.f.e q q 5 5 5 5 U R R r.r.d.i.a.1.>.#.+.#.q.+.q.+.} | } 7.6.q.0.| 0.0.6.0.0.",
"+.0.} } +.+.6.0.0.6.0.6.0.0.6.+.w.e.e.>.,.,.s.t.d.e e W T I J L L L L U U R m.r.d.p.i.,.>.>.$.q.q.#.} } } } 6.| } 7.6.0.0.6.0.} ",
"@.@.@.+.} +.+.6.0.0.0.6.6.6.6.0.q.>.>.1.s.s.u.f.e q W K I P Q L ~ ! ~ L L I R R E d.y.y.,.2.>.>.#.#.#.} } } | 6.} 6.} 6.+.+.+.+.",
"@.@.@.+.+.+.| } 6.6.6.6.7.7.7.| ..<.i.i.g.f.r E T T I P ~ ~ ! XXoXXXXX! ~ L ~ U R R m.m.m.a.p.2.-.>.#.} | } } } } | } } +.+.0.@.",
"@.@.@.+.#.| 6.6.} 6.} 7.......:.a.a.p.d.f.m.E W T I P Q XXXXoXoXoXoXoXXXXX~ ~ ~ ~ R R m.m.m.g.p.a.2.:.>.#.| } } } } } } | 0.6.@.",
"0.@.@.+.+.7.7.7.| | ..:.<.a.a.a.g.g.m.m.E W I I P Q ~ XXXX%X%X%X%X%X%XoXoXXXXX! ~ ~ ~ R m.m.m.m.g.p.i.a.-.:.#.#.| | #.#.+.+.+.+.",
"@.@.@.#.7.:...7.| | ..X.a.a.p.g.m.m.m.W R I P ~ ^ ! ! oXoX%X-X&X&X%X%X%XoXoXoXXXXXXX! ~ I W ' m.m.d.d.t.,.-.-.-.$.#.q.#.+.+.} +.",
"0.+.6.#.7.........X.*.*.r.y.d.e E W W W Y Q Q ! A OXoX@X*X&X&X&X&X&X&X%X%X%X%X@XoXXX! ! ~ ~ W W E E d.e *.*.*.%.%.%.$.$.#.+.} +.",
"} } } 7...e.....X.o.o.*.2 9 0 T W I ^ ~ ! ! _.`.@X@X*X%X-X&X&X9X9X&X&X%X&X%X*X%XoXoX(.! ! ~ ~ I I R 8 9 2 2 2 5.%.%.$.$.+.@.+.} ",
"} } 7.| ....X.X.o.o.2 2 < < < 6 J P Q ! OX_.`.'.|.=X*X}.&X&X9X0X9X9X&X&X&X%X%X*X%X%XoXXXXX! Q Q L 6 5 6 < 2 2 4 5.5.%.%.@.+.+.} ",
"} 6.7.......X.-.o.*.2 4 < < 6 . M B Z A `.'.|.;X}.}..X-X[.[.8X8X9X9X9X&X&X%X&X%X&X%X%XoXXX(.A N N N 6 6 < 2 2 2 5.5.%.%.@.+.+.} ",
"8.} | 9.X...,.;.=.=.=.r b w 7 7 B Z S A '.}..X:X X X X X X8X X8X9X:X&X%X-X-X-X-X-X%X*X|.OX_.A Z B M J 7 q r r =.=.%.%.@.@.@.0.0.",
"} 9.| | ....;.=.z.x.c b v ) / Y Y G G _.'.|. X.X8X X8X>XwX8X8X8X0X0X-X&X-X-X-X&X[.|.}.|.@X_.D Q Y Y / E b v.x.z.=.4.&.$.+.0.} 6.",
"8.8.6.7.q.>.>.3.z.x.n.c.B.B.' ' ` ^ ^ ! `.|.}. X X X X X>X>XwX8XwXwX:X:X:X&X.X[.[.[.*X=X@XOX+X^ Y ` ' M.M.M.v.v.z.3.>.w.w.w.0.} ",
"6.8.6.6.q.>.>.3.z.k.c.M.B.V.V.V.] 3X1X+X`.'.|.}. X X X X X>XeXeXqXqXwXwX0X:X8X[..X.X X=X@X$X$X1X] ] V.V.C.C.c.z.z.3.3.4.$.+.+.} ",
"6.8.6.} +.$.&.3.z.x.n.N.B.U.U.iXtX4X2X1X$X@X=X}.}. X}.}.*X>XqXrXrXrXqXwXwX8X8X8X8X8X X|.'.$X2X4XtXtXU.V.C.C.b.v.x.z.=.&.$.#.#.} ",
"6.6.6.} #.$.4.=.x.x.b N.B.V.tXtXtXyX4X2X<X#X=X}.}.}.}.}.;X,XqXrXrXrXqXqX0X0X8X8X8X0X X=X#X<X5X4XtXtXtXV.V.B.) c.x.u.=.*.%.-.#.e.",
"6.6.} #.$.4.4.u.x.x.b v ' ' ] 4X4X2X2X<X<X#X@X}.}.}.}.;X;X>XqXrXqXrXqXqXwX8X8X8X8X:X;X=X#X<X<X4X3X4X] ] ' ) b w v.f.u.i.2.-.<.h.",
"0.6.} #.-.;.t.u.r w W Y Y Y ` ` 3X1X1X$X#X'.'.|.}..X X;X>XqX>XqXqXrXqXqXwX8X8X.X X X}.'.'.$X<X2X3X` ' ` Y / Y w E r u.y.y.-.e.h.",
"q.q.q.>.,.t.0 r q q Y Y Y ^ ^ ^ G D D D (._.{.|.}..X.X X>X>XwX>XqXqXwXwX8X.X.X X X=X'.'._.D _.F F F ` F ^ V Y Y Y w d.d.y.a.<.<.",
"7.e.:.1.i.y.r 8 5 I P Z G D G D D D D _._.'.'.{.}.}.{..X;X>X>X>X0XwX>X;X>X X}.}.|.@X`._._.D F D F F F F ^ G V J K T 8 e r.a.<.<.",
"..:.1.a.y.0 8 5 H P G ! _.].].].].1X1X#X,X1X].|.{.{.{.{.=X;X;X;X0X>X X}.=X=X'.'.OX@XXXXX].+X1X1X].].]._.].D ! Z M J 8 9 r.a.a.<.",
"..:.1.i.t.0 5 5 N Z ! OX'.'.].#X7X6X6X6X6X6X7X7X'.'.{.{.|.=X|.|.|.|.|.'.=X@X_._.! $X<X5X6X6X6X6X7X1X#X].OX_.(.C N U K 9 r.r.a.<.",
"| X.h.p.d.e T J H Z ! `.`._.].#X6XnXNXNXNXmXuX5X7X#XoX=X@X@X`.`.`.`.`.#X+X_.OX! XX2XyXuXmXNXNXNXuX6X,X].`._.(.A Q L K R d.p.a.a.",
"....a.p.d.e T P Q A _.`.`.].#X7XuXNXSXDXDXSXMXnX6X5X$X$X@X(._._._._.D _.D D ^ +XtXyXnXNXVXDXDXSXmX6X7X'.`.(.(.(.Q U K E d.d.i.a.",
"..e.a.p.d.e K I N A A `.`.].7X7XnXVXKXKXKXKXSXNXmXyX5XXX(.A _.].^ D G Z G G ^ 4XyXMXVXDXDXHXDXDXNXnX7X].@X@XoXXXC L U q e t.i.>.",
"7...e.a.y.e T P C A (._._.].1X6XMXVXKXJXKXJXKXDXVXmX2X^ Z G ^ 1X2X2X1XG V P ^ yXMXSXDXHXHXHXHXDXNXdX7X_.OX(.XX(.C H U q d.t.i.4.",
"| $.-.i.d.e 8 U S S S _.].].1X6XnXCXHXJXJXJXJXKXZXMX3XY Y ^ tXyXgXgXyX3XY Y / tXBXFXGXHXHXHXJXDXVXnX2X^ _.A A C N H K 8 d.g.p.p.",
"%.$.;.1.t.e 8 U B S S S G F ].7XnXVXKXKXGXJXGXGXKXfX] ' ' 4XgXBXVXCXkXyX' Y ' U.kXAXGXGXHXGXKXFXMXdX1XF G S S C N H T 8 r.d.g.p.",
"q.e.>.i.g.0 T U B B S S S S ].1XdXhXZXKXGXGXGXGXAXxXiXV.V.iXkXZXFXKXZXkXtXV.V.aXZXAXGXGXGXGXZXCXMX4X1XG S S N N N H 5 9 d.g.g.p.",
"q.>.1.1.s.d.9 5 . N M S S G G ` tXfXCXLXAXAXAXAXAXxXsXiXiXaXfXkXkXkXkXaXiXiXaXjXcXvXAXAXAXAXZXkXpX4X^ V S S N N 6 U 8 9 d.p.p.h.",
"q.q.<.1.i.t.e T U U L B B B S / ] iXhXxXxXvXvXvXcXcXjXjXaXC.V.B.V.B.V.B.Y.Y.jXlXcXvXvXvXvXCXxXpX4X] V V S B B P K 8 q 0 y.i.a.,.",
"..#.:.-.a.p.d.e T U U M . . M V / ] U.pXlXlXcXcXzXzXzXjXE.H.b.v l x b c.I.jXlXcXcXcXbXcXlXsXY.[ ' / V M M M H J T T d.t.a.a.2.-.",
"| | | ..<.p.d.d.E 8 K 6 . . . X X / _ _ U.E.Q.!.zXzXbXzXQ.T.b.b.n b b.B.Y.lXcXcXzXlXlXjXE.U._ ) / X X X . . M 5 R e d.p.,.,.>. .",
"| | | | e.a.a.y.d.8 8 6 < . . 7 X l l _ B.H.Q.Q.~.~./.~.Q.L.W.B.B.D.C.Y.Q.jXlXlXlX!.!.E.G._ ) l > X X X X . 6 8 e f.g.i.1.>.#. .",
"| | | | ..-.a.a.y.r.9 < < 6 6 7 7 s l b n D.K.K.P.L.^.L.L.L.J.K.J.K.T.R.T.R.R.!.R.R.E.E.T.{ _ l l 7 X 7 7 6 5 q r g.i.,.>.#. .+.",
"7.| } } | #.<.2.y.y.0 9 9 r q w b b b b n b.F.Z.Z.A.S.P.P.P.P.P.L.L.L.K.K.K.K.K.K.K.K.T.T.I._ z / l / w 7 r r 0 d.i.,.-.>.q.} } ",
"7.7.6.} } #.#.-.,.a.*.y.r u.r v.c.c.M.b.b.b.b.n.Z.Z.Z.A.A.A.A.A.A.A.A.F.F.F.F.F.Z.F.G.T.T.U.I._ _ _ ) ) e b f.f.t.1.;.#.#.+.+.} ",
"q.6.6.} } | q.q.-.2.,.s.s.x.v.v.v.M.N.C.D.b.b.n { Z.Z.A.P.P.S.P.J.J.J.J.K.W.W.F.D.G.W.T.T.T.I.G.B.N.M.M.M.m.g.s.i.1.$. .} 0.} } ",
"0.} +.} } } } +.#.:.-.,.s.s.u.u.v.v.M.N.b.b.b.b.D.F.J.L.^.^.^.^.^.^.^.^.!.R.E.K.K.T.T.T.T.U.I.I.V.B.B.M.M.g.s.s.a.:.#.| +.q.0.6.",
"0.0.0.6.} } 6.6.| | -.-.4.4.=.u.z.v.v.N.N.N._ B.{ F.K.R.^.~.~././././.lXlX!.Q.Q.E.sXsXsXpXE.Y.aXU.U.V.M.M.g.s.h.>.>.| } 0.q.0.0.",
"@.0.0.+.6.+.0.6.+.| #.>.,.=.=.=.z.v.c.c.c.) n _ n { G.W.R.Q.!.~./.~.^.!.E.E.E.jXxXvXvXvXvXxXxXxXjXY.C.M.M.s.i.,.-.q.| } q.0.6.0.",
"+.+.+.+.+.6.} q.| } $.>.1.4.3.3.z.v.x.b b v z _ _ ( { { D.W.T.L.^.R.R.K.W.U.sXhXLXAXAXAXLXAXxXxXjXaXC.M.v.s.,.-...q.} } 0.0.0.0.",
"} +.+.+.q.0.q.q.q.#.$.$.&.3.O.j.k.l.h k k i l l / l z > z n D.G.H.S.G.G.G.I.pXkXLXAXAXLXLXCXxXxXaXaXC.h.g.s.e.#...q.0.+.+.+.0.@.",
"#.} #.+.+.0.q.+.#.#.>.&.3.z.k.j.l.f k s i i i > > l > > i x n b.b.b.b.b._ G.iXpXLXLXLXLXxXlXxXsXY.C.C.C.z.1.w.q.7.7.| +.#.@.@.@.",
"+.+.+.+.+.} } } #.-.$.3.j.j.l.j g m m m i p l z > > > ; ; s x c l.n.n.b.N.G.U.pXhXhXhXpXpXpXaXY.H.C.h.v.4.1.| | q.6.7.#.+.@.+.@.",
"#.} +.} } 6.} } +.$.4.O.k.j j j m m y y ; , , , > > > ; p s x c l.l.c n v _ _ [ [ [ [ [ [ [ [ G.M.M.v.v.s.>.|  .6.7.6.+.+.+.@.@.",
"} } } +.6.6.} } @.$.4.k.l.g g m m : : : , % , , , , + ; p a g n.l.l.l.c b l l z ( ( ( ( , ( z z c b b z.4.-.| } } 6.} +.+.+.@.@.",
"} } } } 6.6.6.6.$.%.3.h j g m y : : : $ % % % % % % % , p a c n.l.l.c j l   ; > , , , , > > ; i k d 3 =.=.>.} } 8.} } +.@.+.@.@.",
"} } } 6.6.6.6.} @.&.O.h g m y : : % # # # # # % % % + : p a c n.l.l.h d 1   o o + + + + o & &   1 1 3 =.4.%.#.} } } } +.+.+.@.@.",
"} } 6.6.6.6.6.6.$.&.j.f g m - * % : # # # # # # % % # + : a j j k.h f 4 <     o + + + + o o     1 4 3 O.&.$.#. .} 6.+.+.+.+.@.@.",
"0.0.0.8.6.6.8.0.@.&.j.f m y - * O @ @ @ # # # # % @ $ * - y k h j.j.f d 1 1   & * o o o   &   1 1 3 f O.3.$.#.} } 6.6.0.+.+.+.@.",
"0.0.} 6.6.8.6.0.w.&.j.f k y & * O $ @ @ @ @ @ @ @ @ $ O - u d h j.j.j.j.f d t t = & & &   t u u 3 3 O.3.4.$.+.} } 6.0.+.+.+.0.6.",
"| #.q.6.6.6.6.0.0.&.z.f d t = & o O O O $ O @ $ $ $ O * = u d k.j.j.z.j.j.d k s t y t t u u d f 3 O.3.3.4.$.#.+.+.q.@.+.6.} 6.6.",
"} } 6.6.6.6.0.0.w.&.&.j.d u   & o o o o O O O O * O * - t u 3 =.z.3.z.j.j.j.f d d u u u d f 3 j.O.O.3.4.>.$.%.#.+.+.0.0.} 6.6.8.",
"} } }  .| 0.0.w.w.@.&.3 3 1 1     = = - - = * - - & = = 1 1 3 =.&.%.%.&.&.O.j.j.j.j.f j.f O.O.O.&.&.4.4.>.$.$.%.+.@.@.@.6.8.8.8.",
"+.#.| | | 6.0.0.w.@.@.O.3 d u u i i i i p i p p ; y y s k d 3 *.%.%.%.+.%.&.&.&.z.j.j.j.&.&.&.%.$.$.>.w.$.-.$.%.@.@.0.0.6.8.9.9.",
"| #.|  . .} +.0.0.@.&.&.O.f h x x x l x g x a g a a a g c u.=.;.-.| | } +.@.@.&.&.&.j.&.&.&.@.+.#.%.$.#.-.$.$.%.%.@.0.0.8.9.9.9.",
"q.#.#.| | } } 0.0.w.&.&.O.k.x.c c v x x c x n n n x x n c x.=.-.:.7.7.6.6.0.w.@.@.&.@.&.&.@.@. .+.#. .:.>.;.;.%.%.@.0.6.6.9.9.9."
};
