/* XPM */
static char *result[] = {
/* columns rows colors chars-per-pixel */
"64 64 256 2 ",
"   c #083707",
".  c #3A3700",
"X  c #3C3213",
"o  c #302C23",
"O  c #581807",
"+  c #511612",
"@  c #671217",
"#  c #630F11",
"$  c #492904",
"%  c #582705",
"&  c #473604",
"*  c #573804",
"=  c #45331A",
"-  c #6E310C",
";  c #772F2B",
":  c #55272A",
">  c #0D520D",
",  c #3B4903",
"<  c #3B5804",
"1  c #2B510E",
"2  c #1A7117",
"3  c #396808",
"4  c #37770A",
"5  c #2B7A17",
"6  c #0D5538",
"7  c #175837",
"8  c #0E512F",
"9  c #2B573F",
"0  c #186838",
"q  c #1C7736",
"w  c #176D28",
"e  c #287827",
"r  c #3A7D28",
"t  c #276937",
"y  c #257838",
"u  c #347432",
"i  c #474705",
"p  c #544805",
"a  c #475909",
"s  c #515612",
"d  c #704D14",
"f  c #476609",
"g  c #55660C",
"h  c #46770B",
"j  c #576914",
"k  c #467715",
"l  c #4F7116",
"z  c #646F17",
"x  c #56532A",
"c  c #705631",
"v  c #4F732C",
"b  c #696A31",
"n  c #193C4F",
"m  c #263B58",
"M  c #173B68",
"N  c #173B78",
"B  c #0C3B6A",
"V  c #233B67",
"C  c #263879",
"Z  c #32357B",
"A  c #0B4B48",
"S  c #144A48",
"D  c #155749",
"F  c #0C4656",
"G  c #144959",
"H  c #195856",
"J  c #0D5543",
"K  c #2B4D53",
"L  c #196646",
"P  c #1B6351",
"I  c #226948",
"U  c #277A47",
"Y  c #2F7252",
"T  c #164768",
"R  c #184477",
"E  c #174E68",
"W  c #254569",
"Q  c #235766",
"!  c #304E71",
"~  c #2B6667",
"^  c #347262",
"/  c #555252",
"(  c #745750",
")  c #516D51",
"_  c #797847",
"`  c #6E7353",
"'  c #48566C",
"]  c #526A6D",
"[  c #6F706F",
"{  c #6E5666",
"}  c #863015",
"|  c #8D3A25",
" . c #AE3B2C",
".. c #A5381F",
"X. c #89461A",
"o. c #8B4B2F",
"O. c #A44731",
"+. c #9A623D",
"@. c #885850",
"#. c #B05849",
"$. c #8F6656",
"%. c #AF6F57",
"&. c #937370",
"*. c #A7776D",
"=. c #C87168",
"-. c #1D9E04",
";. c #1D9D0B",
":. c #169F05",
">. c #1C9D14",
",. c #1B9D1A",
"<. c #1E8416",
"1. c #38890B",
"2. c #239C04",
"3. c #299B04",
"4. c #2C950C",
"5. c #239C0B",
"6. c #2B9B0B",
"7. c #289507",
"8. c #33950C",
"9. c #33980A",
"0. c #2A891A",
"q. c #398A15",
"w. c #2C9313",
"e. c #249B13",
"r. c #2B9A13",
"t. c #2B951A",
"y. c #249B1C",
"u. c #2B9A1B",
"i. c #25951A",
"p. c #349412",
"a. c #379417",
"s. c #2B8A0B",
"d. c #15A303",
"f. c #1CA202",
"g. c #16A20B",
"h. c #1BA20A",
"j. c #15A901",
"k. c #17A212",
"l. c #22A202",
"z. c #22A10B",
"x. c #2AA107",
"c. c #24A214",
"v. c #1D8928",
"b. c #288929",
"n. c #378725",
"m. c #2C9424",
"M. c #279726",
"N. c #359424",
"B. c #298738",
"V. c #328B37",
"C. c #289433",
"Z. c #329138",
"A. c #458716",
"S. c #43890F",
"D. c #468827",
"F. c #518C2F",
"G. c #6C8A33",
"H. c #2B8442",
"J. c #348849",
"K. c #1F8242",
"L. c #4E874E",
"P. c #728E4E",
"I. c #778A72",
"U. c #7DA463",
"Y. c #8D9250",
"T. c #A39C4E",
"R. c #94A453",
"E. c #A9A754",
"W. c #8D946B",
"Q. c #90A973",
"!. c #B1B368",
"~. c #A58779",
"^. c #CB9078",
"/. c #B9C877",
"(. c #183988",
"). c #1B3897",
"_. c #113090",
"`. c #273889",
"'. c #232E9A",
"]. c #263999",
"[. c #31368C",
"{. c #1C37A7",
"}. c #1C34B3",
"|. c #1A37B7",
" X c #122FB1",
".X c #243CAC",
"XX c #2B3BAC",
"oX c #2539A4",
"OX c #243DB4",
"+X c #2A3CB4",
"@X c #243DBB",
"#X c #2A3CBB",
"$X c #2537B8",
"%X c #313AAB",
"&X c #1B4586",
"*X c #1D4696",
"=X c #2A458A",
"-X c #354687",
";X c #254498",
":X c #364897",
">X c #345291",
",X c #1E41B1",
"<X c #2343AC",
"1X c #2845A7",
"2X c #3448A6",
"3X c #2442B4",
"4X c #2B41B2",
"5X c #2542BA",
"6X c #2B47BA",
"7X c #3855BC",
"8X c #354DB2",
"9X c #49578A",
"0X c #465598",
"qX c #484E8C",
"wX c #566791",
"eX c #697391",
"rX c #4857A7",
"tX c #5766A7",
"yX c #6F78A8",
"uX c #243DC3",
"iX c #2B3CC7",
"pX c #303BC4",
"aX c #1F39C1",
"sX c #2F4BC2",
"dX c #415DC0",
"fX c #8A7387",
"gX c #77898D",
"hX c #7C8AAE",
"jX c #908C8C",
"kX c #AF938B",
"lX c #98AB8F",
"zX c #A7B196",
"xX c #8C9AAB",
"cX c #9AA8B0",
"vX c #B1AFAB",
"bX c #B09CA7",
"nX c #CFA792",
"mX c #CDB8AD",
"MX c #E1AC9A",
"NX c #B9C8AC",
"BX c #B4C690",
"VX c #D0D592",
"CX c #D1DBAF",
"ZX c #F2C8B2",
"AX c #EBECB3",
"SX c #DAE6A6",
"DX c #ADB4D1",
"FX c #94A2CB",
"GX c #B8C5D2",
"HX c #BBC9E4",
"JX c #D1D5D0",
"KX c #FAD9C2",
"LX c #F3F2D2",
"PX c #D1DAEC",
"IX c #EFF7ED",
"UX c #DBE8DF",
/* pixels */
"f.-.f.-.h.h.;.k.g.;.h.5.-.5.2.2.e.e.e.e.>.,.k.k.k.,.>.k.k.,.,.,.,.,.,.k.,.g.z.f.f.z.z.f.5.c.e.y.h.h.-.z.l.f.l.f.f.f.l.l.l.l.l.f.",
"f.f.-.f.g.g.k.g.g.g.h.-.2.2.2.2.4.e.e.e.>.,.,.,.,.,.,.,.,.k.C.,.,.M.,.,.,.;.z.z.2.;.-.5.;.e.w.>.;.-.-.-.-.l.f.l.f.l.l.l.l.l.z.l.",
"f.f.d.:.d.g.g.g.h.h.-.-.-.5.5.6.r.r.u.u.M.M.M.M.,.v.v.C.C.C.C.C.C.C.,.,.i.e.5.5.;.2.5.;.5.;.;.>.z.;.-.f.z.f.l.f.2.l.l.l.l.l.l.l.",
"f.f.f.d.d.g.f.f.f.f.-.-.5.5.6.6.r.u.u.m.m.C.C.C.K.C.B.B.K.K.K.K.C.v.C.v.M.M.i.i.w.e.5.5.5.;.w.;.h.;.;.;.-.l.-.-.-.f.f.l.l.x.l.l.",
":.f.f.d.h.f.f.h.h.-.-.5.5.e.i.i.t.N.N.Z.Z.B.H.H.K.U L 0 L L L J w 0 q y B.C.b.m.m.y.r.e.e.r.r.r.e.>.>.5.h.z.2.2.-.-.2.l.l.x.l.l.",
":.:.f.h.f.h.f.h.-.5.5.e.i.0.0.b.e b.B.u U Y Y Y P P H D A A F F 6 6 L I U U B.B.b.b.m.t.u.u.c.c.y.y.>.e.c.e.z.z.2.-.2.2.l.l.l.l.",
":.:.-.f.f.f.-.2.2.6.u.M.b.v.e w 0 t t I Y H Q K E W G G T T T F B F G H H I I y y b.b.m.m.N.M.u.M.M.y.M.M.u.u.c.5.2.2.2.2.l.2.2.",
"-.-.-.f.h.z.2.5.e.u.m.b.b.q 0 0 J J S H G W T W R R C R R R R (.N B T T E H H D I y B.b.Z.M.m.m.C.b.v.v.m.i.u.u.r.6.5.5.2.2.2.z.",
"-.;.;.-.;.-.5.r.t.m.b.B.y 7 J A F F B F N N (.`.`.`.`.`.;X;X;X;X*X;X(.N B T F A H L I B.H.H.C.C.K.v.w 2 2 <.0.i.u.r.r.5.5.z.z.z.",
"-.2.5.7.7.7.4.w.0.b.y y D H G F R R (.(._.).'.'.oXoX1X2X1X2X1X1XXX<X1X).(.N N T G H P L Y K.J.H.U 0 0 w w 2 v.0.t.u.r.r.5.6.z.5.",
"z.5.2.-.7.7.w.0.5 e w D H H E R *X*X*X{.oX.XoXXX+X%X+XXX4X1X1X<X#X4XXX.X{.*X&XR T E H H P J.~ U P J 8 8 8 2 2 5 0.w.p.6.5.e.5.5.",
"z.z.5.2.5.w.w.0.e w 8 6 F E &X&X<X<X<X<XOXOX#X#X+X#X+X#X4X+XOXOX$X@X#X4X<X1X1X;X&X&XR T E E P H H F 6 8 8 > 2 5 p.w.r.r.6.5.5.e.",
"x.z.2.2.6.r.w.0.v.w 6 A F R *X*X3X<X3X5XOX@X#X#X#X#X#X#X5X@X|.|.$XOX$X+XOX<X<X1X*X*X&XR R E T T E G S S 7 w e r q.w.p.6.6.r.z.e.",
"2.z.5.6.r.r.0.0.e w 6 J E E &X*X,X,X,X,X@X@X$X#X#X#X5X#X|.|.|.|.{.{.}.}..X+X3X<X<X<X1X*X*X&X&XR T M G K 9 t u k a.p.p.6.5.z.z.z.",
"-.l.2.5.r.r.t.0.e q L H E R &X&X{.,X<X,XOXOX@X5X5XOX@X|.|.|. X X_. X_.{.{.3X5X3X3X3X6X<X<X*X1X*XN V G K Y Y J.D.n.a.8.3.3.z.z.c.",
"-.z.5.5.6.p.t.0.V.y K.P E E R &X*X).{.{.OX3X3X5X3X@X3X|.|. X X X_._. X_.{.3XOX|.3X6X6X8X7X7X7X1XC V W ! ] L.L.F.a.a.8.3.3.5.z.;.",
"g.h.f.f.l.l.2.6.c.C.H.Y ~ Q M B (._._.*X,X*X<X<X<XOX}.}.}.}.{.{.(._.(.).).1X.X.X5X6X6X6XsXsX7X7X-X! ! ! L.L.P.F.N.9.3.5.5.5.;.;.",
"h.h.d.f.f.f.-.w.M.Z.J.^ ~ Q T B _.(.).*X{.,X<X<X.XOX}. X{.{.{.oX(.&X].;X].{.oX.X3X5X5X6X7XdX7XsX>X-X! ' ] ) L.N.a.r.6.x.z.z.;.;.",
"f.f.j.f.f.-.-.e.C.Z.J.^ ~ Q R N (._.).{.,X<X3X,XOX$X}.'.}.).).].=X>X>X:X;X`.'.oXOX3X3X3X7XsXdXrXrX0X! ! ~ Y u n.a.8.3.x.z.-.-.:.",
"j.f.f.d.-.f.5.y.C.J.J.J.~ R R N _.).{.,XOX5X5X5X$X$X}. X'.'.'.=X>XwX9X>X[._.'.%X+XOX5X5X8X7XdXdXtX>X=X! K t u e t.4.5.x.x.f.-.-.",
"f.j.f.j.d.f.z.y.C.B.K.~ ~ R N (.].oX$XiXuXuXuX$X$X|.$X{.'.`.=X:XwXeXtX9X[.Z '.%X+X#X6X#X4X6X7XdXdX7X=XW G D t e b.w.6.z.l.f.l.f.",
"j.f.f.f.f.z.>.M.v.q P Q R &X].].XX+X#XiXiXsXuXaX|.}.}.{.oX].-XqX] eXeXwXZ Z [.%X%X#X#X#X5X6X7XsXdX8X;XR G S t y b.i.6.2.l.l.l.l.",
"l.f.f.f.h.>.i.v.q L J E =X*X].XXXX#XiXiXiXuXaX|.|.$X}.XXoX].:XqXeXeXyXwXqX[.[.%X%X%X#X#X@X5X6XsX6X8X*XN M S P U b.m.e.-.f.l.l.l.",
"l.f.f.z.c.y.M.v.q J F T &X].$X#X$X#XiXiXiXiXuXaX|.$X}.+X%X].].0XwXtXyXtXqXZ [.[.%XXX+X+XOX5X5X5X3X<X;X(.B S P H.B.M.i.;.-.l.l.l.",
"f.l.z.z.e.i.v.q 0 J T R ;XOXpXiX$X#XpXpXiXuXaXaX5X5X5X@X+X2X%X2XtXtXtXqXqXZ Z [.`.'.'..XOXOX5XsX#X3X*X(.B F P U H.C.y.>.5.-.l.2.",
"l.f.-.5.y.i.v.q 6 D T (.].+XpXiX#X#XpXiXuXuXaX5X5XaXaXsX$XOX1X2X0XrXrX0X[.Z Z Z [.[.`.].<X{.3X5X6X<XoX(.B F P U H.C.M.>.5.5.2.2.",
"-.2.-.5.y.b.b.0 D H T &X;X4XpXpX+X$XiXaXuX@X5X5X5XsXuXsXsXOX<X1X%X%XqXqXqXqXqXqX>X>X>X1X;XoX<X3XXX1X;X(.B F D U C.C.M.,.e.5.2.2.",
"z.-.;.e.t.m.y y 7 A F R ].1X4X#X4X+X$X$X@X@X3X@X5XaXuXaX@XOXOX<X'.[.[.0XyXyXyXfXhXhXyX>X;X`.).).:X].=XR E A L y B.C.y.e.e.6.7.3.",
"f.;.;.e.t.m.V.e 0 S n B N `.1X].1XoX3XOXOXOXOXOX5X5XuXuX|.5X<X<X[.%X%XtXFXDXDXDXHXFXFXhX-X`.C N [.=XR W K D t y C.M.i.5.r.z.6.6.",
"h.d.-.e.m.N.b.y 7 7 S n R R (.&X;X).).{.{.{..XOX5XuXuXuX@X3X<X<X].[.rXyXDXHXPXPXIXPXGXhX' V M M C V V K D 9 y B.N.u.i.5.x.6.6.9.",
"d.d.;.;.c.u.n.e w 8 8 S G T R B N (._._.{.{.$XOX@XsXuXuX|.<X1X*X=X=XrXhXHXPXIXIXIXPXHXcX9XW V V V m m S 9 t u b.m.u.e.7.3.6.9.3.",
"f.d.:.5.u.m.n.e t 7 8 K G W T R N N _._._.{.$X$XuXiXuX@X3X3X1X*X=X>XrXFXHXPXIXIXIXIXUXcX] ' ' ' Z m n S 8 8 e n.t.r.7.2.3.6.3.9.",
"f.f.f.;.5.e.e.i.<.5 e y Y ~ ~ E &X(.(._.).{.OX5X,X5X5X3X<X2X2X:X-X9XeXxXJXLXIXIXIXIXLXzXI.I.gXI.L.I       > 2 s.7.3.3.-.-.h.d.d.",
"f.f.f.z.c.e.i.u.i.b.e V.^ ~ ~ Q &X(.(.).oX.X4X4X5X,X@X3X6X2X2X>X0XeXxXcXJXUXIXIXIXIXUXCXzXlXBXlXgX) 1   > > 2 4 4.8.7.-.2.f.g.d.",
"l.-.-.z.;.e.y.u.u.m.Z.J.J.^ Q E &X(.].1XXX4X%X+XOXOXOX<X1X2X2XtXyXxXcXGXUXLXLXIXLXLXAXSXNXNXNXNXlXP.9 1 1 2 5 0.w.4.6.2.z.z.g.h.",
"l.l.f.h.;.c.c.y.M.m.Z.J.Y ~ F F N C `.2X%X8X%X%XXX.X.XXX].>X0XtXyXxXvXNXCXAXLXLXLXAXAXAXSXVXVXBXQ.P.v v k r 5 0.0.4.5.5.z.z.h.z.",
"l.l.2.f.;.;.>.e.u.M.Z.J.U P H n N C =X2X2X%X%X%XoXXX'.'.'.`.qXwX[ xXzXNXCXCXAXAXAXAXAXSXSXVX/.Q.R.G.G.A.D.D.a.t.w.w.5.;.z.z.h.z.",
"2.2.2.-.:.;.>.>.c.M.C.C.B.L 6 6 M T &X=X[.'.%X'.'.'.'.'.`.`.-X9X] gXlXzXVXVXMXVXVXVXVXVXVX/.!.R.G.G.F.F.F.D.D.u.i.i.e.5.c.z.;.;.",
"3.2.2.-.-.:.:.;.>.,.M.M.v.0 8 8 F n B N (.`.`.'.'.'.'.'.'.`.=X-X! ] [ W.E.!.!.!.E./.!.!.!.R.R.P.G.G.F.F.F.F.N.u.w.e.h.e.5.;.-.5.",
"3.3.2.-.-.:.:.d.>.>.,.M.v.w 8 8 A A n B N N (.'.'.'.'.}.].`.`.=XK / { ` Y.T.T.E.T.E.E.R.R.U.Y.P.P.P.P.G.F.F.D.N.r.e.e.5.c.5.;.;.",
"2.2.2.z.f.f.g.h.f.>.e.i.b.2 w > 6 6 D F T R (.(.].].XXXXoXoX;X>X! ' / ` P.Y.T.T.T.E.T.T.Y.P.Q.Q.Q.lXQ.U.U.F.F.a.a.r.6.z.z.5.;.e.",
"7.2.5.2.z.f.f.f.f.z.r.u.0.b.e e 0 L L P E E R N (.].XX+XXX1X;X;XqX' ] ] $.Y.T.T.E.E.E.R.Y.Q.Q.lXNXNXBXlXU.P.F.D.a.6.5.z.z.;.;.5.",
"2.5.2.-.2.f.f.f.l.3.6.a.q.q.n.r B.U Y ^ ~ Q T N (.].1X4X4X1X1X2X0X9X{ [ ` Y.T.!.!.!.!.R.Q.jXzXvXJXUXCXzXlXP.F.D.A.8.9.6.7.;.7.;.",
"2.-.-.;.f.f.2.2.3.9.a.S.D.v v F.u L.L.] ^ Q m M C [.].%X1XoX1X;X0X9X] [ Y.Y.~.E.!.!.E.W.W.jXvXJXJXUXJXvXlXU._ F.D.q.1.9.w.e.7.w.",
"h.h.d.-.f.2.2.7.7.1.1.h l l v z v ) L.) ] ' K V V Z [.[.;X].;X;X-X9X] [ I.Y.Y.Y.Y.Y._ ` [ jXbXDXJXJXmXbXkXW.b z l k 4 s.p.p.0.4.",
"j.d.:.d.l.2.3.7.1.S.h h f s s x a x b ) ) ] ' ' Z Z [.[.`.(.=X=X! ! ' ] I._ Y._ b c x c ( [ fXbXvXvXbXkX*.&.( x s 3 3 s.1.s.q.p.",
"d.j.d.d.f.x.7.9.1.S.h f a & & p i x x ( [ [ [ eX' Z Z C (.`.C &XR W ' ) ` ` _ b c x = = x / { fXkXfX*.&.$.@.c p , , < 3 4 q.q.a.",
"g.j.d.d.l.l.9.1.S.h f i i & & * & = x ` [ jXjXfXwXqXZ C C C C M M W K ) ) _ b x x = X o o : / { ( &.@.@.@.( ; = . . 1 1 3 1.q.a.",
"d.g.d.g.h.5.5.a.S.k f p % % - } - ; o.$.~.Q.lXcXgX[ ' ' m o S S 8 8 7 t u v u x X X o + @ : @ : ; ; ; ; ; - @ % $ . , 1 3 1.p.a.",
"g.j.d.g.h.-.6.8.S.h f p * % - } ; | @.$.~.kXvXvXxXfX{ / K m m S 8 7 7 t u u x 1 X X + o + : @ @ @ @ @ @ @ # O O $ . , 3 4 1.p.p.",
"g.d.g.d.-.-.2.8.a.h f i * - - } | o.#.T.kXzXmXvXbXjXfX{ / / ) K 9 t t r v v k s , X + + + : @ @ @ # @ @ # O + $ . , < 3 1.q.p.4.",
"g.g.g.g.-.2.7.4.9.S.3 a p * - } ..+.%.^.MXZXmXvXkX~.$.{ ( / v ) u u y n.N.n.r l , = + + + @ # # # # # @ O O $ & i a k q.q.8.3.7.",
"g.k.h.;.5.2.3.3.9.1.h g p p - X.o.#.^.MXKXKXmXmXkX*.@.@.c c v F.n.n.n.n.a.a.q.k a i $ + O # # # # # O O O $ & i f f A.a.9.3.2.2.",
"k.k.h.h.x.2.3.3.9.9.S.h g p d - o.%.^.ZXKXKXKXZXkX*.@.o.o.b b b D.n.q.a.8.8.q.h f i & O O O # # O O % % * * i f k A.q.8.6.2.2.l.",
"g.g.h.2.2.7.2.3.3.9.9.A.g p p - d #.=.MXKXLXKXZXnX=.O.o.X.d b z A.A.q.a.7.9.9.1.3 i & $ O O O O % * * p p a a k q.q.8.7.2.l.l.l.",
"g.g.;.5.2.3.3.2.3.9.9.S.h g p * - o.%.nXZXKXZXMX=.#. . .X.d d d z k S.1.9.3.s.1.3 < . $ . $ . & & p g s l k 4 q.p.w.5.-.-.f.l.l.",
"g.;.2.2.3.3.3.2.2.x.9.1.h g p p % d o.%.^.nXnX=.=.#. ...O.X.X.d j k A.S.9.3.7.1.4 < , , i , i , 3 f l A.A.S.1.4.7.;.h.f.f.f.z.x.",
"g.;.;.2.x.3.x.x.2.x.3.1.1.h f a * * d c @.%.%.%. . . .....X.X.d g z A.S.9.x.3.8.q.4 3 f f < 3 3 4 4 S.S.a.p.6.5.2.g.h.f.f.-.f.x.",
"h.f.2.l.3.x.x.l.f.l.3.4.S.S.h g s p p = - c ; | ..} } } } X.- d g l A.S.9.6.7.8.p.4 k k k A.q.q.1.9.9.a.9.x.f.-.h.d.h.g.f.-.5.x.",
"h.f.f.-.l.l.l.f.f.2.2.4.S.S.A.S.l s i & & % % % - # - - - - * * f h h S.p.6.6.4.a.a.q.q.n.a.q.4.3.9.x.6.2.2.-.f.d.f.d.f.-.z.5.5.",
"j.f.f.f.-.f.l.f.-.:.-.7.9.1.S.A.v k < , . & & * % * * - * * i i 3 4 q.p.6.5.x.6.r.a.q.a.1.8.3.3.x.x.9.x.2.-.f.f.j.f.j.f.-.-.2.5.",
"j.f.f.j.d.:.d.f.d.-.-.z.3.8.9.a.a.A.k a a i i p p p p p a i < a 4 1.1.4.z.z.z.5.6.9.p.8.4.3.3.l.9.x.3.l.2.2.-.f.f.f.f.f.h.-.2.2.",
"j.j.j.j.j.j.d.d.d.h.z.z.6.r.6.4.a.A.D.z j x d g z g g g g l l v 0.q.4.6.2.f.-.-.6.r.9.8.3.7.x.x.3.2.2.3.3.2.2.f.l.f.f.f.f.-.2.-.",
"j.j.j.j.j.j.d.d.g.h.c.c.e.e.7.7.a.A.D.v z z z z z G.z g l z l v w.w.6.5.f.-.-.-.3.6.p.9.9.3.x.x.7.7.7.3.3.3.2.2.-.f.f.l.l.z.2.-."
};
