/* XPM */
static char *result[] = {
/* columns rows colors chars-per-pixel */
"64 64 256 2 ",
"   c #113608",
".  c #322F38",
"X  c #312A1F",
"o  c #55150D",
"O  c #661110",
"+  c #4A3A07",
"@  c #553903",
"#  c #51280A",
"$  c #692A04",
"%  c #683704",
"&  c #76370C",
"*  c #561225",
"=  c #481330",
"-  c #522B32",
";  c #6F3333",
":  c #6C1C24",
">  c #345106",
",  c #196D19",
"<  c #357410",
"1  c #165939",
"2  c #104F32",
"3  c #2F4D32",
"4  c #1C6838",
"5  c #196A2E",
"6  c #26772A",
"7  c #267839",
"8  c #2D6C34",
"9  c #0F5011",
"0  c #4A4A06",
"q  c #574602",
"w  c #4A5805",
"e  c #52550E",
"r  c #6D4C0D",
"t  c #486809",
"y  c #47780B",
"u  c #496917",
"i  c #477A15",
"p  c #557014",
"a  c #4F5131",
"s  c #714D2E",
"d  c #507629",
"f  c #6E7234",
"g  c #6A6E14",
"h  c #391A4B",
"j  c #0C3958",
"k  c #143B59",
"l  c #14334F",
"z  c #25395A",
"x  c #383A58",
"c  c #342D4A",
"v  c #173B68",
"b  c #163B78",
"n  c #10396E",
"m  c #263779",
"M  c #2E3869",
"N  c #4A3B4B",
"B  c #6B3B44",
"V  c #431843",
"C  c #164947",
"Z  c #185749",
"A  c #0D4856",
"S  c #154959",
"D  c #165758",
"F  c #0D504A",
"G  c #2A4E54",
"H  c #186647",
"J  c #1B6B50",
"K  c #246946",
"L  c #277945",
"P  c #287557",
"I  c #376D52",
"U  c #164769",
"Y  c #174478",
"T  c #124C6B",
"R  c #384969",
"E  c #284372",
"W  c #324F6D",
"Q  c #2C6965",
"!  c #1F6769",
"~  c #474A5A",
"^  c #515153",
"/  c #6C5553",
"(  c #546F50",
")  c #6F6B4F",
"_  c #465764",
"`  c #585B67",
"'  c #48536F",
"]  c #53696C",
"[  c #77786A",
"{  c #6D7072",
"}  c #645C64",
"|  c #88270D",
" . c #893014",
".. c #90352F",
"X. c #B03130",
"o. c #A82C1C",
"O. c #C43337",
"+. c #844719",
"@. c #8E4A29",
"#. c #AB5138",
"$. c #9C7034",
"%. c #8A5553",
"&. c #8A7555",
"*. c #995D63",
"=. c #8C716E",
"-. c #AF6257",
";. c #C96959",
":. c #1D9E03",
">. c #1D9D0B",
",. c #189C04",
"<. c #1E9C16",
"1. c #3B880B",
"2. c #239D04",
"3. c #2A9B03",
"4. c #239C0B",
"5. c #2A9B0B",
"6. c #289607",
"7. c #35950A",
"8. c #278A1B",
"9. c #3B8A15",
"0. c #249B13",
"q. c #2C9B12",
"w. c #26961B",
"e. c #2A941C",
"r. c #2A9A1B",
"t. c #279717",
"y. c #349413",
"u. c #379418",
"i. c #15A301",
"p. c #1CA203",
"a. c #1CA20A",
"s. c #1AA801",
"d. c #1BA114",
"f. c #23A103",
"g. c #22A10A",
"h. c #28A203",
"j. c #21A016",
"k. c #2B8928",
"l. c #378B26",
"z. c #2B9424",
"x. c #2A932B",
"c. c #269723",
"v. c #339727",
"b. c #2A8736",
"n. c #299334",
"m. c #348D37",
"M. c #1F8230",
"N. c #44880C",
"B. c #448316",
"V. c #488C0F",
"C. c #4A8D2F",
"Z. c #708A35",
"A. c #2A8443",
"S. c #2E894D",
"D. c #548D4B",
"F. c #728950",
"G. c #788B6D",
"H. c #699964",
"J. c #8F9037",
"K. c #8F924A",
"L. c #A69E47",
"P. c #95A751",
"I. c #AEAB53",
"U. c #8A9073",
"Y. c #AD8376",
"T. c #90A674",
"R. c #B2B66A",
"E. c #CF856D",
"W. c #DBA273",
"Q. c #C7CB77",
"!. c #BACD7E",
"~. c #173888",
"^. c #1A2C9B",
"/. c #1A3898",
"(. c #112F87",
"). c #263886",
"_. c #243D9B",
"`. c #273896",
"'. c #2C3490",
"]. c #1B36A9",
"[. c #1C3CB4",
"{. c #1C39B6",
"}. c #1332A3",
"|. c #233CAC",
" X c #273BA5",
".X c #243DB4",
"XX c #293DB4",
"oX c #233DBB",
"OX c #283DBA",
"+X c #313FA2",
"@X c #194387",
"#X c #1C4497",
"$X c #274389",
"%X c #384889",
"&X c #22429C",
"*X c #294499",
"=X c #384996",
"-X c #3D509C",
";X c #1E42BA",
":X c #1E42B4",
">X c #1E44A9",
",X c #2343A4",
"<X c #2443AD",
"1X c #2B44AC",
"2X c #2843A5",
"3X c #2342B4",
"4X c #2342BB",
"5X c #2947B6",
"6X c #3A56B7",
"7X c #324EA9",
"8X c #3B60BB",
"9X c #485599",
"0X c #475090",
"qX c #50638A",
"wX c #6E758F",
"eX c #455AB0",
"rX c #5B6AA9",
"tX c #6D78B0",
"yX c #243DC3",
"uX c #283CC7",
"iX c #1F3DC1",
"pX c #1D42C4",
"aX c #2442C4",
"sX c #3453C5",
"dX c #405EC4",
"fX c #AF7D81",
"gX c #807E81",
"hX c #75898C",
"jX c #7788A7",
"kX c #7683B9",
"lX c #858888",
"zX c #94958F",
"xX c #B0928F",
"cX c #96A78E",
"vX c #A8AF91",
"bX c #99A9AB",
"nX c #B4B1B0",
"mX c #9093A8",
"MX c #EEAE95",
"NX c #DAA591",
"BX c #B9C58D",
"VX c #B7C6B3",
"CX c #D3D68F",
"ZX c #CBCDB3",
"AX c #E9EDAE",
"SX c #E6E69E",
"DX c #ABB8D2",
"FX c #9EABD4",
"GX c #CDD1D3",
"HX c #ECF7CF",
"JX c #CDDAF0",
"KX c #DBEAF5",
"LX c #E9F8F9",
"PX c #EBF9F0",
"IX c #D9EBD1",
"UX c #B6C6E8",
/* pixels */
"4.>.>.>.4.p.a.p.p.p.i.p.i.i.a.a.0.w.0.0.0.4.0.4.0.j.j.q.<.<.d.j.d.d.d.0.4.4.2.3.2.2.2.2.p.f.g.g.g.4.:.,.:.p.p.p.i.i.i.s.s.s.f.p.",
"4.>.>.>.:.:.p.:.p.,.,.,.>.a.a.a.<.c.0.w.t.w.w.w.c.c.r.r.c.<.c.j.d.d.d.d.0.4.4.2.2.2.:.p.g.f.g.g.4.>.:.:.:.p.p.p.i.i.i.s.s.f.p.p.",
":.:.:.:.p.>.:.,.:.:.,.>.>.a.d.a.<.<.c.d.c.c.x.n.x.n.n.n.n.n.x.x.c.d.c.j.t.q.5.5.2.2.2.f.f.g.g.g.6.:.:.:.p.f.f.f.i.i.p.i.p.p.p.f.",
"p.f.:.:.:.>.4.>.4.<.0.0.r.r.r.r.c.c.c.M.b.M.M.A.7 A.L b.7 b.b.b.n.c.n.c.z.e.t.5.5.2.2.2.2.:.4.>.:.:.2.2.f.f.f.p.p.p.p.a.p.:.2.f.",
"f.s.p.p.>.>.4.0.r.z.z.z.v.v.v.x.n.n.n.n.M.H H H H H F H H 1 H K M.b.b.m.x.l.z.e.t.5.4.g.6.>.4.>.6.>.3.g.f.f.:.:.p.a.a.a.:.:.2.3.",
"f.g.g.>.0.t.c.c.x.x.k.b.b.b.b.b.A.n.A.A.J H F F A A A A A F Z Z 4 4 L 7 b.m.n.l.e.t.t.0.0.4.t.6.t.6.5.5.5.4.:.:.4.a.a.4.2.4.4.5.",
"4.>.0.w.c.x.n.m.b.7 7 8 4 4 4 4 H H J J D T T T T T Y T T U U U H D J K K K 7 b.b.z.c.w.w.w.e.t.e.z.r.e.5.5.4.>.4.d.g.g.g.5.5.5.",
"w.w.c.x.b.b.L L P K Z Z Z Z C C A D D T T T Y Y @X~.@X@X@X@XY b T S S C Z K K 7 b.b.x.k.z.z.z.z.k.k.z.e.e.t.t.0.0.g.j.0.g.5.5.5.",
"x.k.n.b.7 L K J Z D S U S j A j n U Y Y @X@X#X#X&X&X,X,X+X^.'.'.Y Y U U U A Z H H L b.A.m.m.m.b.M.5 , M.8.w.e.r.0.0.0.4.4.4.5.5.",
"b.b.7 4 H Z Z S U U U Y Y b b b ~.~./.#X#X#X,X,X<X<X<X<XXXXXOX^.).@X).~.b T T D J J P S.S.L b.7 4 5 5 9 , , 8.r.0.0.4.0.5.5.6.6.",
"7 7 4 1 1 F A U Y Y @X$X&X#X#X,X X|.<X2X:X<X>X>X5X<XXX.XXXXXXXXX X+X*X&X#X@XT T T ! J P I P K K Z 2   2 9 , 8.t.t.0.4.>.4.4.5.3.",
"4 1 1 2 C A A U Y $X&X,X2X1X1X5X5X4X4X3X4X:X3X:X>X:X.X.X.XXXOXOXXXXX1X1X>X#X#X@XT T T ! ! J G C C C 2 2 9 , , 8.t.0.>.6.4.5.5.4.",
"2 2 1 F F A T Y @X$X,X2X<X3X3XXXoXoXoXoX[.3X:X:X5X:X3X3XOXXXXXOXXXXXXXXX|.|.>X#X#X@XT T T T S U G z 2 2 2 , 6 8.t.4.4.g.g.g.5.5.",
"5 1 1 F F T T Y @X#X#X,X<X|..X.XoXoXoXoX:XoX;X3X;X3X.X|.^.XX^.XX+XXXXXXX.X.X5X>X>X#X@X@X@X@XE Y z S G 3 8 8 8.9.t.4.4.4.g.g.j.5.",
"J J H H F A A Y @X#X#X|.|..X4XOX3X3X3X4X4X:X:X:X[.[.].].^.^.^.^. XXXXXOXOX4X4X;X;X>X>X8X#X$X$XE z G G _ ( S.l.8.6.6.2.>.>.4.4.4.",
"S.S.J J D S T T @X~._./.|.|.{.|.:X:X:X;X:X;X[.:X[.].].}.^.^.^.'.^. XXXOXyXoX4X;X;X8X8X8X8X-X=X@Xz M I ] D.D.C.u.t.6.:.:.4.>.4.>.",
"S.n.S.M.M.M.J J D U E ~./.}.}.{.{.{.4X4X3X3X[.|.^.^.].'.^.'.'.m ).'.`. X3XoX;X;X;XsXdXdXeX6X7X+Xm R ' ] H.D.m.u.y.4.>.:.>.0.4.>.",
"S.n.n.M.A.A.P J ! W Y (.(.}.{.oX{.yX;X4X4X[.[.[.}.].^. X'.'.%X'.%X'.`._.|.:X[.:X;XpX6XsXsXeXeX5X%XR W ] D.D.C.z.q.5.4.2.2.4.0.4.",
"n.n.n.n.m.S.S.Q W U b (.}.}.{.yXyX4X4XaX[.{.].].^.^.`.`.'.=X0X0X%X'.).^. X<X:X:X;X5X3X7X6X6XeXeX%X%XqXQ ( 8 l.y.y.5.2.2.2.4.4.4.",
"d.d.M.n.m.S.S.P ! T ~.(.^.].yXuXoX{.;X{.{.{.{.].|.^.^.'.=X0X9X0X%X%X).~._.<X:X3X:X>X3X1X1X6XeXdX-X=XE G K 8 6 8.q.q.4.2.2.4.2.2.",
"w.e.z.x.b.L K J U Y $X_.{.iXyXuX;XaXiXoX{.{.{.].].^.`.+X9X9XwXrX9X%Xm (._.,X|.].:X>X>X8X6XsXdXdX-X=Xm S C 4 6 8.u.q.g.2.2.3.3.3.",
"r.e.z.m.7 L Z S T Y #X3XoXuXyXuXaXyX{.{.{.{.{.].].`.`.'.9XqXtXtXrX%X).).`.&X,X>X5X5X:X;X5XsXsXsX7X#Xb A 2 1 6 k.v.q.q.5.3.h.3.h.",
"z.k.6 7 4 Z S T Y /.<X4XuXaXuXuXyXaXoX{.{.{.].].|. X`.*X0XrXkXjXrX9X).).*X_.,X<X<X5X5X5X5XsXsXsX7X&X~.j C 1 7 k.z.j.j.h.3.3.3.3.",
"D.7 L K Z S U @X/.>X.XaXyXuXuXuXuXyXyXoXoX.X{..X<X+X_.`.=XrXtXkXtX9X).m ).`.*X,X<X:X;XsX4XaXaXaX3X#Xb n S Z 7 m.v.r.q.3.3.3.3.3.",
"K I Z C S Y $X#X1X3X4XyXyXyXuXpXuXuXuXuXuXXXXX|.1X+X_.*X-XeXrXrX9X9Xm m m m ^.^. X].XX.XOXoX4XoX>X/.~.n A H 7 b.z.t.0.6.6.2.3.3.",
"G C G U U @X#X_.3X4XaXyXpXaXpXuXuXuXuXuX5XXXXX2X7X1X2X2X2X-XeXeX0X'.'.m ).'.'.'.`. X XXX.XoXoX.X]./.Y j F Z 7 b.k.e.t.0.6.2.3.3.",
"k k v m $X*X,X<X3X3X4XaXaXaXiXpXuXuXuXOX4XOX1X1X1X1X2X2X*X2X7X*X%X%X0X9X9X9X0X9X9X+X+X X X1X1X|.#X@Xb U C H 7 b.c.w.<.6.4.6.3.3.",
"l k v Y @X*X&X,X,X<X5X3X;X;X[.[.uXuXuXOXOX.XOX3X5X5X1X+X_.&X~.*X0XrXrXtXmXtXtXtXrX9X+X^.`._._.&X$XY v A 2 4 6 k.z.w.<.0.4.6.3.6.",
"j j v Y b @X#X#X#X#X>X#X<X>X}.>XOXOX{.pX{.4X4XoX5XXXXX+X`.`.~.=XrXkXFXFXUXUXFXUXFXtX%Xm b m E $XE b S C 1 5 6 k.w.w.0.0.>.2.4.2.",
"j j j n n Y b Y b @X~.~.~./.#X}.{.].[.{.oXpXyXyXoX|.XX X`.`.).=XtXFXUXJXJXJXKXJXDXkX' z l v m E U S G G 4 6 6 8.c.0.j.4.>.4.4.4.",
"l j j j j A n U T n b n b (.(.(.}.}.{.;X;XaXyXaXoX{.XX X_.`.).9XtXFXJXJXKXLXLXKXGXmX~ l l z G E l l C 1 8 6 k.e.0.0.0.a.>.>.4.2.",
"A S A S T T U T U T Y n n (.(.(.}.}.}.pXpXaXaXyXyX.XOX X=X=X%X9XjXDXJXLXLXLXLXLXJXbX` R x R W G l l 2 3 8 6 6 e.t.0.j.>.>.:.4.2.",
"8 6 5 5 7 P P P S.$XY ! @X(.(./._.].oXyXpXpXpX;X4X3X7X=X%XR ' ] zXnXIXKXPXLXLXPXIXnXU.[ U.G.G.( 9       9 < < 4.a.p.s.s.i.p.:.2.",
"b.b.b.b.A.S.S.Q ! ! ! $X@X~.~.`. X|..XaXyXpXiXoX:X<X7X-X0X' { [ vXVXIXPXPXPXPXHXIXZXxXvXvXT.T.H.3 X       , , :.0.s.s.s.i.p.2.2.",
"l.x.n.m.A.S.S.S.S.! T Y Y @X`._. X XXXOXyXoX.X].,X*X=X0XqXwXzXbXBXZXIXHXHXPXPXHXIXZXCXCXCXBXBXP.d 3 9 > , < k.j.>.i.i.s.p.p.2.2.",
"w.z.c.c.n.n.A.A.J ! S U Y ~.*X2X+X2X1XXX.X|.].^.`.$X0XqXqX[ zXBXCXCXAXAXAXAXHXHXHXAXSXSXCXBXR.H.F.C.d 6 6 l.t.j.>.a.s.a.p.f.2.2.",
">.>.<.w.z.x.b.L H Z S S E $X*X*X_.=XXX+X X`.).m m m ' ' } [ U.T.Q.Q.SXSXAXAXAXAXAXSXSXCXQ.R.P.J.Z.C.C.C.u.c.r.j.>.a.a.p.f.f.p.f.",
"i.a.,.>.<.w.k.b.4 1 C l v m ).'.'.`.`.`.'.'.m m M x ~ ~ } ) K.Y.I.Q.Q.Q.CXCXSXSXCXCXCXQ.!.P.Z.Z.Z.C.C.C.v.v.j.j.d.a.a.g.p.f.p.f.",
"i.i.i.,.>.t.8.k.5 2 2 l k m m Y m m ).).m m M M M ~ ' ^ / ) f J.L.L.I.R.I.I.R.R.R.I.R.P.P.Z.Z.Z.C.C.C.v.v.r.j.j.d.a.g.p.:.a.p.p.",
"i.s.s.a.>.0.8.l.6 2 2 C S E E Y m m m m m m R ' ` ` { } ) ) ) &.$.J.L.L.I.L.L.L.L.K.P.P.K.J.Z.Z.F.Z.D.C.v.v.r.j.g.4.g.2.>.:.>.>.",
"s.s.i.a.>.0.e.k.6 8 1 3 G E %X%XM m E E R ' ' wXhXhX=.hX[ ) ) ) J.L.L.L.L.L.J.J.J.Z.J.J.K.F.U.U.H.P.H.H.C.v.y.5.6.3.h.5.5.g.>.d.",
"d.a.a.>.>.0.e.z.k.8 8 I _ Q S.qXqXqXqXqX] ' { hXmXzXzXlX{ ) ) ) $.L.I.I.I.I.J.J.Z.J.g f ) G.U.T.cXT.T.H.D.C.V.1.7.7.7.q.q.j.j.d.",
"i.d.i.,.5.t.y.e.l.m.L ( ] H.jXjXjXjXmXjXhXhXhXhXbXcXmXlX{ } ^ } K.T.Q.Q.Q.R.I.P.Z.f f f ) G.lXzXBXcXT.H.H.V.V.N.V.V.N.7.r.r.c.d.",
"d.i.,.,.4.6.t.u.l.m.D.D.H.hXjXjXbXnXDXVXbXzXlXU.zXzXlX{ { ~ ~ ` ) U.R.CXCXCXR.K.Z.a a a ( { U.zXcXcXlXP.Z.Z.Z.p V.V.V.1.u.r.0.c.",
"a.>.>.>.4.4.q.y.v.C.C.D.H.H.cXbXnXGXJXGXnXvXlX=.[ [ ] ` ' ~ ~ ' ) U.cXvXBX!.P.K.) a 3 - ^ ( { gXwX=.[ ) f f g g g p B.B.u.u.r.w.",
">.>.a.g.g.2.6.6.u.v.C.D.H.H.hXcXZXGXGXGXVXbXU.) ) ^ ~ N x M x ~ ( G.G.cXvXT.F.( a . . . c ~ ~ ` / / / s @.+.+.g g p p i B.u.e.t.",
">.>.a.2.2.2.6.6.u.V.C.C.D.F.U.cXnXnXZXnXnXxXU./ ^ . . c N M M ' I ] [ G.G.[ } ^ 3 c c c c c c c - ; ; @.+.+.+.r r t u y B.u.u.y.",
">.a.:.2.:.2.2.7.u.B.B.d C.( [ U.mXnXnXnXvXU.[ ) a . X h M h x M R _ ] ( } ( ^ ^ N x x c c c . . - - ; ; ..+.+.r r r w t 9.9.u.y.",
"f.h.h.4.>.6.6.6.7.1.< y e a f %.=.xXfXfXfX;.*.%.; V = V h h h M G R R _ W _ ] } } } } B N - - = : ; ....X.O.X.o.| : q w i V.7.7.",
"2.f.h.g.2.>.>.6.7.y.y < > e e a %.=.*.*.*.*.%.B : = = = h h h M c x R G _ ] { { gXgX=./ B - - - ; ....X.O.O.X.o.| $ @ w y V.1.7.",
"2.f.g.g.4.6.3.6.7.1.1.t > > + + ; ; ; ; B ..B : * * = = = h h h c c x ~ ` { lXmXxXfX=./ B - ; a ; ....X.O.O.O.o.| $ # 0 y N.7.7.",
":.f.g.g.4.2.6.6.7.7.1.< > > + X # - # o : : : : : o * * = = = = c c N ~ } U.zXvXnXxXfX=./ %.%.%.%.#.-.O.O.O.O.O.| $ @ 0 t N.N.7.",
",.:.g.g.4.2.2.6.7.7.1.y > > > + # o # o O O O O O O O * * * = = . - ~ } [ =.zXxXxXxXxXfXY.=.E.xX;.;.;.O.O.O.o.o.| $ q w < N.7.7.",
",.p.p.a.2.4.2.6.6.7.1.1.< < > > + # # o o O O O O O O O * o * = - ^ ^ ) [ [ =.Y.fXxXNXNXNXNXNXNXMXNX;.;.O.O.o.o.| & q w y 1.7.3.",
"p.i.p.2.g.4.3.3.3.7.7.7.1.y < < 0 0 q # % $ O O O o o o o o X o a a ) / / ) / %.*.-.fXNXNXMXMXSXMXMX;.#.o.o.o.|  .r e t N.7.7.h.",
"p.p.:.>.2.2.2.3.3.3.7.7.y.y.1.< u u e e q @ # # o o o # # # # + a a d a s r s ..%.*.;.;.NXMXMXMXW.;.;.o.+.|  .r r r e y B.7.7.h.",
"p.p.,.:.4.h.5.h.3.2.2.3.6.q.7.7.B.i i u u e 0 @ @ @ + + 0 0 0 w u p e e + @ & ....X.#.#.;.;.E.E.;.$.@. .& $ r r e p i B.9.6.5.:.",
"p.p.:.:.2.2.h.f.2.2.2.2.2.5.6.6.y.y.9.B.i t t w w w t t u > < u p u p w q # $ &  ...o.X.#.-.#.#.@.+.r r % q e e p i B.9.q.5.g.:.",
"g.p.:.:.2.g.2.f.2.p.:.:.:.:.,.,.5.q.y.u.9.< B.i B.B.B.B.< < 9.i i B.y t w @ $ $ | | | |  . .& & r r @ q w w t u i B.u.u.q.4.a.p.",
"g.p.2.p.2.f.2.:.:.:.:.p.p.:.:.,.2.g.g.q.y.y.9.u.u.V.u.V.u.u.u.u.7.1.N.y t w q % % $ $ $ % @ q q w q w w t y < 9.9.v.e.e.4.:.p.,.",
"p.p.f.2.f.:.2.p.:.:.p.p.g.p.p.:.i.,.f.3.5.5.q.7.y.q.7.h.5.5.5.6.6.3.7.1.y t w w q + # @ @ q w q w t t y < 9.9.9.y.u.q.5.2.2.p.p.",
"p.p.p.p.2.2.2.:.g.a.g.2.g.f.2.2.p.p.:.f.h.5.h.2.h.g.h.g.2.2.4.2.3.3.3.y.1.1.< t w e 0 w w w t t y N.N.V.9.y.q.q.q.q.q.5.2.p.p.s.",
"p.p.p.2.p.2.g.4.g.g.:.>.2.3.f.h.h.f.f.f.g.f.2.2.p.p.f.p.:.p.:.2.3.3.6.7.y.9.< y p u p g t t y y N.V.N.7.q.6.6.6.4.5.5.3.h.f.f.s.",
",.p.p.p.:.2.f.g.g.4.6.:.:.2.3.h.h.h.h.h.3.2.2.:.p.p.p.p.p.:.:.:.2.3.6.6.7.9.9.i p C.d C.p y y N.1.7.y.q.q.6.>.>.6.6.3.3.f.f.f.f."
};
