/* XPM */
static char *result[] = {
/* columns rows colors chars-per-pixel */
"32 32 241 2 ",
"   c #245C37",
".  c #563974",
"X  c #66326E",
"o  c #225647",
"O  c #2A5C5C",
"+  c #1C6A5D",
"@  c #26665B",
"#  c #37774A",
"$  c #1B5769",
"%  c #1B537C",
"&  c #1D5D7A",
"*  c #2A4E76",
"=  c #394A7D",
"-  c #285578",
";  c #33537C",
":  c #2A5567",
">  c #1F6372",
",  c #286775",
"<  c #2B7671",
"1  c #346A66",
"2  c #735959",
"3  c #534B7B",
"4  c #6D4570",
"5  c #536A70",
"6  c #416D52",
"7  c #83387D",
"8  c #8D5A7B",
"9  c #A47F79",
"0  c #957975",
"q  c #3B896E",
"w  c #518D4F",
"e  c #429272",
"r  c #64887C",
"t  c #57A978",
"y  c #52A976",
"u  c #6CAE73",
"i  c #75FA47",
"p  c #79F947",
"a  c #7DF54C",
"s  c #75FB4C",
"d  c #7AF94B",
"f  c #79F646",
"g  c #7AFB54",
"h  c #79F758",
"j  c #5BC07C",
"k  c #79F467",
"l  c #7BEC7A",
"z  c #7DF37B",
"x  c #73CA69",
"c  c #8FEE3D",
"v  c #9CE83C",
"b  c #B1E53D",
"n  c #82B95B",
"m  c #948E6D",
"M  c #8CB56F",
"N  c #B5B574",
"B  c #898B5A",
"V  c #CA9D67",
"C  c #D29D61",
"Z  c #D38B72",
"A  c #E0857B",
"S  c #C6BA64",
"D  c #B3D75E",
"F  c #85ED4D",
"G  c #98EF45",
"H  c #84F54B",
"J  c #89F44B",
"K  c #82F145",
"L  c #96F34D",
"P  c #8AEB57",
"I  c #96EB5B",
"U  c #83F256",
"Y  c #93F058",
"T  c #A4ED47",
"R  c #A5F348",
"E  c #A6EA56",
"W  c #AAF854",
"Q  c #B7F85B",
"!  c #B8EE4F",
"~  c #94D371",
"^  c #A9D869",
"/  c #A9D978",
"(  c #AFC67B",
")  c #84EE6A",
"_  c #98E66A",
"`  c #84F366",
"'  c #89EB7B",
"]  c #91EF74",
"[  c #A4E969",
"{  c #B4F579",
"}  c #B2EE6E",
"|  c #CBFE5C",
" . c #C7FB57",
".. c #D4FE5E",
"X. c #D9FF5E",
"o. c #CAF44F",
"O. c #D8C66C",
"+. c #C7D06C",
"@. c #C9E966",
"#. c #CAFA64",
"$. c #D3FE65",
"%. c #DBFE64",
"&. c #DAFA6C",
"*. c #DAFD74",
"=. c #E3FE6A",
"-. c #E3FF63",
";. c #E5F379",
":. c #3D3E90",
">. c #5E3697",
",. c #4E3696",
"<. c #65368A",
"1. c #6C2C98",
"2. c #683595",
"3. c #733C90",
"4. c #742C8D",
"5. c #592EA4",
"6. c #4C3AA5",
"7. c #5836A7",
"8. c #6D2CA3",
"9. c #7629A4",
"0. c #6935A2",
"q. c #733EAA",
"w. c #1D5486",
"e. c #1E4E97",
"r. c #1E5295",
"t. c #2E4D8C",
"y. c #2E4D84",
"u. c #394A85",
"i. c #23548D",
"p. c #245585",
"a. c #365186",
"s. c #294E98",
"d. c #24539B",
"f. c #275295",
"g. c #314D97",
"h. c #2C6688",
"j. c #1F4EA6",
"k. c #1E50A7",
"l. c #234EA5",
"z. c #2A4CA4",
"x. c #244DAA",
"c. c #2A4BAB",
"v. c #2351A4",
"b. c #2251AA",
"n. c #2851A6",
"m. c #264DB1",
"M. c #444785",
"N. c #454394",
"B. c #544A8F",
"V. c #744B8B",
"C. c #436E8F",
"Z. c #7C6888",
"A. c #7965B6",
"S. c #5E4CAB",
"D. c #8338A5",
"F. c #9437AA",
"G. c #974F97",
"H. c #966C91",
"J. c #AA6C8A",
"K. c #945BBA",
"L. c #9370AF",
"P. c #A665A7",
"I. c #AA4DA8",
"U. c #CD75B0",
"Y. c #B158C2",
"T. c #AD79C4",
"R. c #CE75CB",
"E. c #398386",
"W. c #489686",
"Q. c #518F8A",
"!. c #53A789",
"~. c #5FBD89",
"^. c #6FA98A",
"/. c #749FA5",
"(. c #5583A4",
"). c #71C797",
"_. c #74D48C",
"`. c #7CE786",
"'. c #7CEE89",
"]. c #7CD6A0",
"[. c #878D8C",
"{. c #B39492",
"}. c #A1AB83",
"|. c #ACA88E",
" X c #B488AD",
".X c #A792B3",
"XX c #BFAABB",
"oX c #90BA88",
"OX c #CC8C8B",
"+X c #D78888",
"@X c #C3918B",
"#X c #CB8498",
"$X c #D28C93",
"%X c #DA8595",
"&X c #D29497",
"*X c #E3848D",
"=X c #E28691",
"-X c #CDA88D",
";X c #DA84A7",
":X c #C784B9",
">X c #DF84BB",
",X c #CE85A7",
"<X c #E082A7",
"1X c #D6B1B3",
"2X c #E0A9AF",
"3X c #8DDC98",
"4X c #92DB8F",
"5X c #A3DE8B",
"6X c #A5CB8C",
"7X c #8AED89",
"8X c #86EB8D",
"9X c #A9E784",
"0X c #BFF992",
"qX c #A8CDBB",
"wX c #C8F78A",
"eX c #D8F989",
"rX c #C9F99C",
"tX c #CDE892",
"yX c #D2D4B8",
"uX c #CCF5A8",
"iX c #D0EAB4",
"pX c #D1F4B1",
"aX c #E6F3AF",
"sX c #D9D0A0",
"dX c #AF91CE",
"fX c #89B4C4",
"gX c #D383C2",
"hX c #BAE4D6",
"jX c #ECDFDC",
"kX c #F6CFD4",
"lX c #DFF7C5",
"zX c #F3FED5",
"xX c #E8EECB",
"cX c #E9CDF9",
"vX c #E9D9F5",
"bX c #F7E5E8",
"nX c #FAFBE7",
"mX c #FFFBFC",
"MX c #FFF2FD",
"NX c #F1E6F0",
"BX c #D4C6C5",
/* pixels */
"c.c.x.x.c.k.k.j.l.v.n.v.x.v.n.z.t.t.; - t.d.v.x.x.x.x.l.d.s.t.a.",
"c.c.c.x.x.k.x.l.l.n.v.j.v.v.d.f.y.* ; C.C.h.f.n.l.x.l.n.l.t.a.; ",
"c.c.z.l.v.b.b.v.d.z.v.v.k.d.i.p.* : 1 /.fXC.w.w.v.v.d.v.d.t.y.= ",
"c.z.c.z.x.b.b.l.l.l.j.k.r.r.p.- : 5 Q.qXhX/.- % f.d.d.v.s.t.y.; ",
"x.l.l.x.x.b.x.l.n.d.n.e.e.w.$ : 6 m 6XlXiX^.O $ & r.f.d.s.t.a.u.",
"v.l.j.l.b.b.k.l.n.v.d.i.p., 1 O w 6XuXaXtXu # @ , , w.r.s.g.a.u.",
"k.k.b.j.x.k.l.v.d.f.w.w.h.Q.^.t n ^ wXeXwX~ u y !.E.& w.p.a.a.a.",
"d.v.b.k.k.k.e.d.w.w.& , W.).3X3X^ ^ @.&.*.} ~ 4X].!.< $ - - ; a.",
"d.v.v.b.b.b.d.r.& $ < W.~.].7X' [ } @.=.=.} _ ' '.).t q $ : : ; ",
"v.v.x.x.x.v.d.p.$ + q _.'.`.) ` ! #.&.=.%.Q _ ) '.`._.t < @ : : ",
"x.c.x.x.x.v.w.- q q j '.'.k h U E #.=.=.%.Q Y k k z '._.y q 1 O ",
"m.m.m.m.b.k.w.> E.).'.z k h U a R  .%.-...W L g k k l l _.u 1 o ",
"m.x.c.z.v.i.% > !.'.7Xk h h H K R Q X.-.| W J f g h k ' 7Xx # o ",
"c.c.l.s.f.w.& @ e `.z k g g a H R  .X.X.| W J f s g h ` ' u #   ",
"z.z.g.t.* - , e j l k h s g d H T R  .X.| W H f s s g ` ' x w w ",
"g.g.t.= * , Q.~.`.l k h s s p H v b o.| #.W H i s i f U ) x ~ _.",
"3 3 B.B.5 5 ^.4X7X` h g s i i p c v b o. .W H s s s a J P _ 5X5X",
". 3 H.[.[.[.oX5X] k h g s i d p c v b o.| W H g s p K J P I ~ 5X",
"4 8 J.|.|.M 6X/ _ P h s s i p p G T ! o.| W J s g a J J I [ 9X9X",
"9 9 {.@X@X|.N / ^ ) H s s i p a G W  .X.#.W J a d U P E 0XwXrXuX",
"U.*X*X+X@X{.N N ^ P F K p p i d L Q $.%.#.W F F U Y [ 9XrXpXiXiX",
"U.A =X*X$XOX9 B M ^ I K K p p a R | %.%.#.W L F ` [ rXpXlXiX|.[.",
"*X*X*X%X<XU.8 2 B ( E I J H H a L Q &.*.$.W Y P _ 9XuXxXjXXXZ.X ",
"=X*X%X;X>XU.G.4 m tXwX} [ P P P E ! @.*.*.#.I I _ / }.{..XH.3.. ",
"$X#X;X;XgXR.G.4 {.yXaXrX0X/ _ [ D D O.;.;.@.D / ( m 2 4 X D.4.<.",
"H.J.P. XT.K.G.3.H..XyXlXlXuXrXuXtX+.S S O.O.+.N N 0 X X X 9.1.1.",
". V.L.dXK.q.8.0.<.V..XNXnXnXzXlXaXV V C C C V V {.8 7 7 1.9.8.q.",
". B.A.A.S.7.5.7.,.>.dXNXmXmXnXjX2X-XZ Z Z Z Z Z U.U.I.F.D.9.8.8.",
"3 M.N.S.6.6.7.7.5.0.dXcXMXMXjX1X2X@XOXA A A A *X<XR.R.Y.D.9.8.8.",
"M.M.u.:.6.6.7.7.5.0.A.dXcXMXNXBX1X1X2X&X+X+XU.A <X>XR.Y.D.1.1.1.",
"= 3 M.:.g.6.6.7.>.>.<.A..XvXmXbXbXbXkX2X&XOX+X%X%X;X:XP.4.<.<.>.",
"u.= u.u.N.6.7.7.,.<.,.. L.vXmXmXmXmXbX1X&XOX$X$X&X,X,XP.3.X <.<."
};
