/* XPM */
static char *result[] = {
/* columns rows colors chars-per-pixel */
"32 32 221 2 ",
"   c #324F7B",
".  c #2C527F",
"X  c #534372",
"o  c #373E97",
"O  c #353BA9",
"+  c #48389A",
"@  c #683A92",
"#  c #1F4C9F",
"$  c #2D478A",
"%  c #2D4D8D",
"&  c #2D4A86",
"*  c #324D84",
"=  c #334C8C",
"-  c #384889",
";  c #2C5188",
":  c #2C4C95",
">  c #2D449B",
",  c #264E9D",
"<  c #2C4C9B",
"1  c #294791",
"2  c #3B4394",
"3  c #334C93",
"4  c #34449C",
"5  c #3A449A",
"6  c #324B9B",
"7  c #384996",
"8  c #2C5195",
"9  c #26519D",
"0  c #285299",
"q  c #34529B",
"w  c #1F4DA6",
"e  c #1D4DAC",
"r  c #1F51AA",
"t  c #1A53A7",
"y  c #1F4FB2",
"u  c #1C51B1",
"i  c #254DA4",
"p  c #2A4CA4",
"a  c #244DAB",
"s  c #2A4CAA",
"d  c #324BA3",
"f  c #3746A6",
"g  c #2351A4",
"h  c #2451AA",
"j  c #2850AB",
"k  c #244DB1",
"l  c #294CB1",
"z  c #2452B3",
"x  c #3250A8",
"c  c #454199",
"v  c #584497",
"b  c #4B418A",
"n  c #624798",
"m  c #5A4AA8",
"M  c #5D56AB",
"N  c #5C49B2",
"B  c #5C56B0",
"V  c #6B55BA",
"C  c #7668BA",
"Z  c #7F73BF",
"A  c #6867AD",
"S  c #6E5EC1",
"D  c #7C6CC3",
"F  c #7067C4",
"G  c #7B78C8",
"H  c #7B78D3",
"J  c #951F9B",
"K  c #9A1C9D",
"L  c #8B2B95",
"P  c #862697",
"I  c #9A259C",
"U  c #87359B",
"Y  c #95359F",
"T  c #9E1CA4",
"R  c #9C1CAC",
"E  c #961DA6",
"W  c #961CAD",
"Q  c #A21BA5",
"!  c #A41AAB",
"~  c #A517AA",
"^  c #AB1CB4",
"/  c #A717B9",
"(  c #B21BB4",
")  c #8F2AA0",
"_  c #9423A3",
"`  c #9D25A8",
"'  c #8934A3",
"]  c #8F3CB0",
"[  c #9C37B3",
"{  c #A321AD",
"}  c #A924B7",
"|  c #B123BA",
" . c #A13EB2",
".. c #A237A1",
"X. c #994AB3",
"o. c #A749B8",
"O. c #B25ABA",
"+. c #A354BD",
"@. c #8C68AC",
"#. c #8869BE",
"$. c #B83FC0",
"%. c #C22ACB",
"&. c #C332CF",
"*. c #C93CD5",
"=. c #CC3DDA",
"-. c #D53CDD",
";. c #D432DC",
":. c #D93DE2",
">. c #DE3BEB",
",. c #D537E4",
"<. c #DE3DF0",
"1. c #E335EB",
"2. c #E23AEE",
"3. c #E23AE2",
"4. c #EE2DFC",
"5. c #E02EF2",
"6. c #E436F2",
"7. c #E934F5",
"8. c #EB33FC",
"9. c #E738F4",
"0. c #955DC7",
"q. c #BF4ED1",
"w. c #B656C5",
"e. c #856EC7",
"r. c #8771CC",
"t. c #8774D2",
"y. c #9D78D5",
"u. c #AB64C5",
"i. c #B864CB",
"p. c #A879D9",
"a. c #B577DA",
"s. c #B76AD0",
"d. c #B67BE7",
"f. c #C248C9",
"g. c #C758CA",
"h. c #C745D2",
"j. c #CD43DB",
"k. c #CC48D6",
"l. c #D246DC",
"z. c #CD56D5",
"x. c #D157D7",
"c. c #CB7ECD",
"v. c #C96AD3",
"b. c #D762DB",
"n. c #CC72DB",
"m. c #CE79DB",
"M. c #C676D9",
"N. c #D276D7",
"B. c #DC42EB",
"V. c #D845E2",
"C. c #D853E3",
"Z. c #F050F1",
"A. c #DA64E3",
"S. c #CD77E7",
"D. c #DC77E7",
"F. c #E469E9",
"G. c #E575E7",
"H. c #EB68F3",
"J. c #F76BFA",
"K. c #E776F0",
"L. c #F473FB",
"P. c #FA73FF",
"I. c #9289CC",
"U. c #9690CE",
"Y. c #998DD5",
"T. c #A485DA",
"R. c #BC83CE",
"E. c #9DA0C9",
"W. c #AAA8D8",
"Q. c #B5AAD9",
"!. c #AAB1DB",
"~. c #BB88E9",
"^. c #BD8DF4",
"/. c #ACA4E0",
"(. c #C385C5",
"). c #D888DB",
"_. c #C78BEA",
"`. c #D989E4",
"'. c #C593F5",
"]. c #DD9AF5",
"[. c #D290EA",
"{. c #E485E6",
"}. c #E489E9",
"|. c #F78CFB",
" X c #E296FF",
".X c #F391FF",
"XX c #FE93FF",
"oX c #F69BFE",
"OX c #FD9BFF",
"+X c #F096F6",
"@X c #CBAAFB",
"#X c #DAAEFF",
"$X c #D5A6F8",
"%X c #D7B4FF",
"&X c #E7ADEA",
"*X c #E7B3ED",
"=X c #EDADF4",
"-X c #E8AAFC",
";X c #FCA5FF",
":X c #F3ACFD",
">X c #FBABFF",
",X c #F6A6F9",
"<X c #EAB3FD",
"1X c #E6BAFD",
"2X c #EBBAFF",
"3X c #EAB5F5",
"4X c #F3B1F6",
"5X c #F7B7FD",
"6X c #EBC3EC",
"7X c #E6C8EC",
"8X c #FDC5FF",
"9X c #FFCEFF",
"0X c #F7C8F5",
"qX c #FDDDFF",
"wX c #F5DDF7",
"eX c #EDC9F9",
"rX c #FFE3FF",
"tX c #FFEBFE",
"yX c #F4E1FF",
"uX c #FDF3FD",
"iX c #FFFAFF",
/* pixels */
"t r a l s a s i i i s a a a d l < g , < p p j a a g g g g 9 8 . ",
"r w a i s s i h a l k k l k k k a a a a a a z a a g h w w p % * ",
"h g g , p p g h a a a s a a e a y a k k a e k a a p h h a p < = ",
"h j p p p s s p > $ $ & 1 : 1 & < > 4 > > 1 1 4 > s a r h p 6 % ",
"a s p i i s O N Y.Q.Q.W.!.!.!.E.I.Y.Y.I.Y.W.W.Y.M 4 i h e p < 3 ",
"a a a g i O N 0.[.&X9XqXqXyXrXeX1X1X<X2X2X9X9X$XY.B > p a , q : ",
"s s w h d V 0.i.v.O.`.).&X&X*X*X=X:X:X,X{.}.N.+.a.y.M 4 d p : : ",
"s a a O N d.S.v.oXn.M.O.+X>X>X4X:X>X>XoXv.| { ` @ i.p.M 4 6 : : ",
"a p 4 N d.}.i.m.:X5X9X(.}.+XoX4X:X:X:X;XG.! R R T P u.p.m 7 3 % ",
"p d m ~.S.D.;X:X0XtXuXrX(.O.}.,X:X:X>X{.I K ! R R E P u.~.v - - ",
"5 + ~.M.w.).4X6XuXiXuXuXrX(.).;X;X;XG.` I Q ~ / / R E ) w._.n b ",
"v '.a.[.=X&X0XtXiXuXiXiXtXrX).g.z.f.{ ^ ! ~ ( / / / R R _ o._.@ ",
"[.p.u.-XqXqXrXtXtXrXrXrXrXrX8XOXH.-.-.;.;.;.,.,.,.=.*.*.h.q.i.0.",
"3X].].3X7XwX6XR.c.c.N.N.m.m.N.b.9.1.2.1.9.1.2.B.$.| | | } [ ] ].",
"#.%X2X3X*X*X6X).q.j.-.V.*.k.A.A.7.7.7.7.1.7.1.%./ ~ R R W ] R.@.",
"+ #.$X4X:X=X8X>Xh.8.4.8.6.3.J.Z.4.8.8.8.7.3.3.( ~ ~ T E [ d.@.X ",
"s 6 C @X1X3X4X5XD.h.B.9.2.V.P.H.1.6.8.8.6.>.&.{ T _ J ] p.G $ - ",
"p 6 - Z @X1X3X5X>XA.B.6.2.-.P.F.7.8.4.8.6.,.^ ! T K  .a.t.2 7 - ",
"s p d 2 G @X2X3X>XXXl.>.2.:.J.F.5.8.8.7.,.*.^ T K  .a.r.5 : 3 3 ",
"a s h p 4 Z $X-X:XXXC.>.2.:.P.D.6.>.>.B.C.` K _ ' d.e.5 p g : 3 ",
"p s e e p o e.#X<X>XXXV.,.V.L.G.V.j.k.A.XX..) ' ^.D 5 d i g 9 % ",
"p h e y l d 2 C %X-XoXz.C.l.L.|.H.f.b.OXY L ' ^.F f < p i g 9 1 ",
", g z e w i d c A %X<XOXz.h.L.|.H.f.b.+XL U '.F d 6 d p h # 0 % ",
"9 w r r r s s d q A %X:XXXx.l.L.H.A.G...U '.V c > p p p g g 8 = ",
"9 g r e r h s s p 7 C #X;Xb.h.J.H.x.g.Y ~.C f p p p p g t g 8 = ",
"p i h h i s i a a p 7 C $X.Xz.J.K.o.o.a.e.5 d p a p , g g a 6 3 ",
"h h s a i p p i a s < + e. XN.K.D.u.a.r.2 > i l w g a a s p 6 7 ",
"s a s s s i 9 g a a a p o #.~. X X~.r.5 p s k k u a s s s p 6 - ",
"a a s s s g g g h a k s < 2 t.@X@Xt.o f s s l y u a s s i , : = ",
"s s s p s i g 9 p j a i , < 5 t.G o d p j p i h r g p p , 0 ; * ",
"8 : < < < : : 8 8 : 6 < q 3 $ 7 = $ 3 < 3 3 3 : 8 0 : : 8 % ; . ",
"; ; ; % 8 % ; % * * = = - - 3 % . * = 3 * * * = * % = = 3 =     "
};
