/* XPM */
static char *result[] = {
/* columns rows colors chars-per-pixel */
"32 32 255 2 ",
"   c #001A00",
".  c #000E00",
"X  c #002400",
"o  c #002C00",
"O  c #003400",
"+  c #182E17",
"@  c #024902",
"#  c #005600",
"$  c #005A00",
"%  c #284F13",
"&  c DarkGreen",
"*  c #0B740B",
"=  c #114634",
"-  c #0F6A2E",
";  c #2A7430",
":  c #2A5E28",
">  c #547E00",
",  c #0D3A75",
"<  c #1B3867",
"1  c #50377B",
"2  c #135156",
"3  c #23524F",
"4  c #136C50",
"5  c #2F6A5A",
"6  c #17436A",
"7  c #194A77",
"8  c #055878",
"9  c #0C4F6D",
"0  c #304B7B",
"q  c #03656B",
"w  c #00627E",
"e  c #2E706E",
"r  c #4C7E5F",
"t  c #567853",
"y  c #485379",
"u  c #686368",
"i  c #5B777B",
"p  c #009200",
"a  c #0C9515",
"s  c #13AA14",
"d  c #28AD0D",
"f  c #37993B",
"g  c #298A2C",
"h  c #17AD2E",
"j  c #2AB62B",
"k  c #2DAE3D",
"l  c #2AB135",
"z  c #39B538",
"x  c #31AD30",
"c  c #7C8D01",
"v  c #479A38",
"b  c #638433",
"n  c #58A92C",
"m  c #77AF36",
"M  c #06CD03",
"N  c #1CCA00",
"B  c #02DB01",
"V  c #09DD01",
"C  c #07D70A",
"Z  c #13DA02",
"A  c #16D403",
"S  c #1DCA1A",
"D  c #09D615",
"F  c #14D513",
"G  c #01CE19",
"H  c #28C602",
"J  c #35C600",
"K  c #24D400",
"L  c #2ACA19",
"P  c #01E302",
"I  c #09E106",
"U  c #08E110",
"Y  c #14E412",
"T  c #17C826",
"R  c #15CB30",
"E  c #17D530",
"W  c #2ACE29",
"Q  c #2CCE31",
"!  c #1FE120",
"~  c #55D70F",
"^  c #6ED613",
"/  c #4FE707",
"(  c #59D927",
")  c #09924F",
"_  c #399446",
"`  c #2E8F51",
"'  c #36B444",
"]  c #2EB34D",
"[  c #148D6A",
"{  c #2F8C76",
"}  c #2DAD69",
"|  c #1DAF68",
" . c #448D4B",
".. c #46B949",
"X. c #4AA84D",
"o. c #6DAE56",
"O. c #6D886F",
"+. c #5FBE64",
"@. c #72B370",
"#. c #548768",
"$. c #2EC951",
"%. c #16C546",
"&. c #54C44D",
"*. c #62CB53",
"=. c #5CCC63",
"-. c #5FD172",
";. c #63D767",
":. c #68C965",
">. c #6FF24E",
",. c #98AE2B",
"<. c #82E717",
"1. c #92FD15",
"2. c #9BCA3E",
"3. c #A6FC2D",
"4. c #AEDD35",
"5. c #DBFF16",
"6. c #F5FB15",
"7. c #C2C923",
"8. c #CDFF34",
"9. c #ECFD31",
"0. c #93AC46",
"q. c #86A24D",
"w. c #889F6A",
"e. c #99B07A",
"r. c #9FFF43",
"t. c #B3F94F",
"y. c #8ED16F",
"u. c #ABC968",
"i. c #9DE17E",
"p. c #AFF16C",
"a. c #9AD454",
"s. c #D9FE49",
"d. c #D4FC53",
"f. c #E5FF53",
"g. c #EDF64D",
"h. c #CBFE68",
"j. c #DAFD6B",
"k. c #D6ED6E",
"l. c #E8F96C",
"z. c #3D1CB1",
"x. c #1E3DB2",
"c. c #263FB4",
"v. c #3B3BAB",
"b. c #1E3590",
"n. c #4C3297",
"m. c #500EAE",
"M. c #631DB4",
"N. c #532CB2",
"B. c #461A96",
"V. c #154A88",
"C. c #045788",
"Z. c #185886",
"A. c #094B97",
"S. c #164B97",
"D. c #085698",
"F. c #17569B",
"G. c #084E89",
"H. c #2C548F",
"J. c #186789",
"K. c #2E758F",
"L. c #0C4CA5",
"P. c #0C4CAC",
"I. c #0849A8",
"U. c #124BA4",
"Y. c #134DAC",
"T. c #174AAA",
"R. c #0654A4",
"E. c #0B52A5",
"W. c #0554AC",
"Q. c #0C52AB",
"!. c #0D5BA9",
"~. c #1352AB",
"^. c #1455A7",
"/. c #0D4EB3",
"(. c #0A49B5",
"). c #134DB4",
"_. c #194CB4",
"`. c #134CBB",
"'. c #1A4ABB",
"]. c #0C51B2",
"[. c #0B51B9",
"{. c #0058B0",
"}. c #1353B4",
"|. c #1453BB",
" X c #1856B7",
".X c #2846B3",
"XX c #376AA9",
"oX c #405D9F",
"OX c #5C7E87",
"+X c #67619D",
"@X c #4E5FA5",
"#X c #6147A8",
"$X c #343ACF",
"%X c #7017D4",
"&X c #4D27DA",
"*X c #4735CE",
"=X c #6332D0",
"-X c #5916E5",
";X c #7A0AE9",
":X c #7914F3",
">X c #6F0FEF",
",X c #5931EE",
"<X c #6327E0",
"1X c #0D52C5",
"2X c #7F7AD4",
"3X c #5A66FF",
"4X c #786DFC",
"5X c #5C4BF9",
"6X c #8507F7",
"7X c #9641FF",
"8X c #A07DFF",
"9X c #56848B",
"0X c #6CB198",
"qX c #739EAF",
"wX c #759BA2",
"eX c #6EC4A4",
"rX c #7592D2",
"tX c #86A385",
"yX c #96B0AF",
"uX c #95D989",
"iX c #B0D397",
"pX c #95F992",
"aX c #8EF08A",
"sX c #ACF292",
"dX c #9EFFA4",
"fX c #AFFFB2",
"gX c #9CCCA8",
"hX c #C4DC84",
"jX c #DAF787",
"kX c #D0FD90",
"lX c #F2FD96",
"zX c #D6FBB4",
"xX c #FAFFAC",
"cX c #E4F6A4",
"vX c #988CFA",
"bX c #AB9EED",
"nX c #C5BDFF",
"mX c #BBE8D3",
"MX c #C7FFC6",
"NX c #D9FDD4",
"BX c #D5FDCA",
"VX c #E3FFDC",
"CX c #F5FDDA",
"ZX c #E5FFCB",
"AX c #C7D7FF",
"SX c #D0F3EC",
"DX c #EDFFEB",
"FX c #E7FCE6",
"GX c #F9FFE9",
"HX c #ECFEFF",
"JX c #E7F9F8",
"KX c #F3FEFF",
"LX c #FCFCFD",
"PX c #F6F8F9",
"IX c #F2E7FB",
/* pixels */
"{.W.Q.)./.[.~.E.).`.P.~.~.}.(.[.~.[.1X1XR.D.R.U.P.'.).P.[.[.P.U.",
"W.W.Y._.`.).Q.Y.I.). XP.Y.L. X XF.V.A.D.!.D.D.~. XP.|. XP.P._.T.",
"R.E.Y._.'.`.Y.E.~._.P.Y.~.T.L.S.< 5 r 5 V.^.Y.Q./.P.].].L.P.}.).",
"R.Q.T._.'.`.Y.E.L.~.P. XU.S.Z.3 w.u.cX@.7 Y.Y.P./.[./.P.!.~.P./.",
").Y.).]./.].W.E.!.I.}.W.T.7 5 u.g.g.j.o.< _._.`.1X`.`.`.Q.L.P.|.",
").).Q.Q.].W.W.R.D.D.C.C.8 4 i.h.9.9.f.m = < 6 7 , S.T.(.!.!.P.).",
").Y.Q.Q.!.{.W.D.D.q ) ) ) h >.^ ^ 3.s.4.,.0.0.q.e.wXH.P.Q.!.E.Q.",
"~.Y.Q.Q.Q.R.D.C.[ | %.E E E A H H J ~ 3.s.s.f.l.jXi V.~.Q.R.Q.Q.",
"E.L.}.P.Q.D.q [ $.R G D G U I V Z V K H <.s.s.k.t 9 A.R.E.P./.`.",
"D.P.}.P.!.8 [ $.T D U D D F A Z B B B A J <.s.q.= Z.S.V.^.Q.).`.",
"].I.].Q.R.8 [ l S F M S x &.z s ! B P B A J t.c % 3 3 H.S.P.|.(.",
"}.P./.E.D.e 0X..* L S s * NXMX:.s D U P B N ^ t.p.iXSXqXF.].P.|.",
"P.`.[.W.Z.e mXt g z z z @ NXDXFX=.T C P B A J r.j.jXgX7 F.L.|.(.",
"_._.[.A.8 9XKXt ; f ' f + IXLXDXfXz F B Z Z K ~ j.0.3 Z.A.~.].[.",
"U.U.~.^.8 qXJXt   g ..@ . PXLXDXBX&.d K A Z M W :.3 H.S.^.~.Q.W.",
"U.^.E.Z.9 wXKXO.  f ..O + LXPXGXZXm ^ 1./ H A T - 2 6 7 T.P.Q.W.",
"~.D.D.9 - uXGXFXo g ..O w.LXPXGXxXd.9.5.5.1.N S n t u 9XZ.Y.}.Q.",
"U.^.C.{ i.kXCXDXMX+.x pXDXPXLXCXlXg.9.6.6.8./ N t.jXCXOXF. XP.Q.",
"^.D.2 0XkXlXCXFXNX:.z pXNXLXLXGXxX,.7.g.9.8.~ d h.cXOX, E.I. XL.",
"^.C.8 { sXa.BXZXsXz x &.MXVXDXzXu.4.,.,.c 2.*.v w.u < .X~.~.L.T.",
"U.U.E.8 ` v @.aX*.j j x X.uXaX+.n 2.jX% b iXe oXn.M.*X$X_.|.}.I.",
"~.Y.P.A.q - # # & pXdXdXf # # $ & # # % O.y oXvX7X>X-X$X.XI.P.L.",
"L.}.Q.L.J.q X X o ;  . .X X X O o @ a X.+Xn.%X:X>X:X>X&X.X~.Q.~.",
"Q.L.].Q.G.J.5 _ f ; - ; _ _ v g x z $.` n.%X;X:X;X;X:X-X'.E.L.~.",
"_.P.W.Q.A.J.{ } ' l k ' k l j j W h a - n.6X;X6X;Xm.-X&X_.}.Q.P.",
"Y.P.Q.R.E.G.q 4 -.;.=.=.;.=.;.h p p a ` y n.%X%X%XM.B.n.T.T.I. X",
"~.E.P.).}.F., wXDXNXFXFXDXGXFXMX..j S Q z 4 1 n.B.1 u yXH.A.~.P.",
"L.Q.).(. XV.rXKXKXJXKXKXIXIXIXJXSX] S C C Q } 5 5 #.sXuX3 K.F.E.",
"}.I._.).A.XXJXKXJXHXPXnXvX=X=X*XrXeX$.G U M ! R j Q &.d y.gX9 Z.",
"/.}.).T.S.rXKXHXJXJX2XN.*X&X>X-XN.XX} R D P B P C Z M L p.f 4 K.",
"}.P._..Xc.v.AXHXJXbXz.8XvX5X-X:X:XN.K.} D U B M B B Y C ! s | [ ",
"P.|.`.T.4Xv.oXIXIX#Xz.,X3X$X>X:X6X%XS.} R V C M M I P C F E %.- "
};
