/* XPM */
static char *e1ac58e3d92e4485c98b0853a00a76e7qYklJi6wD8AiQgeQ[] = {
/* columns rows colors chars-per-pixel */
"32 32 248 2 ",
"   c #4C003F",
".  c #76073C",
"X  c #0E1F64",
"o  c #391E65",
"O  c #2F1F77",
"+  c #1B2475",
"@  c #193578",
"#  c #15276E",
"$  c #292976",
"%  c #3A2473",
"&  c #25367A",
"*  c #383777",
"=  c #29286A",
"-  c #3D1257",
";  c #43114E",
":  c #5C195C",
">  c #50084D",
",  c #6A0549",
"<  c #660D59",
"1  c #790854",
"2  c #681553",
"3  c #761759",
"4  c #770045",
"5  c #45395D",
"6  c #792E5A",
"7  c #481C6A",
"8  c #581C67",
"9  c #421F79",
"0  c #571C74",
"q  c #5B0D61",
"w  c #671768",
"e  c #751A69",
"r  c #651A78",
"t  c #761975",
"y  c #7F0E6A",
"u  c #4B256C",
"i  c #562467",
"p  c #49386A",
"a  c #472777",
"s  c #572675",
"d  c #41397C",
"f  c #56377A",
"g  c #65256A",
"h  c #672776",
"j  c #762F74",
"k  c #3E4758",
"l  c #17436E",
"z  c #384666",
"x  c #394876",
"c  c #27457B",
"v  c #594F55",
"b  c #6D4F5B",
"n  c #534C6E",
"m  c #644466",
"M  c #764667",
"N  c #704975",
"B  c #716570",
"V  c #6E674A",
"C  c #940037",
"Z  c #B24915",
"A  c #9B563A",
"S  c #91493B",
"D  c #B95632",
"F  c #BD6832",
"G  c #CB5A18",
"H  c #D25B1B",
"J  c #D16C1A",
"K  c #D05C30",
"L  c #D4662A",
"P  c #820345",
"I  c #860354",
"U  c #910A55",
"Y  c #AB0049",
"T  c #BB004C",
"R  c #821969",
"E  c #951564",
"W  c #940E68",
"Q  c #A60A68",
"!  c #B51467",
"~  c #A61C77",
"^  c #BA1B77",
"/  c #AA1269",
"(  c #882B6A",
")  c #972669",
"_  c #97257A",
"`  c #862F7B",
"'  c #AA287A",
"]  c #B7257A",
"[  c #AA2C78",
"{  c #C9005F",
"}  c #D6157E",
"|  c #C8116F",
" . c #C5267B",
".. c #D3257E",
"X. c #8F524C",
"o. c #AD564D",
"O. c #99654C",
"+. c #A16B5C",
"@. c #B1744B",
"#. c #84486D",
"$. c #987D6F",
"%. c #95736F",
"&. c #AA7275",
"*. c #D17354",
"=. c #DC8F1C",
"-. c #D58533",
";. c #E98B37",
":. c #EB9E37",
">. c #E48F28",
",. c #FCA63D",
"<. c #ECA927",
"1. c #B48B56",
"2. c #9E8673",
"3. c #B08D6D",
"4. c #BDA773",
"5. c #C28E53",
"6. c #EE964B",
"7. c #E8B45C",
"8. c #FAAF54",
"9. c #D59777",
"0. c #C68C6F",
"q. c #F19B66",
"w. c #D2A97B",
"e. c #FBAB6B",
"r. c #FAA874",
"t. c #FCCA4E",
"y. c #1F2F85",
"u. c #1A3786",
"i. c #14398F",
"p. c #38288A",
"a. c #293887",
"s. c #363A88",
"d. c #293B95",
"f. c #333A95",
"g. c #282C83",
"h. c #2C37A3",
"j. c #463586",
"k. c #4E348B",
"l. c #4A3EA2",
"z. c #1A498B",
"x. c #08489D",
"c. c #144D9E",
"v. c #1B4899",
"b. c #1E5699",
"n. c #274589",
"m. c #344389",
"M. c #2B4593",
"N. c #2C449C",
"B. c #234B9C",
"V. c #274997",
"C. c #394496",
"Z. c #275397",
"A. c #3F579B",
"S. c #355689",
"D. c #0A4DA5",
"F. c #0C4CAB",
"G. c #064CA7",
"H. c #144CA4",
"J. c #1D4BA3",
"K. c #154DAC",
"L. c #1948A7",
"P. c #0C52A6",
"I. c #0C53AB",
"U. c #0652AB",
"Y. c #1B52A4",
"T. c #1453AC",
"R. c #1A52AB",
"E. c #1155A7",
"W. c #0B4DB3",
"Q. c #044EB3",
"!. c #134CB2",
"~. c #184EB6",
"^. c #0D54B2",
"/. c #0956B7",
"(. c #1254B2",
"). c #1A56B6",
"_. c #244CA3",
"`. c #2948A6",
"'. c #3248A3",
"]. c #2653A6",
"[. c #2147B6",
"{. c #454983",
"}. c #505094",
"|. c #704E8F",
" X c #4546A2",
".X c #6A4EA9",
"XX c #6F79B1",
"oX c #4E66A2",
"OX c #951E84",
"+X c #873587",
"@X c #983685",
"#X c #892C8C",
"$X c #A52E89",
"%X c #B33484",
"&X c #B23388",
"*X c #D41B82",
"=X c #C72684",
"-X c #CB3B87",
";X c #875490",
":X c #B24E8E",
">X c #8B738D",
",X c #B47B9B",
"<X c #9354A4",
"1X c #B46AAF",
"2X c #D04E99",
"3X c #C17A9C",
"4X c #D273BA",
"5X c #D677C4",
"6X c #7983B7",
"7X c #7D92C1",
"8X c #A68A83",
"9X c #B5998F",
"0X c #BDA891",
"qX c #908DA5",
"wX c #B897A8",
"eX c #AD94A3",
"rX c #B4A5AC",
"tX c #CA9787",
"yX c #CDB888",
"uX c #D7A694",
"iX c #CFBD98",
"pX c #D3B99B",
"aX c #DCA181",
"sX c #F2AF8A",
"dX c #EDAE8E",
"fX c #C7A8B3",
"gX c #D0AEAC",
"hX c #EAB4AA",
"jX c #EDBAB6",
"kX c #F5BFA3",
"lX c #C298A6",
"zX c #D6C4A6",
"xX c #FBC7A7",
"cX c #F9CDB8",
"vX c #D7C49A",
"bX c #9195C5",
"nX c #BA8BD1",
"mX c #B6B1D1",
"MX c #C6BDCD",
"NX c #D4B9C2",
"BX c #E2BECA",
"VX c #F2CFC5",
"CX c #FFE0D0",
"ZX c #FFE9E6",
"AX c #FFF3E8",
"SX c #FFF7F2",
"DX c #FDE9F5",
"FX c #DAD0C7",
/* pixels */
"F.T.].v.v.].v.B.Z._.N.N.`.J.N.m.s.d.].c.f.s.C.M.B.v.z.b.`.L.L.L.",
"^.H.u.$ m.s.$ s.s.$ 9 9 f.C.$ o u % a.a.a u a % s.& $ m.p.f._.D.",
"P.v.% nXf ; +X2 > 3X .] 2 ; 1X2X[ [ g : 5X%XOXW ; ;X;X  =Xk.d.I.",
"P.V.0 :XR e [ 4 ) 2X{ | ( , -X! Y ^ . R -XY { =X> ;X:XU =Xt u./.",
"G.f.w $X=X] ] P Q ! C ! ) , | | {  .2 , ..{ | $Xq 8 ] | &X0 h./.",
"(.d.r &XE / ] I Q  .] [ R 1 ^ =X' ( i g ] ..~ t j.s / =Xy j.L.Q.",
"x.'.0 #Xe < _ , R $X1 ( j > ' _ u $ m.o :X3 9 f.`.p.y %X7 m._.~.",
"E.B.k.a a a u h r r 0 s p u w 0 a.Z.n.* o % '.!.~.'.0 0 s.V.L.L.",
"D.~.J.B.V.C.n.S.C.f.C.M.N.`.f.M.N.'.V.M.d.V.L.R.L.].N.n.V.Y.Y.R.",
").F.G.D.].u.# = + m.C.y.N.'.a.a.C.+ = * a.M.B.v.@ M.m.u.v.c.H.D.",
"F.F.T.].y.}.;X6 j w - .Xf 7 h w 7 <X$XOXw u C.& .X7 i |.u.Y.K.T.",
"~.K.I._.* <X:X. 3 2 6 5X_ I [ E , 5X^ ! %Xe a {.nX> ` 1X# T.).G.",
"!.K.T._.j.t ) P 3 2 < ' *X*X} Q 1 [ < < ^ W s * f ; e h i.^.Q./.",
"!.F.G.B.k.R ! U 3 2 1 ] } } } ! P $X3 , ..U 8 o p p 8 s `.^./.Q.",
"U.^.P.].p.OX^ U 3 < 1 %XI E  .E 1 ' / !  .U h * * * = d N.H.!.~.",
"U.^.I.v.j.0 OX_ +X8 < j i i e e q ` _ [ E g k.}.X A.}.g.v.R.F.~.",
"I.F.^.!.Z.c l # = * * * n.Z.y.f.f.g.$ $ & C.a.y.v.u.i.c.c.D.K.F.",
"D.(.W.!.c.Z.l z z n k z c z.Y.E.H.R.H.B.b.n.{.n x n m.z.b.c.D./.",
"F.F.~.~.J.c v O.1.*.5.3.v z z.E.D.T.R._.& 5 X.A A S M 6 x Z.K.W.",
"T.F.(.Y.c n w.t.-.>.t.8.4.B c ).I.D.F.B.p &.*.J G K D o.b * _.K.",
"G.E.U.b.k 3.t.=.:.;.=.8.:.1.x x.T.U.^.M.M *.K G H q.H K o.(  Xx.",
"P.I.I.l V 7.t.<.8.r.-.J >.5.x R.F.^.I.n.#.D Z D q.e.G J K S * ].",
"Y.H.R.x 1.:.>.:.dXxX9.9.@.2.n.K.P.E.P.n.n &.+.0.aXcXq.Z Z o.n H.",
"R.Y.z.n 1.,.;.e.cXCX2.uXw.XXn.H.T.x.P.b.n NX9XgX9XAXsXK *.O.x v.",
"^.v.x 2.-.8.e.r.CXSX2.%.FXmXn.!.F.(.E.z.XXDX$.$.jXAXaX@.xX%.& H.",
"Q.z.v 1.6.6.e.dXVXSXDXVXSXMXn.v.(.E.c.c qXZXAXcXAXZXkXaX0.b S.v.",
"^.z.b 9.r.q.0.jXhXjXBXzXzX8XB }.v.L.Z.}.%.hX0.9.uXhXcXaXX.lXqXi.",
"^.V.v tXdXsX0.9XuXdX+.X.tX8XMX6Xv.L.A.mXwX&.O.O.A 3.uX&.jXNXbXN.",
"/.Y.x eXgXpXyX4.3.3.4.yX8X>XbXoXL.R.V.7XqX9Xw.1.4.3.4.2.gXmXXXd.",
"Q.R.n.{.#.&.pXpXpXiXyXvXfX|.d a.L.F.v.m.5 fXzXiX0XzXiXhX,X|.d.h.",
"T.c.i.j.|.:X,XwXwXfXeXeX1X|.l.h.L.~.R.f.|.:X,XNXrXrXlX3X:X#Xk.`.",
"H.H.`.l.OXOX` j N m n j #X#X.Xh.[.~.H. X#X) #.m v n M ( ~ OX}.d."
};
