/* XPM */
static char *_97a83983b0240a8ce8ab4ae04ec6064mcOXO2fVRDMR7EBi[] = {
/* columns rows colors chars-per-pixel */
"32 32 250 2 ",
"   c #010103",
".  c #060406",
"X  c #160303",
"o  c #181416",
"O  c #260000",
"+  c #350400",
"@  c #2E1517",
"#  c #22221C",
"$  c #321F28",
"%  c #332826",
"&  c #3E2A35",
"*  c #36383B",
"=  c #480807",
"-  c #510D10",
";  c #7B0200",
":  c #6E0200",
">  c #4F3834",
",  c #673337",
"<  c #6B2A0A",
"1  c #75493E",
"2  c #3E3B44",
"3  c #3C3F7A",
"4  c #293B7D",
"5  c #752348",
"6  c #4B377B",
"7  c #593774",
"8  c #56316A",
"9  c #752E69",
"0  c #68336B",
"q  c #633776",
"w  c #733268",
"e  c #2E4777",
"r  c #434147",
"t  c #545657",
"y  c #574850",
"u  c #654A4C",
"i  c #6D5654",
"p  c #7C655D",
"a  c #5E4376",
"s  c #786F70",
"d  c #880500",
"f  c #8C1505",
"g  c #990805",
"h  c #B50A04",
"j  c #B01111",
"k  c #8E2100",
"l  c #9C1C36",
"z  c #BA172B",
"x  c #AE1A3C",
"c  c #BC1736",
"v  c #A5162A",
"b  c #922D3E",
"n  c #B12239",
"m  c #AA3416",
"M  c #D90802",
"N  c #DA1608",
"B  c #D80B13",
"V  c #CC161C",
"C  c #D61118",
"Z  c #CC0B0C",
"A  c #E30301",
"S  c #EE0601",
"D  c #EB0905",
"F  c #E60A09",
"G  c #F40402",
"H  c #FA0301",
"J  c #F40A04",
"K  c #FC020A",
"L  c #F60D0A",
"P  c #E80715",
"I  c #F50411",
"U  c #E51418",
"Y  c #ED130A",
"T  c #CB240B",
"R  c #DD0723",
"E  c #C71527",
"W  c #D61324",
"Q  c #C61932",
"!  c #D20A3B",
"~  c #F5022B",
"^  c #ED0A2F",
"/  c #D32A24",
"(  c #EE3330",
")  c #F1251C",
"_  c #964821",
"`  c #BE493F",
"'  c #AD6B2D",
"]  c #CE7712",
"[  c #E2620B",
"{  c #FB433D",
"}  c #E24A3C",
"|  c #F5782D",
" . c #CC5B15",
".. c #A81944",
"X. c #B21C47",
"o. c #AB1D59",
"O. c #99234A",
"+. c #86285A",
"@. c #823054",
"#. c #B1224F",
"$. c #932C6E",
"%. c #B02371",
"&. c #B11D6B",
"*. c #D21651",
"=. c #F80446",
"-. c #FE0459",
";. c #EB0C50",
":. c #C52458",
">. c #FD3744",
",. c #D51967",
"<. c #D31174",
"1. c #E6096E",
"2. c #E80878",
"3. c #F60673",
"4. c #F80E66",
"5. c #F62F75",
"6. c #C32B64",
"7. c #A85456",
"8. c #B56F4F",
"9. c #8D7375",
"0. c #BC6A6D",
"q. c #955762",
"w. c #CE5358",
"e. c #F94B4C",
"r. c #FD635D",
"t. c #FB5366",
"y. c #DE7D79",
"u. c #CC7774",
"i. c #FD6A67",
"p. c #E37E7C",
"a. c #FF7776",
"s. c #F5716E",
"d. c #DD4A74",
"f. c #DA8218",
"g. c #DD8836",
"h. c #F79838",
"j. c #EF9135",
"k. c #FDA73A",
"l. c #EA8415",
"z. c #F39557",
"x. c #F8A148",
"c. c #FFAB51",
"v. c #FA9F63",
"b. c #FD867B",
"n. c #F89A79",
"m. c #FCA57D",
"M. c #D18A78",
"N. c #163E84",
"B. c #3C3988",
"V. c #353395",
"C. c #3A3DA2",
"Z. c #293AA6",
"A. c #463C87",
"S. c #463A97",
"D. c #58338C",
"F. c #77378D",
"G. c #4D3BA2",
"H. c #6037A1",
"J. c #194A99",
"K. c #144D94",
"L. c #2D4588",
"P. c #224B9C",
"I. c #284797",
"U. c #334296",
"Y. c #33449A",
"T. c #33438C",
"R. c #0C4CA4",
"E. c #0C4DAB",
"W. c #054AA7",
"Q. c #144DA4",
"!. c #1B4CA2",
"~. c #144CAB",
"^. c #1B4BAB",
"/. c #1946A5",
"(. c #0C52A3",
"). c #0C51AC",
"_. c #0553A8",
"`. c #1251A7",
"'. c #1251AB",
"]. c #1A51AC",
"[. c #1856A3",
"{. c #0E4EB3",
"}. c #0B4DB8",
"|. c #134CB3",
" X c #164AB5",
".X c #0B51B3",
"XX c #0B53B6",
"oX c #1353B3",
"OX c #1657B5",
"+X c #2646A5",
"@X c #254BB4",
"#X c #2A4BB3",
"$X c #494587",
"%X c #4D4E87",
"&X c #77588B",
"*X c #4144A5",
"=X c #7179A4",
"-X c #716490",
";X c #125AC0",
":X c #AC1D89",
">X c #8D2994",
",X c #B52388",
"<X c #AF2296",
"1X c #8E37A0",
"2X c #F80A87",
"3X c #CE1886",
"4X c #BB499C",
"5X c #916794",
"6X c #B97490",
"7X c #FF7E82",
"8X c #EB6D8A",
"9X c #D56A8F",
"0X c #FF7EC3",
"qX c #938A8B",
"wX c #A6938F",
"eX c #B0949B",
"rX c #BE98BF",
"tX c #B4A1B1",
"yX c #D99C83",
"uX c #FB8A8A",
"iX c #F99492",
"pX c #FFAD8B",
"aX c #FCA786",
"sX c #EBA792",
"dX c #FCAB96",
"fX c #EBB495",
"gX c #FDB596",
"hX c #EDAC85",
"jX c #F698AA",
"kX c #F9B9A4",
"lX c #F6AEAD",
"zX c #C79D9E",
"xX c #D5C7BE",
"cX c #FFCEB6",
"vX c #9E97C2",
"bX c #B6A1C8",
"nX c #C79CC4",
"mX c #E1B8C8",
"MX c #FF93E4",
"NX c #FFA3F6",
"BX c #D4AEC5",
"VX c #D1C7C9",
"CX c #E2D7D7",
"ZX c #F5D1D5",
"AX c #E8DFE0",
"SX c #FFE9E4",
"DX c #FFF5F6",
"FX c #FEFCFD",
"GX c #F8FAF8",
"HX c #FFF1E7",
/* pixels */
"'.~./.^.`.'.).).{.)._.R.`.J.P.I.U.Y.C.Y.Y.P.!.Q.|.{.).'.Q.].).).",
").E.~.^.`.'.)..X{.~.Q.P.U.$X6 q 7 0 q 8 q 7 6 A.Y.+X~.`.Q.`.E..X",
"{.{.|.'.{._.XX.XOXR.+XB.9 ..z E Q z Q E E E Q l w A.I.`.Q.Q..XXX",
"XX{.).'.{..X.X{./.I.$X0 X.W I H G S S S H G J U ..9 A.U.I.!.|.{.",
")._.).)..X.X{./.Y.6 5 l V Z M D D S G K K K L A R ! +.0 6 U.^.oX",
"_._.).oX).R./.Y.$X5X9Xs.s.r.i.r.e.) F L G G J J I P Q ..@.7 Y.~.",
"(.(.~.|.W.K.%X&XtX9., q.7.7.@.7.p.a.i.W P K J J G G P R E O.6 P.",
"(.(. X XR.I.-XeX- > 9.@ X   i eX, - M.7X( D L S J H K I P z a P.",
").|.E.].I.%XtX@ @ wXDXVX# VXGXGXs u - yXa.{ M J K K K I P x 6 !.",
"|.~.OXQ.4 vXs > FX. 9.DXqXFXGX* 2 GX5 + uXa.) D K K H P W O.A.~.",
" X}.XXJ.6 nX& xXwXy * s GXGXt   t FXAXO 7.uXe.D G H H B X.9 U.).",
"|.E.XXJ.A.rX$ CXqX& *   s # s r r FXGXy - uXr.A G G D E +.A.P.).",
" X|.).J.$XbX$ xXeXo . . . . X . t FXGXi O u.i.( D P E O.D.+XQ.(.",
"~.OXE.J.T.vX$ ZXwX  .   t . . . y FXFXt X 0.uX( M V ..0 U.~.(.(.",
"Q.R.XXoXN.=Xy zXFXt o r VX# o * CXDXFXp O 0.uX( C Q 9 B.P.[.'.~.",
"Q.E.}.).P.e 5X6XDXDXFXCX% HXGXHXHXSXZX5 = 8Xa./ C c w 3 e e J.~.",
"Q.).).Q.Y.D.%.9XjXlXSXu + yXcXfXsXiX6.<.,.5.r.N P W b , q.wXL.`.",
"~.].E.J.B.&X%.&.jXsXsXyXkXfXsXaXdXw.,.1.1.-.>.N Y B j y.m.p e '.",
"E.W.R.I.&X$.o.d.iXgXgXfXfXfXpXpXpXuX:.,.*.*.j C D P V w.q.e (._.",
".XoXoXV.BXjX8XjXdX_ < hXfXfXpXm.m.m.iXt.e.e.j h I S P v 8 K.(._.",
"E.oXE.I.BXlXgXpXm.' 0.M.dXaXm.v.g.j.j.| | v.m g Y H D z a J.].oX",
"oXE.~.I.tXlXsXpXhXgXgXgXpXm.z.g.x.j.k.j.c. .; h A H S z 8 L.^.~.",
"|.E.).K.=XZXlXn.n.m.aXb.pXv.f.k.' ' ' ' f d N F Y H L V @.$X+X|.",
"|.'.K.K.L.5XjXw.` gX} / pXz.l.l.= + X + f E F H H G H C l 8 +X X",
"|.Q.K.[.I.A.$.X.:.t.B U e.T [ k.f.] ' : j C D G H H H P n w T.|.",
"E.'.[.[.+XS.4X0X1.=.~ P I N T | h.x.z.f h P J G K I P ! O.0 U./.",
"oXW.).+X#XD.NXMX1.3.-.=.~ P M h f : ; d Z Y P I ~ =.*.$.D.C.+XJ.",
"_._.).OXZ.H.4X<.2X2X3.3.^ ~ P V j g j V U B P ^ -.1.:XF.C.^.Q.Q.",
"}.;XW.R./.*X:X<.2.2.2X2.4.;.B ^ V V B B P P ;.;.3.3X>XG.J.{..X).",
"}.{..X).@XV.1X<X,X<X<X:X%.&.&.x x x x n X.X.&.%.:X>XG.Z.Q.).XXXX",
"|.~.OX).E.#XV.G.S.V.G.*XY.B.A.S.A.A.A.B.T.S.S.S.S.S.Z.}.).(.'.).",
"~.'.R.).oX|.@X X^.'._.).).OX|.~.'.(.).W.OX_.W.'./.~.;XXX'.`.).E."
};
