/* XPM */
static char *result[] = {
/* columns rows colors chars-per-pixel */
"32 32 221 2 ",
"   c #6E2376",
".  c #B0105A",
"X  c #BA226D",
"o  c #C90A5A",
"O  c #D70860",
"+  c #DC0D67",
"@  c #CF1368",
"#  c #DC166E",
"$  c #D71877",
"%  c #DD127A",
"&  c #DA1578",
"*  c #EA056C",
"=  c #E30B6B",
"-  c #EB0A6D",
";  c #E6056B",
":  c #F30465",
">  c #FF0067",
",  c #F6026D",
"<  c #FE026D",
"1  c #F9096E",
"2  c #E01068",
"3  c #EF0379",
"4  c #E30D7C",
"5  c #EB0B7D",
"6  c #E90777",
"7  c #F40574",
"8  c #FD0274",
"9  c #FC0A72",
"0  c #F4047B",
"q  c #FE017B",
"w  c #F30B7B",
"e  c #FD097B",
"r  c #F30A74",
"t  c #E91477",
"y  c #F01373",
"u  c #D2247D",
"i  c #D73277",
"p  c #E1297F",
"a  c #343D88",
"s  c #283A99",
"d  c #3E3592",
"f  c #333D96",
"g  c #383A9B",
"h  c #143EAC",
"j  c #293BA3",
"k  c #323DA3",
"l  c #3C3CA2",
"z  c #3738AA",
"x  c #49388D",
"c  c #57378C",
"v  c #463395",
"b  c #4D3497",
"n  c #443A95",
"m  c #43359A",
"M  c #41389B",
"N  c #4A3A9A",
"B  c #4F3699",
"V  c #523996",
"C  c #55359C",
"Z  c #5A3197",
"A  c #592B83",
"S  c #6F2A8B",
"D  c #702D8C",
"F  c #683789",
"G  c #6E2E95",
"H  c #682E98",
"J  c #742C94",
"K  c #7C2A95",
"L  c #7F2798",
"P  c #633294",
"I  c #65349B",
"U  c #673C96",
"Y  c #753193",
"T  c #73319B",
"R  c #5535A0",
"E  c #4437A3",
"W  c #6C2CA4",
"Q  c #762AA2",
"!  c #0D4A9B",
"~  c #144D9F",
"^  c #154D97",
"/  c #015B9D",
"(  c #0A5A9E",
")  c #085597",
"_  c #12529C",
"`  c #29429C",
"'  c #24469B",
"]  c #32409E",
"[  c #304797",
"{  c #0C4DA5",
"}  c #0E45AB",
"|  c #044BAC",
" . c #0D4EAC",
".. c #044AAA",
"X. c #1C44A4",
"o. c #134DA5",
"O. c #1C4AA4",
"+. c #1347AA",
"@. c #1B47AB",
"#. c #134DAC",
"$. c #1C4BAC",
"%. c #1647A3",
"&. c #0453A4",
"*. c #0B53A4",
"=. c #0B5CA3",
"-. c #0454AC",
";. c #0C52AB",
":. c #0559AC",
">. c #0C5AAD",
",. c #005BA0",
"<. c #1352A5",
"1. c #1151AA",
"2. c #1A50AD",
"3. c #1359AE",
"4. c #1852A6",
"5. c #0E4EB3",
"6. c #0B4ABA",
"7. c #1E45B2",
"8. c #134CB3",
"9. c #1A4BB2",
"0. c #1D47BD",
"q. c #134CBA",
"w. c #1B4CBB",
"e. c #0554B3",
"r. c #0C51B2",
"t. c #0B5AB6",
"y. c #0C52B8",
"u. c #0359B8",
"i. c #0059B0",
"p. c #1252B2",
"a. c #1358B6",
"s. c #2545A4",
"d. c #2B42A4",
"f. c #224AA1",
"g. c #2244AB",
"h. c #234AAC",
"j. c #2E48AF",
"k. c #3541A1",
"l. c #3144AA",
"z. c #2E51AD",
"x. c #254CB2",
"c. c #2242B9",
"v. c #2652BD",
"b. c #74469E",
"n. c #4848A8",
"m. c #7E57AA",
"M. c #1D46C2",
"N. c #1454C0",
"B. c #0B57C7",
"V. c #2252C0",
"C. c #981D92",
"Z. c #AB1E87",
"A. c #BD1C8B",
"S. c #BE1D85",
"D. c #AD1E90",
"F. c #BB1E92",
"G. c #BA1D97",
"H. c #812A8D",
"J. c #8D278B",
"K. c #9B218A",
"L. c #95248E",
"P. c #822996",
"I. c #8A2893",
"U. c #9A2596",
"Y. c #922D94",
"T. c #972797",
"R. c #813D9A",
"E. c #A0238D",
"W. c #A32786",
"Q. c #B3218D",
"!. c #B92786",
"~. c #A62591",
"^. c #AC2291",
"/. c #B42293",
"(. c #BA259D",
"). c #B93791",
"_. c #CF0F86",
"`. c #DF0E83",
"'. c #C41A86",
"]. c #CA198B",
"[. c #CA188B",
"{. c #D41484",
"}. c #D91184",
"|. c #DF1389",
" X c #D11787",
".X c #C21A94",
"XX c #E20D85",
"oX c #E80A85",
"OX c #F20785",
"+X c #FE0183",
"@X c #F7018D",
"#X c #FE018D",
"$X c #E41384",
"%X c #EC1183",
"&X c #FA0191",
"*X c #CC2581",
"=X c #DA2E82",
"-X c #DA3997",
";X c #BD4E9B",
":X c #A05596",
">X c #AE40A3",
",X c #8B77B6",
"<X c #A563AA",
"1X c #FA489D",
"2X c #D4639B",
"3X c #C756B2",
"4X c #EC50A3",
"5X c #CE68A7",
"6X c #FE6EBA",
"7X c #FF7AD1",
"8X c #CD85CF",
"9X c #FF83C7",
"0X c #FB98CE",
"qX c #F483D5",
"wX c #FFAAEE",
"eX c #FBAAF4",
"rX c #FFB4FF",
"tX c #FFB5F3",
"yX c #E9A3E9",
"uX c #FFCCFD",
"iX c #FFDCFF",
/* pixels */
"O.{ :.&.<.o.*.*.r.r.q.M.c.7.*.,.e.p._ ) ) <.x.@.*.,./ ( ( &.<.O.",
"1.*.;.{ t.*.<.3...-.y.5.5.r.;.o.N.+.^ ( ) ,.} 8.#.*.o.o.o.;.;.*.",
"&.a.8...t.e.r. .-.t.1.o.o.;.1.+.h v.$._ / >.} v.q.#.9.g.7.q.e.e.",
"| y.5. .y.y.e.{ O.` d x n d.%.;.B.h g [ [ s l.j $.8.8.0.M.q.y.e.",
"w.5.e.a.8.} 9.j.v S J.K.L.J g ;.6.g.V A F U I C k.$.;.p.q.q.y.-.",
"#.;.e.e. .x.k b K Z. X$X}.^.T M g N F <XeXrX>XT.K N O.;.e.r.-.;.",
"*.1.;.&.>.z.v T 3X*X; < 0  X/.C.S   :XuXiXwX-X{.S.J.x ' *.-.1.<.",
"=.{ *.*.4.' c 8XeX1X: < e oX}._.W.;X5X0X2XX $ 6 %X'.K n ' <.<.o.",
"*.*.*.$.` a ,XuX9X+ 9 : +Xq 6 & !.eX6X. @ t 7 8 0 }.~.P k $.#.8.",
"~ 3. .~ n.c yXtXi O w q +Xq r t u 1Xu = e 8 q q 7 % Q.G k 9.5.y.",
"2...{ 9.g Y 7X6Xo t 5 @X#X+X8 < 1 = + w q q +X8 8 5 A.J d.8.y.q.",
"} 8.8.#.k.D !.# 2 t oX@X&X+X8 > > 9 y * 7 q e 8 8 7 '.J k 8.5.5.",
"#.q.q.9.k.b.qX=X= 7 #X#X#X+X8 > < < y ; 7 e , , < q ].P.l h.8.1.",
"w.| r.x.] R.rX4X; < +X+X+Xq < : 8 , 1 8 8 8 7 : 8 0 [.P.E h.o.*.",
"8.5.r.O.n R.).$ 9 8 q 8 q q < : q 8 e 8 8 8 8 8 8 0 .XQ z h.o.&.",
"y...p.O.n Y.$ 0 < < < 8 8 , : 9 q q 8 8 q 8 8 8 8 +XG.W z $.*./ ",
"r.5.y.o.] Y A.%X7 8 q +Xq 7 7 < +Xq 8 < > < 8 q +XXX^.V ^ &.y.M.",
"5.y.r.o.] P K.}.0 q 8 q q 8 8 8 +Xq 8 < > < 8 q @X[.L.n ~ ;.5.q.",
"8.5.-.o.` n J D.XXq 8 8 8 8 8 8 0 8 8 8 < < 8 0 |.^.I k $.1.r.5.",
"8.| ;.<.O.` B I.[.OX8 < < 8 q q 7 8 q 8 8 8 8 4 Q.T l g.w.9.;.*.",
"2.o.{ ;.1.o.d.Z U._.OX< < 8 8 q 1 8 8 8 8 q t S.P.N g.8.8.8.*.( ",
";.*.o.;.:.-.@.l W K.{.9 > 8 q q < , , 8 8 w '.I.N j 9.q.y.r.{ *.",
"&.o.<.-.:.e.8.g.l G Z.oX7 8 8 q 8 8 < < w  XL.C d.$.q.8.r.e.;.;.",
"*.o.*.;.r.r.8.#.O.n K A.|.0 8 8 q 8 8 6 {.K.P s #.5.8.#.;.-.;.;.",
"<.;.-.r.8.8.5. .2.s.v L G.}.7 7 q q q }.W.P l @.8.q.8.;.o.;.r.y.",
"<.-.-.r.9.$.;.;.#.$.s.m P..Xt * 8 0 XXD.Y g %.p.5.5.r.;.#.8.5.e.",
"1.;.-.5.8.8.#.$.o.p.y.%.n Y. X4 3 `.F.K g g.;. .#.;.8.8.#.8.5.r.",
";. .r.5.;.#.$.$.} y.e.y.s.Z K.'.|.F.P.m X.2.p.{ ;.#.8.r.8.r.8.1.",
"-.5.8.;.e.1.$.9. .e.e.t.o.f H T.(.L v X.2.8. .;.;.1.8.5.y.r. .o.",
"r.p.;.-.-.;.9.8.y.e.-.{ 4.s.g R Q R s.o.r.#.o.#.;.-.r.r.r.r.#.#.",
"r.-.-.;.;.;.5.y.y.e.;.{ O.$.$.$.z j.$.*.&.1.$.8.8.e.e.-.;.#.1.5.",
"8.e.-.&. .5.e.e.y.;.<.2.O.X.| u.0.q.;.*.*.*.#.9.8.e.:.-.1.#.;.;."
};
