/* XPM */
static char *result[] = {
/* columns rows colors chars-per-pixel */
"32 32 246 2 ",
"   c #1B2615",
".  c #1A3817",
"X  c #16350E",
"o  c #243A1A",
"O  c #222F1D",
"+  c #1A2D28",
"@  c #233B22",
"#  c #202827",
"$  c #1E411C",
"%  c #21491F",
"&  c #315F2A",
"*  c #365736",
"=  c #34502F",
"-  c #33642D",
";  c #435A3D",
":  c #43422F",
">  c #446C39",
",  c #677F3D",
"<  c #403D79",
"1  c #294D4C",
"2  c #196556",
"3  c #126F49",
"4  c #2B7D56",
"5  c #165D67",
"6  c #165877",
"7  c #3D4868",
"8  c #2A5A67",
"9  c #3A4D75",
"0  c #344C7B",
"q  c #394B7B",
"w  c #364B77",
"e  c #245772",
"r  c #325772",
"t  c #15646C",
"y  c #26726C",
"u  c #494D4A",
"i  c #714A5B",
"p  c #4E6958",
"a  c #657451",
"s  c #474B67",
"d  c #474C70",
"f  c #685A7A",
"g  c #6B5B76",
"h  c #4E6A77",
"j  c #686E72",
"k  c #887F5B",
"l  c #836163",
"z  c #A36059",
"x  c #F3797C",
"c  c #EE7C7A",
"v  c #C9766C",
"b  c #2A823D",
"n  c #638733",
"m  c #529C3D",
"M  c #378751",
"N  c #719949",
"B  c #709459",
"V  c #49AE52",
"C  c #6BAA4D",
"Z  c #469B75",
"A  c #508F69",
"S  c #7A9C77",
"D  c #6B8860",
"F  c #4FAA6C",
"G  c #7CA477",
"H  c #70AC68",
"J  c #5C9A4D",
"K  c #7BD25F",
"L  c #79FC4A",
"P  c #7FED5A",
"I  c #7DFA57",
"U  c #6EE95A",
"Y  c #6DD468",
"T  c #7BEA77",
"R  c #7AEC65",
"E  c #87945A",
"W  c #8DA851",
"Q  c #9A9272",
"!  c #AE907A",
"~  c #86AB7A",
"^  c #94AD74",
"/  c #B3B074",
"(  c #D98D6E",
")  c #DA8B7A",
"_  c #CB956F",
"`  c #E4827A",
"'  c #E89674",
"]  c #CCAA67",
"[  c #D1A87A",
"{  c #CFAE75",
"}  c #ECAE7D",
"|  c #80F555",
" . c #A2E255",
".. c #8ACA7B",
"X. c #94CA7E",
"o. c #8EDE72",
"O. c #AAD06E",
"+. c #82E867",
"@. c #8CF075",
"#. c #A5EE7A",
"$. c #C5EE5A",
"%. c #E1FF5F",
"&. c #D1F874",
"*. c #E9FF76",
"=. c #E8FF62",
"-. c #CDC36F",
";. c #195789",
":. c #1D5399",
">. c #1F4E93",
",. c #344D85",
"<. c #334C8B",
"1. c #3B4989",
"2. c #255685",
"3. c #2B4C9C",
"4. c #274D97",
"5. c #364897",
"6. c #24529B",
"7. c #245694",
"8. c #2D4F8C",
"9. c #176081",
"0. c #346E90",
"q. c #1E51A4",
"w. c #1D51AA",
"e. c #1750AD",
"r. c #1E4BB9",
"t. c #1C51B7",
"y. c #244EA4",
"u. c #2A4CA4",
"i. c #244DAB",
"p. c #294BAB",
"a. c #2D45AC",
"s. c #3647A5",
"d. c #2251A3",
"f. c #2351AA",
"g. c #2851A4",
"h. c #244CB2",
"j. c #2B4AB2",
"k. c #2948B9",
"l. c #3544B7",
"z. c #3357A9",
"x. c #4A4C90",
"c. c #516F91",
"v. c #786A8A",
"b. c #6D6E8E",
"n. c #4B58A6",
"m. c #625EA6",
"M. c #5D62A8",
"N. c #6D64A8",
"B. c #685E89",
"V. c #363FC4",
"C. c #1A50C6",
"Z. c #2844D8",
"A. c #3243C9",
"S. c #2645E0",
"D. c #9873A7",
"F. c #9B6898",
"G. c #D86B83",
"H. c #CA7B94",
"J. c #EC7C87",
"K. c #DB7FA8",
"L. c #8E7CC2",
"P. c #499597",
"I. c #47928D",
"U. c #578AA5",
"Y. c #6B99A4",
"T. c #63A490",
"R. c #7CE394",
"E. c #79D6A7",
"W. c #7DD994",
"Q. c #968F8D",
"!. c #BE9599",
"~. c #AF9096",
"^. c #96BA8A",
"/. c #91B395",
"(. c #AEB294",
"). c #9588B4",
"_. c #B793A9",
"`. c #B1B9A5",
"'. c #D88988",
"]. c #C39193",
"[. c #D18E92",
"{. c #E68289",
"}. c #E1919D",
"|. c #CFAD94",
" X c #ECB495",
".X c #C485B3",
"XX c #D3ADB0",
"oX c #E7B8AC",
"OX c #8BC984",
"+X c #92CF91",
"@X c #A7C789",
"#X c #A6DB99",
"$X c #AEC297",
"%X c #8DEB88",
"&X c #ACE498",
"*X c #A9FC91",
"=X c #AEEB94",
"-X c #91CBB5",
";X c #A8DCA1",
":X c #B3D4B1",
">X c #B7E6A6",
",X c #B8F0B3",
"<X c #DBDE9B",
"1X c #CAD495",
"2X c #DEF88B",
"3X c #C2F49A",
"4X c #CBF18F",
"5X c #EEFE9C",
"6X c #C5DCB4",
"7X c #D0CBBE",
"8X c #EBCEB2",
"9X c #CAF4B9",
"0X c #CEF7A8",
"qX c #E7FDAD",
"wX c #E9FFBD",
"eX c #F3FCB0",
"rX c #918DC4",
"tX c #ECBEC8",
"yX c #A1C6C7",
"uX c #93CDC7",
"iX c #D5D4CC",
"pX c #E7C6CB",
"aX c #D3F8C6",
"sX c #D2E5D6",
"dX c #D8FADB",
"fX c #CBF2C3",
"gX c #F6FCCA",
"hX c #E9FBDA",
"jX c #FAFAD6",
"kX c #E6FAC7",
"lX c #CDF0E5",
"zX c #E3FFE2",
"xX c #E9FCE7",
"cX c #FDFDEC",
"vX c #F6F9E8",
"bX c #FFECFE",
"nX c #FAE9F4",
"mX c #EDFFF4",
"MX c #E6FFF3",
"NX c #F3FFF6",
"BX c #FFFFF3",
"VX c #FFF3FC",
"CX c #FEFDFC",
"ZX c #F6F9F6",
"AX c #F8ECEB",
"SX c #FADAEF",
/* pixels */
"e.w.g.3.3.y.h.t.t.i.8.7 g XXpXv.< s.l.l.k.j.p.6.6.q.f.y.i.s.,.9 ",
"w.w.g.3.u.p.h.r.r.6.2.1 p :XsXQ.c.1.3.p.p.f.g.f.f.q.q.i.i.u.,.9 ",
"f.f.y.6.g.h.k.k.r.4.5 3 p X.0X3X+Xh e 2.:.:.q.d.q.w.i.i.p.3.,.9 ",
"f.p.y.u.p.j.h.t.4.6 2 M m | *X*X%XF 4 5 6 9.7.q.f.h.h.i.q.3.,.9 ",
"u.u.u.p.j.j.i.g.9.t 3 V U L L | R Y V M 2 6 7.6.f.h.h.f.w.6.,.9 ",
"u.u.p.p.j.g.g.0.I.Z V Y R L L L | @.Y F Z I.0.7.i.i.h.h.f.6.,.9 ",
"3.y.p.j.j.4.2.P.E.R.T T +.P +.| | | +.T +X-XU.7.4.y.f.f.w.6.,.9 ",
"d.p.j.l.p.2.t I.R.R.%X*X#XC m K K m C *X,XuXY.2.>.6.d.f.f.y.,.9 ",
"d.g.j.k.g.2.y F T @.@.9X6Xu $ H H % > >XaXyXY.0.6 7.:.q.h.p.<.9 ",
"q.f.h.i.g.0.I.Y T %X,XgXiXu # G ~ o ; 6XhXsXyXY.0.6 ;.:.h.s.1.9 ",
"q.w.i.y.:.P.E.%X@.*XwXcXiXu # T.~ $ ; 6XBXNXlXuXP.t ;.:.l.l.<.9 ",
"q.q.w.:.;.I.E.%X#.3XgXcXpXu   S G . * iXCXNXdX-XF 3 5 ;.l.l.1.9 ",
"y.y.q.;.6 I.W.%X#.3XgXBXsXg * ~ G * a sXCXNXdX;XF - 2 2.k.V.5.d ",
"y.y.d.;.t Z %X=X4XqXjXBXAX7X(.@X@XOX:XxXNXvXkX=X .K M e k.Z.5.9 ",
"p.y.6.9.y A Y #.4XqXgXcXCXCXhX&X&XaXxXmXNXvXeX2X&. .J 8 C.Z.5.9 ",
"p.p.4.c.T.F - N &.qXgXcXCXCXhX>X#XaXzXMXmXjXeX*.=. .N 8 k.S.5.9 ",
"k.i.:.U.-XA X n &.5XeXcXCXCXhX>X&XaXzXxXxXkX5X*.=.$.N 8 r.Z.3.9 ",
"r.r.:.U./.D X n 2X<X<XkXBXcXhX>X&XaXhXzXaX<X2X*.%.O.D 8 h.Z.5.9 ",
"C.r.:.c.T.a ; , W E E Q.(.`./.G H ^./.^.~ B W W W N p 7 a.l.5.9 ",
"C.r.d.r p D Q , o     @ # @ @ . X $ $ @ . o X o X X 1 w s.s.1.9 ",
"C.t.4.d j Q / E : : = = & & & - & & & & & - * 1 + + 9 c.n.x.x.q ",
"e.w.5.B.F.!.].! Q ^ ^.OXOXOXOXOX..........OX+X/.A s b.rXm.< < w ",
"t.z.M.D._.[.) _ / @X&X>X,XfX9X9X9X9X9X,X>X#X#X^.Q.v.).).m.1.q 9 ",
"q.n.rX.XK.J.) _ / X.#XfXdXvXcXvXvXxXdXdXfX;X@X(./ ~._.).M.1.q q ",
"4.5.D.F.K.J.) ] -.1X9XhXNXCXVXVXCXZXZXMXvX9X1X[ [ ].F.v.x.8.,.9 ",
"4.5.< F.H.{.( ] -.<XwXjXnXbXbXbXVXCXZXMXAXjX8X} ( _ l s 7.g.8.d ",
"s.5.x.g ].|.{ ] ] {  XoXpXSXbXbXVXVXZXpXoX X X' v z i 9 3.d.<.9 ",
"j.5.,.c./.(.1X{ _ ( ) {.}.pXnXbXVXnXpX}.'.` ` c z i s d i.f.<.9 ",
"A.i.;.y M H ^ |.( c x x ` }.8XvXAXpX}.'.x x x J.H.D.m.s.h.i.<.9 ",
"l.g.;.t 3 M G Q H.G.G.G.v ! ~.7XiX|.'.` x x J.[._.D.M.5.p.u.,.9 ",
"<.<.r e 8 r h f f f B.f B.f f b.F.~.!.'.H.'.[._.D.B.x.,.,.,.9 s ",
"9 0 0 q q 0 0 w w w w 0 0 0 7 7 h Q.!.!.].].!.~.v.s s 9 9 r 7 s "
};
