/* XPM */
static char *a38ffcd4de084947b7826b68649f50d8mwhnJBeYcRuJTiN6[] = {
/* columns rows colors chars-per-pixel */
"64 64 256 2 ",
"   c #156937",
".  c #19783A",
"X  c #117532",
"o  c #257D39",
"O  c #206F2D",
"+  c #19721E",
"@  c #166C47",
"#  c #1B7B44",
"$  c #15734C",
"%  c #1B734B",
"&  c #1C7C4B",
"*  c #177645",
"=  c #177857",
"-  c #117153",
";  c #257949",
":  c #277957",
">  c #2C7654",
",  c #057D7B",
"<  c #0B7C7C",
"1  c #07777A",
"2  c #117B7D",
"3  c #187960",
"4  c #367D68",
"5  c #2A7571",
"6  c #0E5D60",
"7  c #1D9D03",
"8  c #1C9D0B",
"9  c #1A9906",
"0  c #1C9D13",
"q  c #1D9B1C",
"w  c #1A9818",
"e  c #1B891B",
"r  c #229C04",
"t  c #239C0B",
"y  c #269B09",
"u  c #229C13",
"i  c #229B1C",
"p  c #26971A",
"a  c #21831C",
"s  c #16A201",
"d  c #1CA103",
"f  c #1DA10B",
"g  c #17A109",
"h  c #1DA113",
"j  c #1AA21A",
"k  c #22A103",
"l  c #22A10B",
"z  c #25A508",
"x  c #23A212",
"c  c #28A11A",
"v  c #1C8A2A",
"b  c #1C9524",
"n  c #1D9A23",
"m  c #1B942B",
"M  c #1D9A2B",
"N  c #149729",
"B  c #1B8434",
"V  c #1C8B34",
"C  c #1E843C",
"Z  c #1C8B3B",
"A  c #158939",
"S  c #1C9333",
"D  c #1C933B",
"F  c #189534",
"G  c #278B2A",
"H  c #229B24",
"J  c #22952C",
"K  c #269828",
"L  c #238C35",
"P  c #258839",
"I  c #249433",
"U  c #269439",
"Y  c #319136",
"T  c #1CA224",
"R  c #25A023",
"E  c #1C8344",
"W  c #1C8B45",
"Q  c #1D834B",
"!  c #178848",
"~  c #1A8654",
"^  c #148C44",
"/  c #238849",
"(  c #35874C",
")  c #229344",
"_  c #2A8556",
"`  c #35865C",
"'  c #3D924D",
"]  c #05827C",
"[  c #0A827C",
"{  c #078076",
"}  c #12807F",
"|  c #388667",
" . c #3B9369",
".. c #3B8874",
"X. c #2E856B",
"o. c #47975A",
"O. c #428C69",
"+. c #46946A",
"@. c #468B77",
"#. c #469777",
"$. c #559C7A",
"%. c #539472",
"&. c #55A36C",
"*. c #62A979",
"=. c #2B5C90",
"-. c #1B6C8A",
";. c #166987",
":. c #047D83",
">. c #0B7C84",
",. c #0D758C",
"<. c #047C8A",
"1. c #0C7C8C",
"2. c #0A7586",
"3. c #13748B",
"4. c #127C8C",
"5. c #177789",
"6. c #0F6F98",
"7. c #186D95",
"8. c #0B7C92",
"9. c #0B7695",
"0. c #137493",
"q. c #1C7393",
"w. c #137A93",
"e. c #18779A",
"r. c #0E6D88",
"t. c #276A8B",
"y. c #366989",
"u. c #3A728C",
"i. c #2C6C94",
"p. c #236B9D",
"a. c #286797",
"s. c #346C9C",
"d. c #386A97",
"f. c #25739B",
"g. c #267797",
"h. c #377498",
"j. c #28718D",
"k. c #1A74A2",
"l. c #166BA2",
"z. c #2C6CA3",
"x. c #276AA5",
"c. c #366BA6",
"v. c #2C72A4",
"b. c #2774A6",
"n. c #3474A4",
"m. c #3A77A5",
"M. c #316CB1",
"N. c #295C91",
"B. c #477689",
"V. c #477697",
"C. c #557B9A",
"Z. c #416C94",
"A. c #4777A7",
"S. c #557BA6",
"D. c #4672AB",
"F. c #637FA4",
"G. c #038283",
"H. c #0A8384",
"J. c #03848B",
"K. c #0C828B",
"L. c #098988",
"P. c #128387",
"I. c #0B8292",
"U. c #178294",
"Y. c #30878E",
"T. c #449485",
"R. c #589A8A",
"E. c #559194",
"W. c #648F9C",
"Q. c #5BA489",
"!. c #57A595",
"~. c #66A996",
"^. c #69B393",
"/. c #72B193",
"(. c #4C84A7",
"). c #5887A8",
"_. c #5B93B5",
"`. c #5889B2",
"'. c #668CAA",
"]. c #6B94AC",
"[. c #749AAB",
"{. c #6A96B8",
"}. c #7798B8",
"|. c #6789B6",
" X c #6AA9A7",
".X c #79A9A7",
"XX c #78B9A7",
"oX c #7BA3BB",
"OX c #78A7B7",
"+X c #79B8B7",
"@X c #6DADAF",
"#X c #7CC5B5",
"$X c #74C2AA",
"%X c #6D98C2",
"&X c #7698C4",
"*X c #668CC1",
"=X c #78A8C5",
"-X c #7DB9C9",
";X c #71A3C8",
":X c #819AB8",
">X c #85AAB9",
",X c #92AEBD",
"<X c #86B8B8",
"1X c #94BABD",
"2X c #84B2AC",
"3X c #83C6AB",
"4X c #88C6B8",
"5X c #8ECEB9",
"6X c #85C39E",
"7X c #819DC4",
"8X c #8AADC3",
"9X c #86A9C7",
"0X c #93ADC6",
"qX c #8BB2C4",
"wX c #8CB3CA",
"eX c #87B7C8",
"rX c #93B4CB",
"tX c #94BBCC",
"yX c #96B7C6",
"uX c #82ADD1",
"iX c #8DB9D5",
"pX c #9BBBD3",
"aX c #97B9D5",
"sX c #A1BBD3",
"dX c #89C6C5",
"fX c #96C7C9",
"gX c #98D4C8",
"hX c #94C2D2",
"jX c #9BC6D8",
"kX c #9BD5D5",
"lX c #8CCFCC",
"zX c #A3C7CC",
"xX c #A5D6CB",
"cX c #A5C9D9",
"vX c #A7D6D7",
"bX c #B1D6D7",
"nX c #A6E4DD",
"mX c #B6E6DE",
"MX c #ABE6CF",
"NX c #9ACAE4",
"BX c #A4CAE2",
"VX c #A9D7E7",
"CX c #B5DAE4",
"ZX c #B4DEF1",
"AX c #ADE5E9",
"SX c #B2E4E3",
"DX c #B7E8E9",
"FX c #B9F4EA",
"GX c #B8E9F3",
"HX c #B6F6F3",
"JX c #C1DDF0",
"KX c #C4E8EB",
"LX c #C7EBF5",
"PX c #C7F7F7",
"IX c #D3FCFD",
"UX c #C3F2EA",
/* pixels */
"r 9 r t f d d s s s s z l l u t y y y y r 8 0 w H T M b i i c p i i i x h g g g f h x x t 8 9 r 7 d d d g f h g g g 7 7 7 7 9 7 ",
"t t t 7 g s d g s d s d f x u u 9 y r y x p q w K M m K H p p u e w i 0 j h 0 0 q u i i u u t 7 d d d d g g g g g g 7 7 7 8 r 8 ",
"r r r 9 7 9 s d d d z z 9 t y y y y 9 8 i K K J S S I I G e a p G v v e b b n n b m J H H i u 8 d 7 7 7 9 s 7 7 d d d f d r r r ",
"r t l r 7 7 d d z z d d r 9 9 t u t w i H J S V V Z P P P G G Y Y Y L v v v v V V Z U I J K q 0 f g s 7 s 8 s d f f f d t t r l ",
"r r z t d 7 7 s d d d 7 7 7 k x u u H I D Z . . . X . / ' o.o.o.o.&. .( . X . . & Q E E Z S m q j 0 g g g d d k r r r r r y r r ",
"r r k z l 7 7 7 7 d d d 7 7 r l u H J I Z # Q ~ ` | ` o.%.*.*./.^./.^.*.O.| ` | | : & # C Z S M q j h g d d d k k r r r r r k y ",
"r r k k l d 8 7 k 7 k 7 7 9 9 8 i K I Z . = ..!.XX#X#X$X/..X2X4X3X5XxXMX5X3X4XXXQ.@.: = Q W D D M q j 8 d d k k r r y y y y r r ",
"k r 7 r r 7 7 r 7 7 9 r r y r u e J P . * 4 !.#XnXAXmXgX2X2X1XfX<XfXDXIXUXDXFXnX+XW.4 : ; / W ^ M n 0 8 7 k 7 r r r y y y y y y ",
"k r 7 7 9 7 l f 7 7 r u c c c p p G o ; 4 @. XlXGXPXPXCX>X[.8X9X>XaXZXIXIXIXIXUX5X.X%.O.| ; * . U R R y z k r r r r y y c y y y ",
"k r r 7 7 k 8 l 9 9 y p c c p G c ' %.$.Q.W.OXdXVXLXGXBX,X}.7X7X}.9XsXZXLXIXUXmXzX1X/.W.R.@._ / ) Y K p y y r k r y x y y y y y ",
"r r 7 r l l 0 8 8 t p p c Y a G ' *.6X5XdXdXeX8XhXjXjXpX0X7X&X*X&X&X{.}.yXzX4X1XxXbXzX5XXX/.!.+.( L G K c y y y r k y u y y y y ",
"r r r l t f f 0 w w K K Y G + o &.6XmXUXvXfXqXOXoXeXaXBXiX&X*X|.*XS.Z.V.[.>X>X2XsXbXbXvX4X#X4X^.` P Y Y G K p y y y z y l y y y ",
"r r r k f h 0 0 p K c G Y O O ' /.xXUXUXfX>X>X.X[.+XBXVX;X`.D.D.D.D.=.y.'.[.[..X1XzXzXtX2X<XlX3X+.; o o P Y p u u t t 8 y t l u ",
"r r y r 8 g 0 0 i c Y Y Y ( o.*.5XbXUXbXyX>X[.[.W.[.iXNX{.m.c.s.M.M.N.d.V.).].OX>XqX8X8X>XeXfX1XR.O.o.> o G Y p i 8 7 7 8 r l t ",
"y y r r 8 0 0 q H H Y Y ' *.2X2XxXbXzXzXzXyX.XW.E.B._._.A.m.z.x.M.x.x.=.h.(.].oX}.}.}.oXqXfXfX<X.XR.%.O.( P L K i t t 8 d 8 8 8 ",
"r r r d 8 f q q H v + ' &.6XxXKXbXzX1X1XtX1X[.B.B.y.V.h.h.f.z.b.x.x.M.z.i.h.`.{.%X).S.'.=XhXeX<X<X2X.XR.O./ P J H x f d l 8 8 8 ",
"7 7 7 d f j q n I L o ` /.MXUXKXfX>X0XrX0X}.C.y.u.u.u.j.j.f.e.k.l.l.e.b.f.g.n.m.c.D.Z.D.{.9XyXyX2X1XxX2X%.> o L H u g 9 g f g g ",
"r 7 d d f 0 n J L o   O.5XFXSXCX,X,XaX9X{.C.5 y.h.u.t.-.q.b.k.k.6.6.e.g.g.g.p.a.c.c.c.c.S.{.>XyXsXbXmX5X@.@   P J i 8 7 s g f l ",
"r k z f 0 w n I Y o   4 5XvX<X>X0XpXBXuXS.=.=.y.h.j.2 ;.U.U.b.9.6.6.3.w.g.e.-.7.x.=.z.=.d.Z.].yXJXKXmX2X4     G J H j 8 7 7 f l ",
"7 k l x 0 q b I o o ; %.3XzX2X[.rXjXiX%Xd.5 i.s.h.t.;.r.5.U.U.e.U.1.>.5.U.U.q.7.x.M.c.d.y.V.].rXKXKXmX,X@.> . X m H x 8 g d 8 8 ",
"7 9 9 0 n b v B   ( $.XX<XfXeXwXuX;X%X(.a.N.7.f.g.g.4.r.4.1.8.K.K.>.1 1 >.4.5.0.l.l.x.n.(._.=XwXsXCXJXxX2X$._ . v b q f x l t 7 ",
"7 9 8 i H I L . O 4 XXgXkXkXhX=X;X`.D.m.c.z.b.e.e.w.w.1.1.1.1.I.H., , < [ < >.w.7.l.7.f.m._.-XrXsXsXzXzXxXXX .. V m q i x l r 7 ",
"f u 0 n J L P . ; O.4XSXGXZXiX{.D.c.M.z.b.b.l.e.9.9.1.>.K.H.L.L.G.{ { { , , K.8.9.e.e.7.t.h.{.eXsXsX,XzXxX3X+.# Z S b 0 8 y r r ",
"x x i b J C o ; > @.5XGXGXVXOX).d.c.M.x.k.b.6.k.9.1.<.G.K.H.G.G.L.{ { ] , , <.8.9.6.7.7.6 t._.OXyXyX,XzXmX4XO.. Z I K w w r r y ",
"8 0 n b v C ; ; : @.dXVXjX=X(.d.D.m.M.v.k.l.l.9.9.I.I.J.G.] ] { ] ] , , ] H.K.1.8.9.9.e.p.j.u.V.:X0XKXKXmX4X .X E D m n c t y r ",
"8 0 q m B / ; ` 4 W.dXfXhX{.C.u.D.c.c.v.k.l.9.9.I.I.L.G.] ] ] ] ] ] H.H.H.:.K.I.8.8.9.e.g.u.V.).:X0XCXKXKX5XQ._ / Z F b c 0 y r ",
"9 8 H m Z # : ..@X4X+XoXhXiX&X|.d.a.p.x.7.6.9.9.J.:.] , ] { H.G.:.G.>.H.H.>.<.I.8.8.9.0.q.Y._.=X,X,X,XzXKXmX5X^._ E F M i u y r ",
"8 u q m U / & #.lXkXdXqXhXiX=X`.d.a.a.7.7.0.9.1.<.:.] ] { { L.G.G.<.:.>.>.K.K.I.8.9.,.r.q.m._.uXsX0X:X,XbXmXmX5X .Q Z D b w r 9 ",
"f 8 q v W E $ ..4XFXAXVXiX].).u.d.s.f.f.7.3.w.1.>.H.L.[ [ ] ] G.K.<.1 >.>.4.P.K.1.I.8.3.q.i.m.`.9XsX0X,X>X1XxXgX#.~ ^ ) J q 0 8 ",
"f 8 q b ) Q = ..lXAXHXAXdX{.).u.h.h.n.f.-.0.w.4.:., [ L.L.G.:.G.J.<.:.1 < >.P.P.1.K.1.9.q.g.i.V.'.0X0X,X,X1XbXgX#.= ~ ^ S n i l ",
"l 8 c m ) Q $ ..lXnXlXeXhX-X{.).h.i.j.-.0.5.w.>.1 , ] H.L.H.:.:.<.J.H.H.1 1 >.1.K.1.1.w.e.f.d.Z.B.F.:XyXbXJXDXdXY.& ^ ^ F M 0 0 ",
"d 8 n N Z Q $ ..5XnXlX+XhXiX{.`.h.t.-.7.q.w.4.1.>.1 :.H.H.] :.:.:.K.U.5.1 1 1 >.>.<.1.e.U.f.=.y.Z.C.:XsXCXLXDXdXT.= $ ^ D M q 0 ",
"9 8 H I U # % O.lXDXFXbXfX}.W.(.i.-.-.-.5.0.4.4.1.4.>.:.H.J.G.G.<.8.P.4.5.2 1 1 :.:.2.<.r.7.j.c.S.}.rXsXcXcXCXlXT.3 - ^ ^ F T j ",
"9 h q m C & ; @.4XFXLXCXhXOX).h.j.;.;.3.0.4.8.3.4.1.>.>., G.] G.1.4.5.5.2 2 < < K.H.:.,.q.7.p.s.).&XrXpXpXcXVXlXT.3 3 ^ ^ F M j ",
"f j H m Z Q : T.5XSXvXtXtXwX}.).t.;.r.3.3.4.1.1.P.>.>.< , H.L.] 1.4.2.1 2 2 < { H.H.>.5.g.n.n.h.S.F.7XsXBXCXVXdXY.= ~ ^ D F n n ",
"l 0 n m E Q : #.gXmXfXqXhXwXOX(.t.;.-.5.,.2.>.>.>.< < < , ] ] ] >.>.1 1 } } } { [ H.K.U.U.Y.h.h.Z.F.:XaXBXGXGXlXT.= = ^ D M n q ",
"l 0 q S A * $ ..gXAXvXtXwXoX'.V.j.g.g.P.,.1 2., < < < [ [ [ [ ] G.:.1 , } } [ { H.H.>.4.g.t.y.d.F.|.7XsXsXBXAXlXY.3 - ! D S n u ",
"8 0 q I Z # @ X.#XvXAXvXrXoX).B.h.g.Y.g.5.1 1 1 < 1 { { [ ] ] ] :.:., :.P.P.] { H.K.1.5.;.t.i.V.F.:X0XsXpXaXkXdX..- ! ^ F M i 0 ",
"9 8 n M D Q $ 4 ~.4XGXGXcXoXC.Z.h.g.g.5.5.2.>., , < { } ] ] ] G.G.G., G.H.H.] G.<.K.w.r.-.i.m.).7X0X0X0X9X>XdX@X..= ! A v b i 8 ",
"9 x n m D ^ * X.@. XCXGXcX8X].).).h.g.-.r.1.>.< { { { { ] ] L.G.G.G.G.G.J.J.G.K.K.U.0.7.-.i.D.|.0XsXBXsX0X>X X@.X.* ! A m q p u ",
"8 8 w b F Z ! % : @.fXcXqX<XeX-X;X(.g.;.;.w.2.>.>., { ] ] ] J.L.J.L.G.J.:.<.J.<.8.e.e.k.a.a.c.F.7XaXJXLXZX<X@.6 = ! W D m q u y ",
"8 8 0 n F Z Q $ @ ..dXkXeX8XtXjX=X_.h.-.e.e.,.4.>.< H.] G.J.J.J.J.J.J.J.<.<.<.9.9.k.b.b.z.s.d.D.&XsXLXIXLXdX4   $ ! ) I n i u r ",
"7 8 0 q M D Z . * @.4XvXfX8XeXeX-X_.m.a.f.e.r.0.1.>.>.K.G.J.J.J.L.J.L.J.<.<.,.8.6.e.b.v.M.c.D.S.:XsXZXLXGXdX..@ . ! D I i u t y ",
"7 f 8 w T F A A .  .XXgXgXfXfXiX;X(.h.f.v.b.7.7.3.3.4.>.K.I.J.J.J.J.I.I.8.8.0.e.k.b.z.v.D.D.S.*X7XpXvXkXkXXX| * ! A S n w u y l ",
"k g 8 9 w n N A . : %.^.gXSXDXcX{.V.d.i.v.n.b.e.7.q.5.2.1.9.9.<.<.J.8.w.w.w.k.b.n.z.s.c.`.%XuXiX9X8XjXfX X@.: E ) Z m n u t y y ",
"k s 9 g 0 N m D C o ; @.4XHXPXVXOX(.h.s.p.z.x.p.b.j.-.3.,.8.9.9.<.<.1.9.w.e.b.n.m.s.=.Z.&XiXaXpX0X9XjX1XT.> ; / U m b q u x r r ",
"k d 9 s 0 T n S P .   | 3XDXHXAX-X_.A.s.x.a.p.p.v.f.-.;.3.0.9.9.9.,.9.5.g.g.v.m.s.d.d.A.&XaXaXrX,XeXvXdX@.% ; / Z S n i x r r r ",
"r 7 9 7 h j H M I o   : /.kXAXAXhX@X`.A.s.=.x.c.n.n.j.t.t.7.e.k.0.0.0.q.f.j.h.h.A.A.C.'.9XcXpXtXhXjXvX+XX.@ Q ) S M H c u r r r ",
"7 7 f f h 0 q H b P X _ Q.+XlXkX-X-X;X;X`.(.`.(.h.y.h.j.a.x.x.x.b.f.f.g.N.5 y.B.).}.oX8X,X1XbXmXDXvX+XR.: % E ) S M n 0 9 9 y y ",
"7 7 7 t f x 0 w H J P _ O.R.@X-X-X-X-X-X;X{.{.'.(.V.h.d.c.c.M.x.v.v.s.h.y.y.B.V.[.8XrXrXqXyXCXUXmX4XQ.| ; # W U J T c 0 8 r y y ",
"7 9 7 7 l x u w K Y Y / @ 3 !. X+X-X-X-X-XiX-XuX=X].V.u.d.c.M.M.c.n.m.`.).'.'.'.9XaXrXrXzXCXKXbX1XR.4 > # # A m M n j u y r y y ",
"7 7 9 7 t t t 8 K K Y P   @ X.!.+XdX=X@X-XhXNXNXjX8X).d.d.c.D.c.a.s.D.{.=XeXuX9XwX0X8XtXCXPXDX5XR.4 % @ # Z V m q h l f r r y z ",
"d 7 7 7 7 r 9 t p p K P o * @ | $XlX#X+XdXhXjXcXVXpX'.V.Z.d.c.c.N.d.S.{.iXBXBXsXwX>X}.tXGXPXvX.X4 > @ ; C L J H 0 h k z k r r r ",
"k r 7 7 7 7 r y y p G I P C X ; ^.$XXX@XdXhXvXVXVXBX9X'.S.S.D.D.d.D.).&XNXVXBXBXwXoX>XhXAXAX<XR.4 : * E P I m q 8 d f k r r 7 r ",
"d k r k r r r r y t p K J L X W  .$.!.^.<XfXbXCXcXcXBXaXuX%X{.*X*X{.&X9XNXVXVXBXeXeXtXhXhX-XW.4 : % # Z I m q 9 g g k d d r r 7 ",
"7 7 r k r r r r r t c p K J L Z . _  .$.~.XXfXxXzXcXGXGXBXiX-XuXiXiXeXiXjXVXVXjX-X=X@X@X@XE.4 5 = & E V m q 0 8 7 d d d 7 7 r r ",
"r 7 7 r k k k d r y u u u e K U . C _ _ > | R.4XvXSXAXAXGXGXNXkXZXVXdX-XjXAXAXkX+XE.u.5 5 5 2 3 $ . A v b w 0 8 7 d 7 7 7 d k z ",
"r 7 7 r k k k k r r l x u w R K V B B .   % O.Q.4X4XdXdXAXHXHXHXHXAXlX#X-XdX-X#X!.Y.3 - 6 3 3 ~ ^ A V m n q l d 7 d d 7 7 7 k z ",
"r r 7 7 r k k d 7 7 7 k x u q q J L L B o . ; > | @...R.#XnXHXHXHXHXgX$XR.........X.= ~ = ~ ~ ~ ^ F m m i x t f 7 r 7 7 7 d 7 l ",
"r 7 r 7 7 k d k 7 d 7 d l u 0 w H J J L L B . # * $ - 3 !.$X#XgXlX5X#X!.X.$ - = = ~ ~ ~ ~ ~ ~ ! D N n n 0 0 8 r l l t l r t 7 d ",
"r r r 8 d d d d s 7 7 d f t u 0 p p K J J Z P E & / = : |  . . . . . .X.~ & & ! ~ ^ ^ ^ A F A N N M q 0 8 t 8 r t l u t l 7 7 d ",
"9 r r l f d d s s s d 7 7 7 t u u p i H J S U D W / / / Q # . # Q * & Q & Q ! W ) D F N N N N N N q j 0 8 8 r 9 t t t t t l 7 7 ",
"t t t f d d s s d s d d 7 r y t y y u i H J F V ^ W ~ / / E C E Q ! / W ! ) ^ D N N N N N j N j j 0 0 8 7 r r y t t t u t k d 7 ",
"y l y d z s s s s s d d 7 t t t u t t 0 K R m F ) W W ) W W P P W Q ~ Q ) ) A F N N T j N g j j g j 8 8 7 9 y t t t u t t k 7 d "
};
