/* XPM */
static char *_c0d6848ec644d61ae4cf21eaddba3433lryT9gb15zDz7ky[] = {
/* columns rows colors chars-per-pixel */
"64 64 256 2 ",
"   c #3D1C1B",
".  c #07340B",
"X  c #3A3600",
"o  c #383216",
"O  c #173D38",
"+  c #581902",
"@  c #52140E",
"#  c #680D07",
"$  c #631407",
"%  c #680F16",
"&  c #482801",
"*  c #572800",
"=  c #4A3803",
"-  c #553902",
";  c #423117",
":  c #74251C",
">  c #6A3109",
",  c #703133",
"<  c #502429",
"1  c #395604",
"2  c #354D0D",
"3  c #396706",
"4  c #39780C",
"5  c #3B7A13",
"6  c #2A7416",
"7  c #145A3A",
"8  c #114F35",
"9  c #255537",
"0  c #1A6729",
"q  c #1A6738",
"w  c #1D7438",
"e  c #1D7527",
"r  c #26792B",
"t  c #257937",
"y  c #377636",
"u  c #306E2F",
"i  c #125F0B",
"p  c #474703",
"a  c #475707",
"s  c #524D0E",
"d  c #715310",
"f  c #44680B",
"g  c #477808",
"h  c #57760C",
"j  c #476917",
"k  c #467915",
"l  c #576B0E",
"z  c #646410",
"x  c #515029",
"c  c #76512F",
"v  c #477924",
"b  c #507332",
"n  c #6D6D37",
"m  c #123851",
"M  c #173C68",
"N  c #193B77",
"B  c #12356F",
"V  c #273A79",
"C  c #20366F",
"Z  c #253C51",
"A  c #0B4948",
"S  c #144947",
"D  c #155748",
"F  c #0D4658",
"G  c #154758",
"H  c #185656",
"J  c #0E524D",
"K  c #2B5053",
"L  c #1C6746",
"P  c #1D6252",
"I  c #1F7345",
"U  c #236A4A",
"Y  c #287748",
"T  c #327052",
"R  c #164668",
"E  c #1A5265",
"W  c #164578",
"Q  c #0D436A",
"!  c #264A68",
"~  c #27447A",
"^  c #36477B",
"/  c #33556C",
"(  c #2B6565",
")  c #515753",
"_  c #6C5A54",
"`  c #4F7250",
"'  c #6D6E4D",
"]  c #495671",
"[  c #4F696E",
"{  c #71726F",
"}  c #5C3F44",
"|  c #873B14",
" . c #863F2D",
".. c #894515",
"X. c #8F4B31",
"o. c #A35736",
"O. c #8F7050",
"+. c #AF6B50",
"@. c #90726D",
"#. c #A15B42",
"$. c #C27A62",
"%. c #1D9D03",
"&. c #1D9E0C",
"*. c #189C02",
"=. c #1D9D15",
"-. c #398A0A",
";. c #239C04",
":. c #2A9C04",
">. c #249C0B",
",. c #2B9A0C",
"<. c #2A9507",
"1. c #33940B",
"2. c #379609",
"3. c #278B1A",
"4. c #3A8816",
"5. c #2B9515",
"6. c #249C13",
"7. c #2A9B13",
"8. c #2B951C",
"9. c #239C1C",
"0. c #2B9A1B",
"q. c #259518",
"w. c #349413",
"e. c #3B931A",
"r. c #369617",
"t. c #2D8C0A",
"y. c #14A403",
"u. c #1DA202",
"i. c #1AA30A",
"p. c #0FA402",
"a. c #22A202",
"s. c #23A10B",
"d. c #28A206",
"f. c #22A114",
"g. c #2B8C2C",
"h. c #278827",
"j. c #368929",
"k. c #2C9423",
"l. c #289628",
"z. c #369427",
"x. c #298737",
"c. c #348B39",
"v. c #2A9335",
"b. c #319334",
"n. c #1F9622",
"m. c #45870A",
"M. c #438817",
"N. c #55880F",
"B. c #468629",
"V. c #4C9035",
"C. c #68843A",
"Z. c #2A8542",
"A. c #338648",
"S. c #538C49",
"D. c #738D4D",
"F. c #6D9268",
"G. c #95963E",
"H. c #8C9351",
"J. c #96A753",
"K. c #A5A750",
"L. c #8E9370",
"P. c #93A96D",
"I. c #B1B56F",
"U. c #AE8E6E",
"Y. c #CA8C72",
"T. c #C4BE6F",
"R. c #B4C86E",
"E. c #183888",
"W. c #172C99",
"Q. c #1A3799",
"!. c #113288",
"~. c #253988",
"^. c #273A98",
"/. c #2A3791",
"(. c #192DA4",
"). c #1B35A8",
"_. c #1D37B7",
"`. c #1A2EB2",
"'. c #243CA4",
"]. c #243BAC",
"[. c #2A3DAC",
"{. c #2638A7",
"}. c #253CB3",
"|. c #2A3DB4",
" X c #243DBC",
".X c #293EBA",
"XX c #2235B6",
"oX c #303EA7",
"OX c #1B4384",
"+X c #1B458B",
"@X c #1C4396",
"#X c #284289",
"$X c #364889",
"%X c #264499",
"&X c #354998",
"*X c #3E538D",
"=X c #1E43AB",
"-X c #1E42B8",
";X c #2444A4",
":X c #2A42A3",
">X c #2442AC",
",X c #2944AA",
"<X c #2543B4",
"1X c #2B43B4",
"2X c #2441BB",
"3X c #2A42BA",
"4X c #2D4AB9",
"5X c #3755BA",
"6X c #334DAC",
"7X c #485997",
"8X c #48578B",
"9X c #526794",
"0X c #657798",
"qX c #6D788A",
"wX c #4458AD",
"eX c #5969A7",
"rX c #6877AA",
"tX c #243DC3",
"yX c #273EC8",
"uX c #304CC2",
"iX c #1F40C1",
"pX c #405BC2",
"aX c #867C8B",
"sX c #7586AF",
"dX c #768B85",
"fX c #958E8C",
"gX c #AA9691",
"hX c #96AE88",
"jX c #A4B392",
"kX c #8D92AF",
"lX c #B5AEAD",
"zX c #9EA6B2",
"xX c #C39987",
"cX c #E4B19A",
"vX c #CDB6AE",
"bX c #DFAF96",
"nX c #B3CB94",
"mX c #B8CBA8",
"MX c #CBD894",
"NX c #D7E591",
"BX c #CAD2B7",
"VX c #F3CCB9",
"CX c #EFF3B6",
"ZX c #DFE6A4",
"AX c #97A5C1",
"SX c #A7B4CB",
"DX c #97A6D3",
"FX c #B7C8E2",
"GX c #B2C3DF",
"HX c #CFD5CE",
"JX c #F6D4C3",
"KX c #D7E4D4",
"LX c #F4F1D1",
"PX c #D9EAFA",
"IX c #EFFAF4",
"UX c #C9D9F6",
/* pixels */
"a.u.u.y.i.i.i.y.i.a.u.a.a.a.u.u.u.%.%.a.;.a.:.>.,.5.5.5.q.q.w.w.z.0.8.8.j.z.z.b.z.k.k.8.q.7.,.>.6.>.>.>.>.>.s.s.a.i.u.a.a.a.a.a.",
"u.u.u.i.y.u.p.y.u.%.a.a.a.;.u.u.u.a.u.%.;.;.>.7.0.8.0.z.k.8.0.3.8.h.g.h.g.g.g.g.b.g.k.k.k.7.7.7.7.q.6.q.6.s.>.>.;.;.u.;.a.a.a.u.",
"%.u.u.y.y.y.y.*.%.u.;.;.;.%.%.%.a.%.%.;.;.>.,.0.0.l.z.b.v.l.n.n.h.r x.x.x.x.t t x.x.g.b.z.k.k.0.8.9.8.9.q.q.6.>.>.&.;.i.a.i.u.u.",
"%.u.u.u.y.y.*.*.%.;.>.>.;.;.;.;.i.>.;.;.>.q.8.l.b.b.A.b.x.w 0 w q L q L L q q q q t x.A.c.v.b.g.g.g.g.l.k.8.q.=.6.>.6.>.>.&.%.%.",
"%.u.u.u.u.u.*.*.>.>.7.0.7.7.6.,.>.;.>.7.q.n.n.n.b.Z.Z.Z.P I L 7 A A J J J A A 7 D L Y Y A.A.x.t x.x.x.h.n.h.n.8.0.q.q.0.6.6.6.f.",
";.a.a.u.u.u.%.>.0.0.z.8.k.8.0.0.7.7.5.8.l.x.x.x.I Y I P P H P J F F F F F F F F F H H T U U q U q w w w e w x.g.g.k.8.0.8.0.7.0.",
";.;.u.u.u.a.>.6.0.k.g.h.h.g.g.k.k.k.k.l.g.x.Z.w L J H J E E Q Q W OXOXOXOXOXW W W E E G H K D D J 8 7 7 q w t Z.c.g.g.3.8.5.0.0.",
">.;.;.%.u.a.>.q.3.h.r r r t t h.g.b.b.c.x.t I P J J Q Q W OX+X+X%X=X;X;X@X%X@XE.#XOXW R R R m F A A A A J J L Y Y t r h.h.k.k.r.",
"6.>.%.%.s.d.7.3.e e 8 0 0 q q t Z.A.A.Z.I P J J F Q Q W +X@X%X:X;X,X;X>X].>X;X>X;X%X@XE.N W N W R R Q Q R G H J L q q r h.g.z.z.",
">.&.<.%.>.7.q.k.e i i 8 8 D D U Z.Z.Z.P P P H E Q OX+X@X@X>X,XoX4X<X}.}.|..X1X1X<X>X'.%X%XQ.%X+XE.E.W OXW W Q Q F J 7 q r r j.j.",
"6.>.%.%.>.0.8.3.e i O 8 S A G H P P P P E E Q W +X+X@X).>X<X|..X|..X2X.X.XtXtX.X3X2X<X].>X,X,X;X:X;X;X%X@X@XN Q F F A 0 0 r r h.",
"6.&.&.>.>.0.8.h.e 0 8 O S Z G E Q E E P Q W W +X@X=X;X<X<X}.XXoX}.}..X.X.XtXuXtX X X3X2X1X3X3X|.1X[.].>X@X@X+XOXR F A 7 7 0 r r ",
">.s.&.%.>.q.8.j.r t 9 K G G C W E E W +X+X+X@X@X=X;X<X<X|.[.XX(.(.XX`._. X XtXtXtXtXtX3XuXtXuX.X3X3X>X].;X@XOXW Q F A 7 0 q r t ",
";.a.s.>.>.5.8.j.c.b T / ! C V N +X+X+X@X%X;X;X;X=X<X|.|.XX{.(.(.(.W.(.`._._.tXtXtXtXtXtXyXtX3X X.X}.].'.Q.+XN Q F J 8 7 q w x.x.",
"a.u.a.;.<.q.r.b.V.S.[ ( / ~ ~.E.+X6X6X;X5X6X,X<X<X}..X|.XXXX(.W.W.W.(.(.)._. X XtXtXtXtX.XtX X X).).).@X@XW R R J J L L t Z.Z.c.",
"u.a.a.i.%.>.w.z.S.S.S.[ / ~ ~.#X5XpX5X5X5X5X1X<X}.1X|.[.{./.W.W.W.W.W.(.)._._.}..XtXtXtXtX.X XXX).).Q.E.+XW E E P L U t Z.c.x.v.",
"u.a.u.%.%.;.2.z.V.S.S.[ / $X$X6X5XpXpXuXuX5X4X<X[.].oXoX^.~./.~.~./.^.Q.W.(.(.}. XtXyXyXtXiX2X_.).(.!.!.OXE E ( Z.Z.c.l.l.l.l.n.",
"u.u.u.;.;.;.,.e.V.T [ ( / *X&X5XpXpX5XuX4X-X<X<X[.'.^.~.~.~.$X#X~.%X^.^.Q.W.(.].XXtXyXyXyXtX X_.).W.!.!.W E ( A.A.A.b.l.l.9.=.=.",
"%.y.u.i.;.>.7.e.5 y K / $X*X6XwXpXuX5X4X3X1X<X<X].{.^.~.~.$X8X7X*X$X^./.W.W.(.)._.XXyXyXyXtX X}.).).@X!.W E ( T A.A.v.l.k.f.9.=.",
"&.&.y.=.s.7.3.h.u 9 9 G ~ *XwXwX5X5X4X-X2X2X X<X].^.Q.~.V *X8X9X7X*X#X/.^.Q.W.(.`.XXyXyXyXtX2X X-X).@X+XOXE ( T A.Z.v.l.9.l.l.=.",
"&.i.i.f.f.k.k.h.0 9 S ! ~ &XwXwX5X5X4X1X3X X.X}.].^.^.N #X/ 9X9X0X7X#X#X^.{.(.`.`.tXyXyXyX.X2X1X-X=X=X+XW R E P Y x.c.v.b.k.k.9.",
"i.=.=.=.f.l.g.e q D m M ~.oX4X5X5X5X4X1X3X3X.X}.[.oX~.~.^ 8X9XdX0X7X$X#X^.'.].`.`._.yXyXyXtX}.<X-X-X>X@X+XW R H P U Y x.b.l.l.k.",
"=.i.i.=.9.n.v.w L D G B ~.:X1X1X1X1X3X X.X|..X|.1X^.#X~ ^ 9XsXsXsX7X&X#X:X]._.`.`._.yXyXtX X}.<X-X<X>X;X@X+XW R G H U Y t c.b.l.",
"i.=.=.=.n.n.v.Z.U H R N ~.'.|.|.3X3X|.|.}.XX].{.'.^.#X#X~ 9X0X0XeX7X&X%X,X,X).`._._.yXyXiX X}.}.).-X].>X>X%XE.OXM E H P U Y Z.c.",
"*.&.&.=.9.l.v.Z.L H Q B %X'.].|..X3X|.}.].{.W./.E.~.V V ^ *X8X9X7X6X%X,X,X,X]._.-X4XiXiXiXiX X}.XX}.|.|.1X1X;XQ.@XW E E H U Y A.",
"&.&.&.=.n.l.v.Z.L H F B E.^.].1X1X3X}.{.:X%X^./.~.~.V ~.$X$X8X*X&X&X:X:X[.<X=X=X-X-X-XiXiXiX X3X|.|.}.|.1X1X1X;X;X+XW E H D U Y ",
"%.%.*.=.=.n.n.x.U L F Q V %X^.,X1X1X{.^.,X6XwXwX7X7X7X8X8X$X8X~.%X,X[.|.<X=X=X=X=X-XiX-XiXiXiX3X3X|.].].|.1X1X>X,X%XOXW G H P U ",
"%.%.&.y.=.n.n.h.t D S G M #X%X&X^.^././.7XeXsXsXsXsXkXsXrX9X$X~.%X].].1X<X<X-X=X-X-X-XiXiXiX3X3X1X[.'.{.'.oX,X,X;X%XW R F J P U ",
">.i.i.%.&.6.l.h.w q S S M C ~ #XN N C V eXkXSXFXFXFXGXDXDXsX7X$X^.{.].|.<X<X-X=X=X-X-XiXiX_._._.[.^.Q.^.^.%X%X#X+XW Q m A A P U ",
"s.>.&.%.&.6.q.h.r u U K K G C C B B Z V 0XAXFXPXPXPXPXUXDXDXeX&X^.{.{.}. X<X>X-X-X=X-XiX_._._.(.Q.Q.E.E.V ~.W N W Q Q A A 8 U Y ",
">.s.>.>.&.6.q.k.h.r 9 9 Z m S C m m m Z qXzXKXPXIXPXPXUXGXDX7X$XoX{.].|.<X<X<X-X-X-X-XiXiX_.(.(.W.!.!.N W R R m m F A A 8 7 U U ",
"f.s.s.&.&.6.6.3.r e 0 8 O O K K ) Z Z ] qXzXKXIXIXIXIXPXFXDXeX*X/./.{.>X4X<X4X<X-X-X-X-X_.`.(.W.!.!.N N ~ E G S S D D 7 7 0 t t ",
"&.&.i.>.&.>.*.3.6 i . . . . T { dXdXF.F.hXmXLXIXIXIXIXPXHXzX0X8X8X/.oXoXoX}.<X<X=X).2X X}.}.`.W.E.!.V ~ / ( T T Y I I w n.w h.x.",
"&.&.>.>.=.&.3.3.i i i . . O ` F.zXhXhXhXmXBXLXIXIXIXLXIXUXSXkX0X7X7XwXoXoX[.>X>X>X>X1X.X.X}.{.(./.~.#X! ( ( T A.Z.Z.Z.n.e n.n.n.",
"&.>.&.i.&.6.q.3.3.6 2 i 2 b D.jXmXmXnXnXBXCXLXLXLXIXLXKXKXHXSXkXrXpXeXoX:X;X;X>X1X1X|..X|.[.{.^.~.E.~ E ( ( A.A.Z.v.v.v.l.h.q.k.",
"f.i.=.&.&.6.6.5.3.3.5 u j ` F.P.nXmXmXMXBXCXCXCXLXLXLXKXHXHXSXAXaXrXeXwX:X'.;X).[.|.|..X|.|.{.{.#XV ~ G H P I Z.v.v.v.n.=.=.6.>.",
"6.=.i.=.s.f.f.7.t.j.B.v C.C.D.J.R.R.nXNXZXCXCXCXCXCXCXCXBXBXlXkXaX0X7X8X%XE.^.(.).'.].|.[.[.,X:X#XW Q F A q I v.v.v.l.9.q.>.>.<.",
"f.6.&.&.i.f.s.7.r.z.B.V.V.C.C.J.F.R.R.nXNXNXNXNXNXZXZXcXvXvXgXfX0X8X8X/./.W.W.W.).).].{.'.oX&X#X~ W m m 8 7 w x.v.l.n.q.&.>.<.;.",
">.>.>.&.f.s.f.7.r.M.V.C.V.C.C.C.D.J.R.R.R.R.I.T.T.T.T.T.I.fX@.{ 8X] ^ /./.W.).{.).).).Q.Q.E.V N M R m m 8 7 w x.v.l.l.6.>.<.;.<.",
">.>.%.;.d.f.d.0.r.V.V.V.D.D.D.S.D.D.D.J.K.K.G.G.K.K.K.K.L.D.{ [ ] ^ V ~.W.^.{.).).W.Q.!.N N R R G m O 8 8 q x.x.l.9.q.>.<.;.;.:.",
"<.;.%.<.;.,.7.0.z.V.S.V.P.P.F.P.P.J.H.H.J.J.J.G.G.G.G.G.O.' _ ) ] ^ /./.oX[.[.}.).Q.!.N B R G H S S 8 8 7 u x.h.l.l.q.&.;.;.:.d.",
";.<.<.:.,.5.r.z.V.V.F.P.hXnXnXnXP.P.D.H.H.J.K.J.K.K.G.G.n n _ _ ] ^ 8X/.oXoX|.[.'.Q.+XB R R P K U L q 0 u r h.k.9.6.>.;.s.d.d.d.",
"<.<.t.<.r.r.e.B.V.S.F.hXnXmXKXmXmXjXL.L.P.I.I.I.I.K.K.G.' ' ' [ 8X$X/.oXoX|.[.[.Q.+XB Q E ( T ` ` y u y r j.j.8.q.>.>.a.a.a.u.u.",
"2.2.t.2.M.e.B.B.C.F.F.hXmXKXKXKXmXmXhXL.gXP.I.I.I.I.K.J.H.' ` [ ] 8X$X/.oXoXoX{.E.!.N Q ( ( T ` ` b ` B.B.B.j.e.w.7.;.i.i.u.y.u.",
"M.w.2.t.M.k v b S.D.L.jXvXHXHXHXBXlXfXL.@.{ H.H.J.H.K.H.D.' ` ) ] ~.~.&X^.oX/.^.+X#X~ ! / ` ` ` V.b b B.b v 4.4.w.1.<.%.u.y.y.p.",
"M.e.-.4 -.4 j b n O.L.gXlXvXvXvXvXkXL._ ' n ' ' n H.H.' D.' [ ] / V ~ #X/./././.V V ^ / / ` ` b b x z b j j f 4 4.t.<.;.i.u.y.p.",
"w.4.t.3 3 1 1 s x ' @.aXgXgXaXgXaX@._ ) } x x c n n n D.F.` ` K ! ! ~ #X~.~.~.V V ^ ] ] { { { ` x s s s s a 1 1 4 4 1.>.f.i.y.i.",
"4.-.3 i 2 2 X ; , c O.+.@.@.@.@.@._ } }   o ; ; b n n D.' ` K K K M M V V C C C ^ 8X9XqXqXF.' _ x - ; & = p p 1 3 4 1.,.f.f.i.i.",
"4.4 3 1 X X X & @ ,  . . . ._ , , , } <     o o 9 x b ` ` y 9 8 8 m m m m Z C V eXaXkXaXfX@.{ _ , > > > * * * = a 3 M.r.0.f.s.i.",
"4.4.6 1 2 & & + > : : % , :  .: : < %       o o 2 2 u y y y 0 8 8 O 8 O Z Z ) ] rXaXAXAXlXfX@.#.c > : > > > - - a f M.e.0.s.;.u.",
"e.-.4 3 2 2 & & + @ $ + # # % % % % < @       o 2 9 v u y u 0 7 9 S 9 K Z ) ) { aXaXzXlXlXgXgX@.o.| | > > > > p a f 4.r.0.a.i.%.",
"8.5.4.4 3 a = & & + @ # # # # # % % % % <     o s v 5 v j.x.u u T 9 K x x _ _ { aXzXlXvXvXvXxXU.+.o. .| > > - p a 4 4.2.,.;.;.a.",
"5.r.r.4.k j s p & & + + + # # # # % % % % ; ; ; u j v j.j.j.j.c.b T b ` ' _ ' @.aXxXvXvXvXVXbXxX$.#.....> > - p f 4 -.1.;.%.;.%.",
"7.7.w.4.B.k j a p = & * + + $ # # # # # @ @ & 2 j v j.j.z.j.j.j.V.b b n c ' X.O.$.aXvXVXJXJXVXxX$.+.X...> s s a f 5 -.<.;.;.;.;.",
">.>.5.w.e.M.k j 1 p = = - * + + + # # + @ & X X j v j.e.z.z.e.B.v v n z c .., #.+.xXcXJXLXLXVXVXY.o.X.> > s s l M.M.w.1.:.:.:.d.",
";.;.<.,.1.e.M.5 3 j a p p - - * + + @ + & & X 2 u k 4.w.e.e.e.M.v b z d d  . .X.+.Y.cXJXJXLXVXbX$.o.| > s d l h M.M.r.1.:.:.:.d.",
";.<.<.<.,.r.r.e.4.k k f j a s p - = & & X X 2 1 5 4.w.w.w.-.-.g h z d d > | ..o.+.Y.Y.VXVXVXVXY.X.d - - p a f k M.M.r.d.,.:.:.:.",
">.>.%.;.,.,.7.r.r.e.4.5 k j f a a p p p p 2 1 3 4 -.1.r.2.2.2.m.l z d d ....| | o.+.Y.Y.bXT.U.+.c - = p p f g M.e.r.r.2.d.:.:.:.",
"d.;.;.<.;.;.>.7.7.5.7.e.4.4.M.k f f 3 3 f 3 4 4 4.t.2.2.2.M.-.m.g z s d ..........o.O.+.+.O.c x p 2 2 p f g M.e.r.r.d.f.,.:.:.:.",
",.:.;.;.%.;.%.;.>.6.,.,.t.w.-.M.M.5 4 4 4 k M.-.w.t.d.2.2.2.2.m.g l z z z ......d d d d z d s s p 1 f f g M.e.r.7.f.f.s.s.d.;.:.",
"d.d.;.;.;.%.u.u.;.i.s.>.,.5.w.w.w.-.t.4.1.r.w.w.1.1.<.1.2.2.2.2.4 g g g N.l z z z z z z z l a f f 3 g g -.4.w.<.>.*.&.i.s.s.a.%.",
"d.;.d.d.a.u.u.u.u.u.i.;.>.<.,.,.,.5.5.<.,.2.1.,.,.,.<.:.,.2.d.1.-.m.g m.N.h h h h z z h f f g g f 4 -.m.2.1.1.,.&.&.y.y.y.y.u.y.",
"%.;.;.d.a.a.u.u.u.u.%.u.a.,.<.,.<.>.>.>.,.d.:.:.:.<.:.<.,.,.<.:.2.2.2.-.m.m.N.N.h N.N.h h N.m.m.m.m.m.2.1.1.,.s.&.%.y.y.y.y.y.y.",
"%.%.;.d.a.u.u.u.u.u.a.i.a.,.<.>.%.%.;.%.;.;.:.:.:.:.:.<.<.>.,.:.2.2.2.2.m.m.m.N.N.N.N.N.N.N.N.m.m.m.M.2.1.:.,.s.i.i.i.y.p.y.p.p."
};
