/* XPM */
static char *_b22df1e8af34ac2ebb4e77722bacd200v99RbPK32pJfikH[] = {
/* columns rows colors chars-per-pixel */
"64 64 251 2 ",
"   c #0A3611",
".  c #393702",
"X  c #391936",
"o  c #233339",
"O  c #581703",
"+  c #561411",
"@  c #631313",
"#  c #452703",
"$  c #563804",
"%  c #4E2F09",
"&  c #6F330A",
"*  c #4B162B",
"=  c #4F2F35",
"-  c #6D3231",
";  c #0F5410",
":  c #374802",
">  c #355706",
",  c #186C10",
"<  c #3C7C0C",
"1  c #34700E",
"2  c #175B3A",
"3  c #0F5132",
"4  c #295537",
"5  c #18673A",
"6  c #1C7438",
"7  c #1D6728",
"8  c #277939",
"9  c #2B742F",
"0  c #484602",
"q  c #564708",
"w  c #4B5807",
"e  c #54570C",
"r  c #4C5318",
"t  c #6E4E15",
"y  c #4A670C",
"u  c #52670B",
"i  c #46770D",
"p  c #546C15",
"a  c #487A14",
"s  c #517615",
"d  c #545029",
"f  c #795625",
"g  c #70552D",
"h  c #53742F",
"j  c #6E6E33",
"k  c #6B7719",
"l  c #321B4B",
"z  c #173B5B",
"x  c #123852",
"c  c #333253",
"v  c #183C65",
"b  c #193A79",
"n  c #0D3E6F",
"m  c #283769",
"M  c #263978",
"N  c #35326A",
"B  c #47394E",
"V  c #0B494A",
"C  c #184A48",
"Z  c #0D5244",
"A  c #155846",
"S  c #0D4656",
"D  c #174958",
"F  c #175556",
"G  c #235B54",
"H  c #2E5056",
"J  c #1A6647",
"K  c #1D7342",
"L  c #256B46",
"P  c #287847",
"I  c #256853",
"U  c #34714D",
"Y  c #154868",
"T  c #174477",
"R  c #175163",
"E  c #264577",
"W  c #32506D",
"Q  c #2E6A66",
"!  c #5A5658",
"~  c #4E4951",
"^  c #6D584D",
"/  c #546D51",
"(  c #6A6847",
")  c #6F734E",
"_  c #4A536E",
"`  c #52716E",
"'  c #72716C",
"]  c #635E69",
"[  c #903317",
"{  c #973923",
"}  c #AA3724",
"|  c #B93428",
" . c #A72F21",
".. c #A62C1C",
"X. c #C7332D",
"o. c #85481C",
"O. c #8E4F28",
"+. c #AA5038",
"@. c #8C6F4D",
"#. c #8F786E",
"$. c #9E6655",
"%. c #CD6C55",
"&. c #C24436",
"*. c #1D9D03",
"=. c #1D9D0B",
"-. c #1A9907",
";. c #1D9B14",
":. c #1F800C",
">. c #398A0D",
",. c #239D04",
"<. c #299B04",
"1. c #239C0B",
"2. c #2A9A0C",
"3. c #27960B",
"4. c #34950D",
"5. c #288918",
"6. c #3A8B14",
"7. c #239C13",
"8. c #2B9A13",
"9. c #289719",
"0. c #339512",
"q. c #389516",
"w. c #23880D",
"e. c #1CA203",
"r. c #1AA307",
"t. c #19A30D",
"y. c #22A104",
"u. c #24A10B",
"i. c #28A206",
"p. c #24A112",
"a. c #2A8A29",
"s. c #368C2A",
"d. c #2B9425",
"f. c #2C932B",
"g. c #279823",
"h. c #349527",
"j. c #298835",
"k. c #348A36",
"l. c #2B9234",
"z. c #339532",
"x. c #458817",
"c. c #518816",
"v. c #6E851A",
"b. c #498629",
"n. c #568627",
"m. c #568636",
"M. c #4A9030",
"N. c #688938",
"B. c #708C34",
"V. c #2D8744",
"C. c #338647",
"Z. c #4F884D",
"A. c #718E4C",
"S. c #738D70",
"D. c #6D985B",
"F. c #878A1E",
"G. c #90942D",
"H. c #A7A43A",
"J. c #939F39",
"K. c #899250",
"L. c #A99654",
"P. c #91A856",
"I. c #ACAB4E",
"U. c #8B8879",
"Y. c #90926F",
"T. c #B58E6F",
"R. c #90AC6C",
"E. c #AFB76F",
"W. c #D48E70",
"Q. c #CCB568",
"!. c #B5C56F",
"~. c #C5C96D",
"^. c #C6C25D",
"/. c #193987",
"(. c #192B99",
"). c #1C3998",
"_. c #152D87",
"`. c #263888",
"'. c #273A97",
"]. c #222B95",
"[. c #1C37A7",
"{. c #1E3AB7",
"}. c #152BA3",
"|. c #243DA4",
" X c #233DAC",
".X c #283AA8",
"XX c #233DB3",
"oX c #2A3DB4",
"OX c #233DBC",
"+X c #2B3ABA",
"@X c #3138B7",
"#X c #1A4387",
"$X c #1E4295",
"%X c #274489",
"&X c #364A8A",
"*X c #26449A",
"=X c #354996",
"-X c #3C528E",
";X c #1F41BD",
":X c #2342A4",
">X c #2442AC",
",X c #2B43A7",
"<X c #2442B4",
"1X c #2A43B2",
"2X c #2341BC",
"3X c #2A46B8",
"4X c #3249B8",
"5X c #3856B7",
"6X c #334DAA",
"7X c #3E63BE",
"8X c #465799",
"9X c #425889",
"0X c #516991",
"qX c #687D8E",
"wX c #4255B1",
"eX c #5567A3",
"rX c #4F62A7",
"tX c #6778B0",
"yX c #1E3CC2",
"uX c #243DC2",
"iX c #333BC4",
"pX c #2342C2",
"aX c #394EC2",
"sX c #2E50C1",
"dX c #4157C3",
"fX c #728A8B",
"gX c #7688B4",
"hX c #91958C",
"jX c #AD978C",
"kX c #93AB8E",
"lX c #A9AB8E",
"zX c #93A8A8",
"xX c #AEB4AD",
"cX c #849BAB",
"vX c #F0AB8F",
"bX c #CAAF97",
"nX c #B5CB8F",
"mX c #B6CBA8",
"MX c #CCD591",
"NX c #D9E38D",
"BX c #C8D0B7",
"VX c #F2F3AC",
"CX c #E0E08F",
"ZX c #A1B1D2",
"AX c #B5C4E2",
"SX c #B4C7CC",
"DX c #CFD2CC",
"FX c #F2F6CF",
"GX c #CBDBEC",
"HX c #DAE9F0",
"JX c #EFF8F0",
/* pixels */
"i.i.,.e.r.r.r.r.r.r.r.r.t.r.u.,.,.*.-.-.-.r.7.p.1.<.1.3.2.8.8.q.g.g.f.f.z.l.z.z.z.h.9.9.9.9.8.7.;.;.;.;.;.;.-.;.t.t.u.i.i.<.<.<.",
"i.,.,.*.r.r.r.r.r.r.-.r.=.*.y.,.*.*.-.*.*.1.1.1.1.2.3.3.9.9.9.9.f.h.f.j.l.k.l.k.a.k.h.h.h.h.h.g.g.g.g.;.;.;.;.t.p.p.u.1.,.,.<.<.",
",.,.*.*.r.r.r.r.r.r.-.-.1.,.1.,.i.,.*.,.1.1.1.7.8.0.9.h.g.h.a.a.a.a.8 j.P P P P 8 j.j.k.f.a.h.d.g.g.g.g.;.;.;.;.p.u.y.,.,.,.,.<.",
",.,.*.*.r.r.r.r.r.-.r.-.1.1.1.1.,.<.,.,.=.1.7.3.9.9.h.z.f.j.a.a.6 6 5 5 J J I J J L L j.k.k.k.k.l.l.l.l.g.a.g.;.;.;.;.,.*.,.,.i.",
",.,.,.e.e.*.r.r.e.=.1.7.3.2.8.8.3.,.<.3.3.-.;.;.d.a.j.8 k.8 6 5 5 Z Z V S S S S S F F I P U C.C.V.V.j.j.j.a.a.;.g.;.7.=.1.,.1.y.",
",.,.,.*.e.*.r.*.*.1.3.3.8.9.9.q.4.3.3.8.9.9.a.a.a.j.8 8 L A J Z Z S S S Y n n T T Y R R G I U L K K L 5 6 6 j.j.j.f.g.g.7.8.8.u.",
",.,.,.e.*.*.*.*.1.1.3.9.5.q.a.h.5.0.q.9.h.a.l.j.8 8 J A A S S R Y Y T T #X#X).$X/.#XT T D D D C V Z V Z Z J J K P j.j.l.f.g.g.9.",
",.,.e.,.e.*.*.*.=.3.w.5.5., a.9 a.a.s.z.k.j.K V.J F F S Y Y T T T #X$X$X$X:X:X:X:X$X'./.b v v S z S S S S A F J I K K j.j.l.l.z.",
"*.*.y.y.y.y.u.i.3.w.w., , 7 7 6 9 8 k.C.V.P K J F R Y T T /./._.$X$X$X:X>X>X3X<X<X>X:X).).#X/.b T T T T Y Y S R F F A J 6 K V.V.",
",.,.*.y.y.u.i.2.3.w., , , ; 3 2 L P U U I I F R R T #X#X).).|.|.:X>X>X>X>X<X<X<X2X<X{.>X:X:X*X$X$X$X$X#X#X#XT Y S S Z Z J K P V.",
"*.,.*.*.y.u.p.p.5.w., ; ;   3 3 F G I F G F R Y T $X'.:X:X X@X{.1X,X3X>X>XXX<X<X{.;X;X>X<X<X<X>X:X:X:X$X:X$X#X#XT R S V Z A J K ",
"y.*.-.*.u.p.8.0.9.1 , ; 3 3 C C R R R R R T T #X).*X,X1X+X+XiX@XoX1X>X>X<X>X[.{.{.{.;X{.2X2X2X<X>X>X>X>X>X$X$X$X#XY R S Z 3 5 J ",
"y.=.=.-.1.7.8.8.6.5.9 7 4 4 C D Y Y T T T #X#X$X:XXXoXuXiX@X@X@X.X[.@X}..X.X X<X<X;X2X2XpX2X2X<X;X<X>X X:X$X$X#X#XY S Z Z 3 5 5 ",
"7.u.7.=.;.7.8.9.q.h.9 U H H H v T #X/.#X*X*X:X:X>XXX+XiXiX@X@X}.}.}.].}.}..X X<X;X3X3X2X2X;X;X>X<X>X>X X:X[.).#XT Y R Z 2 5 5 6 ",
";.;.;.7.7.9.8.9.a.M.C.Z./ H m v T $X$X$X7X7X4X3XOX+XiXiXiXiX@X@X].}.].}.[..X[. X>X;X;X;X;X;X;X;X{.[.[.|.$X$X#X#XY Y S Z J V.j.j.",
"p.;.;.p.7.9.9.d.h.M.Z.S.Z.W W v #X$X7X5X7X7X5X3XOXOXuXiXiX@X].].].].(.].].(.}.[.{.;X;X;X2X2X;X>X X.X[.(.$X#X#X#XR R J J K j.l.l.",
"r.u.p.;.;.w.9.d.M.Z.Z.D.` W W %X=X6X5X5X5X5X5X3X+X+X+X@X@X.X].'.].`.'.'.).(.}.}.{.{.2X2X2X2XOXXX X[.(._._./.T Q Q Q V.V.j.l.g.g.",
"r.u.u.=.7.7.9.h.z.M.Z.C.` W W &XwX5X5X5X5X4X3X3XXX.X X.X'.'.`.`.`.=X`.'.'.).(.}.[.{.pX2X2X2XOXXX X[.(._._.n T Q 9XV.V.V.l.;.g.t.",
"y.y.,.p.9.p.d.z.b.9 9 U G W -X8XwXwX5X5X6X3X<X<X X{..X'.].].`.8X8X8X=X'.'.(.(.}.{.{.OXuXOXOXOXXXXX.X).)./.n R R V.V.V.l.l.g.t.;.",
"e.e.*.=.p.p.h.h.s.9 4 C H E -XwXwXdXdX4X3X>X<X>X.X.X.X'.`.`.=X8XeXeX8X=X'.).).}.[.[.{.oXuX2XOXXXoX X|.)./.T R R R V.V.l.g.g.;.;.",
"y.y.y.1.7.7.9.a.s.9 2 3 H M `.wXdXdXaX4X<X;X>X>X.X.X.X'._.M &X8XtXtXrX9X'.'.).[.[.}.{.yXpXuX+XOX+XoXoX:X).b Y Y F J K j.l.g.;.;.",
"y.y.y.r.1.7.9.5.8 9 4 C z M '.6XaXdXaX4X3X3X<X<X4X4X,X'.`.`.9XeXtXtXeX=X=X'.'..X[.{.{.OXOXpXuXOXOX+X1X X'.#X#XY R Z J K j.j.l.l.",
"*.y.y.u.1.3.9.d.a.9 L C v M '.@XaXaXaX2X3X2X<X>X6X,X,X'.`.M 8XeXtXtXeX8X=X'.|. X X{.{.OXpXpXyXyXOXOXOXXX>X).#XT Y R F J V.V.V.V.",
"*.y.y.u.p.7.9.d.k.9 A D v _.'..X+XiX2X+X+X<X<X X.X.X'.`.M `.9XeXtXtXrX=X=X'..X.X X{.{.{.pXpX{.{.OXOXOXXX>X>X$X).#XT R R F R V.V.",
"*.*.,.,.u.p.9.f.z.8 J C z /.'.1XoX+XoXoXoXoX.X).(.]._.M M M &X9XeXeXrX=X=X:X,X1XpXpXuX;X;XpX{.;X;X{.[.;X<X1X>X:X$X#XT R R G I U ",
",.*.*.*.r.7.9.f.l.8 A C v M '.,XoXoXoX.X.X.X.X'.'.`.`.M `.N `.9X8X8X=X=X*X.X<X<XpXpXpXpX;X;X;X;X>X>X<X<X1X<X<X,X$X$X#XR R D G G ",
",.*.,.-.*.=.7.g.z.8 2 C D M %X*X,X.X.X.X*X,X6X5XwXwX8XeX8X9X9X`.'.'.=X'.:X:X X<XpXpXpXpXpX;X;X;X<X;X<X<X<X<X1X1X;X:X$X#XY Y D D ",
"-.1.1.*.=.7.7.g.f.9 5 A D m %X&X'.=X'.`.'.=XeXtXtXcXtXcXgXtXeX8X9X`.'.'.'.>XXXOXpXpXpXpXyXyX;X;X<X>X<X X X>XXX X:X$X*X#Xb v x C ",
"1.1.=.=.=.1.;.g.a.9 5 C H D Y M E `.M m M &XgXcXZXAXAXAXAXZXcXtX=X%X'.|.:X>X<X2XuXuXyXuXyXyXyXyX{.{.{. X|.[.).).).).#X#XY S x S ",
"-.=.1.1.=.;.p.g.a.a.9 L H D z z m N c x c W gXAXHXHXHXHXGXAXZXtX-X`.`.'..X1X<X3XyXyXyXyXyXyXyXyX[.[.}.).)./././.#X#XT Y Y x V V ",
"w.=.7.1.=.=.7.9.g.a.8 L A 3 x x H c z x x _ fXDXHXJXHXHXGXGXZXtX-X`.'.*X,X1XoXpXyXyXyXyXyXyXyX}.}.}.(._././.M b Y Y Y S V V V 3 ",
"7.1.=.=.-.=.7.g.d.a.9 7 4 o o o H _ _ H H ] zXDXJXJXJXJXHXGXZXcX0X%X%X=X*X,XXX3X{.yXyXyXyX{.{.}.}._._._.b T E R H D F Z Z 3 2 J ",
"=.1.7.7.7.1.p.9.9.w., ;       4 / S.fXS.S.fXmXDXJXJXJXJXHXHXSXgX0X&X#X%X*X6X:X;XoX3XXXXXXX[.>X:X[._._._.E W Q Q Q U L 8 8 6 6 6 ",
"7.8.p.p.u.1.2.p.9.w., ; ;     4 S.fXmXkXkXkXDXFXJXJXJXJXJXHXBXzXfX0X9X-X-X*X,X:X1X1XXXXX<X<X>X:X$X)._.T E W Q Q U 8 8 8 j.j.a.a.",
"3.7.p.i.u.,.u.u.9.w., , > ; 4 / D.nXmXmXnXmXBXFXFXFXFXFXFXFXDXmXgXgXfX0X8X=X=X,X@X.X.X.X>X1X1X>X*X/.b T Y H Q U U k.k.z.f.f.g.g.",
"1.1.u.p.y.y.e.r.7.9.w.9 1 h m.Z.D.nXMXMXBXMXVXVXVXFXVXFXFXFXBXmXmXfXfX0X9X&X%X'.'.|..X@X1X1X1X>X,X*X#Xn z H I L k.k.s.h.g.;.;.;.",
",.*.*.r.e.e.e.e.*.3.q.h.q.M.m.A.D.P.!.nXNXNXVXVXVXVXVXVXVXCXBXxXnXfXfX` _ W N `.`.].'..X.X1X.X.X,X*X%XT Y C A K 8 k.f.g.7.p.t.*.",
"*.-.*.*.e.e.e.e.u.7.q.h.M.M.m.N.A.P.P.!.~.NXNXNXCX~.CXCXCXMXE.E.R.S.' ! H H m N M M `.'.'.'..X'.'.'.`.b z x Z 5 8 j.g.9.7.p.*.*.",
",.,.*.e.e.e.e.y.u.2.q.q.q.M.M.N.B.A.P.P.E.^.^.^.^.^.^.^.~.E.E.K.A.) / / ~ H c N N m M `.`.`.]./././.`.b n x 3 5 8 j.f.9.7.u.=.e.",
",.,.,.*.e.y.y.u.i.p.x.M.M.D.N.B.N.B.G.B.H.H.H.H.H.H.I.I.I.L.K.K.A.( ( ( / ! ! _ N N N m M M M `._.`.b v x V Z J j.l.g.9.7.,.,.e.",
"i.<.,.,.,.,.3.3.4.q.x.M.D.D.D.D.K.A.A.B.F.F.v.F.G.G.G.H.H.I.G.@.j ( ) ) ' ' S.' ] _ N N m M m M M E E Y D C 5 6 j.l.d.8.2.i.i.i.",
"<.<.<.,.<.3.4.4.q.x.n.A.P.P.R.R.P.P.B.B.j v.k F.v.G.H.H.I.I.K.K.( j ( ) #.U.hXhXqX' _ ! _ _ _ &XW W W Q G J 8 8 l.f.9.1.<.i.i.i.",
"<.<.-.,.3.2.4.6.x.b.n.A.D.R.R.R.R.K.A.B.B.v.v.v.J.H.^.!.~.Q.L.#.( g ^ ) hXhXjXzXhX' ' ' qXU.qXqXfXqX0XZ./ 8 k.k.f.d.8.3.,.<.<.<.",
"<.,.,.3.3.0.0.x.b.c.N.N.P.P.R.!.R.D.A.B.B.n.v.v.J.I.!.NXMXE.Y.K.^ ~ ! ^ #.hXjXjXhXS.hXzXzXZXxXzXcXfXS.S./ k.k.s.d.8.2.1.,.,.<.,.",
",.3.<.3.0.6.x.x.s k h j A.K.D.P.A.A.A.m.n.n.n.v.J.P.~.nXMXlXY.) ! ~ B B ' #.#.U.#.U.hXxXDXDXAXxXkXkXS.D.Z.M.k.a.9.3.3.1.<.1.,.,.",
"3.3.3.<.>.6.a s k k k g j j @.K.A.A.m.M.n.n.n.n.B.P.!.nXlXY.#.' ! B B B ~ _ ' ^ ' U.jXBXDXHXDXDXxXkXS.D.Z.s.s.q.9.1.1.,.i.y.1.,.",
"4.4.>.>.< i u u u t t f f f j j A.m.m.h h b.n.b.N.D.D.Y.Y.#.' ] _ N B B B B ~ ^ ' #.zXbXDXDXDXxXlXY.D.A.M.b.h.0.3.-.-.y.y.e.*.*.",
">.>.>.< i y e t t o.o.o.t f f j j h h h m.m.m.m.h Z.A.S.) ] ] _ N N N B l l B B ^ #.jXxXbXxXbXjXY.S.) h h b.q.0.2.1.*.r.y.e.*.*.",
"0.6.6.i > w q & o.[ } [ o.o.o.o.g j j A.Z.A./ m./ / / ( ! ! _ _ ].N l l l l B B ] #.#.jXjXbXjXjXY.) h r p 6.6.q.8.y.*.*.=.*.*.*.",
"5.6.6.i w 0 & & ..} } ..} } o.o.f g j j j ) D.D.A./ / ! ~ H _ N N N N l X X * = ^ $.$.#.#.#.#.$.g g d y 1 >.6.9.2.1.=.*.*.*.,.1.",
"x.s.a y 0 $ O [ ..} | | } } } O.f t k g j ) K.Y.Y.S.] ! ~ c c c l l l l * X * - - - $.^ $.$.^ ^ d r : > > >.q.0.1.,.*.*.*.r.*.=.",
"x.b.a y 0 $ & @ ..| X.X.| | | O.O.f f f ) A.Y.lXE.Y.' ] ~ c c c l l l * * * * * - - - - - - - - % . . > 1 >.4.2.,.r.*.=.*.=.y.y.",
"M.x.x.y q $ & [ ..X.X.X.X.| | } O.O.@.@.@.Y.T.lXjXhX#.' ! ~ c = X X * * * @ @ @ - @ @ @ + % + # . . : > < >.4.2.,.*.*.*.*.1.y.1.",
"x.x.i y w $ & [ ..X.X.X.X.| | &.%.%.L.W.T.T.T.jXjXY.#.' ^ ! B o * * + * + @ + @ @ @ @ @ O O # . . : > > >.4.4.<.1.=.*.*.1.y.1.y.",
"q.q.x.i w q $ & [ ..| X.&.| &.&.W.W.vXvXvXbXjXT.#.#.@.^ ^ ^ ~ = # X + + O O O @ O O + + % % % 0 : > y < x.4.<.<.r.*.r.,.,.<.,.,.",
"q.q.>.x.y w q & [ [ o.} } } &.%.W.vXvXvXvXW.T.$.@.O.^ ^ ( ( d d . # # # O O O O O O O % q q q w y 1 x.>.>.<.<.i.y.y.,.y.i.,.<.,.",
"i.2.4.x.x.p e t & & [ [ { { +.+.W.W.W.vXW.W.$.f - r = d d d h r . . . # # # % O $ $ $ q e p u i i x.>.>.4.<.,.*.*.y.y.i.,.<.<.<.",
"<.i.4.4.x.a p e q t & & & - { O.$.%.W.L.$.@.g t $ 0 # : p h r r >   : : 0 0 0 q 0 q w e p s c.x.>.>.4.4.<.,.,.*.e.y.y.,.,.<.<.<.",
",.,.<.4.>.x.i u e q q $ $ $ & & t O.O.O.t t $ $ . . . : > s s y y 1 > y y u u w u y p a x.c.x.x.4.4.4.<.,.*.*.e.e.e.,.i.,.<.<.<.",
"*.,.<.<.4.4.>.i i u e e 0 % 0 % q e e t q q q 0 : : : > 1 a x.x.9 x.a x.a a a a i < x.x.6.q.8.q.2.4.3.,.,.*.*.*.y.,.,.,.i.<.,.,.",
"y.y.u.2.3.<.4.>.x.a a y r r e e e e e e w w w w w > 1 1 < 6.6.q.6.6.q.6.6.x.x.6.6.6.0.0.8.3.8.1.2.2.,.,.*.*.e.e.e.e.r.r.y.y.y.e.",
",.y.y.y.i.,.<.4.>.>.6.a s s p p s u u u u u u u i i i >.6.q.q.4.8.0.0.0.4.4.4.4.0.0.8.3.3.=.=.=.i.u.y.y.*.e.e.e.e.*.r.r.e.e.e.e.",
"*.e.r.u.y.r.y.u.<.4.>.6.x.c.n.s s s c.u s s i c.c.x.>.6.q.8.8.3.7.3.2.2.2.3.2.2.8.8.7.p.7.;.t.=.7.y.1.*.*.*.*.e.*.*.r.r.r.r.e.r.",
"-.e.r.u.e.r.y.y.u.<.4.6.6.x.b.n.c.c.c.c.c.c.c.c.c.x.6.0.8.8.3.,.7.3.2.2.3.<.<.<.7.p.p.p.p.p.p.p.t.,.=.*.-.*.*.*.e.*.r.r.r.r.r.r."
};
