/* XPM */
static char *result[] = {
/* columns rows colors chars-per-pixel */
"32 32 200 2 ",
"   c #000000",
".  c #0B0C0C",
"X  c #151515",
"o  c #1D1515",
"O  c #211718",
"+  c #23191A",
"@  c #1B2C14",
"#  c #183615",
"$  c #262626",
"%  c #2B2C2C",
"&  c #3C3D3D",
"*  c #31532C",
"=  c #3D463B",
"-  c #454A30",
";  c #4F3C59",
":  c #3C4755",
">  c #1B526E",
",  c #1B567A",
"<  c #3F466E",
"1  c #3E4573",
"2  c #3C4C76",
"3  c #3D487C",
"4  c #297266",
"5  c #434343",
"6  c #4B4B4B",
"7  c #504E54",
"8  c #575757",
"9  c #625858",
"0  c #536E4A",
"q  c #474863",
"w  c #42456E",
"e  c #594A6C",
"r  c #424672",
"t  c #484474",
"y  c #5C4774",
"u  c #564975",
"i  c #594875",
"p  c #554979",
"a  c #75566F",
"s  c #656565",
"d  c #727372",
"f  c #956751",
"g  c #A76D59",
"h  c #8D6A64",
"j  c #8D6668",
"k  c #8C6A6A",
"l  c #916968",
"z  c #9A6D6C",
"x  c #886977",
"c  c #9E7272",
"v  c #AE7878",
"b  c #CE705A",
"n  c #C1736E",
"m  c #4B8D6B",
"M  c #6D9463",
"N  c #6AB66E",
"B  c #B3916E",
"V  c #BA877A",
"C  c #8EA976",
"Z  c #B9A36B",
"A  c #BAA77D",
"S  c #C78F73",
"D  c #CF907B",
"F  c #E4846B",
"G  c #E68876",
"H  c #CEAB7C",
"J  c #91D07B",
"K  c #8CEA78",
"L  c #1F5789",
"P  c #1F5299",
"I  c #2F4F88",
"U  c #3A4482",
"Y  c #334D85",
"T  c #334D89",
"R  c #365189",
"E  c #2B4D9A",
"W  c #2B4D9C",
"Q  c #344795",
"!  c #304B9C",
"~  c #255299",
"^  c #1E50A6",
"/  c #254EA6",
"(  c #2A4DA4",
")  c #244EAA",
"_  c #294DAA",
"`  c #314DA5",
"'  c #2450A5",
"]  c #2850A6",
"[  c #2250AB",
"{  c #414988",
"}  c #4C7995",
"|  c #7D708D",
" . c #917091",
".. c #A0738B",
"X. c #917DA3",
"o. c #3D8282",
"O. c #7AD08F",
"+. c #6ECF90",
"@. c #7FC8A4",
"#. c #828383",
"$. c #8B8B8B",
"%. c #8B9F88",
"&. c #98988A",
"*. c #929393",
"=. c #9D9D9D",
"-. c #B48586",
";. c #BA9B87",
":. c #A58D95",
">. c #BD9395",
",. c #9AAE9B",
"<. c #8E85A8",
"1. c #8C85B7",
"2. c #9285B2",
"3. c #ACB4A9",
"4. c #AEB0B0",
"5. c #B4B5B5",
"6. c #B7B9B9",
"7. c #D78C84",
"8. c #C5938B",
"9. c #DA8C92",
"0. c #E5938B",
"q. c #D9A18B",
"w. c #DBA298",
"e. c #E3A193",
"r. c #EFB09B",
"t. c #CD92A1",
"y. c #D6A4A4",
"u. c #D9A4A5",
"i. c #D6A4A8",
"p. c #D7A8BD",
"a. c #DCB5B5",
"s. c #EEABAB",
"d. c #F0ACA3",
"f. c #F3ADAE",
"g. c #EEB2A8",
"h. c #F3B2AE",
"j. c #EFAFB4",
"k. c #F3AFB0",
"l. c #EEB1B4",
"z. c #E7B6BF",
"x. c #F2B0B2",
"c. c #FAB3B4",
"v. c #F4B8BB",
"b. c #94CF81",
"n. c #8BD486",
"m. c #B2D18E",
"M. c #ACDD97",
"N. c #99E784",
"B. c #98E98E",
"V. c #A4F28E",
"C. c #A7E394",
"Z. c #B6F79B",
"A. c #9ED5B2",
"S. c #B4C6AB",
"D. c #C3D18B",
"F. c #C4C496",
"G. c #C5EF98",
"H. c #CCD0A2",
"J. c #CAE5B1",
"K. c #CFF8BF",
"L. c #D4F8BA",
"P. c #ECF2BA",
"I. c #CCABC5",
"U. c #C5ADCA",
"Y. c #CBABCB",
"T. c #D2AAC3",
"R. c #D3BDC3",
"E. c #C7ACD1",
"W. c #E7B6C4",
"Q. c #E4B6CB",
"!. c #E9B8D0",
"~. c #BFC1C1",
"^. c #C8CAC6",
"/. c #CBCBCB",
"(. c #D3D3D3",
"). c #E7CCC9",
"_. c #F3CCC6",
"`. c #F7CBCB",
"'. c #FACECE",
"]. c #FDD1D2",
"[. c #D4F4C8",
"{. c #E3FCC8",
"}. c #E8FFD2",
"|. c #F9F5D1",
" X c #F9F4D4",
".X c #DDD2E7",
"XX c #EDDAE0",
"oX c #DDE0E0",
"OX c #D4EBF2",
"+X c #E1E2E2",
"@X c #E9EAEA",
"#X c #FBECEC",
"$X c #F5FDE6",
"%X c #FDFCE4",
"&X c #FDFFED",
"*X c #EDE7F0",
"=X c #FDF3F4",
"-X c #FAF8F6",
";X c #F4FCFC",
":X c #FEFDFD",
/* pixels */
"y y y i y y i p u u i y y y y p p p u i y y y p i i p i i e e e ",
"p.p.p.T.T.Y.Y.Y.I.I.I.Y.Y.Y.Y.E.E.E.E.I.Y.Y.Y.E.E.E.Y.Y.I.I.U.U.",
"k.x.k.k.x.j.j.j.j.x.x.k.x.k.j.j.j.k.x.l.x.x.l.k.j.j.x.x.x.x.h.l.",
"k.k.x.x.k.k.k.k.k.f.k.f.k.k.k.k.x.h.x.x.x.x.x.v.k.v.v.x.x.x.h.h.",
"x.#X=X=X=X=X=X=X:X9 O + + =.:X=X=X=X=X=X=X=X=X=X=X-X-X-X#Xk.f.k.",
"x.-X-X6 % % % % /.@X&   #.-X*.% $ $.:X6.% % $ s :X(.% % 6 f.k.k.",
"h.:X:XX         $ /.+X/.=X$.X     d :X=.      & :X/.    o s.k.k.",
"x.-X:X(./././.%   6.:X:X:Xs       d :X=.      5 :X/.    o s.f.x.",
"x.:X-X8 5 5 6 .   6.:X:X:Xs       d :X=.      & :X/.    o s.x.k.",
"x.-X:Xo       . $.-X$.6 ^.+X7     d :X=.      - :X/.    o s.k.k.",
"x.:X:X6.4.4.4.6.;X#..   $ ~.oX4.4.(.:XoX5.d   & :X/.    X s.k.k.",
"h._.`.'.].'.].].'.-.z c z y.].].].'.`.'.].z.z -.'.).c c v f.k.k.",
"f.f.f.f.f.f.f.f.f.c.c.c.c.k.f.f.k.k.f.f.f.f.c.c.h.x.c.c.c.f.k.f.",
"x.f.c.k.k.f.x.k.f.k.f.s.k.k.k.h.k.k.k.k.x.x.c.f.x.x.x.f.f.l.l.W.",
"y.u.u.i.u.y.y.y.w.q.w.y.y.u.w.e.e.w.u.u.i.u.u.u.u.y.y.y.i.i.i. .",
"h k k l k k k l f H B j k h V g g S f l j l h h h h h h l z d q ",
"< 2 2 r 2 2 r 2 - m.m.0 : ; :.-...:.; t 1 1 r 1 w < w w w r 1 3 ",
"^ [ [ [ [ [ P , m J Z.N 4 > <.v.!.2.{ ` [ ) [ [ [ ) ) ) ) ) ( T ",
"' ] [ [ [ P o.m J J K N.N m =.h.!.1.U _ ) ) ) ) ) ) / / / / W T ",
"( _ ' [ ' , +.K N.Z.B.V.V.C.F.g.Q.X.U ! ( ) _ ) ) _ / / / / W Y ",
"( _ ) ' L o.O.N.L.m.b.C J.L.H.g.Q.1.U W ( ) ) ) ) ) / / / / W Y ",
"( ( / ~ > @.B.K.%X= M * %.:X_.d.Q.1.U W / / ) ) ) / / ' / ' W Y ",
"_ / ' L 4 n.C.{.&X- M * %.:X'.d.Q.X.U W / ) ) ) ) / / / / ( W T ",
"/ / ' , n.N G.|.&Xd C m 3.:X_.d.z.X.U ( ) ) ) ^ ) / / / / ) W T ",
"[ ' ~ } A.0 m.|.&X:XJ.[.$X$XH.0.9...t ( ) [ ) / / / / / / ) ( T ",
"/ ] E OX;X$XG.C S./.,.S.S.,.B F G 9. .Q [ ) [ / ] / / / ^ ) ( T ",
"/ W R *X#X|.- @ @ @ # # # @ f G G 9.X.Q ) [ [ ( / / / / [ [ W I ",
"/ W { .Xw.D Z A m.M.M.C.V.N.Z F 9.t. .! ) ) / / _ _ ) / / ' ~ Y ",
"] ( Q 2.8.S Z D.P.}.}.}.}.G.q.G 9. .y Q / / / / ) _ _ ) / / E Y ",
") ] ` 3 *.Z H P. X$X&X&X%X|.r.b n a t Q ( ) ) _ ) ( / / / _ E Y ",
"W W ] R ,.q.A A ;.).-X-Xa.8.G b v | 1 Q E W W W E W W E W W Q 3 ",
"R T I 2 7 &.;.8.>.t.XXR.8.8.7.7.x 1 1 U T I R T T Y I I I R 3 2 "
};
