/* XPM */
static char *result[] = {
/* columns rows colors chars-per-pixel */
"32 32 247 2 ",
"   c #030E05",
".  c #0C1802",
"X  c #193809",
"o  c #1C3815",
"O  c #162F08",
"+  c #21360C",
"@  c #243715",
"#  c #182633",
"$  c #1E4311",
"%  c #244315",
"&  c #315F1F",
"*  c #33601F",
"=  c #365C29",
"-  c #365927",
";  c #3B4C32",
":  c #34622C",
">  c #46593B",
",  c #424F30",
"<  c #416138",
"1  c #272E40",
"2  c #543B62",
"3  c #275A5A",
"4  c #2E4E4D",
"5  c #19605C",
"6  c #2B7356",
"7  c #1C567B",
"8  c #1C576E",
"9  c #294D62",
"0  c #3B486D",
"q  c #275A69",
"w  c #33566D",
"e  c #294F75",
"r  c #3C4C76",
"t  c #354D7D",
"y  c #3A4B7D",
"u  c #3A4679",
"i  c #225C74",
"p  c #28577B",
"a  c #365078",
"s  c #1C6169",
"d  c #336C6A",
"f  c #4C4C55",
"g  c #44685B",
"h  c #487558",
"j  c #484468",
"k  c #524567",
"l  c #464777",
"z  c #524672",
"x  c #57507A",
"c  c #4B556C",
"v  c #74596D",
"b  c #6C5B7A",
"n  c #735A77",
"m  c #6A5464",
"M  c #4A7577",
"N  c #486E63",
"B  c #637F7C",
"V  c #756E76",
"C  c #6B745F",
"Z  c #946A74",
"A  c #528659",
"S  c #56814B",
"D  c #77985A",
"F  c #67815E",
"G  c #5B986C",
"H  c #4D9078",
"J  c #799D6D",
"K  c #7C9F75",
"L  c #70896D",
"P  c #59A87A",
"I  c #50A46E",
"U  c #7AA276",
"Y  c #67A371",
"T  c #7FE965",
"R  c #6FCE7D",
"E  c #82A35C",
"W  c #89966C",
"Q  c #8C9974",
"!  c #89A57A",
"~  c #8EAA73",
"^  c #B1AC7A",
"/  c #93C67B",
"(  c #A9C078",
")  c #89EA79",
"_  c #89EC6B",
"`  c #A0E87C",
"'  c #1E528C",
"]  c #1D5884",
"[  c #1F529E",
"{  c #2D4D8B",
"}  c #274B87",
"|  c #344D84",
" . c #3B4B84",
".. c #334C8C",
"X. c #3A4B8A",
"o. c #3B4785",
"O. c #235983",
"+. c #22548D",
"@. c #2B518E",
"#. c #265587",
"$. c #2C4C95",
"%. c #234F9D",
"&. c #2B4D9B",
"*. c #274F95",
"=. c #334B92",
"-. c #324E9B",
";. c #215395",
":. c #2A5096",
">. c #23529C",
",. c #2B519A",
"<. c #33518D",
"1. c #397787",
"2. c #377898",
"3. c #1F4EA4",
"4. c #1E52A4",
"5. c #1F51A8",
"6. c #244EA3",
"7. c #2B4EA4",
"8. c #254EA9",
"9. c #2A4BAB",
"0. c #2252A3",
"q. c #2650AA",
"w. c #314AB1",
"e. c #444984",
"r. c #595783",
"t. c #515790",
"y. c #625D88",
"u. c #755E88",
"i. c #54649A",
"p. c #676688",
"a. c #716A8D",
"s. c #8E7692",
"d. c #A57C80",
"f. c #508E8F",
"g. c #6A9291",
"h. c #59A189",
"j. c #65A697",
"k. c #6DA783",
"l. c #5D9CA7",
"z. c #7B8BBE",
"x. c #79CD8E",
"c. c #7ECAB0",
"v. c #9A899C",
"b. c #938D8B",
"n. c #A8848F",
"m. c #B4838D",
"M. c #A68895",
"N. c #B78998",
"B. c #BA9699",
"V. c #AF988D",
"C. c #8AAA83",
"Z. c #98BB8B",
"A. c #9BBC91",
"S. c #93A78E",
"D. c #B9AD88",
"F. c #A7B88D",
"G. c #A3AF94",
"H. c #B8A794",
"J. c #AFB692",
"K. c #9384A3",
"L. c #8E8DB4",
"P. c #B796A5",
"I. c #AD94AC",
"U. c #B8A2A1",
"Y. c #B1ADA4",
"T. c #8DBEAB",
"R. c #CB8D8B",
"E. c #D48989",
"W. c #C59183",
"Q. c #C68D94",
"!. c #CD9392",
"~. c #C59798",
"^. c #D28C94",
"/. c #C5B193",
"(. c #DBB9A7",
"). c #D2A5A4",
"_. c #E2B9AE",
"`. c #98C588",
"'. c #9AC595",
"]. c #89D699",
"[. c #94DB94",
"{. c #8AD291",
"}. c #B6C287",
"|. c #A8D987",
" X c #A6C89B",
".X c #B2D68E",
"XX c #8BE787",
"oX c #94EA84",
"OX c #94E39C",
"+X c #A7E797",
"@X c #B9F496",
"#X c #AFEA91",
"$X c #99CBA2",
"%X c #87D8A9",
"&X c #8DCBB0",
"*X c #ADCCA9",
"=X c #B6D7A7",
"-X c #ADCCB4",
";X c #98E3A8",
":X c #B6EAA8",
">X c #B9F8AA",
",X c #BCE3B2",
"<X c #BBF7B7",
"1X c #A7EDA3",
"2X c #C4C690",
"3X c #CBF69C",
"4X c #D6FE9C",
"5X c #C5E49A",
"6X c #D0D3B2",
"7X c #E3C6BE",
"8X c #EAD1BD",
"9X c #DAFFA5",
"0X c #D7E9B9",
"qX c #CAF5BA",
"wX c #CEEFB2",
"eX c #E5F7B3",
"rX c #8D90C5",
"tX c #95CFC8",
"yX c #B3D7CA",
"uX c #B1EBC5",
"iX c #CCD9C3",
"pX c #D9DBC3",
"aX c #D6C5C9",
"sX c #E8C7CA",
"dX c #C6EBC9",
"fX c #D6ECC5",
"gX c #D6FAC9",
"hX c #CEF8D3",
"jX c #CEEFD5",
"kX c #E9FAC6",
"lX c #F3FBC4",
"zX c #E5FEDA",
"xX c #E8FDD8",
"cX c #F3FEDD",
"vX c #F9FCD7",
"bX c #EEE9CB",
"nX c #C8EFE4",
"mX c #FAE8E5",
"MX c #E8FEE5",
"NX c #F5FEE4",
"BX c #F4FFEB",
"VX c #FCFAE8",
"CX c #E6FFF3",
"ZX c #FFF5F3",
"AX c #F2FFF2",
"SX c #FFFAF2",
"DX c #FFFCFA",
/* pixels */
"w.9.9.9.8.0.%.4.4.;.O.9 N -XyXL 9 w e #.,.>.0.0.6.9.8.8.6.$.X. .",
"9.9.8.8.q.q.%.[ ;.+.p 3 g -XyXT.i.w e #.;.;.;.0.6.8.8.8.7.$...X.",
"9.q.q.5.5.4.[ ;.+.O.q 5 h '.hXdXT.H 3 p ] ' ;.;.6.9.q.8.0.&.{ ..",
"9.8.q.5.4.[ [ +.7 8 5 6 G [.<X<X;XY d 3 s ] O.[ 7.0.8.3.>.*.$...",
"7.7.3.4.0.[ ' O.s s 6 I XXXXoXoXXX{.P 6 5 s ] [ [ q.8.4.4.>.{ ..",
"7.6.%.3.0.;.] 1.f.I I R XX) T T ) XXx.I f.f.2.;.' 0.0.q.%.:.#.| ",
"7.0.6.>.>.' O.f.c.%Xx.XX) ) _ _ ) ) XX%Xc.tXl.] ' ;.0.>.>.,...| ",
"q.0.[ >.' ] i h.%XOXOX1X1X>X@X` ` @X>X<XuXtXl.s 7 ' ,.6.&.$.....",
"q.4.>.;.] 7 d h.%XOXOX<XgXgXwX#X|.:XqXgXjX-Xg.d 7 #.:.,.,.&...X.",
"5.0.;.' i 1.h.x.].1X<XgXgXC.F `.`.J ! fXzXnXtXl.i.O.@.,.&.-.$...",
"0.>.;.] s f.&XOX[.<XgXcXiXf @ K ! % > 6XCXCXnXtXf.i #.,.7.$.{ | ",
";.;.' 8 s H c.%X[.>XgXcXiX; o K U o > iXAXCXnXtXf.i O.,.&.$...| ",
";.;.] s d I {.OX+XwXxXvXpX> O J K o 4 fXAXCXnXyXg.q e @.$.$.<.t ",
";.' ] 1.j.x.XX#X>X9XlXvXpX, O K U X = iXAXBXMXdXk.3 9 #.$.$.{ | ",
">.' ] f.c.;X#X@X9XeXeXvXpXC > ! ! > F fXBXNXcXfXF.C w w @.:.{ ..",
"0.;.O.f.&X1X3X3X4XeXlXvXVXiX*X*X*X*X-XxXVXcXxXkX0X-Xg.p } :.:...",
"6.%.p H {.`.( #X4X4X9XlXNXBXzX,X:XhXzXxXxXlXeXeX6XJ.B w e } $.{ ",
"&.$.e f.$XY * D 3X3X5XkXNXBXzXwX,XgXzXxX0X6X0XeXQ ; 4 a X.......",
"=...a M h.A : S ~ E E Q G.G.S.J J ! C.Z.~ W Q Q ,   # 0 e.X. .X.",
"X.o.a d d G k.A % X X @ @ @ o o X $ $ $ + + + + .   1 j e.o.o. .",
"o.X.i.d 3 G '.U < & - - = - - : : = & & & - = , ; ; g p.r.y  .y ",
"o.i.z.a.3 F  X$X`.Z.Z.Z.Z.`.'.A.A.`./ / / / `.Z.b.b.v.K.p.l l u ",
"o.i.rXL.B W F. X=X,XwXdXfXfXgXdXdXqX:X+X|.|.|.}.D.H.U.I.K.a.x l ",
"o.i.rXI.V.V.^ F.=XwXxXxXxXcXcXMXMXzXgX+X|.|.^ ^ ^ V.B.I.I.K.x j ",
"e.t.u.s.P.H./.6X0XvXNXVXSXVXSXSXAXBXkXeX3X.X}.D.D.V.B.I.v.u.x z ",
"o.e.e.u.M.~.).8XmXvXVXZXSXSXSXZXSXmXvXeX0X2X}.2XD.V.N.v.u.z z l ",
"=.o.u z v Z ).(._._._.mXDXSXZXZXmX7X7X(./.D./.2XQ V V p.t.2 u u ",
"-.=.e.2 m Z Q.R.E.E.~.aXVXZXZXmXsX).W.W.W.W.J.Y.b.f 0 j e.y  . .",
"-.-.o.y.s.N.Q.^.E.E.E.).aXmXDXsX).!.!.R.!.~.P.Y.a.c 0 y o.o.o.| ",
"=.=.o.y.v.N.Q.^.E.^.^.N.U.aXaXP.m.m.m.m.m.n.M.K.B 0 a t ..|  .t ",
"o.o.o.z m s.N.Q.!.!.Q.B.M.b.V n n v v v v b b r.c a a #.t t t r ",
"y o.u u 2 s.N.P.Q.~.B.~.b.m 2 2 k 2 f k f j l j u t t t t t a r "
};
