/* XPM */
static char *result[] = {
/* columns rows colors chars-per-pixel */
"32 32 74 1 ",
"  c #545676",
". c #53597A",
"X c #4E5F86",
"o c #4D6087",
"O c #43648E",
"+ c #4C648B",
"@ c #4F6989",
"# c #506F8B",
"$ c #496793",
"% c #496A97",
"& c #476D9B",
"* c #486C9A",
"= c #4673A5",
"- c #4A7BA3",
"; c #4575A9",
": c #447AB2",
"> c #447FB9",
", c #50839A",
"< c #4D84A4",
"1 c #508EA6",
"2 c #4480B9",
"3 c #53A0B2",
"4 c #4386C4",
"5 c #4589C4",
"6 c #448BCC",
"7 c #4892C4",
"8 c #4E9EC4",
"9 c #448ED1",
"0 c #4490D4",
"q c #4595DB",
"w c #499BDE",
"e c #52A7C4",
"r c #52A8C5",
"t c #57B4C6",
"y c #58B6C3",
"u c #4EA7DE",
"i c #56B7DF",
"p c #4799E2",
"a c #489DE7",
"s c #489FEA",
"d c #459AF7",
"f c #469DF8",
"g c #489FF8",
"h c #49A1ED",
"j c #4AA3F3",
"k c #4DAAF5",
"l c #4AA4F8",
"z c #4DABF8",
"x c #50AFF8",
"c c #54B7F5",
"v c #52B5F9",
"b c #56BDF9",
"n c #5DC2CE",
"m c #5CC4DF",
"M c #62CFD9",
"N c #5DC5E0",
"B c #5DCAF6",
"V c #57C0F9",
"C c #59C3FA",
"Z c #5ECDFA",
"A c #5FD1FA",
"S c #63D4E1",
"D c #68DEE5",
"F c #60CFFA",
"G c #64D9F7",
"H c #62D6FB",
"J c #66DCFB",
"K c #68E0E6",
"L c #6BE6EA",
"P c #6FEEF1",
"I c #69E4FB",
"U c #6CEAFC",
"Y c #72F5F7",
"T c #71F3FC",
/* pixels */
"O=4qhshshhhhhhhhhhhhhhhsshhhssha",
"*:9szzzxvvvvvvvvvvvvvvvxzzzllzlj",
"*:6szvvVCCCCCCCBCCCCCCbbvzzllzlj",
"*:9szvCZHHJJHHHHGHHHHHHZbvzzzlzj",
"*:9sxbZJUUUUUUUUUUUUUUIJZvxllllj",
"*:9svCHUTTTTTTTTTTTTTTUJZbzzlzkj",
"*:9svCHUTTTUIIIIIIIIIIJFCvlllllj",
"*:9svVHUTTIJHZZFAZZZZZZbvzlljllj",
"*;9svCHUTUJZVvvvvvvvvvvzllffgllg",
"*:9svCAUTUHVzflllllllllggddfggjj",
"*:9svCHUTIAvlddflllllllgfdddgglj",
"*:9svCHUTIAvldllzvvvvvvxzlffgllj",
"*:9sxCHUTIZvlfzvVBZZZZZbvzlllllj",
"*:9svCHUTIAvllxVHJIIIIJHCvzjlllj",
"%:6svCAUTIAbllvCJTTTPTUGBckljllh",
"*:9svCHUTIZvlgvZITYPLDSmiuwwahjj",
"*:9svCHUTIZbllvZITPKMnte87550phj",
"*:9svCHITIAvllvZITLMy31<---:40sh",
"*:9svCHUTIAvlgvZIPKn3,#@@o+*:6ph",
"*:9svbAIUJCvllvZJUSt1#     +=4ph",
"%:6svbCHJFCzlfzbAHNr<@     +=4qh",
"*:9szvbZZCvzfdzvCBi8<@     +=4ph",
"*:9szxvbvvzlddllvvu7-+     o=4ph",
"*:9sllzzzzlfddflzkw5;+.   .+=4ph",
"*:9slzlzzllfddfllla6:&$+o+$&:6as",
"*;9alllllllfgffllja04:=====:4qaj",
"*:9slzzlzlllllllllhaq64444499asj",
"*:9szllzllljllllkljssapppppasjjj",
"%;4ajjsjhhjjsjjjhjhssssssshhsjja",
"$=>599090q9009900000q99q00099099",
"X$=:>>>>2222>22222>2>>>>>>>>>>>>",
".X$%&&&&***&&&&***&*&&&&&&&&&***"
};
