/* XPM */
static char *result[] = {
/* columns rows colors chars-per-pixel */
"32 32 236 2 ",
"   c #4F3C6D",
".  c #613362",
"X  c #732A7B",
"o  c #1D5850",
"O  c #2B5750",
"+  c #3D7D57",
"@  c #1A5969",
"#  c #185878",
"$  c #27557A",
"%  c #364B74",
"&  c #1F6476",
"*  c #29786A",
"=  c #22607B",
"-  c #2C7476",
";  c #37757A",
":  c #327068",
">  c #765C5F",
",  c #494267",
"<  c #504371",
"1  c #6E4B77",
"2  c #724F74",
"3  c #4A7671",
"4  c #616D59",
"5  c #834973",
"6  c #826879",
"7  c #8A685E",
"8  c #2E836B",
"9  c #65A05E",
"0  c #489771",
"q  c #45A36E",
"w  c #6DB06F",
"e  c #7EF54C",
"r  c #75FB4C",
"t  c #79F94C",
"y  c #7CF646",
"u  c #7BF652",
"i  c #7BFB52",
"p  c #78F758",
"a  c #7EEF5F",
"s  c #6CD37B",
"d  c #6CC87B",
"f  c #7CF465",
"g  c #79E979",
"h  c #7DF473",
"j  c #9EE739",
"k  c #83814E",
"l  c #9FBF5C",
"z  c #8D8E75",
"x  c #91B178",
"c  c #AEAD71",
"v  c #C1AA5C",
"b  c #CF8D6D",
"n  c #CCAB6C",
"m  c #B9DA5C",
"M  c #A1D45E",
"N  c #88ED4A",
"B  c #82F44C",
"V  c #88F447",
"C  c #9AF54D",
"Z  c #96F74D",
"A  c #89ED56",
"S  c #9BE958",
"D  c #84F255",
"F  c #98F34F",
"G  c #B5EC48",
"H  c #BCF54E",
"J  c #B7E956",
"K  c #A4F256",
"L  c #BEFA5B",
"P  c #A5EB4C",
"I  c #95D176",
"U  c #B1D172",
"Y  c #8CEC67",
"T  c #99E967",
"R  c #89EB75",
"E  c #96E677",
"W  c #82F374",
"Q  c #8AF365",
"!  c #A7E474",
"~  c #B8E678",
"^  c #AFF372",
"/  c #C9F95B",
"(  c #D1F65A",
")  c #C5C963",
"_  c #E0DD76",
"`  c #C3FD62",
"'  c #CCFA63",
"]  c #D8FD69",
"[  c #CFF172",
"{  c #E4FF65",
"}  c #E6FF68",
"|  c #E2F977",
" . c #3C3EBD",
".. c #543A9A",
"X. c #4D398E",
"o. c #6C2F90",
"O. c #493CAA",
"+. c #5533A9",
"@. c #4939B8",
"#. c #5436BA",
"$. c #552EB2",
"%. c #6E2FAF",
"&. c #1B5581",
"*. c #1D558B",
"=. c #1E4F95",
"-. c #1F5598",
";. c #284E84",
":. c #36468A",
">. c #225587",
",. c #284C98",
"<. c #374893",
"1. c #235495",
"2. c #24529C",
"3. c #336889",
"4. c #1F4EA3",
"5. c #1E52A4",
"6. c #1E51AB",
"7. c #1F51B4",
"8. c #244EA5",
"9. c #294DA4",
"0. c #244DAA",
"q. c #2A4CAB",
"w. c #3547A3",
"e. c #2451A4",
"r. c #2451A9",
"t. c #2851A9",
"y. c #2852A5",
"u. c #284CB6",
"i. c #3842B8",
"p. c #424888",
"a. c #504F95",
"s. c #684E8A",
"d. c #71548E",
"f. c #4B728E",
"g. c #4F6A8D",
"h. c #736F96",
"j. c #564BAB",
"k. c #7755B8",
"l. c #6E4AAE",
"z. c #6B69AB",
"x. c #3A3EC3",
"c. c #761ED9",
"v. c #7B1DC8",
"b. c #443AC4",
"n. c #4B37C5",
"m. c #5432C7",
"M. c #5730D2",
"N. c #6727D8",
"B. c #6B24C4",
"V. c #721EEC",
"C. c #701EE2",
"Z. c #721DEC",
"A. c #6924E3",
"S. c #7320EC",
"D. c #3140C1",
"F. c #7857C2",
"G. c #8B2CA9",
"H. c #895786",
"J. c #937298",
"K. c #BC7596",
"L. c #B27593",
"P. c #8A51B4",
"I. c #A05ABA",
"U. c #846BB8",
"Y. c #AB73B0",
"T. c #A64E98",
"R. c #CF75A5",
"E. c #8E35C9",
"W. c #8C69C5",
"Q. c #B87ACC",
"!. c #A973D2",
"~. c #BC68E2",
"^. c #B451CF",
"/. c #CE6DCC",
"(. c #508C82",
"). c #57A984",
"_. c #54B183",
"`. c #5DA596",
"'. c #78B490",
"]. c #74BDAA",
"[. c #6ED684",
"{. c #79CA99",
"}. c #70CD8D",
"|. c #7EE688",
" X c #988B98",
".X c #B68D8A",
"XX c #86BE97",
"oX c #B4A687",
"OX c #A9B180",
"+X c #B48FAF",
"@X c #91B0BA",
"#X c #A697B3",
"$X c #D98787",
"%X c #D88699",
"&X c #C88B8E",
"*X c #E88388",
"=X c #E48597",
"-X c #D5A380",
";X c #C589AA",
":X c #DE83B3",
">X c #D587AA",
",X c #E281A4",
"<X c #CFA8B0",
"1X c #B2CE88",
"2X c #95E781",
"3X c #82F288",
"4X c #8EE597",
"5X c #8BE689",
"6X c #BFF394",
"7X c #B1EC85",
"8X c #A9D5AE",
"9X c #B1E7A2",
"0X c #90E5AE",
"qX c #D4FD97",
"wX c #CFCCB4",
"eX c #D6F8AA",
"rX c #D9F9B8",
"tX c #D3F3A6",
"yX c #E7FBBD",
"uX c #E0D2B7",
"iX c #AF90D2",
"pX c #B39FE3",
"aX c #D384C7",
"sX c #CF83E1",
"dX c #C6B8D2",
"fX c #B5E0C6",
"gX c #D5CED2",
"hX c #D5F7C7",
"jX c #F3FBDB",
"kX c #EEF1D3",
"lX c #D3D0E3",
"zX c #D4CAED",
"xX c #E8D5F5",
"cX c #FFF9FC",
"vX c #F6ECEF",
"bX c #ECCBDE",
/* pixels */
"8.8.8.q.q.q.q.0.8.t.0.5.6.8.8.w.;.% $ $ ,.=.0.8.8.8.9.r.r.6.7.7.",
"q.q.8.0.q.q.0.0.r.e.8.r.r.e.,.,.% $ f.f.3.2.,.0.e.8.8.0.0.6.7.u.",
"q.q.0.0.q.u.q.6.0.0.6.5.5.-.>.$ % 3 @X@Xf.;.,.2.e.e.8.8.4.6.4.0.",
"q.q.0.8.0.u.0.0.0.8.8.-.*.& @ : + '.fXfX(.@ >.1.2.9.9.8.8.8.8.0.",
"0.0.4.8.8.0.6.6.r.y.2.>.# o o * x 9XrX8X0 o $ >.1.2.9.9.0.r.8.q.",
"q.8.8.4.8.4.4.8.y.2.>.>.- + 8 9 ~ qXeX7X9 + 8 3.$ *.1.2.r.t.q.9.",
"q.r.e.e.e.8.4.5.1.>.$ 3.`.}.I I m / [ [ I w {.`.- # # ,.e.e.q.q.",
"t.t.8.8.8.8.-.-.&.= - 0 {.5X2XE m ( [ [ ! E 4X{.0 * = # 1.e.t.w.",
"9.8.8.0.e.e.1.&.@ * _.}.|.R Y T ( { ] ] ^ Y 5X|.}._.8 @ # -.5.8.",
"8.=.e.e.e.2.*.& * q [.|.h a A F ( } } ' K Q W g 3X[.q * & *.2.9.",
"5.5.r.r.5.-.# * _.[.g h p e V Z ( } } / K A f f h g [._.- # =.2.",
"5.6.5.e.-.*.@ 8 [.|.h p u B V Z ( { { / P e r i f f |.[.- # *.1.",
"r.e.4.8.1.&.@ 8 [.|.f f i i V Z / ( { / C V r r i p W d 8 @ # >.",
"9.9.,.,.;.$ * 0 [.h f p i t B Z / / ( / C y r r i p W s 0 - = >.",
"<.<.:.$ $ 3 `.}.g f f i r t B t P H ( / Z B r r r p f |.{.`.; @ ",
"p.p.g.g.; 3 XX4Xg f i r r r V j j G / ` Z y t t t i Q 3X0X].; @ ",
". X J. Xz x I E R D t r r t B V j G / / Z e t i B B A E 4X'.3 o ",
"5 6  X+XoXOX1X1XT D u r r t B V j H / L Z e t i V A Q 2X9XXX0 O ",
"K.K.&X&X.XoXU U T A B i i r B V L ' ] L F e e B A F ^ eXhX8X3 O ",
"=X=X%X&X&X&Xc l M S N e p p B V ` ] ] ` Z B B A T qXtXhXgX#Xg., ",
"*X*X=X=X,X&X7 7 l K P N u u N Z ` ] ] L F N A ! 6XrXjXgX#Xz.....",
"*X*X=X,XR.K.> > c ~ K S A a N F ` [ ] ` P N T ! 1XwXgXsXk.$.$.#.",
"$X%X=X:X/.Y.H.6 wXeXqX7XT S S P m [ | ] J M ! x z > H.P.%.B.N.N.",
"L.K.;XaX/.I.d.2 #XgXrXeXtX7X~ ) ) ) _ _ m U U c > . o.%.B.N.A.S.",
"2 H.iXQ.P.%.l.o.d. XgXjXkXrXyXtXn v n n v c oXb 5 o.%.v.v.C.Z.Z.",
"< s.U.W.l.$.+...X.h.zXcXjXjXkXuX-Xb b b b b &XR.T.G.G.v.c.C.Z.Z.",
"p.p.a.j.@.#.@.+.+.U.zXcXcXkXwX<X-X$X$Xb *X$X,XR./.^.E.E.C.Z.Z.Z.",
"<.<.<.w.j.@.n.@.#.F.pXzXcXvXdX<X<X<X>X%X%X%XR.aXsX/.E.B.N.A.A.A.",
",.,.,.w. . .b.b.m.#.k.iXxXcXvXxXvXbX<X;X;X>X;XaXsX!.F.%.$.M.M.M.",
"q.9.w.q.q. .b.b.n.$.$.k.pXlXlXlXzXdX+XJ.J. XY.iX!.W.%.+.@.@.b.b.",
"9.q.0.u.u. . .b.n.m.$.#.z.z.h.h.h.h.d.s.1 2 2 d.d.j...O.O. . . .",
"0.0.6.u.D.x.x.x.n.m.m.O.<.:.:.< O , < < <   .   X...X.O.O. . .x."
};
