/* XPM */
static char *result[] = {
/* columns rows colors chars-per-pixel */
"32 32 241 2 ",
"   c #21593E",
".  c #5C365F",
"X  c #533F6B",
"o  c #563A78",
"O  c #6D2E70",
"+  c #185B59",
"@  c #2B5655",
"#  c #3C7C5A",
"$  c #195969",
"%  c #1C557D",
"&  c #1B5978",
"*  c #2E4F78",
"=  c #265675",
"-  c #374C75",
";  c #1E6374",
":  c #297767",
">  c #2C7575",
",  c #377677",
"<  c #296677",
"1  c #457A5C",
"2  c #464164",
"3  c #414677",
"4  c #7D4E7C",
"5  c #6B567D",
"6  c #775165",
"7  c #4B7572",
"8  c #7F6570",
"9  c #76664F",
"0  c #854A74",
"q  c #8A6A6C",
"w  c #2D855F",
"e  c #2F836A",
"r  c #338174",
"t  c #689F5E",
"y  c #4B9B7A",
"u  c #4C9167",
"i  c #629D6F",
"p  c #44A16C",
"a  c #6FFB47",
"s  c #7DF54C",
"d  c #73FB4B",
"f  c #7BFA4C",
"g  c #7CF747",
"h  c #7CF652",
"j  c #75FB53",
"k  c #7AFA54",
"l  c #79F759",
"z  c #7EEE4C",
"x  c #6CD37A",
"c  c #6BC67C",
"v  c #7CF46C",
"b  c #7AF463",
"n  c #7BE878",
"m  c #7CF576",
"M  c #9BE73C",
"N  c #A0E13F",
"B  c #84814C",
"V  c #A1BC5D",
"C  c #908D76",
"Z  c #92AE7A",
"A  c #A9AF74",
"S  c #D28C6C",
"D  c #D68A79",
"F  c #C98B76",
"G  c #C8A567",
"H  c #CFAD75",
"J  c #AAD65D",
"K  c #89ED4A",
"L  c #83F34C",
"P  c #89F249",
"I  c #99F64C",
"U  c #88EC59",
"Y  c #97E855",
"T  c #84F455",
"R  c #94F350",
"E  c #99F655",
"W  c #99EA4D",
"Q  c #ABE946",
"!  c #BCE552",
"~  c #BDFE5D",
"^  c #BBF655",
"/  c #ADEE51",
"(  c #97CB76",
")  c #A8DB76",
"_  c #B4D270",
"`  c #8BEB67",
"'  c #98E864",
"]  c #81F16A",
"[  c #8BEA7B",
"{  c #9DE778",
"}  c #80F278",
"|  c #9FF168",
" . c #A8E966",
".. c #B5E971",
"X. c #C7FA58",
"o. c #D5FB5D",
"O. c #C8E85C",
"+. c #C4CA64",
"@. c #DBD875",
"#. c #CEFD63",
"$. c #C4FD63",
"%. c #D7FD67",
"&. c #CEF575",
"*. c #E5FF6A",
"=. c #E3FF65",
"-. c #3B3CB8",
";. c #3B3FAA",
":. c #5C3888",
">. c #503897",
",. c #6D2E95",
"<. c #751DBF",
"1. c #4938A6",
"2. c #5636A9",
"3. c #493BBA",
"4. c #5337B7",
"5. c #572FAC",
"6. c #7222B8",
"7. c #6E2FAD",
"8. c #1C5583",
"9. c #1E578B",
"0. c #1E5495",
"q. c #225485",
"w. c #22538C",
"e. c #285D84",
"r. c #224E9C",
"t. c #2C4D9B",
"y. c #384894",
"u. c #225294",
"i. c #24539B",
"p. c #295395",
"a. c #2E4E86",
"s. c #346989",
"d. c #1F4EA7",
"f. c #1D52AA",
"g. c #1D52A6",
"h. c #1D4EB2",
"j. c #1B50B0",
"k. c #244DA4",
"l. c #294DA6",
"z. c #244EAB",
"x. c #294CAA",
"c. c #2351A5",
"v. c #2351AB",
"b. c #2A51A6",
"n. c #2B4BB1",
"m. c #3744B3",
"M. c #3249AB",
"N. c #454888",
"B. c #4A5C8E",
"V. c #734A8B",
"C. c #745884",
"Z. c #734D96",
"A. c #64508B",
"S. c #48708C",
"D. c #6F729A",
"F. c #737291",
"G. c #70698F",
"H. c #5147AB",
"J. c #6F50AE",
"K. c #6762A4",
"L. c #6F1FD9",
"P. c #751DD1",
"I. c #4839C3",
"U. c #5732C6",
"Y. c #5431D3",
"T. c #6627C6",
"R. c #6B26D5",
"E. c #741BEB",
"W. c #7221E8",
"Q. c #6226E2",
"!. c #7B43C2",
"~. c #8C359E",
"^. c #8C5F8C",
"/. c #8B688A",
"(. c #9F7E9D",
"). c #B77594",
"_. c #8D56B0",
"`. c #8167AF",
"'. c #A878AF",
"]. c #A35392",
"[. c #C876B1",
"{. c #8538C6",
"}. c #8C65C4",
"|. c #AF73CF",
" X c #A955C7",
".X c #568783",
"XX c #56A881",
"oX c #5CA494",
"OX c #57B183",
"+X c #7AB48E",
"@X c #72BAA4",
"#X c #76C987",
"$X c #78C898",
"%X c #6CD088",
"&X c #7EE686",
"*X c #96878D",
"=X c #B19194",
"-X c #BAAF91",
";X c #8FB0B9",
":X c #979DA8",
">X c #CE8C88",
",X c #D78887",
"<X c #C59489",
"1X c #D78695",
"2X c #CA8C99",
"3X c #E6818C",
"4X c #E58296",
"5X c #D7A582",
"6X c #D985A7",
"7X c #CC8DAE",
"8X c #CDA9AF",
"9X c #E885A2",
"0X c #B3CF8A",
"qX c #99E786",
"wX c #82F087",
"eX c #94E498",
"rX c #88E98C",
"tX c #B7ED86",
"yX c #B2E6A6",
"uX c #96D4A1",
"iX c #D1F496",
"pX c #CECBB5",
"aX c #CEF3AC",
"sX c #E7FBB9",
"dX c #E0D3B1",
"fX c #AC96D5",
"gX c #CA87CD",
"hX c #C9BACF",
"jX c #D8BEED",
"kX c #B1DDC4",
"lX c #CDCBD7",
"zX c #CFC9CF",
"xX c #CCEFC6",
"cX c #EAF3CC",
"vX c #D6CBEF",
"bX c #F1E6EA",
"nX c #FDFDE8",
"mX c #FAEAFF",
"MX c #FDF4FA",
"NX c #EEE0E0",
"BX c #F0D4E4",
/* pixels */
"h.j.f.f.v.c.c.c.c.k.i.w.* * * a.t.i.c.c.z.n.v.j.v.z.x.x.b.v.c.z.",
"h.f.f.d.v.c.c.c.c.r.u.s.S.S.- * a.p.c.c.z.z.z.v.d.z.x.x.l.k.z.z.",
"z.d.c.d.c.l.b.c.c.u.e.S.;X;X7 @ = q.u.i.k.k.z.h.f.z.z.x.k.k.z.z.",
"z.k.c.f.k.c.c.i.p.w.= S.kXkX+X1 < $ % 9.0.k.z.v.z.z.z.x.l.k.x.x.",
"x.k.c.v.k.k.i.u.< $ @ u uXsXyXZ 1 + $ = u.r.b.c.h.z.n.z.l.l.k.x.",
"x.x.x.x.k.0.q.e.s., # t tXiXiX_ i # , > e.w.i.d.z.h.z.z.k.k.l.l.",
"x.x.z.r.u.8.& , oX@Xc ( &.iXO.J ( +X$XoX, = q.i.c.d.k.k.l.c.l.l.",
"x.x.k.u.% & : y $XeX[  .&.%.O.! { qXrX$Xy > = % 0.r.k.l.k.l.l.l.",
"x.l.u.8.$ e y &X&X&X` | %.*.=.o. .` [ rX%XOX: $ % 0.c.v.c.c.c.i.",
"l.r.u.< e p x &X&Xv U  .o.=.*.%.E U l m &X%Xp : ; 9.0.g.c.v.k.c.",
"i.u.8.> y x n v b b T / o.=.=.o.I K h b v n %XOX> 8.0.g.f.f.g.f.",
"u.9.& r %X&Xv l j k P I X.=.=.o.I K j j b m wX%Xe $ 8.0.g.g.f.f.",
"8.% $ e c m b k j d g I X.o.o.X.I P P k l v wXc e + % w.i.c.c.c.",
"& = > XXx m k f d a g I X.o.X.X.I P f f l b v x p : $ = w.p.i.t.",
"$ , oX$Xn b k f a a f I ^ X./ M P L f d k l v [ #Xi , * * * y.y.",
"+ , @XeX&Xb h d d a f I ~ X.N M P L d j j l b [ eX@X.X7 S.B.N.N.",
"  1 +XeX[ ` K K s d g I ^ X.Q Q P P f j d j b ` { ( Z C *X/.6 X ",
"@ 7 uXyXqX' U K s f f E ~ X.! Q P P k j j z U ' ( 0X-X-X=X(.^.0 ",
"@ 7 ;XxXaXtX' Y U T h R ~ #.#.^ R P h k l U U ) _ -X-X<X2X1X).).",
"3 G.;XlXaXaXtX .` T z R ~ #.#.$.E T h h z W Y J A A F >X1X3X3X[.",
"H.H.K.:XhXcXaXiX| ] L R ~ #.#.X.R f z z K W  .V B q ).4X[.4X3X3X",
"U.5.5.J.fXhXpX0X) ' Y W $.%.$.^ R K K K R  ...A q 0 ).[.4X3X3X3X",
"Q.R.<.7._.^.8 C A )  . .&.%.O.! Y Y Y ' ..&.iX0Xq 6 '.[.6X6X4X4X",
"E.L.P.6.7.:.O 9 =X+._ +.@.@.H +.....tXiXaXaXpX=X4 V.'.|.gX7X).).",
"E.E.L.P.6.6.O 0 F 5XA G G G G @.iXsXsXcXcXzX*XC.:.Z.7._.|.fX/.4 ",
"E.E.L.P.<.~.~.].).F S S S S F H dXcXnXnXnXhXG.:.>.5.5.J.J.`.A.2 ",
"E.E.W.R.P.{. X[.[.1X,XD D ,XD D 8X8XNXMXmXvX`.>.2.4.4.H.J.H.N.N.",
"Q.Q.Q.R.R.{. XgX7X6X1X1X1X2X8X8X8XpXmXmXjXfXJ.2.3.I.I.-.M.y.y.y.",
"Y.Y.Y.U.T.T.|.gXgX7X7X7X7X7XBXbXNXMXMXvXfXJ.4.4.I.I.m.m.M.l.t.t.",
"I.I.3.3.2.J.}.|.'.'.(.(.(.:XhXlXlXlXvXfXJ.1.4.I.I.3.m.m.x.x.k.r.",
"m.H.1.1.2.2.J.J.Z.V.V.5 5 C.G.G.F.D.D.K.H.5.U.I.I.-.m.n.n.n.x.k.",
"n.m.M.1.>.,.:.:.o o 2 X X 2 2 X - o - y.1.4.U.I.I.-.-.n.n.z.z.k."
};
