/* XPM */
static char *result[] = {
/* columns rows colors chars-per-pixel */
"64 64 256 2 ",
"   c #3D3501",
".  c #382600",
"X  c #483801",
"o  c #543906",
"O  c #472700",
"+  c #613F00",
"@  c #3B4900",
"#  c #3C5B00",
"$  c #4A4301",
"%  c #554603",
"&  c #51520B",
"*  c #694904",
"=  c #685809",
"-  c #77590C",
";  c #785A16",
":  c #6B5412",
">  c #56620E",
",  c #776416",
"<  c #6F6E14",
"1  c #7D5A26",
"2  c #786C2A",
"3  c #5C5328",
"4  c #835D10",
"5  c #866717",
"6  c #897719",
"7  c #97781A",
"8  c #926911",
"9  c #A9781D",
"0  c #977926",
"q  c #8B6F2A",
"w  c #A57728",
"e  c #B37B30",
"r  c #867E48",
"t  c #169D02",
"y  c #1D9E03",
"u  c #1D9D0B",
"i  c #1A9603",
"p  c #189E0B",
"a  c #2B8D0B",
"s  c #2A8A07",
"d  c #358D02",
"f  c #378908",
"g  c #249403",
"h  c #2B9503",
"j  c #229D03",
"k  c #2A9B03",
"l  c #24950B",
"z  c #2C940D",
"x  c #239C0B",
"c  c #2A9B0C",
"v  c #359303",
"b  c #359609",
"n  c #2D8D14",
"m  c #348D13",
"M  c #3B8A16",
"N  c #2C9412",
"B  c #2B9B12",
"V  c #279814",
"C  c #339313",
"Z  c #379718",
"A  c #15A301",
"S  c #1CA102",
"D  c #1CA20A",
"F  c #16A506",
"G  c #13A408",
"H  c #22A103",
"J  c #23A10A",
"K  c #29A10B",
"L  c #27A407",
"P  c #25A312",
"I  c #32A212",
"U  c #3E9423",
"Y  c #3E8922",
"T  c #469404",
"R  c #469519",
"E  c #559A1B",
"W  c #4D8E0B",
"Q  c #6C9512",
"!  c #4BA215",
"~  c #59A518",
"^  c #55A40D",
"/  c #6EA718",
"(  c #469627",
")  c #559728",
"_  c #579A34",
"`  c #4E8F2D",
"'  c #6E9530",
"]  c #57A830",
"[  c #66AA27",
"{  c #77AC29",
"}  c #68A638",
"|  c #79B837",
" . c #70B32F",
".. c #78C537",
"X. c #779648",
"o. c #68AB45",
"O. c #75AC48",
"+. c #78B64A",
"@. c #70B652",
"#. c #65AB4D",
"$. c #7AC257",
"%. c #7CC166",
"&. c #908D17",
"*. c #AB9718",
"=. c #8AA41B",
"-. c #9FAA1F",
";. c #B1A41B",
":. c #988524",
">. c #928F2F",
",. c #A68728",
"<. c #B68829",
"1. c #B89729",
"2. c #A88B36",
"3. c #AB9535",
"4. c #B79937",
"5. c #AD9231",
"6. c #86B936",
"7. c #9AB83A",
"8. c #92B02A",
"9. c #A9A728",
"0. c #B9A42A",
"q. c #B8B228",
"w. c #AAA535",
"e. c #BAA637",
"r. c #ABB830",
"t. c #C5991A",
"y. c #D4AD1D",
"u. c #C79A26",
"i. c #C69A37",
"p. c #CE9627",
"a. c #CAA628",
"s. c #D1A528",
"d. c #C7B629",
"f. c #D5B629",
"g. c #C7A639",
"h. c #D7B837",
"j. c #D0AE38",
"k. c #E6BA38",
"l. c #E4BB2B",
"z. c #93C339",
"x. c #B0C538",
"c. c #DAC537",
"v. c #CEC734",
"b. c #E6C838",
"n. c #EDCE3A",
"m. c #8C8E4C",
"M. c #86BB57",
"N. c #97B759",
"B. c #93B34E",
"V. c #B9A746",
"C. c #B3B54B",
"Z. c #8EB965",
"A. c #ADB06F",
"S. c #AF915D",
"D. c #C7A844",
"F. c #CAB646",
"G. c #D5B849",
"H. c #D8BB55",
"J. c #D3AA43",
"K. c #E3BC47",
"L. c #E2BC57",
"P. c #C8B06E",
"I. c #D29942",
"U. c #97CA47",
"Y. c #87C45B",
"T. c #97C854",
"R. c #8ECB4B",
"E. c #AAC84A",
"W. c #AFD053",
"Q. c #8AC468",
"!. c #94CB73",
"~. c #B8DB66",
"^. c #A7D879",
"/. c #AFD274",
"(. c #B7EB6C",
"). c #D8C646",
"_. c #C8CA59",
"`. c #D9C556",
"'. c #D2D550",
"]. c #E6C848",
"[. c #EAD548",
"{. c #F7D64A",
"}. c #E8C957",
"|. c #EAD759",
" X c #FBD858",
".X c #F8CB50",
"XX c #D6E352",
"oX c #F5E24A",
"OX c #F9E858",
"+X c #F1E854",
"@X c #C8D867",
"#X c #D7D96A",
"$X c #C7D877",
"%X c #D8D577",
"&X c #D0CB70",
"*X c #EBD968",
"=X c #FDDC63",
"-X c #F5DA68",
";X c #E8DA74",
":X c #F5D66D",
">X c #C8E46B",
",X c #D6E36E",
"<X c #D9E776",
"1X c #D2F174",
"2X c #E7E56A",
"3X c #FDE46B",
"4X c #FEEB6B",
"5X c #F7E666",
"6X c #FBF46A",
"7X c #E8E676",
"8X c #FCEC74",
"9X c #FFEE7B",
"0X c #F6E777",
"qX c #E8F679",
"wX c #FDF574",
"eX c #FDF47A",
"rX c #FDFA7D",
"tX c #F6F47A",
"yX c #B5BB8B",
"uX c #98CF82",
"iX c #B2D687",
"pX c #B6E790",
"aX c #BEEDAB",
"sX c #D5D591",
"dX c #E5DC84",
"fX c #E7D698",
"gX c #C8E989",
"hX c #D8F587",
"jX c #D2EF95",
"kX c #E7EA88",
"lX c #F7E885",
"zX c #ECF787",
"xX c #FEF383",
"cX c #FCF788",
"vX c #EAE797",
"bX c #E7F598",
"nX c #FEF597",
"mX c #E9DCA1",
"MX c #C7E8A3",
"NX c #D9F8A9",
"BX c #DBFCB7",
"VX c #D0F1AA",
"CX c #E7E8A5",
"ZX c #ECFDAB",
"AX c #E7FAA7",
"SX c #F9FAAA",
"DX c #E7FCB6",
"FX c #F4FFBC",
"GX c #FDFDBD",
"HX c #F9F9B5",
"JX c #F3EAB1",
"KX c #DED9B0",
"LX c #EAFEC6",
"PX c #F9FCC7",
"IX c #F7FDD8",
"UX c #E4FCD4",
/* pixels */
"F u j c h k y A F A A S j H j H A A S A S A t L c k j j i S S A A A S A A S S S S L j k k k B z t H D y H y y J y y H y y j S y ",
"F y j k k j y S A A S S j j j j H H S A S L D H i j x k j j H S y H j H H H S H i k H J J i x i L H i i J H y y D x y y H y y H ",
"F D u k k k y S A A H j j j S j k j j S F S t D J j g g b k h k h h h h z l c c x i u y y D S S y S S S H S S S S S j H j y y H ",
"F S y j k j D S A S j j k j S S g k i y L F t t y k h v d d d T d d d f f f f f Z m B B i u F A j j L H H S S H S j S y D S j y ",
"A t S j j j y D D j j j j j D S x P x i H L L S h d T ^ 8.z.z.z.z.z.U.R.T.T.T.M.} R f a V B u J K k j j y S S S S S S S j y y x ",
"A S S j y H y H j j x j j j y D D D D D H L L ! ~ ^ / z.XXqXqX2XqX1XqXzXzXzXbXbX/.M.O.O._ Z n N B l x x y y A S S S j y S j y D ",
"S S S S S y S y D j x j x y D S D y H L b T / z.x.x.x.v.'.).'.'.XXXXXX2X2X7XqXkXbXbXAXNX^.O.} _ Z N V B j t S A A S S H S y y D ",
"S S S S S S S y j j j x y u S y j K h v ^ z.x.'.'.v.c.c.v.[.oX+X+X+X+XOX6X2X7X7X7XkXbXAXAXDXAXiX] ( m l l u D S S S S S j y D j ",
"j S S S S S D y J i H j y j L j v T T ^ z.x.d.d.y.l.b.n.oX+XoXOXoX+X+XOX6X6X6XrXtXzX<XbXZXAXFXDXpX+.M Z V x y D S S H y y H H t ",
"j j H S S S y H y S H j J K k h W Q 8.r.q.y.t.l.{.n.n.n.n.n.[.{.oXoXoX+X+X6X6XrXrXcXzXzXvXbXAXSXNXpX@.Z N V i J t S S y y S H S ",
"j j j S S t y y J H y i j v v ! =.x.-.-.q.c.{..Xl.l..X{.OXOX X{.=X=XOX6X4XwXwXwXrXrXcXzXkXkXvXvXDXNXpX] M B x y y y H S y S S S ",
"H k j S S H S j y t H L k v T / -.q.q.h.c.b.f.h..X.X X XK.h.j.j.I.I.j.j.K.}.=X0XwX8XxXxXcXlXlX;XbXAXNXT.M N B y j H j j j S S S ",
"k j j H S H j S j t L L v W Q =.*.;.c.].].K.].=X=X}.j.i.4.w w 9 w w w <.4.4.I.G.}.-X0XcXnXxXlX;X7XvXhXpXR s I j J j j j H S S S ",
"j H H y j j j y L j L h d Q =.*.*.k.[.h.K..X:XL.D.2.0 q ; + * * o * ; , 4 4 q e D.H.H.9XcXcXxX0X;X;X<X1XR.v v k k j i j j S S S ",
"j j j y j H j j y H L v ^ =.*.9.k.k.K.k.K.:XG.4.5 , - : 3 2 2 r q 2 2 : * * ; 4 q 4.4.P.;XcXlXxX0X;X,X1X(.! h g k j i j j D S A ",
"H j j S j j j j j H k v / =.*.].k.k.k.:X.Xj.9 5 - , 2 r A.KXKXKXCXCXsXS.m.q 4 : * 5 2.2.H.;XlXcXxX*X,X1X(. .b g k k k L H y S S ",
"A A S j j j H t j v W Q &.*.).[.c.c..X*XV.>.q = 2 A.JXIXPXBXBXBXBXBXBXBXAXMXA.2 : 1 q <.i.i.}.rXcXtX7X@X>XR.! k H H j k L j t D ",
"G A D y j j L L k T W =.*.c.[.h.c.{.*XV.2.2 = A.vXDXDXVXMXiX!.Q.Z.Q.%.!.^.iXgXCXA.= 5 8 e 1.G.|.tXcXtX,X(.T.T k k j j j k L y D ",
"G A S H j k k h v T =.8.q.2Xh.h.{. XJ.,.6 2 gXjXbXgXZ.X.` Y Y U ` U U U ( > ' N.gX/.2 5 4 <.a.G.5XcXcX7X@X~.[ v k k L j j J y D ",
"A A t H K c h v W { 8.9.v.[.h.]. X}.4.5 >.&XjX/.) ` ( R n n u x n V V V V n R ` M.jXkX< 7 7 :.e.}.-XxXtX<X>XU.R v k k j y D D y ",
"H y t y J h b W z.7.=.r.*X).}.=XL.1.2.:.$XN.' ) R m z V x L A A P p G p P B C m ) +.jX$X2 6 *.0.K.}.9XcXzX@X~./ f v k j t H D j ",
"j L y y x h W / W.9.9.`.*X].-X=Xg.:.:.@XN.) R s z B c x D F A A G t G G D j l C a ( Y.jX&X0 w <.p.}.-XxXcX,X>XT.[ b k H S D D j ",
"k j D D j k E B.E.0.e.8X2X}.9XL.i.:.V./.) f a c x u x u t t A A A A A A A i i B V C ( R.$XV.w p.p.K..XeXcXqX#X~.T.~ h D S D j j ",
"k K D t j Z 6.>Xe.1.`.5X-XwX3XH.3.w.%XT.W C c j y y u P P u S H A A A A S H x V B a Z ) ~.%X<.e p.s.}.-XcXqX#X~.hX| b i t S j k ",
"k k t t P ] U.>Xq.g.-X-X3XxX:XG.3.C.hXT.M h J t t y u u l x j j S S S H H H j x V V N M T.kXV.e t.j.F.).cXtX,X_.hX..b x t y j k ",
"k j D t L ] W._.0.j.=X3X8X9X*XD.C.$XbXY.M l D D S S u l x k k j y y j H y j j x u l V C E ~._.4.t.d.h.).wXrX0X_.1X .d x y D k k ",
"j i D u x [ W.C.1.h.=X8X9X0X}.4.P.vXbXM.M B D S S D x x j g k H x j j i j y y y i u u B f T.,Xg.t.u.c.).5XrXeX_._.{ b g y y j k ",
"k j J y j [ E.9.1.K.=X4X9X0X`.g.P.HXNXM.( V y A A D j j k j j H x x j j S S S u u u p u z | 1XW.t.a.).).+XwXeX'.W.{ d k J y k k ",
"j H J k z [ B.9.0.}. X4X8X-XH.J.fXHXCXQ.U V D A S S u x j H y S u J D H S S S H j x u u k ~ ~.#Xa.d.c.c.[.wXwX|.W.Q d h J y H j ",
"j k x g v  .7.-.g.[.{. X3X-XH.J.fXPXNXQ.U l L S A S y x x H S S u y j S A S S H j k D u j v U._.a.f.h.b.{.6X4X'.r./ T h j i H j ",
"j j k h f { 7.&.0.).b.].3X}.H.H.mXGXVXY.n l S A S S D x x D S S S D S S S S S j k g j J c v 6.E.s.f.h.b.{.OX+X).r.7.~ h j j j H ",
"j j k z d | E.&.;.f.f.j.5X].K.L.fXFXNXY.N P A A A S H x V u u F t D S S A A H k h c k i c T { E.f.h.k.n.{. X].).x.W...h L H y y ",
"p u c C ) W.W.:.4.s.s.s..X=X}.`.sXFXNX$.C k H S j J c j y D D p A S y u D S S H k k i J x d  .x.v.v.c.{. X X Xh.e.1XR.s V u u H ",
"D p g b  .gX@X6 1.a.t.t. X3X*XH.CXFXNX%.M k i H j x J j t D G G S S S u D S S H j L J x x d z.E.v.v.].+X4X5X.Xh.9.>XT.m N V y y ",
"D u g b  .hX@X6 1.u.t.t..XeX:X&XsXZXjXQ.M B k j j x j j H S A A H H j x p D A S H i y c c d | E.c.c.[.5X8X=X].g.0.,XT.f N u u y ",
"G u K z } gX@X6 ,.u.t.t.].9XdX%XjXAXAXQ.M b z j x x H H H S S A H H k x p D F A A S L i h f 6.E.c.c.+X6XwX|.).w.w.<XT.M n V J D ",
"D u l f } hXdX0 7 p.p.t.).8XlX;X%XZXNX^.> I B l x y y S H H S H k k x x p p G F A t H L v T 8.W.c.c.OXeXeX|.F.*.w.zXY.> Z B y S ",
"F t c m O.jXfX2.8 t.s.t.d.3XcX%X%XbXZXjX_ ( z x D S A A S S H H x c x x D D A A S i k h d ^ 8.XXc.].5XrXxX`.e.&._.hXY.W Z V y F ",
"A y B m O.jXmXP.8 9 p.a.a.*XcX;X%XvXPXAX!.) n x J F A S S j k B l x H H S S A A i I z d W 8.x.v.v.b.5XeX0XG.w.&.~.W.} f C x y D ",
"A t x m O.VXHXP.q 9 u.p.1.}.0X0X;XfXvXFXBX^.( Z V D A S S j x B y u H H H H H j V m R | W.XXv.d.b.[.4XeX-XV.w.>.7.' R m l x y S ",
"A D u n #.MXLXfXq w w p.p.s.5XcXkX&XfXHXDXBX^.( V V p p p u l V t H H H u g a U #.#.Q.iXzX2Xv.v.[.OX3X:X}.4.6 B.Q R m B l H H S ",
"A A i N o.aXPXKXS.4 8 <.t.j..X8X9X%X%XCXFXFXVXuX@._ V V V u u V S A i i n Y #.!.pXaXjXSX7X|.).h.[.4X3X:XD.*.< 8.E f z P x H H H ",
"A A J B U uXLXLXsX: 4 ,.<.a.j.=XtX7X&XdXSXGXPXDXMXuX_ s l I x i y B c N ` uXaXUXLXFXSXlX|.b.v.c.+X X=XH.4.:.Q B.E h u D y y y H ",
"A F L J n @.aXLXCX>., 8 <.1.j.K.6XzX#X&XfXJXPXPXLXBXiX_ f a B l l n n _ uXUXIXIXIXHXdX}.b.l.b.n.|.5X*Xg.5.< E. .I k y u t y j H ",
"A t D x V U %.VXDXA.2 * 0 5.I.H.|.eXlX;X%XdXJXHXPXPXNX/.} R Z ! _ Y _ uXBXIXIXPXJXlX}.n.y.l.{.oX6X5XD.3.6 < ~.! g t D D D H j j ",
"J i y H V l U %.VXDXm.* - ,.4.I.).0XcXlX*X&XdXlXSXFXFXZXgX^.!.!.!.uXgXDXPXPXHXJXdX}.b.y.y.n.{.OX0X`.3.6 - B.| ! g S D F y L j j ",
"J y S y y x V ( @.VXsX, % 5 2.2.g.H.0XxX0X*X*X;XdXvXSXSXZXAXNXBXDXDXDXSXnXnXlX:X`.).f.l.n.{.=X|.G.1.:.= ' /.R b J D D y i H j j ",
"P i y S y x V Y ` Z.NXm.: % 5 2.u.4.H.*XwXwX2X2X;XkXsXvXAXZXFXPXPXZXSXzXdX:XL.K.d.d.b.n.{. X*X`.0.&.= < $XB.f c D t y y K c j j ",
"y y u H j y y K c Z +.^.B.% X 1 ,.g.4.D.:XxXxXxX0X2X;X0X0X;X;X;X[.[.[.+Xn.c.v.f.c.{.{. X5X=Xk.1.q - > N.Y.R g J j D S y j u j u ",
"u y u j j j x x B B ( +.iXm.o % - w 4.V.D.*X9X9XeX8X0X2X2X*X:X:X|.[.[.c.c.c.c.n.n.{. X3X].G.g.7 : > B.hXE f I k y y j S j H x j ",
"D j y y H J J j B z m ( iXiXm.$ o - m.2.2.V.H.2XwXrX6X0X2XeXtX8X5X|.oX[.n.oX{.oXOXoX}.`.4.2.0 = = N.$XM.f Z g y y y y j j x y x ",
"x J j i j J H i x c Z m O.^.iXX.o o % 1 2.3.4.e.'.|.5X6XwXwX4X8X6X6X6X6XOXOXOX{.[.].e.3.>., > 3 X.T.Y.R C l i L j D S j j y x y ",
"y j x y y H H y i x V a R _ M.iXm.$ . % , q 3.2.4.F.`.|.|.*X-X5X2X5X5XOX5X|.].G.4.5.&.2 > @ & X.Y.E M a B c L i S S y j j y y x ",
"y J J j j j H S D u g V m a ( Y.MXA.3 @   o 2 q 0 2.S.e 4.g.F.G.G.F.F.g.g.4.5.:.7 = > > # ` o.` m Z N c x J D y y y j H j x j u ",
"x j x H j S y S H L u J c Z Z C Z.aXiXX.&   X o : 4 q w w 2.<.<.1.,.:.:.:.7 , < = % @ > B.+.R Z l P l J y D t t y j j j j u y J ",
"D y y J S y S H S t y j x z z z M _ %.pXMXm.X X . O o : ; 5 5 5 , , 5 , = % % $ @ Q M. .R m C B K y u t S S D H S H j j H y y y ",
"j D y D S j S j S y S L j x g l V Z ( #.pXMXVXyXr 3     X X $ o o % X X @ & < ' ' ) E R b z c x G y S S S S S y j j j j S H y S ",
"D y S j S S S S S y y H j k k x x V V Z o.Q.VXBXVXsXiXA.Z.B.>.' ' m.N.N.O.) W ) E R d b b c l j y F S S S S j H j H j S S y S S ",
"S y y S j S H y j H j i j j j x p u V l Z ( @.$.%.%.M.@.o.} } ) o.} o.@.} Z n C z z c z g g x j S t y S S y S j H j S j S y D S ",
"y D S S y S S y y H H y i H j y D D u x V l z s # s a s s a C z f a a z V B V u V u x x J L H j S S S y H j j H j S y S S S S y ",
"j S S y S S S S y H j j j H j y D S u j x k K c P J J K j x J j k k H j p P P p P u u u H H H y y y H j S H j j j S S y y S S j ",
"j S y H j S S j y y H j H S y S t t D S j j j j F A S H y y S S H H H t t t p p u y u P i i S H y j S j j j j S S y S S S y j j ",
"H j S j y S S S S j S H S D S D H S S y j J j u j y D H S y H H H j j H H S S y H t i y H L D S j y j j j H y S S S S S S j H j ",
"j j j S S S y S S y y y H y y F S S H H j J x u D u D J j H k j j j j H H j S y H y H H S A D A j j H j j H y y S S S y S H j j "
};
